%FSTAX44Y44*%
%MOMM*%
%SFA1B1*%

%IPPOS*%
%AMD49*
4,1,8,-0.500380,-1.102360,0.500380,-1.102360,1.102360,-0.500380,1.102360,0.500380,0.500380,1.102360,-0.500380,1.102360,-1.102360,0.500380,-1.102360,-0.500380,-0.500380,-1.102360,0.0*
1,1,1.203200,-0.500380,-0.500380*
1,1,1.203200,0.500380,-0.500380*
1,1,1.203200,0.500380,0.500380*
1,1,1.203200,-0.500380,0.500380*
%
G04~CAMADD=49~8~0.0~0.0~867.4~867.4~236.9~0.0~15~0.0~0.0~0.0~0.0~0~0.0~0.0~0.0~0.0~0~0.0~0.0~0.0~180.0~868.0~868.0*
%ADD49D49*%
%ADD50C,2.703195*%
%ADD51C,1.803196*%
%ADD52C,2.203196*%
%ADD53C,0.803198*%
%LNpcbat2560ver1-1*%
%LPD*%
G54D49*
X00743249Y00313858D03*
Y00268859D03*
X00678249D03*
Y00313858D03*
G54D50*
X00914999Y00699999D03*
X00989999Y00099999D03*
X00064999Y00049999D03*
Y00699999D03*
G54D51*
X00097899Y00162499D03*
X00072499D03*
X00969999Y00352499D03*
X00999999D03*
X00914999Y00387499D03*
Y00417499D03*
X00039999Y00252899D03*
Y00227499D03*
Y00319999D03*
Y00345399D03*
X00357999Y00569499D03*
X00387999D03*
X00307999Y00566999D03*
X00257999D03*
X00914999Y00309999D03*
Y00279999D03*
G54D52*
X00949599Y00177499D03*
X00974999D03*
X01000398Y00177498D03*
X00305398Y003258D03*
X00305399Y00351199D03*
Y00376599D03*
X00279999D03*
Y00351199D03*
X00279998Y003258D03*
X00305399Y00274999D03*
Y00300399D03*
X00279999D03*
Y00274999D03*
X00807799Y00696998D03*
X00782399D03*
X007316Y00696999D03*
X00757D03*
X00655401Y00697D03*
X00630001D03*
X006808Y00696999D03*
X007062D03*
X00503001Y00697D03*
X00477601D03*
X00426801Y00697001D03*
X00452201D03*
X00553801Y00697D03*
X00528401D03*
X005792Y00696999D03*
X006046D03*
X00299801Y00697D03*
X00274401D03*
X00223601Y00697001D03*
X00249001D03*
X00350601Y00697D03*
X00325201D03*
X00376Y00696999D03*
X004014D03*
X001982D03*
X001475Y00672498D03*
Y00647098D03*
X00147499Y00596299D03*
Y00621699D03*
X00147498Y005201D03*
Y004947D03*
X00147499Y00545499D03*
Y00570899D03*
X00147498Y003677D03*
Y003423D03*
X00147497Y00291501D03*
Y00316901D03*
X00147498Y004185D03*
Y003931D03*
X00147499Y00443899D03*
Y00469299D03*
X00147498Y001645D03*
Y001391D03*
X00147497Y00088301D03*
Y00113701D03*
X00147498Y002153D03*
Y001899D03*
X00147499Y00240699D03*
Y00266099D03*
Y00062899D03*
X00444599Y00262499D03*
X00495399D03*
X00469999D03*
X00852498Y00062498D03*
Y00087898D03*
X00852499Y00138697D03*
Y00113297D03*
X008525Y00214897D03*
Y00240297D03*
X00852499Y00189497D03*
Y00164097D03*
X008525Y00367297D03*
Y00392697D03*
X00852501Y00443496D03*
Y00418096D03*
X008525Y00316497D03*
Y00341897D03*
X00852499Y00291097D03*
Y00265697D03*
X008525Y00570497D03*
Y00595897D03*
X00852501Y00646696D03*
Y00621296D03*
X008525Y00519697D03*
Y00545097D03*
X00852499Y00494297D03*
Y00468897D03*
Y00672097D03*
X00917498Y001387D03*
Y001133D03*
X00917497Y00087901D03*
X00917498Y000625D03*
X00892098D03*
X00892097Y00087901D03*
X00892098Y001133D03*
Y001387D03*
X00197801Y00062501D03*
X00223201D03*
X00274Y000625D03*
X002486D03*
X00350199Y00062499D03*
X00375599D03*
X003248Y000625D03*
X002994D03*
X00502599Y00062499D03*
X00527999D03*
X00578798Y00062498D03*
X00553398D03*
X00451799Y00062499D03*
X00477199D03*
X004264Y000625D03*
X00401D03*
X00705799Y00062499D03*
X00731199D03*
X00781998Y00062498D03*
X00756598D03*
X00654999Y00062499D03*
X00680399D03*
X006296Y000625D03*
X006042D03*
X008074D03*
G54D53*
X00628999Y00217999D03*
X00690999Y00212999D03*
X00693999Y00260999D03*
X00638999Y00210999D03*
X00675999Y00208999D03*
X00816108Y00195108D03*
X00747999Y00433999D03*
X00727999Y00412999D03*
X00928999Y00449999D03*
X00589999Y00280999D03*
X00636999Y00247999D03*
X00566999Y00451999D03*
X00084999Y00499999D03*
X00989999Y00475999D03*
X00524999Y00549999D03*
X00523999Y00591999D03*
X00505999Y00572999D03*
X00435999Y00528999D03*
X00108999Y00558999D03*
X00041999Y00616999D03*
X00075999Y00317999D03*
X00065999Y00457999D03*
X00039999Y00426999D03*
X00084999Y00428999D03*
X00071999Y00261999D03*
X00329999Y00190999D03*
X00348999Y00233999D03*
X00344999Y00166999D03*
X00400999Y00175999D03*
X00370999Y00176999D03*
X00444999Y00379999D03*
Y00369999D03*
X00438999Y00361999D03*
X00450999Y00392999D03*
X00398998Y00379998D03*
X00390999Y00377999D03*
X00378999Y00374999D03*
X00376999Y00364999D03*
Y00353999D03*
X00350999Y00305999D03*
X00396999Y00336999D03*
X00379999Y00342999D03*
X00326999D03*
X00372999Y00311999D03*
X00442999Y00325999D03*
Y00340999D03*
X00463999Y00341999D03*
X00381Y00264999D03*
Y00218999D03*
X00366999Y00211999D03*
X00427999Y00285999D03*
X00390999Y00150999D03*
X00438999D03*
X00486999Y00149999D03*
X00567999Y00150999D03*
X00712999D03*
Y00201999D03*
X00823999D03*
X00121999Y00396999D03*
X00079999Y00364999D03*
Y00608999D03*
Y00599999D03*
X00032196Y00452802D03*
X0003856Y00446438D03*
X00476999Y00320999D03*
X00433999Y00332999D03*
X00397999Y00232999D03*
X00491999Y00282999D03*
X00478999Y00330999D03*
X00488999D03*
X00497999Y00328999D03*
X00718999Y00367999D03*
X00499999Y00353999D03*
X00553999Y00376999D03*
X00513999Y00351999D03*
X00525999Y00347999D03*
X00533999Y00339999D03*
X00541999Y00334999D03*
X00553999Y00333999D03*
X00825999Y00161999D03*
X00522999Y00436999D03*
X00511999Y00437999D03*
X00518999Y00475999D03*
X00513999Y00482999D03*
X00343999Y00493999D03*
X00415999D03*
X00339999Y00520999D03*
X00424999Y00506999D03*
X00551999Y00436999D03*
X00459999Y00318999D03*
X00537999Y00436999D03*
X00504999Y00320999D03*
X00631999Y00292999D03*
X00677999Y00338999D03*
M02*