%FSTAX44Y44*%
%MOMM*%
%SFA1B1*%

%IPPOS*%
%AMD24*
4,1,8,-0.500380,-1.000760,0.500380,-1.000760,1.000760,-0.500380,1.000760,0.500380,0.500380,1.000760,-0.500380,1.000760,-1.000760,0.500380,-1.000760,-0.500380,-0.500380,-1.000760,0.0*
1,1,1.000000,-0.500380,-0.500380*
1,1,1.000000,0.500380,-0.500380*
1,1,1.000000,0.500380,0.500380*
1,1,1.000000,-0.500380,0.500380*
%
%ADD10R,1.299997X0.999998*%
%ADD11O,0.299999X1.499997*%
%ADD12O,1.499997X0.299999*%
%ADD13R,1.349997X4.599991*%
%ADD14R,10.799978X9.399981*%
%ADD15R,1.399997X1.099998*%
%ADD16R,1.099998X1.399997*%
%ADD17R,0.999998X1.299997*%
%ADD18O,0.499999X1.599997*%
%ADD19R,2.249995X0.999998*%
%ADD20R,2.249995X0.499999*%
%ADD21R,2.899994X1.999996*%
%ADD22C,0.299999*%
%ADD23C,0.499999*%
G04~CAMADD=24~8~0.0~0.0~787.4~787.4~196.9~0.0~15~0.0~0.0~0.0~0.0~0~0.0~0.0~0.0~0.0~0~0.0~0.0~0.0~180.0~788.0~788.0*
%ADD24D24*%
%ADD25C,2.499995*%
%ADD26C,1.599997*%
%ADD27C,1.999996*%
%ADD28C,0.599999*%
%LNpcbat2560ver1-1*%
%LPD*%
G36*
X00633752Y00371125D02*
X00633554Y00370829D01*
X00631999*
Y00359499*
Y00348421*
X0063343*
X0063361Y00348355*
X00633899Y00348161*
X00634545Y00347394*
X00634603Y00347099*
Y00346798*
X00634719Y00346519*
X00634778Y00346224*
X00634945Y00345973*
X00635009Y00345821*
X0063506Y00345695*
X00635273Y00345482*
X00635441Y00345232*
X00636836Y00343836*
X00637578Y0034334*
X00638124Y00343114*
X00638999Y0034294*
X00651743*
X00651933Y00342625*
X00652252Y00342412*
Y00342096*
X0065244Y00341784*
Y00337293*
X00651449Y00336763*
X00651363Y00336761*
X00651213Y0033666*
X00650812Y00336826*
X00649499Y00337087*
X00583425*
X00583087Y00337499*
X00582826Y00338812*
X00582487Y00339631*
X00582241Y00339999*
X00582487Y00340367*
X00582826Y00341186*
X00583087Y00342499*
X00582826Y00343811*
X00582487Y00344631*
X00582241Y00344999*
X00582487Y00345367*
X00582826Y00346186*
X00583087Y00347499*
X00582826Y00348812*
X00582487Y00349631*
X00582241Y00349999*
X00582487Y00350367*
X00582826Y00351186*
X00583087Y00352499*
X00582826Y00353812*
X00582487Y00354631*
X00582241Y00354999*
X00582487Y00355367*
X00582826Y00356186*
X00583087Y00357499*
X00582826Y00358811*
X00582487Y00359631*
X00582241Y00359999*
X00582487Y00360367*
X00582826Y00361186*
X00583087Y00362499*
X00582826Y00363812*
X00582487Y00364631*
X00582241Y00364999*
X00582487Y00365367*
X00582826Y00366186*
X00583087Y00367499*
X00583425Y00367911*
X00606599*
X00618255Y00356255*
X00619368Y00355511*
X00619669Y00355386*
Y00355309*
X00619743Y0035526*
X00619921Y00355225*
Y00352499*
X00620153Y00351332*
X00620454Y00350604*
X00621115Y00349615*
X00622104Y00348954*
X00622832Y00348653*
X00623999Y00348421*
X00626999*
Y00359499*
Y00370829*
X00623999*
X00620937Y0036956*
X00620603Y00368753*
X00619377Y00368509*
X00616413Y00371473*
X00616891Y00372628*
X00633752*
Y00371125*
G37*
G36*
X00366505Y00328005D02*
X00367993Y0032701D01*
X00369749Y00326661*
X00389513*
X00389999Y00325488*
X00379647Y00315136*
X00378012Y00315297*
X00377325Y00316325*
X0037534Y00317651*
X00373462Y00318024*
X00362443Y00329044*
X00360954Y00330039*
X00359198Y00330388*
X00317569*
X00316754Y00332356*
X0031467Y00335072*
X00311954Y00337155*
X00310369Y00337812*
Y00339187*
X00311955Y00339844*
X00314671Y00341927*
X00316755Y00344643*
X00316936Y0034508*
X00318181Y00345328*
X00320974Y00342536*
X00321347Y00340658*
X00322673Y00338673*
X00324658Y00337347*
X00326999Y00336882*
X0032934Y00337347*
X00331325Y00338673*
X00332651Y00340658*
X00333116Y00342999*
X00332651Y0034534*
X00331325Y00347325*
X0032934Y00348651*
X00327462Y00349024*
X00322043Y00354443*
X00320555Y00355438*
X00318799Y00355787*
X0031757*
X00316755Y00357755*
X00314671Y00360471*
X00311955Y00362555*
X00310368Y00363212*
Y00364586*
X00311955Y00365243*
X00314671Y00367327*
X00316755Y00370043*
X0031757Y00372011*
X00322499*
X00366505Y00328005*
G37*
G36*
X00867836Y00337836D02*
X00868828Y00337173D01*
X00869999Y0033694*
X00875046*
X00875391Y00336657*
Y00315197*
X00874218Y00314711*
X00868467Y00320462*
X00866648Y00321677*
X00864501Y00322104*
X00864248*
X00863855Y00323053*
X00861772Y00325768*
X00859056Y00327852*
X0085865Y0032802*
Y0032929*
X0085956Y00329668*
X00862485Y00331912*
X00864729Y00334836*
X00866108Y00338167*
X00866407Y00338279*
X00867444Y00338423*
X00867836Y00337836*
G37*
G36*
X00841145Y0041154D02*
X00843229Y00408824D01*
X00845945Y0040674*
X0084753Y00406084*
Y00404709*
X00845944Y00404052*
X00843228Y00401968*
X00841144Y00399253*
X00839834Y0039609*
X00839388Y00392697*
X00839834Y00389303*
X00840226Y00388357*
X00839378Y00387087*
X00751235*
X00750749Y0038826*
X00775996Y00413508*
X0084033*
X00841145Y0041154*
G37*
G36*
X00386216Y00381641D02*
X00385347Y0038034D01*
X00385197Y00379587*
X00382932*
X0038134Y00380651*
X00378999Y00381117*
X00377249Y00380768*
X00376157Y00380316*
X00374673Y00379325*
X00373682Y00377841*
X0037323Y00376749*
X00372881Y00374999*
X0037323Y00373249*
X00373682Y00372157*
X00374027Y00371641*
X00374653Y00370659*
X00374379Y00370473*
X00374402Y00370418*
X00374136Y00370307*
X00373703Y00370013*
X00372673Y00369325*
X00371682Y00367841*
X0037123Y00366749*
X00370881Y00364999*
X0037123Y00363249*
X00371682Y00362157*
X00372673Y00360673*
X0037348Y00360134*
Y00358864*
X00372673Y00358325*
X00371682Y00356841*
X0037123Y00355749*
X00370881Y00353999*
X0037123Y00352249*
X00371682Y00351157*
X00372673Y00349673*
X00374157Y00348682*
X00374657Y00348475*
X00374705Y00348338*
X00374992Y00348281*
X00375393Y00346906*
X00374682Y00345841*
X0037423Y00344749*
X00373881Y00342999*
X0037423Y00341249*
X00374682Y00340157*
X00375673Y00338673*
X00377157Y00337682*
X0037791Y0033737*
X00377896Y003373*
X00378864Y00337107*
X00378739Y00335837*
X0037165*
X00348739Y00358747*
X00349225Y00359921*
X00349499*
Y00369499*
X00354499*
Y00359921*
X00358999*
X00360166Y00360153*
X00360894Y00360454*
X00361883Y00361115*
X00362544Y00362104*
X00362845Y00362832*
X00363077Y00363999*
Y0036581*
X00363743Y00366255*
X00369243Y00371755*
X00369987Y00372867*
X00370326Y00373686*
X00370587Y00374999*
Y00380098*
X00373399Y00382911*
X00385537*
X00386216Y00381641*
G37*
G36*
X00843636Y00376881D02*
X00843228Y00376568D01*
X00841144Y00373853*
X00840329Y00371885*
X00731602*
X00726749Y00376738*
X00727235Y00377911*
X00842302*
X00843098Y00378069*
X00843636Y00376881*
G37*
G36*
X00712909Y00371589D02*
X00712458Y00370499D01*
X00718999*
Y00367999*
X00721499*
Y00361458*
X00724357Y00362642*
X00724837Y00363802*
X00726063Y00364046*
X00726257Y00363852*
X00729701Y00362426*
X00731572*
X00731999Y00361999*
X00840623*
X0084255Y00357347*
X00847681Y00355222*
Y00353972*
X0084255Y00351846*
X00838429Y00341897*
X0084255Y00331947*
X00846374Y00330363*
Y00329113*
X00841785Y00327212*
X00838382Y00318997*
X008525*
Y00313997*
X00838382*
X00841785Y00305781*
X00846373Y00303881*
Y00302631*
X00842549Y00301047*
X00839216Y00292999*
X00812999*
X00759999Y00345999*
X00672255*
X0067169Y00347249*
X00672829Y00349999*
Y00352499*
X00661999*
Y00354999*
X00659499*
Y00364328*
X00655499*
X00655368Y00364274*
X00654329Y00364969*
Y00366499*
X0065306Y0036956*
X00649999Y00370829*
X00646999*
Y00359499*
Y00348169*
X00649999*
X00651645Y00348851*
X00652308Y00347249*
X00651743Y00345999*
X00638999*
X00637604Y00347394*
X00638312Y00348454*
X00638999Y00348169*
X00641999*
Y00359499*
Y00370829*
X00638999*
X00638038Y00370431*
X00636999Y00371125*
Y00372628*
X00712216*
X00712909Y00371589*
G37*
G36*
X00419749Y00311737D02*
X0038735Y00279337D01*
X00373749*
X0037359Y00279306*
X00372965Y00280476*
X004054Y00312911*
X00419263*
X00419749Y00311737*
G37*
G36*
X00366974Y00311536D02*
X00367347Y00309658D01*
X00368673Y00307673*
X00369701Y00306986*
X00369863Y00305351*
X00307599Y00243087*
X00290478*
X00288722Y00242738*
X00287234Y00241743*
X00163779Y00118289*
X00159668*
X00158853Y00120257*
X00156769Y00122972*
X00154053Y00125056*
X00152468Y00125713*
Y00127087*
X00154054Y00127744*
X0015677Y00129828*
X00158854Y00132544*
X00160164Y00135706*
X0016061Y001391*
X00160164Y00142494*
X00158854Y00145656*
X0015677Y00148371*
X00154054Y00150455*
X00152468Y00151113*
Y00152487*
X00154054Y00153144*
X0015677Y00155228*
X00158854Y00157944*
X00159669Y00159912*
X001949*
X00196656Y00160261*
X00198144Y00161256*
X00300037Y00263149*
X00302006Y00262334*
X00305399Y00261887*
X00308793Y00262334*
X00311955Y00263644*
X00314671Y00265727*
X00316755Y00268443*
X0031757Y00270411*
X00319999*
X00321755Y0027076*
X00323243Y00271755*
X00351462Y00299974*
X0035334Y00300347*
X00355325Y00301673*
X00356651Y00303658*
X00357117Y00305999*
X00356651Y0030834*
X00355325Y00310325*
X0035334Y00311651*
X00350999Y00312117*
X00348658Y00311651*
X00346673Y00310325*
X00345347Y0030834*
X00344974Y00306462*
X00318697Y00280185*
X00317199Y00280482*
X00316755Y00281555*
X00314671Y00284271*
X00311955Y00286354*
X00310368Y00287012*
Y00288386*
X00311955Y00289043*
X00314671Y00291127*
X00316755Y00293843*
X00318064Y00297005*
X00318511Y00300399*
X00318064Y00303793*
X00316755Y00306955*
X00314671Y00309671*
X00311955Y00311755*
X00310367Y00312412*
Y00313787*
X00311954Y00314444*
X0031467Y00316528*
X00316754Y00319244*
X00317569Y00321212*
X00357298*
X00366974Y00311536*
G37*
G36*
X00129999Y00293999D02*
Y00080999D01*
X00136451*
X00137548Y00078351*
X00142681Y00076225*
Y00074975*
X00137549Y00072849*
X00133428Y00062899*
X00137549Y00052949*
X00147499Y00048828*
X00157449Y00052949*
X00159553Y00058028*
X00168899*
X00172343Y00059455*
X00188443Y00075555*
X0018987Y00078999*
Y00080999*
X0019293*
Y00074554*
X00187851Y0007245*
X0018373Y00062501*
X00187851Y00052551*
X00197801Y0004843*
X0020775Y00052551*
X00209876Y00057682*
X00211126*
X00213251Y00052551*
X00223201Y0004843*
X0023315Y00052551*
X00235275Y0005768*
X00236525*
X0023865Y0005255*
X002486Y00048429*
X0025855Y0005255*
X00260675Y00057681*
X00261925*
X0026405Y0005255*
X00274Y00048429*
X0028395Y0005255*
X00286075Y00057681*
X00287325*
X0028945Y0005255*
X002994Y00048429*
X0030935Y0005255*
X00310934Y00056374*
X00312184*
X00314085Y00051785*
X003223Y00048382*
Y000625*
X003273*
Y00048382*
X00335515Y00051785*
X00337415Y00056373*
X00338665*
X00340249Y00052549*
X00343999Y00050996*
Y00029999*
X00333999Y00019999*
X00010999*
Y00080999*
Y00294999*
X00050478*
X00050956Y00293844*
X00036555Y00279443*
X00035128Y00275999*
Y00262788*
X0003158Y00261318*
X00028093Y00252899*
X0003158Y0024448*
X00039999Y00240993*
X00048418Y0024448*
X00051905Y00252899*
X00048418Y00261318*
X0004487Y00262788*
Y00273982*
X00065887Y00294999*
X0007858*
X00078703Y00294703*
X00080999Y00293752*
X00088858*
X00093028Y00289582*
Y00259238*
X00091989Y00258543*
X00091499Y00258746*
X0008214*
X00078215Y00262672*
X00076591Y00266591*
X00071999Y00268493*
X00067407Y00266591*
X00065505Y00261999*
X00067407Y00257407*
X00071327Y00255783*
X00075252Y00251858*
Y00245499*
X0007584Y0024408*
X00075438Y0024256*
X00074169Y00239499*
Y00236999*
X00084999*
Y00234499*
X00087499*
Y00225169*
X00091499*
X00091989Y00225372*
X00093028Y00224678*
Y00172388*
X0008948Y00170918*
X00086417Y00163523*
X00085064*
X00081683Y00171683*
X00074999Y00174452*
Y00162499*
Y00150546*
X00081683Y00153315*
X00085064Y00161475*
X00086417*
X0008948Y0015408*
X00097899Y00150593*
X00106318Y0015408*
X00109805Y00162499*
X00106318Y00170918*
X0010277Y00172388*
Y00291599*
X00101792Y0029396*
X00102486Y00294999*
X00128999*
X00129999Y00293999*
G37*
G36*
X00640411Y00306098D02*
Y00287072D01*
X00639141Y0028603*
X00638999Y00286058*
X00636587*
Y00289066*
X00637316Y00290157*
X00637768Y00291249*
X00638116Y00292999*
X00637768Y00294749*
X00637316Y00295841*
X00636325Y00297325*
X00634841Y00298316*
X00633749Y00298768*
X00631999Y00299117*
X00630249Y00298768*
X00629158Y00298316*
X00627673Y00297325*
X00626682Y00295841*
X0062623Y00294749*
X00625881Y00292999*
X0062623Y00291249*
X00626682Y00290157*
X00627411Y00289066*
Y00286058*
X00624999*
X00624124Y00285884*
X00623578Y00285657*
X00622836Y00285162*
X0062234Y0028442*
X00622114Y00283874*
X0062194Y00282999*
Y00271999*
X00622157Y00270911*
X00622115Y00270883*
X00621454Y00269894*
X00621153Y00269166*
X00620921Y00267999*
Y00264999*
X00631999*
Y00259999*
X00620921*
Y00259225*
X00619747Y00258739*
X00613587Y00264899*
Y00300999*
X00613326Y00302312*
X00612987Y00303131*
X00612243Y00304243*
X00599749Y00316738*
X00600235Y00317911*
X00628599*
X00640411Y00306098*
G37*
G36*
X00992154Y00344654D02*
X00994452Y00342891D01*
X00994791Y0034275*
Y00189246*
X00993842Y00188854*
X00991126Y0018677*
X00989043Y00184054*
X00988386Y00182469*
X00987011*
X00986355Y00184055*
X00984271Y00186771*
X00981555Y00188854*
X00978393Y00190164*
X00974999Y00190611*
X00971605Y00190164*
X00968443Y00188854*
X00965727Y00186771*
X00963643Y00184055*
X00962986Y00182468*
X00961612*
X00960955Y00184055*
X00958871Y00186771*
X00956155Y00188854*
X00955207Y00189247*
Y00205399*
X0095478Y00207545*
X00953564Y00209364*
X00886607Y00276322*
Y00336657*
X00886952Y0033694*
X00968166*
X00968461Y00336999*
X00968763*
X00969041Y00337114*
X00969336Y00337173*
X00969587Y0033734*
X00969865Y00337456*
X00970078Y00337669*
X00970329Y00337836*
X00970496Y00338087*
X00970709Y003383*
X00970825Y00338578*
X00970992Y00338828*
X00971051Y00339124*
X00971166Y00339402*
X009714Y0034058*
X00973132Y00340808*
X00976051Y00342017*
X00978121Y00343606*
X00979391Y00343038*
Y00306322*
X00958676Y00285607*
X00924561*
X00922844Y00287844*
X00920546Y00289607*
X00917871Y00290716*
X00914999Y00291094*
X00912127Y00290716*
X00909452Y00289607*
X00907154Y00287844*
X0090539Y00285546*
X00904282Y00282871*
X00903904Y00279999*
X00904282Y00277127*
X0090539Y00274452*
X00907154Y00272154*
X00909452Y00270391*
X00912127Y00269282*
X00914999Y00268904*
X00917871Y00269282*
X00920546Y00270391*
X00922844Y00272154*
X00924561Y00274391*
X00960999*
X00963145Y00274818*
X00964964Y00276034*
X00988964Y00300034*
X0099018Y00301853*
X00990607Y00303999*
Y00344694*
X00991809Y00345102*
X00992154Y00344654*
G37*
G36*
X0067116Y00301064D02*
X00673249Y00300789D01*
X00683249*
X00684645Y00300973*
X00687411Y00298207*
Y00282168*
X00686141Y00281319*
X00685337Y00281652*
X00683249Y00281927*
X00673249*
X0067116Y00281652*
X00669857Y00281112*
X00668587Y00281879*
Y00300838*
X00669857Y00301604*
X0067116Y00301064*
G37*
G36*
X00841145Y0064014D02*
X00843229Y00637424D01*
X00845945Y0063534*
X00847531Y00634683*
Y00633308*
X00845945Y00632651*
X00843229Y00630568*
X00841145Y00627852*
X0084033Y00625884*
X00820296*
X0081854Y00625535*
X00817051Y0062454*
X00624598Y00432087*
X00614235*
X00613749Y0043326*
X00822596Y00642108*
X0084033*
X00841145Y0064014*
G37*
G36*
X00229534Y00508085D02*
X00229755Y00507755D01*
X00304249Y0043326*
X00303763Y00432087*
X00302399*
X00227587Y00506899*
Y0050815*
X00227832Y00508347*
X00229534Y00508085*
G37*
G36*
X00841145Y0061474D02*
X00843229Y00612024D01*
X00845945Y0060994*
X0084753Y00609284*
Y00607909*
X00845944Y00607252*
X00843228Y00605168*
X00841144Y00602453*
X00840329Y00600485*
X00813897*
X00812141Y00600135*
X00810652Y00599141*
X00638599Y00427087*
X00634235*
X00633749Y0042826*
X00822196Y00616708*
X0084033*
X00841145Y0061474*
G37*
G36*
X00193752Y00449757D02*
X00193226Y00448487D01*
X0015967*
X00158854Y00450455*
X00156771Y00453171*
X00154055Y00455255*
X00152469Y00455912*
Y00457286*
X00154055Y00457943*
X00156771Y00460027*
X00158854Y00462743*
X0015967Y00464711*
X00178798*
X00193752Y00449757*
G37*
G36*
X00841143Y00665541D02*
X00843227Y00662826D01*
X00845943Y00660742*
X00847532Y00660084*
Y00658709*
X00845945Y00658051*
X00843229Y00655967*
X00841145Y00653252*
X0084033Y00651284*
X00820696*
X0081894Y00650935*
X00817451Y0064994*
X00604598Y00437087*
X00593235*
X00592749Y0043826*
X00821998Y00667509*
X00840328*
X00841143Y00665541*
G37*
G36*
Y00462341D02*
X00843227Y00459626D01*
X00845943Y00457542*
X00847532Y00456884*
Y00455509*
X00845945Y00454851*
X00843229Y00452768*
X00841145Y00450052*
X0084033Y00448084*
X00772496*
X0077074Y00447735*
X00769251Y0044674*
X00755139Y00432627*
X00753968Y00433253*
X00754117Y00433999*
X00753651Y0043634*
X00752325Y00438325*
X00750697Y00439412*
X00750337Y00440848*
X00773798Y00464309*
X00840328*
X00841143Y00462341*
G37*
G36*
X00219534Y00502085D02*
X00219755Y00501755D01*
X00293249Y0042826*
X00292763Y00427087*
X002914*
X00217587Y00500899*
Y0050215*
X00217832Y00502347*
X00219534Y00502085*
G37*
G36*
X00841143Y00487741D02*
X00843227Y00485026D01*
X00845943Y00482942*
X0084753Y00482285*
Y0048091*
X00845943Y00480253*
X00843227Y00478169*
X00841143Y00475453*
X00840328Y00473486*
X00771897*
X00770142Y00473136*
X00768653Y00472142*
X00698598Y00402087*
X00691235*
X00690749Y0040326*
X00777198Y00489709*
X00840328*
X00841143Y00487741*
G37*
G36*
X00120411Y00477098D02*
Y00452999D01*
X00120672Y00451686*
X00121011Y00450867*
X00121755Y00449755*
X00130855Y00440655*
X00131967Y00439911*
X00132786Y00439572*
X00134099Y00439311*
X00135328*
X00135489Y00438924*
X00136144Y00437343*
X00138227Y00434627*
X00140943Y00432544*
X00141372Y00432366*
Y00431116*
X00141348Y00431106*
X00140438Y00430729*
X00137513Y00428485*
X00135269Y0042556*
X00133859Y00422154*
X00133707Y00421*
X00147498*
Y00416*
X00133707*
X00133859Y00414845*
X00135269Y00411439*
X00137513Y00408515*
X00140438Y00406271*
X00141348Y00405894*
X00141373Y00405884*
Y00404634*
X00140942Y00404455*
X00138227Y00402372*
X00137028Y00400809*
X0013576Y00400726*
X00125587Y00410899*
Y00424999*
X00125326Y00426311*
X00124987Y00427131*
X00124243Y00428244*
X00109337Y00443149*
Y00469216*
X00109623Y00469644*
X00110038Y00470645*
X00110357Y00472249*
Y00483249*
X00110038Y00484853*
X00109719Y00485623*
X00109759Y0048565*
X00109148Y00486566*
X00110134Y00487375*
X00120411Y00477098*
G37*
G36*
X00841145Y0043694D02*
X00843229Y00434224D01*
X00845945Y0043214*
X00847531Y00431483*
Y00430108*
X00845945Y00429451*
X00843229Y00427368*
X00841145Y00424652*
X0084033Y00422684*
X00774096*
X0077234Y00422335*
X00770851Y0042134*
X00741599Y00392087*
X00729235*
X00728749Y0039326*
X00774396Y00438908*
X0084033*
X00841145Y0043694*
G37*
G36*
X00207248Y00424261D02*
X00206762Y00423088D01*
X00160751*
X00159727Y0042556*
X00157483Y00428485*
X00154559Y00430729*
X00153649Y00431105*
Y00432376*
X00154055Y00432544*
X00156771Y00434627*
X00158854Y00437343*
X0015967Y00439311*
X00192198*
X00207248Y00424261*
G37*
G36*
X00841144Y00589341D02*
X00843228Y00586625D01*
X00845944Y00584541*
X0084753Y00583884*
Y00582509*
X00845944Y00581852*
X00843228Y00579768*
X00841144Y00577053*
X00840329Y00575085*
X00805497*
X00803741Y00574736*
X00802252Y00573741*
X00650599Y00422087*
X00648235*
X00647749Y0042326*
X00815797Y00591308*
X00840329*
X00841144Y00589341*
G37*
G36*
Y0053854D02*
X00843228Y00535825D01*
X00845944Y00533741*
X0084753Y00533084*
Y00531709*
X00845944Y00531052*
X00843228Y00528968*
X00841144Y00526253*
X00840329Y00524285*
X00787697*
X00785941Y00523936*
X00784452Y00522941*
X00673598Y00412087*
X00669235*
X00668749Y0041326*
X00795997Y00540508*
X00840329*
X00841144Y0053854*
G37*
G36*
X00659411Y00316098D02*
Y00255999D01*
X00659691Y00254592*
X00658561Y00253925*
X00653837Y00258649*
Y00320013*
X00655011Y00320499*
X00659411Y00316098*
G37*
G36*
X00328652Y00214141D02*
X00219956Y00105445D01*
X00218962Y00103957*
X00218612Y00102201*
Y00074671*
X00216645Y00073856*
X00213929Y00071772*
X00211845Y00069057*
X00211188Y0006747*
X00209813*
X00209156Y00069057*
X00207072Y00071772*
X00204357Y00073856*
X00202389Y00074671*
Y001059*
X003119Y00215411*
X00328126*
X00328652Y00214141*
G37*
G36*
X00650411Y00131099D02*
Y0007467D01*
X00648443Y00073855*
X00645727Y00071771*
X00643643Y00069055*
X00642987Y0006747*
X00641612*
X00640955Y00069056*
X00638871Y00071771*
X00636156Y00073855*
X00634188Y0007467*
Y00145662*
X00635361Y00146148*
X00650411Y00131099*
G37*
G36*
X00625012Y00146498D02*
Y0007467D01*
X00623044Y00073855*
X00620328Y00071771*
X00618244Y00069056*
X00617587Y00067469*
X00616212*
X00615555Y00069056*
X00613472Y00071771*
X00610756Y00073855*
X00608788Y0007467*
Y00161062*
X00609961Y00161548*
X00625012Y00146498*
G37*
G36*
X00307347Y00225166D02*
X00307086Y00223464D01*
X00306755Y00223243*
X00194556Y00111045*
X00193562Y00109556*
X00193213Y00107801*
Y0008429*
X0019293Y00084058*
X0018987*
X00189587Y0008429*
Y00119099*
X00295899Y00225411*
X00307151*
X00307347Y00225166*
G37*
G36*
X00819411Y00126099D02*
Y00070288D01*
X00818141Y00069857*
X00816672Y00071771*
X00813956Y00073855*
X00811988Y0007467*
Y00127598*
X00811639Y00129354*
X00810644Y00130843*
X00715346Y00226141*
X00715872Y00227411*
X00718099*
X00819411Y00126099*
G37*
G36*
X00180411Y00102263D02*
Y00080899D01*
X00166998Y00067487*
X0015967*
X00158854Y00069455*
X00156771Y00072171*
X00154055Y00074254*
X00152466Y00074913*
Y00076287*
X00154053Y00076945*
X00156769Y00079029*
X00158853Y00081745*
X00159791Y00084009*
X00160056Y00084062*
X00161545Y00085056*
X00179237Y00102749*
X00180411Y00102263*
G37*
G36*
X0075201Y00089499D02*
Y00074669D01*
X00750042Y00073854*
X00747326Y0007177*
X00745243Y00069054*
X00744586Y00067469*
X00743211*
X00742554Y00069055*
X00740471Y00071771*
X00737755Y00073855*
X00735787Y0007467*
Y00081799*
X00735438Y00083555*
X00734443Y00085043*
X00726249Y00093237*
X00726735Y00094411*
X00747099*
X0075201Y00089499*
G37*
G36*
X0077741Y00091099D02*
Y00074669D01*
X00775442Y00073854*
X00772727Y0007177*
X00770643Y00069054*
X00769985Y00067468*
X00768611*
X00767954Y00069054*
X0076587Y0007177*
X00763154Y00073854*
X00761186Y00074669*
Y000914*
X00760837Y00093156*
X00759843Y00094644*
X00753351Y00101136*
X00753877Y00102406*
X00766104*
X0077741Y00091099*
G37*
G36*
X00599612Y00161898D02*
Y0007467D01*
X00597644Y00073855*
X00594928Y00071771*
X00592844Y00069056*
X00592186Y00067466*
X00590811*
X00590154Y00069054*
X0058807Y0007177*
X00585354Y00073854*
X00583386Y00074669*
Y001752*
X00583106Y00176607*
X00584236Y00177274*
X00599612Y00161898*
G37*
G36*
X00832856Y00084654D02*
X00834344Y00083659D01*
X008361Y0008331*
X00840328*
X00841143Y00081342*
X00843226Y00078627*
X00845942Y00076543*
X00847529Y00075886*
Y00074511*
X00845942Y00073854*
X00843226Y0007177*
X00841143Y00069054*
X00840328Y00067086*
X008314*
X00828587Y00069899*
Y00087263*
X00829761Y00087749*
X00832856Y00084654*
G37*
G36*
X00701211Y00097299D02*
Y0007467D01*
X00699243Y00073855*
X00696527Y00071771*
X00694444Y00069055*
X00693786Y00067469*
X00692412*
X00691755Y00069055*
X00689671Y00071771*
X00686955Y00073855*
X00684987Y0007467*
Y00111863*
X0068616Y00112349*
X00701211Y00097299*
G37*
G36*
X00726611Y00079899D02*
Y0007467D01*
X00724643Y00073855*
X00721927Y00071771*
X00719844Y00069055*
X00719186Y00067469*
X00717812*
X00717155Y00069055*
X00715071Y00071771*
X00712355Y00073855*
X00710387Y0007467*
Y00094463*
X00711561Y00094949*
X00726611Y00079899*
G37*
G36*
X00675811Y00114698D02*
Y0007467D01*
X00673843Y00073855*
X00671127Y00071771*
X00669043Y00069055*
X00668386Y00067468*
X00667012*
X00666355Y00069055*
X00664271Y00071771*
X00661555Y00073855*
X00659587Y0007467*
Y00129263*
X0066076Y00129749*
X00675811Y00114698*
G37*
G36*
X00802812Y00125698D02*
Y0007467D01*
X00800844Y00073855*
X00798128Y00071771*
X00796044Y00069056*
X00795389Y00067475*
X00795386Y00067466*
X00795324Y00067316*
X00794074*
X00794011Y00067466*
X00794009Y00067473*
X00793354Y00069054*
X0079127Y0007177*
X00788554Y00073854*
X00786973Y00074509*
X00786586Y00074669*
Y00093*
X00786325Y00094312*
X00785986Y00095131*
X00785243Y00096244*
X00771248Y00110238*
X00770136Y00110982*
X00769317Y00111321*
X00768004Y00111582*
X00729894*
X00638662Y00202814*
X00639295Y00203978*
X00640826Y00204179*
X00641678Y00204532*
X00642529Y00204885*
X0064319Y00205391*
X00669944*
X00671007Y00204006*
X00672469Y00202884*
X0067332Y00202532*
X00673499Y00202458*
Y00208999*
X00675999*
Y00211499*
X00682967*
X00683409Y00212161*
X00685048*
X0068523Y00211249*
X00685682Y00210157*
X00686673Y00208673*
X00688157Y00207682*
X00689249Y0020723*
X00690999Y00206881*
X00692749Y0020723*
X00693841Y00207682*
X00695325Y00208673*
X00696316Y00210157*
X00696768Y00211249*
X00697116Y00212999*
X00696768Y00214749*
X00696316Y00215841*
X00695325Y00217325*
X00694103Y00218141*
X00694489Y00219411*
X00709099*
X00802812Y00125698*
G37*
G36*
X00819411Y00272098D02*
Y00205932D01*
X00818682Y00204841*
X00818234Y00203761*
X00818232*
X0081817Y00203451*
X00816955Y00203082*
X00757193Y00262844*
X00757326Y00263858*
Y00266358*
X00743249*
X00729171*
Y00263858*
X0072948Y00261509*
X00730387Y00259319*
X00730842Y00258726*
X00730281Y00257587*
X00700282*
X00699755Y00258718*
X00699628Y00258909*
X00699768Y00259249*
X00700116Y00260999*
X00699768Y00262749*
X00699316Y00263841*
X00698325Y00265325*
X00696587Y00266486*
Y00300108*
X00696326Y0030142*
X00695987Y00302239*
X00695243Y00303352*
X00691134Y00307462*
X00691318Y00308858*
Y00318858*
X00691043Y00320947*
X0069064Y0032192*
X00690237Y00322893*
X00688954Y00324564*
X00687283Y00325846*
X0068631Y00326249*
X00685337Y00326652*
X00683249Y00326927*
X00682837*
Y00334411*
X00757099*
X00819411Y00272098*
G37*
G36*
X00347738Y00206237D02*
X00336088Y00194587D01*
X00334818*
X00334325Y00195326*
X0033234Y00196651*
X00329999Y00197117*
X00327658Y00196651*
X00325673Y00195326*
X00324347Y0019334*
X00323881Y00190999*
X00324347Y00188658*
X00325673Y00186673*
X00327658Y00185347*
X00329999Y00184882*
X00330745Y0018503*
X00331371Y00183859*
X00245356Y00097844*
X00244361Y00096356*
X00244012Y000946*
Y0007467*
X00242044Y00073855*
X00239328Y00071771*
X00237244Y00069056*
X00236588Y00067471*
X00235213*
X00234556Y00069057*
X00232472Y00071772*
X00229757Y00073856*
X00227789Y00074671*
Y001003*
X003349Y00207411*
X00347252*
X00347738Y00206237*
G37*
G36*
X00435898Y00272208D02*
X00435327Y00271771D01*
X00433244Y00269055*
X00431934Y00265893*
X00431487Y00262499*
X00431934Y00259105*
X00433092Y00256309*
X00432911Y00255399*
Y00243558*
X00430499*
X00429624Y00243384*
X00429078Y00243157*
X00428336Y00242662*
X0042784Y0024192*
X00427614Y00241374*
X0042744Y00240499*
Y00238701*
X00426755Y00238243*
X0040376Y00215249*
X00402587Y00215735*
Y00227696*
X00402991Y00228007*
X00404114Y00229469*
X00404466Y0023032*
X0040454Y00230499*
X00391458*
X00391532Y0023032*
X00391884Y00229469*
X00393007Y00228007*
X00393411Y00227696*
Y00214899*
X00386761Y00208249*
X00385587Y00208735*
Y00215066*
X00386316Y00216157*
X00386768Y00217249*
X00387117Y00218999*
X00386768Y00220749*
X00386316Y00221841*
X00385325Y00223325*
X00383841Y00224316*
X00382749Y00224768*
X00381Y00225116*
X00379857Y00224889*
X00378587Y00225933*
Y00229099*
X00400747Y00251259*
X00401921Y00250773*
Y00250499*
X00424077*
Y00253499*
X00423845Y00254666*
X00423545Y00255394*
X00422883Y00256383*
X00422841Y00256411*
X00423058Y00257499*
Y00268499*
X0042288Y00269392*
X00426899Y00273411*
X00435489*
X00435898Y00272208*
G37*
G36*
X00483386Y0025753D02*
D01*
X00484043Y00255943*
X00486127Y00253227*
X00488843Y00251144*
X00490811Y00250328*
Y00243558*
X00488399*
X00487524Y00243384*
X00486978Y00243157*
X00486236Y00242662*
X00485741Y0024192*
X00485514Y00241374*
X0048534Y00240499*
Y00229499*
X00485557Y00228411*
X00485515Y00228383*
X00484854Y00227394*
X00484553Y00226666*
X00484321Y00225499*
Y00222499*
X00495399*
X00506477*
Y00223373*
X00507651Y00223859*
X00509411Y00222098*
Y00205899*
X00397756Y00094244*
X00397012Y00093131*
X00396673Y00092312*
X00396412Y00091*
Y0007467*
X00396025Y0007451*
X00394444Y00073855*
X00391728Y00071771*
X00389644Y00069056*
X00388966Y00067419*
X00387769Y00067405*
X00387244Y00068389*
X00387338Y00068615*
X00387333Y00068622*
X00387587Y00069899*
Y00144716*
X00388718Y00145243*
X00388909Y0014537*
X00389249Y0014523*
X00390999Y00144881*
X00392749Y0014523*
X00393841Y00145682*
X00394932Y00146411*
X00435066*
X00436157Y00145682*
X00437249Y0014523*
X00438999Y00144881*
X00440749Y0014523*
X00441841Y00145682*
X00443325Y00146673*
X00444316Y00148157*
X00444768Y00149249*
X00445117Y00150999*
X00444768Y00152749*
X00444316Y00153841*
X00443325Y00155325*
X00441841Y00156316*
X00440749Y00156768*
X00438999Y00157117*
X00437249Y00156768*
X00436157Y00156316*
X00435066Y00155587*
X00394932*
X00393841Y00156316*
X00392749Y00156768*
X00390999Y00157117*
X00389249Y00156768*
X00388909Y00156628*
X00388718Y00156755*
X00387587Y00157282*
Y00186098*
X00425247Y00223759*
X00426421Y00223273*
Y00222499*
X00437499*
X00448577*
Y00225499*
X00448345Y00226666*
X00448219Y00226972*
X00448044Y00227394*
X00447383Y00228383*
X00447341Y00228411*
X00447558Y00229499*
Y00240499*
X00447384Y00241374*
X00447158Y0024192*
X00446662Y00242662*
X0044592Y00243157*
X00445374Y00243384*
X004445Y00243558*
X00442087*
Y00248754*
X00443042Y00249592*
X00444599Y00249387*
X00447993Y00249834*
X00449574Y00250489*
X00451155Y00251144*
X00453871Y00253227*
X00455955Y00255943*
X00456612Y00257529*
X00456674Y0025768*
X00457924*
X00457986Y00257529*
X00458643Y00255943*
X00460727Y00253227*
X00463443Y00251144*
X00465024Y00250489*
X00466605Y00249834*
X00469999Y00249387*
X00473393Y00249834*
X00474974Y00250489*
X00476555Y00251144*
X00479271Y00253227*
X00481355Y00255943*
X00482012Y0025753*
X00482074Y0025768*
X00483324*
X00483386Y0025753*
G37*
G36*
X00375101Y00269258D02*
X00375693Y00267858D01*
X00375347Y0026734*
X00374882Y00264999*
X00375347Y00262658*
X00376673Y00260673*
X00378658Y00259347*
X00381Y00258882*
X0038334Y00259347*
X00385325Y00260673*
X00386064Y00261779*
X00387312Y0026173*
X00387763Y00260641*
X00351709Y00224587*
X00318847*
X00318651Y00224831*
X00318913Y00226534*
X00319243Y00226755*
X00343272Y00250783*
X00344442Y00250158*
X00344411Y00249999*
Y00237932*
X00343347Y0023634*
X00342881Y00233999*
X00343347Y00231658*
X00344673Y00229673*
X00346658Y00228347*
X00348999Y00227881*
X0035134Y00228347*
X00353325Y00229673*
X00354651Y00231658*
X00355116Y00233999*
X00354651Y0023634*
X00353587Y00237932*
Y00248098*
X00374801Y00269313*
X00375101Y00269258*
G37*
G36*
X00247155Y00373355D02*
X00248268Y00372611D01*
X00249086Y00372272*
X00250399Y00372011*
X00266746*
X00267065Y00371241*
X0026777Y00369539*
X00270014Y00366614*
X00272573Y00364651*
X00272675Y00364308*
Y0036349*
X00272573Y00363147*
X00270014Y00361184*
X0026777Y00358259*
X00267065Y00356557*
X00266359Y00354854*
X00266207Y00353699*
X00279999*
Y00348699*
X00266207*
X00266359Y00347544*
X00267065Y00345841*
X0026777Y00344139*
X00270014Y00341214*
X00272571Y00339252*
X00272674Y00338909*
Y00338089*
X00272571Y00337747*
X00270013Y00335785*
X00267769Y0033286*
X00267064Y00331157*
X00266359Y00329455*
X00266207Y003283*
X00279998*
Y003233*
X00266207*
X00266359Y00322145*
X00267064Y00320442*
X00267769Y00318739*
X00270013Y00315815*
X00272573Y00313851*
X00272676Y00313507*
Y00312692*
X00272573Y00312347*
X00270014Y00310384*
X0026777Y00307459*
X00266359Y00304054*
X00266207Y00302899*
X00279999*
Y00297899*
X00266207*
X00266359Y00296744*
X0026777Y00293339*
X00270014Y00290414*
X00272939Y0028817*
X00273849Y00287793*
X00273873Y00287783*
Y00286533*
X00273443Y00286354*
X00270727Y00284271*
X00268644Y00281555*
X00267335Y00278393*
X00266887Y00274999*
X00267335Y00271605*
X00268644Y00268443*
X00270727Y00265727*
X00273443Y00263644*
X00275024Y00262989*
X00276606Y00262334*
X00279999Y00261887*
X00283393Y00262334*
X00285196Y0026308*
X00285915Y00262004*
X00192999Y00169088*
X00159669*
X00158854Y00171056*
X0015677Y00173772*
X00154054Y00175855*
X00152473Y0017651*
X00152468Y00176513*
X00152317Y00176575*
Y00177825*
X00152468Y00177887*
X00152473Y00177889*
X00154054Y00178544*
X0015677Y00180628*
X00158854Y00183344*
X00159509Y00184925*
X00160164Y00186506*
X0016061Y001899*
X00160164Y00193294*
X00159509Y00194875*
X00158854Y00196456*
X0015677Y00199171*
X00154054Y00201255*
X00152473Y0020191*
X00152468Y00201913*
X00152317Y00201975*
Y00203225*
X00152468Y00203287*
X00152473Y00203289*
X00154054Y00203944*
X0015677Y00206028*
X00158854Y00208744*
X00159509Y00210325*
X00160164Y00211906*
X0016061Y002153*
X00160164Y00218694*
X00159509Y00220275*
X00158854Y00221856*
X0015677Y00224572*
X00154054Y00226655*
X00152473Y0022731*
X00152469Y00227312*
X00152319Y00227374*
Y00228624*
X00152469Y00228687*
X00152474Y00228689*
X00154055Y00229344*
X00156771Y00231427*
X00158854Y00234143*
X00159509Y00235724*
X00160164Y00237305*
X00160611Y00240699*
X00160164Y00244094*
X00159509Y00245674*
X00158854Y00247255*
X00156771Y00249971*
X00154055Y00252054*
X00152474Y00252709*
X00152468Y00252712*
X00152318Y00252774*
Y00254024*
X00152468Y00254086*
X00154055Y00254744*
X00156771Y00256827*
X00158854Y00259543*
X00159509Y00261124*
X00160164Y00262705*
X00160611Y00266099*
X00160164Y00269494*
X00159509Y00271074*
X00158854Y00272655*
X00156771Y00275371*
X00154055Y00277455*
X00152466Y00278113*
X00152315Y00278175*
Y00279425*
X00152466Y00279488*
X00152472Y0027949*
X00154053Y00280145*
X00156769Y00282229*
X00158853Y00284945*
X00159508Y00286526*
X00160163Y00288107*
X0016061Y00291501*
X00160163Y00294894*
X00159508Y00296475*
X00158853Y00298057*
X00156769Y00300772*
X00154053Y00302856*
X00152472Y00303511*
X00152467Y00303513*
X00152316Y00303576*
Y00304826*
X00152467Y00304888*
X00152472Y0030489*
X00154053Y00305545*
X00156769Y00307629*
X00158853Y00310344*
X00159508Y00311926*
X00160163Y00313507*
X0016061Y00316901*
X00160163Y00320294*
X00159508Y00321875*
X00158853Y00323457*
X00156769Y00326172*
X00154053Y00328256*
X00152472Y00328911*
X00152468Y00328913*
X00152318Y00328975*
Y00330225*
X00152468Y00330287*
X00152473Y00330289*
X00154054Y00330944*
X0015677Y00333028*
X00158854Y00335744*
X00159509Y00337325*
X00160164Y00338906*
X0016061Y003423*
X00160164Y00345694*
X00159509Y00347275*
X00158854Y00348856*
X0015677Y00351571*
X00154054Y00353655*
X00152473Y0035431*
X00152468Y00354313*
X00152317Y00354375*
Y00355625*
X00152468Y00355687*
X00152473Y00355689*
X00154054Y00356344*
X0015677Y00358428*
X00158854Y00361144*
X00159509Y00362725*
X00160164Y00364306*
X0016061Y003677*
X00160164Y00371094*
X00159509Y00372675*
X00158854Y00374256*
X0015677Y00376972*
X00154054Y00379055*
X00152473Y0037971*
X00152468Y00379713*
X00152317Y00379775*
Y00381025*
X00152468Y00381087*
X00152473Y00381089*
X00154054Y00381744*
X0015677Y00383828*
X00158854Y00386544*
X00160164Y00389706*
X0016061Y003931*
X00160164Y00396494*
X00158854Y00399656*
X0015677Y00402372*
X00154054Y00404455*
X00153624Y00404634*
Y00405884*
X00153648Y00405894*
X00154559Y00406271*
X00157483Y00408515*
X00159727Y00411439*
X00160751Y00413912*
X00206598*
X00247155Y00373355*
G37*
G36*
X0057421Y00173299D02*
Y00154789D01*
X0057294Y00154404*
X00572325Y00155325*
X0057034Y00156651*
X00567999Y00157117*
X00565658Y00156651*
X00564066Y00155587*
X00489435*
X0048934Y00155651*
X00486999Y00156116*
X00484658Y00155651*
X00482673Y00154325*
X00481347Y0015234*
X00480881Y00149999*
X00481347Y00147658*
X00482673Y00145673*
X00484658Y00144347*
X00486999Y00143882*
X0048934Y00144347*
X00491325Y00145673*
X00491818Y00146411*
X00564066*
X00565658Y00145347*
X00567999Y00144881*
X0057034Y00145347*
X00572325Y00146673*
X0057294Y00147594*
X0057421Y00147209*
Y00074669*
X00572242Y00073854*
X00569527Y0007177*
X00567443Y00069054*
X00566785Y00067468*
X00565411*
X00564754Y00069054*
X0056267Y0007177*
X00559954Y00073854*
X00556792Y00075164*
X00553398Y0007561*
X00550004Y00075164*
X00546842Y00073854*
X00544127Y0007177*
X00542043Y00069054*
X00541386Y00067469*
X00540011*
X00539355Y00069055*
X00537271Y00071771*
X00534555Y00073855*
X00531393Y00075164*
X00527999Y00075611*
X00524605Y00075164*
X00521443Y00073855*
X00518727Y00071771*
X00516644Y00069055*
X00515986Y00067469*
X00514612*
X00513954Y00069055*
X00511871Y00071771*
X00509155Y00073855*
X00505993Y00075164*
X00502599Y00075611*
X00499205Y00075164*
X00496043Y00073855*
X00493327Y00071771*
X00491244Y00069055*
X00490586Y00067469*
X00489212*
X00488554Y00069055*
X00486471Y00071771*
X00483755Y00073855*
X00480593Y00075164*
X00477199Y00075611*
X00473805Y00075164*
X00470643Y00073855*
X00467927Y00071771*
X00465843Y00069055*
X00465186Y00067469*
X00463812*
X00463155Y00069055*
X00461071Y00071771*
X00458355Y00073855*
X00455193Y00075164*
X00451799Y00075611*
X00448405Y00075164*
X00445243Y00073855*
X00442527Y00071771*
X00440443Y00069055*
X00439787Y0006747*
X00438412*
X00437755Y00069056*
X00435671Y00071771*
X00432956Y00073855*
X00429794Y00075165*
X004264Y00075612*
X00423006Y00075165*
X00419844Y00073855*
X00417128Y00071771*
X00415044Y00069056*
X00414387Y00067469*
X00413012*
X00412355Y00069056*
X00410271Y00071771*
X00407556Y00073855*
X00405588Y0007467*
Y00089099*
X00517243Y00200755*
X00518238Y00202243*
X00518587Y00203999*
Y00223999*
X00518238Y00225755*
X00517243Y00227243*
X00506243Y00238243*
X00505458Y00238768*
Y00240411*
X00505556Y002405*
X00506755Y00240755*
X0057421Y00173299*
G37*
G36*
X00943991Y00203076D02*
Y00189247D01*
X00943043Y00188854*
X00940327Y00186771*
X00938243Y00184055*
X00936934Y00180893*
X00936487Y00177499*
X00936934Y00174105*
X00938243Y00170943*
X00940327Y00168227*
X00943043Y00166144*
X00946205Y00164834*
X00949599Y00164387*
X00952993Y00164834*
X00956155Y00166144*
X00958871Y00168227*
X00960955Y00170943*
X00961612Y0017253*
X00962986*
X00963643Y00170943*
X00965727Y00168227*
X00968443Y00166144*
X00969391Y00165751*
Y00158322*
X00955377Y00144308*
X00929246*
X00928853Y00145256*
X00926769Y00147971*
X00924054Y00150055*
X00923105Y00150448*
Y002115*
X00922679Y00213646*
X00921463Y00215466*
X00877607Y00259322*
Y00267801*
X0087878Y00268287*
X00943991Y00203076*
G37*
G36*
X00826411Y00139099D02*
Y00133735D01*
X00825237Y00133249*
X00724346Y00234141*
X00724872Y00235411*
X00730098*
X00826411Y00139099*
G37*
G36*
X00839573Y00289684D02*
X00839834Y00287704D01*
X00841143Y00284541*
X00843227Y00281826*
X00845943Y00279742*
X0084753Y00279085*
Y0027771*
X00845943Y00277053*
X00843227Y00274969*
X00841143Y00272253*
X00839834Y00269091*
X00839387Y00265697*
X00839834Y00262304*
X00841143Y00259141*
X00843227Y00256426*
X00845943Y00254342*
X00847531Y00253684*
Y0025231*
X00845944Y00251652*
X00843228Y00249568*
X00841144Y00246853*
X00839834Y0024369*
X00839388Y00240297*
X00839834Y00236903*
X00841144Y0023374*
X00843228Y00231025*
X00845944Y00228941*
X0084753Y00228284*
Y00226909*
X00845944Y00226252*
X00843228Y00224168*
X00841144Y00221453*
X00839834Y0021829*
X00839388Y00214897*
X00839834Y00211503*
X00841144Y00208341*
X00843228Y00205625*
X00845944Y00203541*
X00847529Y00202884*
Y0020151*
X00845943Y00200853*
X00843227Y00198769*
X00841143Y00196053*
X00839834Y00192891*
X00839387Y00189497*
X00839834Y00186104*
X00841143Y00182941*
X00843227Y00180226*
X00845943Y00178142*
X0084753Y00177485*
Y0017611*
X00845943Y00175453*
X00843227Y00173369*
X00841143Y00170653*
X00840385Y00168821*
X00840083Y00168669*
X00838909Y00168578*
X00819693Y00187793*
X00820007Y00189276*
X008211Y00190115*
X00822222Y00191578*
X00822928Y0019328*
X00823122Y00194761*
X00823999Y00195881*
X0082634Y00196347*
X00828325Y00197673*
X00829651Y00199658*
X00830116Y00201999*
X00829651Y0020434*
X00828587Y00205932*
Y00273999*
X00828238Y00275755*
X00827243Y00277243*
X00815721Y00288767*
X00816206Y00289941*
X00839216*
X00839573Y00289684*
G37*
G36*
X00819974Y00161536D02*
X00820278Y00160004D01*
X00819152Y00159335*
X00737249Y00241237*
X00737735Y00242411*
X00739099*
X00819974Y00161536*
G37*
G36*
X00831411Y00157187D02*
Y00155197D01*
X0083176Y00153441*
X00832755Y00151953*
X00840649Y00144059*
X00839834Y00142091*
X00839387Y00138697*
X00839834Y00135304*
X00841143Y00132141*
X00843227Y00129426*
X00845943Y00127342*
X0084753Y00126685*
Y0012531*
X00845943Y00124653*
X00843227Y00122569*
X00841143Y00119853*
X00839834Y00116691*
X00839387Y00113297*
X00839834Y00109904*
X00841143Y00106741*
X00843227Y00104026*
X00845943Y00101942*
X00847528Y00101285*
Y00099911*
X00845942Y00099254*
X00843226Y0009717*
X00841143Y00094454*
X00840328Y00092486*
X00838*
X00835587Y000949*
Y00140999*
X00835238Y00142755*
X00834243Y00144243*
X00823335Y00155152*
X00824005Y00156278*
X00825999Y00155882*
X0082834Y00156347*
X00830141Y0015755*
X00831411Y00157187*
G37*
G36*
X00096103Y00467068D02*
X00098249Y00466641D01*
X00099179Y00466826*
X00100161Y00466021*
Y00441249*
X0010051Y00439493*
X00101505Y00438005*
X00116411Y00423099*
Y00408999*
X00116672Y00407686*
X00117011Y00406867*
X00117755Y00405755*
X00119023Y00404486*
X00118776Y00403241*
X0011851Y0040313*
X00118469Y00403114*
X00117007Y00401991*
X00115884Y00400529*
X00115532Y00399678*
X00115458Y00399499*
X00121999*
Y00396999*
X00124499*
Y00390458*
X00124678Y00390532*
X00125529Y00390885*
X00126992Y00392006*
X00128114Y00393469*
X0012813Y0039351*
X00128241Y00393776*
X00129486Y00394023*
X00133654Y00389855*
X00134767Y00389112*
X00135144Y00388956*
X00135187Y00388852*
X00136144Y00386544*
X00138227Y00383828*
X00140942Y00381744*
X00142523Y00381089*
X00142529Y00381087*
X00142679Y00381025*
Y00379775*
X00142529Y00379713*
X00142523Y0037971*
X00140942Y00379055*
X00138227Y00376972*
X00136144Y00374256*
X00135488Y00372675*
X00134833Y00371094*
X00134386Y003677*
X00134833Y00364306*
X00135488Y00362725*
X00136144Y00361144*
X00138227Y00358428*
X00140942Y00356344*
X00142523Y00355689*
X00142529Y00355687*
X00142679Y00355625*
Y00354375*
X00142529Y00354313*
X00142523Y0035431*
X00140942Y00353655*
X00138227Y00351571*
X00136144Y00348856*
X00135488Y00347275*
X00134833Y00345694*
X00134386Y003423*
X00134833Y00338906*
X00135488Y00337325*
X00136144Y00335744*
X00138227Y00333028*
X00140942Y00330944*
X00142523Y00330289*
X00142527Y00330288*
X00142678Y00330225*
Y00328975*
X00142527Y00328913*
X00142522Y00328911*
X00140941Y00328256*
X00138226Y00326172*
X00136142Y00323457*
X00135487Y00321875*
X00134832Y00320294*
X00134385Y00316901*
X00134832Y00313507*
X00135487Y00311926*
X00136142Y00310344*
X00138226Y00307629*
X00140941Y00305545*
X00142522Y0030489*
X00142528Y00304888*
X00142678Y00304826*
Y00303576*
X00142528Y00303513*
X00142522Y00303511*
X00140941Y00302856*
X00138226Y00300772*
X00136142Y00298057*
X00135487Y00296475*
X00134832Y00294894*
X00134385Y00291501*
X00134832Y00288107*
X00136142Y00284945*
X00138226Y00282229*
X00140941Y00280145*
X00142531Y00279487*
Y00278112*
X00140943Y00277455*
X00138227Y00275371*
X00136144Y00272655*
X00134834Y00269494*
X00134387Y00266099*
X00134834Y00262705*
X00136144Y00259543*
X00138227Y00256827*
X00140943Y00254744*
X0014253Y00254086*
Y00252712*
X00140943Y00252054*
X00138227Y00249971*
X00136144Y00247255*
X00134834Y00244094*
X00134387Y00240699*
X00134834Y00237305*
X00136144Y00234143*
X00138227Y00231427*
X00140943Y00229344*
X00142528Y00228687*
Y00227312*
X00140942Y00226655*
X00138227Y00224572*
X00136144Y00221856*
X00134833Y00218694*
X00134386Y002153*
X00134833Y00211906*
X00136144Y00208744*
X00138227Y00206028*
X00140942Y00203944*
X00142529Y00203287*
Y00201913*
X00140942Y00201255*
X00138227Y00199171*
X00136144Y00196456*
X00134833Y00193294*
X00134386Y001899*
X00134833Y00186506*
X00136144Y00183344*
X00138227Y00180628*
X00140942Y00178544*
X00142529Y00177887*
Y00176513*
X00140942Y00175855*
X00138227Y00173772*
X00136144Y00171056*
X00134833Y00167894*
X00134386Y001645*
X00134833Y00161106*
X00136144Y00157944*
X00138227Y00155228*
X00140942Y00153144*
X00142529Y00152487*
Y00151113*
X00140942Y00150455*
X00138227Y00148371*
X00136144Y00145656*
X00134833Y00142494*
X00134386Y001391*
X00134833Y00135706*
X00136144Y00132544*
X00138227Y00129828*
X00140942Y00127744*
X00142527Y00127088*
Y00125713*
X00140941Y00125056*
X00138226Y00122972*
X00136142Y00120257*
X00134832Y00117094*
X00134385Y00113701*
X00134832Y00110307*
X00136142Y00107145*
X00138226Y00104429*
X00140941Y00102345*
X00142528Y00101688*
Y00100313*
X00140941Y00099656*
X00138226Y00097572*
X00136142Y00094857*
X00134832Y00091694*
X00134385Y00088301*
X00134712Y0008582*
X00133727Y00084798*
X00133058Y00084993*
Y00293999*
X00132884Y00294874*
X00132658Y0029542*
X00132162Y00296162*
X00131162Y00297162*
X0013042Y00297658*
X00129874Y00297884*
X00128999Y00298058*
X00102486*
X00102191Y00297999*
X0010189*
X00101611Y00297884*
X00101316Y00297825*
X00101249Y0029778*
X00101065Y00297658*
X00100787Y00297542*
X00100574Y00297329*
X00100323Y00297162*
X00098979Y00297008*
X00097058Y00298929*
Y00306999*
X00096825Y0030817*
X00096162Y00309162*
X00096864Y00310095*
X00096883Y00310115*
X00097767Y00311438*
X00098077Y00312999*
Y00315499*
X00087499*
Y00317999*
X00084999*
Y00327077*
X00080999*
X00079438Y00326767*
X00078499Y00326139*
Y00317999*
X00073499*
Y0032454*
X00072469Y00324113*
X00071607Y00323452*
X00070337Y00324079*
Y00366513*
X00071511Y00366999*
X00073974Y00364536*
X00074347Y00362658*
X00075673Y00360673*
X00077658Y00359347*
X00079999Y00358881*
X0008234Y00359347*
X00084325Y00360673*
X00085651Y00362658*
X00086116Y00364999*
X00085651Y0036734*
X00084325Y00369325*
X0008234Y00370651*
X00080462Y00371024*
X00076837Y0037465*
Y00395521*
X00077819Y00396326*
X00078749Y00396141*
X00080895Y00396568*
X00081124Y00396721*
X00081971Y00396071*
X00082749Y00395749*
Y00397835*
X0008393Y00399603*
X00084357Y00401749*
Y00407249*
X00087749*
Y00395749*
X00088499Y0039606*
X00089249Y00395749*
Y00407249*
X00092641*
Y00401749*
X00093068Y00399603*
X00094249Y00397835*
Y00395749*
X00095027Y00396071*
X00095874Y00396721*
X00096103Y00396568*
X00098249Y00396141*
X00099999Y00396489*
Y00396521*
X00100854Y00396875*
X00101499Y00397306*
X00102144Y00396875*
X00103145Y0039646*
X00104749Y00396141*
X00106353Y0039646*
X00107354Y00396875*
X00108714Y00397784*
X00109623Y00399144*
X00110038Y00400145*
X00110357Y00401749*
Y0041275*
X00110038Y00414353*
X00109623Y00415354*
X00108714Y00416714*
X00107354Y00417623*
X00106353Y00418038*
X00104749Y00418357*
X00103145Y00418038*
X00102144Y00417623*
X00101499Y00417192*
X00100854Y00417623*
X00099999Y00417977*
Y00418009*
X00098249Y00418357*
X00097319Y00418172*
X00096337Y00418977*
Y00422249*
X00095988Y00424005*
X00094993Y00425493*
X00093988Y00426499*
X00084999*
Y00428999*
X00082499*
Y0043554*
X00081469Y00435114*
X00080007Y00433992*
X00079696Y00433587*
X00068999*
X00067592Y00433307*
X00066925Y00434437*
X00088493Y00456005*
X00089488Y00457493*
X00089837Y00459249*
Y00466021*
X00090819Y00466826*
X00091749Y00466641*
X00093895Y00467068*
X00094999Y00467806*
X00096103Y00467068*
G37*
G36*
X00218411Y00604099D02*
Y00586847D01*
X00218166Y00586651*
X00216464Y00586913*
X00216243Y00587243*
X00203943Y00599543*
X00202455Y00600538*
X00200699Y00600887*
X0015967*
X00158854Y00602855*
X00156771Y00605571*
X00154055Y00607654*
X00152469Y00608312*
Y00609686*
X00154055Y00610344*
X00156771Y00612427*
X00158854Y00615143*
X0015967Y00617111*
X00205399*
X00218411Y00604099*
G37*
G36*
X00542445Y00690444D02*
X00544529Y00687728D01*
X00547244Y00685644*
X00549212Y00684829*
Y00603701*
X0050576Y00560249*
X00504587Y00560735*
Y00566161*
X00505569Y00566967*
X00505999Y00566882*
X0050834Y00567347*
X00510325Y00568673*
X00511651Y00570658*
X00512024Y00572536*
X00525711Y00586222*
X0052634Y00586347*
X00528325Y00587673*
X00529651Y00589658*
X00530116Y00591999*
X00529651Y0059434*
X00528325Y00596325*
X0052634Y00597651*
X00523999Y00598116*
X00521658Y00597651*
X00519673Y00596325*
X00518347Y0059434*
X00517881Y00591999*
X00517986Y00591474*
X00505857Y00579346*
X00504593Y00579798*
X00504587Y00579803*
Y00592098*
X00531645Y00619156*
X00532639Y00620645*
X00532989Y00622401*
Y00684829*
X00534957Y00685644*
X00537672Y00687728*
X00539756Y00690444*
X00540413Y0069203*
X00541788*
X00542445Y00690444*
G37*
G36*
X00440846Y00690445D02*
X0044293Y00687729D01*
X00445645Y00685645*
X00447613Y0068483*
Y00631797*
X00447962Y00630041*
X00448957Y00628552*
X00480411Y00597098*
Y00594735*
X00479238Y00594249*
X0043139Y00642097*
Y0068483*
X00433357Y00685645*
X00436073Y00687729*
X00438157Y00690445*
X00438814Y00692031*
X00440189*
X00440846Y00690445*
G37*
G36*
X00466245Y00690444D02*
X00468329Y00687728D01*
X00471044Y00685644*
X00473012Y00684829*
Y00658397*
X00473362Y00656642*
X00474356Y00655153*
X00485411Y00644099*
Y00606735*
X00484238Y00606249*
X0045679Y00633697*
Y0068483*
X00458758Y00685645*
X00461473Y00687729*
X00463557Y00690445*
X00464214Y0069203*
X00465588*
X00466245Y00690444*
G37*
G36*
X00516388Y0069203D02*
X00517045Y00690444D01*
X00519129Y00687728*
X00521845Y00685644*
X00523813Y00684829*
Y00624301*
X00500761Y00601249*
X00499587Y00601735*
Y00630098*
X00506245Y00636756*
X00507239Y00638245*
X00507589Y00640001*
Y00684829*
X00509557Y00685644*
X00512272Y00687728*
X00514356Y00690444*
X00515013Y0069203*
X00516388*
G37*
G36*
X00199411Y00557098D02*
Y00545735D01*
X00198238Y00545249*
X00194743Y00548743*
X00193255Y00549738*
X00191499Y00550087*
X0015967*
X00158854Y00552055*
X00156771Y00554771*
X00154055Y00556855*
X00152469Y00557512*
Y00558886*
X00154055Y00559543*
X00156771Y00561627*
X00158854Y00564343*
X0015967Y00566311*
X00190199*
X00199411Y00557098*
G37*
G36*
X00287788Y0069203D02*
X00288445Y00690444D01*
X00290529Y00687728*
X00293245Y00685644*
X00296407Y00684334*
X00299801Y00683888*
X00303194Y00684334*
X00306357Y00685644*
X00307776Y00686733*
X00449696Y00544814*
X00449658Y00544625*
X0044828Y00544206*
X00388243Y00604243*
X00386755Y00605238*
X00384999Y00605587*
X00343899*
X00278989Y00670498*
Y00684829*
X00280957Y00685644*
X00283672Y00687728*
X00285756Y00690444*
X00286413Y0069203*
X00287788*
G37*
G36*
X00841144Y0056394D02*
X00843228Y00561225D01*
X00845944Y00559141*
X0084753Y00558484*
Y00557109*
X00845944Y00556452*
X00843228Y00554368*
X00841144Y00551653*
X00840329Y00549685*
X00794097*
X0079269Y00549405*
X00792023Y00550534*
X00807397Y00565908*
X00840329*
X00841144Y0056394*
G37*
G36*
X00208411Y00582098D02*
Y00562782D01*
X00207572Y00562395*
X00207141Y00562346*
X00195343Y00574143*
X00193855Y00575138*
X00192099Y00575487*
X0015967*
X00158854Y00577455*
X00156771Y00580171*
X00154055Y00582255*
X00152469Y00582912*
Y00584286*
X00154055Y00584943*
X00156771Y00587027*
X00158854Y00589743*
X0015967Y00591711*
X00198798*
X00208411Y00582098*
G37*
G36*
X00454696Y00554814D02*
X00454658Y00554625D01*
X0045328Y00554206*
X00325708Y00681778*
X00326176Y00683107*
X0032638Y00683129*
X00454696Y00554814*
G37*
G36*
X00228411Y00615098D02*
Y00608848D01*
X00228166Y00608651*
X00226464Y00608913*
X00226243Y00609243*
X00210543Y00624943*
X00209055Y00625938*
X00207299Y00626287*
X0015967*
X00158854Y00628255*
X00156771Y00630971*
X00154055Y00633054*
X0015247Y00633711*
Y00635086*
X00154056Y00635743*
X00156771Y00637826*
X00158855Y00640542*
X0015967Y0064251*
X00200999*
X00228411Y00615098*
G37*
G36*
X00771043Y00690442D02*
X00773127Y00687727D01*
X00775843Y00685643*
X00777811Y00684828*
Y006713*
X00762437Y00655926*
X00761308Y00656593*
X00761588Y00658*
Y00684828*
X00763556Y00685644*
X00766272Y00687727*
X00768355Y00690443*
X00769012Y00692028*
X00770386*
X00771043Y00690442*
G37*
G36*
X00390044Y00690443D02*
X00392128Y00687727D01*
X00394844Y00685644*
X00396812Y00684828*
Y00652598*
X00397092Y00651191*
X00395962Y00650525*
X00380588Y00665899*
Y00684828*
X00382556Y00685644*
X00385271Y00687727*
X00387355Y00690443*
X00388012Y0069203*
X00389387*
X00390044Y00690443*
G37*
G36*
X00364644D02*
X00366728Y00687727D01*
X00369444Y00685644*
X00371412Y00684828*
Y00665734*
X00370238Y00665248*
X00355189Y00680298*
Y00684829*
X00357157Y00685644*
X00359872Y00687728*
X00361956Y00690444*
X00362613Y00692029*
X00363987*
X00364644Y00690443*
G37*
G36*
X00974673Y00724328D02*
X00974147Y00723058D01*
X00930666*
X00930371Y00722999*
X00930069*
X00929791Y00722884*
X00929496Y00722825*
X00929245Y00722658*
X00928967Y00722542*
X00928754Y00722329*
X00928503Y00722162*
X00928336Y00721911*
X00928123Y00721698*
X00928008Y0072142*
X0092784Y0072117*
X00927781Y00720874*
X0092774Y00720775*
X00927261Y00720351*
X00926506Y00719994*
X00924132Y00721264*
X00923843Y00721351*
X00923578Y00721493*
X00919808Y00722637*
X00919508Y00722666*
X0091922Y00722754*
X00915299Y0072314*
X00915148Y00723125*
X00914999Y00723155*
X0091485Y00723125*
X00914699Y0072314*
X00910778Y00722754*
X0091049Y00722666*
X0091019Y00722637*
X0090642Y00721493*
X00906155Y00721351*
X00905866Y00721264*
X00903492Y00719994*
X00902737Y00720351*
X00902258Y00720775*
X00902217Y00720874*
X00902158Y0072117*
X0090202Y00721375*
X0090199Y0072142*
X00901875Y00721698*
X00901662Y00721911*
X00901495Y00722162*
X00901244Y00722329*
X00901031Y00722542*
X00900753Y00722658*
X00900502Y00722825*
X00900207Y00722884*
X00899929Y00722999*
X00899627*
X00899332Y00723058*
X00869999*
X00869124Y00722884*
X00868578Y00722657*
X00867836Y00722162*
X00867341Y0072142*
X00867114Y00720874*
X0086694Y00719999*
Y00346937*
X0086567Y00346684*
X00864729Y00348957*
X00862485Y00351882*
X0085956Y00354126*
X0085865Y00354503*
Y00355773*
X00859056Y00355941*
X00861772Y00358025*
X00863855Y00360741*
X00865165Y00363903*
X00865612Y00367297*
X00865165Y0037069*
X00863855Y00373853*
X00861772Y00376568*
X00859056Y00378652*
X00857469Y00379309*
Y00380684*
X00859056Y00381341*
X00861772Y00383425*
X00863855Y00386141*
X00865165Y00389303*
X00865612Y00392697*
X00865165Y0039609*
X00863855Y00399253*
X00861772Y00401968*
X00859056Y00404052*
X00857471Y00404709*
Y00406083*
X00859057Y0040674*
X00861772Y00408824*
X00863856Y0041154*
X00865166Y00414702*
X00865613Y00418096*
X00865166Y00421489*
X00863856Y00424652*
X00861772Y00427368*
X00859057Y00429451*
X0085747Y00430108*
Y00431483*
X00859057Y0043214*
X00861772Y00434224*
X00863856Y0043694*
X00865166Y00440102*
X00865613Y00443496*
X00865166Y00446889*
X00863856Y00450052*
X00861772Y00452768*
X00859057Y00454851*
X00857467Y0045551*
Y00456884*
X00859055Y00457542*
X00861771Y00459626*
X00863855Y00462341*
X00865164Y00465504*
X00865611Y00468897*
X00865164Y00472291*
X00863855Y00475453*
X00861771Y00478169*
X00859055Y00480253*
X00857468Y0048091*
Y00482285*
X00859055Y00482942*
X00861771Y00485026*
X00863855Y00487741*
X00865164Y00490904*
X00865611Y00494297*
X00865164Y00497691*
X00863855Y00500853*
X00861771Y00503569*
X00859055Y00505653*
X0085747Y0050631*
Y00507684*
X00859056Y00508341*
X00861772Y00510425*
X00863855Y00513141*
X00865165Y00516303*
X00865612Y00519697*
X00865165Y0052309*
X00863855Y00526253*
X00861772Y00528968*
X00859056Y00531052*
X00857469Y00531709*
Y00533084*
X00859056Y00533741*
X00861772Y00535825*
X00863855Y0053854*
X00865165Y00541703*
X00865612Y00545097*
X00865165Y0054849*
X00863855Y00551653*
X00861772Y00554368*
X00859056Y00556452*
X00857469Y00557109*
Y00558484*
X00859056Y00559141*
X00861772Y00561225*
X00863855Y0056394*
X00865165Y00567103*
X00865612Y00570497*
X00865165Y0057389*
X00863855Y00577053*
X00861772Y00579768*
X00859056Y00581852*
X00857469Y00582509*
Y00583884*
X00859056Y00584541*
X00861772Y00586625*
X00863855Y00589341*
X00865165Y00592503*
X00865612Y00595897*
X00865165Y0059929*
X00863855Y00602453*
X00861772Y00605168*
X00859056Y00607252*
X00857471Y00607909*
Y00609283*
X00859057Y0060994*
X00861772Y00612024*
X00863856Y0061474*
X00865166Y00617902*
X00865613Y00621296*
X00865166Y00624689*
X00863856Y00627852*
X00861772Y00630568*
X00859057Y00632651*
X0085747Y00633308*
Y00634683*
X00859057Y0063534*
X00861772Y00637424*
X00863856Y0064014*
X00865166Y00643302*
X00865613Y00646696*
X00865166Y00650089*
X00863856Y00653252*
X00861772Y00655967*
X00859057Y00658051*
X00857467Y0065871*
Y00660084*
X00859055Y00660742*
X00861771Y00662826*
X00863855Y00665541*
X00865164Y00668704*
X00865611Y00672097*
X00865164Y00675491*
X00863855Y00678653*
X00861771Y00681369*
X00859055Y00683453*
X00857474Y00684108*
X00855893Y00684763*
X00852499Y00685209*
X00849105Y00684763*
X00847524Y00684108*
X00845943Y00683453*
X00843227Y00681369*
X00841143Y00678653*
X00840328Y00676685*
X00820097*
X00818785Y00676424*
X00817966Y00676085*
X00816853Y00675342*
X00813657Y00672146*
X00812387Y00672672*
Y00684828*
X00812774Y00684988*
X00814355Y00685643*
X00817071Y00687727*
X00819155Y00690442*
X00820464Y00693604*
X00820911Y00696998*
X00820464Y00700392*
X00819155Y00703554*
X00817071Y0070627*
X00814355Y00708354*
X00812774Y00709009*
X00811193Y00709664*
X00807799Y0071011*
X00804405Y00709664*
X00802824Y00709009*
X00801243Y00708354*
X00798527Y0070627*
X00796443Y00703554*
X00795786Y00701968*
X00795724Y00701817*
X00794474*
X00794412Y00701968*
X00793754Y00703554*
X00791671Y0070627*
X00788955Y00708354*
X00787374Y00709009*
X00785793Y00709664*
X00782399Y0071011*
X00779005Y00709664*
X00777424Y00709009*
X00775843Y00708354*
X00773127Y0070627*
X00771043Y00703554*
X00770387Y00701969*
X00770324Y00701819*
X00769075*
X00769012Y00701969*
X00768355Y00703555*
X00766272Y00706271*
X00763556Y00708354*
X00760393Y00709664*
X00757Y00710111*
X00753606Y00709664*
X00750444Y00708354*
X00747728Y00706271*
X00745644Y00703555*
X00744987Y00701969*
X00744925Y00701818*
X00743675*
X00743613Y00701969*
X00743612*
X00742955Y00703555*
X00740871Y00706271*
X00738156Y00708354*
X00736575Y00709009*
X00734994Y00709664*
X007316Y00710111*
X00728206Y00709664*
X00726625Y00709009*
X00725044Y00708354*
X00722328Y00706271*
X00720244Y00703555*
X00719587Y00701968*
X00719525Y00701818*
X00718275*
X00718213Y00701968*
X00717555Y00703555*
X00715471Y00706271*
X00712756Y00708354*
X00711175Y00709009*
X00709593Y00709664*
X007062Y00710111*
X00702806Y00709664*
X00701225Y00709009*
X00699644Y00708354*
X00696928Y00706271*
X00694844Y00703555*
X00694676Y00703149*
X00694666Y00703125*
X00693416*
X00693029Y00704059*
X00690785Y00706984*
X0068786Y00709228*
X00684454Y00710639*
X006833Y00710791*
Y00696999*
Y00683453*
Y00683207*
X00684454Y00683359*
X0068786Y0068477*
X00690785Y00687014*
X00693029Y00689939*
X00693416Y00690873*
X00694666*
X00694676Y00690849*
X00694844Y00690443*
X00696928Y00687727*
X00699644Y00685644*
X00701225Y00684989*
X00702806Y00684334*
X007062Y00683887*
X00709593Y00684334*
X00711175Y00684989*
X00712756Y00685644*
X00715471Y00687727*
X00717555Y00690443*
X00718213Y0069203*
X00718275Y0069218*
X00719525*
X00719587Y0069203*
X00720244Y00690443*
X00722328Y00687727*
X00725044Y00685644*
X00726625Y00684989*
X00727012Y00684828*
Y006565*
X00714099Y00643587*
X00695999*
X00694686Y00643326*
X00693867Y00642987*
X00692755Y00642243*
X0054576Y00495249*
X00544587Y00495735*
Y00506999*
X00544326Y00508311*
X00543987Y00509131*
X00543243Y00510243*
X00539743Y00513743*
X00538631Y00514487*
X00537811Y00514826*
X00536499Y00515087*
X00534058*
Y00515999*
X00533884Y00516874*
X00533657Y0051742*
X00533162Y00518162*
X0053242Y00518657*
X00531874Y00518884*
X00530999Y00519058*
X00529587*
Y00546066*
X00530316Y00547157*
X00530768Y00548249*
X00531117Y00549999*
X00530768Y00551749*
X00530316Y00552841*
X00529325Y00554325*
X00527841Y00555316*
X00526749Y00555768*
X00524999Y00556117*
X00523249Y00555768*
X00522157Y00555316*
X00520673Y00554325*
X00519682Y00552841*
X0051923Y00551749*
X00518881Y00549999*
X0051923Y00548249*
X00519682Y00547157*
X00520411Y00546066*
Y00519058*
X00516999*
X00516124Y00518884*
X00515578Y00518657*
X00514836Y00518162*
X00514341Y0051742*
X00514114Y00516874*
X0051394Y00515999*
Y00504999*
X00514157Y00503911*
X00514115Y00503883*
X00513454Y00502894*
X00513153Y00502166*
X00512921Y00500999*
Y00497999*
X00523999*
Y00492999*
X00512921*
Y00489999*
X00513131Y00488944*
X00512249Y00488768*
X00511157Y00488316*
X00510857Y00488116*
X00509587Y00488795*
Y00551099*
X00557045Y00598556*
X00557788Y00599669*
X00558128Y00600488*
X00558389Y00601801*
Y00684829*
X00558776Y00684989*
X00560357Y00685644*
X00563072Y00687728*
X00565156Y00690444*
X00565813Y00692029*
X00565875Y00692179*
X00567125*
X00567187Y00692029*
X00567844Y00690443*
X00569928Y00687727*
X00572644Y00685644*
X00574225Y00684989*
X00575806Y00684334*
X005792Y00683887*
X00582593Y00684334*
X00584175Y00684989*
X00585756Y00685644*
X00588472Y00687727*
X00590555Y00690443*
X00591212Y0069203*
X00591275Y0069218*
X00592525*
X00592587Y0069203*
X00593244Y00690443*
X00595328Y00687727*
X00598044Y00685644*
X00599625Y00684989*
X00601206Y00684334*
X006046Y00683887*
X00607993Y00684334*
X00609575Y00684989*
X00611156Y00685644*
X00613871Y00687727*
X00615955Y00690443*
X00616613Y00692031*
X00616675Y00692181*
X00617925*
X00617988Y00692031*
X00618645Y00690444*
X00620729Y00687728*
X00623445Y00685644*
X00625026Y00684989*
X00626607Y00684334*
X00630001Y00683888*
X00633394Y00684334*
X00634976Y00684989*
X00636557Y00685644*
X00639272Y00687728*
X00641356Y00690444*
X00642013Y0069203*
X00642076Y00692181*
X00643326*
X00643388Y0069203*
X0064339Y00692025*
X00644045Y00690444*
X00646129Y00687728*
X00648845Y00685644*
X00650426Y00684989*
X00652007Y00684334*
X00655401Y00683888*
X00658794Y00684334*
X00660376Y00684989*
X00661957Y00685644*
X00664672Y00687728*
X00666756Y00690444*
X00666934Y00690873*
X00668184*
X00668571Y00689939*
X00670815Y00687014*
X00673739Y0068477*
X00677145Y00683359*
X006783Y00683207*
Y00696999*
Y00710791*
X00677145Y00710639*
X00673739Y00709228*
X00670815Y00706984*
X00668571Y00704059*
X00668184Y00703126*
X00666934*
X00666756Y00703556*
X00664672Y00706272*
X00661957Y00708355*
X00660376Y0070901*
X00658794Y00709665*
X00655401Y00710112*
X00652007Y00709665*
X00650426Y0070901*
X00648845Y00708355*
X00646129Y00706272*
X00644045Y00703556*
X0064339Y00701975*
X00643388Y00701969*
X00643326Y00701819*
X00642076*
X00642013Y00701969*
X00641356Y00703556*
X00639272Y00706272*
X00636557Y00708355*
X00634976Y0070901*
X00633394Y00709665*
X00630001Y00710112*
X00626607Y00709665*
X00625026Y0070901*
X00623445Y00708355*
X00620729Y00706272*
X00618645Y00703556*
X00617987Y00701968*
X00617925Y00701817*
X00616675*
X00616613Y00701968*
X00615955Y00703555*
X00613871Y00706271*
X00611156Y00708354*
X00609575Y00709009*
X00607993Y00709664*
X006046Y00710111*
X00601206Y00709664*
X00599625Y00709009*
X00598044Y00708354*
X00595328Y00706271*
X00593244Y00703555*
X00592587Y00701968*
X00592525Y00701818*
X00591275*
X00591212Y00701968*
X00590555Y00703555*
X00588472Y00706271*
X00585756Y00708354*
X00584175Y00709009*
X00582593Y00709664*
X005792Y00710111*
X00575806Y00709664*
X00574225Y00709009*
X00572644Y00708354*
X00569928Y00706271*
X00567844Y00703555*
X00567188Y0070197*
X00567125Y00701819*
X00565875*
X00565813Y0070197*
X00565156Y00703556*
X00563072Y00706272*
X00560357Y00708355*
X00558776Y0070901*
X00557194Y00709665*
X00553801Y00710112*
X00550407Y00709665*
X00548826Y0070901*
X00547244Y00708355*
X00544529Y00706272*
X00542445Y00703556*
X00541788Y00701969*
X00541726Y00701819*
X00540476*
X00540413Y00701969*
X00540411Y00701975*
X00539756Y00703556*
X00537672Y00706272*
X00534957Y00708355*
X00533376Y0070901*
X00531794Y00709665*
X00528401Y00710112*
X00525007Y00709665*
X00523426Y0070901*
X00521845Y00708355*
X00519129Y00706272*
X00517045Y00703556*
X0051639Y00701975*
X00516388Y00701969*
X00516326Y00701819*
X00515076*
X00515013Y00701969*
X00514356Y00703556*
X00512272Y00706272*
X00509557Y00708355*
X00507975Y0070901*
X00506394Y00709665*
X00503001Y00710112*
X00499607Y00709665*
X00498026Y0070901*
X00496445Y00708355*
X00493729Y00706272*
X00491645Y00703556*
X00490988Y00701969*
X00490926Y00701819*
X00489676*
X00489613Y00701969*
X00488956Y00703556*
X00486872Y00706272*
X00484157Y00708355*
X00482575Y0070901*
X00480994Y00709665*
X00477601Y00710112*
X00474207Y00709665*
X00472626Y0070901*
X00471044Y00708355*
X00468329Y00706272*
X00466245Y00703556*
X00465588Y00701971*
X00465526Y0070182*
X00464276*
X00464214Y00701971*
X00463557Y00703557*
X00461473Y00706272*
X00458758Y00708356*
X00457176Y00709011*
X00455595Y00709666*
X00452201Y00710113*
X00448808Y00709666*
X00447227Y00709011*
X00445645Y00708356*
X0044293Y00706272*
X00440846Y00703557*
X00440189Y0070197*
X00440126Y0070182*
X00438876*
X00438814Y0070197*
X00438157Y00703557*
X00436073Y00706272*
X00433357Y00708356*
X00431776Y00709011*
X00430195Y00709666*
X00426801Y00710113*
X00423408Y00709666*
X00421827Y00709011*
X00420245Y00708356*
X0041753Y00706272*
X00415446Y00703557*
X00414788Y00701967*
X00414725Y00701817*
X00413475*
X00413413Y00701967*
X00412755Y00703555*
X00410671Y00706271*
X00407956Y00708354*
X00404794Y00709664*
X004014Y00710111*
X00398006Y00709664*
X00394844Y00708354*
X00392128Y00706271*
X00390044Y00703555*
X00389387Y00701968*
X00389325Y00701818*
X00388075*
X00388012Y00701968*
X00387355Y00703555*
X00385271Y00706271*
X00382556Y00708354*
X00380975Y00709009*
X00379393Y00709664*
X00376Y00710111*
X00372606Y00709664*
X00371025Y00709009*
X00369444Y00708354*
X00366728Y00706271*
X00364644Y00703555*
X00363988Y0070197*
X00363925Y00701819*
X00362675*
X00362613Y0070197*
X00361956Y00703556*
X00359872Y00706272*
X00357157Y00708355*
X00355576Y0070901*
X00353994Y00709665*
X00350601Y00710112*
X00347207Y00709665*
X00345626Y0070901*
X00344044Y00708355*
X00341329Y00706272*
X00339245Y00703556*
X00338588Y00701969*
X00338526Y00701819*
X00337276*
X00337213Y00701969*
X00336556Y00703556*
X00334472Y00706272*
X00331757Y00708355*
X00330176Y0070901*
X00328594Y00709665*
X00325201Y00710112*
X00321807Y00709665*
X00320226Y0070901*
X00318644Y00708355*
X00315929Y00706272*
X00313845Y00703556*
X00313188Y00701969*
X00313126Y00701819*
X00311876*
X00311813Y00701969*
X00311811Y00701975*
X00311156Y00703556*
X00309072Y00706272*
X00306357Y00708355*
X00304775Y0070901*
X00303194Y00709665*
X00299801Y00710112*
X00296407Y00709665*
X00294826Y0070901*
X00293245Y00708355*
X00290529Y00706272*
X00288445Y00703556*
X0028779Y00701975*
X00287788Y00701969*
X00287726Y00701819*
X00286476*
X00286413Y00701969*
X00285756Y00703556*
X00283672Y00706272*
X00280957Y00708355*
X00279376Y0070901*
X00277794Y00709665*
X00274401Y00710112*
X00271007Y00709665*
X00269426Y0070901*
X00267844Y00708355*
X00265129Y00706272*
X00263045Y00703556*
X00262389Y00701971*
X00262326Y0070182*
X00261076*
X00261014Y00701971*
X00260357Y00703557*
X00258273Y00706272*
X00255557Y00708356*
X00253976Y00709011*
X00252395Y00709666*
X00249001Y00710113*
X00245608Y00709666*
X00244027Y00709011*
X00242445Y00708356*
X0023973Y00706272*
X00237646Y00703557*
X00237478Y0070315*
X00237468Y00703126*
X00236218*
X0023583Y00704061*
X00233586Y00706985*
X00230662Y0070923*
X00227256Y0071064*
X00226101Y00710792*
Y00699699*
Y00697001*
Y00683209*
X00227256Y00683361*
X00230662Y00684772*
X00233586Y00687016*
X0023583Y0068994*
X00236218Y00690875*
X00237468*
X00237478Y00690851*
X00237646Y00690445*
X0023973Y00687729*
X00242445Y00685645*
X00243048Y00685395*
X00243394Y00685252*
Y00638997*
X00243713Y00637392*
X00244127Y00636391*
X00245036Y00635031*
X00270391Y00609676*
Y00534999*
X0027071Y00533395*
X00271125Y00532394*
X00272034Y00531034*
X00285034Y00518034*
X00286394Y00517125*
X00287395Y0051671*
X00288999Y00516391*
X00309878*
X00310127Y0051605*
X0031044Y00515121*
X00309954Y00514394*
X00309653Y00513666*
X00309421Y00512499*
Y00509499*
X00331577*
Y00512499*
X00331345Y00513666*
X00331044Y00514394*
X00330545Y00515141*
X00330828Y00516014*
X00331107Y00516411*
X00336066*
X00337157Y00515682*
X00338249Y0051523*
X00339999Y00514882*
X00341749Y0051523*
X00342841Y00515682*
X00344325Y00516673*
X00345316Y00518157*
X00345768Y00519249*
X00346117Y00520999*
X00345768Y00522749*
X00345316Y00523841*
X00344325Y00525325*
X00342841Y00526316*
X00341749Y00526768*
X00339999Y00527117*
X00338249Y00526768*
X00337157Y00526316*
X00336066Y00525587*
X00330558*
Y00527499*
X00330384Y00528374*
X00330158Y0052892*
X00329662Y00529662*
X0032892Y00530158*
X00328374Y00530384*
X00327499Y00530558*
X00313499*
X00312624Y00530384*
X00312078Y00530158*
X00311336Y00529662*
X00310841Y0052892*
X00310614Y00528374*
X00310462Y00527607*
X00291322*
X00281607Y00537322*
Y00611999*
X00281288Y00613603*
X00280873Y00614604*
X00279964Y00615964*
X00254609Y00641319*
Y00685252*
X00254955Y00685395*
X00255557Y00685645*
X00258273Y00687729*
X00260357Y00690445*
X00261013Y0069203*
X00261076Y0069218*
X00262326*
X00262388Y0069203*
X00263045Y00690444*
X00265129Y00687728*
X00267844Y00685644*
X00269426Y00684989*
X00269812Y00684829*
Y00668597*
X00270074Y00667285*
X00270413Y00666466*
X00271156Y00665353*
X00338755Y00597755*
X00339867Y00597011*
X00340686Y00596672*
X00341999Y00596411*
X00383099*
X00425182Y00554328*
X00424656Y00553058*
X00423377*
X00423238Y00553755*
X00422243Y00555244*
X00404743Y00572743*
X00403631Y00573487*
X00402811Y00573826*
X00401499Y00574087*
X00398005*
X00397607Y00575046*
X00395844Y00577344*
X00393546Y00579108*
X00390871Y00580216*
X00387999Y00580594*
X00385127Y00580216*
X00382452Y00579108*
X00380154Y00577344*
X0037839Y00575046*
X00377282Y00572371*
X00376904Y00569499*
X00377282Y00566627*
X0037839Y00563951*
X00380154Y00561654*
X00382452Y00559891*
X00385127Y00558782*
X00387999Y00558404*
X00390871Y00558782*
X00393546Y00559891*
X00395844Y00561654*
X00397607Y00563951*
X00398005Y00564911*
X00399598*
X00410628Y00553882*
X00410465Y00552248*
X00410337Y00552162*
X0040984Y0055142*
X00409614Y00550874*
X0040944Y00549999*
Y00549587*
X00404999*
X00403686Y00549326*
X00402867Y00548987*
X00401755Y00548243*
X00395755Y00542243*
X00395011Y00541131*
X00394672Y00540311*
X00394411Y00538999*
Y00492999*
X00394672Y00491687*
X00395011Y00490867*
X00395755Y00489755*
X00415755Y00469755*
X00416867Y00469011*
X00417686Y00468672*
X00418999Y00468411*
X00428099*
X00430411Y00466099*
Y00460999*
Y00448999*
X00430672Y00447686*
X00431011Y00446867*
X00431755Y00445755*
X00432867Y00445011*
X00433686Y00444672*
X00434999Y00444411*
X00436515Y00444712*
X00437394Y00444125*
X00437499Y00444081*
Y00445163*
Y00445257*
X00438244Y00445754*
X00438987Y00446867*
X00439327Y00447686*
X00439588Y00448999*
Y00454999*
X0044041*
Y00448999*
X00440671Y00447686*
X00441011Y00446867*
X00441754Y00445754*
X00442499Y00445257*
Y00445163*
Y00444081*
X00442604Y00444125*
X00443484Y00444712*
X00444999Y00444411*
X00446312Y00444672*
X00447131Y00445011*
X00447499Y00445257*
X00447867Y00445011*
X00448686Y00444672*
X00449999Y00444411*
X00451312Y00444672*
X00452131Y00445011*
X00452499Y00445257*
X00452867Y00445011*
X00453686Y00444672*
X00454999Y00444411*
X00456312Y00444672*
X00457131Y00445011*
X00457499Y00445257*
X00457867Y00445011*
X00458686Y00444672*
X00459999Y00444411*
X00461312Y00444672*
X00462131Y00445011*
X00462499Y00445257*
X00462867Y00445011*
X00463686Y00444672*
X00464999Y00444411*
X00466312Y00444672*
X00467131Y00445011*
X00467499Y00445257*
X00467868Y00445011*
X00468686Y00444672*
X00469999Y00444411*
X00471312Y00444672*
X00472131Y00445011*
X00472499Y00445257*
X00472867Y00445011*
X00473686Y00444672*
X00474999Y00444411*
X00476312Y00444672*
X00477131Y00445011*
X00477499Y00445257*
X00477867Y00445011*
X00478686Y00444672*
X00479999Y00444411*
X00481312Y00444672*
X00482131Y00445011*
X00482499Y00445257*
X00482867Y00445011*
X00483686Y00444672*
X00484999Y00444411*
X00486312Y00444672*
X00487131Y00445011*
X00487499Y00445257*
X00487867Y00445011*
X00488686Y00444672*
X00489999Y00444411*
X00491312Y00444672*
X00492131Y00445011*
X00492499Y00445257*
X00492867Y00445011*
X00493686Y00444672*
X00494999Y00444411*
X00496312Y00444672*
X00497131Y00445011*
X00497499Y00445257*
X00497867Y00445011*
X00498686Y00444672*
X00499999Y00444411*
X00501312Y00444672*
X00502131Y00445011*
X00502499Y00445257*
X00502867Y00445011*
X00503686Y00444672*
X00504999Y00444411*
X00506312Y00444672*
X00507131Y00445011*
X00507499Y00445257*
X00507867Y00445011*
X00508243Y00444856*
X00508686Y00444672*
X00508851Y00444639*
X00508859Y00444601*
X00508925Y00444573*
Y00444267*
X00509119Y00443291*
X00507673Y00442325*
X00506682Y00440841*
X00506605Y00440655*
X0050623Y00439749*
X00505881Y00437999*
X0050623Y00436249*
X00506682Y00435157*
X00507673Y00433673*
X00509157Y00432682*
X00510249Y0043223*
X00511999Y00431882*
X00513749Y0043223*
X00514841Y00432682*
X00516325Y00433673*
X00516401Y00433788*
X00517929*
X00518673Y00432673*
X00520157Y00431682*
X00521249Y0043123*
X00522999Y00430881*
X00524141Y00431109*
X00524247Y00431021*
X00525345Y00431476*
X00526555Y00428555*
X00527555Y00427555*
X00530999Y00426128*
X00534443Y00427555*
X00534587Y00427903*
Y00430716*
X00535718Y00431243*
X00535909Y0043137*
X00536249Y0043123*
X00537999Y00430881*
X0053975Y0043123*
X00540841Y00431682*
X00541932Y00432411*
X00548066*
X00549157Y00431682*
X00550249Y0043123*
X00551999Y00430881*
X00553749Y0043123*
X00554841Y00431682*
X00556325Y00432673*
X00557316Y00434157*
X00557768Y00435249*
X00558116Y00436999*
X00557768Y00438749*
X00557316Y00439841*
X00556325Y00441325*
X00554841Y00442316*
X00553749Y00442768*
X00551999Y00443116*
X00550249Y00442768*
X00549157Y00442316*
X00548066Y00441587*
X00541932*
X00540841Y00442316*
X0053987Y00442718*
Y00442744*
X00539587Y00442801*
Y00444073*
X00539999Y00444411*
X00541312Y00444672*
X00542131Y00445011*
X00542499Y00445257*
X00542867Y00445011*
X00543687Y00444672*
X00544999Y00444411*
X00546312Y00444672*
X00547131Y00445011*
X00547499Y00445257*
X00547867Y00445011*
X00548686Y00444672*
X00549999Y00444411*
X00551312Y00444672*
X00552131Y00445011*
X00552499Y00445257*
X00552867Y00445011*
X00553686Y00444672*
X00554999Y00444411*
X00556312Y00444672*
X00557131Y00445011*
X00558243Y00445755*
X00558987Y00446867*
X00559326Y00447686*
X00559491Y00448515*
X00560812Y00448645*
X00560885Y00448469*
X00562007Y00447007*
X00563469Y00445885*
X0056432Y00445532*
X00564499Y00445458*
Y00451999*
Y0045854*
X0056432Y00458466*
X00563469Y00458114*
X00562007Y00456991*
X00560885Y00455529*
X00560857Y00455463*
X00559587Y00455716*
Y00466099*
X00695899Y00602411*
X00742126*
X00742652Y00601141*
X00583599Y00442087*
X00566499*
X00565186Y00441826*
X00564367Y00441487*
X00563255Y00440743*
X00562511Y00439631*
X00562172Y00438812*
X00561911Y00437499*
X00562172Y00436186*
X00562511Y00435367*
X00562757Y00434999*
X00562511Y00434631*
X00562343Y00434224*
X00562172Y00433811*
X00561911Y00432499*
X00562172Y00431186*
X00562511Y00430367*
X00562757Y00429999*
X00562511Y00429631*
X00562172Y00428812*
X00561911Y00427499*
X00562172Y00426186*
X00562511Y00425367*
X00562757Y00424999*
X00562511Y00424631*
X00562172Y00423811*
X00561911Y00422499*
X00562172Y00421186*
X00562249Y00421*
X00562511Y00420367*
X00562757Y00419999*
X00562511Y00419631*
X00562172Y00418811*
X00561911Y00417499*
X00562172Y00416186*
X00562511Y00415367*
X00562757Y00414999*
X00562511Y00414631*
X00562213Y00413912*
X00562172Y00413812*
X00561911Y00412499*
X00562172Y00411186*
X00562511Y00410367*
X00562757Y00409999*
X00562511Y00409631*
X00562172Y00408811*
X00561911Y00407499*
X00562172Y00406186*
X00562511Y00405367*
X00562757Y00404999*
X00562511Y00404631*
X00562172Y00403812*
X00561911Y00402499*
X00562172Y00401186*
X00562511Y00400367*
X00562757Y00399999*
X00562511Y00399631*
X00562172Y00398811*
X00561911Y00397499*
X00562172Y00396186*
X00562511Y00395367*
X00562757Y00394999*
X00562511Y00394631*
X00562172Y00393811*
X00561911Y00392499*
X00562172Y00391186*
X00562511Y00390367*
X00562757Y00389999*
X00562511Y00389631*
X00562172Y00388812*
X0056206Y00388247*
X00561947Y00388269*
X00561628Y00387499*
X00562664Y00384999*
X00562021Y00383446*
X00560999Y0038387*
X00557555Y00382443*
X00557405Y00382082*
X00555251Y00382975*
X00555141Y00382889*
X00553999Y00383116*
X00552249Y00382768*
X00551157Y00382316*
X00549673Y00381325*
X00548682Y00379841*
X0054823Y00378749*
X00547881Y00376999*
X0054823Y00375249*
X00548682Y00374157*
X00549411Y00373066*
Y00368999*
X00549538Y00368357*
X00548496Y00367087*
X00508499*
X00507186Y00366826*
X0050693Y0036672*
X00506367Y00366487*
X00505255Y00365743*
X00499536Y00360024*
X00498249Y00359768*
X00497157Y00359316*
X00495673Y00358325*
X00494682Y00356841*
X0049423Y00355749*
X00493881Y00353999*
X0049423Y00352249*
X00494682Y00351157*
X00495673Y00349673*
X00497157Y00348682*
X00497422Y00348572*
X00498249Y0034823*
X00499999Y00347881*
X00501749Y0034823*
X00502576Y00348572*
X00502841Y00348682*
X00504325Y00349673*
X00505316Y00351157*
X00505768Y00352249*
X00506024Y00353536*
X00507152Y00354663*
X00508278Y00353993*
X00507881Y00351999*
X0050823Y00350249*
X00508641Y00349255*
X00508682Y00349157*
X00509673Y00347673*
X00511157Y00346682*
X00511549Y00346519*
X00512249Y0034623*
X00513999Y00345881*
X00515749Y0034623*
X00516612Y00346587*
X00516841Y00346682*
X00518325Y00347673*
X00518652Y00348164*
X00519239Y00348085*
X00519925Y00347782*
X0052023Y00346249*
X00520255Y00346186*
X00520682Y00345157*
X00521673Y00343673*
X00523157Y00342682*
X00524249Y0034223*
X00525999Y00341882*
X00527001Y00342081*
X00528081Y00341001*
X00527881Y00339999*
X0052823Y00338249*
X00528612Y00337325*
X00528682Y00337157*
X00529673Y00335673*
X00531157Y00334682*
X00532249Y0033423*
X00533999Y00333881*
X00535749Y0033423*
X00535813Y00334256*
X00535818Y00334243*
X00536024Y00334284*
X0053623Y00333249*
X00536682Y00332157*
X00537673Y00330673*
X00539157Y00329682*
X00540249Y0032923*
X00541999Y00328881*
X00543749Y0032923*
X00544841Y00329682*
X00546325Y00330673*
X00547036Y00331738*
X0054714Y00331732*
X00547167Y00331797*
X00548417*
X00548682Y00331157*
X00549673Y00329673*
X00551157Y00328682*
X00551585Y00328505*
X00552249Y0032823*
X00553999Y00327881*
X00555749Y0032823*
X00556413Y00328505*
X00556841Y00328682*
X00558325Y00329673*
X00559316Y00331157*
X00559629Y00331912*
X00559768Y00332249*
X005599Y00332911*
X00561573*
X00561911Y00332499*
X00562172Y00331186*
X00562511Y00330367*
X00562757Y00329999*
X00562511Y00329631*
X00562172Y00328812*
X00561911Y00327499*
X00562172Y00326186*
X00562511Y00325367*
X00562757Y00324999*
X00562511Y00324631*
X00562172Y00323812*
X00561911Y00322499*
X00562172Y00321186*
X00562511Y00320367*
X00562757Y00319999*
X00562511Y00319631*
X00562172Y00318812*
X00561911Y003175*
X00562172Y00316186*
X00562511Y00315367*
X00563255Y00314255*
X00564367Y00313511*
X00565186Y00313172*
X00566284Y00312954*
X00566511Y00312654*
X00566523Y00312628*
X00574999*
Y00302391*
X00578676*
X00584391Y00296676*
Y0028519*
X00583884Y00284529*
X00583532Y00283678*
X00583458Y00283499*
X0059654*
X00596466Y00283678*
X00596114Y00284529*
X00595607Y0028519*
Y00298999*
X00595288Y00300603*
X00594873Y00301604*
X00593964Y00302964*
X00585288Y00311641*
X00585745Y00312911*
X00590599*
X00604411Y00299099*
Y00262999*
X00604672Y00261686*
X00605011Y00260867*
X00605755Y00259755*
X00635652Y00229857*
X00635127Y00228587*
X00618899*
X00559587Y002879*
Y00299999*
Y00305999*
X00559326Y00307312*
X00558987Y00308131*
X00558243Y00309243*
X00557131Y00309987*
X00556821Y00310115*
X00556312Y00310326*
X00554999Y00310587*
X00553686Y00310326*
X00552867Y00309987*
X00552499Y00309741*
X00552131Y00309987*
X00551312Y00310326*
X00549999Y00310587*
X00548686Y00310326*
X00547867Y00309987*
X00547499Y00309741*
X00547131Y00309987*
X00546312Y00310326*
X00544999Y00310587*
X00543687Y00310326*
X00542867Y00309987*
X00542499Y00309741*
X00542131Y00309987*
X00541312Y00310326*
X00539999Y00310587*
X00538686Y00310326*
X00537867Y00309987*
X00537499Y00309741*
X00537131Y00309987*
X00536312Y00310326*
X00534999Y00310587*
X00533686Y00310326*
X00532867Y00309987*
X00532499Y00309741*
X00532131Y00309987*
X00531312Y00310326*
X00529999Y00310587*
X00528686Y00310326*
X00527867Y00309987*
X00527499Y00309741*
X00527131Y00309987*
X00526312Y00310326*
X00524999Y00310587*
X00523686Y00310326*
X00522867Y00309987*
X00522499Y00309741*
X00522131Y00309987*
X00521312Y00310326*
X00519999Y00310587*
X00518686Y00310326*
X00517867Y00309987*
X00517499Y00309741*
X00517131Y00309987*
X00516312Y00310326*
X00514999Y00310587*
X00513686Y00310326*
X00512867Y00309987*
X00512499Y00309741*
X00512131Y00309987*
X00511312Y00310326*
X00509999Y00310587*
X00509587Y00310925*
Y00317066*
X00510316Y00318157*
X00510482Y00318558*
X00510768Y00319249*
X00511117Y00320999*
X00510768Y00322749*
X00510316Y00323841*
X00509325Y00325325*
X00507841Y00326316*
X00507499Y00326458*
X00506749Y00326768*
X00504999Y00327117*
X00504811Y00327079*
X00503913Y00327977*
X00504117Y00328999*
X00503768Y00330749*
X00503316Y00331841*
X00502325Y00333325*
X00500841Y00334316*
X00499749Y00334768*
X00497999Y00335116*
X00496249Y00334768*
X00495157Y00334316*
X00494356Y00333781*
X00493325Y00335325*
X00491841Y00336316*
X00490749Y00336768*
X00488999Y00337117*
X00487249Y00336768*
X00486157Y00336316*
X00484797Y00335407*
X00484361Y00335266*
X00483637*
X00483201Y00335407*
X00481841Y00336316*
X00480749Y00336768*
X00478999Y00337117*
X00477249Y00336768*
X00476157Y00336316*
X00474673Y00335325*
X00473682Y00333841*
X0047323Y00332749*
X00472881Y00330999*
X0047323Y00329249*
X00473411Y00328812*
X00473682Y00328157*
X00474027Y0032764*
X00474653Y00326659*
X00474379Y00326473*
X00474402Y00326418*
X00474136Y00326307*
X00473703Y00326013*
X004728Y0032541*
X00472119Y00325519*
X00471436Y00325759*
X00471326Y00326311*
X00470987Y00327131*
X00470243Y00328243*
X00463752Y00334734*
X00464335Y00335948*
X00465749Y0033623*
X00466841Y00336682*
X00468325Y00337673*
X00469316Y00339157*
X00469768Y00340249*
X00470117Y00341999*
X00469768Y00343749*
X00469743Y00343811*
X00469316Y00344841*
X00468325Y00346325*
X00466841Y00347316*
X00465749Y00347768*
X00463999Y00348116*
X00462249Y00347768*
X00461157Y00347316*
X00460066Y00346587*
X00445436*
X0044534Y00346651*
X00442999Y00347117*
X00441249Y00346768*
X00440157Y00346316*
X00438673Y00345325*
X00437682Y00343841*
X0043723Y00342749*
X00436882Y00340999*
X00436969Y00340558*
X00436499Y00340172*
Y00332999*
Y00326005*
X00436505Y00325999*
X0043737Y00323909*
X00436676Y0032287*
X00432499*
X00429333Y00321558*
X00428498Y00322166*
X00428325Y00322391*
X00428371Y00322499*
X00427334Y00324999*
X00428013Y00326637*
X00428533Y00327467*
X00429525Y00327276*
X00431499Y00326458*
Y00332999*
Y0033954*
X00430679Y003392*
X00430469Y00339113*
X00429247Y00338176*
X00428341Y00338345*
X00428319Y00338357*
X00428015*
X00427929Y00338564*
X00427869Y00338595*
X00427826Y00338812*
X00427487Y00339631*
X00427241Y00339999*
X00427487Y00340367*
X00427774Y0034106*
X00427826Y00341186*
X00428087Y00342499*
X00427826Y00343811*
X00427487Y00344631*
X00427241Y00344999*
X00427487Y00345367*
X00427534Y00345482*
X00427826Y00346186*
X00428087Y00347499*
X00427826Y00348812*
X00427487Y00349631*
X00427241Y00349999*
X00427487Y00350367*
X00427826Y00351186*
X00428087Y00352499*
X00427826Y00353812*
X00427487Y00354631*
X00427241Y00354999*
X00427487Y00355367*
X00427516Y00355438*
X00427826Y00356186*
X00428087Y00357499*
X00427826Y00358811*
X00427487Y00359631*
X00427241Y00359999*
X00427487Y00360367*
X00427826Y00361186*
X00428087Y00362499*
X00427826Y00363812*
X00427823Y00363819*
X00427746Y00364005*
X00427776Y00364062*
X00427738Y00364255*
X00428Y00364725*
X00429551Y00364958*
X00432974Y00361536*
X0043323Y00360249*
X00433486Y00359631*
X00433682Y00359157*
X00434673Y00357673*
X00436157Y00356682*
X00436982Y0035634*
X00437249Y0035623*
X00438999Y00355881*
X00440749Y0035623*
X00441016Y0035634*
X00441841Y00356682*
X00443325Y00357673*
X00444316Y00359157*
X00444512Y00359631*
X00444768Y00360249*
X00445117Y00361999*
X00444979Y00362689*
X00445122Y00362896*
X00444908Y00363413*
X00444999Y00363505*
X00445759Y00363819*
X00445929Y00364066*
X00446749Y0036423*
X00447841Y00364682*
X00449326Y00365673*
X00450316Y00367157*
X00450768Y00368249*
X00451117Y00369999*
X00450768Y00371749*
X00450316Y00372841*
X00449407Y00374201*
X00449266Y00374637*
Y00375361*
X00449407Y00375797*
X00450316Y00377157*
X00450694Y00378069*
X00450768Y00378249*
X00450842Y00378617*
X00450949Y00378684*
X00451406Y00379788*
X0045219Y00379463*
X00452321Y00379546*
X00452999Y00379411*
X00461681*
X00464443Y00380555*
X0046587Y00383999*
X00464443Y00387443*
X00461681Y00388587*
X00456795*
X00456116Y00389857*
X00456316Y00390157*
X00456403Y00390367*
X00456768Y00391249*
X00457117Y00392999*
X00456768Y00394749*
X00456316Y00395841*
X00455325Y00397325*
X00453841Y00398316*
X00452749Y00398768*
X00450999Y00399117*
X00449249Y00398768*
X00448157Y00398316*
X00446673Y00397325*
X00446515Y00397087*
X00428425*
X00428087Y00397499*
X00427826Y00398811*
X004277Y00399117*
X00427487Y00399631*
X00427241Y00399999*
X00427487Y00400367*
X00427826Y00401186*
X00428087Y00402499*
X00427826Y00403812*
X00427487Y00404631*
X00427241Y00404999*
X00427487Y00405367*
X00427826Y00406186*
X00428087Y00407499*
X00427826Y00408811*
X00427487Y00409631*
X00427241Y00409999*
X00427487Y00410367*
X00427826Y00411186*
X00428087Y00412499*
X00427826Y00413812*
X00427785Y00413912*
X00427487Y00414631*
X00427241Y00414999*
X00427487Y00415367*
X00427826Y00416186*
X00428087Y00417499*
X00427826Y00418811*
X00427487Y00419631*
X00427241Y00419999*
X00427487Y00420367*
X00427749Y00421*
X00427826Y00421186*
X00428087Y00422499*
X00427826Y00423811*
X00427487Y00424631*
X00427241Y00424999*
X00427487Y00425367*
X00427826Y00426186*
X00428087Y00427499*
X00427826Y00428812*
X00427487Y00429631*
X00427241Y00429999*
X00427487Y00430367*
X00427826Y00431186*
X00428087Y00432499*
X00427826Y00433811*
X00427655Y00434224*
X00427487Y00434631*
X00427241Y00434999*
X00427487Y00435367*
X00427826Y00436186*
X00428087Y00437499*
X00427826Y00438812*
X00427487Y00439631*
X00426743Y00440743*
X00425631Y00441487*
X00424812Y00441826*
X00423499Y00442087*
X00323399*
X00246587Y00518899*
Y00562486*
X00247857Y00562739*
X0024839Y00561452*
X00250154Y00559154*
X00252452Y00557391*
X00255127Y00556282*
X00257999Y00555904*
X00260871Y00556282*
X00263546Y00557391*
X00265844Y00559154*
X00267607Y00561452*
X00268716Y00564127*
X00269094Y00566999*
X00268716Y00569871*
X00267607Y00572546*
X00265844Y00574844*
X00263546Y00576608*
X00260871Y00577716*
X00257999Y00578094*
X00255127Y00577716*
X00252452Y00576608*
X00250154Y00574844*
X0024839Y00572546*
X00247857Y00571259*
X00246587Y00571511*
Y00624999*
X00246326Y00626312*
X00245987Y00627131*
X00245243Y00628243*
X00197744Y00675742*
X00196631Y00676486*
X00195812Y00676825*
X001945Y00677086*
X0015967*
X0015951Y00677473*
X00158855Y00679054*
X00156771Y0068177*
X00154056Y00683854*
X00152475Y00684509*
X00150893Y00685165*
X001475Y0068561*
X00144106Y00685165*
X00142525Y00684509*
X00140944Y00683854*
X00138228Y0068177*
X00136144Y00679054*
X00135489Y00677473*
X00134834Y00675892*
X00134388Y00672498*
X00134834Y00669105*
X00135489Y00667523*
X00136144Y00665942*
X00138228Y00663226*
X00140944Y00661143*
X00142525Y00660488*
X0014253Y00660486*
X00142681Y00660423*
Y00659173*
X0014253Y00659111*
X00142525Y00659109*
X00140944Y00658454*
X00138228Y0065637*
X00136144Y00653654*
X00135489Y00652073*
X00134834Y00650492*
X00134388Y00647098*
X00134834Y00643705*
X00135489Y00642123*
X00136144Y00640542*
X00138228Y00637826*
X00140944Y00635743*
X00142525Y00635088*
X00142529Y00635086*
X0014268Y00635024*
Y00633774*
X00142529Y00633711*
X00140943Y00633054*
X00138227Y00630971*
X00136144Y00628255*
X00135489Y00626674*
X00134834Y00625094*
X00134387Y00621699*
X00134834Y00618305*
X00135489Y00616724*
X00136144Y00615143*
X00138227Y00612427*
X00140943Y00610344*
X00142529Y00609686*
X0014268Y00609624*
Y00608374*
X00142529Y00608312*
X00142524Y00608309*
X00140943Y00607654*
X00138227Y00605571*
X00136144Y00602855*
X00135489Y00601274*
X00134834Y00599694*
X00134387Y00596299*
X00134834Y00592905*
X00135489Y00591324*
X00136144Y00589743*
X00138227Y00587027*
X00140943Y00584944*
X00142524Y00584289*
X0014253Y00584286*
X0014268Y00584224*
Y00582974*
X0014253Y00582912*
X00142524Y00582909*
X00140943Y00582255*
X00138227Y00580171*
X00136144Y00577455*
X00135489Y00575874*
X00134834Y00574294*
X00134387Y00570899*
X00134834Y00567505*
X00135489Y00565924*
X00136144Y00564343*
X00138227Y00561627*
X00140943Y00559544*
X00142524Y00558889*
X0014253Y00558886*
X0014268Y00558824*
Y00557574*
X0014253Y00557512*
X00142524Y00557509*
X00140943Y00556855*
X00138227Y00554771*
X00136144Y00552055*
X00135489Y00550474*
X00134834Y00548894*
X00134387Y00545499*
X00134834Y00542105*
X00135489Y00540524*
X00136144Y00538943*
X00138227Y00536227*
X00140943Y00534144*
X00142524Y00533489*
X00142528Y00533487*
X00142679Y00533425*
Y00532175*
X00142528Y00532112*
X00142523Y0053211*
X00140942Y00531455*
X00138227Y00529371*
X00136144Y00526656*
X00134833Y00523494*
X00134386Y005201*
X00134833Y00516706*
X00136144Y00513544*
X00138227Y00510828*
X00140942Y00508744*
X00142523Y00508089*
X00142529Y00508087*
X00142679Y00508025*
Y00506775*
X00142529Y00506712*
X00142523Y0050671*
X00140942Y00506055*
X00138227Y00503972*
X00136144Y00501256*
X00135488Y00499675*
X00134833Y00498094*
X00134386Y004947*
X00134833Y00491306*
X00135488Y00489725*
X00136144Y00488144*
X00138227Y00485428*
X00140942Y00483344*
X00142523Y00482689*
X0014253Y00482687*
X00142681Y00482624*
Y00481374*
X0014253Y00481312*
X00142524Y00481309*
X00140943Y00480655*
X00138227Y00478571*
X00136144Y00475855*
X00135489Y00474274*
X00134834Y00472694*
X00134387Y00469299*
X00134834Y00465905*
X00135489Y00464324*
X00136144Y00462743*
X00138227Y00460027*
X00140943Y00457944*
X00142524Y00457289*
X0014253Y00457286*
X0014268Y00457224*
Y00455974*
X0014253Y00455912*
X00142524Y00455909*
X00140943Y00455255*
X00138227Y00453171*
X00136144Y00450455*
X00136073Y00450284*
X00135962Y00450018*
X00134717Y0044977*
X00129587Y004549*
Y00478999*
X00129326Y00480311*
X00128987Y00481131*
X00128243Y00482243*
X00114243Y00496243*
X00113131Y00496987*
X00112311Y00497326*
X00110999Y00497587*
X00091932*
X00090889Y00498857*
X00091116Y00499999*
X00090651Y0050234*
X00089325Y00504325*
X0008734Y00505651*
X00084999Y00506117*
X00082658Y00505651*
X00080673Y00504325*
X00079347Y0050234*
X00078974Y00500462*
X00075505Y00496993*
X0007451Y00495505*
X00074161Y00493749*
Y00489477*
X00073179Y00488672*
X00072249Y00488857*
X00070104Y0048843*
X00069874Y00488277*
X00069027Y00488927*
X00068249Y00489249*
Y00487163*
X00067068Y00485395*
X00066641Y00483249*
Y00477749*
X00064857*
Y00483249*
X0006443Y00485395*
X00063249Y00487163*
Y00489249*
X00062471Y00488927*
X00061624Y00488277*
X00061395Y0048843*
X00059249Y00488857*
X00057103Y0048843*
X00055999Y00487692*
X00054895Y0048843*
X00052749Y00488857*
X00050603Y0048843*
X00049499Y00487692*
X00048395Y0048843*
X00046249Y00488857*
X00044103Y0048843*
X00042999Y00487692*
X00041895Y0048843*
X00039749Y00488857*
X00037603Y0048843*
X00036499Y00487692*
X00035395Y0048843*
X00033249Y00488857*
X00031103Y0048843*
X00029999Y00487692*
X00028895Y0048843*
X00026749Y00488857*
X00024603Y0048843*
X00023499Y00487692*
X00022395Y0048843*
X00020249Y00488857*
X00018103Y0048843*
X00016284Y00487214*
X00015068Y00485395*
X00014641Y00483249*
Y00472249*
X00015068Y00470103*
X00016284Y00468284*
X00018103Y00467068*
X00020249Y00466641*
X00022395Y00467068*
X00023499Y00467806*
X00024603Y00467068*
X00026749Y00466641*
X00028895Y00467068*
X00029999Y00467806*
X00031103Y00467068*
X00033249Y00466641*
X00035395Y00467068*
X00036499Y00467806*
X00037603Y00467068*
X00039749Y00466641*
X00041895Y00467068*
X00042999Y00467806*
X00044103Y00467068*
X00046249Y00466641*
X00048395Y00467068*
X00049499Y00467806*
X00050603Y00467068*
X00052749Y00466641*
X00054895Y00467068*
X00055999Y00467806*
X00057103Y00467068*
X00059249Y00466641*
X00060179Y00466826*
X00061161Y00466021*
Y0046311*
X00061006Y00462991*
X00059885Y00461529*
X00059458Y00460499*
X00065999*
Y00457999*
X00068499*
Y00451458*
X00069529Y00451884*
X00069833Y00452117*
X00070672Y00451161*
X00049505Y00429993*
X0004851Y00428505*
X00048289Y00427392*
X00047002Y00427434*
X00046819Y00428826*
X00046114Y0043053*
X00044991Y00431991*
X00043529Y00433114*
X00042499Y0043354*
Y00426999*
X00039999*
Y00424499*
X00033458*
X00033885Y00423469*
X00035007Y00422007*
X00035161Y00421888*
Y00418977*
X00034179Y00418172*
X00033249Y00418357*
X00032319Y00418172*
X00031337Y00418977*
Y00434849*
X000371Y00440611*
X0003856Y00440321*
X00040901Y00440787*
X00042885Y00442113*
X00044212Y00444097*
X00044677Y00446438*
X00044212Y0044878*
X00042885Y00450764*
X00040901Y0045209*
X0003856Y00452556*
X00038122Y00453764*
X00037848Y00455143*
X00036522Y00457128*
X00034537Y00458454*
X00032196Y0045892*
X00029855Y00458454*
X0002787Y00457128*
X00026544Y00455143*
X00026078Y00452802*
X00026369Y00451342*
X00017005Y00441979*
X0001601Y0044049*
X00015661Y00438734*
Y00415782*
X00015068Y00414895*
X00014641Y0041275*
Y00401749*
X00015068Y00399603*
X00016284Y00397784*
X00018103Y00396568*
X00020249Y00396141*
X00022395Y00396568*
X00023499Y00397306*
X00024603Y00396568*
X00026749Y00396141*
X00028895Y00396568*
X00029999Y00397306*
X00031103Y00396568*
X00033249Y00396141*
X00035395Y00396568*
X00035624Y00396721*
X00036471Y00396071*
X00037249Y00395749*
Y00397835*
X0003843Y00399603*
X00038857Y00401749*
Y00407249*
X00040641*
Y00401749*
X00041068Y00399603*
X00042249Y00397835*
Y00395749*
X00043027Y00396071*
X00043874Y00396721*
X00044103Y00396568*
X00046249Y00396141*
X00048395Y00396568*
X00049499Y00397306*
X00050603Y00396568*
X00052749Y00396141*
X00054895Y00396568*
X00055124Y00396721*
X00055971Y00396071*
X00057552Y00395416*
X00059249Y00395193*
X00059891Y00395277*
X00061161Y00394186*
Y00303649*
X00054364Y00296853*
X00053927Y00296759*
X00052735Y0029702*
X0005264Y00297162*
X00051648Y00297825*
X00050478Y00298058*
X00010999*
X00009828Y00297825*
X00008836Y00297162*
X00008173Y0029617*
X0000794Y00294999*
Y00080999*
Y00019999*
X00008173Y00018828*
X00008836Y00017836*
X00009828Y00017173*
X00010999Y0001694*
X00333999*
X0033517Y00017173*
X00336162Y00017836*
X00346162Y00027836*
X00346658Y00028578*
X00346884Y00029124*
X00347058Y00029999*
Y00047829*
X00347699Y00048391*
Y00062499*
Y00076291*
X00346544Y00076139*
X00343139Y00074728*
X00340214Y00072484*
X0033797Y00069559*
X00337593Y0006865*
X00337583Y00068626*
X00336333*
X00336155Y00069056*
X00334071Y00071771*
X00331356Y00073855*
X00329775Y0007451*
X00329388Y0007467*
Y00135899*
X00348243Y00154755*
X00348987Y00155867*
X00349326Y00156686*
X00349587Y00157999*
Y00163066*
X00350316Y00164157*
X00350768Y00165249*
X00351117Y00166999*
X00350768Y00168749*
X00350316Y00169841*
X00349325Y00171325*
X00347841Y00172316*
X00346749Y00172768*
X00344999Y00173117*
X00343249Y00172768*
X00342157Y00172316*
X00340673Y00171325*
X00339682Y00169841*
X0033923Y00168749*
X00338881Y00166999*
X0033923Y00165249*
X00339682Y00164157*
X00340411Y00163066*
Y001599*
X00321556Y00141044*
X00320812Y00139931*
X00320473Y00139112*
X00320212Y001378*
Y0007467*
X00319825Y0007451*
X00318244Y00073855*
X00315528Y00071771*
X00313444Y00069056*
X00312789Y00067475*
X00312787Y00067469*
X00312725Y00067319*
X00311475*
X00311412Y00067469*
X0031141Y00067475*
X00310755Y00069056*
X00308672Y00071771*
X00305956Y00073855*
X00304375Y0007451*
X00302793Y00075165*
X002994Y00075612*
X00296006Y00075165*
X00294425Y0007451*
X00292844Y00073855*
X00290128Y00071771*
X00288044Y00069056*
X00287389Y00067475*
X00287387Y00067469*
X00287325Y00067319*
X00286075*
X00286013Y00067469*
X0028601Y00067475*
X00285355Y00069056*
X00283271Y00071771*
X00280556Y00073855*
X00278975Y0007451*
X00277394Y00075165*
X00274Y00075612*
X00270606Y00075165*
X00269025Y0007451*
X00267444Y00073855*
X00264728Y00071771*
X00262644Y00069056*
X00261989Y00067475*
X00261987Y00067469*
X00261925Y00067319*
X00260675*
X00260612Y00067469*
X0026061Y00067475*
X00259955Y00069056*
X00257872Y00071771*
X00255156Y00073855*
X00253575Y0007451*
X00253188Y0007467*
Y00092699*
X00356899Y00196411*
X00373263*
X00373749Y00195237*
X00367755Y00189243*
X00367011Y00188131*
X00366672Y00187312*
X00366411Y00185999*
Y00182302*
X00366006Y00181991*
X00364884Y00180529*
X00364532Y00179678*
X00364458Y00179499*
X00370999*
Y00176999*
X00373499*
Y00170458*
X00373678Y00170532*
X00374529Y00170885*
X00375991Y00172007*
X00377113Y00173469*
X00377141Y00173535*
X00378411Y00173282*
Y00076204*
X00377456Y00075367*
X00375599Y00075611*
X00372205Y00075164*
X00370624Y00074509*
X00369043Y00073855*
X00366327Y00071771*
X00364243Y00069055*
X00364065Y00068625*
X00362815*
X00362805Y00068649*
X00362428Y00069559*
X00360184Y00072484*
X00357259Y00074728*
X00353854Y00076139*
X00352699Y00076291*
Y00062499*
Y00048707*
X00353854Y00048859*
X00357259Y0005027*
X00360184Y00052514*
X00362428Y00055439*
X00362805Y00056349*
X00362815Y00056373*
X00364065*
X00364243Y00055943*
X00366327Y00053227*
X00369043Y00051144*
X00370624Y00050489*
X00372205Y00049834*
X00375599Y00049387*
X00378993Y00049834*
X00380574Y00050489*
X00382155Y00051144*
X00384871Y00053227*
X00386954Y00055943*
X00387609Y00057524*
X00387612Y00057531*
X00387675Y00057681*
X00388925*
X00388987Y00057531*
X00388989Y00057525*
X00389644Y00055944*
X00391728Y00053228*
X00394444Y00051144*
X00396025Y00050489*
X00397606Y00049834*
X00401Y00049388*
X00404393Y00049834*
X00405975Y00050489*
X00407556Y00051144*
X00410271Y00053228*
X00412355Y00055944*
X0041301Y00057525*
X00413012Y00057531*
X00413075Y00057681*
X00414325*
X00414387Y00057531*
X00414389Y00057525*
X00415044Y00055944*
X00417128Y00053228*
X00419844Y00051144*
X00421425Y00050489*
X00423006Y00049834*
X004264Y00049388*
X00429794Y00049834*
X00431375Y00050489*
X00432956Y00051144*
X00435671Y00053228*
X00437755Y00055944*
X0043841Y00057525*
X00438412Y00057529*
X00438474Y0005768*
X00439724*
X00439787Y00057529*
X00440443Y00055943*
X00442527Y00053227*
X00445243Y00051143*
X00448405Y00049834*
X00451799Y00049387*
X00455193Y00049834*
X00458355Y00051143*
X00461071Y00053227*
X00463155Y00055943*
X00463812Y00057529*
X00463874Y0005768*
X00465124*
X00465186Y00057529*
X00465189Y00057524*
X00465843Y00055943*
X00467927Y00053227*
X00470643Y00051144*
X00472224Y00050489*
X00473805Y00049834*
X00477199Y00049387*
X00480593Y00049834*
X00482174Y00050489*
X00483755Y00051144*
X00486471Y00053227*
X00488554Y00055943*
X00489209Y00057524*
X00489212Y00057529*
X00489274Y0005768*
X00490524*
X00490586Y00057529*
X00490588Y00057524*
X00491244Y00055943*
X00493327Y00053227*
X00496043Y00051144*
X00497624Y00050489*
X00499205Y00049834*
X00502599Y00049387*
X00505993Y00049834*
X00507574Y00050489*
X00509155Y00051144*
X00511871Y00053227*
X00513954Y00055943*
X00514609Y00057524*
X00514612Y00057529*
X00514674Y0005768*
X00515924*
X00515986Y00057529*
X00515988Y00057524*
X00516644Y00055943*
X00518727Y00053227*
X00521443Y00051144*
X00523024Y00050489*
X00524605Y00049834*
X00527999Y00049387*
X00531393Y00049834*
X00532974Y00050489*
X00534555Y00051144*
X00537271Y00053227*
X00539354Y00055943*
X00540009Y00057524*
X00540011Y00057528*
X00540073Y00057679*
X00541323*
X00541386Y00057528*
X00541388Y00057523*
X00542043Y00055942*
X00544127Y00053227*
X00546842Y00051143*
X00548423Y00050488*
X00550004Y00049833*
X00553398Y00049386*
X00556792Y00049833*
X00558373Y00050488*
X00559954Y00051143*
X0056267Y00053227*
X00564754Y00055942*
X00565409Y00057523*
X00565411Y00057529*
X00565473Y00057679*
X00566723*
X00566785Y00057529*
X00566788Y00057523*
X00567443Y00055942*
X00569527Y00053227*
X00572242Y00051143*
X00573823Y00050488*
X00575405Y00049833*
X00578798Y00049386*
X00582192Y00049833*
X00583773Y00050488*
X00585354Y00051143*
X0058807Y00053227*
X00590154Y00055942*
X00590809Y00057523*
X00590812Y00057532*
X00590874Y00057682*
X00592124*
X00592187Y00057532*
X00592189Y00057525*
X00592844Y00055944*
X00594928Y00053228*
X00597644Y00051144*
X00599225Y00050489*
X00600806Y00049834*
X006042Y00049388*
X00607593Y00049834*
X00609175Y00050489*
X00610756Y00051144*
X00613472Y00053228*
X00615555Y00055944*
X0061621Y00057525*
X00616212Y00057531*
X00616275Y00057681*
X00617525*
X00617587Y00057531*
X00617589Y00057525*
X00618244Y00055944*
X00620328Y00053228*
X00623044Y00051144*
X00624625Y00050489*
X00626206Y00049834*
X006296Y00049388*
X00632993Y00049834*
X00634575Y00050489*
X00636156Y00051144*
X00638871Y00053228*
X00640955Y00055944*
X0064161Y00057525*
X00641612Y00057529*
X00641674Y00057679*
X00642924*
X00642987Y00057529*
X00642989Y00057524*
X00643643Y00055943*
X00645727Y00053227*
X00648443Y00051144*
X00650024Y00050489*
X00651605Y00049834*
X00654999Y00049387*
X00658393Y00049834*
X00659974Y00050489*
X00661555Y00051144*
X00664271Y00053227*
X00666354Y00055943*
X00667009Y00057524*
X00667012Y00057531*
X00667074Y0005768*
X00668324*
X00668386Y00057531*
X00669043Y00055943*
X00671127Y00053227*
X00673843Y00051143*
X00677005Y00049834*
X00680399Y00049387*
X00683793Y00049834*
X00686955Y00051143*
X00689671Y00053227*
X00691755Y00055943*
X00692412Y00057529*
X00692474Y0005768*
X00693724*
X00693786Y00057529*
X00693789Y00057524*
X00694444Y00055943*
X00696527Y00053227*
X00699243Y00051144*
X00700824Y00050489*
X00702405Y00049834*
X00705799Y00049387*
X00709193Y00049834*
X00710774Y00050489*
X00712355Y00051144*
X00715071Y00053227*
X00717154Y00055943*
X00717809Y00057524*
X00717812Y00057529*
X00717874Y0005768*
X00719124*
X00719186Y00057529*
X00719189Y00057524*
X00719844Y00055943*
X00721927Y00053227*
X00724643Y00051144*
X00726224Y00050489*
X00727805Y00049834*
X00731199Y00049387*
X00734593Y00049834*
X00736174Y00050489*
X00737755Y00051144*
X00740471Y00053227*
X00742554Y00055943*
X00743209Y00057524*
X00743211Y00057528*
X00743273Y00057679*
X00744523*
X00744586Y00057528*
X00744588Y00057523*
X00745243Y00055942*
X00747326Y00053227*
X00750042Y00051143*
X00753204Y00049833*
X00756598Y00049386*
X00759992Y00049833*
X00763154Y00051143*
X0076587Y00053227*
X00767954Y00055942*
X00768609Y00057523*
X00768611Y00057529*
X00768673Y00057679*
X00769923*
X00769985Y00057529*
X00769988Y00057523*
X00770643Y00055942*
X00772727Y00053227*
X00775442Y00051143*
X00777023Y00050488*
X00778604Y00049833*
X00781998Y00049386*
X00785392Y00049833*
X00786973Y00050488*
X00788554Y00051143*
X0079127Y00053227*
X00793354Y00055942*
X00794009Y00057523*
X00794012Y00057532*
X00794074Y00057682*
X00795324*
X00795387Y00057532*
X00795389Y00057525*
X00796044Y00055944*
X00798128Y00053228*
X00800844Y00051144*
X00804006Y00049834*
X008074Y00049388*
X00810793Y00049834*
X00813956Y00051144*
X00816672Y00053228*
X00818755Y00055944*
X0081941Y00057525*
X00820065Y00059106*
X00820512Y000625*
X00820406Y00063308*
X00821608Y00063901*
X00826255Y00059254*
X00827368Y0005851*
X00828187Y00058171*
X008295Y0005791*
X00840328*
X00841143Y00055942*
X00843226Y00053227*
X00845942Y00051143*
X00847523Y00050488*
X00849105Y00049833*
X00852498Y00049386*
X00855892Y00049833*
X00857473Y00050488*
X00859054Y00051143*
X0086177Y00053227*
X00863854Y00055942*
X00865164Y00059105*
X0086561Y00062498*
X00865164Y00065892*
X00863854Y00069054*
X0086177Y0007177*
X00859054Y00073854*
X00857473Y00074509*
X00857468Y00074511*
X00857317Y00074573*
Y00075823*
X00857468Y00075886*
X00857473Y00075888*
X00859054Y00076543*
X0086177Y00078627*
X00863854Y00081342*
X00865164Y00084505*
X0086561Y00087898*
X00865164Y00091292*
X00863854Y00094454*
X0086177Y0009717*
X00859054Y00099254*
X00857473Y00099909*
X00857469Y0009991*
X00857319Y00099973*
Y00101223*
X00857469Y00101285*
X00857474Y00101287*
X00859055Y00101942*
X00861771Y00104026*
X00863855Y00106741*
X00865164Y00109904*
X00865611Y00113297*
X00865164Y00116691*
X00863855Y00119853*
X00861771Y00122569*
X00859055Y00124653*
X00857474Y00125308*
X00857468Y0012531*
X00857318Y00125372*
Y00126622*
X00857468Y00126685*
X00857474Y00126687*
X00859055Y00127342*
X00861771Y00129426*
X00863855Y00132141*
X00865164Y00135304*
X00865611Y00138697*
X00865164Y00142091*
X00863855Y00145253*
X00861771Y00147969*
X00859055Y00150053*
X00857474Y00150708*
X00857468Y0015071*
X00857318Y00150772*
Y00152022*
X00857468Y00152085*
X00857474Y00152087*
X00859055Y00152742*
X00861771Y00154826*
X00863855Y00157541*
X00865164Y00160704*
X00865611Y00164097*
X00865164Y00167491*
X00863855Y00170653*
X00861771Y00173369*
X00859055Y00175453*
X00857474Y00176108*
X00857468Y0017611*
X00857318Y00176172*
Y00177422*
X00857468Y00177485*
X00857474Y00177487*
X00859055Y00178142*
X00861771Y00180226*
X00863855Y00182941*
X00865164Y00186104*
X00865611Y00189497*
X00865164Y00192891*
X00863855Y00196053*
X00861771Y00198769*
X00859055Y00200853*
X00857474Y00201508*
X0085747Y0020151*
X00857319Y00201572*
Y00202822*
X0085747Y00202884*
X00857475Y00202886*
X00859056Y00203541*
X00861772Y00205625*
X00863855Y00208341*
X00865165Y00211503*
X00865612Y00214897*
X00865165Y0021829*
X00863855Y00221453*
X00861772Y00224168*
X00859056Y00226252*
X00857475Y00226907*
X00857469Y00226909*
X00857319Y00226972*
Y00228222*
X00857469Y00228284*
X00857475Y00228286*
X00859056Y00228941*
X00861772Y00231025*
X00863855Y0023374*
X00865165Y00236903*
X00865612Y00240297*
X00865165Y0024369*
X00863855Y00246853*
X00861772Y00249568*
X00859056Y00251652*
X00857475Y00252307*
X00857468Y0025231*
X00857317Y00252372*
Y00253622*
X00857468Y00253684*
X00857474Y00253687*
X00859055Y00254342*
X00861771Y00256426*
X00863855Y00259141*
X00865164Y00262304*
X00866391Y00262082*
Y00256999*
X0086671Y00255395*
X00867125Y00254394*
X00868034Y00253034*
X0091189Y00209178*
Y00150448*
X00911544Y00150305*
X00910942Y00150055*
X00908226Y00147971*
X00906142Y00145256*
X00905964Y00144825*
X00904714*
X00904704Y0014485*
X00904327Y0014576*
X00902083Y00148685*
X00899158Y00150929*
X00895752Y00152339*
X00894598Y00152492*
Y001387*
X00892098*
Y001362*
X00878306*
X00878459Y00135045*
X00879869Y00131639*
X00882113Y00128715*
X00884671Y00126752*
X00884774Y00126409*
Y00125591*
X00884671Y00125248*
X00882113Y00123285*
X00879869Y0012036*
X00878459Y00116954*
X00878306Y001158*
X00892098*
Y001108*
X00878306*
X00878459Y00109645*
X00879869Y00106239*
X00882113Y00103315*
X0088467Y00101353*
X00884773Y0010101*
Y0010019*
X0088467Y00099848*
X00882112Y00097885*
X00879868Y00094961*
X00879163Y00093258*
X00878457Y00091555*
X00878305Y00090401*
X00892097*
Y00085401*
X00878305*
X00878457Y00084246*
X00879163Y00082543*
X00879868Y0008084*
X00882112Y00077916*
X00884671Y00075952*
X00884774Y00075608*
Y00074793*
X00884672Y00074448*
X00882113Y00072485*
X00879869Y0006956*
X00878459Y00066155*
X00878306Y00065*
X00892098*
Y000625*
X00894598*
Y00048708*
X00895752Y0004886*
X00899158Y00050271*
X00902083Y00052515*
X00904327Y00055439*
X00904704Y0005635*
X00904714Y00056374*
X00905964*
X00906142Y00055944*
X00908226Y00053228*
X00910942Y00051144*
X00912523Y00050489*
X00914104Y00049834*
X00917498Y00049388*
X00920891Y00049834*
X00922473Y00050489*
X00924054Y00051144*
X00926769Y00053228*
X00928853Y00055944*
X00929508Y00057525*
X00930163Y00059106*
X0093061Y000625*
X00930163Y00065893*
X00929508Y00067475*
X00928853Y00069056*
X00926769Y00071771*
X00924054Y00073855*
X00923451Y00074105*
X00923105Y00074248*
Y00076153*
X00923451Y00076296*
X00924053Y00076545*
X00926768Y00078629*
X00928852Y00081345*
X00930162Y00084507*
X00930609Y00087901*
X00930162Y00091294*
X00928852Y00094457*
X00926768Y00097172*
X00924053Y00099256*
X0092345Y00099506*
X00923105Y00099649*
Y00101551*
X0092345Y00101694*
X00924054Y00101944*
X00926769Y00104028*
X00928853Y00106744*
X00929508Y00108325*
X00930163Y00109906*
X0093061Y001133*
X00930163Y00116693*
X00929508Y00118275*
X00928853Y00119856*
X00926769Y00122571*
X00924054Y00124655*
X00923451Y00124905*
X00923105Y00125048*
Y00126951*
X00923451Y00127095*
X00924054Y00127344*
X00926769Y00129428*
X00928853Y00132144*
X00929103Y00132747*
X00929246Y00133092*
X009577*
X00959846Y00133519*
X00961665Y00134734*
X00978964Y00152034*
X0098018Y00153853*
X00980607Y00155999*
Y00165751*
X00981555Y00166144*
X00984271Y00168227*
X00986355Y00170943*
X00987011Y00172528*
X00988386*
X00989043Y00170942*
X00991126Y00168227*
X00993842Y00166143*
X00997004Y00164833*
X01000398Y00164386*
X01003792Y00164833*
X01006954Y00166143*
X0100967Y00168227*
X01011754Y00170942*
X01013064Y00174104*
X0101351Y00177498*
X01013064Y00180892*
X01011754Y00184054*
X0100967Y0018677*
X01006954Y00188854*
X01006006Y00189246*
Y00336657*
X01006351Y0033694*
X01021999*
X01023169Y00337173*
X01024162Y00337836*
X01024825Y00338828*
X01025058Y00339999*
Y00672147*
X01026328Y00672673*
X01028269Y00670732*
Y00079594*
X00956732Y00008058*
X00006058*
Y00743733*
X00955267*
X00974673Y00724328*
G37*
G36*
X01021999Y00672999D02*
Y00339999D01*
X01006351*
Y00342141*
X01009183Y00343315*
X01011952Y00349999*
X00999999*
Y00352499*
X00997499*
Y00364452*
X00991991Y00362171*
X00990952Y00362865*
Y00432061*
X00991295Y00432203*
X00992246Y00434499*
Y004445*
X00991658Y00445918*
X0099206Y00447438*
X00993328Y00450499*
Y00452999*
X00982499*
Y00457999*
X00993328*
Y00458205*
X00994853*
X00997869Y00456956*
X01001456Y00453369*
X01002705Y00450353*
Y00442585*
X01002952Y00441989*
Y00441343*
X01003409Y00440886*
X01003656Y00440289*
X01004253Y00440042*
X01004709Y00439585*
X01005864Y00439107*
X0100651*
X01007107Y0043886*
X01007704Y00439107*
X0100835*
X01008806Y00439564*
X01009403Y00439811*
X01012295Y00442703*
X01013246Y00444999*
Y00475999*
X01012295Y00478295*
X01002295Y00488295*
X00999999Y00489246*
X00978499*
X00977996Y00489999*
Y00535999*
X00977045Y00538295*
X00974749Y00539246*
X00961249*
X00958953Y00538295*
X00958002Y00535999*
Y00489999*
X00957499Y00489246*
X00954182*
X00953679Y00489999*
Y00510499*
X00942599*
Y00512999*
X00940099*
Y00540329*
X00935849*
X00933938Y00539537*
X00933246Y00539999*
X00932295Y00542295*
X00929999Y00543246*
X00927705*
X00927155Y00543018*
X0092656Y00543037*
X00926052Y00542561*
X00925409Y00542295*
X00925181Y00541745*
X00924747Y00541338*
X00924181Y00540088*
X0092416Y00540012*
X00924139Y00539992*
X00923176Y00539246*
X00910449*
X00910258Y00539937*
Y00539992*
X00910238Y00540013*
X00910217Y00540088*
X00909651Y00541338*
X00909217Y00541745*
X00908989Y00542295*
X00908346Y00542561*
X00907838Y00543037*
X00907243Y00543018*
X00906693Y00543246*
X00893999*
X00891703Y00542295*
X00890752Y00539999*
Y00466999*
X00891703Y00464703*
X00924703Y00431703*
X00926999Y00430752*
X00971335*
X00971643Y00430879*
X00971969Y00430814*
X00972756Y0043134*
X00973631Y00431703*
X00973759Y0043201*
X00973915Y00432115*
X00975999Y00431252*
X00979046*
Y00361923*
X00977796Y00361176*
X00969999Y00364405*
X0096158Y00360918*
X00958093Y00352499*
X0096158Y0034408*
X00968415Y00341249*
X00968166Y00339999*
X00886952*
Y00405533*
X00892965Y00411546*
X00905559*
X0090658Y0040908*
X00914999Y00405593*
X00923418Y0040908*
X00926905Y00417499*
X00923418Y00425918*
X00914999Y00429405*
X0090658Y00425918*
X00905559Y00423452*
X00890499*
X0088629Y00421709*
X00876789Y00412209*
X00875046Y00407999*
Y00339999*
X00869999*
Y00719999*
X00899332*
X00899576Y00718773*
X00898449Y00718306*
X00896692Y00716549*
X00890351Y00701242*
Y00699999*
Y00698756*
X00896692Y00683449*
X00898449Y00681692*
X00913756Y00675351*
X00914402*
X00914999Y00675104*
X00915596Y00675351*
X00916242*
X00931549Y00681692*
X00933306Y00683449*
X00939647Y00698756*
Y00699999*
Y00701242*
X00933306Y00716549*
X00931549Y00718306*
X00930422Y00718773*
X00930666Y00719999*
X00974999*
X01021999Y00672999*
G37*
G36*
X00237411Y00623099D02*
Y00620782D01*
X00236572Y00620395*
X00236141Y00620346*
X00206144Y00650342*
X00204656Y00651337*
X002029Y00651686*
X0015967*
X00158855Y00653654*
X00156771Y0065637*
X00154056Y00658454*
X00152469Y00659111*
Y00660486*
X00154056Y00661143*
X00156771Y00663226*
X00158855Y00665942*
X0015967Y0066791*
X00192599*
X00237411Y00623099*
G37*
G36*
X00796443Y00690442D02*
X00798527Y00687727D01*
X00801243Y00685643*
X00803211Y00684828*
Y00673699*
X00741098Y00611587*
X00695735*
X00695249Y0061276*
X006999Y00617411*
X00734999*
X00736755Y0061776*
X00738243Y00618755*
X00785643Y00666155*
X00786638Y00667643*
X00786987Y00669399*
Y00684828*
X00788955Y00685643*
X00791671Y00687727*
X00793754Y00690442*
X00794412Y00692029*
X00795786*
X00796443Y00690442*
G37*
G36*
X00745644Y00690443D02*
X00747728Y00687727D01*
X00750444Y00685644*
X00752412Y00684828*
Y006599*
X00728099Y00635587*
X00720872*
X00720346Y00636857*
X00734844Y00651356*
X00735839Y00652844*
X00736188Y006546*
Y00684828*
X00738156Y00685644*
X00740871Y00687727*
X00742955Y00690443*
X00743612Y00692029*
X00744987*
X00745644Y00690443*
G37*
G36*
X00415446Y00690445D02*
X0041753Y00687729D01*
X00420245Y00685645*
X00422213Y0068483*
Y00640197*
X00422245Y00640038*
X00421074Y00639412*
X00405988Y00654499*
Y00684828*
X00407956Y00685644*
X00410671Y00687727*
X00412755Y00690443*
X00413414Y00692032*
X00414788*
X00415446Y00690445*
G37*
G36*
X00491645Y00690444D02*
X00493729Y00687728D01*
X00496445Y00685644*
X00498413Y00684829*
Y00641901*
X0049576Y00639249*
X00494587Y00639735*
Y00645999*
X00494238Y00647755*
X00493243Y00649243*
X00482189Y00660298*
Y00684829*
X00484157Y00685644*
X00486872Y00687728*
X00488956Y00690444*
X00489613Y0069203*
X00490988*
X00491645Y00690444*
G37*
G36*
X00182773Y00474737D02*
X00182106Y00473607D01*
X00180699Y00473887*
X0015967*
X00158854Y00475855*
X00156771Y00478571*
X00154055Y00480655*
X00152467Y00481312*
Y00482687*
X00154054Y00483344*
X0015677Y00485428*
X00158854Y00488144*
X00159669Y00490112*
X00167398*
X00182773Y00474737*
G37*
G36*
X00193411Y00537098D02*
Y00520735D01*
X00192238Y00520249*
X00189143Y00523344*
X00187654Y00524339*
X00185898Y00524688*
X00159669*
X00158854Y00526656*
X0015677Y00529371*
X00154054Y00531455*
X00152469Y00532112*
Y00533487*
X00154055Y00534144*
X00156771Y00536227*
X00158854Y00538943*
X0015967Y00540911*
X00189598*
X00193411Y00537098*
G37*
G36*
X00186411Y00513099D02*
Y00485999D01*
X00186442Y0048584*
X00185272Y00485215*
X00172543Y00497944*
X00171054Y00498939*
X00169298Y00499288*
X00159669*
X00158854Y00501256*
X0015677Y00503972*
X00154054Y00506055*
X00152468Y00506712*
Y00508087*
X00154054Y00508744*
X0015677Y00510828*
X00158854Y00513544*
X00159669Y00515512*
X00183998*
X00186411Y00513099*
G37*
G36*
X00841144Y00513141D02*
X00843228Y00510425D01*
X00845944Y00508341*
X00847529Y00507685*
Y0050631*
X00845943Y00505653*
X00843227Y00503569*
X00841143Y00500853*
X00840328Y00498885*
X00775297*
X00775139Y00498854*
X00774513Y00500024*
X00789597Y00515108*
X00840329*
X00841144Y00513141*
G37*
G36*
X0092981Y0053981D02*
X00929999Y00539353D01*
Y00492999*
X00932602Y00490396*
Y00489999*
X00933553Y00487703*
X00935849Y00486752*
X00936246*
X00936999Y00485999*
X00962046*
Y00482999*
X0096379Y0047879*
X00970789Y0047179*
X00974999Y00470046*
X00988692*
X00989999Y00469505*
X00994591Y00471407*
X00996493Y00475999*
X00994591Y00480591*
X00989999Y00482493*
X00988692Y00481952*
X00977465*
X00974668Y00484749*
X00975186Y00485999*
X00999353*
X01000456Y00485542*
X01009542Y00476456*
X01009999Y00475353*
Y00445645*
X01009542Y00444542*
X01007107Y00442107*
X01005952Y00442585*
Y00450353*
X01005705Y0045095*
Y00451596*
X01004456Y00454612*
X01003999Y00455069*
X01003752Y00455665*
X01000165Y00459252*
X00999569Y00459499*
X00999112Y00459956*
X00996096Y00461205*
X0099545*
X00994853Y00461452*
X00993328*
X00993091Y00461354*
X0099172Y00461768*
X00991295Y00462795*
X00988999Y00463746*
X00975999*
X00973703Y00462795*
X00972752Y00460499*
Y00450499*
X0097334Y0044908*
X00972938Y0044756*
X00971669Y004445*
Y00441999*
X00982499*
Y00436999*
X00971669*
Y00434499*
X00970524Y00433999*
X00927645*
X00926542Y00434456*
X00918891Y00442107*
X00894456Y00466542*
X00893999Y00467645*
Y00539353*
X00894188Y0053981*
X00894645Y00539999*
X00906638*
X00906682Y00539982*
X00906715Y00539949*
X00907154Y0053898*
X00907234Y0053869*
X00906119Y00535999*
Y00515499*
X00928279*
Y00535999*
X0092714Y00538749*
X00927683Y00539949*
X00927716Y00539982*
X0092776Y00539999*
X00929353*
X0092981Y0053981*
G37*
G36*
X00445411Y00534099D02*
Y00497735D01*
X00444238Y00497249*
X00431243Y00510243*
X00430131Y00510987*
X00429782Y00511131*
X00429736Y00511242*
X00429326Y00511323*
X00429325Y00511325*
X00427841Y00512316*
X00426749Y00512768*
X00424999Y00513116*
X00423249Y00512768*
X00422157Y00512316*
X00420673Y00511325*
X00419682Y00509841*
X0041923Y00508749*
X00418881Y00506999*
X0041923Y00505249*
X00419682Y00504157*
X00420673Y00502673*
X00422157Y00501682*
X00423249Y0050123*
X00424999Y00500881*
X00426749Y0050123*
X00426842Y00501269*
X00426858Y00501251*
X00427192Y00501318*
X00440411Y00488099*
Y00484735*
X00439238Y00484249*
X00426243Y00497243*
X00425131Y00497987*
X00424312Y00498326*
X00422999Y00498587*
X00421302*
X00420992Y00498991*
X00419529Y00500114*
X00418678Y00500466*
X00418499Y0050054*
Y00493999*
Y00487458*
X00421356Y00488641*
X0042145Y0048866*
X00431515Y00478595*
X00430807Y00477535*
X00429999Y0047787*
X00421016*
X00412274Y00486612*
X00412982Y00487672*
X00413499Y00487458*
Y00491499*
X00409458*
X00409532Y0049132*
X00409672Y00490982*
X00409884Y00490469*
X00410117Y00490165*
X00409161Y00489326*
X00403587Y004949*
Y00537098*
X00406899Y00540411*
X0040944*
Y00539999*
X00409614Y00539124*
X0040984Y00538578*
X00410337Y00537836*
X00410446Y00537763*
Y00536235*
X00410337Y00536162*
X0040984Y0053542*
X00409614Y00534874*
X0040944Y00533999*
Y00523999*
X00409614Y00523124*
X0040984Y00522578*
X00410337Y00521836*
X00411078Y00521341*
X00411624Y00521114*
X00412499Y0052094*
X00425499*
X00426374Y00521114*
X0042692Y00521341*
X00427662Y00521836*
X00428157Y00522578*
X00428384Y00523124*
X00428558Y00523999*
Y00524411*
X00432066*
X00433157Y00523682*
X00434249Y0052323*
X00435999Y00522881*
X00437749Y0052323*
X00438841Y00523682*
X00440325Y00524673*
X00441316Y00526157*
X00441768Y00527249*
X00442117Y00528999*
X00441768Y00530749*
X00441316Y00531841*
X00440325Y00533325*
X00438841Y00534316*
X00437749Y00534768*
X00435999Y00535116*
X00434249Y00534768*
X00433157Y00534316*
X00432066Y00533587*
X00428558*
Y00533999*
X00428384Y00534874*
X00428157Y0053542*
X00427662Y00536162*
X00427552Y00536235*
Y00537763*
X00427662Y00537836*
X00428157Y00538578*
X00428384Y00539124*
X00428558Y00539999*
Y00549155*
X00429828Y00549682*
X00445411Y00534099*
G37*
%LNpcbat2560ver1-2*%
%LPC*%
G36*
X00716499Y00365499D02*
X00712458D01*
X00713642Y00362642*
X00716499Y00361458*
Y00365499*
G37*
G36*
X00668499Y00364328D02*
X00664499D01*
Y00357499*
X00672829*
Y00359999*
X0067156Y0036306*
X00668499Y00364328*
G37*
G36*
X00069999Y00174452D02*
X00063315Y00171683D01*
X00060546Y00164999*
X00069999*
Y00174452*
G37*
G36*
X00039999Y00239405D02*
X0003158Y00235918D01*
X00028093Y00227499*
X00030146Y00222542*
X00030128Y00222499*
Y00178746*
X00028499*
X00026203Y00177795*
X00025252Y00175499*
Y00165499*
X0002584Y0016408*
X00025438Y0016256*
X00024169Y00159499*
Y00156999*
X00034999*
X00045829*
Y00159499*
X00044561Y0016256*
X00044158Y0016408*
X00044746Y00165499*
Y00175499*
X00043795Y00177795*
X00041499Y00178746*
X0003987*
Y00215506*
X00039999Y00215593*
X00048418Y0021908*
X00051905Y00227499*
X00048418Y00235918*
X00039999Y00239405*
G37*
G36*
X00069999Y00159999D02*
X00060546D01*
X00063315Y00153315*
X00069999Y00150546*
Y00159999*
G37*
G36*
X00045829Y00151999D02*
X00037499D01*
Y00145169*
X00041499*
X00044561Y00146438*
X00045829Y00149499*
Y00151999*
G37*
G36*
X00032499D02*
X00024169D01*
Y00149499*
X00025438Y00146438*
X00028499Y00145169*
X00032499*
Y00151999*
G37*
G36*
X00064999Y00074894D02*
X00064402Y00074647D01*
X00063756*
X00048449Y00068306*
X00046692Y00066549*
X00040351Y00051242*
Y00049999*
Y00048756*
X00046692Y00033449*
X00048449Y00031692*
X00063756Y00025351*
X00064402*
X00064999Y00025104*
X00065596Y00025351*
X00066242*
X00081549Y00031692*
X00083306Y00033449*
X00089647Y00048756*
Y00049999*
Y00051242*
X00083306Y00066549*
X00081549Y00068306*
X00066242Y00074647*
X00065596*
X00064999Y00074894*
G37*
G36*
X00082499Y00231999D02*
X00074169D01*
Y00229499*
X00075438Y00226438*
X00078499Y00225169*
X00082499*
Y00231999*
G37*
G36*
X00912499Y00321773D02*
X00911866Y00321691D01*
X00908947Y00320481*
X0090644Y00318558*
X00904517Y00316051*
X00903308Y00313132*
X00903225Y00312499*
X00912499*
Y00315499*
Y00321773*
G37*
G36*
X00917499D02*
Y00312499D01*
X00926773*
X0092669Y00313132*
X00925481Y00316051*
X00923558Y00318558*
X00921051Y00320481*
X00918132Y00321691*
X00917499Y00321773*
G37*
G36*
X00926773Y00307499D02*
X00917499D01*
Y00298768*
Y00298225*
X00918132Y00298308*
X00921051Y00299517*
X00923558Y0030144*
X00925481Y00303947*
X0092669Y00306866*
X00926773Y00307499*
G37*
G36*
X00912499D02*
X00903225D01*
X00903308Y00306866*
X00904517Y00303947*
X0090644Y0030144*
X00908947Y00299517*
X00911866Y00298308*
X00912499Y00298225*
Y00298929*
Y00307499*
G37*
G36*
X0068254Y00206499D02*
X00678499D01*
Y00202458*
X00678678Y00202532*
X00679529Y00202884*
X00680991Y00204006*
X00682113Y00205469*
X00682466Y0020632*
X0068254Y00206499*
G37*
G36*
X00712999Y00208117D02*
X00711249Y00207768D01*
X00710157Y00207316*
X00708673Y00206325*
X00707682Y00204841*
X0070723Y00203749*
X00706882Y00201999*
X0070723Y00200249*
X00707682Y00199157*
X00708411Y00198066*
Y00154932*
X00707682Y00153841*
X0070723Y00152749*
X00706882Y00150999*
X0070723Y00149249*
X00707682Y00148157*
X00708673Y00146673*
X00710157Y00145682*
X00711249Y0014523*
X00712999Y00144881*
X00714749Y0014523*
X00715841Y00145682*
X00717325Y00146673*
X00718316Y00148157*
X00718768Y00149249*
X00719117Y00150999*
X00718768Y00152749*
X00718316Y00153841*
X00717587Y00154932*
Y00198066*
X00718316Y00199157*
X00718768Y00200249*
X00719117Y00201999*
X00718768Y00203749*
X00718316Y00204841*
X00717325Y00206325*
X00715841Y00207316*
X00714749Y00207768*
X00712999Y00208117*
G37*
G36*
X00748249Y00326927D02*
X00738249D01*
X0073616Y00326652*
X00735187Y00326249*
X00734214Y00325846*
X00732543Y00324564*
X00731261Y00322893*
X00730858Y0032192*
X00730454Y00320947*
X0073018Y00318858*
Y00308858*
X00730454Y0030677*
X00730858Y00305797*
X00731261Y00304824*
X00732543Y00303152*
X00734214Y0030187*
X00735187Y00301467*
X0073616Y00301064*
X00738249Y00300789*
X00748249*
X00750337Y00301064*
X0075131Y00301467*
X00752283Y0030187*
X00753954Y00303152*
X00755237Y00304824*
X0075564Y00305797*
X00756043Y0030677*
X00756318Y00308858*
Y00318858*
X00756043Y00320947*
X0075564Y0032192*
X00755237Y00322893*
X00753954Y00324564*
X00752283Y00325846*
X0075131Y00326249*
X00750337Y00326652*
X00748249Y00326927*
G37*
G36*
Y00282936D02*
X00745749D01*
Y00271358*
X00757326*
Y00273858*
X00757017Y00276208*
X0075611Y00278397*
X00754668Y00280277*
X00752787Y0028172*
X00750598Y00282627*
X00748249Y00282936*
G37*
G36*
X00740749D02*
X00738249D01*
X00735899Y00282627*
X0073371Y0028172*
X0073183Y00280277*
X00730387Y00278397*
X0072948Y00276208*
X00729171Y00273858*
Y00271358*
X00740749*
Y00282936*
G37*
G36*
X00395499Y0023954D02*
X0039532Y00239466D01*
X00394469Y00239113*
X00393007Y00237991*
X00391884Y00236529*
X00391532Y00235678*
X00391458Y00235499*
X00395499*
Y0023954*
G37*
G36*
X00424077Y00245499D02*
X00415499D01*
Y00238421*
X00419999*
X00421166Y00238653*
X00421894Y00238954*
X00422883Y00239615*
X00423545Y00240604*
X00423845Y00241332*
X00424077Y00242499*
Y00245499*
G37*
G36*
X00410499D02*
X00401921D01*
Y00243409*
X00400499Y00241988*
Y00235499*
X00406988*
X00409909Y00238421*
X00410499*
Y00245499*
G37*
G36*
X00403499Y0018254D02*
Y00178499D01*
X0040754*
X00407466Y00178678*
X00407113Y00179529*
X00405992Y00180991*
X00404529Y00182114*
X00403678Y00182466*
X00403499Y0018254*
G37*
G36*
X00398499D02*
X0039832Y00182466D01*
X00397469Y00182114*
X00396007Y00180991*
X00394884Y00179529*
X00394532Y00178678*
X00394458Y00178499*
X00398499*
Y0018254*
G37*
G36*
Y00173499D02*
X00394458D01*
X00394532Y0017332*
X00394884Y00172469*
X00396007Y00171007*
X00397469Y00169885*
X0039832Y00169532*
X00398499Y00169458*
Y00173499*
G37*
G36*
X0040754D02*
X00403499D01*
Y00169458*
X00403678Y00169532*
X00404529Y00169885*
X00405992Y00171007*
X00407113Y00172469*
X00407466Y0017332*
X0040754Y00173499*
G37*
G36*
X00448577Y00217499D02*
X00439999D01*
Y00210421*
X004445*
X00445666Y00210653*
X00446394Y00210954*
X00447383Y00211615*
X00448044Y00212604*
X00448345Y00213332*
X00448577Y00214499*
Y00217499*
G37*
G36*
X00434999D02*
X00426421D01*
Y00214499*
X00426653Y00213332*
X00426954Y00212604*
X00427615Y00211615*
X00428604Y00210954*
X00429332Y00210653*
X00430499Y00210421*
X00434999*
Y00217499*
G37*
G36*
X00506477D02*
X00497899D01*
Y00210421*
X00502399*
X00503566Y00210653*
X00504294Y00210954*
X00505283Y00211615*
X00505944Y00212604*
X00506245Y00213332*
X00506477Y00214499*
Y00217499*
G37*
G36*
X00492899D02*
X00484321D01*
Y00214499*
X00484553Y00213332*
X00484854Y00212604*
X00485515Y00211615*
X00486504Y00210954*
X00487232Y00210653*
X00488399Y00210421*
X00492899*
Y00217499*
G37*
G36*
X00087499Y0043554D02*
Y00431499D01*
X0009154*
X00091114Y00432529*
X00089992Y00433992*
X00088529Y00435114*
X00087499Y0043554*
G37*
G36*
X00093999Y00327077D02*
X00089999D01*
Y00320499*
X00098077*
Y00322999*
X00097767Y0032456*
X00096883Y00325883*
X0009556Y00326767*
X00093999Y00327077*
G37*
G36*
X00119499Y00394499D02*
X00115458D01*
X00115532Y0039432*
X00115884Y00393469*
X00117007Y00392006*
X00118469Y00390885*
X0011932Y00390532*
X00119499Y00390458*
Y00394499*
G37*
G36*
X00889598Y0006D02*
X00878306D01*
X00878459Y00058845*
X00879869Y00055439*
X00882113Y00052515*
X00885037Y00050271*
X00888443Y0004886*
X00889598Y00048708*
Y00048828*
Y0006*
G37*
G36*
X00037499Y0043354D02*
X00036469Y00433114D01*
X00035007Y00431991*
X00033885Y0043053*
X00033458Y00429499*
X00037499*
Y0043354*
G37*
G36*
X00331577Y00504499D02*
X00309421D01*
Y00501499*
X00309653Y00500332*
X00309954Y00499604*
X00310615Y00498615*
X00311604Y00497954*
X00312332Y00497653*
X00313499Y00497421*
X00315911*
Y00496499*
X00316172Y00495186*
X00316511Y00494367*
X00317255Y00493255*
X00319755Y00490755*
X00320867Y00490011*
X00321686Y00489672*
X00322999Y00489411*
X00338696*
X00339007Y00489007*
X00340469Y00487885*
X0034132Y00487532*
X00341499Y00487458*
Y00493999*
Y0050054*
X0034132Y00500466*
X00340469Y00500114*
X00339007Y00498991*
X00338696Y00498587*
X00331892*
X00331245Y00499797*
X0033117Y00499909*
X00331345Y00500332*
X00331577Y00501499*
Y00504499*
G37*
G36*
X00089999Y00629587D02*
X00049999D01*
X00048243Y00629238*
X00046755Y00628243*
X00041536Y00623024*
X00039658Y00622651*
X00037673Y00621325*
X00036347Y0061934*
X00035881Y00616999*
X00036347Y00614658*
X00037673Y00612673*
X00039658Y00611347*
X00041999Y00610881*
X0004434Y00611347*
X00046325Y00612673*
X00047651Y00614658*
X00048024Y00616536*
X000519Y00620411*
X00067126*
X00067652Y00619141*
X00064755Y00616243*
X0006376Y00614755*
X00063411Y00612999*
Y00603999*
X0006376Y00602243*
X00064755Y00600755*
X00068755Y00596755*
X00070243Y0059576*
X00071999Y00595411*
X00076066*
X00077658Y00594347*
X00079999Y00593881*
X0008234Y00594347*
X00084325Y00595673*
X00085651Y00597658*
X00086117Y00599999*
X0008572Y00601993*
X00086846Y00602663*
X00090255Y00599255*
X00091743Y0059826*
X00093499Y00597911*
X00093942*
X0009469Y00596999*
Y00592121*
X00093981Y0059106*
X00093671Y00589499*
Y00586999*
X00108999*
X00124327*
Y00589499*
X00124095Y00590666*
X00123794Y00591394*
X00123308Y00592121*
Y00596999*
X00123134Y00597874*
X00122907Y0059842*
X00122855Y00598499*
X00122907Y00598578*
X00123134Y00599124*
X00123308Y00599999*
Y00604999*
X00123134Y00605874*
X00122907Y0060642*
X00122855Y00606499*
X00122907Y00606578*
X00123134Y00607124*
X00123308Y00607999*
Y00612999*
X00123134Y00613874*
X00122978Y00614249*
X00123134Y00614624*
X00123308Y00615499*
Y00625499*
X00123134Y00626374*
X00122907Y0062692*
X00122412Y00627662*
X0012167Y00628157*
X00121124Y00628384*
X00120249Y00628558*
X00097749*
X00096579Y00628325*
X00095586Y00627662*
X00093965Y00627522*
X00093243Y00628243*
X00091755Y00629238*
X00089999Y00629587*
G37*
G36*
X00346499Y0050054D02*
Y00496499D01*
X0035054*
X00350466Y00496678*
X00350114Y00497529*
X00348991Y00498991*
X00347529Y00500114*
X00346678Y00500466*
X00346499Y0050054*
G37*
G36*
X0035054Y00491499D02*
X00346499D01*
Y00487458*
X00346678Y00487532*
X00347529Y00487885*
X00348991Y00489007*
X00350114Y00490469*
X00350466Y0049132*
X0035054Y00491499*
G37*
G36*
X00368499Y00174499D02*
X00364458D01*
X00364532Y0017432*
X00364884Y00173469*
X00366006Y00172007*
X00367469Y00170885*
X0036832Y00170532*
X00368499Y00170458*
Y00174499*
G37*
G36*
X0057354Y00449499D02*
X00569499D01*
Y00445458*
X00569678Y00445532*
X00570529Y00445885*
X00571991Y00447007*
X00573114Y00448469*
X00573466Y0044932*
X0057354Y00449499*
G37*
G36*
X00054499Y00665558D02*
X00025499D01*
X00024329Y00665325*
X00023336Y00664662*
X00022673Y0066367*
X0002244Y00662499*
Y00642499*
X00022673Y00641328*
X00023336Y00640336*
X00024329Y00639673*
X00025499Y0063944*
X00054499*
X00055669Y00639673*
X00056662Y00640336*
X00057325Y00641328*
X00057558Y00642499*
Y00662499*
X00057325Y0066367*
X00056662Y00664662*
X00055669Y00665325*
X00054499Y00665558*
G37*
G36*
X00094499D02*
X00065499D01*
X00064329Y00665325*
X00063336Y00664662*
X00062673Y0066367*
X0006244Y00662499*
Y00642499*
X00062673Y00641328*
X00063336Y00640336*
X00064329Y00639673*
X00065499Y0063944*
X00094499*
X00095669Y00639673*
X00096662Y00640336*
X00097325Y00641328*
X00097558Y00642499*
Y00662499*
X00097325Y0066367*
X00096662Y00664662*
X00095669Y00665325*
X00094499Y00665558*
G37*
G36*
X00569499Y0045854D02*
Y00454499D01*
X0057354*
X00573466Y00454678*
X00573114Y00455529*
X00571991Y00456991*
X00570529Y00458114*
X00569678Y00458466*
X00569499Y0045854*
G37*
G36*
X00221101Y00710792D02*
X00219947Y0071064D01*
X00216541Y0070923*
X00213616Y00706985*
X00211372Y00704061*
X00210984Y00703123*
X00209734*
X00209724Y00703148*
X00209555Y00703555*
X00207471Y00706271*
X00204756Y00708354*
X00203175Y00709009*
X00201594Y00709664*
X001982Y00710111*
X00194806Y00709664*
X00193225Y00709009*
X00191644Y00708354*
X00188928Y00706271*
X00186844Y00703555*
X00185534Y00700393*
X00185088Y00696999*
X00185534Y00693605*
X00186844Y00690443*
X00188928Y00687727*
X00191644Y00685644*
X00193225Y00684989*
X00194806Y00684334*
X001982Y00683887*
X00201594Y00684334*
X00203175Y00684989*
X00204756Y00685644*
X00207471Y00687727*
X00209555Y00690443*
X00209725Y00690852*
X00209735Y00690876*
X00210985*
X00211372Y0068994*
X00213616Y00687016*
X00216541Y00684772*
X00219947Y00683361*
X00221101Y00683209*
Y00697001*
Y00698756*
Y00710792*
G37*
G36*
X000635Y00455499D02*
X00059458D01*
X00059885Y00454469*
X00061006Y00453007*
X00062469Y00451884*
X000635Y00451458*
Y00455499*
G37*
G36*
X00064999Y00723155D02*
X0006485Y00723125D01*
X00064699Y0072314*
X00060779Y00722754*
X0006049Y00722666*
X0006019Y00722637*
X0005642Y00721493*
X00056155Y00721351*
X00055866Y00721264*
X00052392Y00719406*
X00052159Y00719215*
X00051893Y00719074*
X00048848Y00716574*
X00048657Y00716341*
X00048424Y0071615*
X00045925Y00713105*
X00045783Y00712839*
X00045593Y00712606*
X00043734Y00709132*
X00043647Y00708843*
X00043505Y00708578*
X00042361Y00704808*
X00042332Y00704508*
X00042244Y0070422*
X00041858Y00700299*
X00041888Y00699999*
X00041858Y00699699*
X00042244Y00695778*
X00042332Y0069549*
X00042361Y0069519*
X00043505Y0069142*
X00043647Y00691155*
X00043734Y00690866*
X00045593Y00687392*
X00045783Y00687159*
X00045925Y00686893*
X00048424Y00683848*
X00048657Y00683657*
X00048848Y00683424*
X00051893Y00680925*
X00052159Y00680783*
X00052392Y00680593*
X00055866Y00678734*
X00056155Y00678647*
X0005642Y00678505*
X0006019Y00677361*
X0006049Y00677332*
X00060779Y00677244*
X00064699Y00676858*
X0006485Y00676873*
X00064999Y00676843*
X00065148Y00676873*
X00065299Y00676858*
X00069219Y00677244*
X00069508Y00677332*
X00069808Y00677361*
X00073578Y00678505*
X00073843Y00678647*
X00074132Y00678734*
X00077606Y00680593*
X00077839Y00680783*
X00078105Y00680925*
X0008115Y00683424*
X00081341Y00683657*
X00081574Y00683848*
X00084074Y00686893*
X00084215Y00687159*
X00084406Y00687392*
X00086264Y00690866*
X00086351Y00691155*
X00086493Y0069142*
X00087637Y0069519*
X00087666Y0069549*
X00087754Y00695778*
X0008814Y00699699*
X0008811Y00699999*
X0008814Y00700299*
X00087754Y0070422*
X00087666Y00704508*
X00087637Y00704808*
X00086493Y00708578*
X00086351Y00708843*
X00086264Y00709132*
X00084406Y00712606*
X00084215Y00712839*
X00084074Y00713105*
X00081574Y0071615*
X00081341Y00716341*
X0008115Y00716574*
X00078105Y00719074*
X00077839Y00719215*
X00077606Y00719406*
X00074132Y00721264*
X00073843Y00721351*
X00073578Y00721493*
X00069808Y00722637*
X00069508Y00722666*
X00069219Y00722754*
X00065299Y0072314*
X00065148Y00723125*
X00064999Y00723155*
G37*
G36*
X00889598Y00152492D02*
X00888443Y00152339D01*
X00885037Y00150929*
X00882113Y00148685*
X00879869Y0014576*
X00878459Y00142354*
X00878306Y001412*
X00889598*
Y00152492*
G37*
G36*
X00989999Y00123154D02*
X0098985Y00123125D01*
X00989699Y0012314*
X00985778Y00122754*
X0098549Y00122666*
X0098519Y00122637*
X0098142Y00121493*
X00981155Y00121351*
X00980866Y00121264*
X00977392Y00119406*
X00977159Y00119215*
X00976893Y00119073*
X00973848Y00116574*
X00973657Y00116341*
X00973424Y0011615*
X00970925Y00113105*
X00970783Y00112839*
X00970592Y00112606*
X00968734Y00109132*
X00968647Y00108843*
X00968505Y00108578*
X00967361Y00104808*
X00967332Y00104508*
X00967244Y0010422*
X00966858Y00100299*
X00966888Y00099999*
X00966858Y00099699*
X00967244Y00095778*
X00967332Y0009549*
X00967361Y0009519*
X00968505Y0009142*
X00968647Y00091155*
X00968734Y00090866*
X00970592Y00087392*
X00970783Y00087159*
X00970925Y00086893*
X00973424Y00083848*
X00973657Y00083657*
X00973848Y00083424*
X00976893Y00080925*
X00977159Y00080783*
X00977392Y00080592*
X00980866Y00078734*
X00981155Y00078647*
X0098142Y00078505*
X0098519Y00077361*
X0098549Y00077332*
X00985778Y00077244*
X00989699Y00076858*
X0098985Y00076873*
X00989999Y00076844*
X00990148Y00076873*
X00990299Y00076858*
X0099422Y00077244*
X00994508Y00077332*
X00994808Y00077361*
X00998578Y00078505*
X00998843Y00078647*
X00999132Y00078734*
X01002606Y00080592*
X01002839Y00080783*
X01003105Y00080925*
X0100615Y00083424*
X01006341Y00083657*
X01006574Y00083848*
X01009073Y00086893*
X01009215Y00087159*
X01009406Y00087392*
X01011264Y00090866*
X01011351Y00091155*
X01011493Y0009142*
X01012637Y0009519*
X01012666Y0009549*
X01012754Y00095778*
X0101314Y00099699*
X0101311Y00099999*
X0101314Y00100299*
X01012754Y0010422*
X01012666Y00104508*
X01012637Y00104808*
X01011493Y00108578*
X01011351Y00108843*
X01011264Y00109132*
X01009406Y00112606*
X01009215Y00112839*
X01009073Y00113105*
X01006574Y0011615*
X01006341Y00116341*
X0100615Y00116574*
X01003105Y00119073*
X01002839Y00119215*
X01002606Y00119406*
X00999132Y00121264*
X00998843Y00121351*
X00998578Y00121493*
X00994808Y00122637*
X00994508Y00122666*
X0099422Y00122754*
X00990299Y0012314*
X00990148Y00123125*
X00989999Y00123154*
G37*
G36*
X00360499Y00581273D02*
Y00571999D01*
X00369773*
X0036969Y00572632*
X00368481Y00575551*
X00366557Y00578058*
X00364051Y00579981*
X00361132Y0058119*
X00360499Y00581273*
G37*
G36*
X00039999Y00331094D02*
X00037127Y00330716D01*
X00034452Y00329607*
X00032154Y00327844*
X0003039Y00325546*
X00029282Y00322871*
X00028904Y00319999*
X00029282Y00317127*
X0003039Y00314452*
X00032154Y00312154*
X00034452Y00310391*
X00037127Y00309282*
X00039999Y00308904*
X00042871Y00309282*
X00045546Y00310391*
X00047844Y00312154*
X00049607Y00314452*
X00050716Y00317127*
X00051094Y00319999*
X00050716Y00322871*
X00049607Y00325546*
X00047844Y00327844*
X00045546Y00329607*
X00042871Y00330716*
X00039999Y00331094*
G37*
G36*
X00106499Y00556499D02*
X00102458D01*
X00102532Y0055632*
X00102885Y00555469*
X00104007Y00554007*
X00105469Y00552885*
X0010632Y00552532*
X00106499Y00552458*
Y00556499*
G37*
G36*
X0011554D02*
X00111499D01*
Y00552458*
X00111678Y00552532*
X00112529Y00552885*
X00113992Y00554007*
X00115113Y00555469*
X00115466Y0055632*
X0011554Y00556499*
G37*
G36*
X00307999Y00578094D02*
X00305127Y00577716D01*
X00302452Y00576608*
X00300154Y00574844*
X0029839Y00572546*
X00297282Y00569871*
X00296904Y00566999*
X00297282Y00564127*
X0029839Y00561452*
X00300154Y00559154*
X00302452Y00557391*
X00305127Y00556282*
X00307999Y00555904*
X00310871Y00556282*
X00313546Y00557391*
X00315844Y00559154*
X00317608Y00561452*
X00318716Y00564127*
X00319094Y00566999*
X00318716Y00569871*
X00317608Y00572546*
X00315844Y00574844*
X00313546Y00576608*
X00310871Y00577716*
X00307999Y00578094*
G37*
G36*
X00094499Y00565558D02*
X00065499D01*
X00064329Y00565325*
X00063336Y00564662*
X00062673Y0056367*
X0006244Y00562499*
Y00542499*
X00062673Y00541328*
X00063336Y00540336*
X00064329Y00539673*
X00065499Y0053944*
X00094499*
X00095669Y00539673*
X00096662Y00540336*
X00097325Y00541328*
X00097558Y00542499*
Y00562499*
X00097325Y0056367*
X00096662Y00564662*
X00095669Y00565325*
X00094499Y00565558*
G37*
G36*
X00054499D02*
X00025499D01*
X00024329Y00565325*
X00023336Y00564662*
X00022673Y0056367*
X0002244Y00562499*
Y00542499*
X00022673Y00541328*
X00023336Y00540336*
X00024329Y00539673*
X00025499Y0053944*
X00054499*
X00055669Y00539673*
X00056662Y00540336*
X00057325Y00541328*
X00057558Y00542499*
Y00562499*
X00057325Y0056367*
X00056662Y00564662*
X00055669Y00565325*
X00054499Y00565558*
G37*
G36*
X00039999Y00356494D02*
X00037127Y00356116D01*
X00034452Y00355008*
X00032154Y00353244*
X0003039Y00350946*
X00029282Y00348271*
X00028904Y00345399*
X00029282Y00342527*
X0003039Y00339852*
X00032154Y00337554*
X00034452Y00335791*
X00037127Y00334682*
X00039999Y00334304*
X00042871Y00334682*
X00045546Y00335791*
X00047844Y00337554*
X00049607Y00339852*
X00050716Y00342527*
X00051094Y00345399*
X00050716Y00348271*
X00049607Y00350946*
X00047844Y00353244*
X00045546Y00355008*
X00042871Y00356116*
X00039999Y00356494*
G37*
G36*
X00355499Y00581273D02*
X00354866Y0058119D01*
X00351947Y00579981*
X0034944Y00578058*
X00347517Y00575551*
X00346308Y00572632*
X00346225Y00571999*
X00355499*
Y00581273*
G37*
G36*
X0059654Y00278499D02*
X00592499D01*
Y00274458*
X00592678Y00274532*
X00593529Y00274885*
X00594991Y00276007*
X00596114Y00277469*
X00596466Y0027832*
X0059654Y00278499*
G37*
G36*
X00587499D02*
X00583458D01*
X00583532Y0027832*
X00583884Y00277469*
X00585007Y00276007*
X00586469Y00274885*
X0058732Y00274532*
X00587499Y00274458*
Y00278499*
G37*
G36*
X00369773Y00566999D02*
X00360499D01*
Y00558404*
Y00557725*
X00361132Y00557808*
X00364051Y00559017*
X00366557Y00560941*
X00368481Y00563447*
X0036969Y00566366*
X00369773Y00566999*
G37*
G36*
X00355499D02*
X00346225D01*
X00346308Y00566366*
X00347517Y00563447*
X0034944Y00560941*
X00351947Y00559017*
X00354866Y00557808*
X00355499Y00557725*
Y00558404*
Y00566999*
G37*
G36*
X00124327Y00581999D02*
X00108999D01*
X00093671*
Y00579499*
X00093981Y00577938*
X00094865Y00576615*
X00096188Y00575731*
X00097749Y00575421*
X00104411*
Y00564302*
X00104007Y00563991*
X00102885Y00562529*
X00102532Y00561678*
X00102458Y00561499*
X0011554*
X00115466Y00561678*
X00115113Y00562529*
X00113992Y00563991*
X00113587Y00564302*
Y00575421*
X00120249*
X00121416Y00575653*
X00122144Y00575954*
X00123133Y00576615*
X00123794Y00577604*
X00124095Y00578332*
X00124327Y00579499*
Y00581999*
G37*
G36*
X00996599Y00670329D02*
X00945099D01*
Y00621499*
X01000928*
Y00665999*
X0099966Y0066906*
X00996599Y00670329*
G37*
G36*
X00940099D02*
X00888599D01*
X00885537Y0066906*
X00884269Y00665999*
Y00621499*
X00940099*
Y00670329*
G37*
G36*
X00914999Y00399405D02*
X0090658Y00395918D01*
X00903093Y00387499*
X0090658Y0037908*
X00914999Y00375593*
X00923418Y0037908*
X00926905Y00387499*
X00923418Y00395918*
X00914999Y00399405*
G37*
G36*
X00949349Y00540329D02*
X00945099D01*
Y00515499*
X00953679*
Y00535999*
X0095241Y00539061*
X00949349Y00540329*
G37*
G36*
X01002499Y00364452D02*
Y00354999D01*
X01011952*
X01009183Y00361683*
X01002499Y00364452*
G37*
G36*
X01000928Y00616499D02*
X00945099D01*
Y00567669*
X00996599*
X0099966Y00568937*
X01000928Y00571999*
Y00616499*
G37*
G36*
X00940099D02*
X00884269D01*
Y00571999*
X00885537Y00568937*
X00888599Y00567669*
X00940099*
Y00616499*
G37*
G36*
X00928279Y00510499D02*
X00919699D01*
Y00485669*
X00923949*
X0092701Y00486938*
X00928279Y00489999*
Y00510499*
G37*
G36*
X00955499Y00460829D02*
X00952999D01*
X00949938Y00459561*
X00948418Y00459158*
X00946999Y00459746*
X00936999*
X00934703Y00458795*
X00933752Y00456499*
Y00455952*
X00930305*
X00928999Y00456493*
X00924407Y00454591*
X00922505Y00449999*
X00924407Y00445407*
X00928999Y00443505*
X00930305Y00444046*
X00933752*
Y00443499*
X00934703Y00441203*
X00936999Y00440252*
X00946999*
X00948418Y0044084*
X00949938Y00440437*
X00952999Y00439169*
X00955499*
Y00449999*
Y00460829*
G37*
G36*
X00967329Y00447499D02*
X00960499D01*
Y00439169*
X00962999*
X0096606Y00440437*
X00967329Y00443499*
Y00447499*
G37*
G36*
X00962999Y00460829D02*
X00960499D01*
Y00452499*
X00967329*
Y00456499*
X0096606Y0045956*
X00962999Y00460829*
G37*
G36*
X00914699Y00510499D02*
X00906119D01*
Y00489999*
X00907388Y00486938*
X00910449Y00485669*
X00914699*
Y00510499*
G37*
G36*
X00413499Y0050054D02*
X0041332Y00500466D01*
X00412469Y00500114*
X00411007Y00498991*
X00409884Y00497529*
X00409532Y00496678*
X00409458Y00496499*
X00413499*
Y0050054*
G37*
%LNpcbat2560ver1-3*%
%LPD*%
G54D10*
X00418999Y00528999D03*
Y00544999D03*
X00661999Y00354999D03*
Y00338999D03*
X00982499Y00439499D03*
Y00455499D03*
X00084999Y00250499D03*
Y00234499D03*
X00034999Y00170499D03*
Y00154499D03*
X00087499Y00301999D03*
Y00317999D03*
G54D11*
X00434999Y00454999D03*
X00439999D03*
X00444999D03*
X00449999D03*
X00454999D03*
X00459999D03*
X00464999D03*
X00469999D03*
X00474999D03*
X00479999D03*
X00484999D03*
X00489999D03*
X00494999D03*
X00499999D03*
X00504999D03*
X00509999D03*
X00514999D03*
X00519999D03*
X00524999D03*
X00529999D03*
X00534999D03*
X00539999D03*
X00544999D03*
X00549999D03*
X00554999D03*
Y00299999D03*
X00549999D03*
X00544999D03*
X00539999D03*
X00534999D03*
X00529999D03*
X00524999D03*
X00519999D03*
X00514999D03*
X00509999D03*
X00504999D03*
X00499999D03*
X00494999D03*
X00489999D03*
X00484999D03*
X00479999D03*
X00474999D03*
X00469999D03*
X00464999D03*
X00459999D03*
X00454999D03*
X00449999D03*
X00444999D03*
X00439999D03*
X00434999D03*
G54D12*
X00572499Y00437499D03*
Y00432499D03*
Y00427499D03*
Y00422499D03*
Y00417499D03*
Y00412499D03*
Y00407499D03*
Y00402499D03*
Y00397499D03*
Y00392499D03*
Y00387499D03*
Y00382499D03*
Y00377499D03*
Y00372499D03*
Y00367499D03*
Y00362499D03*
Y00357499D03*
Y00352499D03*
Y00347499D03*
Y00342499D03*
Y00337499D03*
Y00332499D03*
Y00327499D03*
Y00322499D03*
Y003175D03*
X00417499D03*
Y00322499D03*
Y00327499D03*
Y00332499D03*
Y00337499D03*
Y00342499D03*
Y00347499D03*
Y00352499D03*
Y00357499D03*
Y00362499D03*
Y00367499D03*
Y00372499D03*
Y00377499D03*
Y00382499D03*
Y00387499D03*
Y00392499D03*
Y00397499D03*
Y00402499D03*
Y00407499D03*
Y00412499D03*
Y00417499D03*
Y00422499D03*
Y00427499D03*
Y00432499D03*
Y00437499D03*
G54D13*
X00967999Y00512999D03*
X00942599D03*
X00917199D03*
G54D14*
X00942599Y00618999D03*
G54D15*
X00320499Y00506999D03*
Y00521999D03*
X00412999Y00247999D03*
Y00262999D03*
X00351999Y00369499D03*
Y00384499D03*
X00523999Y00495499D03*
Y00510499D03*
X00495399Y00234999D03*
Y00219999D03*
X00437499Y00234999D03*
Y00219999D03*
X00631999Y00262499D03*
Y00277499D03*
G54D16*
X00629499Y00359499D03*
X00644499D03*
G54D17*
X00957999Y00449999D03*
X00941999D03*
G54D18*
X00104749Y00477749D03*
X00098249D03*
X00091749D03*
X00085249D03*
X00078749D03*
X00072249D03*
X00065749D03*
X00059249D03*
X00052749D03*
X00046249D03*
X00039749D03*
X00033249D03*
X00026749D03*
X00020249D03*
X00104749Y00407249D03*
X00098249D03*
X00091749D03*
X00085249D03*
X00078749D03*
X00072249D03*
X00065749D03*
X00059249D03*
X00052749D03*
X00046249D03*
X00039749D03*
X00033249D03*
X00026749D03*
X00020249D03*
G54D19*
X00108999Y00620499D03*
Y00584499D03*
G54D20*
X00108999Y00610499D03*
Y00602499D03*
Y00594499D03*
G54D21*
X00079999Y00652499D03*
X00039999D03*
Y00552499D03*
X00079999D03*
G54D22*
X00514999Y00472999D02*
X00518999Y00476999D01*
X00691999Y00260999D02*
Y00300108D01*
X00628999Y00217999D02*
X00630249Y00216749D01*
X00687249*
X00690999Y00212999*
X00691999Y00260999D02*
X00693999D01*
X00678249Y00313858D02*
X00691999Y00300108D01*
X00644499Y00327499D02*
X00649249Y00322749D01*
Y00256749D02*
Y00322749D01*
Y00256749D02*
X00658999Y00246999D01*
X00649499Y00332499D02*
X00663999Y00317999D01*
Y00255999D02*
Y00317999D01*
Y00255999D02*
X00666999Y00252999D01*
X00747999Y00432999D02*
Y00433999D01*
X00727999Y00412999D02*
X00747999Y00432999D01*
X00134099Y00443899D02*
X00147499D01*
X00124999Y00452999D02*
X00134099Y00443899D01*
X00124999Y00452999D02*
Y00478999D01*
X00110999Y00492999D02*
X00124999Y00478999D01*
X00089999Y00492999D02*
X00110999D01*
X00085249Y00488249D02*
X00089999Y00492999D01*
X00085249Y00477749D02*
Y00488249D01*
X00078749Y00493749D02*
X00084999Y00499999D01*
X00078749Y00477749D02*
Y00493749D01*
X00387999Y00569499D02*
X00401499D01*
X00418999Y00551999*
Y00544999D02*
Y00551999D01*
X00523999Y00510499D02*
X00524999Y00511499D01*
Y00549999*
X00523999Y00590999D02*
Y00591999D01*
X00505999Y00572999D02*
X00523999Y00590999D01*
X00435999Y00528999D02*
D01*
X00418999D02*
X00435999D01*
X00553801Y00601801D02*
Y00697D01*
X00504999Y00552999D02*
X00553801Y00601801D01*
X00504999Y00454999D02*
Y00552999D01*
X00108999Y00558999D02*
Y00584499D01*
X00094499Y00620499D02*
X00108999D01*
X00089999Y00624999D02*
X00094499Y00620499D01*
X00049999Y00624999D02*
X00089999D01*
X00041999Y00616999D02*
X00049999Y00624999D01*
X00075999Y00317999D02*
D01*
X00087499*
X00194099Y00443899D02*
X00244749Y00393249D01*
X00299768Y00388999D02*
X00300118Y00389349D01*
X00292399Y00388999D02*
X00299768D01*
X00279999Y00376599D02*
X00292399Y00388999D01*
X00298007Y00393249D02*
X00298357Y00393599D01*
X00244749Y00393249D02*
X00298007D01*
X00300118Y00389349D02*
X00317659D01*
X00337509Y00369499*
X00351999*
X003429Y00393599D02*
X00351999Y00384499D01*
X00298357Y00393599D02*
X003429D01*
X00296597Y00397849D02*
X00417149D01*
X00417499Y00397499*
X00296247D02*
X00296597Y00397849D01*
X00252499Y00397499D02*
X00296247D01*
X00065749Y00458249D02*
X00065999Y00457999D01*
X00065749Y00458249D02*
Y00477749D01*
X00039749Y00426749D02*
X00039999Y00426999D01*
X00039749Y00407249D02*
Y00426749D01*
X00068999Y00428999D02*
X00084999D01*
X00059249Y00419249D02*
X00068999Y00428999D01*
X00059249Y00407249D02*
Y00419249D01*
X00085249Y00428749D02*
X00091749Y00422249D01*
X00084999Y00428999D02*
X00085249Y00428749D01*
X00091749Y00407249D02*
Y00422249D01*
X00085249Y00407249D02*
Y00428749D01*
X00071999Y00261999D02*
X00083499Y00250499D01*
X00084999*
X00529999Y00423999D02*
Y00454999D01*
X00329999Y00190999D02*
X00330999Y00189999D01*
X00337989*
X00353239Y00205249*
X00371249*
X00373999Y00207999*
Y00230999*
X00405999Y00262999*
X00412999*
X00348999Y00233999D02*
Y00249999D01*
X00373749Y00274749*
X00389249*
X00344999Y00157999D02*
Y00166999D01*
X003248Y001378D02*
X00344999Y00157999D01*
X003248Y000625D02*
Y001378D01*
X00370999Y00176999D02*
Y00185999D01*
X00397999Y00212999*
Y00232999*
X00429999Y00234999D02*
X00437499D01*
X00382999Y00187999D02*
X00429999Y00234999D01*
X00382999Y00069899D02*
Y00187999D01*
X00375599Y00062499D02*
X00382999Y00069899D01*
X00452999Y00383999D02*
X00465816D01*
X00563499Y00372499D02*
X00572499D01*
X00560999Y00374999D02*
Y0038387D01*
Y00374999D02*
X00563499Y00372499D01*
X00433999Y00332999D02*
X00458999D01*
X00466999Y00324999*
Y00313999D02*
Y00324999D01*
X00464999Y00311999D02*
X00466999Y00313999D01*
X00464999Y00299999D02*
Y00311999D01*
X00449749Y00387249D02*
X00452999Y00383999D01*
X00417749Y00387249D02*
X00449749D01*
X00417499Y00387499D02*
X00417749Y00387249D01*
X00361499Y00392499D02*
X00417499D01*
X00459999Y00289999D02*
Y00299999D01*
X00534999Y00439999D02*
Y00454999D01*
X00439999D02*
Y00476999D01*
X00147499Y00443899D02*
X00194099D01*
X00443999Y00379999D02*
X00444999D01*
X00441499Y00382499D02*
X00443999Y00379999D01*
X00417499Y00382499D02*
X00441499D01*
X00437499Y00377499D02*
X00444999Y00369999D01*
X00417499Y00377499D02*
X00437499D01*
X00428499Y00372499D02*
X00438999Y00361999D01*
X00417499Y00372499D02*
X00428499D01*
X00417499Y00392499D02*
X00450499D01*
X00450999Y00392999*
X00398998Y00378D02*
Y00379998D01*
Y00378D02*
X00409499Y00367499D01*
X00417499*
X00403367Y00357499D02*
X00417499D01*
X00385867Y00374999D02*
X00403367Y00357499D01*
X00378999Y00374999D02*
X00385867D01*
X00390999Y00377999D02*
X00406499Y00362499D01*
X00417499*
X00376999Y00364999D02*
X00386999D01*
X00399499Y00352499*
X00417499*
X00376999Y00353999D02*
X00384999D01*
X00391499Y00347499*
X00417499*
X00397999Y00326999D02*
X00416999D01*
X00309499Y00238499D02*
X00397999Y00326999D01*
X00402489Y00322499D02*
X00417499D01*
X00314239Y00234249D02*
X00402489Y00322499D01*
X00403499Y003175D02*
X00417499D01*
X00315999Y00229999D02*
X00403499Y003175D01*
X00290478Y00238499D02*
X00309499D01*
X00292239Y00234249D02*
X00314239D01*
X00293999Y00229999D02*
X00315999D01*
X00369749Y00331249D02*
X00399381D01*
X00147498Y001645D02*
X001949D01*
X00305399Y00274999*
X00319999D02*
X00350999Y00305999D01*
X00305399Y00274999D02*
X00319999D01*
X00416999Y00336999D02*
X00417499Y00337499D01*
X00396999Y00336999D02*
X00416999D01*
X00324399Y00376599D02*
X00369749Y00331249D01*
X00416999Y00326999D02*
X00417499Y00327499D01*
X00400631Y00332499D02*
X00417499D01*
X00399381Y00331249D02*
X00400631Y00332499D01*
X00416999Y00342999D02*
X00417499Y00342499D01*
X00379999Y00342999D02*
X00416999D01*
X00318799Y00351199D02*
X00326999Y00342999D01*
X00305399Y00351199D02*
X00318799D01*
X00305399Y00376599D02*
X00324399D01*
X00365999Y00374999D02*
Y00381999D01*
X00360499Y00369499D02*
X00365999Y00374999D01*
X00147497Y00113701D02*
X0016568D01*
X00290478Y00238499*
X00147497Y00088301D02*
X00158301D01*
X00180749Y00110749*
Y00122759*
X00292239Y00234249*
X00147499Y00062899D02*
X00168899D01*
X00184999Y00078999*
Y00120999*
X00293999Y00229999*
X00454999Y00299999D02*
Y00315009D01*
X00444009Y00325999D02*
X00454999Y00315009D01*
X00442999Y00325999D02*
X00444009D01*
X00442999Y00340999D02*
X00443999Y00341999D01*
X00463999*
X00433867Y00299999D02*
X00434999D01*
X00405117Y00271249D02*
X00433867Y00299999D01*
X00309999Y00219999D02*
X0035361D01*
X0040486Y00271249D02*
X00405117D01*
X00381Y00264999D02*
X00382499Y00266499D01*
X00388499*
X00432999Y00310999*
X0035361Y00219999D02*
X0040486Y00271249D01*
X00381Y00205999D02*
Y00218999D01*
X00375999Y00200999D02*
X00381Y00205999D01*
X00354999Y00200999D02*
X00375999D01*
X002486Y000946D02*
X00354999Y00200999D01*
X002486Y000625D02*
Y000946D01*
X00427999Y00285999D02*
X00435999D01*
X00439999Y00289999*
Y00299999*
X00389249Y00274749D02*
X00427749Y00313249D01*
X00432499Y00317999*
X00445999*
X00449999Y00313999*
Y00299999D02*
Y00313999D01*
X00432999Y00310999D02*
X00442999D01*
X00444999Y00308999*
Y00299999D02*
Y00308999D01*
X00359198Y003258D02*
X00372999Y00311999D01*
X00332999Y00211999D02*
X00366999D01*
X00223201Y00102201D02*
X00332999Y00211999D01*
X00223201Y00062501D02*
Y00102201D01*
X00390999Y00150999D02*
X00438999D01*
X00486999Y00149999D02*
X00487999Y00150999D01*
X00567999*
X00712999D02*
Y00201999D01*
X00823999D02*
Y00273999D01*
X00758999Y00338999D02*
X00823999Y00273999D01*
X00677999Y00338999D02*
X00758999D01*
X00677999D02*
X00678249Y00338749D01*
Y00313858D02*
Y00338749D01*
X00495399Y00234999D02*
X00502999D01*
X00513999Y00223999*
Y00203999D02*
Y00223999D01*
X00401Y00091D02*
X00513999Y00203999D01*
X00401Y000625D02*
Y00091D01*
X00147498Y004185D02*
X00208498D01*
X00250399Y00376599*
X00279999*
X00034999Y00222499D02*
X00039999Y00227499D01*
X00034999Y00170499D02*
Y00222499D01*
X00097899Y00162499D02*
Y00291599D01*
X00087499Y00301999D02*
X00097899Y00291599D01*
X00072249Y00372749D02*
X00079999Y00364999D01*
X00072249Y00372749D02*
Y00407249D01*
X00039999Y00252899D02*
Y00275999D01*
X00065749Y00301749*
Y00407249*
X00136898Y003931D02*
X00147498D01*
X00120999Y00408999D02*
X00136898Y003931D01*
X00120999Y00408999D02*
Y00424999D01*
X00104749Y00441249D02*
X00120999Y00424999D01*
X00104749Y00441249D02*
Y00477749D01*
X00085249Y00459249D02*
Y00477749D01*
X00052749Y00426749D02*
X00085249Y00459249D01*
X00052749Y00407249D02*
Y00426749D01*
X00071499Y00616499D02*
X00090499D01*
X00096499Y00610499*
X00108999*
X00067999Y00612999D02*
X00071499Y00616499D01*
X00067999Y00603999D02*
Y00612999D01*
Y00603999D02*
X00071999Y00599999D01*
X00079999*
X00093499Y00602499D02*
X00108999D01*
X00086999Y00608999D02*
X00093499Y00602499D01*
X00079999Y00608999D02*
X00086999D01*
X00032196Y00450681D02*
Y00452802D01*
X00020249Y00438734D02*
X00032196Y00450681D01*
X00036438Y00446438D02*
X0003856D01*
X00026749Y00436749D02*
X00036438Y00446438D01*
X00020249Y00407249D02*
Y00438734D01*
X00026749Y00407249D02*
Y00436749D01*
X00371499Y00387499D02*
X00417499D01*
X00365999Y00381999D02*
X00371499Y00387499D01*
X00351999Y00369499D02*
X00360499D01*
X00353499Y00384499D02*
X00361499Y00392499D01*
X00351999Y00384499D02*
X00353499D01*
X00147499Y00469299D02*
X00180699D01*
X00252499Y00397499*
X00147498Y004947D02*
X00169298D01*
X00261499Y00402499*
X00417499*
X00147498Y005201D02*
X00185898D01*
X00190999Y00514999*
Y00485999D02*
Y00514999D01*
Y00485999D02*
X00269499Y00407499D01*
X00417499*
X00147499Y00545499D02*
X00191499D01*
X00197999Y00538999*
Y00490999D02*
Y00538999D01*
Y00490999D02*
X00276499Y00412499D01*
X00417499*
X00147499Y00570899D02*
X00192099D01*
X00203999Y00558999*
Y00496999D02*
Y00558999D01*
Y00496999D02*
X00283499Y00417499D01*
X00417499*
X00147499Y00596299D02*
X00200699D01*
X00212999Y00583999*
Y00498999D02*
Y00583999D01*
Y00498999D02*
X00289499Y00422499D01*
X00417499*
X00147499Y00621699D02*
X00207299D01*
X00222999Y00605999*
Y00504999D02*
Y00605999D01*
Y00504999D02*
X00300499Y00427499D01*
X00417499*
X001475Y00647098D02*
X002029D01*
X00232999Y00616999*
Y00510999D02*
Y00616999D01*
Y00510999D02*
X00311499Y00432499D01*
X00417499*
X001475Y00672498D02*
X001945D01*
X00241999Y00624999*
Y00516999D02*
Y00624999D01*
Y00516999D02*
X00321499Y00437499D01*
X00417499*
X00476999Y00320999D02*
X00479999Y00317999D01*
Y00299999D02*
Y00317999D01*
X00397999Y00232999D02*
X00412999Y00247999D01*
X00447999Y00277999D02*
X00459999Y00289999D01*
X00424999Y00277999D02*
X00447999D01*
X00412999Y00265999D02*
X00424999Y00277999D01*
X00412999Y00262999D02*
Y00265999D01*
X00305398Y003258D02*
X00359198D01*
X00484999Y00289999D02*
X00491999Y00282999D01*
X00484999Y00289999D02*
Y00299999D01*
X00484749Y00314239D02*
X00489999Y00308989D01*
X00488999Y00315999D02*
Y00330999D01*
Y00315999D02*
X00494999Y00309999D01*
X00489999Y00299999D02*
Y00308989D01*
X00494999Y00299999D02*
Y00309999D01*
X00495399Y00234999D02*
Y00262499D01*
X00437499Y00234999D02*
Y00255399D01*
X00444599Y00262499*
X00495399D02*
Y00265599D01*
X00474999Y00285999D02*
X00495399Y00265599D01*
X00474999Y00285999D02*
Y00299999D01*
X00444599Y00262499D02*
Y00264599D01*
X00469999Y00289999*
Y00299999*
X00478999Y00330999D02*
X00484749Y00325249D01*
Y00314239D02*
Y00325249D01*
X00497999Y00316999D02*
Y00328999D01*
Y00316999D02*
X00499999Y00314999D01*
Y00299999D02*
Y00314999D01*
X00197801Y00107801D02*
X00309999Y00219999D01*
X00197801Y00062501D02*
Y00107801D01*
X00729701Y00367297D02*
X008525D01*
X00719499Y00377499D02*
X00729701Y00367297D01*
X00572499Y00377499D02*
X00719499D01*
X00499999Y00353999D02*
X00508499Y00362499D01*
X00572499*
X00553999Y00368999D02*
Y00376999D01*
Y00368999D02*
X00555499Y00367499D01*
X00513999Y00351999D02*
X00519499Y00357499D01*
X00572499*
X00525999Y00347999D02*
X00530499Y00352499D01*
X00572499*
X00533999Y00339999D02*
X00541499Y00347499D01*
X00572499*
X00541999Y00334999D02*
X00549499Y00342499D01*
X00572499*
X00553999Y00333999D02*
X00557499Y00337499D01*
X00572499*
X00835999Y00155197D02*
X00852499Y00138697D01*
X00835999Y00155197D02*
Y00164999D01*
X00747999Y00252999D02*
X00835999Y00164999D01*
X00666999Y00252999D02*
X00747999D01*
X00572499Y00332499D02*
X00649499D01*
X00740999Y00246999D02*
X00825999Y00161999D01*
X00658999Y00246999D02*
X00740999D01*
X00572499Y00327499D02*
X00644499D01*
X008361Y00087898D02*
X00852498D01*
X00830999Y00092999D02*
X008361Y00087898D01*
X00830999Y00092999D02*
Y00140999D01*
X00731999Y00239999D02*
X00830999Y00140999D01*
X00649999Y00239999D02*
X00731999D01*
X00644999Y00244999D02*
X00649999Y00239999D01*
X00644999Y00244999D02*
Y00307999D01*
X00630499Y00322499D02*
X00644999Y00307999D01*
X00572499Y00322499D02*
X00630499D01*
X008295Y00062498D02*
X00852498D01*
X00823999Y00067999D02*
X008295Y00062498D01*
X00823999Y00067999D02*
Y00127999D01*
X00719999Y00231999D02*
X00823999Y00127999D01*
X00639999Y00231999D02*
X00719999D01*
X00608999Y00262999D02*
X00639999Y00231999D01*
X00608999Y00262999D02*
Y00300999D01*
X00592499Y003175D02*
X00608999Y00300999D01*
X00572499Y003175D02*
X00592499D01*
X00522999Y00436999D02*
X00524999Y00438999D01*
Y00454999*
X00511999Y00437999D02*
X00519999Y00445999D01*
Y00454999*
X00518999Y00475999D02*
Y00476999D01*
X00514999Y00454999D02*
Y00472999D01*
X00509999Y00478999D02*
X00513999Y00482999D01*
X00509999Y00454999D02*
Y00478999D01*
X00320499Y00496499D02*
Y00506999D01*
Y00496499D02*
X00322999Y00493999D01*
X00343999*
X00415999D02*
X00422999D01*
X00439999Y00476999*
X00320499Y00521999D02*
X00321499Y00520999D01*
X00339999*
X00424999Y00506999D02*
X00427999D01*
X00444999Y00489999*
Y00454999D02*
Y00489999D01*
X00404999Y00544999D02*
X00418999D01*
X00398999Y00538999D02*
X00404999Y00544999D01*
X00398999Y00492999D02*
Y00538999D01*
Y00492999D02*
X00418999Y00472999D01*
X00429999*
X00434999Y00467999*
Y00454999D02*
Y00467999D01*
X00274401Y00668597D02*
Y00697D01*
Y00668597D02*
X00341999Y00600999D01*
X00384999*
X00449999Y00535999*
Y00454999D02*
Y00535999D01*
X00299801Y00697D02*
X00303998D01*
X00454999Y00545999*
Y00454999D02*
Y00545999D01*
X00325201Y00690797D02*
Y00697D01*
Y00690797D02*
X00459999Y00555999D01*
Y00454999D02*
Y00555999D01*
X00350601Y00678397D02*
Y00697D01*
Y00678397D02*
X00464999Y00563999D01*
Y00454999D02*
Y00563999D01*
X00376Y00663998D02*
Y00696999D01*
Y00663998D02*
X00469999Y00569999D01*
Y00454999D02*
Y00569999D01*
X004014Y00652598D02*
Y00696999D01*
Y00652598D02*
X00474999Y00578999D01*
Y00454999D02*
Y00578999D01*
X00426801Y00640197D02*
Y00697001D01*
Y00640197D02*
X00479999Y00586999D01*
Y00454999D02*
Y00586999D01*
X00452201Y00631797D02*
Y00697001D01*
Y00631797D02*
X00484999Y00598999D01*
Y00454999D02*
Y00598999D01*
X00477601Y00658397D02*
Y00697D01*
Y00658397D02*
X00489999Y00645999D01*
Y00454999D02*
Y00645999D01*
X00503001Y00640001D02*
Y00697D01*
X00494999Y00631999D02*
X00503001Y00640001D01*
X00494999Y00454999D02*
Y00631999D01*
X00528401Y00622401D02*
Y00697D01*
X00499999Y00593999D02*
X00528401Y00622401D01*
X00499999Y00454999D02*
Y00593999D01*
X00572499Y00437499D02*
X00585499D01*
X00820097Y00672097D02*
X00852499D01*
X00585499Y00437499D02*
X00820097Y00672097D01*
X00820696Y00646696D02*
X00852501D01*
X00572499Y00427499D02*
X00626499D01*
X00820296Y00621296*
X00852501*
X00572499Y00422499D02*
X00640499D01*
X00813897Y00595897*
X008525*
X00572499Y00417499D02*
X00652499D01*
X00805497Y00570497*
X008525*
X00606499Y00432499D02*
X00820696Y00646696D01*
X00572499Y00432499D02*
X00606499D01*
X00572499Y00412499D02*
X00661499D01*
X00794097Y00545097*
X008525*
X00572499Y00407499D02*
X00675499D01*
X00787697Y00519697*
X008525*
X00572499Y00402499D02*
X00683499D01*
X00775297Y00494297*
X00852499*
X00700499Y00397499D02*
X00771897Y00468897D01*
X00852499*
X00721499Y00392499D02*
X00772496Y00443496D01*
X00852501*
X00743499Y00387499D02*
X00774096Y00418096D01*
X00852501*
X00842302Y00382499D02*
X008525Y00392697D01*
X00572499Y00372499D02*
X00608499D01*
X00621499Y00359499*
X00629499*
X00555499Y00367499D02*
X00572499D01*
X00537999Y00436999D02*
X00551999D01*
X00534999Y00439999D02*
X00537999Y00436999D01*
X00459999Y00299999D02*
Y00318999D01*
X00710999Y00223999D02*
X008074Y00127598D01*
Y000625D02*
Y00127598D01*
X00554999Y00285999D02*
X00616999Y00223999D01*
X00710999*
X00615239Y00219749D02*
X00727994Y00106994D01*
X00768004*
X00781998Y00093*
Y00062498D02*
Y00093D01*
X00544999Y00277999D02*
Y00299999D01*
Y00277999D02*
X00723999Y00098999D01*
X00748999*
X00756598Y000914*
Y00062498D02*
Y000914D01*
X00554999Y00285999D02*
Y00299999D01*
X00539999Y00272999D02*
Y00299999D01*
Y00272999D02*
X00731199Y00081799D01*
Y00062499D02*
Y00081799D01*
X00534999Y00269999D02*
Y00299999D01*
Y00269999D02*
X00705799Y00099199D01*
Y00062499D02*
Y00099199D01*
X00529999Y00266999D02*
Y00299999D01*
Y00266999D02*
X00680399Y00116599D01*
Y00062499D02*
Y00116599D01*
X00524999Y00262999D02*
Y00299999D01*
Y00262999D02*
X00654999Y00132999D01*
Y00062499D02*
Y00132999D01*
X00519999Y00257999D02*
Y00299999D01*
Y00257999D02*
X006296Y00148398D01*
Y000625D02*
Y00148398D01*
X00549999Y00284989D02*
Y00299999D01*
Y00284989D02*
X00615239Y00219749D01*
X00514999Y00252999D02*
Y00299999D01*
Y00252999D02*
X006042Y00163798D01*
Y000625D02*
Y00163798D01*
X00509999Y00243999D02*
Y00299999D01*
Y00243999D02*
X00578798Y001752D01*
Y00062498D02*
Y001752D01*
X00504999Y00299999D02*
Y00320999D01*
X00631999Y00277499D02*
Y00292999D01*
D01*
X00572499Y00397499D02*
X00700499D01*
X00572499Y00392499D02*
X00721499D01*
X00572499Y00387499D02*
X00743499D01*
X00572499Y00382499D02*
X00842302D01*
X00661999Y00338999D02*
X00677999D01*
X00554999Y00454999D02*
Y00467999D01*
X00693999Y00606999*
X00742999*
X00807799Y00671799*
Y00696998*
X00549999Y00454999D02*
Y00473999D01*
X00697999Y00621999*
X00734999*
X00782399Y00669399*
Y00696998*
X00544999Y00454999D02*
Y00478999D01*
X00696999Y00630999*
X00729999*
X00757Y00658*
Y00696999*
X00539999Y00454999D02*
Y00482999D01*
X00695999Y00638999*
X00715999*
X007316Y006546*
Y00696999*
X00523999Y00484999D02*
Y00495499D01*
Y00484999D02*
X00529999Y00478999D01*
Y00454999D02*
Y00478999D01*
X00534999Y00454999D02*
Y00487999D01*
X00539999Y00492999*
Y00506999*
X00536499Y00510499D02*
X00539999Y00506999D01*
X00523999Y00510499D02*
X00536499D01*
G54D23*
X00743249Y00268859D02*
X00816999Y00195108D01*
X00638999Y00210999D02*
X00673999D01*
X00675999Y00208999*
X00816108Y00195108D02*
X00816999D01*
X00917498Y001387D02*
Y002115D01*
X00871999Y00256999D02*
X00917498Y002115D01*
X00871999Y00256999D02*
Y00308999D01*
X00864501Y00316497D02*
X00871999Y00308999D01*
X008525Y00316497D02*
X00864501D01*
X00928999Y00449999D02*
X00941999D01*
X00984999Y00303999D02*
Y00436999D01*
X00960999Y00279999D02*
X00984999Y00303999D01*
X00982499Y00439499D02*
X00984999Y00436999D01*
X00570999Y00307999D02*
X00580999D01*
X00589999Y00298999*
Y00280999D02*
Y00298999D01*
X00631999Y00252999D02*
X00636999Y00247999D01*
X00631999Y00252999D02*
Y00262499D01*
X00974999Y00155999D02*
Y00177499D01*
X009577Y001387D02*
X00974999Y00155999D01*
X00917498Y001387D02*
X009577D01*
X00890499Y00417499D02*
X00914999D01*
X00880999Y00407999D02*
X00890499Y00417499D01*
X00880999Y00273999D02*
Y00407999D01*
Y00273999D02*
X00949599Y00205399D01*
Y00177499D02*
Y00205399D01*
X00917497Y00087901D02*
X00917498Y000879D01*
Y000625D02*
Y000879D01*
X00917497Y00113299D02*
X00917498Y001133D01*
X00917497Y00087901D02*
Y00113299D01*
X00917498Y001133D02*
Y001387D01*
X00914999Y00279999D02*
X00960999D01*
X00974999Y00475999D02*
X00989999D01*
X00967999Y00482999D02*
X00974999Y00475999D01*
X00967999Y00482999D02*
Y00512999D01*
X00999999Y00352499D02*
X01000398Y003521D01*
Y00177498D02*
Y003521D01*
X00249001Y00638997D02*
Y00697001D01*
Y00638997D02*
X00275999Y00611999D01*
Y00534999D02*
Y00611999D01*
Y00534999D02*
X00288999Y00521999D01*
X00320499*
G54D24*
X00743249Y00313858D03*
Y00268859D03*
X00678249D03*
Y00313858D03*
G54D25*
X00914999Y00699999D03*
X00989999Y00099999D03*
X00064999Y00049999D03*
Y00699999D03*
G54D26*
X00097899Y00162499D03*
X00072499D03*
X00969999Y00352499D03*
X00999999D03*
X00914999Y00387499D03*
Y00417499D03*
X00039999Y00252899D03*
Y00227499D03*
Y00319999D03*
Y00345399D03*
X00357999Y00569499D03*
X00387999D03*
X00307999Y00566999D03*
X00257999D03*
X00914999Y00309999D03*
Y00279999D03*
G54D27*
X00949599Y00177499D03*
X00974999D03*
X01000398Y00177498D03*
X00305398Y003258D03*
X00305399Y00351199D03*
Y00376599D03*
X00279999D03*
Y00351199D03*
X00279998Y003258D03*
X00305399Y00274999D03*
Y00300399D03*
X00279999D03*
Y00274999D03*
X00807799Y00696998D03*
X00782399D03*
X007316Y00696999D03*
X00757D03*
X00655401Y00697D03*
X00630001D03*
X006808Y00696999D03*
X007062D03*
X00503001Y00697D03*
X00477601D03*
X00426801Y00697001D03*
X00452201D03*
X00553801Y00697D03*
X00528401D03*
X005792Y00696999D03*
X006046D03*
X00299801Y00697D03*
X00274401D03*
X00223601Y00697001D03*
X00249001D03*
X00350601Y00697D03*
X00325201D03*
X00376Y00696999D03*
X004014D03*
X001982D03*
X001475Y00672498D03*
Y00647098D03*
X00147499Y00596299D03*
Y00621699D03*
X00147498Y005201D03*
Y004947D03*
X00147499Y00545499D03*
Y00570899D03*
X00147498Y003677D03*
Y003423D03*
X00147497Y00291501D03*
Y00316901D03*
X00147498Y004185D03*
Y003931D03*
X00147499Y00443899D03*
Y00469299D03*
X00147498Y001645D03*
Y001391D03*
X00147497Y00088301D03*
Y00113701D03*
X00147498Y002153D03*
Y001899D03*
X00147499Y00240699D03*
Y00266099D03*
Y00062899D03*
X00444599Y00262499D03*
X00495399D03*
X00469999D03*
X00852498Y00062498D03*
Y00087898D03*
X00852499Y00138697D03*
Y00113297D03*
X008525Y00214897D03*
Y00240297D03*
X00852499Y00189497D03*
Y00164097D03*
X008525Y00367297D03*
Y00392697D03*
X00852501Y00443496D03*
Y00418096D03*
X008525Y00316497D03*
Y00341897D03*
X00852499Y00291097D03*
Y00265697D03*
X008525Y00570497D03*
Y00595897D03*
X00852501Y00646696D03*
Y00621296D03*
X008525Y00519697D03*
Y00545097D03*
X00852499Y00494297D03*
Y00468897D03*
Y00672097D03*
X00917498Y001387D03*
Y001133D03*
X00917497Y00087901D03*
X00917498Y000625D03*
X00892098D03*
X00892097Y00087901D03*
X00892098Y001133D03*
Y001387D03*
X00197801Y00062501D03*
X00223201D03*
X00274Y000625D03*
X002486D03*
X00350199Y00062499D03*
X00375599D03*
X003248Y000625D03*
X002994D03*
X00502599Y00062499D03*
X00527999D03*
X00578798Y00062498D03*
X00553398D03*
X00451799Y00062499D03*
X00477199D03*
X004264Y000625D03*
X00401D03*
X00705799Y00062499D03*
X00731199D03*
X00781998Y00062498D03*
X00756598D03*
X00654999Y00062499D03*
X00680399D03*
X006296Y000625D03*
X006042D03*
X008074D03*
G54D28*
X00628999Y00217999D03*
X00690999Y00212999D03*
X00693999Y00260999D03*
X00638999Y00210999D03*
X00675999Y00208999D03*
X00816108Y00195108D03*
X00747999Y00433999D03*
X00727999Y00412999D03*
X00928999Y00449999D03*
X00589999Y00280999D03*
X00636999Y00247999D03*
X00566999Y00451999D03*
X00084999Y00499999D03*
X00989999Y00475999D03*
X00524999Y00549999D03*
X00523999Y00591999D03*
X00505999Y00572999D03*
X00435999Y00528999D03*
X00108999Y00558999D03*
X00041999Y00616999D03*
X00075999Y00317999D03*
X00065999Y00457999D03*
X00039999Y00426999D03*
X00084999Y00428999D03*
X00071999Y00261999D03*
X00329999Y00190999D03*
X00348999Y00233999D03*
X00344999Y00166999D03*
X00400999Y00175999D03*
X00370999Y00176999D03*
X00444999Y00379999D03*
Y00369999D03*
X00438999Y00361999D03*
X00450999Y00392999D03*
X00398998Y00379998D03*
X00390999Y00377999D03*
X00378999Y00374999D03*
X00376999Y00364999D03*
Y00353999D03*
X00350999Y00305999D03*
X00396999Y00336999D03*
X00379999Y00342999D03*
X00326999D03*
X00372999Y00311999D03*
X00442999Y00325999D03*
Y00340999D03*
X00463999Y00341999D03*
X00381Y00264999D03*
Y00218999D03*
X00366999Y00211999D03*
X00427999Y00285999D03*
X00390999Y00150999D03*
X00438999D03*
X00486999Y00149999D03*
X00567999Y00150999D03*
X00712999D03*
Y00201999D03*
X00823999D03*
X00121999Y00396999D03*
X00079999Y00364999D03*
Y00608999D03*
Y00599999D03*
X00032196Y00452802D03*
X0003856Y00446438D03*
X00476999Y00320999D03*
X00433999Y00332999D03*
X00397999Y00232999D03*
X00491999Y00282999D03*
X00478999Y00330999D03*
X00488999D03*
X00497999Y00328999D03*
X00718999Y00367999D03*
X00499999Y00353999D03*
X00553999Y00376999D03*
X00513999Y00351999D03*
X00525999Y00347999D03*
X00533999Y00339999D03*
X00541999Y00334999D03*
X00553999Y00333999D03*
X00825999Y00161999D03*
X00522999Y00436999D03*
X00511999Y00437999D03*
X00518999Y00475999D03*
X00513999Y00482999D03*
X00343999Y00493999D03*
X00415999D03*
X00339999Y00520999D03*
X00424999Y00506999D03*
X00551999Y00436999D03*
X00459999Y00318999D03*
X00537999Y00436999D03*
X00504999Y00320999D03*
X00631999Y00292999D03*
X00677999Y00338999D03*
M02*