%FSTAX24Y24*%
%MOIN*%
%SFA1B1*%

%IPPOS*%
%AMD10*
4,1,8,-0.059000,-0.039300,0.059000,-0.039300,0.078700,-0.019600,0.078700,0.019600,0.059000,0.039300,-0.059000,0.039300,-0.078700,0.019600,-0.078700,-0.019600,-0.059000,-0.039300,0.0*
1,1,0.039400,-0.059000,-0.019600*
1,1,0.039400,0.059000,-0.019600*
1,1,0.039400,0.059000,0.019600*
1,1,0.039400,-0.059000,0.019600*
%
%AMD18*
4,1,8,-0.049200,-0.019700,0.049200,-0.019700,0.059000,-0.009900,0.059000,0.009900,0.049200,0.019700,-0.049200,0.019700,-0.059000,0.009900,-0.059000,-0.009900,-0.049200,-0.019700,0.0*
1,1,0.019600,-0.049200,-0.009900*
1,1,0.019600,0.049200,-0.009900*
1,1,0.019600,0.049200,0.009900*
1,1,0.019600,-0.049200,0.009900*
%
G04~CAMADD=10~8~0.0~0.0~1575.0~787.0~197.0~0.0~15~0.0~0.0~0.0~0.0~0~0.0~0.0~0.0~0.0~0~0.0~0.0~0.0~180.0~1574.0~786.0*
%ADD10D10*%
%ADD11R,0.059100X0.074800*%
%ADD12R,0.074800X0.059100*%
%ADD13O,0.023600X0.057100*%
%ADD14R,0.066900X0.043300*%
%ADD15R,0.043300X0.066900*%
%ADD16O,0.080700X0.023600*%
%ADD17O,0.023600X0.080700*%
G04~CAMADD=18~8~0.0~0.0~1181.0~394.0~98.0~0.0~15~0.0~0.0~0.0~0.0~0~0.0~0.0~0.0~0.0~0~0.0~0.0~0.0~180.0~1180.0~393.0*
%ADD18D18*%
%ADD19C,0.019700*%
%ADD20C,0.029500*%
%ADD21C,0.039400*%
%ADD22C,0.196900*%
%ADD23C,0.047200*%
%ADD24C,0.086600*%
%ADD25C,0.063000*%
%ADD26C,0.078700*%
%ADD27C,0.039400*%
%LNpcb181216ver1-1*%
%LPD*%
G36*
X019635Y032087D02*
X019391Y031496D01*
X019765Y030592*
X020669Y030218*
X021573Y030592*
X021952Y030478*
Y024685*
Y023956*
X021559Y023647*
X021549Y023649*
Y023876*
X020938*
X019233Y02558*
X019007Y025674*
X015336*
X015079Y02578*
X014743Y026068*
Y02768*
X014999Y027936*
X015427*
X015536Y027891*
X01652*
X016746Y027985*
X01684Y028211*
Y028407*
X016746Y028633*
X01652Y028727*
X015536*
X015427Y028682*
X014844*
X014581Y028573*
X014106Y028098*
X013997Y027835*
Y026575*
X013633Y026425*
X013295Y026763*
X013069Y026857*
X011948*
X011946Y026862*
X01172Y026955*
X010736*
X01051Y026862*
X010416Y026636*
Y026439*
X01051Y026213*
X010736Y026119*
X01172*
X011946Y026213*
X011948Y026218*
X012937*
X013282Y025872*
X013254Y025709*
X012913Y025426*
X012674Y025327*
X012612Y025301*
X012487Y025*
X012574Y02479*
Y022608*
X012553Y022594*
X012312Y022494*
X012261Y022371*
X012212Y022253*
Y022003*
X012174Y021677*
X011849Y021639*
X011598*
X011357Y021539*
X011258Y021298*
X011323Y021141*
X011258Y020983*
X011323Y020826*
X011258Y020668*
X011323Y020511*
X011258Y020353*
X011323Y020196*
X011258Y020038*
X010981Y019749*
X010578Y019746*
X009602Y020722*
X009632Y020794*
X00947Y021186*
X009078Y021348*
X009006Y021319*
X008544Y021781*
X008318Y021874*
X007959*
Y021968*
X006896*
Y021299*
Y021141*
Y020905*
Y020748*
Y02059*
X007428*
Y020492*
Y02059*
X007959*
Y020813*
X008061Y020905*
X008454Y020878*
X008524Y020794*
X008686Y020403*
X009078Y020241*
X00915Y02027*
X009486Y019935*
X009369Y019497*
X009129Y019406*
X009078Y019427*
X008686Y019265*
X008524Y018873*
X008545Y018823*
X008281Y01856*
X007909Y018713*
Y018856*
X006846*
Y018699*
Y018541*
Y018305*
Y018148*
Y017478*
X007729*
X007893Y017085*
X007652Y016844*
X007558Y016618*
Y016173*
X007396Y016105*
X007196Y015623*
X007396Y015141*
X007878Y014941*
X00836Y015141*
X008396*
X008878Y014941*
X00936Y015141*
X00956Y015623*
X00936Y016105*
X009198Y016173*
Y01662*
X010722Y018144*
X011259*
X011357Y017907*
X011598Y017808*
X011849*
X012174Y017769*
X012212Y017444*
Y017194*
X012312Y016953*
X012413Y016911*
X012684Y016535*
X012793Y016273*
X012533Y016013*
X012136Y016036*
X01187Y016214*
Y016693*
X011844*
X011765Y016811*
X011666Y01705*
X01164Y017112*
X011339Y017237*
X0111Y017138*
X011037Y017112*
X010912Y016811*
X010834Y016693*
X010728*
Y015709*
Y015472*
Y014488*
X011111*
X011307Y014176*
Y013191*
Y012955*
Y012798*
Y011971*
X011505*
Y010965*
X011524Y010919*
Y010426*
X011633Y010162*
X01198Y009815*
X012244Y009706*
X0152*
X019579Y005327*
X019843Y005218*
X023218*
X023346Y005164*
X023648Y005289*
X023773Y005591*
X023682Y005808*
X023852Y006202*
X024016*
X024279Y006311*
X02487Y006902*
X024979Y007165*
Y008225*
X025373Y008388*
X025521Y00824*
X025649Y007932*
X025872Y007839*
X025874Y007838*
X026081Y007651*
X026165Y007406*
Y00689*
Y003346*
X026227Y003196*
X028045Y001378*
X027882Y000984*
X015076*
X014813Y001378*
X015058Y001969*
X014684Y002872*
X01378Y003247*
X012876Y002872*
X012501Y001969*
X012746Y001378*
X012483Y000984*
X000984*
Y030199*
X001378Y030462*
X001969Y030218*
X002872Y030592*
X003247Y031496*
X003002Y032087*
X003265Y03248*
X019372*
X019635Y032087*
G37*
G36*
X036063Y023038D02*
X035669Y02296D01*
X03558Y023175*
X035325Y023281*
Y022723*
X034931*
Y023281*
X034676Y023175*
X03458*
X034128Y023362*
X033676Y023175*
X03358*
X033128Y023362*
X032676Y023175*
X032489Y022723*
X032499Y022697*
X031574Y021772*
X030503*
X030424Y022165*
X03068Y022271*
X030786Y022526*
X030228*
Y022723*
X030031*
Y023281*
X029776Y023175*
X02968*
X029228Y023362*
X028776Y023175*
X02868*
X028228Y023362*
X027776Y023175*
X027589Y022723*
X027776Y022271*
X027855Y022238*
Y021772*
X027335*
X027073Y022034*
X026772Y022158*
X025909*
X025663Y022526*
X025078*
Y022723*
X024881*
Y023281*
X024626Y023175*
X02453*
X024078Y023362*
X023626Y023175*
X02353*
X023078Y023362*
X022626Y023175*
X022529Y023156*
X022165Y023464*
Y024685*
Y03189*
X036063*
Y023038*
G37*
G36*
X015388Y021341D02*
X015721Y021191D01*
X015746Y020983*
X015811Y020826*
X015746Y020668*
X015811Y020511*
X01579Y020461*
X015512Y020151*
X015273Y020052*
X01521Y020026*
X015086Y019724*
X01521Y019423*
X015512Y019298*
X01579Y018987*
X015811Y018936*
X015746Y018778*
X015811Y018621*
X015746Y018463*
X015721Y018256*
X015388Y018105*
X01523Y01804*
X015073Y018105*
X014763Y018402*
Y018547*
X014849Y018756*
X014875Y018819*
X01475Y01912*
X014449Y019245*
X014328Y019195*
X013942Y019429*
Y019921*
X013848Y020147*
X013867Y020243*
X013884Y02025*
X013968Y020453*
X013583*
Y02065*
X014069*
X014134Y020755*
X014248Y020802*
X014435Y02088*
X01456Y021181*
X014896Y021398*
X014915Y021406*
X015073Y021341*
X01523Y021406*
X015388Y021341*
G37*
G36*
X022426Y01811D02*
X02272Y018232D01*
X023107Y018138*
Y018121*
X02358*
Y018613*
X023776*
Y018121*
X024249*
X024352Y01777*
Y01748*
X024461Y017217*
X025051Y016626*
X025315Y016517*
X026406*
X02667Y016626*
X02673Y016686*
X027118Y016517*
X027193Y016336*
X027218Y016273*
X027421Y016189*
Y016575*
X027618*
Y016083*
X027802Y01596*
Y014785*
X027409Y014707*
X027281Y015014*
X026988Y015135*
Y014622*
X02689*
Y014524*
X026377*
X026432Y014389*
X026219Y013995*
X026024*
X02576Y013886*
X024343Y012468*
X024233Y012205*
Y00732*
X023861Y006948*
X021808*
X0212Y007556*
Y010276*
X02109Y010539*
X020143Y011487*
X019918Y01158*
X019902Y011623*
X020106Y011975*
X020135Y012*
X02041*
X020774Y01191*
X020936Y011519*
X021328Y011356*
X021457Y01141*
X02172Y011519*
X021936*
X02223Y011397*
Y01191*
Y012424*
X021936Y012302*
X021805*
X02172*
X021328Y012464*
X021309Y012457*
X021129Y012637*
X020865Y012746*
X020038*
X019924Y012973*
X019993Y013111*
X020099Y0132*
X020384*
X020648Y01331*
X021457Y014118*
X021592Y014253*
X021701Y014517*
X021993Y014761*
X022095Y014816*
X02223Y01476*
Y015273*
Y015786*
X021936Y015665*
X021805*
X02172*
X021328Y015827*
X020936Y015665*
X020774Y015273*
X020936Y014882*
X020797Y014513*
X02023Y013946*
X019621*
X01953Y014302*
Y014538*
Y015444*
X019411*
Y016876*
X020594Y018059*
X020936Y018232*
X021328Y018069*
X021457Y018123*
X02172Y018232*
X021936*
X02223Y01811*
Y018623*
X022426*
Y01811*
G37*
G36*
X020407Y023502D02*
Y023049D01*
Y022891*
Y022655*
Y021671*
X021549*
Y021737*
X022518*
X022819Y021862*
X023052Y022095*
X023078Y022084*
X023347Y022196*
X023764Y022081*
X023814Y02204*
X024423Y021431*
X024724Y021306*
X026595*
X027212Y020689*
X027061Y020326*
X026707*
Y020183*
X026499Y020097*
X026114Y019712*
X026005Y019449*
Y019341*
X025952Y019213*
X026077Y018911*
X026139Y018885*
X026378Y018786*
X026693Y018509*
X026707Y018121*
X026716Y017727*
X026252Y017263*
X025469*
X025097Y017635*
Y019961*
X024988Y020224*
X024004Y021209*
X02374Y021318*
X021772*
X021508Y021209*
X019086Y018786*
X018709Y018967*
Y019143*
X018178*
Y01934*
X018709*
Y019655*
Y019891*
Y020049*
Y020718*
X017646*
Y020457*
X017253Y020402*
X016998Y020668*
X016933Y020826*
X016998Y020983*
X016933Y021141*
X016998Y021298*
X016899Y021539*
X016657Y021639*
X016407*
X016082Y021677*
X016044Y022003*
Y022253*
X015944Y022494*
X015703Y022594*
X015545Y022528*
X015388Y022594*
X01523Y022528*
X015073Y022594*
X014915Y022528*
X014758Y022594*
X0146Y022528*
X014443Y022594*
X014133Y02289*
Y024021*
X01437Y02418*
X014671Y024305*
X014796Y024606*
X01479Y024622*
X015014Y024891*
X015079Y024928*
X015336Y025035*
X018875*
X020407Y023502*
G37*
G36*
X035433Y017315D02*
Y0172D01*
X035104Y016932*
X034884Y016935*
X034724Y017001*
X034516Y017341*
Y018735*
Y018988*
X03476Y019102*
X034996*
X035433*
Y017315*
G37*
G36*
X03563Y011457D02*
Y010472D01*
Y001575*
X035433Y001378*
X034853*
X034634Y001705*
X034743Y001969*
X034369Y002872*
X033465Y003247*
X032561Y002872*
X032186Y001969*
X032295Y001705*
X032076Y001378*
X028346*
X026378Y003346*
Y00689*
Y00753*
X026631Y007699*
Y008323*
Y008948*
X026378Y009117*
Y012402*
X030014*
X030253Y012008*
X030211Y011908*
X031228*
X032245*
X032203Y012008*
X032442Y012402*
X034685*
X03563Y011457*
G37*
%LNpcb181216ver1-2*%
%LPC*%
G36*
X00812Y028727D02*
X007726D01*
Y028407*
X00844*
X008346Y028633*
X00812Y028727*
G37*
G36*
X00753D02*
X007136D01*
X00691Y028633*
X006816Y028407*
X00753*
Y028727*
G37*
G36*
X02012D02*
X019136D01*
X01891Y028633*
X018816Y028407*
Y028211*
X01891Y027985*
X019136Y027891*
X02012*
X020346Y027985*
X02044Y028211*
Y028407*
X020346Y028633*
X02012Y028727*
G37*
G36*
X01172D02*
X010736D01*
X01051Y028633*
X010416Y028407*
Y028211*
X01051Y027985*
X010736Y027891*
X01172*
X011946Y027985*
X01204Y028211*
Y028407*
X011946Y028633*
X01172Y028727*
G37*
G36*
X00844Y028211D02*
X007726D01*
Y027891*
X00812*
X008346Y027985*
X00844Y028211*
G37*
G36*
X00753D02*
X006816D01*
X00691Y027985*
X007136Y027891*
X00753*
Y028211*
G37*
G36*
X02012Y026955D02*
X019726D01*
Y026636*
X02044*
X020346Y026862*
X02012Y026955*
G37*
G36*
X01953D02*
X019136D01*
X01891Y026862*
X018816Y026636*
X01953*
Y026955*
G37*
G36*
X02044Y026439D02*
X019726D01*
Y026119*
X02012*
X020346Y026213*
X02044Y026439*
G37*
G36*
X01953D02*
X018816D01*
X01891Y026213*
X019136Y026119*
X01953*
Y026439*
G37*
G36*
X01652Y026955D02*
X015536D01*
X01531Y026862*
X015216Y026636*
Y026439*
X01531Y026213*
X015536Y026119*
X01652*
X016746Y026213*
X01684Y026439*
Y026636*
X016746Y026862*
X01652Y026955*
G37*
G36*
X00812D02*
X007136D01*
X00691Y026862*
X006816Y026636*
Y026439*
X00691Y026213*
X007136Y026119*
X00812*
X008346Y026213*
X00844Y026439*
Y026636*
X008346Y026862*
X00812Y026955*
G37*
G36*
X007959Y020393D02*
X007526D01*
Y020078*
X007959*
Y020393*
G37*
G36*
X00733D02*
X006896D01*
Y020078*
X00733*
Y020393*
G37*
G36*
X007909Y019368D02*
X007476D01*
Y019053*
X007909*
Y019368*
G37*
G36*
X00728D02*
X006846D01*
Y019053*
X00728*
Y019368*
G37*
G36*
X013495Y009268D02*
Y008899D01*
X013738*
Y008968*
X013638Y009209*
X01352Y009258*
X013495Y009268*
G37*
G36*
X013738Y008702D02*
X013495D01*
Y008333*
X013638Y008392*
X013738Y008633*
Y008702*
G37*
G36*
X005928Y011312D02*
X005476Y011125D01*
X005289Y010673*
X005476Y010221*
X005608Y010166*
Y007537*
X005702Y007311*
X007687Y005325*
X007913Y005232*
X012126*
X012352Y005325*
X013123Y006096*
X013217Y006322*
Y008172*
X013299Y008226*
Y0088*
Y009271*
X013147Y009212*
X012897Y009309*
X012647Y009212*
X012397Y009309*
X012147Y009212*
X011897Y009309*
X011656Y009209*
X011556Y008968*
Y008633*
X011577Y008582*
Y008231*
X011546Y008218*
X011409Y007887*
X011546Y007555*
Y007391*
X011423Y007092*
X011409Y00706*
X011546Y006728*
X011878Y006591*
X011891Y006597*
X012345Y006358*
X012369Y006246*
X011994Y005871*
X008046*
X006248Y007669*
Y010166*
X00638Y010221*
X006567Y010673*
X00638Y011125*
X005928Y011312*
G37*
G36*
X006026Y003004D02*
Y002504D01*
X006526*
X00638Y002858*
X006026Y003004*
G37*
G36*
X00583D02*
X005476Y002858D01*
X00533Y002504*
X00583*
Y003004*
G37*
G36*
X006526Y002307D02*
X006026D01*
Y001807*
X00638Y001954*
X006526Y002307*
G37*
G36*
X00583D02*
X00533D01*
X005476Y001954*
X00583Y001807*
Y002307*
G37*
G36*
X030425Y023281D02*
Y02292D01*
X030786*
X03068Y023175*
X030425Y023281*
G37*
G36*
X025275D02*
Y02292D01*
X025636*
X02553Y023175*
X025275Y023281*
G37*
G36*
X022426Y015786D02*
Y015372D01*
X022841*
X02272Y015665*
X022426Y015786*
G37*
G36*
X022841Y015175D02*
X022426D01*
Y01476*
X02272Y014882*
X022841Y015175*
G37*
G36*
X026791Y015135D02*
X026498Y015014D01*
X026377Y01472*
X026791*
Y015135*
G37*
G36*
X022426Y012424D02*
Y012009D01*
X022841*
X02272Y012302*
X022426Y012424*
G37*
G36*
X022841Y011812D02*
X022426D01*
Y011397*
X02272Y011519*
X022841Y011812*
G37*
G36*
X023278Y008877D02*
X022886Y008715D01*
X022882*
X022589Y008836*
Y008323*
Y00781*
X022882Y007932*
X022886*
X023278Y007769*
X02367Y007932*
X023832Y008323*
X02367Y008715*
X023278Y008877*
G37*
G36*
X022392Y008836D02*
X022099Y008715D01*
X021977Y008422*
X022392*
Y008836*
G37*
G36*
Y008225D02*
X021977D01*
X022099Y007932*
X022392Y00781*
Y008225*
G37*
G36*
X032245Y011514D02*
X031425D01*
Y011088*
X031818*
X03212Y011213*
X032245Y011514*
G37*
G36*
X031031D02*
X030211D01*
X030336Y011213*
X030637Y011088*
X031031*
Y011514*
G37*
G36*
X027025Y008796D02*
Y00852D01*
X0273*
X02722Y008715*
X027025Y008796*
G37*
G36*
X0273Y008126D02*
X027025D01*
Y007851*
X02722Y007932*
X0273Y008126*
G37*
%LNpcb181216ver1-3*%
%LPD*%
G54D10*
X031228Y015273D03*
Y014073D03*
Y011711D03*
Y012911D03*
G54D11*
X012768Y012523D03*
X013988D03*
X019038Y011223D03*
X017818D03*
X019038Y012373D03*
X017818D03*
X019038Y013573D03*
X017818D03*
X019038Y014873D03*
X017818D03*
X028868Y019755D03*
X030088D03*
X034268Y019673D03*
X035488D03*
G54D12*
X011878Y012463D03*
Y013683D03*
X011299Y01498D03*
Y016201D03*
X027278Y019833D03*
Y018613D03*
X033128Y019833D03*
Y018613D03*
X020978Y022163D03*
Y023383D03*
X023678Y019833D03*
Y018613D03*
G54D13*
X013397Y010946D03*
X012897D03*
X012397D03*
X011897D03*
X013397Y0088D03*
X012897D03*
X012397D03*
X011897D03*
G54D14*
X018178Y019242D03*
Y020305D03*
X007428Y020492D03*
Y021555D03*
X007378Y018955D03*
Y017892D03*
G54D15*
X013859Y015052D03*
X012796D03*
G54D16*
X011884Y021298D03*
Y020983D03*
Y020668D03*
Y020353D03*
Y020038D03*
Y019723D03*
Y019408D03*
Y019093D03*
Y018778D03*
Y018463D03*
Y018148D03*
X016372D03*
Y018463D03*
Y018778D03*
Y019093D03*
Y019408D03*
Y019723D03*
Y020038D03*
Y020353D03*
Y020668D03*
Y020983D03*
Y021298D03*
G54D17*
X012553Y017479D03*
X012868D03*
X013183D03*
X013498D03*
X013813D03*
X014128D03*
X014443D03*
X014758D03*
X015073D03*
X015388D03*
X015703D03*
Y021967D03*
X015388D03*
X015073D03*
X014758D03*
X014443D03*
X014128D03*
X013813D03*
X013498D03*
X013183D03*
X012868D03*
X012553D03*
G54D18*
X019628Y028309D03*
Y026537D03*
X016028Y028309D03*
Y026537D03*
X007628D03*
Y028309D03*
X011228Y026537D03*
Y028309D03*
G54D19*
X014035Y019547D02*
X014173Y019685D01*
X014035Y018648D02*
Y019547D01*
Y018648D02*
X014128Y018555D01*
Y017479D02*
Y018555D01*
X012757Y014093D02*
Y015013D01*
X012768Y012523D02*
Y013138D01*
X012756Y01315D02*
X012768Y013138D01*
X012756Y014095D02*
Y014134D01*
Y014095D02*
X012757Y014093D01*
X012724Y01498D02*
X012757Y015013D01*
X011299Y01498D02*
X012724D01*
X014443Y015636D02*
Y017479D01*
X009078Y018873D02*
X009188D01*
X009408Y019093*
X011884*
X009078Y020794D02*
X010464Y019408D01*
X011884*
X007428Y021555D02*
X008318D01*
X009078Y020794*
X007378Y017892D02*
X008096D01*
X009078Y018873*
X005685Y019748D02*
X007428D01*
X004921Y020512D02*
X005685Y019748D01*
X004921Y020512D02*
Y022402D01*
X005866Y023346*
X008819*
X010354Y021811*
Y020315D02*
Y021811D01*
Y020315D02*
X010946Y019723D01*
X011884*
X013813Y021967D02*
Y025793D01*
X013069Y026537D02*
X013813Y025793D01*
X011228Y026537D02*
X013069D01*
X013397Y004736D02*
Y0088D01*
X011067Y002406D02*
X013397Y004736D01*
X005928Y002406D02*
X011067D01*
X012397Y0088D02*
X012409Y008788D01*
Y007654D02*
Y008788D01*
X011878Y007123D02*
X012409Y007654D01*
X011878Y00706D02*
Y007123D01*
X011897Y007906D02*
Y0088D01*
X011878Y007887D02*
X011897Y007906D01*
X012897Y010946D02*
Y011401D01*
X013189Y011693*
X013661*
X013988Y01202*
Y012523*
X013397Y010946D02*
X014411D01*
X014624Y013683D02*
X015Y013307D01*
X011878Y013683D02*
X014624D01*
X016465Y014873D02*
X017818D01*
X016899Y013573D02*
X017818D01*
X015787Y014685D02*
X016899Y013573D01*
X015703Y016817D02*
X015827Y016693D01*
X015703Y016817D02*
Y017479D01*
X014024Y012559D02*
X014567D01*
X013988Y012523D02*
X014024Y012559D01*
X016524Y012373D02*
X017818D01*
X015866Y013032D02*
X016524Y012373D01*
X015866Y013032D02*
Y013661D01*
X016372Y015754D02*
X016614Y015512D01*
X016372Y015754D02*
Y018148D01*
X016375Y011223D02*
X017818D01*
X015748Y011811D02*
Y01185D01*
X017402Y016732D02*
X017677Y017008D01*
Y018819*
X017403Y019093D02*
X017677Y018819D01*
X016372Y019093D02*
X017403D01*
X015748Y01185D02*
X016375Y011223D01*
X013661Y016063D02*
X014128Y01653D01*
Y017479*
X008878Y015623D02*
Y016752D01*
X010589Y018463*
X011884*
X007878Y015623D02*
Y016618D01*
X010038Y018778*
X011884*
X012897Y006322D02*
Y0088D01*
X012126Y005551D02*
X012897Y006322D01*
X007913Y005551D02*
X012126D01*
X005928Y007537D02*
X007913Y005551D01*
X005928Y007537D02*
Y010673D01*
X013397Y0088D02*
Y00932D01*
X013071Y009646D02*
X013397Y00932D01*
X010984Y009646D02*
X013071D01*
X010394Y010236D02*
X010984Y009646D01*
X010394Y010236D02*
Y015276D01*
X010709Y015591*
X012165*
X014266Y015459D02*
X014443Y015636D01*
X014173Y014252D02*
X014758Y014837D01*
X015388Y015951D02*
Y017479D01*
Y015951D02*
X016465Y014873D01*
X015073Y011608D02*
Y017479D01*
X014758Y014837D02*
Y017479D01*
X013307Y023695D02*
Y024134D01*
Y023695D02*
X013498Y023504D01*
Y021967D02*
Y023504D01*
X017696Y019723D02*
X018178Y019242D01*
X016372Y019723D02*
X017696D01*
X017911Y020038D02*
X018178Y020305D01*
X016372Y020038D02*
X017911D01*
X019007Y025354D02*
X020978Y023383D01*
X015079Y025354D02*
X019007D01*
X012894Y02498D02*
X012913Y025D01*
X012894Y022381D02*
Y02498D01*
X012888Y022375D02*
X012894Y022381D01*
X012888Y021987D02*
Y022375D01*
X012868Y021967D02*
X012888Y021987D01*
X011884Y020353D02*
X01319D01*
X013622Y019921*
Y019213D02*
Y019921D01*
X012835Y018425D02*
X013622Y019213D01*
X011339Y01624D02*
Y016811D01*
X011299Y016201D02*
X011339Y01624D01*
X01311Y016535D02*
X013163Y016589D01*
Y017459*
X013183Y017479*
X012913Y020038D02*
D01*
Y019921D02*
Y020038D01*
Y019921D02*
D01*
X011884Y020038D02*
X012913D01*
X014443Y017479D02*
Y018813D01*
X014449Y018819*
X015512Y019724D02*
X015513Y019723D01*
X016372*
X013543Y018346D02*
X013813Y018077D01*
Y017479D02*
Y018077D01*
X013346Y018346D02*
X013543D01*
X012521Y019723D02*
X012992Y019252D01*
X011884Y019723D02*
X012521D01*
X014128Y021187D02*
Y021967D01*
Y021187D02*
X014134Y021181D01*
X015828Y020038D02*
X016372D01*
X015512Y020354D02*
X015828Y020038D01*
X015944Y019408D02*
X016372D01*
X015591Y019055D02*
X015944Y019408D01*
X014443Y021502D02*
Y021967D01*
Y021502D02*
X014764Y021181D01*
X014411Y010946D02*
X015073Y011608D01*
G54D20*
X026024Y013622D02*
X02689D01*
X019038Y012373D02*
X020865D01*
X021328Y01191*
X019038Y013573D02*
X020384D01*
X021328Y014517*
Y015273*
X019038Y014873D02*
Y01703D01*
X020631Y018623*
X021328*
X019038Y011223D02*
X019879D01*
X020827Y010276*
Y007402D02*
Y010276D01*
Y007402D02*
X021654Y006575D01*
X024016*
X024606Y007165*
Y012205*
X026024Y013622*
X027278Y017761D02*
Y018613D01*
X011878Y012463D02*
X012707D01*
X012768Y012523*
X011878Y010965D02*
Y012463D01*
Y010965D02*
X011897Y010946D01*
X012757Y015013D02*
X012796Y015052D01*
X028868Y019755D02*
Y02062D01*
X028228Y02126D02*
X028868Y02062D01*
X028228Y02126D02*
Y022723D01*
X033288Y019673D02*
X034268D01*
X033128Y019833D02*
X033288Y019673D01*
X012796Y015052D02*
Y015749D01*
X01311Y016063*
X013661*
X011897Y010426D02*
Y010946D01*
Y010426D02*
X012244Y010079D01*
X015354*
X019843Y005591*
X023346*
X014844Y028309D02*
X016028D01*
X01437Y027835D02*
X014844Y028309D01*
X01437Y024606D02*
Y027835D01*
X026406Y01689D02*
X027278Y017761D01*
X025315Y01689D02*
X026406D01*
X024724Y01748D02*
X025315Y01689D01*
X024724Y01748D02*
Y019961D01*
X02374Y020945D02*
X024724Y019961D01*
X021772Y020945D02*
X02374D01*
X018465Y017638D02*
X021772Y020945D01*
X018465Y01622D02*
Y017638D01*
X017953Y015709D02*
X018465Y01622D01*
X017362Y015709D02*
X017953D01*
X01689Y016181D02*
X017362Y015709D01*
X023678Y017306D02*
Y018613D01*
Y017306D02*
X024646Y016339D01*
X027283*
X02752Y016575*
X030118Y018661D02*
Y019725D01*
X030088Y019755D02*
X030118Y019725D01*
X026763Y019833D02*
X027278D01*
X026378Y019449D02*
X026763Y019833D01*
X026378Y019213D02*
Y019449D01*
X028898Y018583D02*
Y019725D01*
X028868Y019755D02*
X028898Y019725D01*
X035488Y017339D02*
Y019673D01*
X034724Y016575D02*
X035488Y017339D01*
X033128Y018613D02*
X033928D01*
X034055Y01874*
X019628Y026537D02*
X020825D01*
X021772Y025591*
Y022795D02*
Y025591D01*
X018268Y018622D02*
Y019152D01*
X018178Y019242D02*
X018268Y019152D01*
G54D21*
X007378Y018955D02*
X007428Y019005D01*
Y019748*
Y020492*
X020978Y022163D02*
X022518D01*
X023078Y022723*
X029806Y012911D02*
X031228D01*
X028228Y014488D02*
X029806Y012911D01*
X028228Y014488D02*
Y020276D01*
X026772Y021732D02*
X028228Y020276D01*
X024724Y021732D02*
X026772D01*
X024078Y022379D02*
X024724Y021732D01*
X024078Y022379D02*
Y022723D01*
X031228Y014073D02*
X033286D01*
X033819Y014606*
Y016614*
X031732Y018701D02*
X033819Y016614D01*
X031732Y018701D02*
Y020354D01*
X032835Y021457*
X03374*
X034128Y021844*
Y022723*
X031228Y015273D02*
Y015622D01*
X030984Y015866D02*
X031228Y015622D01*
X030984Y015866D02*
Y020433D01*
X029228Y022189D02*
X030984Y020433D01*
X029228Y022189D02*
Y022723D01*
X031811Y021406D02*
X033128Y022723D01*
X031811Y021339D02*
Y021406D01*
X032362Y019724D02*
X033019D01*
X033128Y019833*
X025315Y009049D02*
X026041Y008323D01*
X025315Y009049D02*
Y011732D01*
X023277Y019833D02*
X023678D01*
X022874Y020236D02*
X023277Y019833D01*
G54D22*
X033465Y001969D03*
X01378D03*
X020669Y031496D03*
X001969D03*
G54D23*
X011878Y00706D03*
Y007887D03*
G54D24*
X007878Y015623D03*
X008878D03*
G54D25*
X022491Y008323D03*
X023278D03*
X026041D03*
X026828D03*
X022328Y018623D03*
X021328D03*
X022328Y015273D03*
X021328D03*
X022328Y01191D03*
X021328D03*
X009078Y020794D03*
Y018873D03*
X02689Y014622D03*
Y013622D03*
G54D26*
X005928Y010673D03*
Y002406D03*
X028228Y022723D03*
X029228D03*
X030228D03*
X033128D03*
X034128D03*
X035128D03*
X023078D03*
X024078D03*
X025078D03*
G54D27*
X012756Y01315D03*
Y014134D03*
X015787Y014685D03*
X015827Y016693D03*
X014173Y014252D03*
X014567Y012559D03*
X015866Y013661D03*
X016614Y015512D03*
X015748Y011811D03*
X017402Y016732D03*
X012165Y015591D03*
X014213Y015394D03*
X023346Y005591D03*
X01437Y024606D03*
X013307Y024134D03*
X015079Y025354D03*
X012913Y025D03*
X012835Y018425D03*
X011339Y016811D03*
X031811Y021339D03*
X032362Y019724D03*
X025315Y011732D03*
X01689Y016181D03*
X01311Y016535D03*
X02752Y016575D03*
X030118Y018661D03*
X022874Y020236D03*
X026378Y019213D03*
X028898Y018583D03*
X034724Y016575D03*
X034055Y01874D03*
X012913Y019921D03*
X013583Y020551D03*
X014449Y018819D03*
X015512Y019724D03*
X013346Y018346D03*
X012992Y019252D03*
X014134Y021181D03*
X021772Y022795D03*
X018268Y018622D03*
M02*