%FSTAX24Y24*%
%MOIN*%
%SFA1B1*%

%IPPOS*%
%AMD35*
4,1,8,-0.059000,-0.043300,0.059000,-0.043300,0.082700,-0.019600,0.082700,0.019600,0.059000,0.043300,-0.059000,0.043300,-0.082700,0.019600,-0.082700,-0.019600,-0.059000,-0.043300,0.0*
1,1,0.047400,-0.059000,-0.019600*
1,1,0.047400,0.059000,-0.019600*
1,1,0.047400,0.059000,0.019600*
1,1,0.047400,-0.059000,0.019600*
%
%AMD43*
4,1,8,-0.049200,-0.023700,0.049200,-0.023700,0.063000,-0.009900,0.063000,0.009900,0.049200,0.023700,-0.049200,0.023700,-0.063000,0.009900,-0.063000,-0.009900,-0.049200,-0.023700,0.0*
1,1,0.027600,-0.049200,-0.009900*
1,1,0.027600,0.049200,-0.009900*
1,1,0.027600,0.049200,0.009900*
1,1,0.027600,-0.049200,0.009900*
%
G04~CAMADD=35~8~0.0~0.0~1655.0~867.0~237.0~0.0~15~0.0~0.0~0.0~0.0~0~0.0~0.0~0.0~0.0~0~0.0~0.0~0.0~180.0~1654.0~866.0*
%ADD35D35*%
%ADD36R,0.067100X0.082800*%
%ADD37R,0.082800X0.067100*%
%ADD38O,0.031600X0.065100*%
%ADD39R,0.074900X0.051300*%
%ADD40R,0.051300X0.074900*%
%ADD41O,0.088700X0.031600*%
%ADD42O,0.031600X0.088700*%
G04~CAMADD=43~8~0.0~0.0~1261.0~474.0~138.0~0.0~15~0.0~0.0~0.0~0.0~0~0.0~0.0~0.0~0.0~0~0.0~0.0~0.0~180.0~1260.0~473.0*
%ADD43D43*%
%ADD44C,0.204900*%
%ADD45C,0.055200*%
%ADD46C,0.094600*%
%ADD47C,0.071000*%
%ADD48C,0.086700*%
%ADD49C,0.047400*%
%LNpcb181216ver1-1*%
%LPD*%
G54D35*
X031228Y015273D03*
Y014073D03*
Y011711D03*
Y012911D03*
G54D36*
X012768Y012523D03*
X013988D03*
X019038Y011223D03*
X017818D03*
X019038Y012373D03*
X017818D03*
X019038Y013573D03*
X017818D03*
X019038Y014873D03*
X017818D03*
X028868Y019755D03*
X030088D03*
X034268Y019673D03*
X035488D03*
G54D37*
X011878Y012463D03*
Y013683D03*
X011299Y01498D03*
Y016201D03*
X027278Y019833D03*
Y018613D03*
X033128Y019833D03*
Y018613D03*
X020978Y022163D03*
Y023383D03*
X023678Y019833D03*
Y018613D03*
G54D38*
X013397Y010946D03*
X012897D03*
X012397D03*
X011897D03*
X013397Y0088D03*
X012897D03*
X012397D03*
X011897D03*
G54D39*
X018178Y019242D03*
Y020305D03*
X007428Y020492D03*
Y021555D03*
X007378Y018955D03*
Y017892D03*
G54D40*
X013859Y015052D03*
X012796D03*
G54D41*
X011884Y021298D03*
Y020983D03*
Y020668D03*
Y020353D03*
Y020038D03*
Y019723D03*
Y019408D03*
Y019093D03*
Y018778D03*
Y018463D03*
Y018148D03*
X016372D03*
Y018463D03*
Y018778D03*
Y019093D03*
Y019408D03*
Y019723D03*
Y020038D03*
Y020353D03*
Y020668D03*
Y020983D03*
Y021298D03*
G54D42*
X012553Y017479D03*
X012868D03*
X013183D03*
X013498D03*
X013813D03*
X014128D03*
X014443D03*
X014758D03*
X015073D03*
X015388D03*
X015703D03*
Y021967D03*
X015388D03*
X015073D03*
X014758D03*
X014443D03*
X014128D03*
X013813D03*
X013498D03*
X013183D03*
X012868D03*
X012553D03*
G54D43*
X019628Y028309D03*
Y026537D03*
X016028Y028309D03*
Y026537D03*
X007628D03*
Y028309D03*
X011228Y026537D03*
Y028309D03*
G54D44*
X033465Y001969D03*
X01378D03*
X020669Y031496D03*
X001969D03*
G54D45*
X011878Y00706D03*
Y007887D03*
G54D46*
X007878Y015623D03*
X008878D03*
G54D47*
X022491Y008323D03*
X023278D03*
X026041D03*
X026828D03*
X022328Y018623D03*
X021328D03*
X022328Y015273D03*
X021328D03*
X022328Y01191D03*
X021328D03*
X009078Y020794D03*
Y018873D03*
X02689Y014622D03*
Y013622D03*
G54D48*
X005928Y010673D03*
Y002406D03*
X028228Y022723D03*
X029228D03*
X030228D03*
X033128D03*
X034128D03*
X035128D03*
X023078D03*
X024078D03*
X025078D03*
G54D49*
X012756Y01315D03*
Y014134D03*
X015787Y014685D03*
X015827Y016693D03*
X014173Y014252D03*
X014567Y012559D03*
X015866Y013661D03*
X016614Y015512D03*
X015748Y011811D03*
X017402Y016732D03*
X012165Y015591D03*
X014213Y015394D03*
X023346Y005591D03*
X01437Y024606D03*
X013307Y024134D03*
X015079Y025354D03*
X012913Y025D03*
X012835Y018425D03*
X011339Y016811D03*
X031811Y021339D03*
X032362Y019724D03*
X025315Y011732D03*
X01689Y016181D03*
X01311Y016535D03*
X02752Y016575D03*
X030118Y018661D03*
X022874Y020236D03*
X026378Y019213D03*
X028898Y018583D03*
X034724Y016575D03*
X034055Y01874D03*
X012913Y019921D03*
X013583Y020551D03*
X014449Y018819D03*
X015512Y019724D03*
X013346Y018346D03*
X012992Y019252D03*
X014134Y021181D03*
X021772Y022795D03*
X018268Y018622D03*
M02*