%FSTAX24Y24*%
%MOIN*%
%SFA1B1*%

%IPPOS*%
%ADD19C,0.019700*%
%ADD20C,0.029500*%
%ADD21C,0.039400*%
%ADD22C,0.196900*%
%ADD23C,0.047200*%
%ADD24C,0.086600*%
%ADD25C,0.063000*%
%ADD26C,0.078700*%
%ADD27C,0.039400*%
%LNpcb181216ver1-1*%
%LPD*%
G54D19*
X012756Y01315D02*
D01*
Y014134D01*
X015787Y014685D02*
X015866D01*
X015748Y016693D02*
X015827D01*
X015866Y014685D02*
Y016575D01*
X015748Y016693D02*
X015866Y016575D01*
X014173Y012756D02*
Y014252D01*
Y012756D02*
X01437Y012559D01*
X014567*
X015866Y013661D02*
X016614Y014409D01*
Y015512*
X015748Y011811D02*
X017402Y013465D01*
Y016732*
X012165Y015591D02*
X014134D01*
X014213Y015512*
Y015394D02*
Y015512D01*
X013228Y025354D02*
X015079D01*
X012913Y025039D02*
X013228Y025354D01*
X012913Y025D02*
Y025039D01*
X011339Y016929D02*
X012835Y018425D01*
X011339Y016811D02*
Y016929D01*
X012913Y019921D02*
Y019961D01*
X013504Y020551*
X013583*
X014449Y018819D02*
X015354Y019724D01*
X015512*
X013425Y018819D02*
X014449D01*
X012992Y019252D02*
X013425Y018819D01*
X014134Y021181D02*
X014449Y020866D01*
Y018819D02*
Y020866D01*
G54D20*
X023346Y005591D02*
Y008255D01*
X023278Y008323D02*
X023346Y008255D01*
X013898Y024134D02*
X01437Y024606D01*
X013307Y024134D02*
X013898D01*
X016289Y016782D02*
X01689Y016181D01*
X016289Y016782D02*
Y016884D01*
X016018Y017155D02*
X016289Y016884D01*
X015635Y017155D02*
X016018D01*
X014779Y016299D02*
X015635Y017155D01*
X013346Y016299D02*
X014779D01*
X01311Y016535D02*
X013346Y016299D01*
X02752Y016575D02*
X028425D01*
X030118Y018268*
Y018661*
X026378Y019213D02*
X028268D01*
X028898Y018583*
X028425Y016575D02*
X034724D01*
X034055Y01874D02*
Y020551D01*
X030394Y024213D02*
X034055Y020551D01*
X019882Y024213D02*
X030394D01*
X017244Y021575D02*
X019882Y024213D01*
X017244Y019291D02*
Y021575D01*
X015522Y017569D02*
X017244Y019291D01*
X015464Y017569D02*
X015522D01*
X015454Y017559D02*
X015464Y017569D01*
X014803Y017559D02*
X015454D01*
X014016Y018346D02*
X014803Y017559D01*
X013346Y018346D02*
X014016D01*
X021772Y020118D02*
Y022795D01*
Y020118D02*
X022328Y019562D01*
Y018623D02*
Y019562D01*
X02162Y019331D02*
X022328Y018623D01*
X01874Y019331D02*
X02162D01*
X018268Y018858D02*
X01874Y019331D01*
X018268Y018622D02*
Y018858D01*
G54D21*
X031811Y021339D02*
X032362Y020787D01*
Y019724D02*
Y020787D01*
X025276Y011772D02*
Y022526D01*
X025078Y022723D02*
X025276Y022526D01*
Y011772D02*
X025315Y011732D01*
X022874Y020236D02*
X023078Y02044D01*
Y022723*
G54D22*
X033465Y001969D03*
X01378D03*
X020669Y031496D03*
X001969D03*
G54D23*
X011878Y00706D03*
Y007887D03*
G54D24*
X007878Y015623D03*
X008878D03*
G54D25*
X022491Y008323D03*
X023278D03*
X026041D03*
X026828D03*
X022328Y018623D03*
X021328D03*
X022328Y015273D03*
X021328D03*
X022328Y01191D03*
X021328D03*
X009078Y020794D03*
Y018873D03*
X02689Y014622D03*
Y013622D03*
G54D26*
X005928Y010673D03*
Y002406D03*
X028228Y022723D03*
X029228D03*
X030228D03*
X033128D03*
X034128D03*
X035128D03*
X023078D03*
X024078D03*
X025078D03*
G54D27*
X012756Y01315D03*
Y014134D03*
X015787Y014685D03*
X015827Y016693D03*
X014173Y014252D03*
X014567Y012559D03*
X015866Y013661D03*
X016614Y015512D03*
X015748Y011811D03*
X017402Y016732D03*
X012165Y015591D03*
X014213Y015394D03*
X023346Y005591D03*
X01437Y024606D03*
X013307Y024134D03*
X015079Y025354D03*
X012913Y025D03*
X012835Y018425D03*
X011339Y016811D03*
X031811Y021339D03*
X032362Y019724D03*
X025315Y011732D03*
X01689Y016181D03*
X01311Y016535D03*
X02752Y016575D03*
X030118Y018661D03*
X022874Y020236D03*
X026378Y019213D03*
X028898Y018583D03*
X034724Y016575D03*
X034055Y01874D03*
X012913Y019921D03*
X013583Y020551D03*
X014449Y018819D03*
X015512Y019724D03*
X013346Y018346D03*
X012992Y019252D03*
X014134Y021181D03*
X021772Y022795D03*
X018268Y018622D03*
M02*