%FSTAX24Y24*%
%MOIN*%
%SFA1B1*%

%IPPOS*%
%AMD10*
4,1,8,-0.059000,-0.039300,0.059000,-0.039300,0.078700,-0.019600,0.078700,0.019600,0.059000,0.039300,-0.059000,0.039300,-0.078700,0.019600,-0.078700,-0.019600,-0.059000,-0.039300,0.0*
1,1,0.039400,-0.059000,-0.019600*
1,1,0.039400,0.059000,-0.019600*
1,1,0.039400,0.059000,0.019600*
1,1,0.039400,-0.059000,0.019600*
%
%AMD18*
4,1,8,-0.049200,-0.019700,0.049200,-0.019700,0.059000,-0.009900,0.059000,0.009900,0.049200,0.019700,-0.049200,0.019700,-0.059000,0.009900,-0.059000,-0.009900,-0.049200,-0.019700,0.0*
1,1,0.019600,-0.049200,-0.009900*
1,1,0.019600,0.049200,-0.009900*
1,1,0.019600,0.049200,0.009900*
1,1,0.019600,-0.049200,0.009900*
%
G04~CAMADD=10~8~0.0~0.0~1575.0~787.0~197.0~0.0~15~0.0~0.0~0.0~0.0~0~0.0~0.0~0.0~0.0~0~0.0~0.0~0.0~180.0~1574.0~786.0*
%ADD10D10*%
%ADD11R,0.059100X0.074800*%
%ADD12R,0.074800X0.059100*%
%ADD13O,0.023600X0.057100*%
%ADD14R,0.066900X0.043300*%
%ADD15R,0.043300X0.066900*%
%ADD16O,0.080700X0.023600*%
%ADD17O,0.023600X0.080700*%
G04~CAMADD=18~8~0.0~0.0~1181.0~394.0~98.0~0.0~15~0.0~0.0~0.0~0.0~0~0.0~0.0~0.0~0.0~0~0.0~0.0~0.0~180.0~1180.0~393.0*
%ADD18D18*%
%LNpcb181216ver1-1*%
%LPD*%
G54D10*
X031228Y015273D03*
Y014073D03*
Y011711D03*
Y012911D03*
G54D11*
X012768Y012523D03*
X013988D03*
X019038Y011223D03*
X017818D03*
X019038Y012373D03*
X017818D03*
X019038Y013573D03*
X017818D03*
X019038Y014873D03*
X017818D03*
X028868Y019755D03*
X030088D03*
X034268Y019673D03*
X035488D03*
G54D12*
X011878Y012463D03*
Y013683D03*
X011299Y01498D03*
Y016201D03*
X027278Y019833D03*
Y018613D03*
X033128Y019833D03*
Y018613D03*
X020978Y022163D03*
Y023383D03*
X023678Y019833D03*
Y018613D03*
G54D13*
X013397Y010946D03*
X012897D03*
X012397D03*
X011897D03*
X013397Y0088D03*
X012897D03*
X012397D03*
X011897D03*
G54D14*
X018178Y019242D03*
Y020305D03*
X007428Y020492D03*
Y021555D03*
X007378Y018955D03*
Y017892D03*
G54D15*
X013859Y015052D03*
X012796D03*
G54D16*
X011884Y021298D03*
Y020983D03*
Y020668D03*
Y020353D03*
Y020038D03*
Y019723D03*
Y019408D03*
Y019093D03*
Y018778D03*
Y018463D03*
Y018148D03*
X016372D03*
Y018463D03*
Y018778D03*
Y019093D03*
Y019408D03*
Y019723D03*
Y020038D03*
Y020353D03*
Y020668D03*
Y020983D03*
Y021298D03*
G54D17*
X012553Y017479D03*
X012868D03*
X013183D03*
X013498D03*
X013813D03*
X014128D03*
X014443D03*
X014758D03*
X015073D03*
X015388D03*
X015703D03*
Y021967D03*
X015388D03*
X015073D03*
X014758D03*
X014443D03*
X014128D03*
X013813D03*
X013498D03*
X013183D03*
X012868D03*
X012553D03*
G54D18*
X019628Y028309D03*
Y026537D03*
X016028Y028309D03*
Y026537D03*
X007628D03*
Y028309D03*
X011228Y026537D03*
Y028309D03*
M02*