%FSTAX24Y24*%
%MOMM*%
%SFA1B1*%

%IPPOS*%
%ADD31C,0.253999*%
%ADD32C,0.200000*%
%LNpcbpannel-1*%
%LPD*%
G54D31*
X0Y0D02*
X2182499D01*
X1104999Y147499D02*
Y742499D01*
X1027499Y069999D02*
X1104999Y147499D01*
X069999Y069999D02*
X1027499D01*
Y819999D02*
X1104999Y742499D01*
X069999Y819999D02*
X1027499D01*
X069999Y069999D02*
Y819999D01*
X1104999Y917499D02*
Y1512499D01*
X1027499Y839999D02*
X1104999Y917499D01*
X069999Y839999D02*
X1027499D01*
Y1589999D02*
X1104999Y1512499D01*
X069999Y1589999D02*
X1027499D01*
X069999Y839999D02*
Y1589999D01*
X2159999Y917499D02*
Y1512499D01*
X2082499Y839999D02*
X2159999Y917499D01*
X1124999Y839999D02*
X2082499D01*
Y1589999D02*
X2159999Y1512499D01*
X1124999Y1589999D02*
X2082499D01*
X1124999Y839999D02*
Y1589999D01*
X2159999Y147499D02*
Y742499D01*
X2082499Y069999D02*
X2159999Y147499D01*
X1124999Y069999D02*
X2082499D01*
Y819999D02*
X2159999Y742499D01*
X1124999Y819999D02*
X2082499D01*
X1124999Y069999D02*
Y819999D01*
G54D32*
X459999Y819999D02*
D01*
X460697Y820024*
X461391Y820097*
X462079Y820218*
X462756Y820387*
X463419Y820602*
X464067Y820864*
X464694Y82117*
X465299Y821519*
X465877Y821909*
X466427Y822339*
X466946Y822806*
X467431Y823308*
X467879Y823843*
X46829Y824408*
X46866Y824999*
X468987Y825616*
X469271Y826253*
X46951Y826909*
X469702Y82758*
X469847Y828263*
X469945Y828954*
X469993Y82965*
Y830348*
X469945Y831045*
X469847Y831736*
X469702Y832419*
X46951Y83309*
X469271Y833745*
X468987Y834383*
X46866Y834999*
X46829Y835591*
X467879Y836156*
X467431Y836691*
X466946Y837193*
X466427Y83766*
X465877Y83809*
X465299Y83848*
X464694Y838829*
X464067Y839135*
X463419Y839396*
X462756Y839612*
X462079Y839781*
X461391Y839902*
X460697Y839975*
X459999Y839999*
X509999D02*
D01*
X509302Y839975*
X508608Y839902*
X50792Y839781*
X507243Y839612*
X506579Y839396*
X505932Y839135*
X505305Y838829*
X5047Y83848*
X504121Y83809*
X503572Y83766*
X503053Y837193*
X502568Y836691*
X502119Y836156*
X501709Y835591*
X501339Y834999*
X501011Y834383*
X500727Y833745*
X500489Y83309*
X500296Y832419*
X500151Y831736*
X500054Y831045*
X500005Y830348*
Y82965*
X500054Y828954*
X500151Y828263*
X500296Y82758*
X500489Y826909*
X500727Y826253*
X501011Y825616*
X501339Y824999*
X501709Y824408*
X502119Y823843*
X502568Y823308*
X503053Y822806*
X503572Y822339*
X504121Y821909*
X5047Y821519*
X505305Y82117*
X505932Y820864*
X506579Y820602*
X507243Y820387*
X50792Y820218*
X508608Y820097*
X509302Y820024*
X509999Y819999*
X942499Y839999D02*
D01*
X941802Y839975*
X941108Y839902*
X94042Y839781*
X939743Y839612*
X939079Y839396*
X938432Y839135*
X937805Y838829*
X9372Y83848*
X936621Y83809*
X936072Y83766*
X935553Y837193*
X935068Y836691*
X934619Y836156*
X934209Y835591*
X933839Y834999*
X933511Y834383*
X933228Y833745*
X932989Y83309*
X932796Y832419*
X932651Y831736*
X932554Y831045*
X932505Y830348*
Y82965*
X932554Y828954*
X932651Y828263*
X932796Y82758*
X932989Y826909*
X933228Y826253*
X933511Y825616*
X933839Y824999*
X934209Y824408*
X934619Y823843*
X935068Y823308*
X935553Y822806*
X936072Y822339*
X936621Y821909*
X9372Y821519*
X937805Y82117*
X938432Y820864*
X939079Y820602*
X939743Y820387*
X94042Y820218*
X941108Y820097*
X941802Y820024*
X942499Y819999*
X892499D02*
D01*
X893197Y820024*
X893891Y820097*
X894579Y820218*
X895256Y820387*
X895919Y820602*
X896567Y820864*
X897194Y82117*
X897799Y821519*
X898377Y821909*
X898927Y822339*
X899446Y822806*
X899931Y823308*
X900379Y823843*
X90079Y824408*
X90116Y824999*
X901487Y825616*
X901771Y826253*
X90201Y826909*
X902202Y82758*
X902347Y828263*
X902444Y828954*
X902493Y82965*
Y830348*
X902444Y831045*
X902347Y831736*
X902202Y832419*
X90201Y83309*
X901771Y833745*
X901487Y834383*
X90116Y834999*
X90079Y835591*
X900379Y836156*
X899931Y836691*
X899446Y837193*
X898927Y83766*
X898377Y83809*
X897799Y83848*
X897194Y838829*
X896567Y839135*
X895919Y839396*
X895256Y839612*
X894579Y839781*
X893891Y839902*
X893197Y839975*
X892499Y839999*
X167499D02*
D01*
X166802Y839975*
X166108Y839902*
X16542Y839781*
X164743Y839612*
X164079Y839396*
X163432Y839135*
X162805Y838829*
X1622Y83848*
X161621Y83809*
X161072Y83766*
X160553Y837193*
X160068Y836691*
X159619Y836156*
X159209Y835591*
X158839Y834999*
X158512Y834383*
X158228Y833745*
X157989Y83309*
X157796Y832419*
X157651Y831736*
X157554Y831045*
X157505Y830348*
Y82965*
X157554Y828954*
X157651Y828263*
X157796Y82758*
X157989Y826909*
X158228Y826253*
X158512Y825616*
X158839Y824999*
X159209Y824408*
X159619Y823843*
X160068Y823308*
X160553Y822806*
X161072Y822339*
X161621Y821909*
X1622Y821519*
X162805Y82117*
X163432Y820864*
X164079Y820602*
X164743Y820387*
X16542Y820218*
X166108Y820097*
X166802Y820024*
X167499Y819999*
X117499D02*
D01*
X118197Y820024*
X118891Y820097*
X119578Y820218*
X120256Y820387*
X12092Y820602*
X121567Y820864*
X122194Y82117*
X122799Y821519*
X123377Y821909*
X123927Y822339*
X124446Y822806*
X124931Y823308*
X125379Y823843*
X12579Y824408*
X12616Y824999*
X126487Y825616*
X126771Y826253*
X12701Y826909*
X127202Y82758*
X127347Y828263*
X127445Y828954*
X127493Y82965*
Y830348*
X127445Y831045*
X127347Y831736*
X127202Y832419*
X12701Y83309*
X126771Y833745*
X126487Y834383*
X12616Y834999*
X12579Y835591*
X125379Y836156*
X124931Y836691*
X124446Y837193*
X123927Y83766*
X123377Y83809*
X122799Y83848*
X122194Y838829*
X121567Y839135*
X12092Y839396*
X120256Y839612*
X119578Y839781*
X118891Y839902*
X118197Y839975*
X117499Y839999*
X899999Y1589999D02*
D01*
X900697Y1590024*
X901391Y1590097*
X902078Y1590218*
X902756Y1590387*
X90342Y1590602*
X904067Y1590864*
X904694Y159117*
X905299Y1591519*
X905877Y1591909*
X906427Y1592339*
X906946Y1592806*
X907431Y1593308*
X90788Y1593843*
X90829Y1594408*
X90866Y1594999*
X908987Y1595616*
X909271Y1596253*
X90951Y1596909*
X909702Y159758*
X909848Y1598263*
X909945Y1598954*
X909993Y159965*
Y1600348*
X909945Y1601045*
X909848Y1601736*
X909702Y1602419*
X90951Y160309*
X909271Y1603745*
X908987Y1604383*
X90866Y1604999*
X90829Y1605591*
X90788Y1606156*
X907431Y1606691*
X906946Y1607193*
X906427Y160766*
X905877Y160809*
X905299Y160848*
X904694Y1608829*
X904067Y1609135*
X90342Y1609396*
X902756Y1609612*
X902078Y1609781*
X901391Y1609902*
X900697Y1609975*
X899999Y1609999*
X949999D02*
D01*
X949302Y1609975*
X948608Y1609902*
X94792Y1609781*
X947243Y1609612*
X946579Y1609396*
X945932Y1609135*
X945305Y1608829*
X9447Y160848*
X944122Y160809*
X943571Y160766*
X943053Y1607193*
X942568Y1606691*
X942119Y1606156*
X941709Y1605591*
X941339Y1604999*
X941011Y1604383*
X940728Y1603745*
X940489Y160309*
X940296Y1602419*
X940151Y1601736*
X940054Y1601045*
X940005Y1600348*
Y159965*
X940054Y1598954*
X940151Y1598263*
X940296Y159758*
X940489Y1596909*
X940728Y1596253*
X941011Y1595616*
X941339Y1594999*
X941709Y1594408*
X942119Y1593843*
X942568Y1593308*
X943053Y1592806*
X943571Y1592339*
X944122Y1591909*
X9447Y1591519*
X945305Y159117*
X945932Y1590864*
X946579Y1590602*
X947243Y1590387*
X94792Y1590218*
X948608Y1590097*
X949302Y1590024*
X949999Y1589999*
X489999D02*
D01*
X490697Y1590024*
X491391Y1590097*
X492079Y1590218*
X492756Y1590387*
X49342Y1590602*
X494067Y1590864*
X494694Y159117*
X495298Y1591519*
X495877Y1591909*
X496427Y1592339*
X496946Y1592806*
X497431Y1593308*
X497879Y1593843*
X49829Y1594408*
X49866Y1594999*
X498987Y1595616*
X499271Y1596253*
X49951Y1596909*
X499702Y159758*
X499847Y1598263*
X499945Y1598954*
X499993Y159965*
Y1600348*
X499945Y1601045*
X499847Y1601736*
X499702Y1602419*
X49951Y160309*
X499271Y1603745*
X498987Y1604383*
X49866Y1604999*
X49829Y1605591*
X497879Y1606156*
X497431Y1606691*
X496946Y1607193*
X496427Y160766*
X495877Y160809*
X495298Y160848*
X494694Y1608829*
X494067Y1609135*
X49342Y1609396*
X492756Y1609612*
X492079Y1609781*
X491391Y1609902*
X490697Y1609975*
X489999Y1609999*
X539999D02*
D01*
X539302Y1609975*
X538608Y1609902*
X53792Y1609781*
X537243Y1609612*
X536579Y1609396*
X535932Y1609135*
X535305Y1608829*
X5347Y160848*
X534122Y160809*
X533571Y160766*
X533053Y1607193*
X532568Y1606691*
X532119Y1606156*
X531709Y1605591*
X531339Y1604999*
X531011Y1604383*
X530727Y1603745*
X530489Y160309*
X530296Y1602419*
X530151Y1601736*
X530054Y1601045*
X530006Y1600348*
Y159965*
X530054Y1598954*
X530151Y1598263*
X530296Y159758*
X530489Y1596909*
X530727Y1596253*
X531011Y1595616*
X531339Y1594999*
X531709Y1594408*
X532119Y1593843*
X532568Y1593308*
X533053Y1592806*
X533571Y1592339*
X534122Y1591909*
X5347Y1591519*
X535305Y159117*
X535932Y1590864*
X536579Y1590602*
X537243Y1590387*
X53792Y1590218*
X538608Y1590097*
X539302Y1590024*
X539999Y1589999*
X109999D02*
D01*
X110697Y1590024*
X111391Y1590097*
X112079Y1590218*
X112756Y1590387*
X11342Y1590602*
X114067Y1590864*
X114694Y159117*
X115298Y1591519*
X115877Y1591909*
X116427Y1592339*
X116946Y1592806*
X117431Y1593308*
X117879Y1593843*
X11829Y1594408*
X11866Y1594999*
X118987Y1595616*
X119271Y1596253*
X11951Y1596909*
X119702Y159758*
X119847Y1598263*
X119945Y1598954*
X119993Y159965*
Y1600348*
X119945Y1601045*
X119847Y1601736*
X119702Y1602419*
X11951Y160309*
X119271Y1603745*
X118987Y1604383*
X11866Y1604999*
X11829Y1605591*
X117879Y1606156*
X117431Y1606691*
X116946Y1607193*
X116427Y160766*
X115877Y160809*
X115298Y160848*
X114694Y1608829*
X114067Y1609135*
X11342Y1609396*
X112756Y1609612*
X112079Y1609781*
X111391Y1609902*
X110697Y1609975*
X109999Y1609999*
X159999D02*
D01*
X159302Y1609975*
X158608Y1609902*
X15792Y1609781*
X157243Y1609612*
X156579Y1609396*
X155932Y1609135*
X155305Y1608829*
X1547Y160848*
X154122Y160809*
X153571Y160766*
X153053Y1607193*
X152568Y1606691*
X152119Y1606156*
X151709Y1605591*
X151339Y1604999*
X151011Y1604383*
X150727Y1603745*
X150489Y160309*
X150296Y1602419*
X150151Y1601736*
X150054Y1601045*
X150006Y1600348*
Y159965*
X150054Y1598954*
X150151Y1598263*
X150296Y159758*
X150489Y1596909*
X150727Y1596253*
X151011Y1595616*
X151339Y1594999*
X151709Y1594408*
X152119Y1593843*
X152568Y1593308*
X153053Y1592806*
X153571Y1592339*
X154122Y1591909*
X1547Y1591519*
X155305Y159117*
X155932Y1590864*
X156579Y1590602*
X157243Y1590387*
X15792Y1590218*
X158608Y1590097*
X159302Y1590024*
X159999Y1589999*
X069999Y1404999D02*
D01*
X069975Y1405697*
X069902Y1406391*
X069781Y1407078*
X069612Y1407756*
X069396Y140842*
X069135Y1409067*
X068829Y1409694*
X06848Y1410299*
X06809Y1410877*
X06766Y1411427*
X067193Y1411946*
X066691Y1412431*
X066156Y141288*
X065591Y141329*
X064999Y141366*
X064383Y1413987*
X063745Y1414271*
X06309Y141451*
X062418Y1414702*
X061736Y1414848*
X061045Y1414945*
X060348Y1414993*
X05965*
X058954Y1414945*
X058263Y1414848*
X05758Y1414702*
X056909Y141451*
X056253Y1414271*
X055616Y1413987*
X054999Y141366*
X054408Y141329*
X053843Y141288*
X053308Y1412431*
X052806Y1411946*
X052339Y1411427*
X051909Y1410877*
X051519Y1410299*
X05117Y1409694*
X050864Y1409067*
X050602Y140842*
X050387Y1407756*
X050218Y1407078*
X050097Y1406391*
X050024Y1405697*
X049999Y1404999*
Y1454999D02*
D01*
X050024Y1454302*
X050097Y1453608*
X050218Y145292*
X050387Y1452243*
X050602Y1451579*
X050864Y1450932*
X05117Y1450305*
X051519Y14497*
X051909Y1449122*
X052339Y1448571*
X052806Y1448053*
X053308Y1447568*
X053843Y1447119*
X054408Y1446709*
X054999Y1446339*
X055616Y1446011*
X056253Y1445728*
X056909Y1445489*
X05758Y1445296*
X058263Y1445151*
X058954Y1445054*
X05965Y1445006*
X060348*
X061045Y1445054*
X061736Y1445151*
X062418Y1445296*
X06309Y1445489*
X063745Y1445728*
X064383Y1446011*
X064999Y1446339*
X065591Y1446709*
X066156Y1447119*
X066691Y1447568*
X067193Y1448053*
X06766Y1448571*
X06809Y1449122*
X06848Y14497*
X068829Y1450305*
X069135Y1450932*
X069396Y1451579*
X069612Y1452243*
X069781Y145292*
X069902Y1453608*
X069975Y1454302*
X069999Y1454999*
Y1054999D02*
D01*
X069975Y1055697*
X069902Y1056391*
X069781Y1057078*
X069612Y1057756*
X069396Y105842*
X069135Y1059067*
X068829Y1059694*
X06848Y1060299*
X06809Y1060877*
X06766Y1061427*
X067193Y1061946*
X066691Y1062431*
X066156Y106288*
X065591Y106329*
X064999Y106366*
X064383Y1063987*
X063745Y1064271*
X06309Y106451*
X062418Y1064702*
X061736Y1064848*
X061045Y1064945*
X060348Y1064993*
X05965*
X058954Y1064945*
X058263Y1064848*
X05758Y1064702*
X056909Y106451*
X056253Y1064271*
X055616Y1063987*
X054999Y106366*
X054408Y106329*
X053843Y106288*
X053308Y1062431*
X052806Y1061946*
X052339Y1061427*
X051909Y1060877*
X051519Y1060299*
X05117Y1059694*
X050864Y1059067*
X050602Y105842*
X050387Y1057756*
X050218Y1057078*
X050097Y1056391*
X050024Y1055697*
X049999Y1054999*
Y1104999D02*
D01*
X050024Y1104302*
X050097Y1103608*
X050218Y110292*
X050387Y1102243*
X050602Y1101579*
X050864Y1100932*
X05117Y1100305*
X051519Y10997*
X051909Y1099122*
X052339Y1098572*
X052806Y1098053*
X053308Y1097568*
X053843Y1097119*
X054408Y1096709*
X054999Y1096339*
X055616Y1096012*
X056253Y1095728*
X056909Y1095489*
X05758Y1095297*
X058263Y1095151*
X058954Y1095054*
X05965Y1095005*
X060348*
X061045Y1095054*
X061736Y1095151*
X062418Y1095297*
X06309Y1095489*
X063745Y1095728*
X064383Y1096012*
X064999Y1096339*
X065591Y1096709*
X066156Y1097119*
X066691Y1097568*
X067193Y1098053*
X06766Y1098572*
X06809Y1099122*
X06848Y10997*
X068829Y1100305*
X069135Y1100932*
X069396Y1101579*
X069612Y1102243*
X069781Y110292*
X069902Y1103608*
X069975Y1104302*
X069999Y1104999*
X179999Y069999D02*
D01*
X179302Y069975*
X178608Y069902*
X17792Y069781*
X177243Y069612*
X176579Y069396*
X175932Y069135*
X175305Y068829*
X1747Y06848*
X174122Y06809*
X173571Y06766*
X173053Y067193*
X172568Y066691*
X172119Y066156*
X171709Y065591*
X171339Y064999*
X171011Y064383*
X170728Y063745*
X170489Y06309*
X170296Y062418*
X170151Y061736*
X170054Y061045*
X170006Y060348*
Y05965*
X170054Y058954*
X170151Y058263*
X170296Y05758*
X170489Y056909*
X170728Y056253*
X171011Y055616*
X171339Y054999*
X171709Y054408*
X172119Y053843*
X172568Y053308*
X173053Y052806*
X173571Y052339*
X174122Y051909*
X1747Y051519*
X175305Y05117*
X175932Y050864*
X176579Y050602*
X177243Y050387*
X17792Y050218*
X178608Y050097*
X179302Y050024*
X179999Y049999*
X129999D02*
D01*
X130697Y050024*
X131391Y050097*
X132078Y050218*
X132756Y050387*
X13342Y050602*
X134067Y050864*
X134694Y05117*
X135298Y051519*
X135877Y051909*
X136427Y052339*
X136946Y052806*
X137431Y053308*
X13788Y053843*
X13829Y054408*
X13866Y054999*
X138987Y055616*
X139271Y056253*
X13951Y056909*
X139702Y05758*
X139847Y058263*
X139945Y058954*
X139993Y05965*
Y060348*
X139945Y061045*
X139847Y061736*
X139702Y062418*
X13951Y06309*
X139271Y063745*
X138987Y064383*
X13866Y064999*
X13829Y065591*
X13788Y066156*
X137431Y066691*
X136946Y067193*
X136427Y06766*
X135877Y06809*
X135298Y06848*
X134694Y068829*
X134067Y069135*
X13342Y069396*
X132756Y069612*
X132078Y069781*
X131391Y069902*
X130697Y069975*
X129999Y069999*
X599999D02*
D01*
X599302Y069975*
X598608Y069902*
X59792Y069781*
X597243Y069612*
X596579Y069396*
X595932Y069135*
X595305Y068829*
X5947Y06848*
X594122Y06809*
X593572Y06766*
X593053Y067193*
X592568Y066691*
X592119Y066156*
X591709Y065591*
X591339Y064999*
X591012Y064383*
X590728Y063745*
X590489Y06309*
X590297Y062418*
X590151Y061736*
X590054Y061045*
X590005Y060348*
Y05965*
X590054Y058954*
X590151Y058263*
X590297Y05758*
X590489Y056909*
X590728Y056253*
X591012Y055616*
X591339Y054999*
X591709Y054408*
X592119Y053843*
X592568Y053308*
X593053Y052806*
X593572Y052339*
X594122Y051909*
X5947Y051519*
X595305Y05117*
X595932Y050864*
X596579Y050602*
X597243Y050387*
X59792Y050218*
X598608Y050097*
X599302Y050024*
X599999Y049999*
X549999D02*
D01*
X550697Y050024*
X551391Y050097*
X552078Y050218*
X552756Y050387*
X55342Y050602*
X554067Y050864*
X554694Y05117*
X555299Y051519*
X555877Y051909*
X556427Y052339*
X556946Y052806*
X557431Y053308*
X55788Y053843*
X55829Y054408*
X55866Y054999*
X558987Y055616*
X559271Y056253*
X55951Y056909*
X559702Y05758*
X559848Y058263*
X559945Y058954*
X559993Y05965*
Y060348*
X559945Y061045*
X559848Y061736*
X559702Y062418*
X55951Y06309*
X559271Y063745*
X558987Y064383*
X55866Y064999*
X55829Y065591*
X55788Y066156*
X557431Y066691*
X556946Y067193*
X556427Y06766*
X555877Y06809*
X555299Y06848*
X554694Y068829*
X554067Y069135*
X55342Y069396*
X552756Y069612*
X552078Y069781*
X551391Y069902*
X550697Y069975*
X549999Y069999*
X949999D02*
D01*
X949302Y069975*
X948608Y069902*
X94792Y069781*
X947243Y069612*
X946579Y069396*
X945932Y069135*
X945305Y068829*
X9447Y06848*
X944122Y06809*
X943571Y06766*
X943053Y067193*
X942568Y066691*
X942119Y066156*
X941709Y065591*
X941339Y064999*
X941011Y064383*
X940728Y063745*
X940489Y06309*
X940296Y062418*
X940151Y061736*
X940054Y061045*
X940005Y060348*
Y05965*
X940054Y058954*
X940151Y058263*
X940296Y05758*
X940489Y056909*
X940728Y056253*
X941011Y055616*
X941339Y054999*
X941709Y054408*
X942119Y053843*
X942568Y053308*
X943053Y052806*
X943571Y052339*
X944122Y051909*
X9447Y051519*
X945305Y05117*
X945932Y050864*
X946579Y050602*
X947243Y050387*
X94792Y050218*
X948608Y050097*
X949302Y050024*
X949999Y049999*
X899999D02*
D01*
X900697Y050024*
X901391Y050097*
X902078Y050218*
X902756Y050387*
X90342Y050602*
X904067Y050864*
X904694Y05117*
X905299Y051519*
X905877Y051909*
X906427Y052339*
X906946Y052806*
X907431Y053308*
X90788Y053843*
X90829Y054408*
X90866Y054999*
X908987Y055616*
X909271Y056253*
X90951Y056909*
X909702Y05758*
X909848Y058263*
X909945Y058954*
X909993Y05965*
Y060348*
X909945Y061045*
X909848Y061736*
X909702Y062418*
X90951Y06309*
X909271Y063745*
X908987Y064383*
X90866Y064999*
X90829Y065591*
X90788Y066156*
X907431Y066691*
X906946Y067193*
X906427Y06766*
X905877Y06809*
X905299Y06848*
X904694Y068829*
X904067Y069135*
X90342Y069396*
X902756Y069612*
X902078Y069781*
X901391Y069902*
X900697Y069975*
X899999Y069999*
X127D02*
D01*
X1269302Y069975*
X1268608Y069902*
X126792Y069781*
X1267243Y069612*
X1266579Y069396*
X1265932Y069135*
X1265305Y068829*
X12647Y06848*
X1264121Y06809*
X1263572Y06766*
X1263053Y067193*
X1262568Y066691*
X1262119Y066156*
X1261709Y065591*
X1261339Y064999*
X1261011Y064383*
X1260727Y063745*
X1260489Y06309*
X1260296Y062418*
X1260151Y061736*
X1260054Y061045*
X1260005Y060348*
Y05965*
X1260054Y058954*
X1260151Y058263*
X1260296Y05758*
X1260489Y056909*
X1260727Y056253*
X1261011Y055616*
X1261339Y054999*
X1261709Y054408*
X1262119Y053843*
X1262568Y053308*
X1263053Y052806*
X1263572Y052339*
X1264121Y051909*
X12647Y051519*
X1265305Y05117*
X1265932Y050864*
X1266579Y050602*
X1267243Y050387*
X126792Y050218*
X1268608Y050097*
X1269302Y050024*
X127Y049999*
X1219999D02*
D01*
X1220697Y050024*
X1221391Y050097*
X1222079Y050218*
X1222756Y050387*
X1223419Y050602*
X1224067Y050864*
X1224694Y05117*
X1225299Y051519*
X1225877Y051909*
X1226427Y052339*
X1226946Y052806*
X1227431Y053308*
X1227879Y053843*
X122829Y054408*
X122866Y054999*
X1228987Y055616*
X1229271Y056253*
X122951Y056909*
X1229702Y05758*
X1229847Y058263*
X1229945Y058954*
X1229993Y05965*
Y060348*
X1229945Y061045*
X1229847Y061736*
X1229702Y062418*
X122951Y06309*
X1229271Y063745*
X1228987Y064383*
X122866Y064999*
X122829Y065591*
X1227879Y066156*
X1227431Y066691*
X1226946Y067193*
X1226427Y06766*
X1225877Y06809*
X1225299Y06848*
X1224694Y068829*
X1224067Y069135*
X1223419Y069396*
X1222756Y069612*
X1222079Y069781*
X1221391Y069902*
X1220697Y069975*
X1219999Y069999*
X1694999D02*
D01*
X1694302Y069975*
X1693608Y069902*
X169292Y069781*
X1692243Y069612*
X1691579Y069396*
X1690932Y069135*
X1690305Y068829*
X16897Y06848*
X1689122Y06809*
X1688571Y06766*
X1688053Y067193*
X1687568Y066691*
X1687119Y066156*
X1686709Y065591*
X1686339Y064999*
X1686011Y064383*
X1685728Y063745*
X1685489Y06309*
X1685296Y062418*
X1685151Y061736*
X1685054Y061045*
X1685006Y060348*
Y05965*
X1685054Y058954*
X1685151Y058263*
X1685296Y05758*
X1685489Y056909*
X1685728Y056253*
X1686011Y055616*
X1686339Y054999*
X1686709Y054408*
X1687119Y053843*
X1687568Y053308*
X1688053Y052806*
X1688571Y052339*
X1689122Y051909*
X16897Y051519*
X1690305Y05117*
X1690932Y050864*
X1691579Y050602*
X1692243Y050387*
X169292Y050218*
X1693608Y050097*
X1694302Y050024*
X1694999Y049999*
X1644999D02*
D01*
X1645697Y050024*
X1646391Y050097*
X1647079Y050218*
X1647756Y050387*
X164842Y050602*
X1649067Y050864*
X1649694Y05117*
X1650298Y051519*
X1650877Y051909*
X1651427Y052339*
X1651946Y052806*
X1652431Y053308*
X1652879Y053843*
X165329Y054408*
X165366Y054999*
X1653987Y055616*
X1654271Y056253*
X165451Y056909*
X1654702Y05758*
X1654847Y058263*
X1654945Y058954*
X1654993Y05965*
Y060348*
X1654945Y061045*
X1654847Y061736*
X1654702Y062418*
X165451Y06309*
X1654271Y063745*
X1653987Y064383*
X165366Y064999*
X165329Y065591*
X1652879Y066156*
X1652431Y066691*
X1651946Y067193*
X1651427Y06766*
X1650877Y06809*
X1650298Y06848*
X1649694Y068829*
X1649067Y069135*
X164842Y069396*
X1647756Y069612*
X1647079Y069781*
X1646391Y069902*
X1645697Y069975*
X1644999Y069999*
X2009999D02*
D01*
X2009302Y069975*
X2008608Y069902*
X200792Y069781*
X2007243Y069612*
X2006579Y069396*
X2005932Y069135*
X2005305Y068829*
X20047Y06848*
X2004121Y06809*
X2003572Y06766*
X2003053Y067193*
X2002568Y066691*
X2002119Y066156*
X2001709Y065591*
X2001339Y064999*
X2001012Y064383*
X2000728Y063745*
X2000489Y06309*
X2000296Y062418*
X2000151Y061736*
X2000054Y061045*
X2000005Y060348*
Y05965*
X2000054Y058954*
X2000151Y058263*
X2000296Y05758*
X2000489Y056909*
X2000728Y056253*
X2001012Y055616*
X2001339Y054999*
X2001709Y054408*
X2002119Y053843*
X2002568Y053308*
X2003053Y052806*
X2003572Y052339*
X2004121Y051909*
X20047Y051519*
X2005305Y05117*
X2005932Y050864*
X2006579Y050602*
X2007243Y050387*
X200792Y050218*
X2008608Y050097*
X2009302Y050024*
X2009999Y049999*
X1959999D02*
D01*
X1960697Y050024*
X1961391Y050097*
X1962078Y050218*
X1962756Y050387*
X196342Y050602*
X1964067Y050864*
X1964694Y05117*
X1965299Y051519*
X1965877Y051909*
X1966427Y052339*
X1966946Y052806*
X1967431Y053308*
X1967879Y053843*
X196829Y054408*
X196866Y054999*
X1968987Y055616*
X1969271Y056253*
X196951Y056909*
X1969702Y05758*
X1969847Y058263*
X1969945Y058954*
X1969993Y05965*
Y060348*
X1969945Y061045*
X1969847Y061736*
X1969702Y062418*
X196951Y06309*
X1969271Y063745*
X1968987Y064383*
X196866Y064999*
X196829Y065591*
X1967879Y066156*
X1967431Y066691*
X1966946Y067193*
X1966427Y06766*
X1965877Y06809*
X1965299Y06848*
X1964694Y068829*
X1964067Y069135*
X196342Y069396*
X1962756Y069612*
X1962078Y069781*
X1961391Y069902*
X1960697Y069975*
X1959999Y069999*
Y819999D02*
D01*
X1960697Y820024*
X1961391Y820097*
X1962078Y820218*
X1962756Y820387*
X196342Y820602*
X1964067Y820864*
X1964694Y82117*
X1965299Y821519*
X1965877Y821909*
X1966427Y822339*
X1966946Y822806*
X1967431Y823308*
X1967879Y823843*
X196829Y824408*
X196866Y824999*
X1968987Y825616*
X1969271Y826253*
X196951Y826909*
X1969702Y82758*
X1969847Y828263*
X1969945Y828954*
X1969993Y82965*
Y830348*
X1969945Y831045*
X1969847Y831736*
X1969702Y832419*
X196951Y83309*
X1969271Y833745*
X1968987Y834383*
X196866Y834999*
X196829Y835591*
X1967879Y836156*
X1967431Y836691*
X1966946Y837193*
X1966427Y83766*
X1965877Y83809*
X1965299Y83848*
X1964694Y838829*
X1964067Y839135*
X196342Y839396*
X1962756Y839612*
X1962078Y839781*
X1961391Y839902*
X1960697Y839975*
X1959999Y839999*
X2009999D02*
D01*
X2009302Y839975*
X2008608Y839902*
X200792Y839781*
X2007243Y839612*
X2006579Y839396*
X2005932Y839135*
X2005305Y838829*
X20047Y83848*
X2004121Y83809*
X2003572Y83766*
X2003053Y837193*
X2002568Y836691*
X2002119Y836156*
X2001709Y835591*
X2001339Y834999*
X2001012Y834383*
X2000728Y833745*
X2000489Y83309*
X2000296Y832419*
X2000151Y831736*
X2000054Y831045*
X2000005Y830348*
Y82965*
X2000054Y828954*
X2000151Y828263*
X2000296Y82758*
X2000489Y826909*
X2000728Y826253*
X2001012Y825616*
X2001339Y824999*
X2001709Y824408*
X2002119Y823843*
X2002568Y823308*
X2003053Y822806*
X2003572Y822339*
X2004121Y821909*
X20047Y821519*
X2005305Y82117*
X2005932Y820864*
X2006579Y820602*
X2007243Y820387*
X200792Y820218*
X2008608Y820097*
X2009302Y820024*
X2009999Y819999*
X1644999D02*
D01*
X1645697Y820024*
X1646391Y820097*
X1647079Y820218*
X1647756Y820387*
X164842Y820602*
X1649067Y820864*
X1649694Y82117*
X1650298Y821519*
X1650877Y821909*
X1651427Y822339*
X1651946Y822806*
X1652431Y823308*
X1652879Y823843*
X165329Y824408*
X165366Y824999*
X1653987Y825616*
X1654271Y826253*
X165451Y826909*
X1654702Y82758*
X1654847Y828263*
X1654945Y828954*
X1654993Y82965*
Y830348*
X1654945Y831045*
X1654847Y831736*
X1654702Y832419*
X165451Y83309*
X1654271Y833745*
X1653987Y834383*
X165366Y834999*
X165329Y835591*
X1652879Y836156*
X1652431Y836691*
X1651946Y837193*
X1651427Y83766*
X1650877Y83809*
X1650298Y83848*
X1649694Y838829*
X1649067Y839135*
X164842Y839396*
X1647756Y839612*
X1647079Y839781*
X1646391Y839902*
X1645697Y839975*
X1644999Y839999*
X1694999D02*
D01*
X1694302Y839975*
X1693608Y839902*
X169292Y839781*
X1692243Y839612*
X1691579Y839396*
X1690932Y839135*
X1690305Y838829*
X16897Y83848*
X1689122Y83809*
X1688571Y83766*
X1688053Y837193*
X1687568Y836691*
X1687119Y836156*
X1686709Y835591*
X1686339Y834999*
X1686011Y834383*
X1685728Y833745*
X1685489Y83309*
X1685296Y832419*
X1685151Y831736*
X1685054Y831045*
X1685006Y830348*
Y82965*
X1685054Y828954*
X1685151Y828263*
X1685296Y82758*
X1685489Y826909*
X1685728Y826253*
X1686011Y825616*
X1686339Y824999*
X1686709Y824408*
X1687119Y823843*
X1687568Y823308*
X1688053Y822806*
X1688571Y822339*
X1689122Y821909*
X16897Y821519*
X1690305Y82117*
X1690932Y820864*
X1691579Y820602*
X1692243Y820387*
X169292Y820218*
X1693608Y820097*
X1694302Y820024*
X1694999Y819999*
X1219999D02*
D01*
X1220697Y820024*
X1221391Y820097*
X1222079Y820218*
X1222756Y820387*
X1223419Y820602*
X1224067Y820864*
X1224694Y82117*
X1225299Y821519*
X1225877Y821909*
X1226427Y822339*
X1226946Y822806*
X1227431Y823308*
X1227879Y823843*
X122829Y824408*
X122866Y824999*
X1228987Y825616*
X1229271Y826253*
X122951Y826909*
X1229702Y82758*
X1229847Y828263*
X1229945Y828954*
X1229993Y82965*
Y830348*
X1229945Y831045*
X1229847Y831736*
X1229702Y832419*
X122951Y83309*
X1229271Y833745*
X1228987Y834383*
X122866Y834999*
X122829Y835591*
X1227879Y836156*
X1227431Y836691*
X1226946Y837193*
X1226427Y83766*
X1225877Y83809*
X1225299Y83848*
X1224694Y838829*
X1224067Y839135*
X1223419Y839396*
X1222756Y839612*
X1222079Y839781*
X1221391Y839902*
X1220697Y839975*
X1219999Y839999*
X127D02*
D01*
X1269302Y839975*
X1268608Y839902*
X126792Y839781*
X1267243Y839612*
X1266579Y839396*
X1265932Y839135*
X1265305Y838829*
X12647Y83848*
X1264121Y83809*
X1263572Y83766*
X1263053Y837193*
X1262568Y836691*
X1262119Y836156*
X1261709Y835591*
X1261339Y834999*
X1261011Y834383*
X1260727Y833745*
X1260489Y83309*
X1260296Y832419*
X1260151Y831736*
X1260054Y831045*
X1260005Y830348*
Y82965*
X1260054Y828954*
X1260151Y828263*
X1260296Y82758*
X1260489Y826909*
X1260727Y826253*
X1261011Y825616*
X1261339Y824999*
X1261709Y824408*
X1262119Y823843*
X1262568Y823308*
X1263053Y822806*
X1263572Y822339*
X1264121Y821909*
X12647Y821519*
X1265305Y82117*
X1265932Y820864*
X1266579Y820602*
X1267243Y820387*
X126792Y820218*
X1268608Y820097*
X1269302Y820024*
X127Y819999*
X1959999Y1589999D02*
D01*
X1960697Y1590024*
X1961391Y1590097*
X1962078Y1590218*
X1962756Y1590387*
X196342Y1590602*
X1964067Y1590864*
X1964694Y159117*
X1965299Y1591519*
X1965877Y1591909*
X1966427Y1592339*
X1966946Y1592806*
X1967431Y1593308*
X1967879Y1593843*
X196829Y1594408*
X196866Y1594999*
X1968987Y1595616*
X1969271Y1596253*
X196951Y1596909*
X1969702Y159758*
X1969847Y1598263*
X1969945Y1598954*
X1969993Y159965*
Y1600348*
X1969945Y1601045*
X1969847Y1601736*
X1969702Y1602419*
X196951Y160309*
X1969271Y1603745*
X1968987Y1604383*
X196866Y1604999*
X196829Y1605591*
X1967879Y1606156*
X1967431Y1606691*
X1966946Y1607193*
X1966427Y160766*
X1965877Y160809*
X1965299Y160848*
X1964694Y1608829*
X1964067Y1609135*
X196342Y1609396*
X1962756Y1609612*
X1962078Y1609781*
X1961391Y1609902*
X1960697Y1609975*
X1959999Y1609999*
X2009999D02*
D01*
X2009302Y1609975*
X2008608Y1609902*
X200792Y1609781*
X2007243Y1609612*
X2006579Y1609396*
X2005932Y1609135*
X2005305Y1608829*
X20047Y160848*
X2004121Y160809*
X2003572Y160766*
X2003053Y1607193*
X2002568Y1606691*
X2002119Y1606156*
X2001709Y1605591*
X2001339Y1604999*
X2001012Y1604383*
X2000728Y1603745*
X2000489Y160309*
X2000296Y1602419*
X2000151Y1601736*
X2000054Y1601045*
X2000005Y1600348*
Y159965*
X2000054Y1598954*
X2000151Y1598263*
X2000296Y159758*
X2000489Y1596909*
X2000728Y1596253*
X2001012Y1595616*
X2001339Y1594999*
X2001709Y1594408*
X2002119Y1593843*
X2002568Y1593308*
X2003053Y1592806*
X2003572Y1592339*
X2004121Y1591909*
X20047Y1591519*
X2005305Y159117*
X2005932Y1590864*
X2006579Y1590602*
X2007243Y1590387*
X200792Y1590218*
X2008608Y1590097*
X2009302Y1590024*
X2009999Y1589999*
X1644999D02*
D01*
X1645697Y1590024*
X1646391Y1590097*
X1647079Y1590218*
X1647756Y1590387*
X164842Y1590602*
X1649067Y1590864*
X1649694Y159117*
X1650298Y1591519*
X1650877Y1591909*
X1651427Y1592339*
X1651946Y1592806*
X1652431Y1593308*
X1652879Y1593843*
X165329Y1594408*
X165366Y1594999*
X1653987Y1595616*
X1654271Y1596253*
X165451Y1596909*
X1654702Y159758*
X1654847Y1598263*
X1654945Y1598954*
X1654993Y159965*
Y1600348*
X1654945Y1601045*
X1654847Y1601736*
X1654702Y1602419*
X165451Y160309*
X1654271Y1603745*
X1653987Y1604383*
X165366Y1604999*
X165329Y1605591*
X1652879Y1606156*
X1652431Y1606691*
X1651946Y1607193*
X1651427Y160766*
X1650877Y160809*
X1650298Y160848*
X1649694Y1608829*
X1649067Y1609135*
X164842Y1609396*
X1647756Y1609612*
X1647079Y1609781*
X1646391Y1609902*
X1645697Y1609975*
X1644999Y1609999*
X1694999D02*
D01*
X1694302Y1609975*
X1693608Y1609902*
X169292Y1609781*
X1692243Y1609612*
X1691579Y1609396*
X1690932Y1609135*
X1690305Y1608829*
X16897Y160848*
X1689122Y160809*
X1688571Y160766*
X1688053Y1607193*
X1687568Y1606691*
X1687119Y1606156*
X1686709Y1605591*
X1686339Y1604999*
X1686011Y1604383*
X1685728Y1603745*
X1685489Y160309*
X1685296Y1602419*
X1685151Y1601736*
X1685054Y1601045*
X1685006Y1600348*
Y159965*
X1685054Y1598954*
X1685151Y1598263*
X1685296Y159758*
X1685489Y1596909*
X1685728Y1596253*
X1686011Y1595616*
X1686339Y1594999*
X1686709Y1594408*
X1687119Y1593843*
X1687568Y1593308*
X1688053Y1592806*
X1688571Y1592339*
X1689122Y1591909*
X16897Y1591519*
X1690305Y159117*
X1690932Y1590864*
X1691579Y1590602*
X1692243Y1590387*
X169292Y1590218*
X1693608Y1590097*
X1694302Y1590024*
X1694999Y1589999*
X1219999D02*
D01*
X1220697Y1590024*
X1221391Y1590097*
X1222079Y1590218*
X1222756Y1590387*
X1223419Y1590602*
X1224067Y1590864*
X1224694Y159117*
X1225299Y1591519*
X1225877Y1591909*
X1226427Y1592339*
X1226946Y1592806*
X1227431Y1593308*
X1227879Y1593843*
X122829Y1594408*
X122866Y1594999*
X1228987Y1595616*
X1229271Y1596253*
X122951Y1596909*
X1229702Y159758*
X1229847Y1598263*
X1229945Y1598954*
X1229993Y159965*
Y1600348*
X1229945Y1601045*
X1229847Y1601736*
X1229702Y1602419*
X122951Y160309*
X1229271Y1603745*
X1228987Y1604383*
X122866Y1604999*
X122829Y1605591*
X1227879Y1606156*
X1227431Y1606691*
X1226946Y1607193*
X1226427Y160766*
X1225877Y160809*
X1225299Y160848*
X1224694Y1608829*
X1224067Y1609135*
X1223419Y1609396*
X1222756Y1609612*
X1222079Y1609781*
X1221391Y1609902*
X1220697Y1609975*
X1219999Y1609999*
X127D02*
D01*
X1269302Y1609975*
X1268608Y1609902*
X126792Y1609781*
X1267243Y1609612*
X1266579Y1609396*
X1265932Y1609135*
X1265305Y1608829*
X12647Y160848*
X1264121Y160809*
X1263572Y160766*
X1263053Y1607193*
X1262568Y1606691*
X1262119Y1606156*
X1261709Y1605591*
X1261339Y1604999*
X1261011Y1604383*
X1260727Y1603745*
X1260489Y160309*
X1260296Y1602419*
X1260151Y1601736*
X1260054Y1601045*
X1260005Y1600348*
Y159965*
X1260054Y1598954*
X1260151Y1598263*
X1260296Y159758*
X1260489Y1596909*
X1260727Y1596253*
X1261011Y1595616*
X1261339Y1594999*
X1261709Y1594408*
X1262119Y1593843*
X1262568Y1593308*
X1263053Y1592806*
X1263572Y1592339*
X1264121Y1591909*
X12647Y1591519*
X1265305Y159117*
X1265932Y1590864*
X1266579Y1590602*
X1267243Y1590387*
X126792Y1590218*
X1268608Y1590097*
X1269302Y1590024*
X127Y1589999*
X069999Y119999D02*
D01*
X069975Y120697*
X069902Y121391*
X069781Y122079*
X069612Y122756*
X069396Y12342*
X069135Y124067*
X068829Y124694*
X06848Y125298*
X06809Y125877*
X06766Y126427*
X067193Y126946*
X066691Y127431*
X066156Y127879*
X065591Y12829*
X064999Y12866*
X064383Y128987*
X063745Y129271*
X06309Y12951*
X062418Y129702*
X061736Y129847*
X061045Y129945*
X060348Y129993*
X05965*
X058954Y129945*
X058263Y129847*
X05758Y129702*
X056909Y12951*
X056253Y129271*
X055616Y128987*
X054999Y12866*
X054408Y12829*
X053843Y127879*
X053308Y127431*
X052806Y126946*
X052339Y126427*
X051909Y125877*
X051519Y125298*
X05117Y124694*
X050864Y124067*
X050602Y12342*
X050387Y122756*
X050218Y122079*
X050097Y121391*
X050024Y120697*
X049999Y119999*
Y169999D02*
D01*
X050024Y169302*
X050097Y168608*
X050218Y16792*
X050387Y167243*
X050602Y166579*
X050864Y165932*
X05117Y165305*
X051519Y1647*
X051909Y164122*
X052339Y163571*
X052806Y163053*
X053308Y162568*
X053843Y162119*
X054408Y161709*
X054999Y161339*
X055616Y161011*
X056253Y160728*
X056909Y160489*
X05758Y160296*
X058263Y160151*
X058954Y160054*
X05965Y160006*
X060348*
X061045Y160054*
X061736Y160151*
X062418Y160296*
X06309Y160489*
X063745Y160728*
X064383Y161011*
X064999Y161339*
X065591Y161709*
X066156Y162119*
X066691Y162568*
X067193Y163053*
X06766Y163571*
X06809Y164122*
X06848Y1647*
X068829Y165305*
X069135Y165932*
X069396Y166579*
X069612Y167243*
X069781Y16792*
X069902Y168608*
X069975Y169302*
X069999Y169999*
Y384999D02*
D01*
X069975Y385697*
X069902Y386391*
X069781Y387078*
X069612Y387756*
X069396Y38842*
X069135Y389067*
X068829Y389694*
X06848Y390298*
X06809Y390877*
X06766Y391427*
X067193Y391946*
X066691Y392431*
X066156Y39288*
X065591Y39329*
X064999Y39366*
X064383Y393987*
X063745Y394271*
X06309Y39451*
X062418Y394702*
X061736Y394847*
X061045Y394945*
X060348Y394993*
X05965*
X058954Y394945*
X058263Y394847*
X05758Y394702*
X056909Y39451*
X056253Y394271*
X055616Y393987*
X054999Y39366*
X054408Y39329*
X053843Y39288*
X053308Y392431*
X052806Y391946*
X052339Y391427*
X051909Y390877*
X051519Y390298*
X05117Y389694*
X050864Y389067*
X050602Y38842*
X050387Y387756*
X050218Y387078*
X050097Y386391*
X050024Y385697*
X049999Y384999*
Y434999D02*
D01*
X050024Y434302*
X050097Y433608*
X050218Y43292*
X050387Y432243*
X050602Y431579*
X050864Y430932*
X05117Y430305*
X051519Y4297*
X051909Y429122*
X052339Y428571*
X052806Y428053*
X053308Y427568*
X053843Y427119*
X054408Y426709*
X054999Y426339*
X055616Y426011*
X056253Y425728*
X056909Y425489*
X05758Y425296*
X058263Y425151*
X058954Y425054*
X05965Y425006*
X060348*
X061045Y425054*
X061736Y425151*
X062418Y425296*
X06309Y425489*
X063745Y425728*
X064383Y426011*
X064999Y426339*
X065591Y426709*
X066156Y427119*
X066691Y427568*
X067193Y428053*
X06766Y428571*
X06809Y429122*
X06848Y4297*
X068829Y430305*
X069135Y430932*
X069396Y431579*
X069612Y432243*
X069781Y43292*
X069902Y433608*
X069975Y434302*
X069999Y434999*
Y694999D02*
D01*
X069975Y695697*
X069902Y696391*
X069781Y697078*
X069612Y697756*
X069396Y698419*
X069135Y699067*
X068829Y699694*
X06848Y700299*
X06809Y700877*
X06766Y701427*
X067193Y701946*
X066691Y702431*
X066156Y702879*
X065591Y70329*
X064999Y70366*
X064383Y703987*
X063745Y704271*
X06309Y70451*
X062418Y704702*
X061736Y704847*
X061045Y704944*
X060348Y704993*
X05965*
X058954Y704944*
X058263Y704847*
X05758Y704702*
X056909Y70451*
X056253Y704271*
X055616Y703987*
X054999Y70366*
X054408Y70329*
X053843Y702879*
X053308Y702431*
X052806Y701946*
X052339Y701427*
X051909Y700877*
X051519Y700299*
X05117Y699694*
X050864Y699067*
X050602Y698419*
X050387Y697756*
X050218Y697078*
X050097Y696391*
X050024Y695697*
X049999Y694999*
Y744999D02*
D01*
X050024Y744302*
X050097Y743608*
X050218Y74292*
X050387Y742243*
X050602Y741579*
X050864Y740932*
X05117Y740305*
X051519Y7397*
X051909Y739121*
X052339Y738572*
X052806Y738053*
X053308Y737568*
X053843Y737119*
X054408Y736709*
X054999Y736339*
X055616Y736011*
X056253Y735728*
X056909Y735489*
X05758Y735296*
X058263Y735151*
X058954Y735054*
X05965Y735005*
X060348*
X061045Y735054*
X061736Y735151*
X062418Y735296*
X06309Y735489*
X063745Y735728*
X064383Y736011*
X064999Y736339*
X065591Y736709*
X066156Y737119*
X066691Y737568*
X067193Y738053*
X06766Y738572*
X06809Y739121*
X06848Y7397*
X068829Y740305*
X069135Y740932*
X069396Y741579*
X069612Y742243*
X069781Y74292*
X069902Y743608*
X069975Y744302*
X069999Y744999*
X2179999Y1112499D02*
D01*
X2179975Y1113197*
X2179902Y1113891*
X2179781Y1114578*
X2179612Y1115256*
X2179396Y111592*
X2179135Y1116567*
X2178829Y1117194*
X217848Y1117799*
X217809Y1118377*
X217766Y1118927*
X2177193Y1119446*
X2176691Y1119931*
X2176156Y112038*
X2175591Y112079*
X2174999Y112116*
X2174383Y1121487*
X2173745Y1121771*
X217309Y112201*
X2172419Y1122202*
X2171736Y1122348*
X2171045Y1122445*
X2170348Y1122493*
X216965*
X2168954Y1122445*
X2168263Y1122348*
X216758Y1122202*
X2166909Y112201*
X2166253Y1121771*
X2165616Y1121487*
X2164999Y112116*
X2164407Y112079*
X2163843Y112038*
X2163308Y1119931*
X2162806Y1119446*
X2162339Y1118927*
X2161909Y1118377*
X2161519Y1117799*
X216117Y1117194*
X2160864Y1116567*
X2160602Y111592*
X2160387Y1115256*
X2160218Y1114578*
X2160097Y1113891*
X2160024Y1113197*
X2159999Y1112499*
Y1162499D02*
D01*
X2160024Y1161802*
X2160097Y1161108*
X2160218Y116042*
X2160387Y1159743*
X2160602Y1159079*
X2160864Y1158432*
X216117Y1157805*
X2161519Y11572*
X2161909Y1156622*
X2162339Y1156072*
X2162806Y1155553*
X2163308Y1155068*
X2163843Y1154619*
X2164407Y1154209*
X2164999Y1153839*
X2165616Y1153512*
X2166253Y1153228*
X2166909Y1152989*
X216758Y1152797*
X2168263Y1152651*
X2168954Y1152554*
X216965Y1152505*
X2170348*
X2171045Y1152554*
X2171736Y1152651*
X2172419Y1152797*
X217309Y1152989*
X2173745Y1153228*
X2174383Y1153512*
X2174999Y1153839*
X2175591Y1154209*
X2176156Y1154619*
X2176691Y1155068*
X2177193Y1155553*
X217766Y1156072*
X217809Y1156622*
X217848Y11572*
X2178829Y1157805*
X2179135Y1158432*
X2179396Y1159079*
X2179612Y1159743*
X2179781Y116042*
X2179902Y1161108*
X2179975Y1161802*
X2179999Y1162499*
Y1454999D02*
D01*
X2179975Y1455697*
X2179902Y1456391*
X2179781Y1457078*
X2179612Y1457756*
X2179396Y1458419*
X2179135Y1459067*
X2178829Y1459694*
X217848Y1460299*
X217809Y1460877*
X217766Y1461427*
X2177193Y1461946*
X2176691Y1462431*
X2176156Y1462879*
X2175591Y146329*
X2174999Y146366*
X2174383Y1463987*
X2173745Y1464271*
X217309Y146451*
X2172419Y1464702*
X2171736Y1464847*
X2171045Y1464945*
X2170348Y1464993*
X216965*
X2168954Y1464945*
X2168263Y1464847*
X216758Y1464702*
X2166909Y146451*
X2166253Y1464271*
X2165616Y1463987*
X2164999Y146366*
X2164407Y146329*
X2163843Y1462879*
X2163308Y1462431*
X2162806Y1461946*
X2162339Y1461427*
X2161909Y1460877*
X2161519Y1460299*
X216117Y1459694*
X2160864Y1459067*
X2160602Y1458419*
X2160387Y1457756*
X2160218Y1457078*
X2160097Y1456391*
X2160024Y1455697*
X2159999Y1454999*
Y1504999D02*
D01*
X2160024Y1504302*
X2160097Y1503608*
X2160218Y150292*
X2160387Y1502243*
X2160602Y1501579*
X2160864Y1500932*
X216117Y1500305*
X2161519Y14997*
X2161909Y1499121*
X2162339Y1498572*
X2162806Y1498053*
X2163308Y1497568*
X2163843Y1497119*
X2164407Y1496709*
X2164999Y1496339*
X2165616Y1496011*
X2166253Y1495728*
X2166909Y1495489*
X216758Y1495296*
X2168263Y1495151*
X2168954Y1495054*
X216965Y1495005*
X2170348*
X2171045Y1495054*
X2171736Y1495151*
X2172419Y1495296*
X217309Y1495489*
X2173745Y1495728*
X2174383Y1496011*
X2174999Y1496339*
X2175591Y1496709*
X2176156Y1497119*
X2176691Y1497568*
X2177193Y1498053*
X217766Y1498572*
X217809Y1499121*
X217848Y14997*
X2178829Y1500305*
X2179135Y1500932*
X2179396Y1501579*
X2179612Y1502243*
X2179781Y150292*
X2179902Y1503608*
X2179975Y1504302*
X2179999Y1504999*
X2159999Y734999D02*
D01*
X2160024Y734302*
X2160097Y733608*
X2160218Y73292*
X2160387Y732243*
X2160602Y731579*
X2160864Y730932*
X216117Y730305*
X2161519Y7297*
X2161909Y729121*
X2162339Y728572*
X2162806Y728053*
X2163308Y727568*
X2163843Y727119*
X2164407Y726709*
X2164999Y726339*
X2165616Y726012*
X2166253Y725728*
X2166909Y725489*
X216758Y725297*
X2168263Y725151*
X2168954Y725054*
X216965Y725005*
X2170348*
X2171045Y725054*
X2171736Y725151*
X2172419Y725297*
X217309Y725489*
X2173745Y725728*
X2174383Y726012*
X2174999Y726339*
X2175591Y726709*
X2176156Y727119*
X2176691Y727568*
X2177193Y728053*
X217766Y728572*
X217809Y729121*
X217848Y7297*
X2178829Y730305*
X2179135Y730932*
X2179396Y731579*
X2179612Y732243*
X2179781Y73292*
X2179902Y733608*
X2179975Y734302*
X2179999Y734999*
Y684999D02*
D01*
X2179975Y685697*
X2179902Y686391*
X2179781Y687078*
X2179612Y687756*
X2179396Y68842*
X2179135Y689067*
X2178829Y689694*
X217848Y690299*
X217809Y690877*
X217766Y691427*
X2177193Y691946*
X2176691Y692431*
X2176156Y692879*
X2175591Y69329*
X2174999Y69366*
X2174383Y693987*
X2173745Y694271*
X217309Y69451*
X2172419Y694702*
X2171736Y694847*
X2171045Y694945*
X2170348Y694993*
X216965*
X2168954Y694945*
X2168263Y694847*
X216758Y694702*
X2166909Y69451*
X2166253Y694271*
X2165616Y693987*
X2164999Y69366*
X2164407Y69329*
X2163843Y692879*
X2163308Y692431*
X2162806Y691946*
X2162339Y691427*
X2161909Y690877*
X2161519Y690299*
X216117Y689694*
X2160864Y689067*
X2160602Y68842*
X2160387Y687756*
X2160218Y687078*
X2160097Y686391*
X2160024Y685697*
X2159999Y684999*
Y392499D02*
D01*
X2160024Y391802*
X2160097Y391108*
X2160218Y39042*
X2160387Y389743*
X2160602Y389079*
X2160864Y388432*
X216117Y387805*
X2161519Y3872*
X2161909Y386622*
X2162339Y386071*
X2162806Y385553*
X2163308Y385068*
X2163843Y384619*
X2164407Y384209*
X2164999Y383839*
X2165616Y383511*
X2166253Y383228*
X2166909Y382989*
X216758Y382796*
X2168263Y382651*
X2168954Y382554*
X216965Y382505*
X2170348*
X2171045Y382554*
X2171736Y382651*
X2172419Y382796*
X217309Y382989*
X2173745Y383228*
X2174383Y383511*
X2174999Y383839*
X2175591Y384209*
X2176156Y384619*
X2176691Y385068*
X2177193Y385553*
X217766Y386071*
X217809Y386622*
X217848Y3872*
X2178829Y387805*
X2179135Y388432*
X2179396Y389079*
X2179612Y389743*
X2179781Y39042*
X2179902Y391108*
X2179975Y391802*
X2179999Y392499*
Y342499D02*
D01*
X2179975Y343197*
X2179902Y343891*
X2179781Y344578*
X2179612Y345256*
X2179396Y34592*
X2179135Y346567*
X2178829Y347194*
X217848Y347799*
X217809Y348377*
X217766Y348927*
X2177193Y349446*
X2176691Y349931*
X2176156Y35038*
X2175591Y35079*
X2174999Y35116*
X2174383Y351487*
X2173745Y351771*
X217309Y35201*
X2172419Y352202*
X2171736Y352348*
X2171045Y352445*
X2170348Y352493*
X216965*
X2168954Y352445*
X2168263Y352348*
X216758Y352202*
X2166909Y35201*
X2166253Y351771*
X2165616Y351487*
X2164999Y35116*
X2164407Y35079*
X2163843Y35038*
X2163308Y349931*
X2162806Y349446*
X2162339Y348927*
X2161909Y348377*
X2161519Y347799*
X216117Y347194*
X2160864Y346567*
X2160602Y34592*
X2160387Y345256*
X2160218Y344578*
X2160097Y343891*
X2160024Y343197*
X2159999Y342499*
Y967499D02*
D01*
X2160024Y966802*
X2160097Y966108*
X2160218Y96542*
X2160387Y964743*
X2160602Y964079*
X2160864Y963432*
X216117Y962805*
X2161519Y9622*
X2161909Y961621*
X2162339Y961071*
X2162806Y960553*
X2163308Y960068*
X2163843Y959619*
X2164407Y959209*
X2164999Y958839*
X2165616Y958511*
X2166253Y958227*
X2166909Y957989*
X216758Y957796*
X2168263Y957651*
X2168954Y957554*
X216965Y957506*
X2170348*
X2171045Y957554*
X2171736Y957651*
X2172419Y957796*
X217309Y957989*
X2173745Y958227*
X2174383Y958511*
X2174999Y958839*
X2175591Y959209*
X2176156Y959619*
X2176691Y960068*
X2177193Y960553*
X217766Y961071*
X217809Y961621*
X217848Y9622*
X2178829Y962805*
X2179135Y963432*
X2179396Y964079*
X2179612Y964743*
X2179781Y96542*
X2179902Y966108*
X2179975Y966802*
X2179999Y967499*
Y917499D02*
D01*
X2179975Y918197*
X2179902Y918891*
X2179781Y919579*
X2179612Y920256*
X2179396Y92092*
X2179135Y921567*
X2178829Y922194*
X217848Y922799*
X217809Y923377*
X217766Y923927*
X2177193Y924446*
X2176691Y924931*
X2176156Y925379*
X2175591Y92579*
X2174999Y92616*
X2174383Y926487*
X2173745Y926771*
X217309Y92701*
X2172419Y927202*
X2171736Y927347*
X2171045Y927445*
X2170348Y927493*
X216965*
X2168954Y927445*
X2168263Y927347*
X216758Y927202*
X2166909Y92701*
X2166253Y926771*
X2165616Y926487*
X2164999Y92616*
X2164407Y92579*
X2163843Y925379*
X2163308Y924931*
X2162806Y924446*
X2162339Y923927*
X2161909Y923377*
X2161519Y922799*
X216117Y922194*
X2160864Y921567*
X2160602Y92092*
X2160387Y920256*
X2160218Y919579*
X2160097Y918891*
X2160024Y918197*
X2159999Y917499*
X2179999Y149999D02*
D01*
X2179975Y150697*
X2179902Y151391*
X2179781Y152078*
X2179612Y152756*
X2179396Y15342*
X2179135Y154067*
X2178829Y154694*
X217848Y155299*
X217809Y155877*
X217766Y156427*
X2177193Y156946*
X2176691Y157431*
X2176156Y15788*
X2175591Y15829*
X2174999Y15866*
X2174383Y158987*
X2173745Y159271*
X217309Y15951*
X2172419Y159702*
X2171736Y159848*
X2171045Y159945*
X2170348Y159993*
X216965*
X2168954Y159945*
X2168263Y159848*
X216758Y159702*
X2166909Y15951*
X2166253Y159271*
X2165616Y158987*
X2164999Y15866*
X2164407Y15829*
X2163843Y15788*
X2163308Y157431*
X2162806Y156946*
X2162339Y156427*
X2161909Y155877*
X2161519Y155299*
X216117Y154694*
X2160864Y154067*
X2160602Y15342*
X2160387Y152756*
X2160218Y152078*
X2160097Y151391*
X2160024Y150697*
X2159999Y149999*
Y199999D02*
D01*
X2160024Y199302*
X2160097Y198608*
X2160218Y19792*
X2160387Y197243*
X2160602Y196579*
X2160864Y195932*
X216117Y195305*
X2161519Y1947*
X2161909Y194122*
X2162339Y193571*
X2162806Y193053*
X2163308Y192568*
X2163843Y192119*
X2164407Y191709*
X2164999Y191339*
X2165616Y191011*
X2166253Y190728*
X2166909Y190489*
X216758Y190296*
X2168263Y190151*
X2168954Y190054*
X216965Y190005*
X2170348*
X2171045Y190054*
X2171736Y190151*
X2172419Y190296*
X217309Y190489*
X2173745Y190728*
X2174383Y191011*
X2174999Y191339*
X2175591Y191709*
X2176156Y192119*
X2176691Y192568*
X2177193Y193053*
X217766Y193571*
X217809Y194122*
X217848Y1947*
X2178829Y195305*
X2179135Y195932*
X2179396Y196579*
X2179612Y197243*
X2179781Y19792*
X2179902Y198608*
X2179975Y199302*
X2179999Y199999*
X1104999D02*
D01*
X1105024Y199302*
X1105097Y198608*
X1105218Y19792*
X1105387Y197243*
X1105603Y196579*
X1105864Y195932*
X110617Y195305*
X1106519Y1947*
X1106909Y194122*
X1107339Y193571*
X1107806Y193053*
X1108308Y192568*
X1108843Y192119*
X1109407Y191709*
X1109999Y191339*
X1110616Y191011*
X1111253Y190728*
X1111909Y190489*
X111258Y190296*
X1113263Y190151*
X1113954Y190054*
X111465Y190005*
X1115348*
X1116045Y190054*
X1116736Y190151*
X1117419Y190296*
X1118089Y190489*
X1118746Y190728*
X1119383Y191011*
X1119999Y191339*
X1120591Y191709*
X1121156Y192119*
X1121691Y192568*
X1122193Y193053*
X112266Y193571*
X1123089Y194122*
X112348Y1947*
X1123829Y195305*
X1124135Y195932*
X1124396Y196579*
X1124612Y197243*
X1124781Y19792*
X1124902Y198608*
X1124975Y199302*
X1124999Y199999*
Y149999D02*
D01*
X1124975Y150697*
X1124902Y151391*
X1124781Y152078*
X1124612Y152756*
X1124396Y15342*
X1124135Y154067*
X1123829Y154694*
X112348Y155299*
X1123089Y155877*
X112266Y156427*
X1122193Y156946*
X1121691Y157431*
X1121156Y15788*
X1120591Y15829*
X1119999Y15866*
X1119383Y158987*
X1118746Y159271*
X1118089Y15951*
X1117419Y159702*
X1116736Y159848*
X1116045Y159945*
X1115348Y159993*
X111465*
X1113954Y159945*
X1113263Y159848*
X111258Y159702*
X1111909Y15951*
X1111253Y159271*
X1110616Y158987*
X1109999Y15866*
X1109407Y15829*
X1108843Y15788*
X1108308Y157431*
X1107806Y156946*
X1107339Y156427*
X1106909Y155877*
X1106519Y155299*
X110617Y154694*
X1105864Y154067*
X1105603Y15342*
X1105387Y152756*
X1105218Y152078*
X1105097Y151391*
X1105024Y150697*
X1104999Y149999*
X1124999Y917499D02*
D01*
X1124975Y918197*
X1124902Y918891*
X1124781Y919579*
X1124612Y920256*
X1124396Y92092*
X1124135Y921567*
X1123829Y922194*
X112348Y922799*
X1123089Y923377*
X112266Y923927*
X1122193Y924446*
X1121691Y924931*
X1121156Y925379*
X1120591Y92579*
X1119999Y92616*
X1119383Y926487*
X1118746Y926771*
X1118089Y92701*
X1117419Y927202*
X1116736Y927347*
X1116045Y927445*
X1115348Y927493*
X111465*
X1113954Y927445*
X1113263Y927347*
X111258Y927202*
X1111909Y92701*
X1111253Y926771*
X1110616Y926487*
X1109999Y92616*
X1109407Y92579*
X1108843Y925379*
X1108308Y924931*
X1107806Y924446*
X1107339Y923927*
X1106909Y923377*
X1106519Y922799*
X110617Y922194*
X1105864Y921567*
X1105603Y92092*
X1105387Y920256*
X1105218Y919579*
X1105097Y918891*
X1105024Y918197*
X1104999Y917499*
Y967499D02*
D01*
X1105024Y966802*
X1105097Y966108*
X1105218Y96542*
X1105387Y964743*
X1105603Y964079*
X1105864Y963432*
X110617Y962805*
X1106519Y9622*
X1106909Y961621*
X1107339Y961071*
X1107806Y960553*
X1108308Y960068*
X1108843Y959619*
X1109407Y959209*
X1109999Y958839*
X1110616Y958511*
X1111253Y958227*
X1111909Y957989*
X111258Y957796*
X1113263Y957651*
X1113954Y957554*
X111465Y957506*
X1115348*
X1116045Y957554*
X1116736Y957651*
X1117419Y957796*
X1118089Y957989*
X1118746Y958227*
X1119383Y958511*
X1119999Y958839*
X1120591Y959209*
X1121156Y959619*
X1121691Y960068*
X1122193Y960553*
X112266Y961071*
X1123089Y961621*
X112348Y9622*
X1123829Y962805*
X1124135Y963432*
X1124396Y964079*
X1124612Y964743*
X1124781Y96542*
X1124902Y966108*
X1124975Y966802*
X1124999Y967499*
Y342499D02*
D01*
X1124975Y343197*
X1124902Y343891*
X1124781Y344578*
X1124612Y345256*
X1124396Y34592*
X1124135Y346567*
X1123829Y347194*
X112348Y347799*
X1123089Y348377*
X112266Y348927*
X1122193Y349446*
X1121691Y349931*
X1121156Y35038*
X1120591Y35079*
X1119999Y35116*
X1119383Y351487*
X1118746Y351771*
X1118089Y35201*
X1117419Y352202*
X1116736Y352348*
X1116045Y352445*
X1115348Y352493*
X111465*
X1113954Y352445*
X1113263Y352348*
X111258Y352202*
X1111909Y35201*
X1111253Y351771*
X1110616Y351487*
X1109999Y35116*
X1109407Y35079*
X1108843Y35038*
X1108308Y349931*
X1107806Y349446*
X1107339Y348927*
X1106909Y348377*
X1106519Y347799*
X110617Y347194*
X1105864Y346567*
X1105603Y34592*
X1105387Y345256*
X1105218Y344578*
X1105097Y343891*
X1105024Y343197*
X1104999Y342499*
Y392499D02*
D01*
X1105024Y391802*
X1105097Y391108*
X1105218Y39042*
X1105387Y389743*
X1105603Y389079*
X1105864Y388432*
X110617Y387805*
X1106519Y3872*
X1106909Y386622*
X1107339Y386071*
X1107806Y385553*
X1108308Y385068*
X1108843Y384619*
X1109407Y384209*
X1109999Y383839*
X1110616Y383511*
X1111253Y383228*
X1111909Y382989*
X111258Y382796*
X1113263Y382651*
X1113954Y382554*
X111465Y382505*
X1115348*
X1116045Y382554*
X1116736Y382651*
X1117419Y382796*
X1118089Y382989*
X1118746Y383228*
X1119383Y383511*
X1119999Y383839*
X1120591Y384209*
X1121156Y384619*
X1121691Y385068*
X1122193Y385553*
X112266Y386071*
X1123089Y386622*
X112348Y3872*
X1123829Y387805*
X1124135Y388432*
X1124396Y389079*
X1124612Y389743*
X1124781Y39042*
X1124902Y391108*
X1124975Y391802*
X1124999Y392499*
Y684999D02*
D01*
X1124975Y685697*
X1124902Y686391*
X1124781Y687078*
X1124612Y687756*
X1124396Y68842*
X1124135Y689067*
X1123829Y689694*
X112348Y690299*
X1123089Y690877*
X112266Y691427*
X1122193Y691946*
X1121691Y692431*
X1121156Y692879*
X1120591Y69329*
X1119999Y69366*
X1119383Y693987*
X1118746Y694271*
X1118089Y69451*
X1117419Y694702*
X1116736Y694847*
X1116045Y694945*
X1115348Y694993*
X111465*
X1113954Y694945*
X1113263Y694847*
X111258Y694702*
X1111909Y69451*
X1111253Y694271*
X1110616Y693987*
X1109999Y69366*
X1109407Y69329*
X1108843Y692879*
X1108308Y692431*
X1107806Y691946*
X1107339Y691427*
X1106909Y690877*
X1106519Y690299*
X110617Y689694*
X1105864Y689067*
X1105603Y68842*
X1105387Y687756*
X1105218Y687078*
X1105097Y686391*
X1105024Y685697*
X1104999Y684999*
Y734999D02*
D01*
X1105024Y734302*
X1105097Y733608*
X1105218Y73292*
X1105387Y732243*
X1105603Y731579*
X1105864Y730932*
X110617Y730305*
X1106519Y7297*
X1106909Y729121*
X1107339Y728572*
X1107806Y728053*
X1108308Y727568*
X1108843Y727119*
X1109407Y726709*
X1109999Y726339*
X1110616Y726012*
X1111253Y725728*
X1111909Y725489*
X111258Y725297*
X1113263Y725151*
X1113954Y725054*
X111465Y725005*
X1115348*
X1116045Y725054*
X1116736Y725151*
X1117419Y725297*
X1118089Y725489*
X1118746Y725728*
X1119383Y726012*
X1119999Y726339*
X1120591Y726709*
X1121156Y727119*
X1121691Y727568*
X1122193Y728053*
X112266Y728572*
X1123089Y729121*
X112348Y7297*
X1123829Y730305*
X1124135Y730932*
X1124396Y731579*
X1124612Y732243*
X1124781Y73292*
X1124902Y733608*
X1124975Y734302*
X1124999Y734999*
X1104999Y1504999D02*
D01*
X1105024Y1504302*
X1105097Y1503608*
X1105218Y150292*
X1105387Y1502243*
X1105603Y1501579*
X1105864Y1500932*
X110617Y1500305*
X1106519Y14997*
X1106909Y1499121*
X1107339Y1498572*
X1107806Y1498053*
X1108308Y1497568*
X1108843Y1497119*
X1109407Y1496709*
X1109999Y1496339*
X1110616Y1496011*
X1111253Y1495728*
X1111909Y1495489*
X111258Y1495296*
X1113263Y1495151*
X1113954Y1495054*
X111465Y1495005*
X1115348*
X1116045Y1495054*
X1116736Y1495151*
X1117419Y1495296*
X1118089Y1495489*
X1118746Y1495728*
X1119383Y1496011*
X1119999Y1496339*
X1120591Y1496709*
X1121156Y1497119*
X1121691Y1497568*
X1122193Y1498053*
X112266Y1498572*
X1123089Y1499121*
X112348Y14997*
X1123829Y1500305*
X1124135Y1500932*
X1124396Y1501579*
X1124612Y1502243*
X1124781Y150292*
X1124902Y1503608*
X1124975Y1504302*
X1124999Y1504999*
Y1454999D02*
D01*
X1124975Y1455697*
X1124902Y1456391*
X1124781Y1457078*
X1124612Y1457756*
X1124396Y1458419*
X1124135Y1459067*
X1123829Y1459694*
X112348Y1460299*
X1123089Y1460877*
X112266Y1461427*
X1122193Y1461946*
X1121691Y1462431*
X1121156Y1462879*
X1120591Y146329*
X1119999Y146366*
X1119383Y1463987*
X1118746Y1464271*
X1118089Y146451*
X1117419Y1464702*
X1116736Y1464847*
X1116045Y1464945*
X1115348Y1464993*
X111465*
X1113954Y1464945*
X1113263Y1464847*
X111258Y1464702*
X1111909Y146451*
X1111253Y1464271*
X1110616Y1463987*
X1109999Y146366*
X1109407Y146329*
X1108843Y1462879*
X1108308Y1462431*
X1107806Y1461946*
X1107339Y1461427*
X1106909Y1460877*
X1106519Y1460299*
X110617Y1459694*
X1105864Y1459067*
X1105603Y1458419*
X1105387Y1457756*
X1105218Y1457078*
X1105097Y1456391*
X1105024Y1455697*
X1104999Y1454999*
Y1162499D02*
D01*
X1105024Y1161802*
X1105097Y1161108*
X1105218Y116042*
X1105387Y1159743*
X1105603Y1159079*
X1105864Y1158432*
X110617Y1157805*
X1106519Y11572*
X1106909Y1156622*
X1107339Y1156072*
X1107806Y1155553*
X1108308Y1155068*
X1108843Y1154619*
X1109407Y1154209*
X1109999Y1153839*
X1110616Y1153512*
X1111253Y1153228*
X1111909Y1152989*
X111258Y1152797*
X1113263Y1152651*
X1113954Y1152554*
X111465Y1152505*
X1115348*
X1116045Y1152554*
X1116736Y1152651*
X1117419Y1152797*
X1118089Y1152989*
X1118746Y1153228*
X1119383Y1153512*
X1119999Y1153839*
X1120591Y1154209*
X1121156Y1154619*
X1121691Y1155068*
X1122193Y1155553*
X112266Y1156072*
X1123089Y1156622*
X112348Y11572*
X1123829Y1157805*
X1124135Y1158432*
X1124396Y1159079*
X1124612Y1159743*
X1124781Y116042*
X1124902Y1161108*
X1124975Y1161802*
X1124999Y1162499*
Y1112499D02*
D01*
X1124975Y1113197*
X1124902Y1113891*
X1124781Y1114578*
X1124612Y1115256*
X1124396Y111592*
X1124135Y1116567*
X1123829Y1117194*
X112348Y1117799*
X1123089Y1118377*
X112266Y1118927*
X1122193Y1119446*
X1121691Y1119931*
X1121156Y112038*
X1120591Y112079*
X1119999Y112116*
X1119383Y1121487*
X1118746Y1121771*
X1118089Y112201*
X1117419Y1122202*
X1116736Y1122348*
X1116045Y1122445*
X1115348Y1122493*
X111465*
X1113954Y1122445*
X1113263Y1122348*
X111258Y1122202*
X1111909Y112201*
X1111253Y1121771*
X1110616Y1121487*
X1109999Y112116*
X1109407Y112079*
X1108843Y112038*
X1108308Y1119931*
X1107806Y1119446*
X1107339Y1118927*
X1106909Y1118377*
X1106519Y1117799*
X110617Y1117194*
X1105864Y1116567*
X1105603Y111592*
X1105387Y1115256*
X1105218Y1114578*
X1105097Y1113891*
X1105024Y1113197*
X1104999Y1112499*
X069999Y839999D02*
X117499D01*
X167499D02*
X459999D01*
X509999D02*
X892499D01*
X942499D02*
X1027499D01*
Y1589999D02*
X1104999Y1512499D01*
X1027499Y069999D02*
X1104999Y147499D01*
X1027499Y819999D02*
X1104999Y742499D01*
X459999Y069999D02*
X549999D01*
X179999D02*
X459999D01*
X069999D02*
X129999D01*
X1569999D02*
X1959999D01*
X1519999D02*
X1569999D01*
X2002499Y839999D02*
X2082499D01*
X1519999D02*
X1569999D01*
X1177499D02*
X1219999D01*
X1124999D02*
X1177499D01*
X069999Y819999D02*
X117499D01*
X167499D02*
X459999D01*
X509999D02*
X892499D01*
X942499D02*
X1027499D01*
X0Y0D02*
Y1659999D01*
X2229999*
Y0D02*
Y1659999D01*
X2179999Y0D02*
X2229999D01*
X2009999Y049999D02*
X2179999D01*
X1694999D02*
X1959999D01*
X127D02*
X1644999D01*
X949999D02*
X1219999D01*
X599999D02*
X899999D01*
X179999D02*
X549999D01*
X049999D02*
X129999D01*
X049999D02*
Y119999D01*
Y169999D02*
Y384999D01*
Y434999D02*
Y694999D01*
Y744999D02*
Y1054999D01*
Y1104999D02*
Y1404999D01*
Y1454999D02*
Y1609999D01*
X109999*
X159999D02*
X489999D01*
X539999D02*
X899999D01*
X949999D02*
X1219999D01*
X127D02*
X1644999D01*
X1694999D02*
X1959999D01*
X2009999D02*
X2179999D01*
X2009999Y069999D02*
X2082499D01*
X2179999Y199999D02*
Y342499D01*
Y392499D02*
Y684999D01*
X2079999Y1589999D02*
X2082499D01*
X2159999Y1512499*
Y1504999D02*
Y1512499D01*
X2082499Y819999D02*
X2159999Y742499D01*
Y734999D02*
Y742499D01*
X2179999Y734999D02*
Y747499D01*
Y049999D02*
Y149999D01*
X2082499Y069999D02*
X2159999Y147499D01*
Y149999D01*
X2179999Y747499D02*
Y917499D01*
Y967499D02*
Y1112499D01*
Y1162499D02*
Y1454999D01*
Y1504999D02*
Y1609999D01*
X1104999Y1502499D02*
Y1512499D01*
Y1162499D02*
Y1454999D01*
Y967499D02*
Y1112499D01*
X1027499Y839999D02*
X1104999Y917499D01*
X1124999Y839999D02*
Y917499D01*
Y967499D02*
Y1112499D01*
Y1162499D02*
Y1454999D01*
Y1504999D02*
Y1589999D01*
X069999D02*
X109999D01*
X159999D02*
X489999D01*
X539999D02*
X899999D01*
X949999D02*
X1027499D01*
X069999Y1454999D02*
Y1589999D01*
Y1104999D02*
Y1404999D01*
Y839999D02*
Y1054999D01*
Y744999D02*
Y819999D01*
Y434999D02*
Y694999D01*
Y169999D02*
Y384999D01*
Y069999D02*
Y119999D01*
X184999Y069999D02*
X549999D01*
X599999D02*
X899999D01*
X949999D02*
X1027499D01*
X1124999D02*
Y149999D01*
Y199999D02*
Y342499D01*
Y392499D02*
Y684999D01*
Y734999D02*
Y819999D01*
X1104999Y734999D02*
Y742499D01*
Y392499D02*
Y684999D01*
Y199999D02*
Y342499D01*
Y147499D02*
Y149999D01*
X1124999Y1589999D02*
X1219999D01*
X127D02*
X1644999D01*
X1694999D02*
X1959999D01*
X2009999D02*
X2081249D01*
X2159999Y1504999D02*
Y1512499D01*
Y1162499D02*
Y1454999D01*
Y967499D02*
Y1112499D01*
X2082499Y839999D02*
X2159999Y917499D01*
Y392499D02*
Y684999D01*
Y199999D02*
Y342499D01*
X1124999Y819999D02*
X1219999D01*
X1124999D02*
D01*
Y839999D02*
X1219999D01*
X1124999D02*
D01*
X127D02*
X1644999D01*
X1694999D02*
X1959999D01*
X2009999D02*
X2082499D01*
X1124999Y819999D02*
X1219999D01*
X127D02*
X1644999D01*
X1694999D02*
X1959999D01*
X2009999D02*
X2082499D01*
X127Y069999D02*
X1644999D01*
X1694999D02*
X1959999D01*
X2009999D02*
X2082499D01*
X1124999D02*
X1219999D01*
X1104999Y147499D02*
Y149999D01*
X2159999Y147499D02*
Y149999D01*
M02*