%FSTAX24Y24*%
%MOMM*%
%SFA1B1*%

%IPPOS*%
%AMD24*
4,1,8,-0.500380,-1.000760,0.500380,-1.000760,1.000760,-0.500380,1.000760,0.500380,0.500380,1.000760,-0.500380,1.000760,-1.000760,0.500380,-1.000760,-0.500380,-0.500380,-1.000760,0.0*
1,1,1.000000,-0.500380,-0.500380*
1,1,1.000000,0.500380,-0.500380*
1,1,1.000000,0.500380,0.500380*
1,1,1.000000,-0.500380,0.500380*
%
%ADD22C,0.299999*%
%ADD23C,0.499999*%
G04~CAMADD=24~8~0.0~0.0~787.4~787.4~196.9~0.0~15~0.0~0.0~0.0~0.0~0~0.0~0.0~0.0~0.0~0~0.0~0.0~0.0~180.0~788.0~788.0*
%ADD24D24*%
%ADD25C,2.499995*%
%ADD26C,1.599997*%
%ADD27C,1.999996*%
%ADD28C,0.599999*%
%LNpcbpannel-1*%
%LPD*%
G36*
X18083Y1522881D02*
X1816515Y1526284D01*
X1818416Y1530873*
X1819666*
X182125Y1527049*
X1826329Y1524945*
Y1315798*
X1827756Y1312354*
X1866783Y1273326*
X1867437Y1271748*
X1866377Y127104*
X1841209Y1296209*
X1836999Y1297952*
X1695919*
X1694499Y129854*
Y1291999*
Y1285458*
X1695919Y1286046*
X1834533*
X1942892Y1177687*
X1947102Y1175943*
X1964812*
X1966785Y1171181*
X1971374Y116928*
Y116803*
X196755Y1166446*
X1963429Y1156497*
X196755Y1146547*
X1972679Y1144422*
Y1143172*
X1967549Y1141047*
X1965445Y1135968*
X1863918*
X1859434Y1140452*
X1860129Y1141491*
X1863249Y1140199*
X187325*
X1879372Y1142735*
X1881908Y1148858*
Y1158858*
X1879372Y1164981*
X187325Y1167517*
X1863249*
X1857126Y1164981*
X1854589Y1158858*
Y1148858*
X1855882Y1145738*
X1854842Y1145044*
X185287Y1147017*
Y1188999*
X1851443Y1192443*
X1843536Y120035*
X1844105Y1201549*
X1848591Y1203407*
X1850493Y1207999*
X184887Y1211919*
Y1241981*
X1853671Y1246783*
X1857591Y1248407*
X1859493Y1252999*
X1857591Y1257591*
X1852999Y1259493*
X1848407Y1257591*
X1846783Y1253671*
X1840555Y1247443*
X1839128Y1243999*
Y1221391*
X1837973Y1220913*
X1837443Y1221443*
X1833999Y122287*
X168387*
Y1274999*
X1683267Y1276453*
X1683493Y1276999*
X1681591Y1281591*
X1676999Y1283493*
X1672407Y1281591*
X1670648Y1277346*
X166935*
X1667591Y1281591*
X1662999Y1283493*
X1658407Y1281591*
X1656783Y1277672*
X1655648Y1276536*
X1654449Y1277105*
X165287Y1280919*
Y1286982*
X1783845Y1417956*
X1785271Y1421401*
Y1524946*
X179035Y152705*
X1791934Y1530873*
X1793184*
X1795085Y1526284*
X18033Y1522881*
Y1536999*
X18083*
Y1522881*
G37*
G36*
X7533D02*
X761515Y1526284D01*
X763416Y1530873*
X764667*
X76625Y1527049*
X771329Y1524945*
Y1315798*
X772756Y1312354*
X811784Y1273326*
X812437Y1271748*
X811377Y127104*
X786208Y1296209*
X781999Y1297952*
X640919*
X639499Y129854*
Y1291999*
Y1285458*
X640919Y1286046*
X779533*
X887892Y1177687*
X892102Y1175943*
X909812*
X911785Y1171181*
X916374Y116928*
Y116803*
X91255Y1166446*
X908429Y1156497*
X91255Y1146547*
X917679Y1144422*
Y1143172*
X912549Y1141047*
X910445Y1135968*
X808918*
X804434Y1140452*
X805129Y1141491*
X808249Y1140199*
X818249*
X824371Y1142735*
X826908Y1148858*
Y1158858*
X824371Y1164981*
X818249Y1167517*
X808249*
X802126Y1164981*
X79959Y1158858*
Y1148858*
X800882Y1145738*
X799842Y1145044*
X79787Y1147017*
Y1188999*
X796443Y1192443*
X788537Y120035*
X789105Y1201549*
X793591Y1203407*
X795493Y1207999*
X79387Y1211919*
Y1241981*
X798671Y1246783*
X802591Y1248407*
X804493Y1252999*
X802591Y1257591*
X797999Y1259493*
X793407Y1257591*
X791783Y1253671*
X785555Y1247443*
X784128Y1243999*
Y1221391*
X782973Y1220913*
X782443Y1221443*
X778999Y122287*
X62887*
Y1274999*
X628267Y1276453*
X628493Y1276999*
X626591Y1281591*
X621999Y1283493*
X617407Y1281591*
X615648Y1277346*
X61435*
X612591Y1281591*
X607999Y1283493*
X603407Y1281591*
X601783Y1277672*
X600648Y1276536*
X599449Y1277105*
X59787Y1280919*
Y1286982*
X728845Y1417956*
X730271Y1421401*
Y1524946*
X73535Y152705*
X736934Y1530873*
X738184*
X740085Y1526284*
X7483Y1522881*
Y1536999*
X7533*
Y1522881*
G37*
G36*
X1259999Y1539999D02*
X1283752D01*
Y1522508*
X1282526Y1522264*
X128245Y1522448*
X12725Y1526569*
X126255Y1522448*
X1258429Y1512498*
X126255Y1502548*
X1267681Y1500423*
Y1499173*
X126255Y1497048*
X1258429Y1487098*
X126255Y1477148*
X126768Y1475024*
Y1473774*
X1262549Y1471649*
X1259999Y1465492*
X1258428Y1461699*
X1259999Y1457906*
X1262549Y1451749*
X126768Y1449624*
Y1448374*
X1262549Y1446249*
X1258428Y1436299*
X1262549Y1426349*
X126768Y1424224*
Y1422974*
X1262549Y1420849*
X1259999Y1414692*
X1258428Y1410899*
X1259999Y1407106*
X1262549Y1400949*
X126768Y1398824*
Y1397574*
X1262549Y1395449*
X1258428Y1385499*
X1262549Y1375549*
X1267679Y1373425*
Y1372175*
X1262548Y137005*
X1258427Y13601*
X1262548Y135015*
X1267679Y1348025*
Y1346775*
X1262548Y134465*
X1259999Y1338495*
X1259172Y1336499*
X1258427Y13347*
X1262548Y132475*
X1267681Y1322624*
Y1321374*
X1262549Y1319249*
X1259999Y1313092*
X12596Y1312128*
X1258428Y1309299*
X1262549Y1299349*
X126768Y1297224*
Y1295974*
X1262549Y1293849*
X1259999Y1287692*
X1259564Y1286641*
X1258428Y1283899*
X1262549Y1273949*
X1266372Y1272366*
Y1271116*
X1261783Y1269215*
X1259999Y1264908*
X125838Y1261*
X1272498*
Y1256*
X125838*
X1258595Y1255483*
X1247486Y1244374*
X1246999Y1244576*
X1241642Y1242357*
X1240458Y1239499*
X1246999*
Y1236999*
X1249499*
Y1230458*
X1252357Y1231642*
X1254576Y1236999*
X1254374Y1237486*
X1258844Y1241956*
X1263827Y1246938*
X1266373Y1245884*
Y1244634*
X1262548Y124305*
X1259999Y1236895*
X1259007Y1234499*
X1258427Y12331*
X1262548Y122315*
X1267679Y1221025*
Y1219775*
X1262548Y121765*
X1260445Y1212571*
X1248316*
X1233999Y1226887*
Y128387*
X1232572Y1287314*
X1229887Y1289999*
X121487Y1305017*
Y1336079*
X1216493Y1339999*
X1214591Y1344591*
X1209999Y1346493*
X1205407Y1344591*
X1203505Y1339999*
X1205128Y1336079*
Y1302999*
X1206555Y1299555*
X1224257Y1281852*
Y122487*
X1225684Y1221426*
X1242854Y1204256*
X1246298Y1202829*
X1259999*
Y1186095*
X1258427Y11823*
X1259999Y1178505*
Y1160697*
X1258426Y1156901*
X1259999Y1153104*
Y1141999*
X1163887*
X114987Y1156017*
Y1175982*
X1153955Y1180067*
X1155388Y1179857*
X115658Y117698*
X1164999Y1173493*
X1173418Y117698*
X1176905Y1185399*
X1173418Y1193818*
X1164999Y1197305*
X115658Y1193818*
X115511Y119027*
X1152399*
X1148955Y1188843*
X1145025Y1184913*
X114387Y1185391*
Y1439981*
X1156017Y1452128*
X1163079*
X1166999Y1450505*
X1171591Y1452407*
X1173493Y1456999*
X1171591Y1461591*
X1166999Y1463493*
X1163079Y146187*
X1153999*
X1150555Y1460443*
X1137154Y1447042*
X1135999Y1447521*
Y1569999*
X1259999*
Y1539999*
G37*
G36*
X204999D02*
X228752D01*
Y1522508*
X227526Y1522264*
X22745Y1522448*
X2175Y1526569*
X20755Y1522448*
X203429Y1512498*
X20755Y1502548*
X212681Y1500423*
Y1499173*
X20755Y1497048*
X203429Y1487098*
X20755Y1477148*
X212679Y1475024*
Y1473774*
X207549Y1471649*
X204999Y1465492*
X203428Y1461699*
X204999Y1457906*
X207549Y1451749*
X21268Y1449624*
Y1448374*
X207549Y1446249*
X203428Y1436299*
X207549Y1426349*
X21268Y1424224*
Y1422974*
X207549Y1420849*
X204999Y1414692*
X203428Y1410899*
X204999Y1407106*
X207549Y1400949*
X21268Y1398824*
Y1397574*
X207549Y1395449*
X203428Y1385499*
X207549Y1375549*
X212679Y1373425*
Y1372175*
X207548Y137005*
X203427Y13601*
X207548Y135015*
X212679Y1348025*
Y1346775*
X207548Y134465*
X204999Y1338495*
X204172Y1336499*
X203427Y13347*
X207548Y132475*
X212681Y1322624*
Y1321374*
X207549Y1319249*
X204999Y1313092*
X2046Y1312128*
X203428Y1309299*
X207549Y1299349*
X21268Y1297224*
Y1295974*
X207549Y1293849*
X204999Y1287692*
X204564Y1286641*
X203428Y1283899*
X207549Y1273949*
X211372Y1272366*
Y1271116*
X206783Y1269215*
X204999Y1264908*
X20338Y1261*
X217498*
Y1256*
X20338*
X203595Y1255483*
X192486Y1244374*
X191999Y1244576*
X186641Y1242357*
X185458Y1239499*
X191999*
Y1236999*
X194499*
Y1230458*
X197358Y1231642*
X199576Y1236999*
X199374Y1237486*
X203844Y1241956*
X208826Y1246938*
X211373Y1245884*
Y1244634*
X207548Y124305*
X204999Y1236895*
X204007Y1234499*
X203427Y12331*
X207548Y122315*
X212679Y1221025*
Y1219775*
X207548Y121765*
X205445Y1212571*
X193316*
X178999Y1226887*
Y128387*
X177572Y1287314*
X174887Y1289999*
X15987Y1305017*
Y1336079*
X161493Y1339999*
X159591Y1344591*
X154999Y1346493*
X150407Y1344591*
X148505Y1339999*
X150128Y1336079*
Y1302999*
X151555Y1299555*
X169257Y1281852*
Y122487*
X170684Y1221426*
X187854Y1204256*
X191298Y1202829*
X204999*
Y1186095*
X203427Y11823*
X204999Y1178505*
Y1160697*
X203426Y1156901*
X204999Y1153104*
Y1141999*
X108887*
X09487Y1156017*
Y1175982*
X098955Y1180067*
X100388Y1179857*
X10158Y117698*
X109999Y1173493*
X118418Y117698*
X121905Y1185399*
X118418Y1193818*
X109999Y1197305*
X10158Y1193818*
X10011Y119027*
X097399*
X093955Y1188843*
X090025Y1184913*
X08887Y1185391*
Y1439981*
X101017Y1452128*
X108079*
X111999Y1450505*
X116591Y1452407*
X118493Y1456999*
X116591Y1461591*
X111999Y1463493*
X108079Y146187*
X098999*
X095555Y1460443*
X082154Y1447042*
X080999Y1447521*
Y1569999*
X204999*
Y1539999*
G37*
G36*
X2099999Y1325999D02*
X2147999D01*
Y930999*
X2078999Y861999*
X1994999*
Y874128*
X2053999*
X2057443Y875555*
X2078043Y896155*
X207947Y899599*
Y1005445*
X2084549Y1007549*
X2086674Y101268*
X2087924*
X2090049Y1007549*
X2099999Y1003428*
X2109949Y1007549*
X2112073Y1012679*
X2113323*
X2115448Y1007548*
X2125398Y1003427*
X2135348Y1007548*
X2139469Y1017498*
X2135348Y1027448*
X2125398Y1031569*
X2115448Y1027448*
X2113324Y1022319*
X2112074*
X2109949Y1027449*
X2099999Y103157*
X2090049Y1027449*
X2087924Y1022318*
X2086674*
X2084549Y1027449*
X2074599Y103157*
X2064649Y1027449*
X2060528Y1017499*
X2064649Y1007549*
X2069728Y1005445*
Y901617*
X2058111Y889999*
X2051982Y88387*
X1994999*
Y889999*
X1984497*
X1984253Y891225*
X1987448Y892548*
X1991569Y902498*
X1987448Y912448*
X1982317Y914573*
Y915823*
X1987448Y917948*
X1991569Y927898*
X1987448Y937848*
X1982319Y939973*
Y941223*
X1987449Y943348*
X199157Y953297*
X1987449Y963247*
X1982318Y965372*
Y966622*
X1987449Y968748*
X199157Y978697*
X1987449Y988647*
X1982318Y990772*
Y992022*
X1987449Y994148*
X199157Y1004097*
X1987449Y1014047*
X1982318Y1016172*
Y1017422*
X1987449Y1019548*
X199157Y1029497*
X1987449Y1039447*
X1982319Y1041572*
Y1042822*
X198745Y1044947*
X1991571Y1054897*
X198745Y1064846*
X1982319Y1066972*
Y1068222*
X198745Y1070347*
X1991571Y1080297*
X198745Y1090246*
X1982317Y1092372*
Y1093622*
X1987449Y1095748*
X199157Y1105697*
X1987449Y1115647*
X1982318Y1117772*
Y1119022*
X1987449Y1121148*
X199157Y1131097*
X1987449Y1141047*
X1982319Y1143172*
Y1144422*
X198745Y1146547*
X1991571Y1156497*
X198745Y1166446*
X1983625Y116803*
Y116928*
X1988215Y1171181*
X1990187Y1175943*
X2018636*
X2033097Y1161482*
X2032804Y1160007*
X2030815Y1159183*
X2028046Y1152499*
X2039999*
X2051952*
X2049183Y1159183*
X2045952Y1160522*
Y1162999*
X2044208Y1167208*
X2025311Y1186106*
X2021101Y118785*
X1990187*
X1988215Y1192612*
X1983625Y1194513*
Y1195763*
X198745Y1197347*
X1991571Y1207297*
X198745Y1217246*
X1982319Y1219372*
Y1220622*
X198745Y1222747*
X1991571Y1232697*
X198745Y1242646*
X198232Y1244771*
Y1246021*
X198745Y1248146*
X1991572Y1258096*
X198745Y1268045*
X198232Y1270171*
Y1271421*
X198745Y1273546*
X1991572Y1283496*
X198745Y1293446*
X1982317Y1295572*
Y1296822*
X1987449Y1298948*
X199157Y1308897*
X1987449Y1318847*
X1982318Y1320972*
Y1322222*
X1987449Y1324348*
X199157Y1334297*
X1987449Y1344247*
X1982319Y1346372*
Y1347622*
X198745Y1349747*
X1991571Y1359697*
X198745Y1369646*
X1982319Y1371772*
Y1373022*
X198745Y1375147*
X1991571Y1385097*
X198745Y1395046*
X1982319Y1397172*
Y1398422*
X198745Y1400547*
X1991571Y1410497*
X198745Y1420446*
X1982319Y1422572*
Y1423822*
X198745Y1425947*
X1991571Y1435897*
X198745Y1445846*
X198232Y1447971*
Y1449221*
X198745Y1451346*
X1991572Y1461296*
X198745Y1471245*
X198232Y1473371*
Y1474621*
X198745Y1476746*
X1991572Y1486696*
X198745Y1496646*
X1982317Y1498772*
Y1500022*
X1987449Y1502148*
X199157Y1512097*
X1987449Y1522047*
X1977499Y1526168*
X1967549Y1522047*
X1963428Y1512097*
X1967549Y1502148*
X1972683Y1500021*
Y1498771*
X1967551Y1496646*
X1963429Y1486696*
X1967551Y1476746*
X1972682Y1474621*
Y1473371*
X1967551Y1471245*
X1963429Y1461296*
X1967551Y1451346*
X197268Y1449221*
Y1447971*
X196755Y1445846*
X1963429Y1435897*
X196755Y1425947*
X1972681Y1423822*
Y1422572*
X196755Y1420446*
X1963429Y1410497*
X196755Y1400547*
X1972681Y1398422*
Y1397172*
X196755Y1395046*
X1963429Y1385097*
X196755Y1375147*
X1972681Y1373022*
Y1371772*
X196755Y1369646*
X1963429Y1359697*
X196755Y1349747*
X1972679Y1347622*
Y1346372*
X1967549Y1344247*
X1963428Y1334297*
X1967549Y1324348*
X197268Y1322222*
Y1320972*
X1967549Y1318847*
X1963428Y1308897*
X1967549Y1298948*
X1972683Y1296821*
Y1295571*
X1967551Y1293446*
X1963429Y1283496*
X1967551Y1273546*
X1972682Y1271421*
Y1270171*
X1967551Y1268045*
X1963429Y1258096*
X1967551Y1248146*
X197268Y1246021*
Y1244771*
X196755Y1242646*
X1963429Y1232697*
X196755Y1222747*
X1972681Y1220622*
Y1219372*
X196755Y1217246*
X1963429Y1207297*
X196755Y1197347*
X1971374Y1195763*
Y1194513*
X1966785Y1192612*
X1964812Y118785*
X1949567*
X187004Y1267377*
X1870748Y1268437*
X1872999Y1267505*
X1877591Y1269407*
X1879493Y1273999*
X1877591Y1278591*
X1873671Y1280215*
X1836071Y1317816*
Y1524945*
X184115Y1527049*
X1843275Y153218*
X1844525*
X184665Y1527049*
X18566Y1522928*
X186655Y1527049*
X1868675Y153218*
X1869925*
X187205Y1527049*
X1882Y1522928*
X189195Y1527049*
X1894074Y1532179*
X1895324*
X1897449Y1527048*
X1907399Y1522927*
X1917349Y1527048*
X1919474Y1532179*
X1920724*
X1922849Y1527048*
X1932799Y1522927*
X1942749Y1527048*
X194687Y1536998*
X1946058Y153896*
X1946752Y1539999*
X2014467*
X2015351Y1539115*
Y1538756*
X2021692Y1523449*
X2023449Y1521692*
X2038756Y1515351*
X2039402*
X2039999Y1515104*
X2040596Y1515351*
X2041242*
X2056549Y1521692*
X2058306Y1523449*
X2064647Y1538756*
Y1539115*
X2065531Y1539999*
X2099999*
Y1325999*
G37*
G36*
X1044999D02*
X1092999D01*
Y930999*
X1023999Y861999*
X939999*
Y874128*
X998999*
X1002443Y875555*
X1023043Y896155*
X102447Y899599*
Y1005445*
X1029549Y1007549*
X1031674Y101268*
X1032924*
X103505Y1007549*
X1044999Y1003428*
X1054949Y1007549*
X1057073Y1012679*
X1058323*
X1060448Y1007548*
X1070398Y1003427*
X1080348Y1007548*
X1084469Y1017498*
X1080348Y1027448*
X1070398Y1031569*
X1060448Y1027448*
X1058324Y1022319*
X1057074*
X1054949Y1027449*
X1044999Y103157*
X103505Y1027449*
X1032924Y1022318*
X1031674*
X1029549Y1027449*
X1019599Y103157*
X100965Y1027449*
X1005528Y1017499*
X100965Y1007549*
X1014728Y1005445*
Y901617*
X1003111Y889999*
X996981Y88387*
X939999*
Y889999*
X929497*
X929253Y891225*
X932448Y892548*
X936569Y902498*
X932448Y912448*
X927317Y914573*
Y915823*
X932448Y917948*
X936569Y927898*
X932448Y937848*
X927319Y939973*
Y941223*
X932449Y943348*
X93657Y953297*
X932449Y963247*
X927318Y965372*
Y966622*
X932449Y968748*
X93657Y978697*
X932449Y988647*
X927318Y990772*
Y992022*
X932449Y994148*
X93657Y1004097*
X932449Y1014047*
X927318Y1016172*
Y1017422*
X932449Y1019548*
X93657Y1029497*
X932449Y1039447*
X927319Y1041572*
Y1042822*
X93245Y1044947*
X936571Y1054897*
X93245Y1064846*
X927319Y1066972*
Y1068222*
X93245Y1070347*
X936571Y1080297*
X93245Y1090246*
X927317Y1092372*
Y1093622*
X932449Y1095748*
X93657Y1105697*
X932449Y1115647*
X927318Y1117772*
Y1119022*
X932449Y1121148*
X93657Y1131097*
X932449Y1141047*
X927319Y1143172*
Y1144422*
X93245Y1146547*
X936571Y1156497*
X93245Y1166446*
X928625Y116803*
Y116928*
X933215Y1171181*
X935188Y1175943*
X963636*
X978097Y1161482*
X977804Y1160007*
X975815Y1159183*
X973046Y1152499*
X984999*
X996952*
X994183Y1159183*
X990952Y1160522*
Y1162999*
X989209Y1167208*
X970311Y1186106*
X966101Y118785*
X935188*
X933215Y1192612*
X928625Y1194513*
Y1195763*
X93245Y1197347*
X936571Y1207297*
X93245Y1217246*
X927319Y1219372*
Y1220622*
X93245Y1222747*
X936571Y1232697*
X93245Y1242646*
X92732Y1244771*
Y1246021*
X93245Y1248146*
X936572Y1258096*
X93245Y1268045*
X92732Y1270171*
Y1271421*
X93245Y1273546*
X936572Y1283496*
X93245Y1293446*
X927317Y1295572*
Y1296822*
X932449Y1298948*
X93657Y1308897*
X932449Y1318847*
X927318Y1320972*
Y1322222*
X932449Y1324348*
X93657Y1334297*
X932449Y1344247*
X927319Y1346372*
Y1347622*
X93245Y1349747*
X936571Y1359697*
X93245Y1369646*
X927319Y1371772*
Y1373022*
X93245Y1375147*
X936571Y1385097*
X93245Y1395046*
X927319Y1397172*
Y1398422*
X93245Y1400547*
X936571Y1410497*
X93245Y1420446*
X927319Y1422572*
Y1423822*
X93245Y1425947*
X936571Y1435897*
X93245Y1445846*
X92732Y1447971*
Y1449221*
X93245Y1451346*
X936572Y1461296*
X93245Y1471245*
X92732Y1473371*
Y1474621*
X93245Y1476746*
X936572Y1486696*
X93245Y1496646*
X927317Y1498772*
Y1500022*
X932449Y1502148*
X93657Y1512097*
X932449Y1522047*
X922499Y1526168*
X912549Y1522047*
X908428Y1512097*
X912549Y1502148*
X917683Y1500021*
Y1498771*
X912551Y1496646*
X908429Y1486696*
X912551Y1476746*
X917682Y1474621*
Y1473371*
X912551Y1471245*
X908429Y1461296*
X912551Y1451346*
X91768Y1449221*
Y1447971*
X91255Y1445846*
X908429Y1435897*
X91255Y1425947*
X917681Y1423822*
Y1422572*
X91255Y1420446*
X908429Y1410497*
X91255Y1400547*
X917681Y1398422*
Y1397172*
X91255Y1395046*
X908429Y1385097*
X91255Y1375147*
X917681Y1373022*
Y1371772*
X91255Y1369646*
X908429Y1359697*
X91255Y1349747*
X917679Y1347622*
Y1346372*
X912549Y1344247*
X908428Y1334297*
X912549Y1324348*
X91768Y1322222*
Y1320972*
X912549Y1318847*
X908428Y1308897*
X912549Y1298948*
X917683Y1296821*
Y1295571*
X912551Y1293446*
X908429Y1283496*
X912551Y1273546*
X917682Y1271421*
Y1270171*
X912551Y1268045*
X908429Y1258096*
X912551Y1248146*
X91768Y1246021*
Y1244771*
X91255Y1242646*
X908429Y1232697*
X91255Y1222747*
X917681Y1220622*
Y1219372*
X91255Y1217246*
X908429Y1207297*
X91255Y1197347*
X916374Y1195763*
Y1194513*
X911785Y1192612*
X909812Y118785*
X894567*
X81504Y1267377*
X815748Y1268437*
X817999Y1267505*
X822591Y1269407*
X824493Y1273999*
X822591Y1278591*
X818671Y1280215*
X781071Y1317816*
Y1524945*
X78615Y1527049*
X788275Y153218*
X789525*
X79165Y1527049*
X8016Y1522928*
X81155Y1527049*
X813675Y153218*
X814925*
X81705Y1527049*
X827Y1522928*
X83695Y1527049*
X839074Y1532179*
X840324*
X842449Y1527048*
X852399Y1522927*
X862349Y1527048*
X864474Y1532179*
X865724*
X867849Y1527048*
X877799Y1522927*
X887749Y1527048*
X89187Y1536998*
X891058Y153896*
X891752Y1539999*
X959467*
X960351Y1539115*
Y1538756*
X966692Y1523449*
X968449Y1521692*
X983756Y1515351*
X984402*
X984999Y1515104*
X985596Y1515351*
X986242*
X1001549Y1521692*
X1003306Y1523449*
X1009647Y1538756*
Y1539115*
X1010531Y1539999*
X1044999*
Y1325999*
G37*
G36*
X1319833Y1552084D02*
X132007Y1550856D01*
X1312485Y1547714*
X1309082Y1539499*
X13232*
Y1536999*
X13257*
Y1522881*
X1333915Y1526284*
X1335817Y1530876*
X1337067*
X1338652Y1527051*
X1342648Y1525395*
Y1524397*
X1344392Y1520187*
X1459289Y140529*
X1463499Y1403546*
X1473559*
X147458Y140108*
X1482999Y1397593*
X1491418Y140108*
X1494905Y1409499*
X1491418Y1417918*
X1482999Y1421405*
X147458Y1417918*
X1473559Y1415452*
X1465965*
X1356387Y152503*
X1356631Y1526256*
X1358551Y1527051*
X1360676Y1532182*
X1361926*
X1364052Y1527051*
X1374001Y152293*
X1383951Y1527051*
X1386076Y153218*
X1387326*
X1389451Y152705*
X1399401Y1522929*
X140935Y152705*
X1411476Y1532181*
X1412726*
X1414851Y152705*
X1424801Y1522929*
X143475Y152705*
X1436876Y1532181*
X1438126*
X1440251Y152705*
X1450201Y1522929*
X146015Y152705*
X1462276Y1532181*
X1463526*
X1465651Y152705*
X1475601Y1522929*
X148555Y152705*
X1487675Y1532179*
X1488925*
X149105Y1527049*
X1501Y1522928*
X151095Y1527049*
X1513075Y153218*
X1514325*
X151645Y1527049*
X15264Y1522928*
X153635Y1527049*
X1538476Y1532183*
X1539726*
X1541852Y1527051*
X1551801Y152293*
X155196Y1522995*
X1552999Y1522301*
Y137387*
X1407017*
X138787Y1393017*
Y139711*
X1391418Y139858*
X1394905Y1406999*
X1391418Y1415418*
X1382999Y1418905*
X137458Y1415418*
X1371093Y1406999*
X137458Y139858*
X1378128Y139711*
Y1390999*
X1379555Y1387555*
X1393956Y1373154*
X1393478Y1371999*
X1286999*
Y1551565*
X1287888Y1552444*
X1319833Y1552084*
G37*
G36*
X264833D02*
X26507Y1550856D01*
X257485Y1547714*
X254082Y1539499*
X2682*
Y1536999*
X2707*
Y1522881*
X278915Y1526284*
X280817Y1530876*
X282067*
X283652Y1527051*
X287648Y1525395*
Y1524397*
X289392Y1520187*
X40429Y140529*
X408499Y1403546*
X418559*
X41958Y140108*
X427999Y1397593*
X436418Y140108*
X439905Y1409499*
X436418Y1417918*
X427999Y1421405*
X41958Y1417918*
X418559Y1415452*
X410965*
X301387Y152503*
X301631Y1526256*
X303551Y1527051*
X305676Y1532182*
X306926*
X309052Y1527051*
X319001Y152293*
X328951Y1527051*
X331076Y153218*
X332326*
X334451Y152705*
X344401Y1522929*
X35435Y152705*
X356476Y1532181*
X357726*
X359851Y152705*
X369801Y1522929*
X37975Y152705*
X381876Y1532181*
X383126*
X385251Y152705*
X395201Y1522929*
X40515Y152705*
X407276Y1532181*
X408526*
X410651Y152705*
X420601Y1522929*
X43055Y152705*
X432675Y1532179*
X433925*
X43605Y1527049*
X446Y1522928*
X45595Y1527049*
X458075Y153218*
X459325*
X46145Y1527049*
X4714Y1522928*
X48135Y1527049*
X483476Y1532183*
X484726*
X486852Y1527051*
X496801Y152293*
X49696Y1522995*
X497999Y1522301*
Y137387*
X352017*
X33287Y1393017*
Y139711*
X336418Y139858*
X339905Y1406999*
X336418Y1415418*
X327999Y1418905*
X31958Y1415418*
X316093Y1406999*
X31958Y139858*
X323128Y139711*
Y1390999*
X324555Y1387555*
X338956Y1373154*
X338478Y1371999*
X231999*
Y1551565*
X232888Y1552444*
X264833Y1552084*
G37*
G36*
X1634128Y1406676D02*
Y1326919D01*
X1632505Y1322999*
X1634407Y1318407*
X1637902Y1316959*
X1637505Y1315999*
X1639407Y1311407*
X1643893Y1309549*
X1644461Y130835*
X1633555Y1297443*
X1632128Y1293999*
Y1281919*
X1630505Y1277999*
X163137Y1275909*
X1630676Y127487*
X1587999*
X1584555Y1273443*
X1572555Y1261443*
X1571128Y1257999*
Y1236919*
X1569505Y1232999*
X1571128Y1229079*
Y1227151*
X1570089Y1226456*
X1569999Y1226493*
X1566079Y122487*
X1562017*
X153187Y1255016*
Y1279999*
X1530443Y1283443*
X1486443Y1327443*
X1485393Y1327878*
X1485641Y1329128*
X153544*
X1535642Y1328641*
X1538499Y1327458*
Y1333999*
X1540999*
Y1336499*
X154754*
X1546357Y1339357*
X1542683Y1340878*
X1542932Y1342128*
X1546079*
X1549999Y1340505*
X1554591Y1342407*
X1556493Y1346999*
X1554591Y1351591*
X1549999Y1353493*
X1546079Y135187*
X1474017*
X146987Y1356017*
Y1357079*
X1471493Y1360999*
X1470628Y1363089*
X1471322Y1364128*
X1557079*
X1560999Y1362505*
X1564919Y1364128*
X1586999*
X1590443Y1365555*
X1631672Y1406783*
X1633089Y140737*
X1634128Y1406676*
G37*
G36*
X579128D02*
Y1326919D01*
X577505Y1322999*
X579407Y1318407*
X582902Y1316959*
X582505Y1315999*
X584407Y1311407*
X588893Y1309549*
X589462Y130835*
X578555Y1297443*
X577128Y1293999*
Y1281919*
X575505Y1277999*
X57637Y1275909*
X575676Y127487*
X532999*
X529555Y1273443*
X517555Y1261443*
X516128Y1257999*
Y1236919*
X514505Y1232999*
X516128Y1229079*
Y1227151*
X515089Y1226456*
X514999Y1226493*
X511079Y122487*
X507017*
X47687Y1255016*
Y1279999*
X475443Y1283443*
X431443Y1327443*
X430393Y1327878*
X430641Y1329128*
X480441*
X480642Y1328641*
X483499Y1327458*
Y1333999*
X485999*
Y1336499*
X49254*
X491357Y1339357*
X487683Y1340878*
X487932Y1342128*
X491079*
X494999Y1340505*
X499591Y1342407*
X501493Y1346999*
X499591Y1351591*
X494999Y1353493*
X491079Y135187*
X419017*
X41487Y1356017*
Y1357079*
X416493Y1360999*
X415628Y1363089*
X416322Y1364128*
X502079*
X505999Y1362505*
X509919Y1364128*
X531999*
X535443Y1365555*
X576672Y1406783*
X578089Y140737*
X579128Y1406676*
G37*
G36*
X1283752Y1375492D02*
Y1371999D01*
X1284703Y1369703*
X1286999Y1368752*
X1393478*
X1394074Y1368999*
X139472*
X1395177Y1369456*
X1395774Y1369703*
X1397176Y1369934*
X1401555Y1365555*
X1404999Y1364128*
X1458676*
X145937Y1363089*
X1458505Y1360999*
X1460128Y1357079*
Y1353999*
X1461555Y1350555*
X1468555Y1343555*
X1471999Y1342128*
X1539067*
X1539315Y1340878*
X1535642Y1339357*
X153544Y133887*
X1474558*
X1474357Y1339357*
X1471499Y134054*
Y1333999*
X1468999*
Y1331499*
X1462458*
X1463116Y1329909*
X1462422Y132887*
X1301999*
X1298555Y1327443*
X1285562Y131445*
X1284336Y1314694*
X1282449Y1319249*
X1277317Y1321375*
Y1322625*
X1282448Y132475*
X1286569Y13347*
X1282448Y134465*
X1277317Y1346775*
Y1348025*
X1282448Y135015*
X1286569Y13601*
X1282448Y137005*
X1277319Y1372174*
Y1373424*
X1282449Y1375549*
X1282526Y1375735*
X1283752Y1375492*
G37*
G36*
X228752D02*
Y1371999D01*
X229703Y1369703*
X231999Y1368752*
X338478*
X339074Y1368999*
X33972*
X340177Y1369456*
X340774Y1369703*
X342176Y1369934*
X346555Y1365555*
X349999Y1364128*
X403676*
X40437Y1363089*
X403505Y1360999*
X405128Y1357079*
Y1353999*
X406555Y1350555*
X413555Y1343555*
X416999Y1342128*
X484066*
X484315Y1340878*
X480642Y1339357*
X480441Y133887*
X419558*
X419357Y1339357*
X416499Y134054*
Y1333999*
X413999*
Y1331499*
X407458*
X408116Y1329909*
X407422Y132887*
X246999*
X243555Y1327443*
X230562Y131445*
X229336Y1314694*
X227449Y1319249*
X222317Y1321375*
Y1322625*
X227448Y132475*
X231569Y13347*
X227448Y134465*
X222317Y1346775*
Y1348025*
X227448Y135015*
X231569Y13601*
X227448Y137005*
X222319Y1372174*
Y1373424*
X227449Y1375549*
X227526Y1375735*
X228752Y1375492*
G37*
G36*
X1457555Y1208555D02*
X1475555Y1190555D01*
X1478999Y1189128*
X1496827*
X1496834Y118912*
X1496243Y118787*
X1455919*
X1451999Y1189493*
X1447407Y1187591*
X1445505Y1182999*
X1447407Y1178407*
X1451999Y1176505*
X1455919Y1178128*
X1499472*
X149999Y1176878*
X1475326Y1152215*
X1471407Y1150591*
X1469505Y1145999*
X1471407Y1141407*
X1475999Y1139505*
X1480591Y1141407*
X1482215Y1145327*
X149109Y1154202*
X1492129Y1153507*
X1491505Y1151999*
X1493407Y1147407*
X1497999Y1145505*
X1501919Y1147128*
X1534999*
X1535807Y1147463*
X1536515Y1146403*
X1519555Y1129443*
X1518128Y1125999*
Y1078558*
X1517642Y1078357*
X1516458Y1075499*
X1522999*
Y1070499*
X1516458*
X1517642Y1067642*
X1520924Y1066282*
X1521168Y1065056*
X1513736Y1057624*
X1513295Y1057668*
X1512493Y1058999*
X151087Y1062919*
Y1101079*
X1512493Y1104999*
X1510591Y1109591*
X1505999Y1111493*
X1501407Y1109591*
X1499505Y1104999*
X1501128Y1101079*
Y1062919*
X1499505Y1058999*
X1499956Y105791*
X1499262Y105687*
X1495919*
X1491999Y1058493*
X1487407Y1056591*
X1485505Y1051999*
X1487407Y1047407*
X1491999Y1045505*
X1495919Y1047128*
X1514999*
X1518443Y1048555*
X1536878Y106699*
X1538128Y1066472*
Y910901*
X1539094Y908569*
X153898Y908399*
X153757Y908538*
X153595Y91245*
X1526Y916571*
X151605Y91245*
X1513924Y907317*
X1512674*
X1510549Y912449*
X1500599Y91657*
X1490649Y912449*
X1489065Y908625*
X1487815*
X1485914Y913214*
X148007Y915635*
Y935781*
X1501417Y957128*
X1512999*
X1516443Y958555*
X1529443Y971555*
X153087Y974999*
Y101044*
X1531357Y1010641*
X153254Y1013499*
X1525999*
Y1016*
X1523499*
Y102254*
X1520642Y1021357*
X152044Y102087*
X1501972*
X1501357Y1022357*
X1498499Y102354*
Y1016999*
Y1010458*
X1500118Y1011128*
X152044*
X1520642Y1010641*
X1521128Y101044*
Y996687*
X1519878Y995887*
X1515999Y997493*
X1512079Y99587*
X1458999*
X1455555Y994443*
X1420956Y959844*
X1419529Y9564*
Y914553*
X141445Y91245*
X1412325Y907319*
X1411075*
X140895Y91245*
X1403871Y914553*
Y988982*
X144809Y1033202*
X144913Y1032507*
X1448505Y1030999*
X1450128Y1027079*
Y1021999*
X1451555Y1018555*
X1463783Y1006327*
X1465407Y1002407*
X1469999Y1000506*
X1474591Y1002407*
X1476493Y1006999*
X1474591Y1011591*
X1470671Y1013215*
X145987Y1024016*
Y1027079*
X1461493Y1030999*
X1459591Y1035591*
X1454999Y1037493*
X1453491Y1036869*
X1452796Y1037908*
X1477443Y1062555*
X147887Y1065999*
Y1070079*
X1480493Y1073999*
X1478591Y1078591*
X1473999Y1080493*
X1469407Y1078591*
X1467505Y1073999*
X1469128Y1070079*
Y1068017*
X1395556Y994444*
X1394129Y991*
Y914553*
X138905Y91245*
X1386925Y907319*
X1385675*
X138355Y91245*
X13736Y916571*
X136365Y91245*
X1361525Y90732*
X1360275*
X135815Y91245*
X1348201Y916572*
X1338251Y91245*
X1336126Y90732*
X1334876*
X133275Y91245*
X1322801Y916572*
X1312851Y91245*
X1308729Y902501*
X1312851Y892551*
X1316052Y891225*
X1315808Y889999*
X1305887*
X130287Y893017*
Y928981*
X1408443Y1034555*
X140987Y1037999*
Y1102945*
X1414949Y1105049*
X1417074Y111018*
X1418324*
X1420449Y1105049*
X1430399Y1100928*
X1440349Y1105049*
X144447Y1114999*
X1440349Y1124949*
X1435218Y1127074*
Y1128324*
X1440349Y1130449*
X144447Y1140399*
X1440349Y1150349*
X1435217Y1152475*
Y1153725*
X1440348Y115585*
X1444469Y11658*
X1440348Y117575*
X1435219Y1177874*
Y1179124*
X1440349Y1181249*
X1442505Y1186455*
X1445643Y1187755*
X1454443Y1196555*
X145587Y1199999*
Y1209357*
X145712Y1209605*
X1457555Y1208555*
G37*
G36*
X402555D02*
X420555Y1190555D01*
X423999Y1189128*
X441827*
X441834Y118912*
X441243Y118787*
X400919*
X396999Y1189493*
X392407Y1187591*
X390505Y1182999*
X392407Y1178407*
X396999Y1176505*
X400919Y1178128*
X444472*
X44499Y1176878*
X420326Y1152215*
X416407Y1150591*
X414505Y1145999*
X416407Y1141407*
X420999Y1139505*
X425591Y1141407*
X427215Y1145327*
X43609Y1154202*
X437129Y1153507*
X436505Y1151999*
X438407Y1147407*
X442999Y1145505*
X446919Y1147128*
X479999*
X480807Y1147463*
X481515Y1146403*
X464555Y1129443*
X463128Y1125999*
Y1078558*
X462642Y1078357*
X461458Y1075499*
X467999*
Y1070499*
X461458*
X462642Y1067642*
X465924Y1066282*
X466168Y1065056*
X458736Y1057624*
X458295Y1057668*
X457493Y1058999*
X45587Y1062919*
Y1101079*
X457493Y1104999*
X455591Y1109591*
X450999Y1111493*
X446407Y1109591*
X444505Y1104999*
X446128Y1101079*
Y1062919*
X444505Y1058999*
X444956Y105791*
X444262Y105687*
X440919*
X436999Y1058493*
X432407Y1056591*
X430505Y1051999*
X432407Y1047407*
X436999Y1045505*
X440919Y1047128*
X459999*
X463443Y1048555*
X481878Y106699*
X483128Y1066472*
Y910901*
X484094Y908569*
X483981Y908399*
X48257Y908538*
X48095Y91245*
X471Y916571*
X46105Y91245*
X458924Y907317*
X457674*
X455549Y912449*
X445599Y91657*
X435649Y912449*
X434065Y908625*
X432816*
X430914Y913214*
X42507Y915635*
Y935781*
X446417Y957128*
X457999*
X461443Y958555*
X474443Y971555*
X47587Y974999*
Y101044*
X476357Y1010641*
X47754Y1013499*
X470999*
Y1016*
X468499*
Y102254*
X465642Y1021357*
X46544Y102087*
X446972*
X446357Y1022357*
X443499Y102354*
Y1016999*
Y1010458*
X445118Y1011128*
X46544*
X465642Y1010641*
X466128Y101044*
Y996687*
X464878Y995887*
X460999Y997493*
X457079Y99587*
X403999*
X400555Y994443*
X365956Y959844*
X364529Y9564*
Y914553*
X35945Y91245*
X357325Y907319*
X356075*
X35395Y91245*
X348871Y914553*
Y988982*
X39309Y1033202*
X39413Y1032507*
X393505Y1030999*
X395128Y1027079*
Y1021999*
X396555Y1018555*
X408783Y1006327*
X410407Y1002407*
X414999Y1000506*
X419591Y1002407*
X421493Y1006999*
X419591Y1011591*
X415671Y1013215*
X40487Y1024016*
Y1027079*
X406493Y1030999*
X404591Y1035591*
X399999Y1037493*
X398491Y1036869*
X397796Y1037908*
X422443Y1062555*
X42387Y1065999*
Y1070079*
X425493Y1073999*
X423591Y1078591*
X418999Y1080493*
X414407Y1078591*
X412505Y1073999*
X414128Y1070079*
Y1068017*
X340556Y994444*
X339129Y991*
Y914553*
X33405Y91245*
X331925Y907319*
X330675*
X32855Y91245*
X3186Y916571*
X30865Y91245*
X306525Y90732*
X305275*
X30315Y91245*
X293201Y916572*
X283251Y91245*
X281126Y90732*
X279876*
X27775Y91245*
X267801Y916572*
X257851Y91245*
X25373Y902501*
X257851Y892551*
X261052Y891225*
X260808Y889999*
X250887*
X24787Y893017*
Y928981*
X353443Y1034555*
X35487Y1037999*
Y1102945*
X359949Y1105049*
X362074Y111018*
X363324*
X365449Y1105049*
X375399Y1100928*
X385349Y1105049*
X38947Y1114999*
X385349Y1124949*
X380218Y1127074*
Y1128324*
X385349Y1130449*
X38947Y1140399*
X385349Y1150349*
X380217Y1152475*
Y1153725*
X385348Y115585*
X389469Y11658*
X385348Y117575*
X380219Y1177874*
Y1179124*
X385349Y1181249*
X387505Y1186455*
X390643Y1187755*
X399443Y1196555*
X40087Y1199999*
Y1209357*
X40212Y1209605*
X402555Y1208555*
G37*
G36*
X1644847Y1187172D02*
X1646407Y1183407D01*
X1651Y1181505*
X165206Y1181944*
X1652944Y118106*
X1652505Y1179999*
X1654407Y1175407*
X1658999Y1173505*
X1660812Y1174256*
X1662407Y1170407*
X1666999Y1168505*
X1671591Y1170407*
X1672167Y1171797*
X1673417*
X1674407Y1169407*
X1678999Y1167505*
X1682919Y1169128*
X1744981*
X1768128Y1145982*
Y1094218*
X1766878Y1093555*
X1764499Y109454*
Y1087999*
X1759499*
Y109454*
X1758079Y1093952*
X1746465*
X1721918Y1118499*
X1708458*
X1709046Y1117079*
Y1116999*
X171079Y111279*
X1739789Y108379*
X1743999Y1082046*
X1758046*
Y1063942*
X1757006Y1063248*
X1754672Y1064215*
X1692008Y1126878*
X1692526Y1128128*
X1710715*
X1710959Y1126902*
X1709641Y1126357*
X1708458Y1123499*
X172154*
X1720357Y1126357*
X1719039Y1126902*
X1719283Y1128128*
X1753079*
X1756999Y1126505*
X1761591Y1128407*
X1763493Y1132999*
X1761591Y1137591*
X1756999Y1139493*
X1753079Y113787*
X1686017*
X1639519Y1184367*
X1639813Y1185842*
X1643591Y1187407*
X1644847Y1187172*
G37*
G36*
X589847D02*
X591407Y1183407D01*
X595999Y1181505*
X59706Y1181944*
X597944Y118106*
X597505Y1179999*
X599407Y1175407*
X603999Y1173505*
X605812Y1174256*
X607407Y1170407*
X611999Y1168505*
X616591Y1170407*
X617167Y1171797*
X618417*
X619407Y1169407*
X623999Y1167505*
X627919Y1169128*
X689982*
X713128Y1145982*
Y1094218*
X711878Y1093555*
X709499Y109454*
Y1087999*
X704499*
Y109454*
X703079Y1093952*
X691465*
X666918Y1118499*
X653458*
X654046Y1117079*
Y1116999*
X655789Y111279*
X684789Y108379*
X688999Y1082046*
X703046*
Y1063942*
X702007Y1063248*
X699671Y1064215*
X637008Y1126878*
X637526Y1128128*
X655715*
X655959Y1126902*
X654641Y1126357*
X653458Y1123499*
X66654*
X665357Y1126357*
X664039Y1126902*
X664283Y1128128*
X698079*
X701999Y1126505*
X706591Y1128407*
X708493Y1132999*
X706591Y1137591*
X701999Y1139493*
X698079Y113787*
X631017*
X584519Y1184367*
X584812Y1185842*
X588591Y1187407*
X589847Y1187172*
G37*
G36*
X1858456Y1127653D02*
X1861901Y1126227D01*
X1965445*
X1967549Y1121148*
X197268Y1119022*
Y1117772*
X1967549Y1115647*
X1965445Y1110568*
X1946697*
X1943253Y1109142*
X1922981Y108887*
X1847017*
X184587Y1090017*
Y1138607*
X1847025Y1139085*
X1858456Y1127653*
G37*
G36*
X803456D02*
X806901Y1126227D01*
X910445*
X912549Y1121148*
X91768Y1119022*
Y1117772*
X912549Y1115647*
X910445Y1110568*
X891697*
X888253Y1109142*
X867981Y108887*
X792017*
X79087Y1090017*
Y1138607*
X792025Y1139085*
X803456Y1127653*
G37*
G36*
X1792126Y1097735D02*
X1798249Y1095199D01*
X1808249*
X1812897Y1097124*
X1814128Y1096282*
Y1058718*
X1811407Y1057591*
X1809505Y1052999*
X1811144Y1049041*
X1810085Y1048332*
X180798Y1050437*
X1806357Y1054357*
X1803499Y105554*
Y1048999*
X1798499*
Y105554*
X1795642Y1054357*
X1794575Y1051781*
X1793349Y1051537*
X178987Y1055016*
Y1099978*
X1791096Y1100222*
X1792126Y1097735*
G37*
G36*
X737126D02*
X743249Y1095199D01*
X753249*
X757897Y1097124*
X759128Y1096282*
Y1058718*
X756407Y1057591*
X754505Y1052999*
X756144Y1049041*
X755085Y1048332*
X75298Y1050437*
X751357Y1054357*
X748499Y105554*
Y1048999*
X743499*
Y105554*
X740641Y1054357*
X739575Y1051781*
X738349Y1051537*
X73487Y1055016*
Y1099978*
X736096Y1100222*
X737126Y1097735*
G37*
G36*
X1747783Y1057326D02*
X1749407Y1053407D01*
X1753999Y1051505*
X1755668Y1052196*
X1756552Y1051312*
X1756422Y1050999*
X1758641Y1045641*
X1761499Y1044458*
Y1050999*
X1766499*
Y1044458*
X1767089Y1044702*
X1768128Y1044008*
Y1041999*
X1769555Y1038555*
X1799555Y1008555*
X1802999Y1007128*
X1945311*
X1946112Y1005878*
X1944505Y1001999*
X1946128Y998079*
Y962999*
X1947555Y959555*
X1957257Y949853*
X1960701Y948427*
X1965445*
X1967549Y943348*
X1972679Y941223*
Y939973*
X1967548Y937848*
X1963427Y927898*
X1967548Y917948*
X1972679Y915823*
Y914573*
X1967548Y912448*
X1963427Y902498*
X1967548Y892548*
X1970743Y891225*
X19705Y889999*
X1939394*
X193915Y891225*
X1942349Y89255*
X1946471Y9025*
X1942349Y91245*
X19324Y916571*
X192245Y91245*
X1920324Y907316*
X1919074*
X1916948Y912448*
X1906998Y916569*
X1897048Y912448*
X1894923Y907317*
X1893673*
X1891548Y912448*
X1881598Y916569*
X1871648Y912448*
X1869524Y907319*
X1868274*
X1866149Y912449*
X1856199Y91657*
X1846249Y912449*
X1844124Y907318*
X1842874*
X1840749Y912449*
X1830799Y91657*
X1820849Y912449*
X1818724Y907318*
X1817474*
X1815349Y912449*
X1805399Y91657*
X1795449Y912449*
X1793324Y907318*
X1792074*
X1789949Y912449*
X1779999Y91657*
X1770049Y912449*
X1767925Y907319*
X1766675*
X176455Y91245*
X17546Y916571*
X174465Y91245*
X1742525Y907319*
X1741275*
X173915Y91245*
X17292Y916571*
X171925Y91245*
X1717124Y907316*
X1715874*
X1713748Y912448*
X1703798Y916569*
X1693848Y912448*
X1691723Y907317*
X1690473*
X1688348Y912448*
X1683269Y914552*
Y1120073*
X1684519Y1120591*
X1747783Y1057326*
G37*
G36*
X1400532Y1229902D02*
X1394284Y1227314D01*
X1390881Y1219099*
X1404999*
Y1214099*
X1390881*
X1394284Y1205884*
X1397567Y1204524*
Y1203274*
X1394284Y1201914*
X1390881Y1193699*
X1404999*
Y1188699*
X1390881*
X1394284Y1180484*
X1397566Y1179125*
Y1177875*
X1394283Y1176515*
X139088Y11683*
X1404998*
Y11633*
X139088*
X1394283Y1155085*
X1397568Y1153724*
Y1152474*
X1394284Y1151114*
X1390881Y1142899*
X1404999*
Y1137899*
X1390881*
X1394284Y1129684*
X1398874Y1127783*
Y1126533*
X1395049Y1124949*
X1390928Y1114999*
X1395049Y1105049*
X1400128Y1102945*
Y1063999*
Y1040016*
X1294555Y934443*
X1293128Y930999*
Y893017*
X1290111Y889999*
X127853*
X1278286Y891225*
X1282449Y892949*
X128657Y902899*
X1282449Y912849*
X1277315Y914975*
Y916225*
X1282447Y918351*
X1286569Y928301*
X1282447Y93825*
X1277316Y940376*
Y941626*
X1282447Y943751*
X1286569Y953701*
X1282447Y96365*
X1277318Y965775*
Y967025*
X1282448Y96915*
X1284552Y974229*
X13011*
X1304544Y975656*
X1377443Y1048555*
X137887Y1051999*
Y1063999*
Y1217981*
X1392017Y1231128*
X1400288*
X1400532Y1229902*
G37*
G36*
X692783Y1057326D02*
X694407Y1053407D01*
X698999Y1051505*
X700668Y1052196*
X701552Y1051312*
X701422Y1050999*
X703642Y1045641*
X706499Y1044458*
Y1050999*
X711499*
Y1044458*
X712089Y1044702*
X713128Y1044008*
Y1041999*
X714555Y1038555*
X744555Y1008555*
X747999Y1007128*
X890311*
X891112Y1005878*
X889505Y1001999*
X891128Y998079*
Y962999*
X892556Y959555*
X902257Y949853*
X905701Y948427*
X910445*
X912549Y943348*
X917679Y941223*
Y939973*
X912548Y937848*
X908427Y927898*
X912548Y917948*
X917679Y915823*
Y914573*
X912548Y912448*
X908427Y902498*
X912548Y892548*
X915743Y891225*
X9155Y889999*
X884394*
X884151Y891225*
X887349Y89255*
X891471Y9025*
X887349Y91245*
X8774Y916571*
X86745Y91245*
X865324Y907316*
X864074*
X861949Y912448*
X851998Y916569*
X842048Y912448*
X839923Y907317*
X838673*
X836549Y912448*
X826598Y916569*
X816648Y912448*
X814524Y907319*
X813274*
X811149Y912449*
X801199Y91657*
X791249Y912449*
X789124Y907318*
X787874*
X785749Y912449*
X775799Y91657*
X765849Y912449*
X763724Y907318*
X762474*
X760349Y912449*
X750399Y91657*
X740449Y912449*
X738324Y907318*
X737074*
X734949Y912449*
X724999Y91657*
X715049Y912449*
X712925Y907319*
X711675*
X70955Y91245*
X6996Y916571*
X68965Y91245*
X687525Y907319*
X686275*
X68415Y91245*
X6742Y916571*
X66425Y91245*
X662124Y907316*
X660874*
X658749Y912448*
X648798Y916569*
X638848Y912448*
X636723Y907317*
X635473*
X633349Y912448*
X628269Y914552*
Y1120073*
X629519Y1120591*
X692783Y1057326*
G37*
G36*
X345532Y1229902D02*
X339284Y1227314D01*
X335881Y1219099*
X349999*
Y1214099*
X335881*
X339284Y1205884*
X342567Y1204524*
Y1203274*
X339284Y1201914*
X335881Y1193699*
X349999*
Y1188699*
X335881*
X339284Y1180484*
X342565Y1179125*
Y1177875*
X339283Y1176515*
X33588Y11683*
X349998*
Y11633*
X33588*
X339283Y1155085*
X342568Y1153724*
Y1152474*
X339284Y1151114*
X335881Y1142899*
X349999*
Y1137899*
X335881*
X339284Y1129684*
X343874Y1127783*
Y1126533*
X340049Y1124949*
X335928Y1114999*
X340049Y1105049*
X345128Y1102945*
Y1063999*
Y1040016*
X239555Y934443*
X238128Y930999*
Y893017*
X235111Y889999*
X22353*
X223286Y891225*
X227449Y892949*
X23157Y902899*
X227449Y912849*
X222315Y914975*
Y916225*
X227447Y918351*
X231568Y928301*
X227447Y93825*
X222316Y940376*
Y941626*
X227447Y943751*
X231568Y953701*
X227447Y96365*
X222318Y965775*
Y967025*
X227448Y96915*
X229552Y974229*
X2461*
X249544Y975656*
X322443Y1048555*
X32387Y1051999*
Y1063999*
Y1217981*
X337017Y1231128*
X345288*
X345532Y1229902*
G37*
G36*
X18083Y752881D02*
X1816515Y756285D01*
X1818416Y760873*
X1819666*
X182125Y757049*
X1826329Y754945*
Y545798*
X1827756Y542354*
X1866783Y503326*
X1867437Y501748*
X1866377Y50104*
X1841209Y526208*
X1836999Y527952*
X1695919*
X1694499Y52854*
Y521999*
Y515458*
X1695919Y516046*
X1834533*
X1942892Y407687*
X1947101Y405943*
X1964812*
X1966785Y401181*
X1971374Y39928*
Y39803*
X196755Y396446*
X1963429Y386497*
X196755Y376547*
X1972679Y374422*
Y373172*
X1967549Y371047*
X1965445Y365968*
X1863918*
X1859434Y370452*
X1860129Y371491*
X1863249Y370199*
X187325*
X1879372Y372735*
X1881908Y378858*
Y388858*
X1879372Y394981*
X187325Y397517*
X1863249*
X1857126Y394981*
X1854589Y388858*
Y378858*
X1855882Y375738*
X1854842Y375044*
X185287Y377017*
Y418999*
X1851443Y422443*
X1843536Y43035*
X1844105Y431549*
X1848591Y433407*
X1850493Y437999*
X184887Y441919*
Y471981*
X1853671Y476783*
X1857591Y478407*
X1859493Y482999*
X1857591Y487591*
X1852999Y489493*
X1848407Y487591*
X1846783Y483671*
X1840555Y477443*
X1839128Y473999*
Y451391*
X1837973Y450913*
X1837443Y451443*
X1833999Y45287*
X168387*
Y504999*
X1683267Y506453*
X1683493Y506999*
X1681591Y511591*
X1676999Y513493*
X1672407Y511591*
X1670648Y507346*
X166935*
X1667591Y511591*
X1662999Y513493*
X1658407Y511591*
X1656783Y507672*
X1655648Y506537*
X1654449Y507105*
X165287Y510919*
Y516981*
X1783845Y647957*
X1785271Y651401*
Y754946*
X179035Y75705*
X1791934Y760873*
X1793184*
X1795085Y756285*
X18033Y752881*
Y766999*
X18083*
Y752881*
G37*
G36*
X7533D02*
X761515Y756285D01*
X763416Y760873*
X764667*
X76625Y757049*
X771329Y754945*
Y545798*
X772756Y542354*
X811784Y503326*
X812437Y501748*
X811377Y50104*
X786208Y526208*
X781999Y527952*
X640919*
X639499Y52854*
Y521999*
Y515458*
X640919Y516046*
X779533*
X887892Y407687*
X892102Y405943*
X909812*
X911785Y401181*
X916374Y39928*
Y39803*
X91255Y396446*
X908429Y386497*
X91255Y376547*
X917679Y374422*
Y373172*
X912549Y371047*
X910445Y365968*
X808918*
X804434Y370452*
X805129Y371491*
X808249Y370199*
X818249*
X824371Y372735*
X826908Y378858*
Y388858*
X824371Y394981*
X818249Y397517*
X808249*
X802126Y394981*
X79959Y388858*
Y378858*
X800882Y375738*
X799842Y375044*
X79787Y377017*
Y418999*
X796443Y422443*
X788537Y43035*
X789105Y431549*
X793591Y433407*
X795493Y437999*
X79387Y441919*
Y471981*
X798671Y476783*
X802591Y478407*
X804493Y482999*
X802591Y487591*
X797999Y489493*
X793407Y487591*
X791783Y483671*
X785555Y477443*
X784128Y473999*
Y451391*
X782973Y450913*
X782443Y451443*
X778999Y45287*
X62887*
Y504999*
X628267Y506453*
X628493Y506999*
X626591Y511591*
X621999Y513493*
X617407Y511591*
X615648Y507346*
X61435*
X612591Y511591*
X607999Y513493*
X603407Y511591*
X601783Y507672*
X600648Y506537*
X599449Y507105*
X59787Y510919*
Y516981*
X728845Y647957*
X730271Y651401*
Y754946*
X73535Y75705*
X736934Y760873*
X738184*
X740085Y756285*
X7483Y752881*
Y766999*
X7533*
Y752881*
G37*
G36*
X1259999Y769999D02*
X1283752D01*
Y752508*
X1282526Y752264*
X128245Y752448*
X12725Y756569*
X126255Y752448*
X1258429Y742498*
X126255Y732548*
X1267681Y730423*
Y729173*
X126255Y727048*
X1258429Y717098*
X126255Y707148*
X126768Y705024*
Y703774*
X1262549Y701649*
X1259999Y695492*
X1258428Y691699*
X1259999Y687906*
X1262549Y681749*
X126768Y679624*
Y678374*
X1262549Y676249*
X1258428Y666299*
X1262549Y656349*
X126768Y654224*
Y652974*
X1262549Y650849*
X1259999Y644692*
X1258428Y640899*
X1259999Y637106*
X1262549Y630949*
X126768Y628824*
Y627574*
X1262549Y625449*
X1258428Y615499*
X1262549Y605549*
X1267679Y603425*
Y602175*
X1262548Y60005*
X1258427Y5901*
X1262548Y58015*
X1267679Y578025*
Y576775*
X1262548Y57465*
X1259999Y568495*
X1259172Y566499*
X1258427Y5647*
X1262548Y55475*
X1267681Y552624*
Y551374*
X1262549Y549249*
X1259999Y543092*
X12596Y542128*
X1258428Y539299*
X1262549Y529349*
X126768Y527224*
Y525974*
X1262549Y523849*
X1259999Y517692*
X1259564Y516641*
X1258428Y513899*
X1262549Y503949*
X1266372Y502366*
Y501116*
X1261783Y499215*
X1259999Y494908*
X125838Y491*
X1272498*
Y486*
X125838*
X1258594Y485483*
X1247486Y474374*
X1246999Y474576*
X1241641Y472357*
X1240458Y469499*
X1246999*
Y466999*
X1249499*
Y460458*
X1252356Y461641*
X1254576Y466999*
X1254374Y467487*
X1258844Y471956*
X1263827Y476938*
X1266373Y475884*
Y474634*
X1262548Y47305*
X1259999Y466895*
X1259007Y464499*
X1258427Y4631*
X1262548Y45315*
X1267679Y451025*
Y449775*
X1262548Y44765*
X1260445Y442571*
X1248316*
X1233999Y456887*
Y51387*
X1232572Y517314*
X1229887Y519999*
X121487Y535017*
Y566079*
X1216493Y569999*
X1214591Y574591*
X1209999Y576493*
X1205407Y574591*
X1203505Y569999*
X1205128Y566079*
Y532999*
X1206555Y529555*
X1224257Y511852*
Y45487*
X1225684Y451426*
X1242854Y434256*
X1246298Y432829*
X1259999*
Y416095*
X1258427Y4123*
X1259999Y408505*
Y390698*
X1258426Y386901*
X1259999Y383104*
Y371999*
X1163887*
X114987Y386016*
Y405982*
X1153955Y410067*
X1155388Y409857*
X115658Y40698*
X1164999Y403493*
X1173418Y40698*
X1176905Y415399*
X1173418Y423818*
X1164999Y427305*
X115658Y423818*
X115511Y42027*
X1152399*
X1148955Y418843*
X1145025Y414913*
X114387Y415391*
Y669982*
X1156017Y682128*
X1163079*
X1166999Y680505*
X1171591Y682407*
X1173493Y686999*
X1171591Y691591*
X1166999Y693493*
X1163079Y69187*
X1153999*
X1150555Y690443*
X1137154Y677042*
X1135999Y677521*
Y799999*
X1259999*
Y769999*
G37*
G36*
X204999D02*
X228752D01*
Y752508*
X227526Y752264*
X22745Y752448*
X2175Y756569*
X20755Y752448*
X203429Y742498*
X20755Y732548*
X212681Y730423*
Y729173*
X20755Y727048*
X203429Y717098*
X20755Y707148*
X212679Y705024*
Y703774*
X207549Y701649*
X204999Y695492*
X203428Y691699*
X204999Y687906*
X207549Y681749*
X21268Y679624*
Y678374*
X207549Y676249*
X203428Y666299*
X207549Y656349*
X21268Y654224*
Y652974*
X207549Y650849*
X204999Y644692*
X203428Y640899*
X204999Y637106*
X207549Y630949*
X21268Y628824*
Y627574*
X207549Y625449*
X203428Y615499*
X207549Y605549*
X212679Y603425*
Y602175*
X207548Y60005*
X203427Y5901*
X207548Y58015*
X212679Y578025*
Y576775*
X207548Y57465*
X204999Y568495*
X204172Y566499*
X203427Y5647*
X207548Y55475*
X212681Y552624*
Y551374*
X207549Y549249*
X204999Y543092*
X2046Y542128*
X203428Y539299*
X207549Y529349*
X21268Y527224*
Y525974*
X207549Y523849*
X204999Y517692*
X204564Y516641*
X203428Y513899*
X207549Y503949*
X211372Y502366*
Y501116*
X206783Y499215*
X204999Y494908*
X20338Y491*
X217498*
Y486*
X20338*
X203595Y485483*
X192486Y474374*
X191999Y474576*
X186641Y472357*
X185458Y469499*
X191999*
Y466999*
X194499*
Y460458*
X197358Y461641*
X199576Y466999*
X199374Y467487*
X203844Y471956*
X208826Y476938*
X211373Y475884*
Y474634*
X207548Y47305*
X204999Y466895*
X204007Y464499*
X203427Y4631*
X207548Y45315*
X212679Y451025*
Y449775*
X207548Y44765*
X205445Y442571*
X193316*
X178999Y456887*
Y51387*
X177572Y517314*
X174887Y519999*
X15987Y535017*
Y566079*
X161493Y569999*
X159591Y574591*
X154999Y576493*
X150407Y574591*
X148505Y569999*
X150128Y566079*
Y532999*
X151555Y529555*
X169257Y511852*
Y45487*
X170684Y451426*
X187854Y434256*
X191298Y432829*
X204999*
Y416095*
X203427Y4123*
X204999Y408505*
Y390698*
X203426Y386901*
X204999Y383104*
Y371999*
X108887*
X09487Y386016*
Y405982*
X098955Y410067*
X100388Y409857*
X10158Y40698*
X109999Y403493*
X118418Y40698*
X121905Y415399*
X118418Y423818*
X109999Y427305*
X10158Y423818*
X10011Y42027*
X097399*
X093955Y418843*
X090025Y414913*
X08887Y415391*
Y669982*
X101017Y682128*
X108079*
X111999Y680505*
X116591Y682407*
X118493Y686999*
X116591Y691591*
X111999Y693493*
X108079Y69187*
X098999*
X095555Y690443*
X082154Y677042*
X080999Y677521*
Y799999*
X204999*
Y769999*
G37*
G36*
X2099999Y555999D02*
X2147999D01*
Y160999*
X2078999Y091999*
X1994999*
Y104128*
X2053999*
X2057443Y105555*
X2078043Y126155*
X207947Y129599*
Y235445*
X2084549Y237549*
X2086674Y24268*
X2087924*
X2090049Y237549*
X2099999Y233428*
X2109949Y237549*
X2112073Y242679*
X2113323*
X2115448Y237548*
X2125398Y233427*
X2135348Y237548*
X2139469Y247498*
X2135348Y257448*
X2125398Y261569*
X2115448Y257448*
X2113324Y252319*
X2112074*
X2109949Y257449*
X2099999Y26157*
X2090049Y257449*
X2087924Y252318*
X2086674*
X2084549Y257449*
X2074599Y26157*
X2064649Y257449*
X2060528Y247499*
X2064649Y237549*
X2069728Y235445*
Y131616*
X2058111Y119999*
X2051982Y11387*
X1994999*
Y119999*
X1984497*
X1984253Y121225*
X1987448Y122548*
X1991569Y132498*
X1987448Y142448*
X1982317Y144573*
Y145823*
X1987448Y147948*
X1991569Y157898*
X1987448Y167848*
X1982319Y169973*
Y171223*
X1987449Y173348*
X199157Y183297*
X1987449Y193247*
X1982318Y195372*
Y196622*
X1987449Y198748*
X199157Y208697*
X1987449Y218647*
X1982318Y220772*
Y222022*
X1987449Y224148*
X199157Y234097*
X1987449Y244047*
X1982318Y246172*
Y247422*
X1987449Y249548*
X199157Y259497*
X1987449Y269447*
X1982319Y271572*
Y272822*
X198745Y274947*
X1991571Y284897*
X198745Y294846*
X1982319Y296972*
Y298222*
X198745Y300347*
X1991571Y310297*
X198745Y320246*
X1982317Y322372*
Y323622*
X1987449Y325748*
X199157Y335697*
X1987449Y345647*
X1982318Y347772*
Y349022*
X1987449Y351148*
X199157Y361097*
X1987449Y371047*
X1982319Y373172*
Y374422*
X198745Y376547*
X1991571Y386497*
X198745Y396446*
X1983625Y39803*
Y39928*
X1988215Y401181*
X1990187Y405943*
X2018635*
X2033097Y391482*
X2032804Y390007*
X2030815Y389183*
X2028046Y382499*
X2039999*
X2051952*
X2049183Y389183*
X2045952Y390522*
Y392999*
X2044208Y397209*
X2025311Y416106*
X2021101Y41785*
X1990187*
X1988215Y422612*
X1983625Y424513*
Y425763*
X198745Y427347*
X1991571Y437297*
X198745Y447246*
X1982319Y449372*
Y450622*
X198745Y452747*
X1991571Y462697*
X198745Y472646*
X198232Y474771*
Y476021*
X198745Y478146*
X1991572Y488096*
X198745Y498045*
X198232Y500171*
Y501421*
X198745Y503546*
X1991572Y513496*
X198745Y523446*
X1982317Y525572*
Y526822*
X1987449Y528948*
X199157Y538897*
X1987449Y548847*
X1982318Y550972*
Y552222*
X1987449Y554348*
X199157Y564297*
X1987449Y574247*
X1982319Y576372*
Y577622*
X198745Y579747*
X1991571Y589697*
X198745Y599646*
X1982319Y601772*
Y603022*
X198745Y605147*
X1991571Y615097*
X198745Y625046*
X1982319Y627172*
Y628422*
X198745Y630547*
X1991571Y640497*
X198745Y650446*
X1982319Y652572*
Y653822*
X198745Y655947*
X1991571Y665897*
X198745Y675846*
X198232Y677971*
Y679221*
X198745Y681346*
X1991572Y691296*
X198745Y701245*
X198232Y703371*
Y704621*
X198745Y706746*
X1991572Y716696*
X198745Y726645*
X1982317Y728772*
Y730022*
X1987449Y732148*
X199157Y742097*
X1987449Y752047*
X1977499Y756169*
X1967549Y752047*
X1963428Y742097*
X1967549Y732148*
X1972683Y730021*
Y728771*
X1967551Y726645*
X1963429Y716696*
X1967551Y706746*
X1972682Y704621*
Y703371*
X1967551Y701245*
X1963429Y691296*
X1967551Y681346*
X197268Y679221*
Y677971*
X196755Y675846*
X1963429Y665897*
X196755Y655947*
X1972681Y653822*
Y652572*
X196755Y650446*
X1963429Y640497*
X196755Y630547*
X1972681Y628422*
Y627172*
X196755Y625046*
X1963429Y615097*
X196755Y605147*
X1972681Y603022*
Y601772*
X196755Y599646*
X1963429Y589697*
X196755Y579747*
X1972679Y577622*
Y576372*
X1967549Y574247*
X1963428Y564297*
X1967549Y554348*
X197268Y552222*
Y550972*
X1967549Y548847*
X1963428Y538897*
X1967549Y528948*
X1972683Y526821*
Y525571*
X1967551Y523446*
X1963429Y513496*
X1967551Y503546*
X1972682Y501421*
Y500171*
X1967551Y498045*
X1963429Y488096*
X1967551Y478146*
X197268Y476021*
Y474771*
X196755Y472646*
X1963429Y462697*
X196755Y452747*
X1972681Y450622*
Y449372*
X196755Y447246*
X1963429Y437297*
X196755Y427347*
X1971374Y425763*
Y424513*
X1966785Y422612*
X1964812Y41785*
X1949567*
X1870039Y497378*
X1870748Y498437*
X1872999Y497505*
X1877591Y499407*
X1879493Y503999*
X1877591Y508591*
X1873671Y510215*
X183607Y547816*
Y754945*
X184115Y757049*
X1843275Y76218*
X1844525*
X184665Y757049*
X18566Y752928*
X1866549Y757049*
X1868675Y76218*
X1869925*
X187205Y757049*
X1882Y752928*
X189195Y757049*
X1894074Y762179*
X1895324*
X1897449Y757048*
X1907399Y752927*
X1917349Y757048*
X1919474Y762179*
X1920724*
X1922849Y757048*
X1932799Y752927*
X1942749Y757048*
X194687Y766998*
X1946058Y76896*
X1946752Y769999*
X2014467*
X2015351Y769115*
Y768756*
X2021692Y753449*
X2023449Y751692*
X2038756Y745351*
X2039402*
X2039999Y745104*
X2040596Y745351*
X2041242*
X2056549Y751692*
X2058306Y753449*
X2064647Y768756*
Y769115*
X2065531Y769999*
X2099999*
Y555999*
G37*
G36*
X1044999D02*
X1092999D01*
Y160999*
X1023999Y091999*
X939999*
Y104128*
X998999*
X1002443Y105555*
X1023043Y126155*
X102447Y129599*
Y235445*
X1029549Y237549*
X1031674Y24268*
X1032924*
X103505Y237549*
X1044999Y233428*
X1054949Y237549*
X1057073Y242679*
X1058323*
X1060448Y237548*
X1070398Y233427*
X1080348Y237548*
X1084469Y247498*
X1080348Y257448*
X1070398Y261569*
X1060448Y257448*
X1058324Y252319*
X1057074*
X1054949Y257449*
X1044999Y26157*
X103505Y257449*
X1032924Y252318*
X1031674*
X1029549Y257449*
X1019599Y26157*
X100965Y257449*
X1005528Y247499*
X100965Y237549*
X1014728Y235445*
Y131616*
X1003111Y119999*
X996981Y11387*
X939999*
Y119999*
X929497*
X929253Y121225*
X932448Y122548*
X936569Y132498*
X932448Y142448*
X927317Y144573*
Y145823*
X932448Y147948*
X936569Y157898*
X932448Y167848*
X927319Y169973*
Y171223*
X932449Y173348*
X93657Y183297*
X932449Y193247*
X927318Y195372*
Y196622*
X932449Y198748*
X93657Y208697*
X932449Y218647*
X927318Y220772*
Y222022*
X932449Y224148*
X93657Y234097*
X932449Y244047*
X927318Y246172*
Y247422*
X932449Y249548*
X93657Y259497*
X932449Y269447*
X927319Y271572*
Y272822*
X93245Y274947*
X936571Y284897*
X93245Y294846*
X927319Y296972*
Y298222*
X93245Y300347*
X936571Y310297*
X93245Y320246*
X927317Y322372*
Y323622*
X932449Y325748*
X93657Y335697*
X932449Y345647*
X927318Y347772*
Y349022*
X932449Y351148*
X93657Y361097*
X932449Y371047*
X927319Y373172*
Y374422*
X93245Y376547*
X936571Y386497*
X93245Y396446*
X928625Y39803*
Y39928*
X933215Y401181*
X935188Y405943*
X963636*
X978097Y391482*
X977804Y390007*
X975815Y389183*
X973046Y382499*
X984999*
X996952*
X994183Y389183*
X990952Y390522*
Y392999*
X989209Y397209*
X970311Y416106*
X966101Y41785*
X935188*
X933215Y422612*
X928625Y424513*
Y425763*
X93245Y427347*
X936571Y437297*
X93245Y447246*
X927319Y449372*
Y450622*
X93245Y452747*
X936571Y462697*
X93245Y472646*
X92732Y474771*
Y476021*
X93245Y478146*
X936572Y488096*
X93245Y498045*
X92732Y500171*
Y501421*
X93245Y503546*
X936572Y513496*
X93245Y523446*
X927317Y525572*
Y526822*
X932449Y528948*
X93657Y538897*
X932449Y548847*
X927318Y550972*
Y552222*
X932449Y554348*
X93657Y564297*
X932449Y574247*
X927319Y576372*
Y577622*
X93245Y579747*
X936571Y589697*
X93245Y599646*
X927319Y601772*
Y603022*
X93245Y605147*
X936571Y615097*
X93245Y625046*
X927319Y627172*
Y628422*
X93245Y630547*
X936571Y640497*
X93245Y650446*
X927319Y652572*
Y653822*
X93245Y655947*
X936571Y665897*
X93245Y675846*
X92732Y677971*
Y679221*
X93245Y681346*
X936572Y691296*
X93245Y701245*
X92732Y703371*
Y704621*
X93245Y706746*
X936572Y716696*
X93245Y726645*
X927317Y728772*
Y730022*
X932449Y732148*
X93657Y742097*
X932449Y752047*
X922499Y756169*
X912549Y752047*
X908428Y742097*
X912549Y732148*
X917683Y730021*
Y728771*
X912551Y726645*
X908429Y716696*
X912551Y706746*
X917682Y704621*
Y703371*
X912551Y701245*
X908429Y691296*
X912551Y681346*
X91768Y679221*
Y677971*
X91255Y675846*
X908429Y665897*
X91255Y655947*
X917681Y653822*
Y652572*
X91255Y650446*
X908429Y640497*
X91255Y630547*
X917681Y628422*
Y627172*
X91255Y625046*
X908429Y615097*
X91255Y605147*
X917681Y603022*
Y601772*
X91255Y599646*
X908429Y589697*
X91255Y579747*
X917679Y577622*
Y576372*
X912549Y574247*
X908428Y564297*
X912549Y554348*
X91768Y552222*
Y550972*
X912549Y548847*
X908428Y538897*
X912549Y528948*
X917683Y526821*
Y525571*
X912551Y523446*
X908429Y513496*
X912551Y503546*
X917682Y501421*
Y500171*
X912551Y498045*
X908429Y488096*
X912551Y478146*
X91768Y476021*
Y474771*
X91255Y472646*
X908429Y462697*
X91255Y452747*
X917681Y450622*
Y449372*
X91255Y447246*
X908429Y437297*
X91255Y427347*
X916374Y425763*
Y424513*
X911785Y422612*
X909812Y41785*
X894567*
X81504Y497378*
X815748Y498437*
X817999Y497505*
X822591Y499407*
X824493Y503999*
X822591Y508591*
X818671Y510215*
X781071Y547816*
Y754945*
X78615Y757049*
X788275Y76218*
X789525*
X79165Y757049*
X8016Y752928*
X81155Y757049*
X813675Y76218*
X814925*
X81705Y757049*
X827Y752928*
X83695Y757049*
X839074Y762179*
X840324*
X842449Y757048*
X852399Y752927*
X862349Y757048*
X864474Y762179*
X865724*
X867849Y757048*
X877799Y752927*
X887749Y757048*
X89187Y766998*
X891058Y76896*
X891752Y769999*
X959467*
X960351Y769115*
Y768756*
X966692Y753449*
X968449Y751692*
X983756Y745351*
X984402*
X984999Y745104*
X985596Y745351*
X986242*
X1001549Y751692*
X1003306Y753449*
X1009647Y768756*
Y769115*
X1010531Y769999*
X1044999*
Y555999*
G37*
G36*
X1319833Y782084D02*
X132007Y780856D01*
X1312485Y777714*
X1309082Y769499*
X13232*
Y766999*
X13257*
Y752881*
X1333915Y756285*
X1335817Y760876*
X1337067*
X1338652Y757051*
X1342648Y755396*
Y754397*
X1344392Y750187*
X1459289Y635289*
X1463499Y633546*
X1473559*
X147458Y63108*
X1482999Y627593*
X1491418Y63108*
X1494905Y639499*
X1491418Y647918*
X1482999Y651405*
X147458Y647918*
X1473559Y645452*
X1465965*
X1356387Y75503*
X1356631Y756256*
X1358551Y757051*
X1360676Y762182*
X1361926*
X1364052Y757051*
X1374001Y75293*
X1383951Y757051*
X1386076Y76218*
X1387326*
X1389451Y75705*
X1399401Y752929*
X140935Y75705*
X1411476Y762181*
X1412726*
X1414851Y75705*
X1424801Y752929*
X143475Y75705*
X1436876Y762181*
X1438126*
X1440251Y75705*
X1450201Y752929*
X146015Y75705*
X1462276Y762181*
X1463526*
X1465651Y75705*
X1475601Y752929*
X148555Y75705*
X1487675Y762179*
X1488925*
X149105Y757049*
X1501Y752928*
X1510949Y757049*
X1513075Y76218*
X1514325*
X151645Y757049*
X15264Y752928*
X153635Y757049*
X1538476Y762183*
X1539726*
X1541852Y757051*
X1551801Y75293*
X155196Y752995*
X1552999Y752301*
Y60387*
X1407017*
X138787Y623017*
Y62711*
X1391418Y62858*
X1394905Y636999*
X1391418Y645418*
X1382999Y648905*
X137458Y645418*
X1371093Y636999*
X137458Y62858*
X1378128Y62711*
Y620999*
X1379555Y617555*
X1393956Y603154*
X1393478Y601999*
X1286999*
Y781565*
X1287888Y782444*
X1319833Y782084*
G37*
G36*
X264833D02*
X26507Y780856D01*
X257485Y777714*
X254082Y769499*
X2682*
Y766999*
X2707*
Y752881*
X278915Y756285*
X280817Y760876*
X282067*
X283652Y757051*
X287648Y755396*
Y754397*
X289392Y750187*
X40429Y635289*
X408499Y633546*
X418559*
X41958Y63108*
X427999Y627593*
X436418Y63108*
X439905Y639499*
X436418Y647918*
X427999Y651405*
X41958Y647918*
X418559Y645452*
X410965*
X301387Y75503*
X301631Y756256*
X303551Y757051*
X305676Y762182*
X306926*
X309052Y757051*
X319001Y75293*
X328951Y757051*
X331076Y76218*
X332326*
X334451Y75705*
X344401Y752929*
X35435Y75705*
X356476Y762181*
X357726*
X359851Y75705*
X369801Y752929*
X37975Y75705*
X381876Y762181*
X383126*
X385251Y75705*
X395201Y752929*
X40515Y75705*
X407276Y762181*
X408526*
X410651Y75705*
X420601Y752929*
X43055Y75705*
X432675Y762179*
X433925*
X43605Y757049*
X446Y752928*
X45595Y757049*
X458075Y76218*
X459325*
X46145Y757049*
X4714Y752928*
X48135Y757049*
X483476Y762183*
X484726*
X486852Y757051*
X496801Y75293*
X49696Y752995*
X497999Y752301*
Y60387*
X352017*
X33287Y623017*
Y62711*
X336418Y62858*
X339905Y636999*
X336418Y645418*
X327999Y648905*
X31958Y645418*
X316093Y636999*
X31958Y62858*
X323128Y62711*
Y620999*
X324555Y617555*
X338956Y603154*
X338478Y601999*
X231999*
Y781565*
X232888Y782444*
X264833Y782084*
G37*
G36*
X1634128Y636676D02*
Y556919D01*
X1632505Y552999*
X1634407Y548407*
X1637902Y546959*
X1637505Y545999*
X1639407Y541407*
X1643893Y539549*
X1644461Y53835*
X1633555Y527443*
X1632128Y523999*
Y511919*
X1630505Y508*
X163137Y505909*
X1630676Y50487*
X1587999*
X1584555Y503443*
X1572555Y491443*
X1571128Y487999*
Y466919*
X1569505Y462999*
X1571128Y459079*
Y457151*
X1570089Y456456*
X1569999Y456493*
X1566079Y45487*
X1562017*
X153187Y485017*
Y509999*
X1530443Y513443*
X1486443Y557443*
X1485393Y557878*
X1485641Y559128*
X153544*
X1535641Y558642*
X1538499Y557458*
Y563999*
X1540999*
Y566499*
X154754*
X1546357Y569357*
X1542683Y570878*
X1542931Y572128*
X1546079*
X1549999Y570505*
X1554591Y572407*
X1556493Y576999*
X1554591Y581591*
X1549999Y583493*
X1546079Y58187*
X1474016*
X146987Y586016*
Y587079*
X1471493Y590999*
X1470628Y59309*
X1471322Y594128*
X1557079*
X1560999Y592505*
X1564919Y594128*
X1586999*
X1590443Y595555*
X1631672Y636783*
X1633089Y63737*
X1634128Y636676*
G37*
G36*
X579128D02*
Y556919D01*
X577505Y552999*
X579407Y548407*
X582902Y546959*
X582505Y545999*
X584407Y541407*
X588893Y539549*
X589462Y53835*
X578555Y527443*
X577128Y523999*
Y511919*
X575505Y508*
X57637Y505909*
X575676Y50487*
X532999*
X529555Y503443*
X517555Y491443*
X516128Y487999*
Y466919*
X514505Y462999*
X516128Y459079*
Y457151*
X515089Y456456*
X514999Y456493*
X511079Y45487*
X507017*
X47687Y485017*
Y509999*
X475443Y513443*
X431443Y557443*
X430393Y557878*
X430641Y559128*
X480441*
X480642Y558642*
X483499Y557458*
Y563999*
X485999*
Y566499*
X49254*
X491357Y569357*
X487683Y570878*
X487932Y572128*
X491079*
X494999Y570505*
X499591Y572407*
X501493Y576999*
X499591Y581591*
X494999Y583493*
X491079Y58187*
X419017*
X41487Y586016*
Y587079*
X416493Y590999*
X415628Y59309*
X416322Y594128*
X502079*
X505999Y592505*
X509919Y594128*
X531999*
X535443Y595555*
X576672Y636783*
X578089Y63737*
X579128Y636676*
G37*
G36*
X1283752Y605492D02*
Y601999D01*
X1284703Y599703*
X1286999Y598752*
X1393478*
X1394074Y598999*
X139472*
X1395177Y599456*
X1395774Y599703*
X1397176Y599934*
X1401555Y595555*
X1404999Y594128*
X1458676*
X145937Y59309*
X1458505Y590999*
X1460128Y587079*
Y583999*
X1461555Y580555*
X1468555Y573555*
X1471999Y572128*
X1539067*
X1539315Y570878*
X1535641Y569357*
X153544Y56887*
X1474558*
X1474356Y569357*
X1471499Y57054*
Y563999*
X1468999*
Y561499*
X1462458*
X1463116Y559909*
X1462422Y55887*
X1301999*
X1298555Y557443*
X1285561Y54445*
X1284336Y544694*
X1282449Y549249*
X1277317Y551375*
Y552625*
X1282448Y55475*
X1286569Y5647*
X1282448Y57465*
X1277317Y576775*
Y578025*
X1282448Y58015*
X1286569Y5901*
X1282448Y60005*
X1277318Y602174*
Y603424*
X1282449Y605549*
X1282526Y605735*
X1283752Y605492*
G37*
G36*
X228752D02*
Y601999D01*
X229703Y599703*
X231999Y598752*
X338478*
X339074Y598999*
X33972*
X340177Y599456*
X340774Y599703*
X342176Y599934*
X346555Y595555*
X349999Y594128*
X403676*
X40437Y59309*
X403505Y590999*
X405128Y587079*
Y583999*
X406555Y580555*
X413555Y573555*
X416999Y572128*
X484066*
X484315Y570878*
X480642Y569357*
X480441Y56887*
X419558*
X419357Y569357*
X416499Y57054*
Y563999*
X413999*
Y561499*
X407458*
X408116Y559909*
X407422Y55887*
X246999*
X243555Y557443*
X230562Y54445*
X229336Y544694*
X227449Y549249*
X222317Y551375*
Y552625*
X227448Y55475*
X231569Y5647*
X227448Y57465*
X222317Y576775*
Y578025*
X227448Y58015*
X231569Y5901*
X227448Y60005*
X222319Y602174*
Y603424*
X227449Y605549*
X227526Y605735*
X228752Y605492*
G37*
G36*
X1457555Y438555D02*
X1475555Y420555D01*
X1478999Y419128*
X1496827*
X1496834Y41912*
X1496243Y41787*
X1455919*
X1451999Y419493*
X1447407Y417591*
X1445505Y412999*
X1447407Y408407*
X1451999Y406505*
X1455919Y408128*
X1499472*
X149999Y406878*
X1475326Y382215*
X1471407Y380591*
X1469505Y375999*
X1471407Y371407*
X1475999Y369505*
X1480591Y371407*
X1482215Y375326*
X149109Y384202*
X1492129Y383507*
X1491505Y381999*
X1493407Y377407*
X1497999Y375505*
X1501919Y377128*
X1534999*
X1535807Y377463*
X1536515Y376403*
X1519555Y359443*
X1518128Y355999*
Y308558*
X1517641Y308357*
X1516458Y305499*
X1522999*
Y300499*
X1516458*
X1517641Y297641*
X1520924Y296282*
X1521168Y295056*
X1513736Y287624*
X1513295Y287667*
X1512493Y288999*
X151087Y292919*
Y331079*
X1512493Y334999*
X1510591Y339591*
X1505999Y341493*
X1501407Y339591*
X1499505Y334999*
X1501128Y331079*
Y292919*
X1499505Y288999*
X1499956Y287909*
X1499262Y28687*
X1495919*
X1491999Y288493*
X1487407Y286591*
X1485505Y281999*
X1487407Y277407*
X1491999Y275505*
X1495919Y277128*
X1514999*
X1518443Y278555*
X1536878Y29699*
X1538128Y296472*
Y140901*
X1539094Y138569*
X153898Y138399*
X153757Y138538*
X1535949Y14245*
X1526Y146571*
X151605Y14245*
X1513924Y137317*
X1512674*
X1510549Y142449*
X1500599Y14657*
X1490649Y142449*
X1489065Y138625*
X1487815*
X1485914Y143214*
X148007Y145635*
Y165782*
X1501417Y187128*
X1512999*
X1516443Y188555*
X1529443Y201555*
X153087Y204999*
Y24044*
X1531357Y240642*
X153254Y243499*
X1525999*
Y245999*
X1523499*
Y25254*
X1520642Y251357*
X152044Y25087*
X1501972*
X1501357Y252357*
X1498499Y25354*
Y246999*
Y240458*
X1500118Y241128*
X152044*
X1520642Y240642*
X1521128Y24044*
Y226687*
X1519878Y225887*
X1515999Y227493*
X1512079Y22587*
X1458999*
X1455555Y224443*
X1420956Y189844*
X1419529Y1864*
Y144553*
X141445Y14245*
X1412325Y137319*
X1411075*
X140895Y14245*
X140387Y144553*
Y218982*
X144809Y263202*
X1449129Y262507*
X1448505Y260999*
X1450128Y257079*
Y251999*
X1451555Y248555*
X1463783Y236326*
X1465407Y232407*
X1469999Y230505*
X1474591Y232407*
X1476493Y236999*
X1474591Y241591*
X1470671Y243215*
X145987Y254017*
Y257079*
X1461493Y260999*
X1459591Y265591*
X1454999Y267493*
X1453491Y266869*
X1452796Y267908*
X1477443Y292555*
X147887Y295999*
Y300079*
X1480493Y303999*
X1478591Y308591*
X1473999Y310493*
X1469407Y308591*
X1467505Y303999*
X1469128Y300079*
Y298017*
X1395556Y224444*
X1394129Y221*
Y144553*
X138905Y14245*
X1386925Y137319*
X1385675*
X138355Y14245*
X13736Y146571*
X136365Y14245*
X1361525Y13732*
X1360275*
X135815Y14245*
X1348201Y146572*
X1338251Y14245*
X1336126Y13732*
X1334876*
X133275Y14245*
X1322801Y146572*
X1312851Y14245*
X1308729Y132501*
X1312851Y122551*
X1316052Y121225*
X1315808Y119999*
X1305887*
X130287Y123017*
Y158981*
X1408443Y264555*
X140987Y267999*
Y332946*
X1414949Y335049*
X1417074Y34018*
X1418324*
X1420449Y335049*
X1430399Y330928*
X1440349Y335049*
X144447Y344999*
X1440349Y354949*
X1435218Y357074*
Y358324*
X1440349Y360449*
X144447Y370399*
X1440349Y380349*
X1435217Y382475*
Y383725*
X1440348Y38585*
X1444469Y3958*
X1440348Y40575*
X1435219Y407874*
Y409124*
X1440349Y411249*
X1442505Y416455*
X1445643Y417755*
X1454443Y426555*
X145587Y429999*
Y439357*
X145712Y439605*
X1457555Y438555*
G37*
G36*
X402555D02*
X420555Y420555D01*
X423999Y419128*
X441827*
X441834Y41912*
X441243Y41787*
X400919*
X396999Y419493*
X392407Y417591*
X390505Y412999*
X392407Y408407*
X396999Y406505*
X400919Y408128*
X444472*
X44499Y406878*
X420326Y382215*
X416407Y380591*
X414505Y375999*
X416407Y371407*
X420999Y369505*
X425591Y371407*
X427215Y375326*
X43609Y384202*
X437129Y383507*
X436505Y381999*
X438407Y377407*
X442999Y375505*
X446919Y377128*
X479999*
X480807Y377463*
X481515Y376403*
X464555Y359443*
X463128Y355999*
Y308558*
X462642Y308357*
X461458Y305499*
X467999*
Y300499*
X461458*
X462642Y297641*
X465924Y296282*
X466168Y295056*
X458736Y287624*
X458295Y287667*
X457493Y288999*
X45587Y292919*
Y331079*
X457493Y334999*
X455591Y339591*
X450999Y341493*
X446407Y339591*
X444505Y334999*
X446128Y331079*
Y292919*
X444505Y288999*
X444956Y287909*
X444262Y28687*
X440919*
X436999Y288493*
X432407Y286591*
X430505Y281999*
X432407Y277407*
X436999Y275505*
X440919Y277128*
X459999*
X463443Y278555*
X481878Y29699*
X483128Y296472*
Y140901*
X484094Y138569*
X483981Y138399*
X48257Y138538*
X48095Y14245*
X471Y146571*
X46105Y14245*
X458924Y137317*
X457674*
X455549Y142449*
X445599Y14657*
X435649Y142449*
X434065Y138625*
X432816*
X430914Y143214*
X42507Y145635*
Y165782*
X446417Y187128*
X457999*
X461443Y188555*
X474443Y201555*
X47587Y204999*
Y24044*
X476357Y240642*
X47754Y243499*
X470999*
Y245999*
X468499*
Y25254*
X465642Y251357*
X46544Y25087*
X446972*
X446357Y252357*
X443499Y25354*
Y246999*
Y240458*
X445118Y241128*
X46544*
X465642Y240642*
X466128Y24044*
Y226687*
X464878Y225887*
X460999Y227493*
X457079Y22587*
X403999*
X400555Y224443*
X365956Y189844*
X364529Y1864*
Y144553*
X35945Y14245*
X357325Y137319*
X356075*
X35395Y14245*
X348871Y144553*
Y218982*
X39309Y263202*
X39413Y262507*
X393505Y260999*
X395128Y257079*
Y251999*
X396555Y248555*
X408783Y236326*
X410407Y232407*
X414999Y230505*
X419591Y232407*
X421493Y236999*
X419591Y241591*
X415671Y243215*
X40487Y254017*
Y257079*
X406493Y260999*
X404591Y265591*
X399999Y267493*
X398491Y266869*
X397796Y267908*
X422443Y292555*
X42387Y295999*
Y300079*
X425493Y303999*
X423591Y308591*
X418999Y310493*
X414407Y308591*
X412505Y303999*
X414128Y300079*
Y298017*
X340556Y224444*
X339129Y221*
Y144553*
X33405Y14245*
X331925Y137319*
X330675*
X32855Y14245*
X3186Y146571*
X30865Y14245*
X306525Y13732*
X305275*
X30315Y14245*
X293201Y146572*
X283251Y14245*
X281126Y13732*
X279876*
X27775Y14245*
X267801Y146572*
X257851Y14245*
X25373Y132501*
X257851Y122551*
X261052Y121225*
X260808Y119999*
X250887*
X24787Y123017*
Y158981*
X353443Y264555*
X35487Y267999*
Y332946*
X359949Y335049*
X362074Y34018*
X363324*
X365449Y335049*
X375399Y330928*
X385349Y335049*
X38947Y344999*
X385349Y354949*
X380218Y357074*
Y358324*
X385349Y360449*
X38947Y370399*
X385349Y380349*
X380217Y382475*
Y383725*
X385348Y38585*
X389469Y3958*
X385348Y40575*
X380219Y407874*
Y409124*
X385349Y411249*
X387505Y416455*
X390643Y417755*
X399443Y426555*
X40087Y429999*
Y439357*
X40212Y439605*
X402555Y438555*
G37*
G36*
X1644847Y417172D02*
X1646407Y413407D01*
X1651Y411505*
X165206Y411944*
X1652944Y41106*
X1652505Y409999*
X1654407Y405407*
X1658999Y403505*
X1660812Y404256*
X1662407Y400407*
X1666999Y398505*
X1671591Y400407*
X1672167Y401797*
X1673417*
X1674407Y399407*
X1678999Y397505*
X1682919Y399128*
X1744981*
X1768128Y375982*
Y324218*
X1766878Y323555*
X1764499Y32454*
Y317999*
X1759499*
Y32454*
X1758079Y323952*
X1746465*
X1721918Y348499*
X1708458*
X1709046Y347079*
Y346999*
X171079Y342789*
X1739789Y313789*
X1743999Y312046*
X1758046*
Y293942*
X1757006Y293248*
X1754672Y294215*
X1692008Y356878*
X1692526Y358128*
X1710715*
X1710959Y356902*
X1709641Y356357*
X1708458Y353499*
X172154*
X1720357Y356357*
X1719039Y356902*
X1719283Y358128*
X1753079*
X1756999Y356505*
X1761591Y358407*
X1763493Y362999*
X1761591Y367591*
X1756999Y369493*
X1753079Y36787*
X1686016*
X1639519Y414367*
X1639813Y415842*
X1643591Y417407*
X1644847Y417172*
G37*
G36*
X589847D02*
X591407Y413407D01*
X595999Y411505*
X59706Y411944*
X597944Y41106*
X597505Y409999*
X599407Y405407*
X603999Y403505*
X605812Y404256*
X607407Y400407*
X611999Y398505*
X616591Y400407*
X617167Y401797*
X618417*
X619407Y399407*
X623999Y397505*
X627919Y399128*
X689982*
X713128Y375982*
Y324218*
X711878Y323555*
X709499Y32454*
Y317999*
X704499*
Y32454*
X703079Y323952*
X691465*
X666918Y348499*
X653458*
X654046Y347079*
Y346999*
X655789Y342789*
X684789Y313789*
X688999Y312046*
X703046*
Y293942*
X702007Y293248*
X699671Y294215*
X637008Y356878*
X637526Y358128*
X655715*
X655959Y356902*
X654641Y356357*
X653458Y353499*
X66654*
X665357Y356357*
X664039Y356902*
X664283Y358128*
X698079*
X701999Y356505*
X706591Y358407*
X708493Y362999*
X706591Y367591*
X701999Y369493*
X698079Y36787*
X631017*
X584519Y414367*
X584812Y415842*
X588591Y417407*
X589847Y417172*
G37*
G36*
X1858456Y357653D02*
X1861901Y356227D01*
X1965445*
X1967549Y351148*
X197268Y349022*
Y347772*
X1967549Y345647*
X1965445Y340568*
X1946697*
X1943253Y339141*
X1922981Y31887*
X1847017*
X184587Y320017*
Y368607*
X1847025Y369085*
X1858456Y357653*
G37*
G36*
X803456D02*
X806901Y356227D01*
X910445*
X912549Y351148*
X91768Y349022*
Y347772*
X912549Y345647*
X910445Y340568*
X891697*
X888253Y339141*
X867981Y31887*
X792017*
X79087Y320017*
Y368607*
X792025Y369085*
X803456Y357653*
G37*
G36*
X1792126Y327735D02*
X1798249Y325199D01*
X1808249*
X1812897Y327125*
X1814128Y326282*
Y288719*
X1811407Y287591*
X1809505Y282999*
X1811144Y279041*
X1810085Y278332*
X180798Y280437*
X1806357Y284356*
X1803499Y28554*
Y278999*
X1798499*
Y28554*
X1795641Y284356*
X1794575Y281781*
X1793349Y281538*
X178987Y285017*
Y329978*
X1791096Y330222*
X1792126Y327735*
G37*
G36*
X737126D02*
X743249Y325199D01*
X753249*
X757897Y327125*
X759128Y326282*
Y288719*
X756407Y287591*
X754505Y282999*
X756144Y279041*
X755085Y278332*
X75298Y280437*
X751357Y284356*
X748499Y28554*
Y278999*
X743499*
Y28554*
X740641Y284356*
X739575Y281781*
X738349Y281538*
X73487Y285017*
Y329978*
X736096Y330222*
X737126Y327735*
G37*
G36*
X1747783Y287326D02*
X1749407Y283407D01*
X1753999Y281505*
X1755668Y282196*
X1756552Y281312*
X1756422Y280999*
X1758641Y275642*
X1761499Y274458*
Y280999*
X1766499*
Y274458*
X1767089Y274702*
X1768128Y274008*
Y271999*
X1769555Y268555*
X1799555Y238555*
X1802999Y237128*
X1945311*
X1946112Y235878*
X1944505Y231999*
X1946128Y228079*
Y192999*
X1947555Y189555*
X1957257Y179853*
X1960701Y178427*
X1965445*
X1967549Y173348*
X1972679Y171223*
Y169973*
X1967548Y167848*
X1963427Y157898*
X1967548Y147948*
X1972679Y145823*
Y144573*
X1967548Y142448*
X1963427Y132498*
X1967548Y122548*
X1970743Y121225*
X19705Y119999*
X1939394*
X193915Y121225*
X1942349Y12255*
X1946471Y1325*
X1942349Y14245*
X19324Y146571*
X192245Y14245*
X1920324Y137316*
X1919074*
X1916948Y142448*
X1906998Y146569*
X1897048Y142448*
X1894923Y137317*
X1893673*
X1891548Y142448*
X1881598Y146569*
X1871648Y142448*
X1869524Y137319*
X1868274*
X1866149Y142449*
X1856199Y14657*
X1846249Y142449*
X1844124Y137318*
X1842874*
X1840749Y142449*
X1830799Y14657*
X1820849Y142449*
X1818724Y137318*
X1817474*
X1815349Y142449*
X1805399Y14657*
X1795449Y142449*
X1793324Y137318*
X1792074*
X1789949Y142449*
X1779999Y14657*
X1770049Y142449*
X1767925Y137319*
X1766675*
X1764549Y14245*
X17546Y146571*
X174465Y14245*
X1742525Y137319*
X1741275*
X173915Y14245*
X17292Y146571*
X171925Y14245*
X1717124Y137316*
X1715874*
X1713748Y142448*
X1703798Y146569*
X1693848Y142448*
X1691723Y137317*
X1690473*
X1688348Y142448*
X1683269Y144552*
Y350073*
X1684519Y350591*
X1747783Y287326*
G37*
G36*
X1400532Y459902D02*
X1394284Y457314D01*
X1390881Y449099*
X1404999*
Y444099*
X1390881*
X1394284Y435884*
X1397567Y434524*
Y433274*
X1394284Y431914*
X1390881Y423699*
X1404999*
Y418699*
X1390881*
X1394284Y410484*
X1397565Y409125*
Y407875*
X1394283Y406515*
X139088Y3983*
X1404998*
Y3933*
X139088*
X1394283Y385085*
X1397567Y383724*
Y382474*
X1394284Y381114*
X1390881Y372899*
X1404999*
Y367899*
X1390881*
X1394284Y359684*
X1398873Y357783*
Y356533*
X1395049Y354949*
X1390928Y344999*
X1395049Y335049*
X1400128Y332946*
Y293999*
Y270017*
X1294555Y164443*
X1293128Y160999*
Y123017*
X1290111Y119999*
X127853*
X1278286Y121225*
X1282449Y122949*
X128657Y132899*
X1282449Y142849*
X1277315Y144975*
Y146225*
X1282447Y148351*
X1286569Y158301*
X1282447Y16825*
X1277316Y170376*
Y171626*
X1282447Y173751*
X1286569Y183701*
X1282447Y19365*
X1277318Y195775*
Y197025*
X1282448Y19915*
X1284552Y204229*
X13011*
X1304544Y205656*
X1377443Y278555*
X137887Y281999*
Y293999*
Y447981*
X1392017Y461128*
X1400288*
X1400532Y459902*
G37*
G36*
X692783Y287326D02*
X694407Y283407D01*
X698999Y281505*
X700668Y282196*
X701552Y281312*
X701422Y280999*
X703642Y275642*
X706499Y274458*
Y280999*
X711499*
Y274458*
X712089Y274702*
X713128Y274008*
Y271999*
X714555Y268555*
X744555Y238555*
X747999Y237128*
X890311*
X891112Y235878*
X889505Y231999*
X891128Y228079*
Y192999*
X892556Y189555*
X902257Y179853*
X905701Y178427*
X910445*
X912549Y173348*
X917679Y171223*
Y169973*
X912548Y167848*
X908427Y157898*
X912548Y147948*
X917679Y145823*
Y144573*
X912548Y142448*
X908427Y132498*
X912548Y122548*
X915743Y121225*
X9155Y119999*
X884394*
X884151Y121225*
X887349Y12255*
X891471Y1325*
X887349Y14245*
X8774Y146571*
X86745Y14245*
X865324Y137316*
X864074*
X861949Y142448*
X851998Y146569*
X842048Y142448*
X839923Y137317*
X838673*
X836549Y142448*
X826598Y146569*
X816648Y142448*
X814524Y137319*
X813274*
X811149Y142449*
X801199Y14657*
X791249Y142449*
X789124Y137318*
X787874*
X785749Y142449*
X775799Y14657*
X765849Y142449*
X763724Y137318*
X762474*
X760349Y142449*
X750399Y14657*
X740449Y142449*
X738324Y137318*
X737074*
X734949Y142449*
X724999Y14657*
X715049Y142449*
X712925Y137319*
X711675*
X70955Y14245*
X6996Y146571*
X68965Y14245*
X687525Y137319*
X686275*
X68415Y14245*
X6742Y146571*
X66425Y14245*
X662124Y137316*
X660874*
X658749Y142448*
X648798Y146569*
X638848Y142448*
X636723Y137317*
X635473*
X633349Y142448*
X628269Y144552*
Y350073*
X629519Y350591*
X692783Y287326*
G37*
G36*
X345532Y459902D02*
X339284Y457314D01*
X335881Y449099*
X349999*
Y444099*
X335881*
X339284Y435884*
X342567Y434524*
Y433274*
X339284Y431914*
X335881Y423699*
X349999*
Y418699*
X335881*
X339284Y410484*
X342565Y409125*
Y407875*
X339283Y406515*
X33588Y3983*
X349998*
Y3933*
X33588*
X339283Y385085*
X342568Y383724*
Y382474*
X339284Y381114*
X335881Y372899*
X349999*
Y367899*
X335881*
X339284Y359684*
X343874Y357783*
Y356533*
X340049Y354949*
X335928Y344999*
X340049Y335049*
X345128Y332946*
Y293999*
Y270017*
X239555Y164443*
X238128Y160999*
Y123017*
X235111Y119999*
X22353*
X223286Y121225*
X227449Y122949*
X23157Y132899*
X227449Y142849*
X222315Y144975*
Y146225*
X227447Y148351*
X231568Y158301*
X227447Y16825*
X222316Y170376*
Y171626*
X227447Y173751*
X231568Y183701*
X227447Y19365*
X222318Y195775*
Y197025*
X227448Y19915*
X229552Y204229*
X2461*
X249544Y205656*
X322443Y278555*
X32387Y281999*
Y293999*
Y447981*
X337017Y461128*
X345288*
X345532Y459902*
G37*
%LNpcbpannel-2*%
%LPC*%
G36*
X1689499Y129854D02*
X1686641Y1297357D01*
X1685458Y1294499*
X1689499*
Y129854*
G37*
G36*
Y1289499D02*
X1685458D01*
X1686641Y1286641*
X1689499Y1285458*
Y1289499*
G37*
G36*
X634499Y129854D02*
X631641Y1297357D01*
X630458Y1294499*
X634499*
Y129854*
G37*
G36*
Y1289499D02*
X630458D01*
X631641Y1286641*
X634499Y1285458*
Y1289499*
G37*
G36*
X1189999Y1564894D02*
X1189402Y1564647D01*
X1188756*
X1173449Y1558306*
X1171692Y1556549*
X1165352Y1541242*
Y1539999*
Y1538756*
X1171692Y1523449*
X1173449Y1521692*
X1188756Y1515351*
X1189402*
X1189999Y1515104*
X1190596Y1515351*
X1191242*
X1206549Y1521692*
X1208306Y1523449*
X1214647Y1538756*
Y1539999*
Y1541242*
X1208306Y1556549*
X1206549Y1558306*
X1191242Y1564647*
X1190596*
X1189999Y1564894*
G37*
G36*
X1204999Y1455493D02*
X1201079Y145387D01*
X1199515*
X119607Y1452443*
X1177555Y1433928*
X1176128Y1430484*
Y1316502*
X1158417Y1298791*
X1157196Y1299297*
X1152604Y1297394*
X1150701Y1292802*
X1152604Y128821*
X1157103Y1286346*
X1158968Y1281846*
X116356Y1279944*
X1168152Y1281846*
X1170054Y1286438*
X1169548Y128766*
X1183612Y1301724*
X1184672Y1301016*
X1184458Y1300499*
X1188499*
Y130454*
X1187982Y1304326*
X1187274Y1305386*
X1190443Y1308555*
X119187Y1311999*
Y1425982*
X1201017Y1435128*
X1201079*
X1204999Y1433505*
X1209591Y1435407*
X1211493Y1439999*
X1209629Y1444499*
X1211493Y1448999*
X1209591Y1453591*
X1204999Y1455493*
G37*
G36*
X1236499Y140554D02*
Y1401499D01*
X124054*
X1239357Y1404357*
X1236499Y140554*
G37*
G36*
X1231499D02*
X1228642Y1404357D01*
X1227458Y1401499*
X1231499*
Y140554*
G37*
G36*
X124054Y1396499D02*
X1236499D01*
Y1392458*
X1239357Y1393641*
X124054Y1396499*
G37*
G36*
X1231499D02*
X1227458D01*
X1228642Y1393641*
X1231499Y1392458*
Y1396499*
G37*
G36*
X1193499Y130454D02*
Y1300499D01*
X119754*
X1196357Y1303357*
X1193499Y130454*
G37*
G36*
X119754Y1295499D02*
X1193499D01*
Y1291458*
X1196357Y1292642*
X119754Y1295499*
G37*
G36*
X1188499D02*
X1184458D01*
X1185641Y1292642*
X1188499Y1291458*
Y1295499*
G37*
G36*
X1212499Y127554D02*
Y1271499D01*
X121654*
X1215357Y1274357*
X1212499Y127554*
G37*
G36*
X1207499D02*
X1204641Y1274357D01*
X1203458Y1271499*
X1207499*
Y127554*
G37*
G36*
X1167499Y127354D02*
Y1269499D01*
X117154*
X1170357Y1272357*
X1167499Y127354*
G37*
G36*
X1162499D02*
X1159641Y1272357D01*
X1158458Y1269499*
X1162499*
Y127354*
G37*
G36*
X121654Y1266499D02*
X1212499D01*
Y1262458*
X1215357Y1263642*
X121654Y1266499*
G37*
G36*
X1207499D02*
X1203458D01*
X1204641Y1263642*
X1207499Y1262458*
Y1266499*
G37*
G36*
X117154Y1264499D02*
X1167499D01*
Y1260458*
X1170357Y1261642*
X117154Y1264499*
G37*
G36*
X1162499D02*
X1158458D01*
X1159641Y1261642*
X1162499Y1260458*
Y1264499*
G37*
G36*
X1244499Y1234499D02*
X1240458D01*
X1241642Y1231642*
X1244499Y1230458*
Y1234499*
G37*
G36*
X1204999Y1211493D02*
X1200407Y1209591D01*
X1198505Y1204999*
X1200128Y1201079*
Y1177017*
X1187981Y116487*
X1174888*
X1173418Y1168418*
X1164999Y1171905*
X115658Y1168418*
X1153093Y1159999*
X115658Y115158*
X1164999Y1148093*
X1173418Y115158*
X1174888Y1155128*
X1189999*
X1192781Y1156281*
X119433Y1155808*
X1195641Y1152642*
X1198499Y1151458*
Y1157999*
X1200999*
Y1160499*
X120754*
X1206357Y1163357*
X1203074Y1164717*
X120283Y1165942*
X1208443Y1171555*
X120987Y1174999*
Y1201079*
X1211493Y1204999*
X1209591Y1209591*
X1204999Y1211493*
G37*
G36*
X120754Y1155499D02*
X1203499D01*
Y1151458*
X1206357Y1152642*
X120754Y1155499*
G37*
G36*
X134999Y1564894D02*
X134402Y1564647D01*
X133756*
X118449Y1558306*
X116692Y1556549*
X110351Y1541242*
Y1539999*
Y1538756*
X116692Y1523449*
X118449Y1521692*
X133756Y1515351*
X134402*
X134999Y1515104*
X135596Y1515351*
X136242*
X151549Y1521692*
X153306Y1523449*
X159647Y1538756*
Y1539999*
Y1541242*
X153306Y1556549*
X151549Y1558306*
X136242Y1564647*
X135596*
X134999Y1564894*
G37*
G36*
X149999Y1455493D02*
X146079Y145387D01*
X144514*
X14107Y1452443*
X122555Y1433928*
X121128Y1430484*
Y1316502*
X103417Y1298791*
X102196Y1299297*
X097604Y1297394*
X095701Y1292802*
X097604Y128821*
X102104Y1286346*
X103967Y1281846*
X10856Y1279944*
X113152Y1281846*
X115054Y1286438*
X114548Y128766*
X128612Y1301724*
X129672Y1301016*
X129458Y1300499*
X133499*
Y130454*
X132982Y1304326*
X132274Y1305386*
X135443Y1308555*
X13687Y1311999*
Y1425982*
X146017Y1435128*
X146079*
X149999Y1433505*
X154591Y1435407*
X156493Y1439999*
X154629Y1444499*
X156493Y1448999*
X154591Y1453591*
X149999Y1455493*
G37*
G36*
X181499Y140554D02*
Y1401499D01*
X18554*
X184357Y1404357*
X181499Y140554*
G37*
G36*
X176499D02*
X173642Y1404357D01*
X172458Y1401499*
X176499*
Y140554*
G37*
G36*
X18554Y1396499D02*
X181499D01*
Y1392458*
X184357Y1393641*
X18554Y1396499*
G37*
G36*
X176499D02*
X172458D01*
X173642Y1393641*
X176499Y1392458*
Y1396499*
G37*
G36*
X138499Y130454D02*
Y1300499D01*
X14254*
X141357Y1303357*
X138499Y130454*
G37*
G36*
X14254Y1295499D02*
X138499D01*
Y1291458*
X141357Y1292642*
X14254Y1295499*
G37*
G36*
X133499D02*
X129458D01*
X130641Y1292642*
X133499Y1291458*
Y1295499*
G37*
G36*
X157499Y127554D02*
Y1271499D01*
X16154*
X160357Y1274357*
X157499Y127554*
G37*
G36*
X152499D02*
X149641Y1274357D01*
X148458Y1271499*
X152499*
Y127554*
G37*
G36*
X112499Y127354D02*
Y1269499D01*
X11654*
X115357Y1272357*
X112499Y127354*
G37*
G36*
X107499D02*
X104641Y1272357D01*
X103458Y1269499*
X107499*
Y127354*
G37*
G36*
X16154Y1266499D02*
X157499D01*
Y1262458*
X160357Y1263642*
X16154Y1266499*
G37*
G36*
X152499D02*
X148458D01*
X149641Y1263642*
X152499Y1262458*
Y1266499*
G37*
G36*
X11654Y1264499D02*
X112499D01*
Y1260458*
X115357Y1261642*
X11654Y1264499*
G37*
G36*
X107499D02*
X103458D01*
X104641Y1261642*
X107499Y1260458*
Y1264499*
G37*
G36*
X189499Y1234499D02*
X185458D01*
X186641Y1231642*
X189499Y1230458*
Y1234499*
G37*
G36*
X149999Y1211493D02*
X145407Y1209591D01*
X143505Y1204999*
X145128Y1201079*
Y1177017*
X132982Y116487*
X119888*
X118418Y1168418*
X109999Y1171905*
X10158Y1168418*
X098093Y1159999*
X10158Y115158*
X109999Y1148093*
X118418Y115158*
X119888Y1155128*
X134999*
X137781Y1156281*
X13933Y1155808*
X140641Y1152642*
X143499Y1151458*
Y1157999*
X145999*
Y1160499*
X15254*
X151357Y1163357*
X148074Y1164717*
X14783Y1165942*
X153443Y1171555*
X15487Y1174999*
Y1201079*
X156493Y1204999*
X154591Y1209591*
X149999Y1211493*
G37*
G36*
X15254Y1155499D02*
X148499D01*
Y1151458*
X151357Y1152642*
X15254Y1155499*
G37*
G36*
X2114999Y1322493D02*
X2113693Y1321952D01*
X2056999*
X205279Y1320209*
X203579Y1303209*
X2034046Y1298999*
Y126694*
X203158Y1265918*
X2028093Y1257499*
X203158Y124908*
X2039999Y1245593*
X2048418Y124908*
X2051905Y1257499*
X2048418Y1265918*
X2045952Y126694*
Y1287867*
X2047202Y1288116*
X2048641Y1284641*
X2051499Y1283458*
Y1289999*
Y129654*
X2048641Y1295357*
X2047202Y1291882*
X2045952Y1292131*
Y1296533*
X2059465Y1310046*
X2113693*
X2114999Y1309505*
X2119591Y1311407*
X2121493Y1315999*
X2119591Y1320591*
X2114999Y1322493*
G37*
G36*
X2056499Y129654D02*
Y1292499D01*
X206054*
X2059357Y1295357*
X2056499Y129654*
G37*
G36*
X206054Y1287499D02*
X2056499D01*
Y1283458*
X2059357Y1284641*
X206054Y1287499*
G37*
G36*
X2042499Y1239452D02*
Y1229999D01*
X2051952*
X2049183Y1236683*
X2047246Y1237486*
X2042499Y1239452*
G37*
G36*
X2037499D02*
X2030815Y1236683D01*
X2028046Y1229999*
X2037499*
Y1239452*
G37*
G36*
X2051952Y1224999D02*
X2042499D01*
Y1215546*
X2049183Y1218315*
X2051952Y1224999*
G37*
G36*
X2037499D02*
X2028046D01*
X2030815Y1218315*
X2037499Y1215546*
Y1224999*
G37*
G36*
X2097499Y1204452D02*
Y1194999D01*
X2106952*
X2104183Y1201683*
X2097499Y1204452*
G37*
G36*
X2092499D02*
X2085815Y1201683D01*
X2083046Y1194999*
X2092499*
Y1204452*
G37*
G36*
X2124999Y1204405D02*
X211658Y1200918D01*
X2113093Y1192499*
X211658Y118408*
X2124999Y1180593*
X2133418Y118408*
X2136905Y1192499*
X2133418Y1200918*
X2124999Y1204405*
G37*
G36*
X2106952Y1189999D02*
X2097499D01*
Y1180546*
X209896Y1181151*
X2104183Y1183315*
X2106952Y1189999*
G37*
G36*
X2092499D02*
X2083046D01*
X2085815Y1183315*
X2092499Y1180546*
Y1189999*
G37*
G36*
X2051952Y1147499D02*
X2042499D01*
Y1138047*
X2049183Y1140815*
X2051952Y1147499*
G37*
G36*
X2037499D02*
X2028046D01*
X2030815Y1140815*
X2037499Y1138047*
Y1147499*
G37*
G36*
X2039999Y1131905D02*
X203158Y1128418D01*
X2028093Y1119999*
X203158Y111158*
X2039999Y1108093*
X2048418Y111158*
X2051905Y1119999*
X2048418Y1128418*
X2039999Y1131905*
G37*
G36*
X2014598Y992818D02*
X2006383Y989415D01*
X200298Y9812*
X2014598*
Y992818*
G37*
G36*
X2114999Y964894D02*
X2114402Y964647D01*
X2113756*
X2098449Y958306*
X2096692Y956549*
X2090351Y941242*
Y939999*
Y938756*
X2096692Y923449*
X2098449Y921692*
X2113756Y915351*
X2114402*
X2114999Y915104*
X2115596Y915351*
X2116242*
X2131549Y921692*
X2133306Y923449*
X2139647Y938756*
Y939999*
Y941242*
X2133306Y956549*
X2131549Y958306*
X2116242Y964647*
X2115596*
X2114999Y964894*
G37*
G36*
X2019598Y992818D02*
Y9787D01*
X2017098*
Y9762*
X200298*
X2006383Y967985*
X2009665Y966625*
Y965375*
X2006383Y964015*
X200298Y9558*
X2017098*
Y9508*
X200298*
X2006383Y942585*
X2009664Y941225*
Y939975*
X2006721Y938756*
X2006382Y938616*
X2002979Y930402*
X2017097*
Y925401*
X2002979*
X2006382Y917186*
X2009666Y915825*
Y914575*
X2006383Y913215*
X200298Y905*
X2017098*
Y9025*
X2019598*
Y888382*
X2027813Y891785*
X2029714Y896374*
X2030964*
X2032548Y89255*
X2042498Y888429*
X2052447Y89255*
X2056569Y9025*
X2052447Y91245*
X2047315Y914575*
Y915825*
X2052447Y917951*
X2056568Y927901*
X2052447Y93785*
X2047317Y939975*
Y941225*
X2052447Y94335*
X2056569Y9533*
X2052447Y96325*
X2047317Y965375*
Y966625*
X2052447Y96875*
X2056569Y9787*
X2052447Y98865*
X2042498Y992771*
X2032548Y98865*
X2030964Y984825*
X2029714*
X2027813Y989415*
X2019598Y992818*
G37*
G36*
X2014598Y9D02*
X200298D01*
X2006383Y891785*
X2014598Y888382*
Y9*
G37*
G36*
X1059999Y1322493D02*
X1058692Y1321952D01*
X1001999*
X99779Y1320209*
X980789Y1303209*
X979046Y1298999*
Y126694*
X97658Y1265918*
X973093Y1257499*
X97658Y124908*
X984999Y1245593*
X993418Y124908*
X996905Y1257499*
X993418Y1265918*
X990952Y126694*
Y1287867*
X992202Y1288116*
X993642Y1284641*
X996499Y1283458*
Y1289999*
Y129654*
X993642Y1295357*
X992202Y1291882*
X990952Y1292131*
Y1296533*
X1004465Y1310046*
X1058692*
X1059999Y1309505*
X1064591Y1311407*
X1066493Y1315999*
X1064591Y1320591*
X1059999Y1322493*
G37*
G36*
X1001499Y129654D02*
Y1292499D01*
X100554*
X1004357Y1295357*
X1001499Y129654*
G37*
G36*
X100554Y1287499D02*
X1001499D01*
Y1283458*
X1004357Y1284641*
X100554Y1287499*
G37*
G36*
X987499Y1239452D02*
Y1229999D01*
X996952*
X994183Y1236683*
X992246Y1237486*
X987499Y1239452*
G37*
G36*
X982499D02*
X975815Y1236683D01*
X973046Y1229999*
X982499*
Y1239452*
G37*
G36*
X996952Y1224999D02*
X987499D01*
Y1215546*
X994183Y1218315*
X996952Y1224999*
G37*
G36*
X982499D02*
X973046D01*
X975815Y1218315*
X982499Y1215546*
Y1224999*
G37*
G36*
X1042499Y1204452D02*
Y1194999D01*
X1051952*
X1049183Y1201683*
X1042499Y1204452*
G37*
G36*
X1037499D02*
X1030815Y1201683D01*
X1028046Y1194999*
X1037499*
Y1204452*
G37*
G36*
X1069999Y1204405D02*
X106158Y1200918D01*
X1058093Y1192499*
X106158Y118408*
X1069999Y1180593*
X1078418Y118408*
X1081905Y1192499*
X1078418Y1200918*
X1069999Y1204405*
G37*
G36*
X1051952Y1189999D02*
X1042499D01*
Y1180546*
X104396Y1181151*
X1049183Y1183315*
X1051952Y1189999*
G37*
G36*
X1037499D02*
X1028046D01*
X1030815Y1183315*
X1037499Y1180546*
Y1189999*
G37*
G36*
X996952Y1147499D02*
X987499D01*
Y1138047*
X994183Y1140815*
X996952Y1147499*
G37*
G36*
X982499D02*
X973046D01*
X975815Y1140815*
X982499Y1138047*
Y1147499*
G37*
G36*
X984999Y1131905D02*
X97658Y1128418D01*
X973093Y1119999*
X97658Y111158*
X984999Y1108093*
X993418Y111158*
X996905Y1119999*
X993418Y1128418*
X984999Y1131905*
G37*
G36*
X959598Y992818D02*
X951383Y989415D01*
X94798Y9812*
X959598*
Y992818*
G37*
G36*
X1059999Y964894D02*
X1059402Y964647D01*
X1058756*
X1043449Y958306*
X1041692Y956549*
X1035351Y941242*
Y939999*
Y938756*
X1041692Y923449*
X1043449Y921692*
X1058756Y915351*
X1059402*
X1059999Y915104*
X1060596Y915351*
X1061242*
X1076549Y921692*
X1078306Y923449*
X1084647Y938756*
Y939999*
Y941242*
X1078306Y956549*
X1076549Y958306*
X1061242Y964647*
X1060596*
X1059999Y964894*
G37*
G36*
X964598Y992818D02*
Y9787D01*
X962098*
Y9762*
X94798*
X951383Y967985*
X954666Y966625*
Y965375*
X951383Y964015*
X94798Y9558*
X962098*
Y9508*
X94798*
X951383Y942585*
X954664Y941225*
Y939975*
X951721Y938756*
X951382Y938616*
X947979Y930402*
X962097*
Y925401*
X947979*
X951382Y917186*
X954666Y915825*
Y914575*
X951383Y913215*
X94798Y905*
X962098*
Y9025*
X964598*
Y888382*
X972813Y891785*
X974714Y896374*
X975964*
X977548Y89255*
X987498Y888429*
X997447Y89255*
X1001569Y9025*
X997447Y91245*
X992315Y914575*
Y915825*
X997447Y917951*
X1001568Y927901*
X997447Y93785*
X992317Y939975*
Y941225*
X997447Y94335*
X1001569Y9533*
X997447Y96325*
X992317Y965375*
Y966625*
X997447Y96875*
X1001569Y9787*
X997447Y98865*
X987498Y992771*
X977548Y98865*
X975964Y984825*
X974714*
X972813Y989415*
X964598Y992818*
G37*
G36*
X959598Y9D02*
X94798D01*
X951383Y891785*
X959598Y888382*
Y9*
G37*
G36*
X13207Y1534499D02*
X1309082D01*
X1312485Y1526284*
X13207Y1522881*
Y1534499*
G37*
G36*
X1515499Y1421452D02*
Y1411999D01*
X1524952*
X1522183Y1418683*
X1515499Y1421452*
G37*
G36*
X1510499D02*
X1503815Y1418683D01*
X1501046Y1411999*
X1510499*
Y1421452*
G37*
G36*
X1435499Y1418952D02*
Y1409499D01*
X1444952*
X1442183Y1416183*
X1435499Y1418952*
G37*
G36*
X1430499D02*
X1423815Y1416183D01*
X1421046Y1409499*
X1430499*
Y1418952*
G37*
G36*
X1524952Y1406999D02*
X1515499D01*
Y1397546*
X1522183Y1400315*
X1524952Y1406999*
G37*
G36*
X1510499D02*
X1501046D01*
X1503815Y1400315*
X1510499Y1397546*
Y1406999*
G37*
G36*
X1430499Y1404499D02*
X1421046D01*
X1423815Y1397815*
X1430499Y1395046*
Y1404499*
G37*
G36*
X1444952D02*
X1435499D01*
Y1395046*
X1442183Y1397815*
X1444952Y1404499*
G37*
G36*
X2657Y1534499D02*
X254082D01*
X257485Y1526284*
X2657Y1522881*
Y1534499*
G37*
G36*
X460499Y1421452D02*
Y1411999D01*
X469952*
X467183Y1418683*
X460499Y1421452*
G37*
G36*
X455499D02*
X448815Y1418683D01*
X446046Y1411999*
X455499*
Y1421452*
G37*
G36*
X380499Y1418952D02*
Y1409499D01*
X389952*
X387183Y1416183*
X380499Y1418952*
G37*
G36*
X375499D02*
X368815Y1416183D01*
X366046Y1409499*
X375499*
Y1418952*
G37*
G36*
X469952Y1406999D02*
X460499D01*
Y1397546*
X467183Y1400315*
X469952Y1406999*
G37*
G36*
X455499D02*
X446046D01*
X448815Y1400315*
X455499Y1397546*
Y1406999*
G37*
G36*
X375499Y1404499D02*
X366046D01*
X368815Y1397815*
X375499Y1395046*
Y1404499*
G37*
G36*
X389952D02*
X380499D01*
Y1395046*
X387183Y1397815*
X389952Y1404499*
G37*
G36*
X154754Y1331499D02*
X1543499D01*
Y1327458*
X1546357Y1328641*
X154754Y1331499*
G37*
G36*
X49254D02*
X488499D01*
Y1327458*
X491357Y1328641*
X49254Y1331499*
G37*
G36*
X1466499Y134054D02*
X1463641Y1339357D01*
X1462458Y1336499*
X1466499*
Y134054*
G37*
G36*
X411499D02*
X408642Y1339357D01*
X407458Y1336499*
X411499*
Y134054*
G37*
G36*
X1493499Y102354D02*
X1490642Y1022357D01*
X1489458Y1019499*
X1493499*
Y102354*
G37*
G36*
X1528499Y102254D02*
Y1018499D01*
X153254*
X1531357Y1021357*
X1528499Y102254*
G37*
G36*
X1493499Y1014499D02*
X1489458D01*
X1490642Y1011642*
X1493499Y1010458*
Y1014499*
G37*
G36*
X438499Y102354D02*
X435642Y1022357D01*
X434458Y1019499*
X438499*
Y102354*
G37*
G36*
X473499Y102254D02*
Y1018499D01*
X47754*
X476357Y1021357*
X473499Y102254*
G37*
G36*
X438499Y1014499D02*
X434458D01*
X435642Y1011642*
X438499Y1010458*
Y1014499*
G37*
G36*
X187325Y11236D02*
X1870749D01*
Y1111358*
X188299*
Y1113858*
X1880137Y1120747*
X187325Y11236*
G37*
G36*
X1865749D02*
X1863249D01*
X185636Y1120747*
X1853507Y1113858*
Y1111358*
X1865749*
Y11236*
G37*
G36*
X188299Y1106358D02*
X1870749D01*
Y1094117*
X187325*
X1880137Y109697*
X188299Y1103858*
Y1106358*
G37*
G36*
X1865749D02*
X1853507D01*
Y1103858*
X185636Y109697*
X1863249Y1094117*
X1865749*
Y1106358*
G37*
G36*
X818249Y11236D02*
X815749D01*
Y1111358*
X82799*
Y1113858*
X825137Y1120747*
X818249Y11236*
G37*
G36*
X810749D02*
X808249D01*
X80136Y1120747*
X798507Y1113858*
Y1111358*
X810749*
Y11236*
G37*
G36*
X82799Y1106358D02*
X815749D01*
Y1094117*
X818249*
X825137Y109697*
X82799Y1103858*
Y1106358*
G37*
G36*
X810749D02*
X798507D01*
Y1103858*
X80136Y109697*
X808249Y1094117*
X810749*
Y1106358*
G37*
G36*
X1837999Y997493D02*
X1834079Y99587D01*
X1696919*
X1692999Y997493*
X1688407Y995591*
X1686505Y990999*
X1688407Y986407*
X1692999Y984505*
X1696919Y986128*
X1834079*
X1837999Y984505*
X1842591Y986407*
X1844493Y990999*
X1842591Y995591*
X1837999Y997493*
G37*
G36*
X782999D02*
X779079Y99587D01*
X641919*
X637999Y997493*
X633407Y995591*
X631505Y990999*
X633407Y986407*
X637999Y984505*
X641919Y986128*
X779079*
X782999Y984505*
X787591Y986407*
X789493Y990999*
X787591Y995591*
X782999Y997493*
G37*
G36*
X1689499Y52854D02*
X1686641Y527357D01*
X1685458Y524499*
X1689499*
Y52854*
G37*
G36*
Y519499D02*
X1685458D01*
X1686641Y516641*
X1689499Y515458*
Y519499*
G37*
G36*
X634499Y52854D02*
X631641Y527357D01*
X630458Y524499*
X634499*
Y52854*
G37*
G36*
Y519499D02*
X630458D01*
X631641Y516641*
X634499Y515458*
Y519499*
G37*
G36*
X1189999Y794894D02*
X1189402Y794647D01*
X1188756*
X1173449Y788306*
X1171692Y786549*
X1165352Y771242*
Y769999*
Y768756*
X1171692Y753449*
X1173449Y751692*
X1188756Y745351*
X1189402*
X1189999Y745104*
X1190596Y745351*
X1191242*
X1206549Y751692*
X1208306Y753449*
X1214647Y768756*
Y769999*
Y771242*
X1208306Y786549*
X1206549Y788306*
X1191242Y794647*
X1190596*
X1189999Y794894*
G37*
G36*
X1204999Y685493D02*
X1201079Y68387D01*
X1199515*
X119607Y682443*
X1177555Y663928*
X1176128Y660484*
Y546502*
X1158417Y528791*
X1157196Y529297*
X1152604Y527395*
X1150701Y522802*
X1152604Y51821*
X1157103Y516346*
X1158968Y511846*
X116356Y509944*
X1168152Y511846*
X1170054Y516438*
X1169548Y51766*
X1183612Y531724*
X1184672Y531016*
X1184458Y530499*
X1188499*
Y53454*
X1187982Y534326*
X1187274Y535386*
X1190443Y538555*
X119187Y541999*
Y655982*
X1201017Y665128*
X1201079*
X1204999Y663505*
X1209591Y665407*
X1211493Y669999*
X1209629Y674499*
X1211493Y678999*
X1209591Y683591*
X1204999Y685493*
G37*
G36*
X1236499Y63554D02*
Y631499D01*
X124054*
X1239357Y634357*
X1236499Y63554*
G37*
G36*
X1231499D02*
X1228641Y634357D01*
X1227458Y631499*
X1231499*
Y63554*
G37*
G36*
X124054Y626499D02*
X1236499D01*
Y622458*
X1239357Y623642*
X124054Y626499*
G37*
G36*
X1231499D02*
X1227458D01*
X1228641Y623642*
X1231499Y622458*
Y626499*
G37*
G36*
X1193499Y53454D02*
Y530499D01*
X119754*
X1196356Y533357*
X1193499Y53454*
G37*
G36*
X119754Y525499D02*
X1193499D01*
Y521458*
X1196356Y522642*
X119754Y525499*
G37*
G36*
X1188499D02*
X1184458D01*
X1185641Y522642*
X1188499Y521458*
Y525499*
G37*
G36*
X1212499Y50554D02*
Y501499D01*
X121654*
X1215357Y504357*
X1212499Y50554*
G37*
G36*
X1207499D02*
X1204641Y504357D01*
X1203458Y501499*
X1207499*
Y50554*
G37*
G36*
X1167499Y50354D02*
Y499499D01*
X117154*
X1170357Y502357*
X1167499Y50354*
G37*
G36*
X1162499D02*
X1159641Y502357D01*
X1158458Y499499*
X1162499*
Y50354*
G37*
G36*
X121654Y496499D02*
X1212499D01*
Y492458*
X1215357Y493642*
X121654Y496499*
G37*
G36*
X1207499D02*
X1203458D01*
X1204641Y493642*
X1207499Y492458*
Y496499*
G37*
G36*
X117154Y494499D02*
X1167499D01*
Y490458*
X1170357Y491641*
X117154Y494499*
G37*
G36*
X1162499D02*
X1158458D01*
X1159641Y491641*
X1162499Y490458*
Y494499*
G37*
G36*
X1244499Y464499D02*
X1240458D01*
X1241641Y461641*
X1244499Y460458*
Y464499*
G37*
G36*
X1204999Y441493D02*
X1200407Y439591D01*
X1198505Y434999*
X1200128Y431079*
Y407017*
X1187981Y39487*
X1174888*
X1173418Y398418*
X1164999Y401905*
X115658Y398418*
X1153093Y389999*
X115658Y38158*
X1164999Y378093*
X1173418Y38158*
X1174888Y385128*
X1189999*
X1192781Y386281*
X119433Y385808*
X1195641Y382642*
X1198499Y381458*
Y387999*
X1200999*
Y390499*
X120754*
X1206356Y393357*
X1203074Y394716*
X120283Y395942*
X1208443Y401555*
X120987Y404999*
Y431079*
X1211493Y434999*
X1209591Y439591*
X1204999Y441493*
G37*
G36*
X120754Y385499D02*
X1203499D01*
Y381458*
X1206356Y382642*
X120754Y385499*
G37*
G36*
X134999Y794894D02*
X134402Y794647D01*
X133756*
X118449Y788306*
X116692Y786549*
X110351Y771242*
Y769999*
Y768756*
X116692Y753449*
X118449Y751692*
X133756Y745351*
X134402*
X134999Y745104*
X135596Y745351*
X136242*
X151549Y751692*
X153306Y753449*
X159647Y768756*
Y769999*
Y771242*
X153306Y786549*
X151549Y788306*
X136242Y794647*
X135596*
X134999Y794894*
G37*
G36*
X149999Y685493D02*
X146079Y68387D01*
X144514*
X14107Y682443*
X122555Y663928*
X121128Y660484*
Y546502*
X103417Y528791*
X102196Y529297*
X097604Y527395*
X095701Y522802*
X097604Y51821*
X102104Y516346*
X103967Y511846*
X10856Y509944*
X113152Y511846*
X115054Y516438*
X114548Y51766*
X128612Y531724*
X129672Y531016*
X129458Y530499*
X133499*
Y53454*
X132982Y534326*
X132274Y535386*
X135443Y538555*
X13687Y541999*
Y655982*
X146017Y665128*
X146079*
X149999Y663505*
X154591Y665407*
X156493Y669999*
X154629Y674499*
X156493Y678999*
X154591Y683591*
X149999Y685493*
G37*
G36*
X181499Y63554D02*
Y631499D01*
X18554*
X184357Y634357*
X181499Y63554*
G37*
G36*
X176499D02*
X173642Y634357D01*
X172458Y631499*
X176499*
Y63554*
G37*
G36*
X18554Y626499D02*
X181499D01*
Y622458*
X184357Y623642*
X18554Y626499*
G37*
G36*
X176499D02*
X172458D01*
X173642Y623642*
X176499Y622458*
Y626499*
G37*
G36*
X138499Y53454D02*
Y530499D01*
X14254*
X141357Y533357*
X138499Y53454*
G37*
G36*
X14254Y525499D02*
X138499D01*
Y521458*
X141357Y522642*
X14254Y525499*
G37*
G36*
X133499D02*
X129458D01*
X130641Y522642*
X133499Y521458*
Y525499*
G37*
G36*
X157499Y50554D02*
Y501499D01*
X16154*
X160357Y504357*
X157499Y50554*
G37*
G36*
X152499D02*
X149641Y504357D01*
X148458Y501499*
X152499*
Y50554*
G37*
G36*
X112499Y50354D02*
Y499499D01*
X11654*
X115357Y502357*
X112499Y50354*
G37*
G36*
X107499D02*
X104641Y502357D01*
X103458Y499499*
X107499*
Y50354*
G37*
G36*
X16154Y496499D02*
X157499D01*
Y492458*
X160357Y493642*
X16154Y496499*
G37*
G36*
X152499D02*
X148458D01*
X149641Y493642*
X152499Y492458*
Y496499*
G37*
G36*
X11654Y494499D02*
X112499D01*
Y490458*
X115357Y491641*
X11654Y494499*
G37*
G36*
X107499D02*
X103458D01*
X104641Y491641*
X107499Y490458*
Y494499*
G37*
G36*
X189499Y464499D02*
X185458D01*
X186641Y461641*
X189499Y460458*
Y464499*
G37*
G36*
X149999Y441493D02*
X145407Y439591D01*
X143505Y434999*
X145128Y431079*
Y407017*
X132982Y39487*
X119888*
X118418Y398418*
X109999Y401905*
X10158Y398418*
X098093Y389999*
X10158Y38158*
X109999Y378093*
X118418Y38158*
X119888Y385128*
X134999*
X137781Y386281*
X13933Y385808*
X140641Y382642*
X143499Y381458*
Y387999*
X145999*
Y390499*
X15254*
X151357Y393357*
X148074Y394716*
X14783Y395942*
X153443Y401555*
X15487Y404999*
Y431079*
X156493Y434999*
X154591Y439591*
X149999Y441493*
G37*
G36*
X15254Y385499D02*
X148499D01*
Y381458*
X151357Y382642*
X15254Y385499*
G37*
G36*
X2114999Y552493D02*
X2113692Y551952D01*
X2056999*
X205279Y550209*
X203579Y533208*
X2034046Y528999*
Y496939*
X203158Y495918*
X2028093Y487499*
X203158Y47908*
X2039999Y475593*
X2048418Y47908*
X2051905Y487499*
X2048418Y495918*
X2045952Y496939*
Y517867*
X2047202Y518116*
X2048641Y514641*
X2051499Y513458*
Y519999*
Y52654*
X2048641Y525357*
X2047202Y521882*
X2045952Y522131*
Y526533*
X2059465Y540046*
X2113692*
X2114999Y539505*
X2119591Y541407*
X2121493Y545999*
X2119591Y550591*
X2114999Y552493*
G37*
G36*
X2056499Y52654D02*
Y522499D01*
X206054*
X2059356Y525357*
X2056499Y52654*
G37*
G36*
X206054Y517499D02*
X2056499D01*
Y513458*
X2059356Y514641*
X206054Y517499*
G37*
G36*
X2042499Y469452D02*
Y459999D01*
X2051952*
X2049183Y466683*
X2047246Y467487*
X2042499Y469452*
G37*
G36*
X2037499D02*
X2030815Y466683D01*
X2028046Y459999*
X2037499*
Y469452*
G37*
G36*
X2051952Y454999D02*
X2042499D01*
Y445546*
X2049183Y448315*
X2051952Y454999*
G37*
G36*
X2037499D02*
X2028046D01*
X2030815Y448315*
X2037499Y445546*
Y454999*
G37*
G36*
X2097499Y434452D02*
Y424999D01*
X2106952*
X2104183Y431683*
X2097499Y434452*
G37*
G36*
X2092499D02*
X2085815Y431683D01*
X2083046Y424999*
X2092499*
Y434452*
G37*
G36*
X2106952Y419999D02*
X2097499D01*
Y410546*
X209896Y411151*
X2104183Y413315*
X2106952Y419999*
G37*
G36*
X2124999Y434405D02*
X211658Y430918D01*
X2113093Y422499*
X211658Y41408*
X2124999Y410593*
X2133418Y41408*
X2136905Y422499*
X2133418Y430918*
X2124999Y434405*
G37*
G36*
X2092499Y419999D02*
X2083046D01*
X2085815Y413315*
X2092499Y410546*
Y419999*
G37*
G36*
X2051952Y377499D02*
X2042499D01*
Y368046*
X2049183Y370815*
X2051952Y377499*
G37*
G36*
X2037499D02*
X2028046D01*
X2030815Y370815*
X2037499Y368046*
Y377499*
G37*
G36*
X2039999Y361905D02*
X203158Y358418D01*
X2028093Y349999*
X203158Y34158*
X2039999Y338093*
X2048418Y34158*
X2051905Y349999*
X2048418Y358418*
X2039999Y361905*
G37*
G36*
X2014598Y222818D02*
X2006383Y219415D01*
X200298Y211201*
X2014598*
Y222818*
G37*
G36*
X2114999Y194894D02*
X2114402Y194647D01*
X2113756*
X2098449Y188306*
X2096692Y186549*
X2090351Y171242*
Y169999*
Y168756*
X2096692Y153449*
X2098449Y151692*
X2113756Y145351*
X2114402*
X2114999Y145104*
X2115596Y145351*
X2116242*
X2131549Y151692*
X2133306Y153449*
X2139647Y168756*
Y169999*
Y171242*
X2133306Y186549*
X2131549Y188306*
X2116242Y194647*
X2115596*
X2114999Y194894*
G37*
G36*
X2019598Y222818D02*
Y2087D01*
X2017098*
Y2062*
X200298*
X2006383Y197985*
X2009665Y196625*
Y195375*
X2006383Y194015*
X200298Y185801*
X2017098*
Y1808*
X200298*
X2006383Y172585*
X2009664Y171225*
Y169975*
X2006721Y168756*
X2006382Y168616*
X2002979Y160401*
X2017097*
Y155401*
X2002979*
X2006382Y147185*
X2009666Y145825*
Y144575*
X2006383Y143215*
X200298Y135001*
X2017098*
Y1325*
X2019598*
Y118382*
X2027813Y121785*
X2029714Y126374*
X2030964*
X2032548Y12255*
X2042498Y118429*
X2052447Y12255*
X2056569Y1325*
X2052447Y14245*
X2047315Y144575*
Y145825*
X2052447Y147951*
X2056568Y157901*
X2052447Y16785*
X2047317Y169975*
Y171225*
X2052447Y17335*
X2056569Y1833*
X2052447Y19325*
X2047317Y195375*
Y196625*
X2052447Y19875*
X2056569Y2087*
X2052447Y21865*
X2042498Y222771*
X2032548Y21865*
X2030964Y214825*
X2029714*
X2027813Y219415*
X2019598Y222818*
G37*
G36*
X2014598Y13D02*
X200298D01*
X2006383Y121785*
X2014598Y118382*
Y13*
G37*
G36*
X1059999Y552493D02*
X1058692Y551952D01*
X1001999*
X99779Y550209*
X980789Y533208*
X979046Y528999*
Y496939*
X97658Y495918*
X973093Y487499*
X97658Y47908*
X984999Y475593*
X993418Y47908*
X996905Y487499*
X993418Y495918*
X990952Y496939*
Y517867*
X992202Y518116*
X993642Y514641*
X996499Y513458*
Y519999*
Y52654*
X993642Y525357*
X992202Y521882*
X990952Y522131*
Y526533*
X1004465Y540046*
X1058692*
X1059999Y539505*
X1064591Y541407*
X1066493Y545999*
X1064591Y550591*
X1059999Y552493*
G37*
G36*
X1001499Y52654D02*
Y522499D01*
X100554*
X1004357Y525357*
X1001499Y52654*
G37*
G36*
X100554Y517499D02*
X1001499D01*
Y513458*
X1004357Y514641*
X100554Y517499*
G37*
G36*
X987499Y469452D02*
Y459999D01*
X996952*
X994183Y466683*
X992246Y467487*
X987499Y469452*
G37*
G36*
X982499D02*
X975815Y466683D01*
X973046Y459999*
X982499*
Y469452*
G37*
G36*
X996952Y454999D02*
X987499D01*
Y445546*
X994183Y448315*
X996952Y454999*
G37*
G36*
X982499D02*
X973046D01*
X975815Y448315*
X982499Y445546*
Y454999*
G37*
G36*
X1042499Y434452D02*
Y424999D01*
X1051952*
X1049183Y431683*
X1042499Y434452*
G37*
G36*
X1037499D02*
X1030815Y431683D01*
X1028046Y424999*
X1037499*
Y434452*
G37*
G36*
X1051952Y419999D02*
X1042499D01*
Y410546*
X104396Y411151*
X1049183Y413315*
X1051952Y419999*
G37*
G36*
X1069999Y434405D02*
X106158Y430918D01*
X1058093Y422499*
X106158Y41408*
X1069999Y410593*
X1078418Y41408*
X1081905Y422499*
X1078418Y430918*
X1069999Y434405*
G37*
G36*
X1037499Y419999D02*
X1028046D01*
X1030815Y413315*
X1037499Y410546*
Y419999*
G37*
G36*
X996952Y377499D02*
X987499D01*
Y368046*
X994183Y370815*
X996952Y377499*
G37*
G36*
X982499D02*
X973046D01*
X975815Y370815*
X982499Y368046*
Y377499*
G37*
G36*
X984999Y361905D02*
X97658Y358418D01*
X973093Y349999*
X97658Y34158*
X984999Y338093*
X993418Y34158*
X996905Y349999*
X993418Y358418*
X984999Y361905*
G37*
G36*
X959598Y222818D02*
X951383Y219415D01*
X94798Y211201*
X959598*
Y222818*
G37*
G36*
X1059999Y194894D02*
X1059402Y194647D01*
X1058756*
X1043449Y188306*
X1041692Y186549*
X1035351Y171242*
Y169999*
Y168756*
X1041692Y153449*
X1043449Y151692*
X1058756Y145351*
X1059402*
X1059999Y145104*
X1060596Y145351*
X1061242*
X1076549Y151692*
X1078306Y153449*
X1084647Y168756*
Y169999*
Y171242*
X1078306Y186549*
X1076549Y188306*
X1061242Y194647*
X1060596*
X1059999Y194894*
G37*
G36*
X964598Y222818D02*
Y2087D01*
X962098*
Y2062*
X94798*
X951383Y197985*
X954666Y196625*
Y195375*
X951383Y194015*
X94798Y185801*
X962098*
Y1808*
X94798*
X951383Y172585*
X954664Y171225*
Y169975*
X951721Y168756*
X951382Y168616*
X947979Y160401*
X962097*
Y155401*
X947979*
X951382Y147185*
X954666Y145825*
Y144575*
X951383Y143215*
X94798Y135001*
X962098*
Y1325*
X964598*
Y118382*
X972813Y121785*
X974714Y126374*
X975964*
X977548Y12255*
X987498Y118429*
X997447Y12255*
X1001569Y1325*
X997447Y14245*
X992315Y144575*
Y145825*
X997447Y147951*
X1001568Y157901*
X997447Y16785*
X992317Y169975*
Y171225*
X997447Y17335*
X1001569Y1833*
X997447Y19325*
X992317Y195375*
Y196625*
X997447Y19875*
X1001569Y2087*
X997447Y21865*
X987498Y222771*
X977548Y21865*
X975964Y214825*
X974714*
X972813Y219415*
X964598Y222818*
G37*
G36*
X959598Y13D02*
X94798D01*
X951383Y121785*
X959598Y118382*
Y13*
G37*
G36*
X13207Y764499D02*
X1309082D01*
X1312485Y756285*
X13207Y752881*
Y764499*
G37*
G36*
X1515499Y651452D02*
Y641999D01*
X1524952*
X1522183Y648683*
X1515499Y651452*
G37*
G36*
X1510499D02*
X1503815Y648683D01*
X1501046Y641999*
X1510499*
Y651452*
G37*
G36*
X1435499Y648952D02*
Y639499D01*
X1444952*
X1442183Y646183*
X1435499Y648952*
G37*
G36*
X1430499D02*
X1423815Y646183D01*
X1421046Y639499*
X1430499*
Y648952*
G37*
G36*
X1524952Y636999D02*
X1515499D01*
Y627546*
X1522183Y630315*
X1524952Y636999*
G37*
G36*
X1510499D02*
X1501046D01*
X1503815Y630315*
X1510499Y627546*
Y636999*
G37*
G36*
X1430499Y634499D02*
X1421046D01*
X1423815Y627815*
X1430499Y625046*
Y634499*
G37*
G36*
X1444952D02*
X1435499D01*
Y625046*
X1442183Y627815*
X1444952Y634499*
G37*
G36*
X2657Y764499D02*
X254082D01*
X257485Y756285*
X2657Y752881*
Y764499*
G37*
G36*
X460499Y651452D02*
Y641999D01*
X469952*
X467183Y648683*
X460499Y651452*
G37*
G36*
X455499D02*
X448815Y648683D01*
X446046Y641999*
X455499*
Y651452*
G37*
G36*
X380499Y648952D02*
Y639499D01*
X389952*
X387183Y646183*
X380499Y648952*
G37*
G36*
X375499D02*
X368815Y646183D01*
X366046Y639499*
X375499*
Y648952*
G37*
G36*
X469952Y636999D02*
X460499D01*
Y627546*
X467183Y630315*
X469952Y636999*
G37*
G36*
X455499D02*
X446046D01*
X448815Y630315*
X455499Y627546*
Y636999*
G37*
G36*
X375499Y634499D02*
X366046D01*
X368815Y627815*
X375499Y625046*
Y634499*
G37*
G36*
X389952D02*
X380499D01*
Y625046*
X387183Y627815*
X389952Y634499*
G37*
G36*
X154754Y561499D02*
X1543499D01*
Y557458*
X1546357Y558642*
X154754Y561499*
G37*
G36*
X49254D02*
X488499D01*
Y557458*
X491357Y558642*
X49254Y561499*
G37*
G36*
X1466499Y57054D02*
X1463641Y569357D01*
X1462458Y566499*
X1466499*
Y57054*
G37*
G36*
X411499D02*
X408642Y569357D01*
X407458Y566499*
X411499*
Y57054*
G37*
G36*
X1493499Y25354D02*
X1490641Y252357D01*
X1489458Y249499*
X1493499*
Y25354*
G37*
G36*
X1528499Y25254D02*
Y248499D01*
X153254*
X1531357Y251357*
X1528499Y25254*
G37*
G36*
X1493499Y244499D02*
X1489458D01*
X1490641Y241641*
X1493499Y240458*
Y244499*
G37*
G36*
X438499Y25354D02*
X435642Y252357D01*
X434458Y249499*
X438499*
Y25354*
G37*
G36*
X473499Y25254D02*
Y248499D01*
X47754*
X476357Y251357*
X473499Y25254*
G37*
G36*
X438499Y244499D02*
X434458D01*
X435642Y241641*
X438499Y240458*
Y244499*
G37*
G36*
X187325Y3536D02*
X1870749D01*
Y341358*
X188299*
Y343858*
X1880137Y350746*
X187325Y3536*
G37*
G36*
X1865749D02*
X1863249D01*
X185636Y350746*
X1853507Y343858*
Y341358*
X1865749*
Y3536*
G37*
G36*
X188299Y336358D02*
X1870749D01*
Y324117*
X187325*
X1880137Y32697*
X188299Y333858*
Y336358*
G37*
G36*
X1865749D02*
X1853507D01*
Y333858*
X185636Y32697*
X1863249Y324117*
X1865749*
Y336358*
G37*
G36*
X818249Y3536D02*
X815749D01*
Y341358*
X82799*
Y343858*
X825137Y350746*
X818249Y3536*
G37*
G36*
X810749D02*
X808249D01*
X80136Y350746*
X798507Y343858*
Y341358*
X810749*
Y3536*
G37*
G36*
X82799Y336358D02*
X815749D01*
Y324117*
X818249*
X825137Y32697*
X82799Y333858*
Y336358*
G37*
G36*
X810749D02*
X798507D01*
Y333858*
X80136Y32697*
X808249Y324117*
X810749*
Y336358*
G37*
G36*
X1837999Y227493D02*
X1834079Y22587D01*
X1696919*
X1692999Y227493*
X1688407Y225591*
X1686505Y220999*
X1688407Y216408*
X1692999Y214505*
X1696919Y216128*
X1834079*
X1837999Y214505*
X1842591Y216408*
X1844493Y220999*
X1842591Y225591*
X1837999Y227493*
G37*
G36*
X782999D02*
X779079Y22587D01*
X641919*
X637999Y227493*
X633407Y225591*
X631505Y220999*
X633407Y216408*
X637999Y214505*
X641919Y216128*
X779079*
X782999Y214505*
X787591Y216408*
X789493Y220999*
X787591Y225591*
X782999Y227493*
G37*
%LNpcbpannel-3*%
%LPD*%
G54D22*
X630999Y362999D02*
X701999D01*
X628999D02*
X630999D01*
Y355999D02*
Y362999D01*
Y355999D02*
X698999Y287999D01*
X760999Y282999D02*
X763999Y285999D01*
Y330999*
X770999Y286999D02*
Y399999D01*
X752999Y417999D02*
X770999Y399999D01*
Y286999D02*
X775999Y281999D01*
X756999Y423999D02*
X777999Y402999D01*
Y307999D02*
Y402999D01*
Y307999D02*
X781999Y303999D01*
X765999Y429999D02*
X785999Y409999D01*
Y317999D02*
Y409999D01*
Y317999D02*
X789999Y313999D01*
X729999Y282999D02*
X75364Y259358D01*
X922359*
X922499Y259497*
X691999Y403999D02*
X717999Y377999D01*
Y271999D02*
Y377999D01*
Y271999D02*
X747999Y241999D01*
X7762Y545798D02*
Y766999D01*
Y545798D02*
X817999Y503999D01*
X788999Y473999D02*
X797999Y482999D01*
X788999Y437999D02*
Y473999D01*
X154999Y532999D02*
Y569999D01*
X349999Y598999D02*
X505999D01*
X327999Y620999D02*
X349999Y598999D01*
X327999Y620999D02*
Y636999D01*
X593999Y620999D02*
X594999Y619999D01*
X593999Y620999D02*
Y661999D01*
X531999Y598999D02*
X575999Y642999D01*
X505999Y598999D02*
X531999D01*
X098999Y686999D02*
X111999D01*
X083999Y671999D02*
X098999Y686999D01*
X083999Y250999D02*
Y671999D01*
Y250999D02*
X182999Y151999D01*
Y112999D02*
Y151999D01*
Y112999D02*
X196999Y098999D01*
X220999*
X242999Y120999*
X154999Y532999D02*
X174128Y51387D01*
Y45487D02*
Y51387D01*
Y45487D02*
X191298Y4377D01*
X217498*
X097399Y415399D02*
X109999D01*
X089999Y407999D02*
X097399Y415399D01*
X089999Y383999D02*
Y407999D01*
Y383999D02*
X141999Y331999D01*
X1019599Y129599D02*
Y247499D01*
X998999Y108999D02*
X1019599Y129599D01*
X254999Y108999D02*
X998999D01*
X242999Y120999D02*
X254999Y108999D01*
X242999Y120999D02*
Y160999D01*
X349999Y267999*
Y344999*
X399999Y251999D02*
X414999Y236999D01*
X399999Y251999D02*
Y260999D01*
X344Y1325D02*
Y221D01*
X418999Y295999*
Y303999*
X470999Y204999D02*
Y245999D01*
X457999Y191999D02*
X470999Y204999D01*
X444399Y191999D02*
X457999D01*
X420199Y167799D02*
X444399Y191999D01*
X420199Y132499D02*
Y167799D01*
X441999Y245999D02*
X470999D01*
X440999Y246999D02*
X441999Y245999D01*
X520999Y487999D02*
X532999Y499999D01*
X600999*
X217498Y4631D02*
X231999Y477601D01*
Y538999*
X246999Y553999*
X427999*
X471999Y509999*
Y482999D02*
Y509999D01*
Y482999D02*
X504999Y449999D01*
X514999*
X217498Y4377D02*
X2297D01*
X240999Y448999*
Y532999*
X254Y545999*
X412999*
X461999Y496999*
Y479999D02*
Y496999D01*
Y479999D02*
X501999Y439999D01*
X514999*
X217498Y4123D02*
X2383D01*
X245999Y419999*
Y524999*
X252999Y531999*
X251999Y502999D02*
X265999Y516999D01*
X251999Y408999D02*
Y502999D01*
X229901Y386901D02*
X251999Y408999D01*
X260999Y499999D02*
X269999Y508999D01*
X260999Y388999D02*
Y499999D01*
X233501Y361501D02*
X260999Y388999D01*
X268999Y497999D02*
X274999Y503999D01*
X268999Y363999D02*
Y497999D01*
X241099Y336099D02*
X268999Y363999D01*
X282999Y478999D02*
X292999Y488999D01*
X282999Y346999D02*
Y478999D01*
X246699Y310699D02*
X282999Y346999D01*
X294999Y475999D02*
X300999Y481999D01*
X294999Y331999D02*
Y475999D01*
X2483Y2853D02*
X294999Y331999D01*
X307999Y471999D02*
X310999Y474999D01*
X307999Y321999D02*
Y471999D01*
X2459Y2599D02*
X307999Y321999D01*
X318999Y449999D02*
X334999Y465999D01*
X318999Y281999D02*
Y449999D01*
X2461Y2091D02*
X318999Y281999D01*
X252999Y531999D02*
X411999D01*
X452999Y490999*
Y476999D02*
Y490999D01*
Y476999D02*
X497999Y431999D01*
X508999*
X217497Y386901D02*
X229901D01*
X265999Y516999D02*
X403999D01*
X437999Y482999*
Y462999D02*
Y482999D01*
Y462999D02*
X441999Y458999D01*
X461999*
X468998Y452*
Y449998D02*
Y452D01*
X217497Y361501D02*
X233501D01*
X269999Y508999D02*
X401999D01*
X429999Y480999*
Y457999D02*
Y480999D01*
Y457999D02*
X435999Y451999D01*
X456999*
X460999Y447999*
X520999Y397999D02*
Y462999D01*
Y487999*
X217499Y336099D02*
X241099D01*
X274999Y503999D02*
X393999D01*
X422999Y474999*
Y451999D02*
Y474999D01*
Y451999D02*
X429999Y444999D01*
X448999*
X217499Y310699D02*
X246699D01*
X292999Y488999D02*
X386999D01*
X414999Y460999*
Y446999D02*
Y460999D01*
Y446999D02*
X426999Y434999D01*
X446999*
X217498Y2853D02*
X2483D01*
X300999Y481999D02*
X385999D01*
X405999Y461999*
Y441999D02*
Y461999D01*
Y441999D02*
X423999Y423999D01*
X446999*
X217498Y2599D02*
X2459D01*
X310999Y474999D02*
X376999D01*
X395999Y455999*
Y429999D02*
Y455999D01*
X387199Y421199D02*
X395999Y429999D01*
X375399Y421199D02*
X387199D01*
X375399Y446599D02*
Y455599D01*
X364999Y465999D02*
X375399Y455599D01*
X334999Y465999D02*
X364999D01*
X217498Y2091D02*
X2461D01*
X451999Y406999D02*
X466999D01*
X420999Y375999D02*
X451999Y406999D01*
X396999Y412999D02*
X449999D01*
X498999Y410999D02*
X512999D01*
X494999Y406999D02*
X498999Y410999D01*
X494999Y396999D02*
Y406999D01*
X479999Y381999D02*
X494999Y396999D01*
X442999Y381999D02*
X479999D01*
X512999Y395999D02*
Y410999D01*
X533999Y411999D02*
X579999D01*
X628999Y362999*
X450999Y288999D02*
Y334999D01*
X436999Y281999D02*
X459999D01*
X478999Y300999*
Y336999*
X497999Y355999*
X520999Y397999D02*
X529999Y388999D01*
X3694Y1325D02*
Y1864D01*
X403999Y220999*
X460999*
X508999D02*
X509999Y219999D01*
X556999*
X637999Y220999D02*
X782999D01*
Y271999D02*
X893999D01*
X191999Y466999D02*
X2135Y4885D01*
X217498*
X109999Y389999D02*
X134999D01*
X149999Y404999*
Y434999*
X144514Y678999D02*
X149999D01*
X125999Y660484D02*
X144514Y678999D01*
X143999Y669999D02*
X149999D01*
X131999Y657999D02*
X143999Y669999D01*
X125999Y544484D02*
Y660484D01*
X131999Y541999D02*
Y657999D01*
X10856Y51856D02*
X131999Y541999D01*
X104317Y522802D02*
X125999Y544484D01*
X102196Y522802D02*
X104317D01*
X10856Y516438D02*
Y51856D01*
X541999Y390999D02*
X546999D01*
X487999Y336999D02*
X541999Y390999D01*
X503999Y391999D02*
Y402999D01*
X467999Y355999D02*
X503999Y391999D01*
X467999Y302999D02*
Y355999D01*
X493999Y160299D02*
X521799Y132499D01*
X493999Y160299D02*
Y332999D01*
X513999Y352999*
X487999Y140901D02*
Y336999D01*
Y140901D02*
X4964Y1325D01*
X513999Y352999D02*
X561999D01*
X554749Y370249D02*
Y395249D01*
X547199Y132499D02*
X578999Y164299D01*
Y345999*
X554749Y370249D02*
X578999Y345999D01*
X558999Y387999D02*
X591999Y354999D01*
Y151899D02*
Y354999D01*
X572599Y132499D02*
X591999Y151899D01*
X558999Y387999D02*
Y400999D01*
X548999D02*
X554749Y395249D01*
X597999Y132499D02*
Y356999D01*
X567999Y386999D02*
X597999Y356999D01*
X567999Y386999D02*
Y398999D01*
X806901Y361097D02*
X922499D01*
X792999Y374999D02*
X806901Y361097D01*
X792999Y374999D02*
Y418999D01*
X772999Y438999D02*
X792999Y418999D01*
X587999Y438999D02*
X772999D01*
X572999Y423999D02*
X587999Y438999D01*
X569999Y423999D02*
X572999D01*
X778999Y447999D02*
X788999Y437999D01*
X624999Y447999D02*
X778999D01*
X623999Y446999D02*
X624999Y447999D01*
X623999Y446999D02*
Y504999D01*
X891697Y335697D02*
X922499D01*
X869999Y313999D02*
X891697Y335697D01*
X789999Y313999D02*
X869999D01*
X591999Y429999D02*
X765999D01*
X583999Y421999D02*
X591999Y429999D01*
X916202Y303999D02*
X9225Y310297D01*
X781999Y303999D02*
X916202D01*
X601999Y423999D02*
X756999D01*
X595999Y417999D02*
X601999Y423999D01*
X775999Y281999D02*
X919602D01*
X9225Y284897*
X611999Y417999D02*
X752999D01*
X603999Y409999D02*
X611999Y417999D01*
X729999Y282999D02*
Y385999D01*
X747999Y241999D02*
X914597D01*
X703999Y411999D02*
X729999Y385999D01*
X618999Y411999D02*
X703999D01*
X611999Y404999D02*
X618999Y411999D01*
X914597Y241999D02*
X922499Y234097D01*
X623999Y403999D02*
X691999D01*
X905701Y183297D02*
X922499D01*
X895999Y192999D02*
X905701Y183297D01*
X895999Y192999D02*
Y231999D01*
X725401Y651401D02*
Y767D01*
X592999Y518999D02*
X725401Y651401D01*
X592999Y506999D02*
Y518999D01*
X700001Y642001D02*
Y767D01*
X581999Y523999D02*
X700001Y642001D01*
X581999Y508D02*
Y523999D01*
X6746Y7096D02*
Y766999D01*
X605999Y640999D02*
X6746Y7096D01*
X605999Y561999D02*
Y640999D01*
X589999Y545999D02*
X605999Y561999D01*
X588999Y545999D02*
X589999D01*
X6492Y7332D02*
Y766999D01*
X583999Y667999D02*
X6492Y7332D01*
X583999Y552999D02*
Y667999D01*
X581999Y506999D02*
Y508D01*
X600999Y499999D02*
X607999Y506999D01*
X413999Y563999D02*
X485999D01*
X409999Y583999D02*
Y590999D01*
Y583999D02*
X416999Y576999D01*
X494999*
X621999Y506999D02*
X623999Y504999D01*
X574999Y390999D02*
X576999Y392999D01*
X580999*
X623398Y3506*
Y132498D02*
Y3506D01*
X630999Y1132999D02*
X701999D01*
X628999D02*
X630999D01*
Y1125999D02*
Y1132999D01*
Y1125999D02*
X698999Y1057999D01*
X760999Y1052999D02*
X763999Y1055999D01*
Y1100999*
X770999Y1056999D02*
Y1169999D01*
X752999Y1187999D02*
X770999Y1169999D01*
Y1056999D02*
X775999Y1051999D01*
X756999Y1193999D02*
X777999Y1172999D01*
Y1077999D02*
Y1172999D01*
Y1077999D02*
X781999Y1073999D01*
X765999Y1199999D02*
X785999Y1179999D01*
Y1087999D02*
Y1179999D01*
Y1087999D02*
X789999Y1083999D01*
X729999Y1052999D02*
X75364Y1029358D01*
X922359*
X922499Y1029497*
X691999Y1173999D02*
X717999Y1147999D01*
Y1041999D02*
Y1147999D01*
Y1041999D02*
X747999Y1011999D01*
X7762Y1315798D02*
Y1536999D01*
Y1315798D02*
X817999Y1273999D01*
X788999Y1243999D02*
X797999Y1252999D01*
X788999Y1207999D02*
Y1243999D01*
X154999Y1302999D02*
Y1339999D01*
X349999Y1368999D02*
X505999D01*
X327999Y1390999D02*
X349999Y1368999D01*
X327999Y1390999D02*
Y1406999D01*
X593999Y1390999D02*
X594999Y1389999D01*
X593999Y1390999D02*
Y1431999D01*
X531999Y1368999D02*
X575999Y1412999D01*
X505999Y1368999D02*
X531999D01*
X098999Y1456999D02*
X111999D01*
X083999Y1441999D02*
X098999Y1456999D01*
X083999Y1020999D02*
Y1441999D01*
Y1020999D02*
X182999Y921999D01*
Y882999D02*
Y921999D01*
Y882999D02*
X196999Y868999D01*
X220999*
X242999Y890999*
X154999Y1302999D02*
X174128Y128387D01*
Y122487D02*
Y128387D01*
Y122487D02*
X191298Y12077D01*
X217498*
X097399Y1185399D02*
X109999D01*
X089999Y1177999D02*
X097399Y1185399D01*
X089999Y1153999D02*
Y1177999D01*
Y1153999D02*
X141999Y1101999D01*
X1019599Y899599D02*
Y1017499D01*
X998999Y878999D02*
X1019599Y899599D01*
X254999Y878999D02*
X998999D01*
X242999Y890999D02*
X254999Y878999D01*
X242999Y890999D02*
Y930999D01*
X349999Y1037999*
Y1114999*
X399999Y1021999D02*
X414999Y1006999D01*
X399999Y1021999D02*
Y1030999D01*
X344Y9025D02*
Y991D01*
X418999Y1065999*
Y1073999*
X470999Y974999D02*
Y1016D01*
X457999Y961999D02*
X470999Y974999D01*
X444399Y961999D02*
X457999D01*
X420199Y937799D02*
X444399Y961999D01*
X420199Y902499D02*
Y937799D01*
X441999Y1016D02*
X470999D01*
X440999Y1016999D02*
X441999Y1016D01*
X520999Y1257999D02*
X532999Y127D01*
X600999*
X217498Y12331D02*
X231999Y1247601D01*
Y1308999*
X246999Y1323999*
X427999*
X471999Y1279999*
Y1252999D02*
Y1279999D01*
Y1252999D02*
X504999Y1219999D01*
X514999*
X217498Y12077D02*
X2297D01*
X240999Y1218999*
Y1302999*
X254Y1315999*
X412999*
X461999Y1266999*
Y1249999D02*
Y1266999D01*
Y1249999D02*
X501999Y1209999D01*
X514999*
X217498Y11823D02*
X2383D01*
X245999Y1189999*
Y1294999*
X252999Y1301999*
X251999Y1272999D02*
X265999Y1286999D01*
X251999Y1178999D02*
Y1272999D01*
X229901Y1156901D02*
X251999Y1178999D01*
X260999Y127D02*
X269999Y1278999D01*
X260999Y1158999D02*
Y127D01*
X233501Y1131501D02*
X260999Y1158999D01*
X268999Y1267999D02*
X274999Y1273999D01*
X268999Y1133999D02*
Y1267999D01*
X241099Y1106099D02*
X268999Y1133999D01*
X282999Y1248999D02*
X292999Y1258999D01*
X282999Y1116999D02*
Y1248999D01*
X246699Y1080699D02*
X282999Y1116999D01*
X294999Y1245999D02*
X300999Y1251999D01*
X294999Y1101999D02*
Y1245999D01*
X2483Y10553D02*
X294999Y1101999D01*
X307999Y1241999D02*
X310999Y1244999D01*
X307999Y1091999D02*
Y1241999D01*
X2459Y10299D02*
X307999Y1091999D01*
X318999Y1219999D02*
X334999Y1235999D01*
X318999Y1051999D02*
Y1219999D01*
X2461Y9791D02*
X318999Y1051999D01*
X252999Y1301999D02*
X411999D01*
X452999Y1260999*
Y1246999D02*
Y1260999D01*
Y1246999D02*
X497999Y1201999D01*
X508999*
X217497Y1156901D02*
X229901D01*
X265999Y1286999D02*
X403999D01*
X437999Y1252999*
Y1232999D02*
Y1252999D01*
Y1232999D02*
X441999Y1228999D01*
X461999*
X468998Y1222*
Y1219998D02*
Y1222D01*
X217497Y1131501D02*
X233501D01*
X269999Y1278999D02*
X401999D01*
X429999Y1250999*
Y1227999D02*
Y1250999D01*
Y1227999D02*
X435999Y1221999D01*
X456999*
X460999Y1217999*
X520999Y1167999D02*
Y1232999D01*
Y1257999*
X217499Y1106099D02*
X241099D01*
X274999Y1273999D02*
X393999D01*
X422999Y1244999*
Y1221999D02*
Y1244999D01*
Y1221999D02*
X429999Y1214999D01*
X448999*
X217499Y1080699D02*
X246699D01*
X292999Y1258999D02*
X386999D01*
X414999Y1230999*
Y1216999D02*
Y1230999D01*
Y1216999D02*
X426999Y1204999D01*
X446999*
X217498Y10553D02*
X2483D01*
X300999Y1251999D02*
X385999D01*
X405999Y1231999*
Y1211999D02*
Y1231999D01*
Y1211999D02*
X423999Y1193999D01*
X446999*
X217498Y10299D02*
X2459D01*
X310999Y1244999D02*
X376999D01*
X395999Y1225999*
Y1199999D02*
Y1225999D01*
X387199Y1191199D02*
X395999Y1199999D01*
X375399Y1191199D02*
X387199D01*
X375399Y1216599D02*
Y1225599D01*
X364999Y1235999D02*
X375399Y1225599D01*
X334999Y1235999D02*
X364999D01*
X217498Y9791D02*
X2461D01*
X451999Y1176999D02*
X466999D01*
X420999Y1145999D02*
X451999Y1176999D01*
X396999Y1182999D02*
X449999D01*
X498999Y1180999D02*
X512999D01*
X494999Y1176999D02*
X498999Y1180999D01*
X494999Y1166999D02*
Y1176999D01*
X479999Y1151999D02*
X494999Y1166999D01*
X442999Y1151999D02*
X479999D01*
X512999Y1165999D02*
Y1180999D01*
X533999Y1181999D02*
X579999D01*
X628999Y1132999*
X450999Y1058999D02*
Y1104999D01*
X436999Y1051999D02*
X459999D01*
X478999Y1070999*
Y1106999*
X497999Y1125999*
X520999Y1167999D02*
X529999Y1158999D01*
X3694Y9025D02*
Y9564D01*
X403999Y990999*
X460999*
X508999D02*
X509999Y989999D01*
X556999*
X637999Y990999D02*
X782999D01*
Y1041999D02*
X893999D01*
X191999Y1236999D02*
X2135Y12585D01*
X217498*
X109999Y1159999D02*
X134999D01*
X149999Y1174999*
Y1204999*
X144514Y1448999D02*
X149999D01*
X125999Y1430484D02*
X144514Y1448999D01*
X143999Y1439999D02*
X149999D01*
X131999Y1427999D02*
X143999Y1439999D01*
X125999Y1314484D02*
Y1430484D01*
X131999Y1311999D02*
Y1427999D01*
X10856Y128856D02*
X131999Y1311999D01*
X104317Y1292802D02*
X125999Y1314484D01*
X102196Y1292802D02*
X104317D01*
X10856Y1286438D02*
Y128856D01*
X541999Y1160999D02*
X546999D01*
X487999Y1106999D02*
X541999Y1160999D01*
X503999Y1161999D02*
Y1172999D01*
X467999Y1125999D02*
X503999Y1161999D01*
X467999Y1072999D02*
Y1125999D01*
X493999Y930299D02*
X521799Y902499D01*
X493999Y930299D02*
Y1102999D01*
X513999Y1122999*
X487999Y910901D02*
Y1106999D01*
Y910901D02*
X4964Y9025D01*
X513999Y1122999D02*
X561999D01*
X554749Y1140249D02*
Y1165249D01*
X547199Y902499D02*
X578999Y934299D01*
Y1115999*
X554749Y1140249D02*
X578999Y1115999D01*
X558999Y1157999D02*
X591999Y1124999D01*
Y921899D02*
Y1124999D01*
X572599Y902499D02*
X591999Y921899D01*
X558999Y1157999D02*
Y1170999D01*
X548999D02*
X554749Y1165249D01*
X597999Y902499D02*
Y1126999D01*
X567999Y1156999D02*
X597999Y1126999D01*
X567999Y1156999D02*
Y1168999D01*
X806901Y1131097D02*
X922499D01*
X792999Y1144999D02*
X806901Y1131097D01*
X792999Y1144999D02*
Y1188999D01*
X772999Y1208999D02*
X792999Y1188999D01*
X587999Y1208999D02*
X772999D01*
X572999Y1193999D02*
X587999Y1208999D01*
X569999Y1193999D02*
X572999D01*
X778999Y1217999D02*
X788999Y1207999D01*
X624999Y1217999D02*
X778999D01*
X623999Y1216999D02*
X624999Y1217999D01*
X623999Y1216999D02*
Y1274999D01*
X891697Y1105697D02*
X922499D01*
X869999Y1083999D02*
X891697Y1105697D01*
X789999Y1083999D02*
X869999D01*
X591999Y1199999D02*
X765999D01*
X583999Y1191999D02*
X591999Y1199999D01*
X916202Y1073999D02*
X9225Y1080297D01*
X781999Y1073999D02*
X916202D01*
X601999Y1193999D02*
X756999D01*
X595999Y1187999D02*
X601999Y1193999D01*
X775999Y1051999D02*
X919602D01*
X9225Y1054897*
X611999Y1187999D02*
X752999D01*
X603999Y1179999D02*
X611999Y1187999D01*
X729999Y1052999D02*
Y1155999D01*
X747999Y1011999D02*
X914597D01*
X703999Y1181999D02*
X729999Y1155999D01*
X618999Y1181999D02*
X703999D01*
X611999Y1174999D02*
X618999Y1181999D01*
X914597Y1011999D02*
X922499Y1004097D01*
X623999Y1173999D02*
X691999D01*
X905701Y953297D02*
X922499D01*
X895999Y962999D02*
X905701Y953297D01*
X895999Y962999D02*
Y1001999D01*
X725401Y1421401D02*
Y1537D01*
X592999Y1288999D02*
X725401Y1421401D01*
X592999Y1276999D02*
Y1288999D01*
X700001Y1412001D02*
Y1537D01*
X581999Y1293999D02*
X700001Y1412001D01*
X581999Y1277999D02*
Y1293999D01*
X6746Y14796D02*
Y1536999D01*
X605999Y1410999D02*
X6746Y14796D01*
X605999Y1331999D02*
Y1410999D01*
X589999Y1315999D02*
X605999Y1331999D01*
X588999Y1315999D02*
X589999D01*
X6492Y15032D02*
Y1536999D01*
X583999Y1437999D02*
X6492Y15032D01*
X583999Y1322999D02*
Y1437999D01*
X581999Y1276999D02*
Y1277999D01*
X600999Y127D02*
X607999Y1276999D01*
X413999Y1333999D02*
X485999D01*
X409999Y1353999D02*
Y1360999D01*
Y1353999D02*
X416999Y1346999D01*
X494999*
X621999Y1276999D02*
X623999Y1274999D01*
X574999Y1160999D02*
X576999Y1162999D01*
X580999*
X623398Y11206*
Y902498D02*
Y11206D01*
X1685999Y1132999D02*
X1756999D01*
X1683999D02*
X1685999D01*
Y1125999D02*
Y1132999D01*
Y1125999D02*
X1753999Y1057999D01*
X1815999Y1052999D02*
X1818999Y1055999D01*
Y1100999*
X1825999Y1056999D02*
Y1169999D01*
X1807999Y1187999D02*
X1825999Y1169999D01*
Y1056999D02*
X1830999Y1051999D01*
X1811999Y1193999D02*
X1832999Y1172999D01*
Y1077999D02*
Y1172999D01*
Y1077999D02*
X1836999Y1073999D01*
X1820999Y1199999D02*
X1840999Y1179999D01*
Y1087999D02*
Y1179999D01*
Y1087999D02*
X1844999Y1083999D01*
X1784999Y1052999D02*
X180864Y1029358D01*
X1977359*
X1977499Y1029497*
X1746999Y1173999D02*
X1772999Y1147999D01*
Y1041999D02*
Y1147999D01*
Y1041999D02*
X1802999Y1011999D01*
X18312Y1315798D02*
Y1536999D01*
Y1315798D02*
X1872999Y1273999D01*
X1843999Y1243999D02*
X1852999Y1252999D01*
X1843999Y1207999D02*
Y1243999D01*
X1209999Y1302999D02*
Y1339999D01*
X1404999Y1368999D02*
X1560999D01*
X1382999Y1390999D02*
X1404999Y1368999D01*
X1382999Y1390999D02*
Y1406999D01*
X1648999Y1390999D02*
X1649999Y1389999D01*
X1648999Y1390999D02*
Y1431999D01*
X1586999Y1368999D02*
X1630999Y1412999D01*
X1560999Y1368999D02*
X1586999D01*
X1153999Y1456999D02*
X1166999D01*
X1138999Y1441999D02*
X1153999Y1456999D01*
X1138999Y1020999D02*
Y1441999D01*
Y1020999D02*
X1237999Y921999D01*
Y882999D02*
Y921999D01*
Y882999D02*
X1251999Y868999D01*
X1275999*
X1297999Y890999*
X1209999Y1302999D02*
X1229128Y128387D01*
Y122487D02*
Y128387D01*
Y122487D02*
X1246298Y12077D01*
X1272498*
X1152399Y1185399D02*
X1164999D01*
X1144999Y1177999D02*
X1152399Y1185399D01*
X1144999Y1153999D02*
Y1177999D01*
Y1153999D02*
X1196999Y1101999D01*
X2074599Y899599D02*
Y1017499D01*
X2053999Y878999D02*
X2074599Y899599D01*
X1309999Y878999D02*
X2053999D01*
X1297999Y890999D02*
X1309999Y878999D01*
X1297999Y890999D02*
Y930999D01*
X1404999Y1037999*
Y1114999*
X1454999Y1021999D02*
X1469999Y1006999D01*
X1454999Y1021999D02*
Y1030999D01*
X1399Y9025D02*
Y991D01*
X1473999Y1065999*
Y1073999*
X1525999Y974999D02*
Y1016D01*
X1512999Y961999D02*
X1525999Y974999D01*
X1499399Y961999D02*
X1512999D01*
X1475199Y937799D02*
X1499399Y961999D01*
X1475199Y902499D02*
Y937799D01*
X1496999Y1016D02*
X1525999D01*
X1495999Y1016999D02*
X1496999Y1016D01*
X1575999Y1257999D02*
X1587999Y127D01*
X1655999*
X1272498Y12331D02*
X1286999Y1247601D01*
Y1308999*
X1301999Y1323999*
X1482999*
X1526999Y1279999*
Y1252999D02*
Y1279999D01*
Y1252999D02*
X1559999Y1219999D01*
X1569999*
X1272498Y12077D02*
X12847D01*
X1295999Y1218999*
Y1302999*
X1308999Y1315999*
X1467999*
X1516999Y1266999*
Y1249999D02*
Y1266999D01*
Y1249999D02*
X1556999Y1209999D01*
X1569999*
X1272498Y11823D02*
X12933D01*
X1300999Y1189999*
Y1294999*
X1307999Y1301999*
X1306999Y1272999D02*
X1320999Y1286999D01*
X1306999Y1178999D02*
Y1272999D01*
X1284901Y1156901D02*
X1306999Y1178999D01*
X1315999Y127D02*
X1324999Y1278999D01*
X1315999Y1158999D02*
Y127D01*
X1288501Y1131501D02*
X1315999Y1158999D01*
X1323999Y1267999D02*
X1329999Y1273999D01*
X1323999Y1133999D02*
Y1267999D01*
X1296099Y1106099D02*
X1323999Y1133999D01*
X1337999Y1248999D02*
X1347999Y1258999D01*
X1337999Y1116999D02*
Y1248999D01*
X1301699Y1080699D02*
X1337999Y1116999D01*
X1349999Y1245999D02*
X1355999Y1251999D01*
X1349999Y1101999D02*
Y1245999D01*
X13033Y10553D02*
X1349999Y1101999D01*
X1362999Y1241999D02*
X1365999Y1244999D01*
X1362999Y1091999D02*
Y1241999D01*
X13009Y10299D02*
X1362999Y1091999D01*
X1373999Y1219999D02*
X1389999Y1235999D01*
X1373999Y1051999D02*
Y1219999D01*
X13011Y9791D02*
X1373999Y1051999D01*
X1307999Y1301999D02*
X1466999D01*
X1507999Y1260999*
Y1246999D02*
Y1260999D01*
Y1246999D02*
X1552999Y1201999D01*
X1563999*
X1272497Y1156901D02*
X1284901D01*
X1320999Y1286999D02*
X1458999D01*
X1492999Y1252999*
Y1232999D02*
Y1252999D01*
Y1232999D02*
X1496999Y1228999D01*
X1516999*
X1523998Y1222*
Y1219998D02*
Y1222D01*
X1272497Y1131501D02*
X1288501D01*
X1324999Y1278999D02*
X1456999D01*
X1484999Y1250999*
Y1227999D02*
Y1250999D01*
Y1227999D02*
X1490999Y1221999D01*
X1511999*
X1515999Y1217999*
X1575999Y1167999D02*
Y1232999D01*
Y1257999*
X1272499Y1106099D02*
X1296099D01*
X1329999Y1273999D02*
X1448999D01*
X1477999Y1244999*
Y1221999D02*
Y1244999D01*
Y1221999D02*
X1484999Y1214999D01*
X1503999*
X1272499Y1080699D02*
X1301699D01*
X1347999Y1258999D02*
X1441999D01*
X1469999Y1230999*
Y1216999D02*
Y1230999D01*
Y1216999D02*
X1481999Y1204999D01*
X1501999*
X1272498Y10553D02*
X13033D01*
X1355999Y1251999D02*
X1440999D01*
X1460999Y1231999*
Y1211999D02*
Y1231999D01*
Y1211999D02*
X1478999Y1193999D01*
X1501999*
X1272498Y10299D02*
X13009D01*
X1365999Y1244999D02*
X1431999D01*
X1450999Y1225999*
Y1199999D02*
Y1225999D01*
X1442199Y1191199D02*
X1450999Y1199999D01*
X1430399Y1191199D02*
X1442199D01*
X1430399Y1216599D02*
Y1225599D01*
X1419999Y1235999D02*
X1430399Y1225599D01*
X1389999Y1235999D02*
X1419999D01*
X1272498Y9791D02*
X13011D01*
X1506999Y1176999D02*
X1521999D01*
X1475999Y1145999D02*
X1506999Y1176999D01*
X1451999Y1182999D02*
X1504999D01*
X1553999Y1180999D02*
X1567999D01*
X1549999Y1176999D02*
X1553999Y1180999D01*
X1549999Y1166999D02*
Y1176999D01*
X1534999Y1151999D02*
X1549999Y1166999D01*
X1497999Y1151999D02*
X1534999D01*
X1567999Y1165999D02*
Y1180999D01*
X1588999Y1181999D02*
X1634999D01*
X1683999Y1132999*
X1505999Y1058999D02*
Y1104999D01*
X1491999Y1051999D02*
X1514999D01*
X1533999Y1070999*
Y1106999*
X1552999Y1125999*
X1575999Y1167999D02*
X1584999Y1158999D01*
X14244Y9025D02*
Y9564D01*
X1458999Y990999*
X1515999*
X1563999D02*
X1564999Y989999D01*
X1611999*
X1692999Y990999D02*
X1837999D01*
Y1041999D02*
X1948999D01*
X1246999Y1236999D02*
X12685Y12585D01*
X1272498*
X1164999Y1159999D02*
X1189999D01*
X1204999Y1174999*
Y1204999*
X1199515Y1448999D02*
X1204999D01*
X1180999Y1430484D02*
X1199515Y1448999D01*
X1198999Y1439999D02*
X1204999D01*
X1186999Y1427999D02*
X1198999Y1439999D01*
X1180999Y1314484D02*
Y1430484D01*
X1186999Y1311999D02*
Y1427999D01*
X116356Y128856D02*
X1186999Y1311999D01*
X1159317Y1292802D02*
X1180999Y1314484D01*
X1157196Y1292802D02*
X1159317D01*
X116356Y1286438D02*
Y128856D01*
X1596999Y1160999D02*
X1601999D01*
X1542999Y1106999D02*
X1596999Y1160999D01*
X1558999Y1161999D02*
Y1172999D01*
X1522999Y1125999D02*
X1558999Y1161999D01*
X1522999Y1072999D02*
Y1125999D01*
X1548999Y930299D02*
X1576799Y902499D01*
X1548999Y930299D02*
Y1102999D01*
X1568999Y1122999*
X1542999Y910901D02*
Y1106999D01*
Y910901D02*
X15514Y9025D01*
X1568999Y1122999D02*
X1616999D01*
X1609749Y1140249D02*
Y1165249D01*
X1602199Y902499D02*
X1633999Y934299D01*
Y1115999*
X1609749Y1140249D02*
X1633999Y1115999D01*
X1613999Y1157999D02*
X1646999Y1124999D01*
Y921899D02*
Y1124999D01*
X1627599Y902499D02*
X1646999Y921899D01*
X1613999Y1157999D02*
Y1170999D01*
X1603999D02*
X1609749Y1165249D01*
X1652999Y902499D02*
Y1126999D01*
X1622999Y1156999D02*
X1652999Y1126999D01*
X1622999Y1156999D02*
Y1168999D01*
X1861901Y1131097D02*
X1977499D01*
X1847999Y1144999D02*
X1861901Y1131097D01*
X1847999Y1144999D02*
Y1188999D01*
X1827999Y1208999D02*
X1847999Y1188999D01*
X1642999Y1208999D02*
X1827999D01*
X1627999Y1193999D02*
X1642999Y1208999D01*
X1624999Y1193999D02*
X1627999D01*
X1833999Y1217999D02*
X1843999Y1207999D01*
X1679999Y1217999D02*
X1833999D01*
X1678999Y1216999D02*
X1679999Y1217999D01*
X1678999Y1216999D02*
Y1274999D01*
X1946697Y1105697D02*
X1977499D01*
X1924999Y1083999D02*
X1946697Y1105697D01*
X1844999Y1083999D02*
X1924999D01*
X1646999Y1199999D02*
X1820999D01*
X1638999Y1191999D02*
X1646999Y1199999D01*
X1971202Y1073999D02*
X19775Y1080297D01*
X1836999Y1073999D02*
X1971202D01*
X1656999Y1193999D02*
X1811999D01*
X1651Y1187999D02*
X1656999Y1193999D01*
X1830999Y1051999D02*
X1974602D01*
X19775Y1054897*
X1666999Y1187999D02*
X1807999D01*
X1658999Y1179999D02*
X1666999Y1187999D01*
X1784999Y1052999D02*
Y1155999D01*
X1802999Y1011999D02*
X1969597D01*
X1758999Y1181999D02*
X1784999Y1155999D01*
X1673999Y1181999D02*
X1758999D01*
X1666999Y1174999D02*
X1673999Y1181999D01*
X1969597Y1011999D02*
X1977499Y1004097D01*
X1678999Y1173999D02*
X1746999D01*
X1960701Y953297D02*
X1977499D01*
X1950999Y962999D02*
X1960701Y953297D01*
X1950999Y962999D02*
Y1001999D01*
X1780401Y1421401D02*
Y1537D01*
X1647999Y1288999D02*
X1780401Y1421401D01*
X1647999Y1276999D02*
Y1288999D01*
X1755001Y1412001D02*
Y1537D01*
X1636999Y1293999D02*
X1755001Y1412001D01*
X1636999Y1277999D02*
Y1293999D01*
X17296Y14796D02*
Y1536999D01*
X1660999Y1410999D02*
X17296Y14796D01*
X1660999Y1331999D02*
Y1410999D01*
X1644999Y1315999D02*
X1660999Y1331999D01*
X1643999Y1315999D02*
X1644999D01*
X17042Y15032D02*
Y1536999D01*
X1638999Y1437999D02*
X17042Y15032D01*
X1638999Y1322999D02*
Y1437999D01*
X1636999Y1276999D02*
Y1277999D01*
X1655999Y127D02*
X1662999Y1276999D01*
X1468999Y1333999D02*
X1540999D01*
X1464999Y1353999D02*
Y1360999D01*
Y1353999D02*
X1471999Y1346999D01*
X1549999*
X1676999Y1276999D02*
X1678999Y1274999D01*
X1629999Y1160999D02*
X1631999Y1162999D01*
X1635999*
X1678398Y11206*
Y902498D02*
Y11206D01*
X1685999Y362999D02*
X1756999D01*
X1683999D02*
X1685999D01*
Y355999D02*
Y362999D01*
Y355999D02*
X1753999Y287999D01*
X1815999Y282999D02*
X1818999Y285999D01*
Y330999*
X1825999Y286999D02*
Y399999D01*
X1807999Y417999D02*
X1825999Y399999D01*
Y286999D02*
X1830999Y281999D01*
X1811999Y423999D02*
X1832999Y402999D01*
Y307999D02*
Y402999D01*
Y307999D02*
X1836999Y303999D01*
X1820999Y429999D02*
X1840999Y409999D01*
Y317999D02*
Y409999D01*
Y317999D02*
X1844999Y313999D01*
X1784999Y282999D02*
X180864Y259358D01*
X1977359*
X1977499Y259497*
X1746999Y403999D02*
X1772999Y377999D01*
Y271999D02*
Y377999D01*
Y271999D02*
X1802999Y241999D01*
X18312Y545798D02*
Y766999D01*
Y545798D02*
X1872999Y503999D01*
X1843999Y473999D02*
X1852999Y482999D01*
X1843999Y437999D02*
Y473999D01*
X1209999Y532999D02*
Y569999D01*
X1404999Y598999D02*
X1560999D01*
X1382999Y620999D02*
X1404999Y598999D01*
X1382999Y620999D02*
Y636999D01*
X1648999Y620999D02*
X1649999Y619999D01*
X1648999Y620999D02*
Y661999D01*
X1586999Y598999D02*
X1630999Y642999D01*
X1560999Y598999D02*
X1586999D01*
X1153999Y686999D02*
X1166999D01*
X1138999Y671999D02*
X1153999Y686999D01*
X1138999Y250999D02*
Y671999D01*
Y250999D02*
X1237999Y151999D01*
Y112999D02*
Y151999D01*
Y112999D02*
X1251999Y098999D01*
X1275999*
X1297999Y120999*
X1209999Y532999D02*
X1229128Y51387D01*
Y45487D02*
Y51387D01*
Y45487D02*
X1246298Y4377D01*
X1272498*
X1152399Y415399D02*
X1164999D01*
X1144999Y407999D02*
X1152399Y415399D01*
X1144999Y383999D02*
Y407999D01*
Y383999D02*
X1196999Y331999D01*
X2074599Y129599D02*
Y247499D01*
X2053999Y108999D02*
X2074599Y129599D01*
X1309999Y108999D02*
X2053999D01*
X1297999Y120999D02*
X1309999Y108999D01*
X1297999Y120999D02*
Y160999D01*
X1404999Y267999*
Y344999*
X1454999Y251999D02*
X1469999Y236999D01*
X1454999Y251999D02*
Y260999D01*
X1399Y1325D02*
Y221D01*
X1473999Y295999*
Y303999*
X1525999Y204999D02*
Y245999D01*
X1512999Y191999D02*
X1525999Y204999D01*
X1499399Y191999D02*
X1512999D01*
X1475199Y167799D02*
X1499399Y191999D01*
X1475199Y132499D02*
Y167799D01*
X1496999Y245999D02*
X1525999D01*
X1495999Y246999D02*
X1496999Y245999D01*
X1575999Y487999D02*
X1587999Y499999D01*
X1655999*
X1272498Y4631D02*
X1286999Y477601D01*
Y538999*
X1301999Y553999*
X1482999*
X1526999Y509999*
Y482999D02*
Y509999D01*
Y482999D02*
X1559999Y449999D01*
X1569999*
X1272498Y4377D02*
X12847D01*
X1295999Y448999*
Y532999*
X1308999Y545999*
X1467999*
X1516999Y496999*
Y479999D02*
Y496999D01*
Y479999D02*
X1556999Y439999D01*
X1569999*
X1272498Y4123D02*
X12933D01*
X1300999Y419999*
Y524999*
X1307999Y531999*
X1306999Y502999D02*
X1320999Y516999D01*
X1306999Y408999D02*
Y502999D01*
X1284901Y386901D02*
X1306999Y408999D01*
X1315999Y499999D02*
X1324999Y508999D01*
X1315999Y388999D02*
Y499999D01*
X1288501Y361501D02*
X1315999Y388999D01*
X1323999Y497999D02*
X1329999Y503999D01*
X1323999Y363999D02*
Y497999D01*
X1296099Y336099D02*
X1323999Y363999D01*
X1337999Y478999D02*
X1347999Y488999D01*
X1337999Y346999D02*
Y478999D01*
X1301699Y310699D02*
X1337999Y346999D01*
X1349999Y475999D02*
X1355999Y481999D01*
X1349999Y331999D02*
Y475999D01*
X13033Y2853D02*
X1349999Y331999D01*
X1362999Y471999D02*
X1365999Y474999D01*
X1362999Y321999D02*
Y471999D01*
X13009Y2599D02*
X1362999Y321999D01*
X1373999Y449999D02*
X1389999Y465999D01*
X1373999Y281999D02*
Y449999D01*
X13011Y2091D02*
X1373999Y281999D01*
X1307999Y531999D02*
X1466999D01*
X1507999Y490999*
Y476999D02*
Y490999D01*
Y476999D02*
X1552999Y431999D01*
X1563999*
X1272497Y386901D02*
X1284901D01*
X1320999Y516999D02*
X1458999D01*
X1492999Y482999*
Y462999D02*
Y482999D01*
Y462999D02*
X1496999Y458999D01*
X1516999*
X1523998Y452*
Y449998D02*
Y452D01*
X1272497Y361501D02*
X1288501D01*
X1324999Y508999D02*
X1456999D01*
X1484999Y480999*
Y457999D02*
Y480999D01*
Y457999D02*
X1490999Y451999D01*
X1511999*
X1515999Y447999*
X1575999Y397999D02*
Y462999D01*
Y487999*
X1272499Y336099D02*
X1296099D01*
X1329999Y503999D02*
X1448999D01*
X1477999Y474999*
Y451999D02*
Y474999D01*
Y451999D02*
X1484999Y444999D01*
X1503999*
X1272499Y310699D02*
X1301699D01*
X1347999Y488999D02*
X1441999D01*
X1469999Y460999*
Y446999D02*
Y460999D01*
Y446999D02*
X1481999Y434999D01*
X1501999*
X1272498Y2853D02*
X13033D01*
X1355999Y481999D02*
X1440999D01*
X1460999Y461999*
Y441999D02*
Y461999D01*
Y441999D02*
X1478999Y423999D01*
X1501999*
X1272498Y2599D02*
X13009D01*
X1365999Y474999D02*
X1431999D01*
X1450999Y455999*
Y429999D02*
Y455999D01*
X1442199Y421199D02*
X1450999Y429999D01*
X1430399Y421199D02*
X1442199D01*
X1430399Y446599D02*
Y455599D01*
X1419999Y465999D02*
X1430399Y455599D01*
X1389999Y465999D02*
X1419999D01*
X1272498Y2091D02*
X13011D01*
X1506999Y406999D02*
X1521999D01*
X1475999Y375999D02*
X1506999Y406999D01*
X1451999Y412999D02*
X1504999D01*
X1553999Y410999D02*
X1567999D01*
X1549999Y406999D02*
X1553999Y410999D01*
X1549999Y396999D02*
Y406999D01*
X1534999Y381999D02*
X1549999Y396999D01*
X1497999Y381999D02*
X1534999D01*
X1567999Y395999D02*
Y410999D01*
X1588999Y411999D02*
X1634999D01*
X1683999Y362999*
X1505999Y288999D02*
Y334999D01*
X1491999Y281999D02*
X1514999D01*
X1533999Y300999*
Y336999*
X1552999Y355999*
X1575999Y397999D02*
X1584999Y388999D01*
X14244Y1325D02*
Y1864D01*
X1458999Y220999*
X1515999*
X1563999D02*
X1564999Y219999D01*
X1611999*
X1692999Y220999D02*
X1837999D01*
Y271999D02*
X1948999D01*
X1246999Y466999D02*
X12685Y4885D01*
X1272498*
X1164999Y389999D02*
X1189999D01*
X1204999Y404999*
Y434999*
X1199515Y678999D02*
X1204999D01*
X1180999Y660484D02*
X1199515Y678999D01*
X1198999Y669999D02*
X1204999D01*
X1186999Y657999D02*
X1198999Y669999D01*
X1180999Y544484D02*
Y660484D01*
X1186999Y541999D02*
Y657999D01*
X116356Y51856D02*
X1186999Y541999D01*
X1159317Y522802D02*
X1180999Y544484D01*
X1157196Y522802D02*
X1159317D01*
X116356Y516438D02*
Y51856D01*
X1596999Y390999D02*
X1601999D01*
X1542999Y336999D02*
X1596999Y390999D01*
X1558999Y391999D02*
Y402999D01*
X1522999Y355999D02*
X1558999Y391999D01*
X1522999Y302999D02*
Y355999D01*
X1548999Y160299D02*
X1576799Y132499D01*
X1548999Y160299D02*
Y332999D01*
X1568999Y352999*
X1542999Y140901D02*
Y336999D01*
Y140901D02*
X15514Y1325D01*
X1568999Y352999D02*
X1616999D01*
X1609749Y370249D02*
Y395249D01*
X1602199Y132499D02*
X1633999Y164299D01*
Y345999*
X1609749Y370249D02*
X1633999Y345999D01*
X1613999Y387999D02*
X1646999Y354999D01*
Y151899D02*
Y354999D01*
X1627599Y132499D02*
X1646999Y151899D01*
X1613999Y387999D02*
Y400999D01*
X1603999D02*
X1609749Y395249D01*
X1652999Y132499D02*
Y356999D01*
X1622999Y386999D02*
X1652999Y356999D01*
X1622999Y386999D02*
Y398999D01*
X1861901Y361097D02*
X1977499D01*
X1847999Y374999D02*
X1861901Y361097D01*
X1847999Y374999D02*
Y418999D01*
X1827999Y438999D02*
X1847999Y418999D01*
X1642999Y438999D02*
X1827999D01*
X1627999Y423999D02*
X1642999Y438999D01*
X1624999Y423999D02*
X1627999D01*
X1833999Y447999D02*
X1843999Y437999D01*
X1679999Y447999D02*
X1833999D01*
X1678999Y446999D02*
X1679999Y447999D01*
X1678999Y446999D02*
Y504999D01*
X1946697Y335697D02*
X1977499D01*
X1924999Y313999D02*
X1946697Y335697D01*
X1844999Y313999D02*
X1924999D01*
X1646999Y429999D02*
X1820999D01*
X1638999Y421999D02*
X1646999Y429999D01*
X1971202Y303999D02*
X19775Y310297D01*
X1836999Y303999D02*
X1971202D01*
X1656999Y423999D02*
X1811999D01*
X1651Y417999D02*
X1656999Y423999D01*
X1830999Y281999D02*
X1974602D01*
X19775Y284897*
X1666999Y417999D02*
X1807999D01*
X1658999Y409999D02*
X1666999Y417999D01*
X1784999Y282999D02*
Y385999D01*
X1802999Y241999D02*
X1969597D01*
X1758999Y411999D02*
X1784999Y385999D01*
X1673999Y411999D02*
X1758999D01*
X1666999Y404999D02*
X1673999Y411999D01*
X1969597Y241999D02*
X1977499Y234097D01*
X1678999Y403999D02*
X1746999D01*
X1960701Y183297D02*
X1977499D01*
X1950999Y192999D02*
X1960701Y183297D01*
X1950999Y192999D02*
Y231999D01*
X1780401Y651401D02*
Y767D01*
X1647999Y518999D02*
X1780401Y651401D01*
X1647999Y506999D02*
Y518999D01*
X1755001Y642001D02*
Y767D01*
X1636999Y523999D02*
X1755001Y642001D01*
X1636999Y508D02*
Y523999D01*
X17296Y7096D02*
Y766999D01*
X1660999Y640999D02*
X17296Y7096D01*
X1660999Y561999D02*
Y640999D01*
X1644999Y545999D02*
X1660999Y561999D01*
X1643999Y545999D02*
X1644999D01*
X17042Y7332D02*
Y766999D01*
X1638999Y667999D02*
X17042Y7332D01*
X1638999Y552999D02*
Y667999D01*
X1636999Y506999D02*
Y508D01*
X1655999Y499999D02*
X1662999Y506999D01*
X1468999Y563999D02*
X1540999D01*
X1464999Y583999D02*
Y590999D01*
Y583999D02*
X1471999Y576999D01*
X1549999*
X1676999Y506999D02*
X1678999Y504999D01*
X1629999Y390999D02*
X1631999Y392999D01*
X1635999*
X1678398Y3506*
Y132498D02*
Y3506D01*
G54D23*
X706999Y317999D02*
X708999Y315999D01*
Y280999D02*
Y315999D01*
X745999Y278999D02*
X75989Y265108D01*
X886108*
X659999Y346999D02*
Y350999D01*
Y346999D02*
X688999Y317999D01*
X706999*
X636999Y521999D02*
X781999D01*
X892102Y411897*
X9225*
X984999Y379999D02*
Y392999D01*
X966101Y411897D02*
X984999Y392999D01*
X9225Y411897D02*
X966101D01*
X984999Y487499D02*
Y528999D01*
X1001999Y545999*
X1059999*
X408499Y639499D02*
X427999D01*
X293601Y754397D02*
Y767001D01*
Y754397D02*
X408499Y639499D01*
X706999Y1087999D02*
X708999Y1085999D01*
Y1050999D02*
Y1085999D01*
X745999Y1048999D02*
X75989Y1035108D01*
X886108*
X659999Y1116999D02*
Y1120999D01*
Y1116999D02*
X688999Y1087999D01*
X706999*
X636999Y1291999D02*
X781999D01*
X892102Y1181897*
X9225*
X984999Y1149999D02*
Y1162999D01*
X966101Y1181897D02*
X984999Y1162999D01*
X9225Y1181897D02*
X966101D01*
X984999Y1257499D02*
Y1298999D01*
X1001999Y1315999*
X1059999*
X408499Y1409499D02*
X427999D01*
X293601Y1524397D02*
Y1537001D01*
Y1524397D02*
X408499Y1409499D01*
X1761999Y1087999D02*
X1763999Y1085999D01*
Y1050999D02*
Y1085999D01*
X1800999Y1048999D02*
X181489Y1035108D01*
X1941108*
X1714999Y1116999D02*
Y1120999D01*
Y1116999D02*
X1743999Y1087999D01*
X1761999*
X1691999Y1291999D02*
X1836999D01*
X1947102Y1181897*
X19775*
X2039999Y1149999D02*
Y1162999D01*
X2021101Y1181897D02*
X2039999Y1162999D01*
X19775Y1181897D02*
X2021101D01*
X2039999Y1257499D02*
Y1298999D01*
X2056999Y1315999*
X2114999*
X1463499Y1409499D02*
X1482999D01*
X1348601Y1524397D02*
Y1537001D01*
Y1524397D02*
X1463499Y1409499D01*
X1761999Y317999D02*
X1763999Y315999D01*
Y280999D02*
Y315999D01*
X1800999Y278999D02*
X181489Y265108D01*
X1941108*
X1714999Y346999D02*
Y350999D01*
Y346999D02*
X1743999Y317999D01*
X1761999*
X1691999Y521999D02*
X1836999D01*
X1947101Y411897*
X19775*
X2039999Y379999D02*
Y392999D01*
X2021101Y411897D02*
X2039999Y392999D01*
X19775Y411897D02*
X2021101D01*
X2039999Y487499D02*
Y528999D01*
X2056999Y545999*
X2114999*
X1463499Y639499D02*
X1482999D01*
X1348601Y754397D02*
Y767001D01*
Y754397D02*
X1463499Y639499D01*
G54D24*
X813249Y383858D03*
Y338858D03*
X748249D03*
Y383858D03*
X813249Y1153858D03*
Y1108858D03*
X748249D03*
Y1153858D03*
X1868249D03*
Y1108858D03*
X1803249D03*
Y1153858D03*
X1868249Y383858D03*
Y338858D03*
X1803249D03*
Y383858D03*
G54D25*
X984999Y769999D03*
X1059999Y169999D03*
X134999Y119999D03*
Y769999D03*
X984999Y1539999D03*
X1059999Y939999D03*
X134999Y889999D03*
Y1539999D03*
X2039999D03*
X2114999Y939999D03*
X1189999Y889999D03*
Y1539999D03*
X2039999Y769999D03*
X2114999Y169999D03*
X1189999Y119999D03*
Y769999D03*
G54D26*
X167899Y232499D03*
X142499D03*
X1039999Y422499D03*
X1069999D03*
X984999Y457499D03*
Y487499D03*
X109999Y322899D03*
Y297499D03*
Y389999D03*
Y415399D03*
X427999Y639499D03*
X457999D03*
X377999Y636999D03*
X327999D03*
X984999Y379999D03*
Y349999D03*
X167899Y1002499D03*
X142499D03*
X1039999Y1192499D03*
X1069999D03*
X984999Y1227499D03*
Y1257499D03*
X109999Y1092899D03*
Y1067499D03*
Y1159999D03*
Y1185399D03*
X427999Y1409499D03*
X457999D03*
X377999Y1406999D03*
X327999D03*
X984999Y1149999D03*
Y1119999D03*
X1222899Y1002499D03*
X1197499D03*
X2094999Y1192499D03*
X2124999D03*
X2039999Y1227499D03*
Y1257499D03*
X1164999Y1092899D03*
Y1067499D03*
Y1159999D03*
Y1185399D03*
X1482999Y1409499D03*
X1512999D03*
X1432999Y1406999D03*
X1382999D03*
X2039999Y1149999D03*
Y1119999D03*
X1222899Y232499D03*
X1197499D03*
X2094999Y422499D03*
X2124999D03*
X2039999Y457499D03*
Y487499D03*
X1164999Y322899D03*
Y297499D03*
Y389999D03*
Y415399D03*
X1482999Y639499D03*
X1512999D03*
X1432999Y636999D03*
X1382999D03*
X2039999Y379999D03*
Y349999D03*
G54D27*
X1019599Y247499D03*
X1044999D03*
X1070398Y247498D03*
X375398Y3958D03*
X375399Y421199D03*
Y446599D03*
X349999D03*
Y421199D03*
X349998Y3958D03*
X375399Y344999D03*
Y370399D03*
X349999D03*
Y344999D03*
X877799Y766998D03*
X852399D03*
X8016Y766999D03*
X827D03*
X725401Y767D03*
X700001D03*
X7508Y766999D03*
X7762D03*
X573001Y767D03*
X547601D03*
X496801Y767001D03*
X522201D03*
X623801Y767D03*
X598401D03*
X6492Y766999D03*
X6746D03*
X369801Y767D03*
X344401D03*
X293601Y767001D03*
X319001D03*
X420601Y767D03*
X395201D03*
X446Y766999D03*
X4714D03*
X2682D03*
X2175Y742498D03*
Y717098D03*
X217499Y666299D03*
Y691699D03*
X217498Y5901D03*
Y5647D03*
X217499Y615499D03*
Y640899D03*
X217498Y4377D03*
Y4123D03*
X217497Y361501D03*
Y386901D03*
X217498Y4885D03*
Y4631D03*
X217499Y513899D03*
Y539299D03*
X217498Y2345D03*
Y2091D03*
X217497Y158301D03*
Y183701D03*
X217498Y2853D03*
Y2599D03*
X217499Y310699D03*
Y336099D03*
Y132899D03*
X514599Y332499D03*
X565399D03*
X539999D03*
X922498Y132498D03*
Y157898D03*
X922499Y208697D03*
Y183297D03*
X9225Y284897D03*
Y310297D03*
X922499Y259497D03*
Y234097D03*
X9225Y437297D03*
Y462697D03*
X922501Y513496D03*
Y488096D03*
X9225Y386497D03*
Y411897D03*
X922499Y361097D03*
Y335697D03*
X9225Y640497D03*
Y665897D03*
X922501Y716696D03*
Y691296D03*
X9225Y589697D03*
Y615097D03*
X922499Y564297D03*
Y538897D03*
Y742097D03*
X987498Y2087D03*
Y1833D03*
X987497Y157901D03*
X987498Y1325D03*
X962098D03*
X962097Y157901D03*
X962098Y1833D03*
Y2087D03*
X267801Y132501D03*
X293201D03*
X344Y1325D03*
X3186D03*
X420199Y132499D03*
X445599D03*
X3948Y1325D03*
X3694D03*
X572599Y132499D03*
X597999D03*
X648798Y132498D03*
X623398D03*
X521799Y132499D03*
X547199D03*
X4964Y1325D03*
X471D03*
X775799Y132499D03*
X801199D03*
X851998Y132498D03*
X826598D03*
X724999Y132499D03*
X750399D03*
X6996Y1325D03*
X6742D03*
X8774D03*
X1019599Y1017499D03*
X1044999D03*
X1070398Y1017498D03*
X375398Y11658D03*
X375399Y1191199D03*
Y1216599D03*
X349999D03*
Y1191199D03*
X349998Y11658D03*
X375399Y1114999D03*
Y1140399D03*
X349999D03*
Y1114999D03*
X877799Y1536998D03*
X852399D03*
X8016Y1536999D03*
X827D03*
X725401Y1537D03*
X700001D03*
X7508Y1536999D03*
X7762D03*
X573001Y1537D03*
X547601D03*
X496801Y1537001D03*
X522201D03*
X623801Y1537D03*
X598401D03*
X6492Y1536999D03*
X6746D03*
X369801Y1537D03*
X344401D03*
X293601Y1537001D03*
X319001D03*
X420601Y1537D03*
X395201D03*
X446Y1536999D03*
X4714D03*
X2682D03*
X2175Y1512498D03*
Y1487098D03*
X217499Y1436299D03*
Y1461699D03*
X217498Y13601D03*
Y13347D03*
X217499Y1385499D03*
Y1410899D03*
X217498Y12077D03*
Y11823D03*
X217497Y1131501D03*
Y1156901D03*
X217498Y12585D03*
Y12331D03*
X217499Y1283899D03*
Y1309299D03*
X217498Y10045D03*
Y9791D03*
X217497Y928301D03*
Y953701D03*
X217498Y10553D03*
Y10299D03*
X217499Y1080699D03*
Y1106099D03*
Y902899D03*
X514599Y1102499D03*
X565399D03*
X539999D03*
X922498Y902498D03*
Y927898D03*
X922499Y978697D03*
Y953297D03*
X9225Y1054897D03*
Y1080297D03*
X922499Y1029497D03*
Y1004097D03*
X9225Y1207297D03*
Y1232697D03*
X922501Y1283496D03*
Y1258096D03*
X9225Y1156497D03*
Y1181897D03*
X922499Y1131097D03*
Y1105697D03*
X9225Y1410497D03*
Y1435897D03*
X922501Y1486696D03*
Y1461296D03*
X9225Y1359697D03*
Y1385097D03*
X922499Y1334297D03*
Y1308897D03*
Y1512097D03*
X987498Y9787D03*
Y9533D03*
X987497Y927901D03*
X987498Y9025D03*
X962098D03*
X962097Y927901D03*
X962098Y9533D03*
Y9787D03*
X267801Y902501D03*
X293201D03*
X344Y9025D03*
X3186D03*
X420199Y902499D03*
X445599D03*
X3948Y9025D03*
X3694D03*
X572599Y902499D03*
X597999D03*
X648798Y902498D03*
X623398D03*
X521799Y902499D03*
X547199D03*
X4964Y9025D03*
X471D03*
X775799Y902499D03*
X801199D03*
X851998Y902498D03*
X826598D03*
X724999Y902499D03*
X750399D03*
X6996Y9025D03*
X6742D03*
X8774D03*
X2074599Y1017499D03*
X2099999D03*
X2125398Y1017498D03*
X1430398Y11658D03*
X1430399Y1191199D03*
Y1216599D03*
X1404999D03*
Y1191199D03*
X1404998Y11658D03*
X1430399Y1114999D03*
Y1140399D03*
X1404999D03*
Y1114999D03*
X1932799Y1536998D03*
X1907399D03*
X18566Y1536999D03*
X1882D03*
X1780401Y1537D03*
X1755001D03*
X18058Y1536999D03*
X18312D03*
X1628001Y1537D03*
X1602601D03*
X1551801Y1537001D03*
X1577201D03*
X1678801Y1537D03*
X1653401D03*
X17042Y1536999D03*
X17296D03*
X1424801Y1537D03*
X1399401D03*
X1348601Y1537001D03*
X1374001D03*
X1475601Y1537D03*
X1450201D03*
X1501Y1536999D03*
X15264D03*
X13232D03*
X12725Y1512498D03*
Y1487098D03*
X1272499Y1436299D03*
Y1461699D03*
X1272498Y13601D03*
Y13347D03*
X1272499Y1385499D03*
Y1410899D03*
X1272498Y12077D03*
Y11823D03*
X1272497Y1131501D03*
Y1156901D03*
X1272498Y12585D03*
Y12331D03*
X1272499Y1283899D03*
Y1309299D03*
X1272498Y10045D03*
Y9791D03*
X1272497Y928301D03*
Y953701D03*
X1272498Y10553D03*
Y10299D03*
X1272499Y1080699D03*
Y1106099D03*
Y902899D03*
X1569599Y1102499D03*
X1620399D03*
X1594999D03*
X1977498Y902498D03*
Y927898D03*
X1977499Y978697D03*
Y953297D03*
X19775Y1054897D03*
Y1080297D03*
X1977499Y1029497D03*
Y1004097D03*
X19775Y1207297D03*
Y1232697D03*
X1977501Y1283496D03*
Y1258096D03*
X19775Y1156497D03*
Y1181897D03*
X1977499Y1131097D03*
Y1105697D03*
X19775Y1410497D03*
Y1435897D03*
X1977501Y1486696D03*
Y1461296D03*
X19775Y1359697D03*
Y1385097D03*
X1977499Y1334297D03*
Y1308897D03*
Y1512097D03*
X2042498Y9787D03*
Y9533D03*
X2042497Y927901D03*
X2042498Y9025D03*
X2017098D03*
X2017097Y927901D03*
X2017098Y9533D03*
Y9787D03*
X1322801Y902501D03*
X1348201D03*
X1399Y9025D03*
X13736D03*
X1475199Y902499D03*
X1500599D03*
X14498Y9025D03*
X14244D03*
X1627599Y902499D03*
X1652999D03*
X1703798Y902498D03*
X1678398D03*
X1576799Y902499D03*
X1602199D03*
X15514Y9025D03*
X1526D03*
X1830799Y902499D03*
X1856199D03*
X1906998Y902498D03*
X1881598D03*
X1779999Y902499D03*
X1805399D03*
X17546Y9025D03*
X17292D03*
X19324D03*
X2074599Y247499D03*
X2099999D03*
X2125398Y247498D03*
X1430398Y3958D03*
X1430399Y421199D03*
Y446599D03*
X1404999D03*
Y421199D03*
X1404998Y3958D03*
X1430399Y344999D03*
Y370399D03*
X1404999D03*
Y344999D03*
X1932799Y766998D03*
X1907399D03*
X18566Y766999D03*
X1882D03*
X1780401Y767D03*
X1755001D03*
X18058Y766999D03*
X18312D03*
X1628001Y767D03*
X1602601D03*
X1551801Y767001D03*
X1577201D03*
X1678801Y767D03*
X1653401D03*
X17042Y766999D03*
X17296D03*
X1424801Y767D03*
X1399401D03*
X1348601Y767001D03*
X1374001D03*
X1475601Y767D03*
X1450201D03*
X1501Y766999D03*
X15264D03*
X13232D03*
X12725Y742498D03*
Y717098D03*
X1272499Y666299D03*
Y691699D03*
X1272498Y5901D03*
Y5647D03*
X1272499Y615499D03*
Y640899D03*
X1272498Y4377D03*
Y4123D03*
X1272497Y361501D03*
Y386901D03*
X1272498Y4885D03*
Y4631D03*
X1272499Y513899D03*
Y539299D03*
X1272498Y2345D03*
Y2091D03*
X1272497Y158301D03*
Y183701D03*
X1272498Y2853D03*
Y2599D03*
X1272499Y310699D03*
Y336099D03*
Y132899D03*
X1569599Y332499D03*
X1620399D03*
X1594999D03*
X1977498Y132498D03*
Y157898D03*
X1977499Y208697D03*
Y183297D03*
X19775Y284897D03*
Y310297D03*
X1977499Y259497D03*
Y234097D03*
X19775Y437297D03*
Y462697D03*
X1977501Y513496D03*
Y488096D03*
X19775Y386497D03*
Y411897D03*
X1977499Y361097D03*
Y335697D03*
X19775Y640497D03*
Y665897D03*
X1977501Y716696D03*
Y691296D03*
X19775Y589697D03*
Y615097D03*
X1977499Y564297D03*
Y538897D03*
Y742097D03*
X2042498Y2087D03*
Y1833D03*
X2042497Y157901D03*
X2042498Y1325D03*
X2017098D03*
X2017097Y157901D03*
X2017098Y1833D03*
Y2087D03*
X1322801Y132501D03*
X1348201D03*
X1399Y1325D03*
X13736D03*
X1475199Y132499D03*
X1500599D03*
X14498Y1325D03*
X14244D03*
X1627599Y132499D03*
X1652999D03*
X1703798Y132498D03*
X1678398D03*
X1576799Y132499D03*
X1602199D03*
X15514Y1325D03*
X1526D03*
X1830799Y132499D03*
X1856199D03*
X1906998Y132498D03*
X1881598D03*
X1779999Y132499D03*
X1805399D03*
X17546Y1325D03*
X17292D03*
X19324D03*
G54D28*
X698999Y287999D03*
X760999Y282999D03*
X763999Y330999D03*
X708999Y280999D03*
X745999Y278999D03*
X886108Y265108D03*
X817999Y503999D03*
X797999Y482999D03*
X998999Y519999D03*
X659999Y350999D03*
X706999Y317999D03*
X636999Y521999D03*
X154999Y569999D03*
X1059999Y545999D03*
X594999Y619999D03*
X593999Y661999D03*
X575999Y642999D03*
X505999Y598999D03*
X178999Y628999D03*
X111999Y686999D03*
X145999Y387999D03*
X135999Y527999D03*
X109999Y496999D03*
X154999Y498999D03*
X141999Y331999D03*
X399999Y260999D03*
X418999Y303999D03*
X414999Y236999D03*
X470999Y245999D03*
X440999Y246999D03*
X514999Y449999D03*
Y439999D03*
X508999Y431999D03*
X520999Y462999D03*
X468998Y449998D03*
X460999Y447999D03*
X448999Y444999D03*
X446999Y434999D03*
Y423999D03*
X420999Y375999D03*
X466999Y406999D03*
X449999Y412999D03*
X396999D03*
X442999Y381999D03*
X512999Y395999D03*
Y410999D03*
X533999Y411999D03*
X450999Y334999D03*
Y288999D03*
X436999Y281999D03*
X497999Y355999D03*
X460999Y220999D03*
X508999D03*
X556999Y219999D03*
X637999Y220999D03*
X782999D03*
Y271999D03*
X893999D03*
X191999Y466999D03*
X149999Y434999D03*
Y678999D03*
Y669999D03*
X102196Y522802D03*
X10856Y516438D03*
X546999Y390999D03*
X503999Y402999D03*
X467999Y302999D03*
X561999Y352999D03*
X548999Y400999D03*
X558999D03*
X567999Y398999D03*
X788999Y437999D03*
X569999Y423999D03*
X623999Y446999D03*
X583999Y421999D03*
X595999Y417999D03*
X603999Y409999D03*
X611999Y404999D03*
X623999Y403999D03*
X895999Y231999D03*
X592999Y506999D03*
X581999Y508D03*
X588999Y545999D03*
X583999Y552999D03*
X413999Y563999D03*
X485999D03*
X409999Y590999D03*
X494999Y576999D03*
X621999Y506999D03*
X529999Y388999D03*
X607999Y506999D03*
X574999Y390999D03*
X701999Y362999D03*
X747999Y408999D03*
X698999Y1057999D03*
X760999Y1052999D03*
X763999Y1100999D03*
X708999Y1050999D03*
X745999Y1048999D03*
X886108Y1035108D03*
X817999Y1273999D03*
X797999Y1252999D03*
X998999Y1289999D03*
X659999Y1120999D03*
X706999Y1087999D03*
X636999Y1291999D03*
X154999Y1339999D03*
X1059999Y1315999D03*
X594999Y1389999D03*
X593999Y1431999D03*
X575999Y1412999D03*
X505999Y1368999D03*
X178999Y1398999D03*
X111999Y1456999D03*
X145999Y1157999D03*
X135999Y1297999D03*
X109999Y1266999D03*
X154999Y1268999D03*
X141999Y1101999D03*
X399999Y1030999D03*
X418999Y1073999D03*
X414999Y1006999D03*
X470999Y1016D03*
X440999Y1016999D03*
X514999Y1219999D03*
Y1209999D03*
X508999Y1201999D03*
X520999Y1232999D03*
X468998Y1219998D03*
X460999Y1217999D03*
X448999Y1214999D03*
X446999Y1204999D03*
Y1193999D03*
X420999Y1145999D03*
X466999Y1176999D03*
X449999Y1182999D03*
X396999D03*
X442999Y1151999D03*
X512999Y1165999D03*
Y1180999D03*
X533999Y1181999D03*
X450999Y1104999D03*
Y1058999D03*
X436999Y1051999D03*
X497999Y1125999D03*
X460999Y990999D03*
X508999D03*
X556999Y989999D03*
X637999Y990999D03*
X782999D03*
Y1041999D03*
X893999D03*
X191999Y1236999D03*
X149999Y1204999D03*
Y1448999D03*
Y1439999D03*
X102196Y1292802D03*
X10856Y1286438D03*
X546999Y1160999D03*
X503999Y1172999D03*
X467999Y1072999D03*
X561999Y1122999D03*
X548999Y1170999D03*
X558999D03*
X567999Y1168999D03*
X788999Y1207999D03*
X569999Y1193999D03*
X623999Y1216999D03*
X583999Y1191999D03*
X595999Y1187999D03*
X603999Y1179999D03*
X611999Y1174999D03*
X623999Y1173999D03*
X895999Y1001999D03*
X592999Y1276999D03*
X581999Y1277999D03*
X588999Y1315999D03*
X583999Y1322999D03*
X413999Y1333999D03*
X485999D03*
X409999Y1360999D03*
X494999Y1346999D03*
X621999Y1276999D03*
X529999Y1158999D03*
X607999Y1276999D03*
X574999Y1160999D03*
X701999Y1132999D03*
X747999Y1178999D03*
X1753999Y1057999D03*
X1815999Y1052999D03*
X1818999Y1100999D03*
X1763999Y1050999D03*
X1800999Y1048999D03*
X1941108Y1035108D03*
X1872999Y1273999D03*
X1852999Y1252999D03*
X2053999Y1289999D03*
X1714999Y1120999D03*
X1761999Y1087999D03*
X1691999Y1291999D03*
X1209999Y1339999D03*
X2114999Y1315999D03*
X1649999Y1389999D03*
X1648999Y1431999D03*
X1630999Y1412999D03*
X1560999Y1368999D03*
X1233999Y1398999D03*
X1166999Y1456999D03*
X1200999Y1157999D03*
X1190999Y1297999D03*
X1164999Y1266999D03*
X1209999Y1268999D03*
X1196999Y1101999D03*
X1454999Y1030999D03*
X1473999Y1073999D03*
X1469999Y1006999D03*
X1525999Y1016D03*
X1495999Y1016999D03*
X1569999Y1219999D03*
Y1209999D03*
X1563999Y1201999D03*
X1575999Y1232999D03*
X1523998Y1219998D03*
X1515999Y1217999D03*
X1503999Y1214999D03*
X1501999Y1204999D03*
Y1193999D03*
X1475999Y1145999D03*
X1521999Y1176999D03*
X1504999Y1182999D03*
X1451999D03*
X1497999Y1151999D03*
X1567999Y1165999D03*
Y1180999D03*
X1588999Y1181999D03*
X1505999Y1104999D03*
Y1058999D03*
X1491999Y1051999D03*
X1552999Y1125999D03*
X1515999Y990999D03*
X1563999D03*
X1611999Y989999D03*
X1692999Y990999D03*
X1837999D03*
Y1041999D03*
X1948999D03*
X1246999Y1236999D03*
X1204999Y1204999D03*
Y1448999D03*
Y1439999D03*
X1157196Y1292802D03*
X116356Y1286438D03*
X1601999Y1160999D03*
X1558999Y1172999D03*
X1522999Y1072999D03*
X1616999Y1122999D03*
X1603999Y1170999D03*
X1613999D03*
X1622999Y1168999D03*
X1843999Y1207999D03*
X1624999Y1193999D03*
X1678999Y1216999D03*
X1638999Y1191999D03*
X1651Y1187999D03*
X1658999Y1179999D03*
X1666999Y1174999D03*
X1678999Y1173999D03*
X1950999Y1001999D03*
X1647999Y1276999D03*
X1636999Y1277999D03*
X1643999Y1315999D03*
X1638999Y1322999D03*
X1468999Y1333999D03*
X1540999D03*
X1464999Y1360999D03*
X1549999Y1346999D03*
X1676999Y1276999D03*
X1584999Y1158999D03*
X1662999Y1276999D03*
X1629999Y1160999D03*
X1756999Y1132999D03*
X1802999Y1178999D03*
X1753999Y287999D03*
X1815999Y282999D03*
X1818999Y330999D03*
X1763999Y280999D03*
X1800999Y278999D03*
X1941108Y265108D03*
X1872999Y503999D03*
X1852999Y482999D03*
X2053999Y519999D03*
X1714999Y350999D03*
X1761999Y317999D03*
X1691999Y521999D03*
X1209999Y569999D03*
X2114999Y545999D03*
X1649999Y619999D03*
X1648999Y661999D03*
X1630999Y642999D03*
X1560999Y598999D03*
X1233999Y628999D03*
X1166999Y686999D03*
X1200999Y387999D03*
X1190999Y527999D03*
X1164999Y496999D03*
X1209999Y498999D03*
X1196999Y331999D03*
X1454999Y260999D03*
X1473999Y303999D03*
X1469999Y236999D03*
X1525999Y245999D03*
X1495999Y246999D03*
X1569999Y449999D03*
Y439999D03*
X1563999Y431999D03*
X1575999Y462999D03*
X1523998Y449998D03*
X1515999Y447999D03*
X1503999Y444999D03*
X1501999Y434999D03*
Y423999D03*
X1475999Y375999D03*
X1521999Y406999D03*
X1504999Y412999D03*
X1451999D03*
X1497999Y381999D03*
X1567999Y395999D03*
Y410999D03*
X1588999Y411999D03*
X1505999Y334999D03*
Y288999D03*
X1491999Y281999D03*
X1552999Y355999D03*
X1515999Y220999D03*
X1563999D03*
X1611999Y219999D03*
X1692999Y220999D03*
X1837999D03*
Y271999D03*
X1948999D03*
X1246999Y466999D03*
X1204999Y434999D03*
Y678999D03*
Y669999D03*
X1157196Y522802D03*
X116356Y516438D03*
X1601999Y390999D03*
X1558999Y402999D03*
X1522999Y302999D03*
X1616999Y352999D03*
X1603999Y400999D03*
X1613999D03*
X1622999Y398999D03*
X1843999Y437999D03*
X1624999Y423999D03*
X1678999Y446999D03*
X1638999Y421999D03*
X1651Y417999D03*
X1658999Y409999D03*
X1666999Y404999D03*
X1678999Y403999D03*
X1950999Y231999D03*
X1647999Y506999D03*
X1636999Y508D03*
X1643999Y545999D03*
X1638999Y552999D03*
X1468999Y563999D03*
X1540999D03*
X1464999Y590999D03*
X1549999Y576999D03*
X1676999Y506999D03*
X1584999Y388999D03*
X1662999Y506999D03*
X1629999Y390999D03*
X1756999Y362999D03*
X1802999Y408999D03*
M02*