%FSTAX24Y24*%
%MOMM*%
%SFA1B1*%

%IPPOS*%
%ADD10R,1.299997X0.999998*%
%ADD11O,0.299999X1.499997*%
%ADD12O,1.499997X0.299999*%
%ADD13R,1.349997X4.599991*%
%ADD14R,10.799978X9.399981*%
%ADD15R,1.399997X1.099998*%
%ADD16R,1.099998X1.399997*%
%ADD17R,0.999998X1.299997*%
%ADD18O,0.499999X1.599997*%
%ADD19R,2.249995X0.999998*%
%ADD20R,2.249995X0.499999*%
%ADD21R,2.899994X1.999996*%
%LNpcbpannel-1*%
%LPD*%
G54D10*
X488999Y598999D03*
Y614999D03*
X731999Y424999D03*
Y408999D03*
X1052499Y509499D03*
Y525499D03*
X154999Y320499D03*
Y304499D03*
X104999Y240499D03*
Y224499D03*
X157499Y371999D03*
Y387999D03*
X488999Y1368999D03*
Y1384999D03*
X731999Y1194999D03*
Y1178999D03*
X1052499Y1279499D03*
Y1295499D03*
X154999Y1090499D03*
Y1074499D03*
X104999Y1010499D03*
Y994499D03*
X157499Y1141999D03*
Y1157999D03*
X1543999Y1368999D03*
Y1384999D03*
X1786999Y1194999D03*
Y1178999D03*
X2107499Y1279499D03*
Y1295499D03*
X1209999Y1090499D03*
Y1074499D03*
X1159999Y1010499D03*
Y994499D03*
X1212499Y1141999D03*
Y1157999D03*
X1543999Y598999D03*
Y614999D03*
X1786999Y424999D03*
Y408999D03*
X2107499Y509499D03*
Y525499D03*
X1209999Y320499D03*
Y304499D03*
X1159999Y240499D03*
Y224499D03*
X1212499Y371999D03*
Y387999D03*
G54D11*
X504999Y524999D03*
X509999D03*
X514999D03*
X519999D03*
X524999D03*
X529999D03*
X534999D03*
X539999D03*
X544999D03*
X549999D03*
X554999D03*
X559999D03*
X564999D03*
X569999D03*
X574999D03*
X579999D03*
X584999D03*
X589999D03*
X594999D03*
X599999D03*
X604999D03*
X609999D03*
X614999D03*
X619999D03*
X624999D03*
Y369999D03*
X619999D03*
X614999D03*
X609999D03*
X604999D03*
X599999D03*
X594999D03*
X589999D03*
X584999D03*
X579999D03*
X574999D03*
X569999D03*
X564999D03*
X559999D03*
X554999D03*
X549999D03*
X544999D03*
X539999D03*
X534999D03*
X529999D03*
X524999D03*
X519999D03*
X514999D03*
X509999D03*
X504999D03*
Y1294999D03*
X509999D03*
X514999D03*
X519999D03*
X524999D03*
X529999D03*
X534999D03*
X539999D03*
X544999D03*
X549999D03*
X554999D03*
X559999D03*
X564999D03*
X569999D03*
X574999D03*
X579999D03*
X584999D03*
X589999D03*
X594999D03*
X599999D03*
X604999D03*
X609999D03*
X614999D03*
X619999D03*
X624999D03*
Y1139999D03*
X619999D03*
X614999D03*
X609999D03*
X604999D03*
X599999D03*
X594999D03*
X589999D03*
X584999D03*
X579999D03*
X574999D03*
X569999D03*
X564999D03*
X559999D03*
X554999D03*
X549999D03*
X544999D03*
X539999D03*
X534999D03*
X529999D03*
X524999D03*
X519999D03*
X514999D03*
X509999D03*
X504999D03*
X1559999Y1294999D03*
X1564999D03*
X1569999D03*
X1574999D03*
X1579999D03*
X1584999D03*
X1589999D03*
X1594999D03*
X1599999D03*
X1604999D03*
X1609999D03*
X1614999D03*
X1619999D03*
X1624999D03*
X1629999D03*
X1634999D03*
X1639999D03*
X1644999D03*
X1649999D03*
X1654999D03*
X1659999D03*
X1664999D03*
X1669999D03*
X1674999D03*
X1679999D03*
Y1139999D03*
X1674999D03*
X1669999D03*
X1664999D03*
X1659999D03*
X1654999D03*
X1649999D03*
X1644999D03*
X1639999D03*
X1634999D03*
X1629999D03*
X1624999D03*
X1619999D03*
X1614999D03*
X1609999D03*
X1604999D03*
X1599999D03*
X1594999D03*
X1589999D03*
X1584999D03*
X1579999D03*
X1574999D03*
X1569999D03*
X1564999D03*
X1559999D03*
Y524999D03*
X1564999D03*
X1569999D03*
X1574999D03*
X1579999D03*
X1584999D03*
X1589999D03*
X1594999D03*
X1599999D03*
X1604999D03*
X1609999D03*
X1614999D03*
X1619999D03*
X1624999D03*
X1629999D03*
X1634999D03*
X1639999D03*
X1644999D03*
X1649999D03*
X1654999D03*
X1659999D03*
X1664999D03*
X1669999D03*
X1674999D03*
X1679999D03*
Y369999D03*
X1674999D03*
X1669999D03*
X1664999D03*
X1659999D03*
X1654999D03*
X1649999D03*
X1644999D03*
X1639999D03*
X1634999D03*
X1629999D03*
X1624999D03*
X1619999D03*
X1614999D03*
X1609999D03*
X1604999D03*
X1599999D03*
X1594999D03*
X1589999D03*
X1584999D03*
X1579999D03*
X1574999D03*
X1569999D03*
X1564999D03*
X1559999D03*
G54D12*
X642499Y507499D03*
Y502499D03*
Y497499D03*
Y492499D03*
Y487499D03*
Y482499D03*
Y477499D03*
Y472499D03*
Y467499D03*
Y462499D03*
Y457499D03*
Y452499D03*
Y447499D03*
Y442499D03*
Y437499D03*
Y432499D03*
Y427499D03*
Y422499D03*
Y417499D03*
Y412499D03*
Y407499D03*
Y402499D03*
Y397499D03*
Y392499D03*
Y387499D03*
X487499D03*
Y392499D03*
Y397499D03*
Y402499D03*
Y407499D03*
Y412499D03*
Y417499D03*
Y422499D03*
Y427499D03*
Y432499D03*
Y437499D03*
Y442499D03*
Y447499D03*
Y452499D03*
Y457499D03*
Y462499D03*
Y467499D03*
Y472499D03*
Y477499D03*
Y482499D03*
Y487499D03*
Y492499D03*
Y497499D03*
Y502499D03*
Y507499D03*
X642499Y1277499D03*
Y1272499D03*
Y1267499D03*
Y1262499D03*
Y1257499D03*
Y1252499D03*
Y1247499D03*
Y1242499D03*
Y1237499D03*
Y1232499D03*
Y1227499D03*
Y1222499D03*
Y1217499D03*
Y1212499D03*
Y1207499D03*
Y1202499D03*
Y1197499D03*
Y1192499D03*
Y1187499D03*
Y1182499D03*
Y1177499D03*
Y1172499D03*
Y1167499D03*
Y1162499D03*
Y1157499D03*
X487499D03*
Y1162499D03*
Y1167499D03*
Y1172499D03*
Y1177499D03*
Y1182499D03*
Y1187499D03*
Y1192499D03*
Y1197499D03*
Y1202499D03*
Y1207499D03*
Y1212499D03*
Y1217499D03*
Y1222499D03*
Y1227499D03*
Y1232499D03*
Y1237499D03*
Y1242499D03*
Y1247499D03*
Y1252499D03*
Y1257499D03*
Y1262499D03*
Y1267499D03*
Y1272499D03*
Y1277499D03*
X1697499D03*
Y1272499D03*
Y1267499D03*
Y1262499D03*
Y1257499D03*
Y1252499D03*
Y1247499D03*
Y1242499D03*
Y1237499D03*
Y1232499D03*
Y1227499D03*
Y1222499D03*
Y1217499D03*
Y1212499D03*
Y1207499D03*
Y1202499D03*
Y1197499D03*
Y1192499D03*
Y1187499D03*
Y1182499D03*
Y1177499D03*
Y1172499D03*
Y1167499D03*
Y1162499D03*
Y1157499D03*
X1542499D03*
Y1162499D03*
Y1167499D03*
Y1172499D03*
Y1177499D03*
Y1182499D03*
Y1187499D03*
Y1192499D03*
Y1197499D03*
Y1202499D03*
Y1207499D03*
Y1212499D03*
Y1217499D03*
Y1222499D03*
Y1227499D03*
Y1232499D03*
Y1237499D03*
Y1242499D03*
Y1247499D03*
Y1252499D03*
Y1257499D03*
Y1262499D03*
Y1267499D03*
Y1272499D03*
Y1277499D03*
X1697499Y507499D03*
Y502499D03*
Y497499D03*
Y492499D03*
Y487499D03*
Y482499D03*
Y477499D03*
Y472499D03*
Y467499D03*
Y462499D03*
Y457499D03*
Y452499D03*
Y447499D03*
Y442499D03*
Y437499D03*
Y432499D03*
Y427499D03*
Y422499D03*
Y417499D03*
Y412499D03*
Y407499D03*
Y402499D03*
Y397499D03*
Y392499D03*
Y387499D03*
X1542499D03*
Y392499D03*
Y397499D03*
Y402499D03*
Y407499D03*
Y412499D03*
Y417499D03*
Y422499D03*
Y427499D03*
Y432499D03*
Y437499D03*
Y442499D03*
Y447499D03*
Y452499D03*
Y457499D03*
Y462499D03*
Y467499D03*
Y472499D03*
Y477499D03*
Y482499D03*
Y487499D03*
Y492499D03*
Y497499D03*
Y502499D03*
Y507499D03*
G54D13*
X1037999Y582999D03*
X1012599D03*
X987199D03*
X1037999Y1352999D03*
X1012599D03*
X987199D03*
X2092999D03*
X2067599D03*
X2042199D03*
X2092999Y582999D03*
X2067599D03*
X2042199D03*
G54D14*
X1012599Y688999D03*
Y1458999D03*
X2067599D03*
Y688999D03*
G54D15*
X390499Y576999D03*
Y591999D03*
X482999Y317999D03*
Y332999D03*
X421999Y439499D03*
Y454499D03*
X593999Y565499D03*
Y580499D03*
X565399Y304999D03*
Y289999D03*
X507499Y304999D03*
Y289999D03*
X701999Y332499D03*
Y347499D03*
X390499Y1346999D03*
Y1361999D03*
X482999Y1087999D03*
Y1102999D03*
X421999Y1209499D03*
Y1224499D03*
X593999Y1335499D03*
Y1350499D03*
X565399Y1074999D03*
Y1059999D03*
X507499Y1074999D03*
Y1059999D03*
X701999Y1102499D03*
Y1117499D03*
X1445499Y1346999D03*
Y1361999D03*
X1537999Y1087999D03*
Y1102999D03*
X1476999Y1209499D03*
Y1224499D03*
X1648999Y1335499D03*
Y1350499D03*
X1620399Y1074999D03*
Y1059999D03*
X1562499Y1074999D03*
Y1059999D03*
X1756999Y1102499D03*
Y1117499D03*
X1445499Y576999D03*
Y591999D03*
X1537999Y317999D03*
Y332999D03*
X1476999Y439499D03*
Y454499D03*
X1648999Y565499D03*
Y580499D03*
X1620399Y304999D03*
Y289999D03*
X1562499Y304999D03*
Y289999D03*
X1756999Y332499D03*
Y347499D03*
G54D16*
X699499Y429499D03*
X714499D03*
X699499Y1199499D03*
X714499D03*
X1754499D03*
X1769499D03*
X1754499Y429499D03*
X1769499D03*
G54D17*
X1027999Y519999D03*
X1011999D03*
X1027999Y1289999D03*
X1011999D03*
X2082999D03*
X2066999D03*
X2082999Y519999D03*
X2066999D03*
G54D18*
X174749Y547749D03*
X168249D03*
X161749D03*
X155249D03*
X148749D03*
X142249D03*
X135749D03*
X129249D03*
X122749D03*
X116249D03*
X109749D03*
X103249D03*
X096749D03*
X090249D03*
X174749Y477249D03*
X168249D03*
X161749D03*
X155249D03*
X148749D03*
X142249D03*
X135749D03*
X129249D03*
X122749D03*
X116249D03*
X109749D03*
X103249D03*
X096749D03*
X090249D03*
X174749Y1317749D03*
X168249D03*
X161749D03*
X155249D03*
X148749D03*
X142249D03*
X135749D03*
X129249D03*
X122749D03*
X116249D03*
X109749D03*
X103249D03*
X096749D03*
X090249D03*
X174749Y1247249D03*
X168249D03*
X161749D03*
X155249D03*
X148749D03*
X142249D03*
X135749D03*
X129249D03*
X122749D03*
X116249D03*
X109749D03*
X103249D03*
X096749D03*
X090249D03*
X1229749Y1317749D03*
X1223249D03*
X1216749D03*
X1210249D03*
X1203749D03*
X1197249D03*
X1190749D03*
X1184249D03*
X1177749D03*
X1171249D03*
X1164749D03*
X1158249D03*
X1151749D03*
X1145249D03*
X1229749Y1247249D03*
X1223249D03*
X1216749D03*
X1210249D03*
X1203749D03*
X1197249D03*
X1190749D03*
X1184249D03*
X1177749D03*
X1171249D03*
X1164749D03*
X1158249D03*
X1151749D03*
X1145249D03*
X1229749Y547749D03*
X1223249D03*
X1216749D03*
X1210249D03*
X1203749D03*
X1197249D03*
X1190749D03*
X1184249D03*
X1177749D03*
X1171249D03*
X1164749D03*
X1158249D03*
X1151749D03*
X1145249D03*
X1229749Y477249D03*
X1223249D03*
X1216749D03*
X1210249D03*
X1203749D03*
X1197249D03*
X1190749D03*
X1184249D03*
X1177749D03*
X1171249D03*
X1164749D03*
X1158249D03*
X1151749D03*
X1145249D03*
G54D19*
X178999Y690499D03*
Y654499D03*
Y14605D03*
Y1424499D03*
X1233999Y14605D03*
Y1424499D03*
Y690499D03*
Y654499D03*
G54D20*
X178999Y680499D03*
Y672499D03*
Y664499D03*
Y1450499D03*
Y1442499D03*
Y1434499D03*
X1233999Y1450499D03*
Y1442499D03*
Y1434499D03*
Y680499D03*
Y672499D03*
Y664499D03*
G54D21*
X149999Y722499D03*
X109999D03*
Y622499D03*
X149999D03*
Y1492499D03*
X109999D03*
Y1392499D03*
X149999D03*
X1204999Y1492499D03*
X1164999D03*
Y1392499D03*
X1204999D03*
Y722499D03*
X1164999D03*
Y622499D03*
X1204999D03*
M02*