%FSTAX24Y24*%
%MOMM*%
%SFA1B1*%

%IPPOS*%
%AMD50*
4,1,8,-0.500380,-1.102360,0.500380,-1.102360,1.102360,-0.500380,1.102360,0.500380,0.500380,1.102360,-0.500380,1.102360,-1.102360,0.500380,-1.102360,-0.500380,-0.500380,-1.102360,0.0*
1,1,1.203200,-0.500380,-0.500380*
1,1,1.203200,0.500380,-0.500380*
1,1,1.203200,0.500380,0.500380*
1,1,1.203200,-0.500380,0.500380*
%
%ADD37R,1.503197X1.203198*%
%ADD38O,0.503199X1.703197*%
%ADD39O,1.703197X0.503199*%
%ADD40R,1.553197X4.803190*%
%ADD41R,11.003178X9.603181*%
%ADD42R,1.603197X1.303197*%
%ADD43R,1.303197X1.603197*%
%ADD44R,1.203198X1.503197*%
%ADD45O,0.703199X1.803196*%
%ADD46R,2.453195X1.203198*%
%ADD47R,2.453195X0.703199*%
%ADD48R,3.103194X2.203196*%
%ADD49C,0.203200*%
G04~CAMADD=50~8~0.0~0.0~867.4~867.4~236.9~0.0~15~0.0~0.0~0.0~0.0~0~0.0~0.0~0.0~0.0~0~0.0~0.0~0.0~180.0~868.0~868.0*
%ADD50D50*%
%ADD51C,2.703195*%
%ADD52C,1.803196*%
%ADD53C,2.203196*%
%ADD54C,0.803198*%
%LNpcbpannel-1*%
%LPD*%
G54D37*
X488999Y598999D03*
Y614999D03*
X731999Y424999D03*
Y408999D03*
X1052499Y509499D03*
Y525499D03*
X154999Y320499D03*
Y304499D03*
X104999Y240499D03*
Y224499D03*
X157499Y371999D03*
Y387999D03*
X488999Y1368999D03*
Y1384999D03*
X731999Y1194999D03*
Y1178999D03*
X1052499Y1279499D03*
Y1295499D03*
X154999Y1090499D03*
Y1074499D03*
X104999Y1010499D03*
Y994499D03*
X157499Y1141999D03*
Y1157999D03*
X1543999Y1368999D03*
Y1384999D03*
X1786999Y1194999D03*
Y1178999D03*
X2107499Y1279499D03*
Y1295499D03*
X1209999Y1090499D03*
Y1074499D03*
X1159999Y1010499D03*
Y994499D03*
X1212499Y1141999D03*
Y1157999D03*
X1543999Y598999D03*
Y614999D03*
X1786999Y424999D03*
Y408999D03*
X2107499Y509499D03*
Y525499D03*
X1209999Y320499D03*
Y304499D03*
X1159999Y240499D03*
Y224499D03*
X1212499Y371999D03*
Y387999D03*
G54D38*
X504999Y524999D03*
X509999D03*
X514999D03*
X519999D03*
X524999D03*
X529999D03*
X534999D03*
X539999D03*
X544999D03*
X549999D03*
X554999D03*
X559999D03*
X564999D03*
X569999D03*
X574999D03*
X579999D03*
X584999D03*
X589999D03*
X594999D03*
X599999D03*
X604999D03*
X609999D03*
X614999D03*
X619999D03*
X624999D03*
Y369999D03*
X619999D03*
X614999D03*
X609999D03*
X604999D03*
X599999D03*
X594999D03*
X589999D03*
X584999D03*
X579999D03*
X574999D03*
X569999D03*
X564999D03*
X559999D03*
X554999D03*
X549999D03*
X544999D03*
X539999D03*
X534999D03*
X529999D03*
X524999D03*
X519999D03*
X514999D03*
X509999D03*
X504999D03*
Y1294999D03*
X509999D03*
X514999D03*
X519999D03*
X524999D03*
X529999D03*
X534999D03*
X539999D03*
X544999D03*
X549999D03*
X554999D03*
X559999D03*
X564999D03*
X569999D03*
X574999D03*
X579999D03*
X584999D03*
X589999D03*
X594999D03*
X599999D03*
X604999D03*
X609999D03*
X614999D03*
X619999D03*
X624999D03*
Y1139999D03*
X619999D03*
X614999D03*
X609999D03*
X604999D03*
X599999D03*
X594999D03*
X589999D03*
X584999D03*
X579999D03*
X574999D03*
X569999D03*
X564999D03*
X559999D03*
X554999D03*
X549999D03*
X544999D03*
X539999D03*
X534999D03*
X529999D03*
X524999D03*
X519999D03*
X514999D03*
X509999D03*
X504999D03*
X1559999Y1294999D03*
X1564999D03*
X1569999D03*
X1574999D03*
X1579999D03*
X1584999D03*
X1589999D03*
X1594999D03*
X1599999D03*
X1604999D03*
X1609999D03*
X1614999D03*
X1619999D03*
X1624999D03*
X1629999D03*
X1634999D03*
X1639999D03*
X1644999D03*
X1649999D03*
X1654999D03*
X1659999D03*
X1664999D03*
X1669999D03*
X1674999D03*
X1679999D03*
Y1139999D03*
X1674999D03*
X1669999D03*
X1664999D03*
X1659999D03*
X1654999D03*
X1649999D03*
X1644999D03*
X1639999D03*
X1634999D03*
X1629999D03*
X1624999D03*
X1619999D03*
X1614999D03*
X1609999D03*
X1604999D03*
X1599999D03*
X1594999D03*
X1589999D03*
X1584999D03*
X1579999D03*
X1574999D03*
X1569999D03*
X1564999D03*
X1559999D03*
Y524999D03*
X1564999D03*
X1569999D03*
X1574999D03*
X1579999D03*
X1584999D03*
X1589999D03*
X1594999D03*
X1599999D03*
X1604999D03*
X1609999D03*
X1614999D03*
X1619999D03*
X1624999D03*
X1629999D03*
X1634999D03*
X1639999D03*
X1644999D03*
X1649999D03*
X1654999D03*
X1659999D03*
X1664999D03*
X1669999D03*
X1674999D03*
X1679999D03*
Y369999D03*
X1674999D03*
X1669999D03*
X1664999D03*
X1659999D03*
X1654999D03*
X1649999D03*
X1644999D03*
X1639999D03*
X1634999D03*
X1629999D03*
X1624999D03*
X1619999D03*
X1614999D03*
X1609999D03*
X1604999D03*
X1599999D03*
X1594999D03*
X1589999D03*
X1584999D03*
X1579999D03*
X1574999D03*
X1569999D03*
X1564999D03*
X1559999D03*
G54D39*
X642499Y507499D03*
Y502499D03*
Y497499D03*
Y492499D03*
Y487499D03*
Y482499D03*
Y477499D03*
Y472499D03*
Y467499D03*
Y462499D03*
Y457499D03*
Y452499D03*
Y447499D03*
Y442499D03*
Y437499D03*
Y432499D03*
Y427499D03*
Y422499D03*
Y417499D03*
Y412499D03*
Y407499D03*
Y402499D03*
Y397499D03*
Y392499D03*
Y387499D03*
X487499D03*
Y392499D03*
Y397499D03*
Y402499D03*
Y407499D03*
Y412499D03*
Y417499D03*
Y422499D03*
Y427499D03*
Y432499D03*
Y437499D03*
Y442499D03*
Y447499D03*
Y452499D03*
Y457499D03*
Y462499D03*
Y467499D03*
Y472499D03*
Y477499D03*
Y482499D03*
Y487499D03*
Y492499D03*
Y497499D03*
Y502499D03*
Y507499D03*
X642499Y1277499D03*
Y1272499D03*
Y1267499D03*
Y1262499D03*
Y1257499D03*
Y1252499D03*
Y1247499D03*
Y1242499D03*
Y1237499D03*
Y1232499D03*
Y1227499D03*
Y1222499D03*
Y1217499D03*
Y1212499D03*
Y1207499D03*
Y1202499D03*
Y1197499D03*
Y1192499D03*
Y1187499D03*
Y1182499D03*
Y1177499D03*
Y1172499D03*
Y1167499D03*
Y1162499D03*
Y1157499D03*
X487499D03*
Y1162499D03*
Y1167499D03*
Y1172499D03*
Y1177499D03*
Y1182499D03*
Y1187499D03*
Y1192499D03*
Y1197499D03*
Y1202499D03*
Y1207499D03*
Y1212499D03*
Y1217499D03*
Y1222499D03*
Y1227499D03*
Y1232499D03*
Y1237499D03*
Y1242499D03*
Y1247499D03*
Y1252499D03*
Y1257499D03*
Y1262499D03*
Y1267499D03*
Y1272499D03*
Y1277499D03*
X1697499D03*
Y1272499D03*
Y1267499D03*
Y1262499D03*
Y1257499D03*
Y1252499D03*
Y1247499D03*
Y1242499D03*
Y1237499D03*
Y1232499D03*
Y1227499D03*
Y1222499D03*
Y1217499D03*
Y1212499D03*
Y1207499D03*
Y1202499D03*
Y1197499D03*
Y1192499D03*
Y1187499D03*
Y1182499D03*
Y1177499D03*
Y1172499D03*
Y1167499D03*
Y1162499D03*
Y1157499D03*
X1542499D03*
Y1162499D03*
Y1167499D03*
Y1172499D03*
Y1177499D03*
Y1182499D03*
Y1187499D03*
Y1192499D03*
Y1197499D03*
Y1202499D03*
Y1207499D03*
Y1212499D03*
Y1217499D03*
Y1222499D03*
Y1227499D03*
Y1232499D03*
Y1237499D03*
Y1242499D03*
Y1247499D03*
Y1252499D03*
Y1257499D03*
Y1262499D03*
Y1267499D03*
Y1272499D03*
Y1277499D03*
X1697499Y507499D03*
Y502499D03*
Y497499D03*
Y492499D03*
Y487499D03*
Y482499D03*
Y477499D03*
Y472499D03*
Y467499D03*
Y462499D03*
Y457499D03*
Y452499D03*
Y447499D03*
Y442499D03*
Y437499D03*
Y432499D03*
Y427499D03*
Y422499D03*
Y417499D03*
Y412499D03*
Y407499D03*
Y402499D03*
Y397499D03*
Y392499D03*
Y387499D03*
X1542499D03*
Y392499D03*
Y397499D03*
Y402499D03*
Y407499D03*
Y412499D03*
Y417499D03*
Y422499D03*
Y427499D03*
Y432499D03*
Y437499D03*
Y442499D03*
Y447499D03*
Y452499D03*
Y457499D03*
Y462499D03*
Y467499D03*
Y472499D03*
Y477499D03*
Y482499D03*
Y487499D03*
Y492499D03*
Y497499D03*
Y502499D03*
Y507499D03*
G54D40*
X1037999Y582999D03*
X1012599D03*
X987199D03*
X1037999Y1352999D03*
X1012599D03*
X987199D03*
X2092999D03*
X2067599D03*
X2042199D03*
X2092999Y582999D03*
X2067599D03*
X2042199D03*
G54D41*
X1012599Y688999D03*
Y1458999D03*
X2067599D03*
Y688999D03*
G54D42*
X390499Y576999D03*
Y591999D03*
X482999Y317999D03*
Y332999D03*
X421999Y439499D03*
Y454499D03*
X593999Y565499D03*
Y580499D03*
X565399Y304999D03*
Y289999D03*
X507499Y304999D03*
Y289999D03*
X701999Y332499D03*
Y347499D03*
X390499Y1346999D03*
Y1361999D03*
X482999Y1087999D03*
Y1102999D03*
X421999Y1209499D03*
Y1224499D03*
X593999Y1335499D03*
Y1350499D03*
X565399Y1074999D03*
Y1059999D03*
X507499Y1074999D03*
Y1059999D03*
X701999Y1102499D03*
Y1117499D03*
X1445499Y1346999D03*
Y1361999D03*
X1537999Y1087999D03*
Y1102999D03*
X1476999Y1209499D03*
Y1224499D03*
X1648999Y1335499D03*
Y1350499D03*
X1620399Y1074999D03*
Y1059999D03*
X1562499Y1074999D03*
Y1059999D03*
X1756999Y1102499D03*
Y1117499D03*
X1445499Y576999D03*
Y591999D03*
X1537999Y317999D03*
Y332999D03*
X1476999Y439499D03*
Y454499D03*
X1648999Y565499D03*
Y580499D03*
X1620399Y304999D03*
Y289999D03*
X1562499Y304999D03*
Y289999D03*
X1756999Y332499D03*
Y347499D03*
G54D43*
X699499Y429499D03*
X714499D03*
X699499Y1199499D03*
X714499D03*
X1754499D03*
X1769499D03*
X1754499Y429499D03*
X1769499D03*
G54D44*
X1027999Y519999D03*
X1011999D03*
X1027999Y1289999D03*
X1011999D03*
X2082999D03*
X2066999D03*
X2082999Y519999D03*
X2066999D03*
G54D45*
X174749Y547749D03*
X168249D03*
X161749D03*
X155249D03*
X148749D03*
X142249D03*
X135749D03*
X129249D03*
X122749D03*
X116249D03*
X109749D03*
X103249D03*
X096749D03*
X090249D03*
X174749Y477249D03*
X168249D03*
X161749D03*
X155249D03*
X148749D03*
X142249D03*
X135749D03*
X129249D03*
X122749D03*
X116249D03*
X109749D03*
X103249D03*
X096749D03*
X090249D03*
X174749Y1317749D03*
X168249D03*
X161749D03*
X155249D03*
X148749D03*
X142249D03*
X135749D03*
X129249D03*
X122749D03*
X116249D03*
X109749D03*
X103249D03*
X096749D03*
X090249D03*
X174749Y1247249D03*
X168249D03*
X161749D03*
X155249D03*
X148749D03*
X142249D03*
X135749D03*
X129249D03*
X122749D03*
X116249D03*
X109749D03*
X103249D03*
X096749D03*
X090249D03*
X1229749Y1317749D03*
X1223249D03*
X1216749D03*
X1210249D03*
X1203749D03*
X1197249D03*
X1190749D03*
X1184249D03*
X1177749D03*
X1171249D03*
X1164749D03*
X1158249D03*
X1151749D03*
X1145249D03*
X1229749Y1247249D03*
X1223249D03*
X1216749D03*
X1210249D03*
X1203749D03*
X1197249D03*
X1190749D03*
X1184249D03*
X1177749D03*
X1171249D03*
X1164749D03*
X1158249D03*
X1151749D03*
X1145249D03*
X1229749Y547749D03*
X1223249D03*
X1216749D03*
X1210249D03*
X1203749D03*
X1197249D03*
X1190749D03*
X1184249D03*
X1177749D03*
X1171249D03*
X1164749D03*
X1158249D03*
X1151749D03*
X1145249D03*
X1229749Y477249D03*
X1223249D03*
X1216749D03*
X1210249D03*
X1203749D03*
X1197249D03*
X1190749D03*
X1184249D03*
X1177749D03*
X1171249D03*
X1164749D03*
X1158249D03*
X1151749D03*
X1145249D03*
G54D46*
X178999Y690499D03*
Y654499D03*
Y14605D03*
Y1424499D03*
X1233999Y14605D03*
Y1424499D03*
Y690499D03*
Y654499D03*
G54D47*
X178999Y680499D03*
Y672499D03*
Y664499D03*
Y1450499D03*
Y1442499D03*
Y1434499D03*
X1233999Y1450499D03*
Y1442499D03*
Y1434499D03*
Y680499D03*
Y672499D03*
Y664499D03*
G54D48*
X149999Y722499D03*
X109999D03*
Y622499D03*
X149999D03*
Y1492499D03*
X109999D03*
Y1392499D03*
X149999D03*
X1204999Y1492499D03*
X1164999D03*
Y1392499D03*
X1204999D03*
Y722499D03*
X1164999D03*
Y622499D03*
X1204999D03*
G54D49*
X474999Y837499D03*
X484999D03*
X494999D03*
Y822499D03*
X484999D03*
X474999D03*
X907499D03*
X917499D03*
X927499D03*
Y837499D03*
X917499D03*
X907499D03*
X132499Y822499D03*
X142499D03*
X152499D03*
Y837499D03*
X142499D03*
X132499D03*
X934999Y1592499D03*
X924999D03*
X914999D03*
X524999D03*
X514999D03*
X504999D03*
X144999D03*
X134999D03*
X124999D03*
X067499Y1439999D03*
Y1429999D03*
Y1419999D03*
Y1089999D03*
Y1079999D03*
Y1069999D03*
X144999Y067499D03*
X154999D03*
X164999D03*
X564999D03*
X574999D03*
X584999D03*
X914999D03*
X924999D03*
X934999D03*
X1234999D03*
X1244999D03*
X1254999D03*
X1659999D03*
X1669999D03*
X1679999D03*
X1974999D03*
X1984999D03*
X1994999D03*
Y837499D03*
X1984999D03*
X1974999D03*
Y822499D03*
X1984999D03*
X1994999D03*
X1679999Y837499D03*
X1669999D03*
X1659999D03*
Y822499D03*
X1669999D03*
X1679999D03*
X1254999Y837499D03*
X1244999D03*
X1234999D03*
Y822499D03*
X1244999D03*
X1254999D03*
X1974999Y1592499D03*
X1984999D03*
X1994999D03*
X1659999D03*
X1669999D03*
X1679999D03*
X1234999D03*
X1244999D03*
X1254999D03*
X067499Y134999D03*
Y144999D03*
Y154999D03*
Y399999D03*
Y409999D03*
Y419999D03*
Y709999D03*
Y719999D03*
Y729999D03*
X2162499Y1127499D03*
Y1137499D03*
Y1147499D03*
Y1469999D03*
Y1479999D03*
Y1489999D03*
Y719999D03*
Y709999D03*
Y699999D03*
Y377499D03*
Y367499D03*
Y357499D03*
Y9525D03*
Y942499D03*
Y932499D03*
Y164999D03*
Y174999D03*
Y184999D03*
X1107499D03*
Y174999D03*
Y164999D03*
Y932499D03*
Y942499D03*
Y9525D03*
Y357499D03*
Y367499D03*
Y377499D03*
Y699999D03*
Y709999D03*
Y719999D03*
Y1489999D03*
Y1479999D03*
Y1469999D03*
Y1147499D03*
Y1137499D03*
Y1127499D03*
X1122499Y1469999D03*
Y1479999D03*
Y1489999D03*
Y1127499D03*
Y1137499D03*
Y1147499D03*
Y932499D03*
Y942499D03*
Y9525D03*
Y699999D03*
Y709999D03*
Y719999D03*
Y357499D03*
Y367499D03*
Y377499D03*
Y164999D03*
Y174999D03*
Y184999D03*
G54D50*
X813249Y383858D03*
Y338858D03*
X748249D03*
Y383858D03*
X813249Y1153858D03*
Y1108858D03*
X748249D03*
Y1153858D03*
X1868249D03*
Y1108858D03*
X1803249D03*
Y1153858D03*
X1868249Y383858D03*
Y338858D03*
X1803249D03*
Y383858D03*
G54D51*
X984999Y769999D03*
X1059999Y169999D03*
X134999Y119999D03*
Y769999D03*
X984999Y1539999D03*
X1059999Y939999D03*
X134999Y889999D03*
Y1539999D03*
X2039999D03*
X2114999Y939999D03*
X1189999Y889999D03*
Y1539999D03*
X2039999Y769999D03*
X2114999Y169999D03*
X1189999Y119999D03*
Y769999D03*
G54D52*
X167899Y232499D03*
X142499D03*
X1039999Y422499D03*
X1069999D03*
X984999Y457499D03*
Y487499D03*
X109999Y322899D03*
Y297499D03*
Y389999D03*
Y415399D03*
X427999Y639499D03*
X457999D03*
X377999Y636999D03*
X327999D03*
X984999Y379999D03*
Y349999D03*
X167899Y1002499D03*
X142499D03*
X1039999Y1192499D03*
X1069999D03*
X984999Y1227499D03*
Y1257499D03*
X109999Y1092899D03*
Y1067499D03*
Y1159999D03*
Y1185399D03*
X427999Y1409499D03*
X457999D03*
X377999Y1406999D03*
X327999D03*
X984999Y1149999D03*
Y1119999D03*
X1222899Y1002499D03*
X1197499D03*
X2094999Y1192499D03*
X2124999D03*
X2039999Y1227499D03*
Y1257499D03*
X1164999Y1092899D03*
Y1067499D03*
Y1159999D03*
Y1185399D03*
X1482999Y1409499D03*
X1512999D03*
X1432999Y1406999D03*
X1382999D03*
X2039999Y1149999D03*
Y1119999D03*
X1222899Y232499D03*
X1197499D03*
X2094999Y422499D03*
X2124999D03*
X2039999Y457499D03*
Y487499D03*
X1164999Y322899D03*
Y297499D03*
Y389999D03*
Y415399D03*
X1482999Y639499D03*
X1512999D03*
X1432999Y636999D03*
X1382999D03*
X2039999Y379999D03*
Y349999D03*
G54D53*
X1019599Y247499D03*
X1044999D03*
X1070398Y247498D03*
X375398Y3958D03*
X375399Y421199D03*
Y446599D03*
X349999D03*
Y421199D03*
X349998Y3958D03*
X375399Y344999D03*
Y370399D03*
X349999D03*
Y344999D03*
X877799Y766998D03*
X852399D03*
X8016Y766999D03*
X827D03*
X725401Y767D03*
X700001D03*
X7508Y766999D03*
X7762D03*
X573001Y767D03*
X547601D03*
X496801Y767001D03*
X522201D03*
X623801Y767D03*
X598401D03*
X6492Y766999D03*
X6746D03*
X369801Y767D03*
X344401D03*
X293601Y767001D03*
X319001D03*
X420601Y767D03*
X395201D03*
X446Y766999D03*
X4714D03*
X2682D03*
X2175Y742498D03*
Y717098D03*
X217499Y666299D03*
Y691699D03*
X217498Y5901D03*
Y5647D03*
X217499Y615499D03*
Y640899D03*
X217498Y4377D03*
Y4123D03*
X217497Y361501D03*
Y386901D03*
X217498Y4885D03*
Y4631D03*
X217499Y513899D03*
Y539299D03*
X217498Y2345D03*
Y2091D03*
X217497Y158301D03*
Y183701D03*
X217498Y2853D03*
Y2599D03*
X217499Y310699D03*
Y336099D03*
Y132899D03*
X514599Y332499D03*
X565399D03*
X539999D03*
X922498Y132498D03*
Y157898D03*
X922499Y208697D03*
Y183297D03*
X9225Y284897D03*
Y310297D03*
X922499Y259497D03*
Y234097D03*
X9225Y437297D03*
Y462697D03*
X922501Y513496D03*
Y488096D03*
X9225Y386497D03*
Y411897D03*
X922499Y361097D03*
Y335697D03*
X9225Y640497D03*
Y665897D03*
X922501Y716696D03*
Y691296D03*
X9225Y589697D03*
Y615097D03*
X922499Y564297D03*
Y538897D03*
Y742097D03*
X987498Y2087D03*
Y1833D03*
X987497Y157901D03*
X987498Y1325D03*
X962098D03*
X962097Y157901D03*
X962098Y1833D03*
Y2087D03*
X267801Y132501D03*
X293201D03*
X344Y1325D03*
X3186D03*
X420199Y132499D03*
X445599D03*
X3948Y1325D03*
X3694D03*
X572599Y132499D03*
X597999D03*
X648798Y132498D03*
X623398D03*
X521799Y132499D03*
X547199D03*
X4964Y1325D03*
X471D03*
X775799Y132499D03*
X801199D03*
X851998Y132498D03*
X826598D03*
X724999Y132499D03*
X750399D03*
X6996Y1325D03*
X6742D03*
X8774D03*
X1019599Y1017499D03*
X1044999D03*
X1070398Y1017498D03*
X375398Y11658D03*
X375399Y1191199D03*
Y1216599D03*
X349999D03*
Y1191199D03*
X349998Y11658D03*
X375399Y1114999D03*
Y1140399D03*
X349999D03*
Y1114999D03*
X877799Y1536998D03*
X852399D03*
X8016Y1536999D03*
X827D03*
X725401Y1537D03*
X700001D03*
X7508Y1536999D03*
X7762D03*
X573001Y1537D03*
X547601D03*
X496801Y1537001D03*
X522201D03*
X623801Y1537D03*
X598401D03*
X6492Y1536999D03*
X6746D03*
X369801Y1537D03*
X344401D03*
X293601Y1537001D03*
X319001D03*
X420601Y1537D03*
X395201D03*
X446Y1536999D03*
X4714D03*
X2682D03*
X2175Y1512498D03*
Y1487098D03*
X217499Y1436299D03*
Y1461699D03*
X217498Y13601D03*
Y13347D03*
X217499Y1385499D03*
Y1410899D03*
X217498Y12077D03*
Y11823D03*
X217497Y1131501D03*
Y1156901D03*
X217498Y12585D03*
Y12331D03*
X217499Y1283899D03*
Y1309299D03*
X217498Y10045D03*
Y9791D03*
X217497Y928301D03*
Y953701D03*
X217498Y10553D03*
Y10299D03*
X217499Y1080699D03*
Y1106099D03*
Y902899D03*
X514599Y1102499D03*
X565399D03*
X539999D03*
X922498Y902498D03*
Y927898D03*
X922499Y978697D03*
Y953297D03*
X9225Y1054897D03*
Y1080297D03*
X922499Y1029497D03*
Y1004097D03*
X9225Y1207297D03*
Y1232697D03*
X922501Y1283496D03*
Y1258096D03*
X9225Y1156497D03*
Y1181897D03*
X922499Y1131097D03*
Y1105697D03*
X9225Y1410497D03*
Y1435897D03*
X922501Y1486696D03*
Y1461296D03*
X9225Y1359697D03*
Y1385097D03*
X922499Y1334297D03*
Y1308897D03*
Y1512097D03*
X987498Y9787D03*
Y9533D03*
X987497Y927901D03*
X987498Y9025D03*
X962098D03*
X962097Y927901D03*
X962098Y9533D03*
Y9787D03*
X267801Y902501D03*
X293201D03*
X344Y9025D03*
X3186D03*
X420199Y902499D03*
X445599D03*
X3948Y9025D03*
X3694D03*
X572599Y902499D03*
X597999D03*
X648798Y902498D03*
X623398D03*
X521799Y902499D03*
X547199D03*
X4964Y9025D03*
X471D03*
X775799Y902499D03*
X801199D03*
X851998Y902498D03*
X826598D03*
X724999Y902499D03*
X750399D03*
X6996Y9025D03*
X6742D03*
X8774D03*
X2074599Y1017499D03*
X2099999D03*
X2125398Y1017498D03*
X1430398Y11658D03*
X1430399Y1191199D03*
Y1216599D03*
X1404999D03*
Y1191199D03*
X1404998Y11658D03*
X1430399Y1114999D03*
Y1140399D03*
X1404999D03*
Y1114999D03*
X1932799Y1536998D03*
X1907399D03*
X18566Y1536999D03*
X1882D03*
X1780401Y1537D03*
X1755001D03*
X18058Y1536999D03*
X18312D03*
X1628001Y1537D03*
X1602601D03*
X1551801Y1537001D03*
X1577201D03*
X1678801Y1537D03*
X1653401D03*
X17042Y1536999D03*
X17296D03*
X1424801Y1537D03*
X1399401D03*
X1348601Y1537001D03*
X1374001D03*
X1475601Y1537D03*
X1450201D03*
X1501Y1536999D03*
X15264D03*
X13232D03*
X12725Y1512498D03*
Y1487098D03*
X1272499Y1436299D03*
Y1461699D03*
X1272498Y13601D03*
Y13347D03*
X1272499Y1385499D03*
Y1410899D03*
X1272498Y12077D03*
Y11823D03*
X1272497Y1131501D03*
Y1156901D03*
X1272498Y12585D03*
Y12331D03*
X1272499Y1283899D03*
Y1309299D03*
X1272498Y10045D03*
Y9791D03*
X1272497Y928301D03*
Y953701D03*
X1272498Y10553D03*
Y10299D03*
X1272499Y1080699D03*
Y1106099D03*
Y902899D03*
X1569599Y1102499D03*
X1620399D03*
X1594999D03*
X1977498Y902498D03*
Y927898D03*
X1977499Y978697D03*
Y953297D03*
X19775Y1054897D03*
Y1080297D03*
X1977499Y1029497D03*
Y1004097D03*
X19775Y1207297D03*
Y1232697D03*
X1977501Y1283496D03*
Y1258096D03*
X19775Y1156497D03*
Y1181897D03*
X1977499Y1131097D03*
Y1105697D03*
X19775Y1410497D03*
Y1435897D03*
X1977501Y1486696D03*
Y1461296D03*
X19775Y1359697D03*
Y1385097D03*
X1977499Y1334297D03*
Y1308897D03*
Y1512097D03*
X2042498Y9787D03*
Y9533D03*
X2042497Y927901D03*
X2042498Y9025D03*
X2017098D03*
X2017097Y927901D03*
X2017098Y9533D03*
Y9787D03*
X1322801Y902501D03*
X1348201D03*
X1399Y9025D03*
X13736D03*
X1475199Y902499D03*
X1500599D03*
X14498Y9025D03*
X14244D03*
X1627599Y902499D03*
X1652999D03*
X1703798Y902498D03*
X1678398D03*
X1576799Y902499D03*
X1602199D03*
X15514Y9025D03*
X1526D03*
X1830799Y902499D03*
X1856199D03*
X1906998Y902498D03*
X1881598D03*
X1779999Y902499D03*
X1805399D03*
X17546Y9025D03*
X17292D03*
X19324D03*
X2074599Y247499D03*
X2099999D03*
X2125398Y247498D03*
X1430398Y3958D03*
X1430399Y421199D03*
Y446599D03*
X1404999D03*
Y421199D03*
X1404998Y3958D03*
X1430399Y344999D03*
Y370399D03*
X1404999D03*
Y344999D03*
X1932799Y766998D03*
X1907399D03*
X18566Y766999D03*
X1882D03*
X1780401Y767D03*
X1755001D03*
X18058Y766999D03*
X18312D03*
X1628001Y767D03*
X1602601D03*
X1551801Y767001D03*
X1577201D03*
X1678801Y767D03*
X1653401D03*
X17042Y766999D03*
X17296D03*
X1424801Y767D03*
X1399401D03*
X1348601Y767001D03*
X1374001D03*
X1475601Y767D03*
X1450201D03*
X1501Y766999D03*
X15264D03*
X13232D03*
X12725Y742498D03*
Y717098D03*
X1272499Y666299D03*
Y691699D03*
X1272498Y5901D03*
Y5647D03*
X1272499Y615499D03*
Y640899D03*
X1272498Y4377D03*
Y4123D03*
X1272497Y361501D03*
Y386901D03*
X1272498Y4885D03*
Y4631D03*
X1272499Y513899D03*
Y539299D03*
X1272498Y2345D03*
Y2091D03*
X1272497Y158301D03*
Y183701D03*
X1272498Y2853D03*
Y2599D03*
X1272499Y310699D03*
Y336099D03*
Y132899D03*
X1569599Y332499D03*
X1620399D03*
X1594999D03*
X1977498Y132498D03*
Y157898D03*
X1977499Y208697D03*
Y183297D03*
X19775Y284897D03*
Y310297D03*
X1977499Y259497D03*
Y234097D03*
X19775Y437297D03*
Y462697D03*
X1977501Y513496D03*
Y488096D03*
X19775Y386497D03*
Y411897D03*
X1977499Y361097D03*
Y335697D03*
X19775Y640497D03*
Y665897D03*
X1977501Y716696D03*
Y691296D03*
X19775Y589697D03*
Y615097D03*
X1977499Y564297D03*
Y538897D03*
Y742097D03*
X2042498Y2087D03*
Y1833D03*
X2042497Y157901D03*
X2042498Y1325D03*
X2017098D03*
X2017097Y157901D03*
X2017098Y1833D03*
Y2087D03*
X1322801Y132501D03*
X1348201D03*
X1399Y1325D03*
X13736D03*
X1475199Y132499D03*
X1500599D03*
X14498Y1325D03*
X14244D03*
X1627599Y132499D03*
X1652999D03*
X1703798Y132498D03*
X1678398D03*
X1576799Y132499D03*
X1602199D03*
X15514Y1325D03*
X1526D03*
X1830799Y132499D03*
X1856199D03*
X1906998Y132498D03*
X1881598D03*
X1779999Y132499D03*
X1805399D03*
X17546Y1325D03*
X17292D03*
X19324D03*
G54D54*
X698999Y287999D03*
X760999Y282999D03*
X763999Y330999D03*
X708999Y280999D03*
X745999Y278999D03*
X886108Y265108D03*
X817999Y503999D03*
X797999Y482999D03*
X998999Y519999D03*
X659999Y350999D03*
X706999Y317999D03*
X636999Y521999D03*
X154999Y569999D03*
X1059999Y545999D03*
X594999Y619999D03*
X593999Y661999D03*
X575999Y642999D03*
X505999Y598999D03*
X178999Y628999D03*
X111999Y686999D03*
X145999Y387999D03*
X135999Y527999D03*
X109999Y496999D03*
X154999Y498999D03*
X141999Y331999D03*
X399999Y260999D03*
X418999Y303999D03*
X414999Y236999D03*
X470999Y245999D03*
X440999Y246999D03*
X514999Y449999D03*
Y439999D03*
X508999Y431999D03*
X520999Y462999D03*
X468998Y449998D03*
X460999Y447999D03*
X448999Y444999D03*
X446999Y434999D03*
Y423999D03*
X420999Y375999D03*
X466999Y406999D03*
X449999Y412999D03*
X396999D03*
X442999Y381999D03*
X512999Y395999D03*
Y410999D03*
X533999Y411999D03*
X450999Y334999D03*
Y288999D03*
X436999Y281999D03*
X497999Y355999D03*
X460999Y220999D03*
X508999D03*
X556999Y219999D03*
X637999Y220999D03*
X782999D03*
Y271999D03*
X893999D03*
X191999Y466999D03*
X149999Y434999D03*
Y678999D03*
Y669999D03*
X102196Y522802D03*
X10856Y516438D03*
X546999Y390999D03*
X503999Y402999D03*
X467999Y302999D03*
X561999Y352999D03*
X548999Y400999D03*
X558999D03*
X567999Y398999D03*
X788999Y437999D03*
X569999Y423999D03*
X623999Y446999D03*
X583999Y421999D03*
X595999Y417999D03*
X603999Y409999D03*
X611999Y404999D03*
X623999Y403999D03*
X895999Y231999D03*
X592999Y506999D03*
X581999Y508D03*
X588999Y545999D03*
X583999Y552999D03*
X413999Y563999D03*
X485999D03*
X409999Y590999D03*
X494999Y576999D03*
X621999Y506999D03*
X529999Y388999D03*
X607999Y506999D03*
X574999Y390999D03*
X701999Y362999D03*
X747999Y408999D03*
X698999Y1057999D03*
X760999Y1052999D03*
X763999Y1100999D03*
X708999Y1050999D03*
X745999Y1048999D03*
X886108Y1035108D03*
X817999Y1273999D03*
X797999Y1252999D03*
X998999Y1289999D03*
X659999Y1120999D03*
X706999Y1087999D03*
X636999Y1291999D03*
X154999Y1339999D03*
X1059999Y1315999D03*
X594999Y1389999D03*
X593999Y1431999D03*
X575999Y1412999D03*
X505999Y1368999D03*
X178999Y1398999D03*
X111999Y1456999D03*
X145999Y1157999D03*
X135999Y1297999D03*
X109999Y1266999D03*
X154999Y1268999D03*
X141999Y1101999D03*
X399999Y1030999D03*
X418999Y1073999D03*
X414999Y1006999D03*
X470999Y1016D03*
X440999Y1016999D03*
X514999Y1219999D03*
Y1209999D03*
X508999Y1201999D03*
X520999Y1232999D03*
X468998Y1219998D03*
X460999Y1217999D03*
X448999Y1214999D03*
X446999Y1204999D03*
Y1193999D03*
X420999Y1145999D03*
X466999Y1176999D03*
X449999Y1182999D03*
X396999D03*
X442999Y1151999D03*
X512999Y1165999D03*
Y1180999D03*
X533999Y1181999D03*
X450999Y1104999D03*
Y1058999D03*
X436999Y1051999D03*
X497999Y1125999D03*
X460999Y990999D03*
X508999D03*
X556999Y989999D03*
X637999Y990999D03*
X782999D03*
Y1041999D03*
X893999D03*
X191999Y1236999D03*
X149999Y1204999D03*
Y1448999D03*
Y1439999D03*
X102196Y1292802D03*
X10856Y1286438D03*
X546999Y1160999D03*
X503999Y1172999D03*
X467999Y1072999D03*
X561999Y1122999D03*
X548999Y1170999D03*
X558999D03*
X567999Y1168999D03*
X788999Y1207999D03*
X569999Y1193999D03*
X623999Y1216999D03*
X583999Y1191999D03*
X595999Y1187999D03*
X603999Y1179999D03*
X611999Y1174999D03*
X623999Y1173999D03*
X895999Y1001999D03*
X592999Y1276999D03*
X581999Y1277999D03*
X588999Y1315999D03*
X583999Y1322999D03*
X413999Y1333999D03*
X485999D03*
X409999Y1360999D03*
X494999Y1346999D03*
X621999Y1276999D03*
X529999Y1158999D03*
X607999Y1276999D03*
X574999Y1160999D03*
X701999Y1132999D03*
X747999Y1178999D03*
X1753999Y1057999D03*
X1815999Y1052999D03*
X1818999Y1100999D03*
X1763999Y1050999D03*
X1800999Y1048999D03*
X1941108Y1035108D03*
X1872999Y1273999D03*
X1852999Y1252999D03*
X2053999Y1289999D03*
X1714999Y1120999D03*
X1761999Y1087999D03*
X1691999Y1291999D03*
X1209999Y1339999D03*
X2114999Y1315999D03*
X1649999Y1389999D03*
X1648999Y1431999D03*
X1630999Y1412999D03*
X1560999Y1368999D03*
X1233999Y1398999D03*
X1166999Y1456999D03*
X1200999Y1157999D03*
X1190999Y1297999D03*
X1164999Y1266999D03*
X1209999Y1268999D03*
X1196999Y1101999D03*
X1454999Y1030999D03*
X1473999Y1073999D03*
X1469999Y1006999D03*
X1525999Y1016D03*
X1495999Y1016999D03*
X1569999Y1219999D03*
Y1209999D03*
X1563999Y1201999D03*
X1575999Y1232999D03*
X1523998Y1219998D03*
X1515999Y1217999D03*
X1503999Y1214999D03*
X1501999Y1204999D03*
Y1193999D03*
X1475999Y1145999D03*
X1521999Y1176999D03*
X1504999Y1182999D03*
X1451999D03*
X1497999Y1151999D03*
X1567999Y1165999D03*
Y1180999D03*
X1588999Y1181999D03*
X1505999Y1104999D03*
Y1058999D03*
X1491999Y1051999D03*
X1552999Y1125999D03*
X1515999Y990999D03*
X1563999D03*
X1611999Y989999D03*
X1692999Y990999D03*
X1837999D03*
Y1041999D03*
X1948999D03*
X1246999Y1236999D03*
X1204999Y1204999D03*
Y1448999D03*
Y1439999D03*
X1157196Y1292802D03*
X116356Y1286438D03*
X1601999Y1160999D03*
X1558999Y1172999D03*
X1522999Y1072999D03*
X1616999Y1122999D03*
X1603999Y1170999D03*
X1613999D03*
X1622999Y1168999D03*
X1843999Y1207999D03*
X1624999Y1193999D03*
X1678999Y1216999D03*
X1638999Y1191999D03*
X1651Y1187999D03*
X1658999Y1179999D03*
X1666999Y1174999D03*
X1678999Y1173999D03*
X1950999Y1001999D03*
X1647999Y1276999D03*
X1636999Y1277999D03*
X1643999Y1315999D03*
X1638999Y1322999D03*
X1468999Y1333999D03*
X1540999D03*
X1464999Y1360999D03*
X1549999Y1346999D03*
X1676999Y1276999D03*
X1584999Y1158999D03*
X1662999Y1276999D03*
X1629999Y1160999D03*
X1756999Y1132999D03*
X1802999Y1178999D03*
X1753999Y287999D03*
X1815999Y282999D03*
X1818999Y330999D03*
X1763999Y280999D03*
X1800999Y278999D03*
X1941108Y265108D03*
X1872999Y503999D03*
X1852999Y482999D03*
X2053999Y519999D03*
X1714999Y350999D03*
X1761999Y317999D03*
X1691999Y521999D03*
X1209999Y569999D03*
X2114999Y545999D03*
X1649999Y619999D03*
X1648999Y661999D03*
X1630999Y642999D03*
X1560999Y598999D03*
X1233999Y628999D03*
X1166999Y686999D03*
X1200999Y387999D03*
X1190999Y527999D03*
X1164999Y496999D03*
X1209999Y498999D03*
X1196999Y331999D03*
X1454999Y260999D03*
X1473999Y303999D03*
X1469999Y236999D03*
X1525999Y245999D03*
X1495999Y246999D03*
X1569999Y449999D03*
Y439999D03*
X1563999Y431999D03*
X1575999Y462999D03*
X1523998Y449998D03*
X1515999Y447999D03*
X1503999Y444999D03*
X1501999Y434999D03*
Y423999D03*
X1475999Y375999D03*
X1521999Y406999D03*
X1504999Y412999D03*
X1451999D03*
X1497999Y381999D03*
X1567999Y395999D03*
Y410999D03*
X1588999Y411999D03*
X1505999Y334999D03*
Y288999D03*
X1491999Y281999D03*
X1552999Y355999D03*
X1515999Y220999D03*
X1563999D03*
X1611999Y219999D03*
X1692999Y220999D03*
X1837999D03*
Y271999D03*
X1948999D03*
X1246999Y466999D03*
X1204999Y434999D03*
Y678999D03*
Y669999D03*
X1157196Y522802D03*
X116356Y516438D03*
X1601999Y390999D03*
X1558999Y402999D03*
X1522999Y302999D03*
X1616999Y352999D03*
X1603999Y400999D03*
X1613999D03*
X1622999Y398999D03*
X1843999Y437999D03*
X1624999Y423999D03*
X1678999Y446999D03*
X1638999Y421999D03*
X1651Y417999D03*
X1658999Y409999D03*
X1666999Y404999D03*
X1678999Y403999D03*
X1950999Y231999D03*
X1647999Y506999D03*
X1636999Y508D03*
X1643999Y545999D03*
X1638999Y552999D03*
X1468999Y563999D03*
X1540999D03*
X1464999Y590999D03*
X1549999Y576999D03*
X1676999Y506999D03*
X1584999Y388999D03*
X1662999Y506999D03*
X1629999Y390999D03*
X1756999Y362999D03*
X1802999Y408999D03*
M02*