M48
;Layer_Color=9474304
;FILE_FORMAT=4:4
METRIC,LZ
;TYPE=PLATED
T1F00S00C0.4000
T2F00S00C0.8000
T3F00S00C1.0000
T4F00S00C1.5000
T5F00S00C1.7000
T6F00S00C4.5000
%
T01
X00708814Y004975
X007575Y005475
X0084Y0068
T02
X0007Y0058
X001208Y005546
X00197Y0058
T03
X0075525Y00068859
Y00113859
X0082025
X0082025Y00068859
X0014Y00249
Y00445
X001343Y007325
X001597
X001851
X002105
X002359
X002613
X002867
X003121
X003375
X003629
X003883
X004137
X004391
X004645
X004899
X005153
T04
X007775Y006025
X009009
T05
X00995Y0043
Y0048
Y0053
T06
X0099155Y0017624
X0005302
X0005302Y007325
X0099155Y007325
M30
