%FSTAX44Y44*%
%MOMM*%
%SFA1B1*%

%IPPOS*%
%AMD24*
4,1,8,-0.500380,-1.000760,0.500380,-1.000760,1.000760,-0.500380,1.000760,0.500380,0.500380,1.000760,-0.500380,1.000760,-1.000760,0.500380,-1.000760,-0.500380,-0.500380,-1.000760,0.0*
1,1,1.000000,-0.500380,-0.500380*
1,1,1.000000,0.500380,-0.500380*
1,1,1.000000,0.500380,0.500380*
1,1,1.000000,-0.500380,0.500380*
%
%ADD22C,0.299999*%
%ADD23C,0.499999*%
G04~CAMADD=24~8~0.0~0.0~787.4~787.4~196.9~0.0~15~0.0~0.0~0.0~0.0~0~0.0~0.0~0.0~0.0~0~0.0~0.0~0.0~180.0~788.0~788.0*
%ADD24D24*%
%ADD25C,2.499995*%
%ADD26C,1.599997*%
%ADD27C,1.999996*%
%ADD28C,0.599999*%
%LNpcbat2560ver1-1*%
%LPD*%
G36*
X00194833Y00712084D02*
X0019507Y00710856D01*
X00187485Y00707714*
X00184082Y00699499*
X001982*
Y00696999*
X002007*
Y00682881*
X00208915Y00686284*
X00210817Y00690876*
X00212067*
X00213652Y00687051*
X00217648Y00685395*
Y00684397*
X00219392Y00680187*
X0033429Y00565289*
X00338499Y00563546*
X00348559*
X0034958Y0056108*
X00357999Y00557593*
X00366418Y0056108*
X00369905Y00569499*
X00366418Y00577918*
X00357999Y00581406*
X0034958Y00577918*
X00348559Y00575452*
X00340965*
X00231387Y0068503*
X00231631Y00686256*
X00233551Y00687051*
X00235676Y00692182*
X00236926*
X00239052Y00687051*
X00249001Y0068293*
X00258951Y00687051*
X00261076Y0069218*
X00262326*
X00264451Y0068705*
X00274401Y00682929*
X0028435Y0068705*
X00286476Y00692181*
X00287726*
X00289851Y0068705*
X00299801Y00682929*
X0030975Y0068705*
X00311876Y00692181*
X00313126*
X00315251Y0068705*
X00325201Y00682929*
X0033515Y0068705*
X00337276Y00692181*
X00338526*
X00340651Y0068705*
X00350601Y00682929*
X0036055Y0068705*
X00362675Y00692179*
X00363925*
X0036605Y00687049*
X00376Y00682928*
X0038595Y00687049*
X00388075Y0069218*
X00389325*
X0039145Y00687049*
X004014Y00682928*
X0041135Y00687049*
X00413476Y00692183*
X00414726*
X00416852Y00687051*
X00426801Y0068293*
X0042696Y00682995*
X00427999Y00682301*
Y0053387*
X00282016*
X0026287Y00553017*
Y0055711*
X00266418Y0055858*
X00269905Y00566999*
X00266418Y00575418*
X00257999Y00578905*
X0024958Y00575418*
X00246093Y00566999*
X0024958Y0055858*
X00253128Y0055711*
Y00550999*
X00254555Y00547555*
X00268956Y00533154*
X00268478Y00531999*
X00161999*
Y00711565*
X00162888Y00712444*
X00194833Y00712084*
G37*
G36*
X00733456Y00287653D02*
X00736901Y00286227D01*
X00840445*
X00842549Y00281148*
X0084768Y00279022*
Y00277772*
X00842549Y00275647*
X00840445Y00270568*
X00821697*
X00818253Y00269141*
X00797981Y0024887*
X00722017*
X0072087Y00250017*
Y00298607*
X00722025Y00299085*
X00733456Y00287653*
G37*
G36*
X00667126Y00257735D02*
X00673249Y00255199D01*
X00683249*
X00687897Y00257124*
X00689128Y00256281*
Y00218719*
X00686407Y00217591*
X00684505Y00212999*
X00686144Y00209042*
X00685085Y00208332*
X0068298Y00210437*
X00681356Y00214356*
X00678499Y0021554*
Y00208999*
X00673499*
Y0021554*
X00670641Y00214356*
X00669575Y00211781*
X00668349Y00211538*
X0066487Y00215017*
Y00259978*
X00666096Y00260223*
X00667126Y00257735*
G37*
G36*
X00509128Y00566676D02*
Y00486919D01*
X00507505Y00482999*
X00509407Y00478407*
X00512902Y00476959*
X00512505Y00475999*
X00514407Y00471407*
X00518893Y00469549*
X00519462Y0046835*
X00508555Y00457443*
X00507128Y00453999*
Y00441919*
X00505505Y00437999*
X0050637Y00435909*
X00505676Y0043487*
X00462999*
X00459555Y00433443*
X00447555Y00421443*
X00446128Y00417999*
Y00396919*
X00444505Y00392999*
X00446128Y00389079*
Y00387151*
X00445089Y00386456*
X00444999Y00386493*
X00441079Y0038487*
X00437017*
X0040687Y00415017*
Y00439999*
X00405443Y00443443*
X00361443Y00487443*
X00360393Y00487878*
X00360641Y00489128*
X0041044*
X00410642Y00488642*
X00413499Y00487458*
Y00493999*
X00415999*
Y00496499*
X0042254*
X00421357Y00499356*
X00417683Y00500878*
X00417932Y00502128*
X00421079*
X00424999Y00500505*
X00429591Y00502407*
X00431493Y00506999*
X00429591Y00511591*
X00424999Y00513493*
X00421079Y0051187*
X00349017*
X0034487Y00516016*
Y00517079*
X00346493Y00520999*
X00345628Y00523089*
X00346322Y00524129*
X00432079*
X00435999Y00522505*
X00439919Y00524129*
X00461999*
X00465443Y00525555*
X00506672Y00566783*
X00508089Y0056737*
X00509128Y00566676*
G37*
G36*
X00332555Y00368555D02*
X00350555Y00350555D01*
X00353999Y00349128*
X00371827*
X00371834Y0034912*
X00371243Y0034787*
X00330919*
X00326999Y00349493*
X00322407Y00347591*
X00320505Y00342999*
X00322407Y00338407*
X00326999Y00336505*
X00330919Y00338128*
X00374472*
X0037499Y00336878*
X00350326Y00312215*
X00346407Y00310591*
X00344505Y00305999*
X00346407Y00301407*
X00350999Y00299505*
X00355591Y00301407*
X00357215Y00305326*
X0036609Y00314202*
X00367129Y00313507*
X00366505Y00311999*
X00368407Y00307407*
X00372999Y00305505*
X00376919Y00307128*
X00409999*
X00410807Y00307463*
X00411515Y00306403*
X00394555Y00289443*
X00393128Y00285999*
Y00238558*
X00392641Y00238357*
X00391458Y00235499*
X00397999*
Y00230499*
X00391458*
X00392641Y00227641*
X00395924Y00226282*
X00396168Y00225056*
X00388736Y00217624*
X00388295Y00217667*
X00387493Y00218999*
X0038587Y00222919*
Y00261079*
X00387493Y00264999*
X00385591Y00269591*
X00381Y00271493*
X00376407Y00269591*
X00374505Y00264999*
X00376128Y00261079*
Y00222919*
X00374505Y00218999*
X00374956Y00217909*
X00374262Y0021687*
X00370919*
X00366999Y00218493*
X00362407Y00216591*
X00360505Y00211999*
X00362407Y00207407*
X00366999Y00205505*
X00370919Y00207128*
X00389999*
X00393443Y00208555*
X00411878Y0022699*
X00413128Y00226472*
Y00070901*
X00414094Y00068569*
X00413981Y00068399*
X0041257Y00068538*
X0041095Y0007245*
X00401Y00076571*
X0039105Y0007245*
X00388924Y00067317*
X00387674*
X00385549Y00072449*
X00375599Y0007657*
X00365649Y00072449*
X00364065Y00068625*
X00362815*
X00360914Y00073214*
X0035507Y00075635*
Y00095781*
X00376417Y00117128*
X00387999*
X00391443Y00118555*
X00404443Y00131555*
X0040587Y00134999*
Y0017044*
X00406357Y00170642*
X0040754Y00173499*
X00400999*
Y00175999*
X00398499*
Y0018254*
X00395642Y00181356*
X0039544Y0018087*
X00376972*
X00376356Y00182357*
X00373499Y0018354*
Y00176999*
Y00170458*
X00375118Y00171128*
X0039544*
X00395642Y00170642*
X00396128Y0017044*
Y00156687*
X00394878Y00155886*
X00390999Y00157493*
X00387079Y0015587*
X00333999*
X00330555Y00154443*
X00295956Y00119844*
X00294529Y001164*
Y00074553*
X0028945Y0007245*
X00287325Y00067319*
X00286075*
X0028395Y0007245*
X00278871Y00074553*
Y00148982*
X0032309Y00193202*
X00324129Y00192507*
X00323505Y00190999*
X00325128Y00187079*
Y00181999*
X00326555Y00178555*
X00338783Y00166326*
X00340407Y00162407*
X00344999Y00160505*
X00349591Y00162407*
X00351493Y00166999*
X00349591Y00171591*
X00345671Y00173215*
X0033487Y00184017*
Y00187079*
X00336493Y00190999*
X00334591Y00195591*
X00329999Y00197493*
X00328491Y00196869*
X00327796Y00197908*
X00352443Y00222555*
X0035387Y00225999*
Y00230079*
X00355493Y00233999*
X00353591Y00238591*
X00348999Y00240493*
X00344407Y00238591*
X00342505Y00233999*
X00344128Y00230079*
Y00228017*
X00270556Y00154444*
X00269129Y00151*
Y00074553*
X0026405Y0007245*
X00261925Y00067319*
X00260675*
X0025855Y0007245*
X002486Y00076571*
X0023865Y0007245*
X00236525Y0006732*
X00235275*
X0023315Y0007245*
X00223201Y00076572*
X00213251Y0007245*
X00211126Y0006732*
X00209876*
X0020775Y0007245*
X00197801Y00076572*
X00187851Y0007245*
X0018373Y00062501*
X00187851Y00052551*
X00191052Y00051225*
X00190808Y00049999*
X00180887*
X0017787Y00053017*
Y00088981*
X00283443Y00194555*
X0028487Y00197999*
Y00262945*
X00289949Y00265049*
X00292074Y0027018*
X00293324*
X00295449Y00265049*
X00305399Y00260928*
X00315349Y00265049*
X0031947Y00274999*
X00315349Y00284949*
X00310218Y00287074*
Y00288324*
X00315349Y00290449*
X0031947Y00300399*
X00315349Y00310349*
X00310217Y00312475*
Y00313725*
X00315348Y0031585*
X00319469Y003258*
X00315348Y0033575*
X00310219Y00337874*
Y00339124*
X00315349Y00341249*
X00317505Y00346456*
X00320643Y00347755*
X00329443Y00356555*
X0033087Y00359999*
Y00369357*
X0033212Y00369605*
X00332555Y00368555*
G37*
G36*
X00519847Y00347172D02*
X00521407Y00343408D01*
X00525999Y00341505*
X0052706Y00341944*
X00527944Y0034106*
X00527505Y00339999*
X00529407Y00335407*
X00533999Y00333505*
X00535813Y00334256*
X00537407Y00330407*
X00541999Y00328505*
X00546591Y00330407*
X00547167Y00331797*
X00548417*
X00549407Y00329407*
X00553999Y00327505*
X00557919Y00329128*
X00619981*
X00643128Y00305981*
Y00254218*
X00641878Y00253555*
X00639499Y0025454*
Y00247999*
X00634499*
Y0025454*
X00633079Y00253952*
X00621465*
X00596918Y00278499*
X00583458*
X00584046Y00277079*
Y00276999*
X00585789Y0027279*
X00614789Y00243789*
X00618999Y00242046*
X00633046*
Y00223942*
X00632006Y00223248*
X00629672Y00224215*
X00567008Y00286878*
X00567526Y00288128*
X00585715*
X00585959Y00286902*
X00584641Y00286356*
X00583458Y00283499*
X0059654*
X00595357Y00286356*
X00594039Y00286902*
X00594283Y00288128*
X00628079*
X00631999Y00286505*
X00636591Y00288407*
X00638493Y00292999*
X00636591Y00297591*
X00631999Y00299493*
X00628079Y0029787*
X00561016*
X00514519Y00344367*
X00514812Y00345842*
X00518591Y00347407*
X00519847Y00347172*
G37*
G36*
X00158752Y00535492D02*
Y00531999D01*
X00159703Y00529703*
X00161999Y00528752*
X00268478*
X00269074Y00528999*
X0026972*
X00270177Y00529456*
X00270774Y00529703*
X00272176Y00529934*
X00276555Y00525555*
X00279999Y00524129*
X00333676*
X0033437Y00523089*
X00333505Y00520999*
X00335128Y00517079*
Y00513999*
X00336555Y00510555*
X00343555Y00503555*
X00346999Y00502128*
X00414066*
X00414315Y00500878*
X00410642Y00499356*
X0041044Y0049887*
X00349558*
X00349356Y00499356*
X00346499Y0050054*
Y00493999*
X00343999*
Y00491499*
X00337458*
X00338116Y00489909*
X00337422Y0048887*
X00176999*
X00173555Y00487443*
X00160561Y0047445*
X00159336Y00474694*
X00157449Y00479249*
X00152317Y00481375*
Y00482625*
X00157448Y0048475*
X00161569Y004947*
X00157448Y0050465*
X00152317Y00506775*
Y00508025*
X00157448Y0051015*
X00161569Y005201*
X00157448Y0053005*
X00152319Y00532174*
Y00533424*
X00157449Y00535549*
X00157526Y00535735*
X00158752Y00535492*
G37*
G36*
X00275532Y00389902D02*
X00269284Y00387314D01*
X00265881Y00379099*
X00279999*
Y00374099*
X00265881*
X00269284Y00365884*
X00272567Y00364524*
Y00363274*
X00269284Y00361914*
X00265881Y00353699*
X00279999*
Y00348699*
X00265881*
X00269284Y00340484*
X00272566Y00339125*
Y00337875*
X00269283Y00336515*
X0026588Y003283*
X00279998*
Y003233*
X0026588*
X00269283Y00315085*
X00272567Y00313724*
Y00312474*
X00269284Y00311114*
X00265881Y00302899*
X00279999*
Y00297899*
X00265881*
X00269284Y00289684*
X00273873Y00287783*
Y00286533*
X00270049Y00284949*
X00265928Y00274999*
X00270049Y00265049*
X00275128Y00262945*
Y00223999*
Y00200017*
X00169555Y00094443*
X00168128Y00090999*
Y00053017*
X00165111Y00049999*
X0015353*
X00153286Y00051225*
X00157449Y00052949*
X0016157Y00062899*
X00157449Y00072849*
X00152315Y00074975*
Y00076225*
X00157447Y00078351*
X00161568Y00088301*
X00157447Y0009825*
X00152316Y00100376*
Y00101626*
X00157447Y00103751*
X00161568Y00113701*
X00157447Y0012365*
X00152318Y00125775*
Y00127025*
X00157448Y0012915*
X00159552Y00134229*
X001761*
X00179544Y00135656*
X00252443Y00208555*
X0025387Y00211999*
Y00223999*
Y00377981*
X00267016Y00391128*
X00275288*
X00275532Y00389902*
G37*
G36*
X00622783Y00217326D02*
X00624407Y00213407D01*
X00628999Y00211505*
X00630668Y00212196*
X00631552Y00211312*
X00631422Y00210999*
X00633641Y00205642*
X00636499Y00204458*
Y00210999*
X00641499*
Y00204458*
X00642089Y00204702*
X00643128Y00204008*
Y00201999*
X00644555Y00198555*
X00674555Y00168555*
X00677999Y00167128*
X00820311*
X00821112Y00165878*
X00819505Y00161999*
X00821128Y00158079*
Y00122999*
X00822555Y00119555*
X00832257Y00109853*
X00835701Y00108427*
X00840445*
X00842549Y00103348*
X00847679Y00101223*
Y00099973*
X00842548Y00097848*
X00838427Y00087898*
X00842548Y00077948*
X00847679Y00075823*
Y00074573*
X00842548Y00072448*
X00838427Y00062498*
X00842548Y00052548*
X00845743Y00051225*
X008455Y00049999*
X00814394*
X00814151Y00051225*
X00817349Y0005255*
X00821471Y000625*
X00817349Y0007245*
X008074Y00076571*
X0079745Y0007245*
X00795324Y00067316*
X00794074*
X00791948Y00072448*
X00781998Y00076569*
X00772048Y00072448*
X00769923Y00067317*
X00768673*
X00766548Y00072448*
X00756598Y00076569*
X00746648Y00072448*
X00744524Y00067319*
X00743274*
X00741149Y00072449*
X00731199Y0007657*
X00721249Y00072449*
X00719124Y00067318*
X00717874*
X00715749Y00072449*
X00705799Y0007657*
X00695849Y00072449*
X00693724Y00067318*
X00692474*
X00690349Y00072449*
X00680399Y0007657*
X00670449Y00072449*
X00668324Y00067318*
X00667074*
X00664949Y00072449*
X00654999Y0007657*
X00645049Y00072449*
X00642925Y00067319*
X00641675*
X0063955Y0007245*
X006296Y00076571*
X0061965Y0007245*
X00617525Y00067319*
X00616275*
X0061415Y0007245*
X006042Y00076571*
X0059425Y0007245*
X00592124Y00067316*
X00590874*
X00588748Y00072448*
X00578798Y00076569*
X00568848Y00072448*
X00566723Y00067317*
X00565473*
X00563348Y00072448*
X00558269Y00074552*
Y00280073*
X00559519Y00280591*
X00622783Y00217326*
G37*
G36*
X00134999Y00699999D02*
X00158752D01*
Y00682508*
X00157526Y00682264*
X0015745Y00682448*
X001475Y00686569*
X0013755Y00682448*
X00133429Y00672498*
X0013755Y00662548*
X00142681Y00660423*
Y00659173*
X0013755Y00657048*
X00133429Y00647098*
X0013755Y00637148*
X0014268Y00635024*
Y00633774*
X00137549Y00631649*
X00134999Y00625492*
X00133428Y00621699*
X00134999Y00617906*
X00137549Y00611749*
X0014268Y00609624*
Y00608374*
X00137549Y00606249*
X00133428Y00596299*
X00137549Y00586349*
X0014268Y00584224*
Y00582974*
X00137549Y00580849*
X00134999Y00574692*
X00133428Y00570899*
X00134999Y00567106*
X00137549Y00560949*
X0014268Y00558824*
Y00557574*
X00137549Y00555449*
X00133428Y00545499*
X00137549Y00535549*
X00142679Y00533425*
Y00532175*
X00137548Y0053005*
X00133427Y005201*
X00137548Y0051015*
X00142679Y00508025*
Y00506775*
X00137548Y0050465*
X00134999Y00498495*
X00134172Y00496499*
X00133427Y004947*
X00137548Y0048475*
X00142681Y00482624*
Y00481374*
X00137549Y00479249*
X00134999Y00473092*
X001346Y00472128*
X00133428Y00469299*
X00137549Y00459349*
X0014268Y00457224*
Y00455974*
X00137549Y00453849*
X00134999Y00447692*
X00134564Y00446641*
X00133428Y00443899*
X00137549Y00433949*
X00141372Y00432366*
Y00431116*
X00136783Y00429215*
X00134999Y00424908*
X0013338Y00421*
X00147498*
Y00416*
X0013338*
X00133594Y00415483*
X00122486Y00404374*
X00121999Y00404576*
X00116642Y00402356*
X00115458Y00399499*
X00121999*
Y00396999*
X00124499*
Y00390458*
X00127357Y00391641*
X00129576Y00396999*
X00129374Y00397486*
X00133844Y00401956*
X00138826Y00406938*
X00141373Y00405884*
Y00404634*
X00137548Y0040305*
X00134999Y00396895*
X00134007Y00394499*
X00133427Y003931*
X00137548Y0038315*
X00142679Y00381025*
Y00379775*
X00137548Y0037765*
X00135445Y00372571*
X00123317*
X00108999Y00386887*
Y0044387*
X00107572Y00447314*
X00104887Y00449999*
X0008987Y00465017*
Y00496079*
X00091493Y00499999*
X00089591Y00504591*
X00084999Y00506493*
X00080407Y00504591*
X00078505Y00499999*
X00080128Y00496079*
Y00462999*
X00081555Y00459555*
X00099257Y00441852*
Y0038487*
X00100684Y00381426*
X00117854Y00364256*
X00121298Y00362829*
X00134999*
Y00346095*
X00133427Y003423*
X00134999Y00338505*
Y00320698*
X00133426Y00316901*
X00134999Y00313104*
Y00301999*
X00038887*
X0002487Y00316016*
Y00335982*
X00028956Y00340067*
X00030388Y00339857*
X0003158Y0033698*
X00039999Y00333493*
X00048418Y0033698*
X00051905Y00345399*
X00048418Y00353818*
X00039999Y00357305*
X0003158Y00353818*
X0003011Y0035027*
X00027399*
X00023955Y00348843*
X00020025Y00344913*
X0001887Y00345391*
Y00599981*
X00031016Y00612128*
X00038079*
X00041999Y00610505*
X00046591Y00612407*
X00048493Y00616999*
X00046591Y00621591*
X00041999Y00623493*
X00038079Y0062187*
X00028999*
X00025555Y00620443*
X00012154Y00607042*
X00010999Y00607521*
Y00729999*
X00134999*
Y00699999*
G37*
G36*
X006833Y00682881D02*
X00691515Y00686284D01*
X00693416Y00690873*
X00694666*
X0069625Y00687049*
X00701329Y00684945*
Y00475798*
X00702756Y00472354*
X00741783Y00433326*
X00742437Y00431748*
X00741377Y00431039*
X00716208Y00456208*
X00711999Y00457952*
X00570919*
X00569499Y0045854*
Y00451999*
Y00445458*
X00570919Y00446046*
X00709533*
X00817892Y00337687*
X00822101Y00335943*
X00839812*
X00841785Y00331181*
X00846374Y0032928*
Y0032803*
X0084255Y00326446*
X00838429Y00316497*
X0084255Y00306547*
X00847679Y00304422*
Y00303172*
X00842549Y00301047*
X00840445Y00295968*
X00738918*
X00734434Y00300452*
X00735129Y00301491*
X00738249Y00300199*
X00748249*
X00754371Y00302735*
X00756908Y00308858*
Y00318858*
X00754371Y00324981*
X00748249Y00327517*
X00738249*
X00732126Y00324981*
X0072959Y00318858*
Y00308858*
X00730882Y00305738*
X00729842Y00305044*
X0072787Y00307016*
Y00348999*
X00726443Y00352443*
X00718537Y0036035*
X00719105Y00361549*
X00723591Y00363407*
X00725493Y00367999*
X0072387Y00371919*
Y00401981*
X00728671Y00406783*
X00732591Y00408407*
X00734493Y00412999*
X00732591Y00417591*
X00727999Y00419493*
X00723407Y00417591*
X00721783Y00413671*
X00715555Y00407443*
X00714128Y00403999*
Y00381391*
X00712973Y00380913*
X00712443Y00381443*
X00708999Y0038287*
X0055887*
Y00434999*
X00558267Y00436453*
X00558493Y00436999*
X00556591Y00441591*
X00551999Y00443493*
X00547407Y00441591*
X00545648Y00437346*
X0054435*
X00542591Y00441591*
X00537999Y00443493*
X00533407Y00441591*
X00531783Y00437672*
X00530648Y00436537*
X00529449Y00437105*
X0052787Y00440919*
Y00446981*
X00658845Y00577956*
X00660271Y00581401*
Y00684946*
X0066535Y0068705*
X00666934Y00690873*
X00668184*
X00670085Y00686284*
X006783Y00682881*
Y00696999*
X006833*
Y00682881*
G37*
G36*
X00974999Y00485999D02*
X01022999D01*
Y00090999*
X00953999Y00021999*
X00869999*
Y00034128*
X00928999*
X00932443Y00035555*
X00953043Y00056155*
X0095447Y00059599*
Y00165445*
X00959549Y00167549*
X00961674Y0017268*
X00962924*
X00965049Y00167549*
X00974999Y00163428*
X00984949Y00167549*
X00987073Y00172679*
X00988323*
X00990448Y00167548*
X01000398Y00163427*
X01010348Y00167548*
X01014469Y00177498*
X01010348Y00187448*
X01000398Y00191569*
X00990448Y00187448*
X00988324Y00182319*
X00987074*
X00984949Y00187449*
X00974999Y0019157*
X00965049Y00187449*
X00962924Y00182318*
X00961674*
X00959549Y00187449*
X00949599Y0019157*
X00939649Y00187449*
X00935528Y00177499*
X00939649Y00167549*
X00944728Y00165445*
Y00061616*
X00933111Y00049999*
X00926981Y0004387*
X00869999*
Y00049999*
X00859497*
X00859253Y00051225*
X00862448Y00052548*
X00866569Y00062498*
X00862448Y00072448*
X00857317Y00074573*
Y00075823*
X00862448Y00077948*
X00866569Y00087898*
X00862448Y00097848*
X00857319Y00099973*
Y00101223*
X00862449Y00103348*
X0086657Y00113297*
X00862449Y00123247*
X00857318Y00125372*
Y00126622*
X00862449Y00128748*
X0086657Y00138697*
X00862449Y00148647*
X00857318Y00150772*
Y00152022*
X00862449Y00154148*
X0086657Y00164097*
X00862449Y00174047*
X00857318Y00176172*
Y00177422*
X00862449Y00179548*
X0086657Y00189497*
X00862449Y00199447*
X00857319Y00201572*
Y00202822*
X0086245Y00204947*
X00866571Y00214897*
X0086245Y00224846*
X00857319Y00226972*
Y00228222*
X0086245Y00230347*
X00866571Y00240297*
X0086245Y00250246*
X00857317Y00252372*
Y00253622*
X00862449Y00255748*
X0086657Y00265697*
X00862449Y00275647*
X00857318Y00277772*
Y00279022*
X00862449Y00281148*
X0086657Y00291097*
X00862449Y00301047*
X00857319Y00303172*
Y00304422*
X0086245Y00306547*
X00866571Y00316497*
X0086245Y00326446*
X00858625Y0032803*
Y0032928*
X00863215Y00331181*
X00865187Y00335943*
X00893635*
X00908097Y00321482*
X00907804Y00320007*
X00905815Y00319183*
X00903046Y00312499*
X00914999*
X00926952*
X00924183Y00319183*
X00920952Y00320522*
Y00322999*
X00919209Y00327209*
X00900311Y00346106*
X00896101Y0034785*
X00865187*
X00863215Y00352612*
X00858625Y00354513*
Y00355763*
X0086245Y00357347*
X00866571Y00367297*
X0086245Y00377246*
X00857319Y00379372*
Y00380622*
X0086245Y00382747*
X00866571Y00392697*
X0086245Y00402646*
X0085732Y00404771*
Y00406021*
X0086245Y00408146*
X00866572Y00418096*
X0086245Y00428045*
X0085732Y00430171*
Y00431421*
X0086245Y00433546*
X00866572Y00443496*
X0086245Y00453446*
X00857317Y00455572*
Y00456822*
X00862449Y00458948*
X0086657Y00468897*
X00862449Y00478847*
X00857318Y00480972*
Y00482222*
X00862449Y00484348*
X0086657Y00494297*
X00862449Y00504247*
X00857319Y00506372*
Y00507622*
X0086245Y00509747*
X00866571Y00519697*
X0086245Y00529646*
X00857319Y00531772*
Y00533022*
X0086245Y00535147*
X00866571Y00545097*
X0086245Y00555046*
X00857319Y00557172*
Y00558422*
X0086245Y00560547*
X00866571Y00570497*
X0086245Y00580446*
X00857319Y00582572*
Y00583822*
X0086245Y00585947*
X00866571Y00595897*
X0086245Y00605846*
X0085732Y00607971*
Y00609221*
X0086245Y00611346*
X00866572Y00621296*
X0086245Y00631245*
X0085732Y00633371*
Y00634621*
X0086245Y00636746*
X00866572Y00646696*
X0086245Y00656645*
X00857317Y00658772*
Y00660022*
X00862449Y00662148*
X0086657Y00672097*
X00862449Y00682047*
X00852499Y00686169*
X00842549Y00682047*
X00838428Y00672097*
X00842549Y00662148*
X00847683Y00660021*
Y00658771*
X00842551Y00656645*
X00838429Y00646696*
X00842551Y00636746*
X00847682Y00634621*
Y00633371*
X00842551Y00631245*
X00838429Y00621296*
X00842551Y00611346*
X0084768Y00609221*
Y00607971*
X0084255Y00605846*
X00838429Y00595897*
X0084255Y00585947*
X00847681Y00583822*
Y00582572*
X0084255Y00580446*
X00838429Y00570497*
X0084255Y00560547*
X00847681Y00558422*
Y00557172*
X0084255Y00555046*
X00838429Y00545097*
X0084255Y00535147*
X00847681Y00533022*
Y00531772*
X0084255Y00529646*
X00838429Y00519697*
X0084255Y00509747*
X00847679Y00507622*
Y00506372*
X00842549Y00504247*
X00838428Y00494297*
X00842549Y00484348*
X0084768Y00482222*
Y00480972*
X00842549Y00478847*
X00838428Y00468897*
X00842549Y00458948*
X00847683Y00456821*
Y00455571*
X00842551Y00453446*
X00838429Y00443496*
X00842551Y00433546*
X00847682Y00431421*
Y00430171*
X00842551Y00428045*
X00838429Y00418096*
X00842551Y00408146*
X0084768Y00406021*
Y00404771*
X0084255Y00402646*
X00838429Y00392697*
X0084255Y00382747*
X00847681Y00380622*
Y00379372*
X0084255Y00377246*
X00838429Y00367297*
X0084255Y00357347*
X00846374Y00355763*
Y00354513*
X00841785Y00352612*
X00839812Y0034785*
X00824567*
X0074504Y00427378*
X00745748Y00428437*
X00747999Y00427505*
X00752591Y00429407*
X00754493Y00433999*
X00752591Y00438591*
X00748671Y00440215*
X00711071Y00477816*
Y00684945*
X0071615Y00687049*
X00718275Y0069218*
X00719525*
X0072165Y00687049*
X007316Y00682928*
X0074155Y00687049*
X00743675Y0069218*
X00744925*
X0074705Y00687049*
X00757Y00682928*
X0076695Y00687049*
X00769074Y00692179*
X00770324*
X00772449Y00687048*
X00782399Y00682927*
X00792349Y00687048*
X00794474Y00692179*
X00795724*
X00797849Y00687048*
X00807799Y00682927*
X00817749Y00687048*
X0082187Y00696998*
X00821058Y0069896*
X00821752Y00699999*
X00889467*
X00890351Y00699115*
Y00698756*
X00896692Y00683449*
X00898449Y00681692*
X00913756Y00675351*
X00914402*
X00914999Y00675104*
X00915596Y00675351*
X00916242*
X00931549Y00681692*
X00933306Y00683449*
X00939647Y00698756*
Y00699115*
X00940531Y00699999*
X00974999*
Y00485999*
G37*
%LNpcbat2560ver1-2*%
%LPC*%
G36*
X00385499Y00566999D02*
X00376047D01*
X00378815Y00560315*
X00385499Y00557546*
Y00566999*
G37*
G36*
X00305499Y00564499D02*
X00296046D01*
X00298815Y00557815*
X00305499Y00555046*
Y00564499*
G37*
G36*
X00399952Y00566999D02*
X00390499D01*
Y00557546*
X00397183Y00560315*
X00399952Y00566999*
G37*
G36*
X00319952Y00564499D02*
X00310499D01*
Y00555046*
X00317183Y00557815*
X00319952Y00564499*
G37*
G36*
X00390499Y00581452D02*
Y00571999D01*
X00399952*
X00397183Y00578683*
X00390499Y00581452*
G37*
G36*
X001957Y00694499D02*
X00184082D01*
X00187485Y00686284*
X001957Y00682881*
Y00694499*
G37*
G36*
X00305499Y00578952D02*
X00298815Y00576183D01*
X00296046Y00569499*
X00305499*
Y00578952*
G37*
G36*
X00385499Y00581452D02*
X00378815Y00578683D01*
X00376047Y00571999*
X00385499*
Y00581452*
G37*
G36*
X00310499Y00578952D02*
Y00569499D01*
X00319952*
X00317183Y00576183*
X00310499Y00578952*
G37*
G36*
X00740749Y00266358D02*
X00728507D01*
Y00263858*
X0073136Y0025697*
X00738249Y00254117*
X00740749*
Y00266358*
G37*
G36*
Y002836D02*
X00738249D01*
X0073136Y00280747*
X00728507Y00273858*
Y00271358*
X00740749*
Y002836*
G37*
G36*
X00748249D02*
X00745749D01*
Y00271358*
X0075799*
Y00273858*
X00755137Y00280747*
X00748249Y002836*
G37*
G36*
X0075799Y00266358D02*
X00745749D01*
Y00254117*
X00748249*
X00755137Y0025697*
X0075799Y00263858*
Y00266358*
G37*
G36*
X0042254Y00491499D02*
X00418499D01*
Y00487458*
X00421357Y00488642*
X0042254Y00491499*
G37*
G36*
X00368499Y00174499D02*
X00364458D01*
X00365641Y00171641*
X00368499Y00170458*
Y00174499*
G37*
G36*
X00403499Y0018254D02*
Y00178499D01*
X0040754*
X00406357Y00181356*
X00403499Y0018254*
G37*
G36*
X00368499Y0018354D02*
X00365641Y00182357D01*
X00364458Y00179499*
X00368499*
Y0018354*
G37*
G36*
X00341499Y0050054D02*
X00338642Y00499356D01*
X00337458Y00496499*
X00341499*
Y0050054*
G37*
G36*
X00712999Y00157493D02*
X00709079Y0015587D01*
X00571919*
X00567999Y00157493*
X00563407Y00155591*
X00561505Y00150999*
X00563407Y00146407*
X00567999Y00144505*
X00571919Y00146128*
X00709079*
X00712999Y00144505*
X00717591Y00146407*
X00719493Y00150999*
X00717591Y00155591*
X00712999Y00157493*
G37*
G36*
X00079999Y00371493D02*
X00075407Y00369591D01*
X00073505Y00364999*
X00075128Y00361079*
Y00337017*
X00062981Y0032487*
X00049888*
X00048418Y00328418*
X00039999Y00331905*
X0003158Y00328418*
X00028093Y00319999*
X0003158Y0031158*
X00039999Y00308093*
X00048418Y0031158*
X00049888Y00315128*
X00064999*
X00067781Y00316281*
X0006933Y00315808*
X00070641Y00312641*
X00073499Y00311458*
Y00317999*
X00075999*
Y00320499*
X0008254*
X00081356Y00323357*
X00078074Y00324716*
X0007783Y00325942*
X00083443Y00331555*
X0008487Y00334999*
Y00361079*
X00086493Y00364999*
X00084591Y00369591*
X00079999Y00371493*
G37*
G36*
X0008254Y00315499D02*
X00078499D01*
Y00311458*
X00081356Y00312641*
X0008254Y00315499*
G37*
G36*
X00119499Y00394499D02*
X00115458D01*
X00116642Y00391641*
X00119499Y00390458*
Y00394499*
G37*
G36*
X00106499Y0056554D02*
X00103642Y00564356D01*
X00102458Y00561499*
X00106499*
Y0056554*
G37*
G36*
Y00556499D02*
X00102458D01*
X00103642Y00553642*
X00106499Y00552458*
Y00556499*
G37*
G36*
X0011554D02*
X00111499D01*
Y00552458*
X00114357Y00553642*
X0011554Y00556499*
G37*
G36*
X00079999Y00615493D02*
X00076079Y0061387D01*
X00074514*
X0007107Y00612443*
X00052555Y00593928*
X00051128Y00590484*
Y00476502*
X00033417Y00458791*
X00032196Y00459297*
X00027603Y00457395*
X00025701Y00452802*
X00027603Y0044821*
X00032103Y00446346*
X00033968Y00441846*
X0003856Y00439944*
X00043152Y00441846*
X00045054Y00446438*
X00044548Y0044766*
X00058612Y00461724*
X00059672Y00461016*
X00059458Y00460499*
X000635*
Y0046454*
X00062982Y00464326*
X00062274Y00465386*
X00065443Y00468555*
X0006687Y00471999*
Y00585982*
X00076017Y00595128*
X00076079*
X00079999Y00593505*
X00084591Y00595407*
X00086493Y00599999*
X00084629Y00604499*
X00086493Y00608999*
X00084591Y00613591*
X00079999Y00615493*
G37*
G36*
X00064999Y00724894D02*
X00064402Y00724647D01*
X00063756*
X00048449Y00718306*
X00046692Y00716549*
X00040351Y00701242*
Y00699999*
Y00698756*
X00046692Y00683449*
X00048449Y00681692*
X00063756Y00675351*
X00064402*
X00064999Y00675104*
X00065596Y00675351*
X00066242*
X00081549Y00681692*
X00083306Y00683449*
X00089647Y00698756*
Y00699999*
Y00701242*
X00083306Y00716549*
X00081549Y00718306*
X00066242Y00724647*
X00065596*
X00064999Y00724894*
G37*
G36*
X00111499Y0056554D02*
Y00561499D01*
X0011554*
X00114357Y00564356*
X00111499Y0056554*
G37*
G36*
X00042499Y0043354D02*
Y00429499D01*
X0004654*
X00045356Y00432357*
X00042499Y0043354*
G37*
G36*
X00037499D02*
X00034642Y00432357D01*
X00033458Y00429499*
X00037499*
Y0043354*
G37*
G36*
X00087499Y0043554D02*
Y00431499D01*
X0009154*
X00090357Y00434357*
X00087499Y0043554*
G37*
G36*
X00082499D02*
X00079642Y00434357D01*
X00078458Y00431499*
X00082499*
Y0043554*
G37*
G36*
X0004654Y00424499D02*
X00042499D01*
Y00420458*
X00045356Y00421641*
X0004654Y00424499*
G37*
G36*
X00037499D02*
X00033458D01*
X00034642Y00421641*
X00037499Y00420458*
Y00424499*
G37*
G36*
X0009154Y00426499D02*
X00087499D01*
Y00422458*
X00090357Y00423642*
X0009154Y00426499*
G37*
G36*
X00082499D02*
X00078458D01*
X00079642Y00423642*
X00082499Y00422458*
Y00426499*
G37*
G36*
X00068499Y0046454D02*
Y00460499D01*
X0007254*
X00071356Y00463357*
X00068499Y0046454*
G37*
G36*
X0007254Y00455499D02*
X00068499D01*
Y00451458*
X00071356Y00452642*
X0007254Y00455499*
G37*
G36*
X000635D02*
X00059458D01*
X00060641Y00452642*
X000635Y00451458*
Y00455499*
G37*
G36*
X00564499Y0045854D02*
X00561641Y00457357D01*
X00560458Y00454499*
X00564499*
Y0045854*
G37*
G36*
Y00449499D02*
X00560458D01*
X00561641Y00446641*
X00564499Y00445458*
Y00449499*
G37*
G36*
X00981952Y00349999D02*
X00972499D01*
Y00340546*
X0097396Y00341151*
X00979183Y00343315*
X00981952Y00349999*
G37*
G36*
X00999999Y00364405D02*
X0099158Y00360918D01*
X00988093Y00352499*
X0099158Y0034408*
X00999999Y00340593*
X01008418Y0034408*
X01011905Y00352499*
X01008418Y00360918*
X00999999Y00364405*
G37*
G36*
X00967499Y00349999D02*
X00958046D01*
X00960815Y00343315*
X00967499Y00340546*
Y00349999*
G37*
G36*
X00912499Y00399452D02*
X00905815Y00396683D01*
X00903046Y00389999*
X00912499*
Y00399452*
G37*
G36*
X00926952Y00384999D02*
X00917499D01*
Y00375546*
X00924183Y00378315*
X00926952Y00384999*
G37*
G36*
X00917499Y00399452D02*
Y00389999D01*
X00926952*
X00924183Y00396683*
X00922246Y00397486*
X00917499Y00399452*
G37*
G36*
X00967499Y00364452D02*
X00960815Y00361683D01*
X00958046Y00354999*
X00967499*
Y00364452*
G37*
G36*
X00889598Y0006D02*
X0087798D01*
X00881383Y00051785*
X00889598Y00048382*
Y0006*
G37*
G36*
X00912499Y00384999D02*
X00903046D01*
X00905815Y00378315*
X00912499Y00375546*
Y00384999*
G37*
G36*
X00972499Y00364452D02*
Y00354999D01*
X00981952*
X00979183Y00361683*
X00972499Y00364452*
G37*
G36*
X00926952Y00307499D02*
X00917499D01*
Y00298046*
X00924183Y00300815*
X00926952Y00307499*
G37*
G36*
X00989999Y00124894D02*
X00989402Y00124647D01*
X00988756*
X00973449Y00118306*
X00971692Y00116549*
X00965351Y00101242*
Y00099999*
Y00098756*
X00971692Y00083449*
X00973449Y00081692*
X00988756Y00075351*
X00989402*
X00989999Y00075104*
X00990596Y00075351*
X00991242*
X01006549Y00081692*
X01008306Y00083449*
X01014647Y00098756*
Y00099999*
Y00101242*
X01008306Y00116549*
X01006549Y00118306*
X00991242Y00124647*
X00990596*
X00989999Y00124894*
G37*
G36*
X00889598Y00152818D02*
X00881383Y00149415D01*
X0087798Y001412*
X00889598*
Y00152818*
G37*
G36*
X00912499Y00307499D02*
X00903046D01*
X00905815Y00300815*
X00912499Y00298046*
Y00307499*
G37*
G36*
X00914999Y00291905D02*
X0090658Y00288418D01*
X00903093Y00279999*
X0090658Y0027158*
X00914999Y00268093*
X00923418Y0027158*
X00926905Y00279999*
X00923418Y00288418*
X00914999Y00291905*
G37*
G36*
X00894598Y00152818D02*
Y001387D01*
X00892098*
Y001362*
X0087798*
X00881383Y00127985*
X00884666Y00126625*
Y00125375*
X00881383Y00124015*
X0087798Y001158*
X00892098*
Y001108*
X0087798*
X00881383Y00102585*
X00884664Y00101225*
Y00099975*
X00881721Y00098756*
X00881382Y00098616*
X00877979Y00090401*
X00892097*
Y00085401*
X00877979*
X00881382Y00077185*
X00884666Y00075825*
Y00074575*
X00881383Y00073215*
X0087798Y00065*
X00892098*
Y000625*
X00894598*
Y00048382*
X00902813Y00051785*
X00904714Y00056374*
X00905964*
X00907548Y0005255*
X00917498Y00048429*
X00927447Y0005255*
X00931569Y000625*
X00927447Y0007245*
X00922315Y00074575*
Y00075825*
X00927447Y00077951*
X00931568Y00087901*
X00927447Y0009785*
X00922317Y00099975*
Y00101225*
X00927447Y0010335*
X00931569Y001133*
X00927447Y0012325*
X00922317Y00125375*
Y00126625*
X00927447Y0012875*
X00931569Y001387*
X00927447Y0014865*
X00917498Y00152771*
X00907548Y0014865*
X00905964Y00144825*
X00904714*
X00902813Y00149415*
X00894598Y00152818*
G37*
G36*
X00931499Y0045654D02*
Y00452499D01*
X0093554*
X00934357Y00455357*
X00931499Y0045654*
G37*
G36*
X00989999Y00482493D02*
X00988692Y00481952D01*
X00931999*
X0092779Y00480209*
X00910789Y00463208*
X00909046Y00458999*
Y00426939*
X0090658Y00425918*
X00903093Y00417499*
X0090658Y0040908*
X00914999Y00405593*
X00923418Y0040908*
X00926905Y00417499*
X00923418Y00425918*
X00920952Y00426939*
Y00447867*
X00922202Y00448116*
X00923642Y00444641*
X00926499Y00443458*
Y00449999*
Y0045654*
X00923642Y00455357*
X00922202Y00451882*
X00920952Y00452131*
Y00456533*
X00934466Y00470046*
X00988692*
X00989999Y00469505*
X00994591Y00471407*
X00996493Y00475999*
X00994591Y00480591*
X00989999Y00482493*
G37*
G36*
X0093554Y00447499D02*
X00931499D01*
Y00443458*
X00934357Y00444641*
X0093554Y00447499*
G37*
%LNpcbat2560ver1-3*%
%LPD*%
G54D22*
X00560999Y00292999D02*
X00631999D01*
X00558999D02*
X00560999D01*
Y00285999D02*
Y00292999D01*
Y00285999D02*
X00628999Y00217999D01*
X00690999Y00212999D02*
X00693999Y00215999D01*
Y00260999*
X00700999Y00216999D02*
Y00329999D01*
X00682999Y00347999D02*
X00700999Y00329999D01*
Y00216999D02*
X00705999Y00211999D01*
X00686999Y00353999D02*
X00707999Y00332999D01*
Y00237999D02*
Y00332999D01*
Y00237999D02*
X00711999Y00233999D01*
X00695999Y00359999D02*
X00715999Y00339999D01*
Y00247999D02*
Y00339999D01*
Y00247999D02*
X00719999Y00243999D01*
X00659999Y00212999D02*
X00683641Y00189358D01*
X00852359*
X00852499Y00189497*
X00621999Y00333999D02*
X00647999Y00307999D01*
Y00201999D02*
Y00307999D01*
Y00201999D02*
X00677999Y00171999D01*
X007062Y00475798D02*
Y00696999D01*
Y00475798D02*
X00747999Y00433999D01*
X00718999Y00403999D02*
X00727999Y00412999D01*
X00718999Y00367999D02*
Y00403999D01*
X00084999Y00462999D02*
Y00499999D01*
X00279999Y00528999D02*
X00435999D01*
X00257999Y00550999D02*
X00279999Y00528999D01*
X00257999Y00550999D02*
Y00566999D01*
X00523999Y00550999D02*
X00524999Y00549999D01*
X00523999Y00550999D02*
Y00591999D01*
X00461999Y00528999D02*
X00505999Y00572999D01*
X00435999Y00528999D02*
X00461999D01*
X00028999Y00616999D02*
X00041999D01*
X00013999Y00601999D02*
X00028999Y00616999D01*
X00013999Y00180999D02*
Y00601999D01*
Y00180999D02*
X00112999Y00081999D01*
Y00042999D02*
Y00081999D01*
Y00042999D02*
X00127Y00028999D01*
X00150999*
X00172999Y00050999*
X00084999Y00462999D02*
X00104128Y0044387D01*
Y0038487D02*
Y0044387D01*
Y0038487D02*
X00121298Y003677D01*
X00147498*
X00027399Y00345399D02*
X00039999D01*
X00019999Y00337999D02*
X00027399Y00345399D01*
X00019999Y00313999D02*
Y00337999D01*
Y00313999D02*
X00071999Y00261999D01*
X00949599Y00059599D02*
Y00177499D01*
X00928999Y00038999D02*
X00949599Y00059599D01*
X00184999Y00038999D02*
X00928999D01*
X00172999Y00050999D02*
X00184999Y00038999D01*
X00172999Y00050999D02*
Y00090999D01*
X00279999Y00197999*
Y00274999*
X00329999Y00181999D02*
X00344999Y00166999D01*
X00329999Y00181999D02*
Y00190999D01*
X00274Y000625D02*
Y00151D01*
X00348999Y00225999*
Y00233999*
X00400999Y00134999D02*
Y00175999D01*
X00387999Y00121999D02*
X00400999Y00134999D01*
X00374399Y00121999D02*
X00387999D01*
X00350199Y00097799D02*
X00374399Y00121999D01*
X00350199Y00062499D02*
Y00097799D01*
X00371999Y00175999D02*
X00400999D01*
X00370999Y00176999D02*
X00371999Y00175999D01*
X00450999Y00417999D02*
X00462999Y00429999D01*
X00530999*
X00147498Y003931D02*
X00161999Y00407601D01*
Y00468999*
X00176999Y00483999*
X00357999*
X00401999Y00439999*
Y00412999D02*
Y00439999D01*
Y00412999D02*
X00434999Y00379999D01*
X00444999*
X00147498Y003677D02*
X001597D01*
X00170999Y00378999*
Y00462999*
X00183999Y00475999*
X00342999*
X00391999Y00426999*
Y00409999D02*
Y00426999D01*
Y00409999D02*
X00431999Y00369999D01*
X00444999*
X00147498Y003423D02*
X001683D01*
X00175999Y00349999*
Y00454999*
X00182999Y00461999*
X00181999Y00432999D02*
X00195999Y00446999D01*
X00181999Y00338999D02*
Y00432999D01*
X00159901Y00316901D02*
X00181999Y00338999D01*
X00190999Y00429999D02*
X00199999Y00438999D01*
X00190999Y00318999D02*
Y00429999D01*
X00163501Y00291501D02*
X00190999Y00318999D01*
X00198999Y00427999D02*
X00204999Y00433999D01*
X00198999Y00293999D02*
Y00427999D01*
X00171099Y00266099D02*
X00198999Y00293999D01*
X00212999Y00408999D02*
X00222999Y00418999D01*
X00212999Y00276999D02*
Y00408999D01*
X00176699Y00240699D02*
X00212999Y00276999D01*
X00224999Y00405999D02*
X00230999Y00411999D01*
X00224999Y00261999D02*
Y00405999D01*
X001783Y002153D02*
X00224999Y00261999D01*
X00237999Y00401999D02*
X00240999Y00404999D01*
X00237999Y00251999D02*
Y00401999D01*
X001759Y001899D02*
X00237999Y00251999D01*
X00248999Y00379999D02*
X00264999Y00395999D01*
X00248999Y00211999D02*
Y00379999D01*
X001761Y001391D02*
X00248999Y00211999D01*
X00182999Y00461999D02*
X00341999D01*
X00382999Y00420999*
Y00406999D02*
Y00420999D01*
Y00406999D02*
X00427999Y00361999D01*
X00438999*
X00147497Y00316901D02*
X00159901D01*
X00195999Y00446999D02*
X00333999D01*
X00367999Y00412999*
Y00392999D02*
Y00412999D01*
Y00392999D02*
X00371999Y00388999D01*
X00391999*
X00398998Y00382*
Y00379998D02*
Y00382D01*
X00147497Y00291501D02*
X00163501D01*
X00199999Y00438999D02*
X00331999D01*
X00359999Y00410999*
Y00387999D02*
Y00410999D01*
Y00387999D02*
X00365999Y00381999D01*
X00386999*
X00390999Y00377999*
X00450999Y00327999D02*
Y00392999D01*
Y00417999*
X00147499Y00266099D02*
X00171099D01*
X00204999Y00433999D02*
X00323999D01*
X00352999Y00404999*
Y00381999D02*
Y00404999D01*
Y00381999D02*
X00359999Y00374999D01*
X00378999*
X00147499Y00240699D02*
X00176699D01*
X00222999Y00418999D02*
X00316999D01*
X00344999Y00390999*
Y00376999D02*
Y00390999D01*
Y00376999D02*
X00356999Y00364999D01*
X00376999*
X00147498Y002153D02*
X001783D01*
X00230999Y00411999D02*
X00315999D01*
X00335999Y00391999*
Y00371999D02*
Y00391999D01*
Y00371999D02*
X00353999Y00353999D01*
X00376999*
X00147498Y001899D02*
X001759D01*
X00240999Y00404999D02*
X00306999D01*
X00325999Y00385999*
Y00359999D02*
Y00385999D01*
X00317199Y00351199D02*
X00325999Y00359999D01*
X00305399Y00351199D02*
X00317199D01*
X00305399Y00376599D02*
Y00385599D01*
X00294999Y00395999D02*
X00305399Y00385599D01*
X00264999Y00395999D02*
X00294999D01*
X00147498Y001391D02*
X001761D01*
X00381999Y00336999D02*
X00396999D01*
X00350999Y00305999D02*
X00381999Y00336999D01*
X00326999Y00342999D02*
X00379999D01*
X00428999Y00340999D02*
X00442999D01*
X00424999Y00336999D02*
X00428999Y00340999D01*
X00424999Y00326999D02*
Y00336999D01*
X00409999Y00311999D02*
X00424999Y00326999D01*
X00372999Y00311999D02*
X00409999D01*
X00442999Y00325999D02*
Y00340999D01*
X00463999Y00341999D02*
X00509999D01*
X00558999Y00292999*
X00381Y00218999D02*
Y00264999D01*
X00366999Y00211999D02*
X00389999D01*
X00408999Y00230999*
Y00266999*
X00427999Y00285999*
X00450999Y00327999D02*
X00459999Y00318999D01*
X002994Y000625D02*
Y001164D01*
X00333999Y00150999*
X00390999*
X00438999D02*
X00439999Y00149999D01*
X00486999*
X00567999Y00150999D02*
X00712999D01*
Y00201999D02*
X00823999D01*
X00121999Y00396999D02*
X001435Y004185D01*
X00147498*
X00039999Y00319999D02*
X00064999D01*
X00079999Y00334999*
Y00364999*
X00074514Y00608999D02*
X00079999D01*
X00055999Y00590484D02*
X00074514Y00608999D01*
X00073999Y00599999D02*
X00079999D01*
X00061999Y00587999D02*
X00073999Y00599999D01*
X00055999Y00474484D02*
Y00590484D01*
X00061999Y00471999D02*
Y00587999D01*
X0003856Y0044856D02*
X00061999Y00471999D01*
X00034317Y00452802D02*
X00055999Y00474484D01*
X00032196Y00452802D02*
X00034317D01*
X0003856Y00446438D02*
Y0044856D01*
X00471999Y00320999D02*
X00476999D01*
X00417999Y00266999D02*
X00471999Y00320999D01*
X00433999Y00321999D02*
Y00332999D01*
X00397999Y00285999D02*
X00433999Y00321999D01*
X00397999Y00232999D02*
Y00285999D01*
X00423999Y00090299D02*
X00451799Y00062499D01*
X00423999Y00090299D02*
Y00262999D01*
X00443999Y00282999*
X00417999Y00070901D02*
Y00266999D01*
Y00070901D02*
X004264Y000625D01*
X00443999Y00282999D02*
X00491999D01*
X00484749Y00300249D02*
Y00325249D01*
X00477199Y00062499D02*
X00508999Y00094299D01*
Y00275999*
X00484749Y00300249D02*
X00508999Y00275999D01*
X00488999Y00317999D02*
X00521999Y00284999D01*
Y00081899D02*
Y00284999D01*
X00502599Y00062499D02*
X00521999Y00081899D01*
X00488999Y00317999D02*
Y00330999D01*
X00478999D02*
X00484749Y00325249D01*
X00527999Y00062499D02*
Y00286999D01*
X00497999Y00316999D02*
X00527999Y00286999D01*
X00497999Y00316999D02*
Y00328999D01*
X00736901Y00291097D02*
X00852499D01*
X00722999Y00304999D02*
X00736901Y00291097D01*
X00722999Y00304999D02*
Y00348999D01*
X00702999Y00368999D02*
X00722999Y00348999D01*
X00517999Y00368999D02*
X00702999D01*
X00502999Y00353999D02*
X00517999Y00368999D01*
X00499999Y00353999D02*
X00502999D01*
X00708999Y00377999D02*
X00718999Y00367999D01*
X00554999Y00377999D02*
X00708999D01*
X00553999Y00376999D02*
X00554999Y00377999D01*
X00553999Y00376999D02*
Y00434999D01*
X00821697Y00265697D02*
X00852499D01*
X00799999Y00243999D02*
X00821697Y00265697D01*
X00719999Y00243999D02*
X00799999D01*
X00521999Y00359999D02*
X00695999D01*
X00513999Y00351999D02*
X00521999Y00359999D01*
X00846202Y00233999D02*
X008525Y00240297D01*
X00711999Y00233999D02*
X00846202D01*
X00531999Y00353999D02*
X00686999D01*
X00525999Y00347999D02*
X00531999Y00353999D01*
X00705999Y00211999D02*
X00849602D01*
X008525Y00214897*
X00541999Y00347999D02*
X00682999D01*
X00533999Y00339999D02*
X00541999Y00347999D01*
X00659999Y00212999D02*
Y00315999D01*
X00677999Y00171999D02*
X00844597D01*
X00633999Y00341999D02*
X00659999Y00315999D01*
X00548999Y00341999D02*
X00633999D01*
X00541999Y00334999D02*
X00548999Y00341999D01*
X00844597Y00171999D02*
X00852499Y00164097D01*
X00553999Y00333999D02*
X00621999D01*
X00835701Y00113297D02*
X00852499D01*
X00825999Y00122999D02*
X00835701Y00113297D01*
X00825999Y00122999D02*
Y00161999D01*
X00655401Y00581401D02*
Y00697D01*
X00522999Y00448999D02*
X00655401Y00581401D01*
X00522999Y00436999D02*
Y00448999D01*
X00630001Y00572001D02*
Y00697D01*
X00511999Y00453999D02*
X00630001Y00572001D01*
X00511999Y00437999D02*
Y00453999D01*
X006046Y006396D02*
Y00696999D01*
X00535999Y00570999D02*
X006046Y006396D01*
X00535999Y00491999D02*
Y00570999D01*
X00519999Y00475999D02*
X00535999Y00491999D01*
X00518999Y00475999D02*
X00519999D01*
X005792Y006632D02*
Y00696999D01*
X00513999Y00597999D02*
X005792Y006632D01*
X00513999Y00482999D02*
Y00597999D01*
X00511999Y00436999D02*
Y00437999D01*
X00530999Y00429999D02*
X00537999Y00436999D01*
X00343999Y00493999D02*
X00415999D01*
X00339999Y00513999D02*
Y00520999D01*
Y00513999D02*
X00346999Y00506999D01*
X00424999*
X00551999Y00436999D02*
X00553999Y00434999D01*
X00504999Y00320999D02*
X00506999Y00322999D01*
X00510999*
X00553398Y002806*
Y00062498D02*
Y002806D01*
G54D23*
X00636999Y00247999D02*
X00638999Y00245999D01*
Y00210999D02*
Y00245999D01*
X00675999Y00208999D02*
X0068989Y00195108D01*
X00816108*
X00589999Y00276999D02*
Y00280999D01*
Y00276999D02*
X00618999Y00247999D01*
X00636999*
X00566999Y00451999D02*
X00711999D01*
X00822101Y00341897*
X008525*
X00914999Y00309999D02*
Y00322999D01*
X00896101Y00341897D02*
X00914999Y00322999D01*
X008525Y00341897D02*
X00896101D01*
X00914999Y00417499D02*
Y00458999D01*
X00931999Y00475999*
X00989999*
X00338499Y00569499D02*
X00357999D01*
X00223601Y00684397D02*
Y00697001D01*
Y00684397D02*
X00338499Y00569499D01*
G54D24*
X00743249Y00313858D03*
Y00268859D03*
X00678249D03*
Y00313858D03*
G54D25*
X00914999Y00699999D03*
X00989999Y00099999D03*
X00064999Y00049999D03*
Y00699999D03*
G54D26*
X00097899Y00162499D03*
X00072499D03*
X00969999Y00352499D03*
X00999999D03*
X00914999Y00387499D03*
Y00417499D03*
X00039999Y00252899D03*
Y00227499D03*
Y00319999D03*
Y00345399D03*
X00357999Y00569499D03*
X00387999D03*
X00307999Y00566999D03*
X00257999D03*
X00914999Y00309999D03*
Y00279999D03*
G54D27*
X00949599Y00177499D03*
X00974999D03*
X01000398Y00177498D03*
X00305398Y003258D03*
X00305399Y00351199D03*
Y00376599D03*
X00279999D03*
Y00351199D03*
X00279998Y003258D03*
X00305399Y00274999D03*
Y00300399D03*
X00279999D03*
Y00274999D03*
X00807799Y00696998D03*
X00782399D03*
X007316Y00696999D03*
X00757D03*
X00655401Y00697D03*
X00630001D03*
X006808Y00696999D03*
X007062D03*
X00503001Y00697D03*
X00477601D03*
X00426801Y00697001D03*
X00452201D03*
X00553801Y00697D03*
X00528401D03*
X005792Y00696999D03*
X006046D03*
X00299801Y00697D03*
X00274401D03*
X00223601Y00697001D03*
X00249001D03*
X00350601Y00697D03*
X00325201D03*
X00376Y00696999D03*
X004014D03*
X001982D03*
X001475Y00672498D03*
Y00647098D03*
X00147499Y00596299D03*
Y00621699D03*
X00147498Y005201D03*
Y004947D03*
X00147499Y00545499D03*
Y00570899D03*
X00147498Y003677D03*
Y003423D03*
X00147497Y00291501D03*
Y00316901D03*
X00147498Y004185D03*
Y003931D03*
X00147499Y00443899D03*
Y00469299D03*
X00147498Y001645D03*
Y001391D03*
X00147497Y00088301D03*
Y00113701D03*
X00147498Y002153D03*
Y001899D03*
X00147499Y00240699D03*
Y00266099D03*
Y00062899D03*
X00444599Y00262499D03*
X00495399D03*
X00469999D03*
X00852498Y00062498D03*
Y00087898D03*
X00852499Y00138697D03*
Y00113297D03*
X008525Y00214897D03*
Y00240297D03*
X00852499Y00189497D03*
Y00164097D03*
X008525Y00367297D03*
Y00392697D03*
X00852501Y00443496D03*
Y00418096D03*
X008525Y00316497D03*
Y00341897D03*
X00852499Y00291097D03*
Y00265697D03*
X008525Y00570497D03*
Y00595897D03*
X00852501Y00646696D03*
Y00621296D03*
X008525Y00519697D03*
Y00545097D03*
X00852499Y00494297D03*
Y00468897D03*
Y00672097D03*
X00917498Y001387D03*
Y001133D03*
X00917497Y00087901D03*
X00917498Y000625D03*
X00892098D03*
X00892097Y00087901D03*
X00892098Y001133D03*
Y001387D03*
X00197801Y00062501D03*
X00223201D03*
X00274Y000625D03*
X002486D03*
X00350199Y00062499D03*
X00375599D03*
X003248Y000625D03*
X002994D03*
X00502599Y00062499D03*
X00527999D03*
X00578798Y00062498D03*
X00553398D03*
X00451799Y00062499D03*
X00477199D03*
X004264Y000625D03*
X00401D03*
X00705799Y00062499D03*
X00731199D03*
X00781998Y00062498D03*
X00756598D03*
X00654999Y00062499D03*
X00680399D03*
X006296Y000625D03*
X006042D03*
X008074D03*
G54D28*
X00628999Y00217999D03*
X00690999Y00212999D03*
X00693999Y00260999D03*
X00638999Y00210999D03*
X00675999Y00208999D03*
X00816108Y00195108D03*
X00747999Y00433999D03*
X00727999Y00412999D03*
X00928999Y00449999D03*
X00589999Y00280999D03*
X00636999Y00247999D03*
X00566999Y00451999D03*
X00084999Y00499999D03*
X00989999Y00475999D03*
X00524999Y00549999D03*
X00523999Y00591999D03*
X00505999Y00572999D03*
X00435999Y00528999D03*
X00108999Y00558999D03*
X00041999Y00616999D03*
X00075999Y00317999D03*
X00065999Y00457999D03*
X00039999Y00426999D03*
X00084999Y00428999D03*
X00071999Y00261999D03*
X00329999Y00190999D03*
X00348999Y00233999D03*
X00344999Y00166999D03*
X00400999Y00175999D03*
X00370999Y00176999D03*
X00444999Y00379999D03*
Y00369999D03*
X00438999Y00361999D03*
X00450999Y00392999D03*
X00398998Y00379998D03*
X00390999Y00377999D03*
X00378999Y00374999D03*
X00376999Y00364999D03*
Y00353999D03*
X00350999Y00305999D03*
X00396999Y00336999D03*
X00379999Y00342999D03*
X00326999D03*
X00372999Y00311999D03*
X00442999Y00325999D03*
Y00340999D03*
X00463999Y00341999D03*
X00381Y00264999D03*
Y00218999D03*
X00366999Y00211999D03*
X00427999Y00285999D03*
X00390999Y00150999D03*
X00438999D03*
X00486999Y00149999D03*
X00567999Y00150999D03*
X00712999D03*
Y00201999D03*
X00823999D03*
X00121999Y00396999D03*
X00079999Y00364999D03*
Y00608999D03*
Y00599999D03*
X00032196Y00452802D03*
X0003856Y00446438D03*
X00476999Y00320999D03*
X00433999Y00332999D03*
X00397999Y00232999D03*
X00491999Y00282999D03*
X00478999Y00330999D03*
X00488999D03*
X00497999Y00328999D03*
X00718999Y00367999D03*
X00499999Y00353999D03*
X00553999Y00376999D03*
X00513999Y00351999D03*
X00525999Y00347999D03*
X00533999Y00339999D03*
X00541999Y00334999D03*
X00553999Y00333999D03*
X00825999Y00161999D03*
X00522999Y00436999D03*
X00511999Y00437999D03*
X00518999Y00475999D03*
X00513999Y00482999D03*
X00343999Y00493999D03*
X00415999D03*
X00339999Y00520999D03*
X00424999Y00506999D03*
X00551999Y00436999D03*
X00459999Y00318999D03*
X00537999Y00436999D03*
X00504999Y00320999D03*
X00631999Y00292999D03*
X00677999Y00338999D03*
M02*