G04 Layer_Physical_Order=2*
G04 Layer_Color=16711680*
%FSLAX44Y44*%
%MOMM*%
G71*
G01*
G75*
%ADD12C,1.0000*%
%ADD13C,2.0000*%
%ADD14R,1.6000X1.6000*%
%ADD15C,2.2000*%
%ADD16C,1.6000*%
%ADD17R,1.6000X1.6000*%
%ADD18O,2.0000X2.8000*%
G36*
X1755000Y80000D02*
X1742058D01*
X1736455Y93526D01*
Y93526D01*
X1735694Y94288D01*
X1735282Y95282D01*
X1734288Y95694D01*
X1733526Y96455D01*
X1733526D01*
X1717071Y103271D01*
X1717071Y103271D01*
X1715995D01*
X1715000Y103683D01*
X1714005Y103271D01*
X1712929D01*
X1712929Y103271D01*
X1696474Y96455D01*
X1696474D01*
X1695712Y95694D01*
X1694718Y95282D01*
X1694306Y94288D01*
X1693545Y93526D01*
Y93526D01*
X1687942Y80000D01*
X1315000D01*
Y344176D01*
X1485517D01*
X1548776Y280917D01*
Y260752D01*
X1548120Y260480D01*
X1543364Y249000D01*
Y241000D01*
X1548120Y229520D01*
X1559600Y224764D01*
X1571080Y229520D01*
X1575836Y241000D01*
Y249000D01*
X1571080Y260480D01*
X1570424Y260752D01*
Y285400D01*
X1567254Y293054D01*
X1511481Y348827D01*
X1511967Y350000D01*
X1755000D01*
Y80000D01*
D02*
G37*
G36*
X1320000Y620217D02*
X1319846Y620154D01*
X1261523Y561831D01*
X1260447Y562550D01*
X1263545Y570030D01*
X1250000D01*
X1236455D01*
X1240050Y561350D01*
X1243950Y559735D01*
Y558465D01*
X1240050Y556850D01*
X1235929Y546900D01*
X1238234Y541335D01*
X1237178Y540629D01*
X1222654Y555154D01*
X1215000Y558324D01*
X1047791D01*
X1047305Y559497D01*
X1050754Y562946D01*
X1052503Y567169D01*
X1054927Y568173D01*
X1055940Y570619D01*
X1057315D01*
X1057550Y570050D01*
X1067500Y565929D01*
X1077450Y570050D01*
X1079065Y573950D01*
X1080335D01*
X1081950Y570050D01*
X1091900Y565929D01*
X1099739Y569176D01*
X1184661D01*
X1192500Y565929D01*
X1202450Y570050D01*
X1206571Y580000D01*
X1202450Y589950D01*
X1192500Y594071D01*
X1184661Y590824D01*
X1099739D01*
X1091900Y594071D01*
X1081950Y589950D01*
X1080335Y586050D01*
X1079065D01*
X1078324Y587839D01*
Y595517D01*
X1104483Y621676D01*
X1124661D01*
X1132500Y618429D01*
X1142450Y622550D01*
X1146571Y632500D01*
X1142450Y642450D01*
X1132500Y646571D01*
X1124661Y643324D01*
X1100000D01*
X1092346Y640154D01*
X1079497Y627304D01*
X1078324Y627791D01*
Y660000D01*
X1236763D01*
X1237469Y658944D01*
X1233764Y650000D01*
X1238520Y638520D01*
X1250000Y633764D01*
X1261480Y638520D01*
X1266236Y650000D01*
X1262531Y658944D01*
X1263237Y660000D01*
X1320000D01*
Y620217D01*
D02*
G37*
G36*
X1767500Y727500D02*
Y542500D01*
X1712500Y487500D01*
X1260000D01*
X1238222Y509278D01*
X1238941Y510355D01*
X1242000Y509088D01*
X1258000D01*
X1261827Y510673D01*
X1263412Y514500D01*
Y530500D01*
X1261827Y534327D01*
X1259381Y535340D01*
Y536715D01*
X1259950Y536950D01*
X1263545Y545630D01*
X1250000D01*
Y548170D01*
X1263545D01*
X1260527Y555457D01*
X1261499Y556429D01*
X1261523Y556419D01*
X1262036Y556631D01*
X1262579Y556523D01*
X1263892Y557400D01*
X1265350Y558004D01*
X1323673Y616327D01*
X1323827Y616390D01*
X1324239Y617385D01*
X1325000Y618146D01*
Y619223D01*
X1325412Y620217D01*
Y660000D01*
X1323827Y663827D01*
X1320000Y665412D01*
X1263237D01*
X1262725Y665200D01*
X1262181Y665308D01*
X1260868Y664431D01*
X1259410Y663827D01*
X1259309Y663584D01*
X1258024Y662912D01*
X1251270Y665710D01*
Y650000D01*
X1248730D01*
Y665710D01*
X1241976Y662912D01*
X1240691Y663584D01*
X1240590Y663827D01*
X1239132Y664431D01*
X1237819Y665308D01*
X1237275Y665200D01*
X1236763Y665412D01*
X1227500D01*
Y727500D01*
X1375000D01*
Y1012500D01*
X1767500D01*
Y727500D01*
D02*
G37*
G36*
X832500Y699165D02*
X826020Y696480D01*
X821264Y685000D01*
X826020Y673520D01*
X832500Y670835D01*
Y543324D01*
X752500D01*
X744846Y540154D01*
X742193Y537500D01*
X692124D01*
Y564661D01*
X694845Y571230D01*
X667755D01*
X670476Y564661D01*
Y537500D01*
X620000D01*
Y559464D01*
X627450Y562550D01*
X631571Y572500D01*
X627450Y582450D01*
X620000Y585536D01*
Y646261D01*
X621246Y646509D01*
X623520Y641020D01*
X633730Y636790D01*
Y652500D01*
Y668210D01*
X623520Y663980D01*
X621246Y658491D01*
X620000Y658739D01*
Y724176D01*
X832500D01*
Y699165D01*
D02*
G37*
G36*
X375000Y935000D02*
Y775000D01*
X403003Y746997D01*
X402517Y745824D01*
X299483D01*
X127654Y917654D01*
X120000Y920824D01*
X119252D01*
X118981Y921480D01*
X107500Y926236D01*
X96019Y921480D01*
X91264Y910000D01*
X96019Y898520D01*
X107500Y893764D01*
X116995Y897697D01*
X287346Y727346D01*
X295000Y724176D01*
X612500D01*
Y584500D01*
X607550Y582450D01*
X603955Y573770D01*
X617500D01*
Y571230D01*
X603955D01*
X607550Y562550D01*
X612500Y560500D01*
Y495000D01*
X587500Y470000D01*
X510307D01*
X505824Y474483D01*
Y515000D01*
X502654Y522654D01*
X458197Y567110D01*
X454950Y574950D01*
X445000Y579071D01*
X435050Y574950D01*
X430929Y565000D01*
X435050Y555050D01*
X442890Y551803D01*
X484176Y510517D01*
Y470000D01*
X458237D01*
X457531Y471056D01*
X461236Y480000D01*
X456480Y491480D01*
X445000Y496236D01*
X433520Y491480D01*
X428764Y480000D01*
X432469Y471056D01*
X431763Y470000D01*
X420307D01*
X307654Y582654D01*
X300000Y585824D01*
X265237D01*
X264531Y586880D01*
X265824Y590000D01*
Y622500D01*
X262654Y630154D01*
X118324Y774483D01*
Y805748D01*
X118980Y806020D01*
X123736Y817500D01*
X118980Y828980D01*
X107500Y833736D01*
X96019Y828980D01*
X91264Y817500D01*
X96019Y806020D01*
X96676Y805748D01*
Y770000D01*
X99846Y762346D01*
X244176Y618017D01*
Y594483D01*
X235517Y585824D01*
X232839D01*
X225000Y589071D01*
X215050Y584950D01*
X210929Y575000D01*
X215050Y565050D01*
X225000Y560929D01*
X232839Y564176D01*
X295517D01*
X388519Y471173D01*
X388033Y470000D01*
X267677D01*
X267450Y470550D01*
X263550Y472165D01*
Y473435D01*
X267450Y475050D01*
X271571Y485000D01*
X267450Y494950D01*
X266881Y495185D01*
Y496560D01*
X269327Y497573D01*
X270912Y501400D01*
Y517400D01*
X269327Y521227D01*
X265500Y522812D01*
X249500D01*
X245673Y521227D01*
X244088Y517400D01*
Y501400D01*
X245673Y497573D01*
X248119Y496560D01*
Y495185D01*
X247550Y494950D01*
X243429Y485000D01*
X247550Y475050D01*
X251450Y473435D01*
Y472165D01*
X247550Y470550D01*
X247323Y470000D01*
X95824D01*
Y510747D01*
X96481Y511020D01*
X101236Y522500D01*
X96481Y533980D01*
X85000Y538736D01*
X73520Y533980D01*
X68764Y522500D01*
X73520Y511020D01*
X74176Y510747D01*
Y470000D01*
X42500D01*
Y947500D01*
X37500Y952500D01*
X75000Y990000D01*
X320000D01*
X375000Y935000D01*
D02*
G37*
G36*
X1020050Y428850D02*
X1023950Y427235D01*
Y425965D01*
X1020050Y424350D01*
X1015929Y414400D01*
X1020050Y404450D01*
X1020619Y404215D01*
Y402840D01*
X1018173Y401827D01*
X1016588Y398000D01*
Y391270D01*
X1030000D01*
X1043412D01*
Y398000D01*
X1041827Y401827D01*
X1039381Y402840D01*
Y404215D01*
X1039950Y404450D01*
X1044071Y414400D01*
X1039950Y424350D01*
X1036050Y425965D01*
Y427235D01*
X1037839Y427976D01*
X1064524D01*
X1075000Y417500D01*
Y350000D01*
X1032500Y307500D01*
X927894D01*
X927189Y308556D01*
X929071Y313100D01*
X924950Y323050D01*
X924381Y323285D01*
Y324660D01*
X926827Y325673D01*
X928412Y329500D01*
Y336230D01*
X915000D01*
X901588D01*
Y329500D01*
X903173Y325673D01*
X905619Y324660D01*
Y323285D01*
X905050Y323050D01*
X902550Y317013D01*
X893037Y307500D01*
X865217D01*
X865154Y307654D01*
X842654Y330154D01*
X835000Y333324D01*
Y353707D01*
X835697Y355390D01*
X910307Y430000D01*
X945533D01*
X946019Y428827D01*
X932346Y415154D01*
X929176Y407500D01*
Y402839D01*
X926455Y396270D01*
X940000D01*
X953545D01*
X950824Y402839D01*
Y403017D01*
X977807Y430000D01*
X1019574D01*
X1020050Y428850D01*
D02*
G37*
%LPC*%
G36*
X1651270Y183545D02*
Y171270D01*
X1663545D01*
X1659950Y179950D01*
X1651270Y183545D01*
D02*
G37*
G36*
X1648730Y183545D02*
X1640050Y179950D01*
X1636455Y171270D01*
X1648730D01*
Y183545D01*
D02*
G37*
G36*
X1521236Y243730D02*
X1506270D01*
Y225290D01*
X1516481Y229520D01*
X1521236Y241000D01*
Y243730D01*
D02*
G37*
G36*
X1503730D02*
X1488764D01*
Y241000D01*
X1493519Y229520D01*
X1503730Y225290D01*
Y243730D01*
D02*
G37*
G36*
X1391792Y313730D02*
X1375000D01*
X1358208D01*
X1362754Y302754D01*
X1364176Y302165D01*
Y169252D01*
X1363519Y168981D01*
X1359290Y158770D01*
X1390710D01*
X1386481Y168981D01*
X1385824Y169252D01*
Y302165D01*
X1387246Y302754D01*
X1391792Y313730D01*
D02*
G37*
G36*
X1450400Y265236D02*
X1438920Y260480D01*
X1434164Y249000D01*
Y241000D01*
X1438920Y229520D01*
X1439576Y229247D01*
Y169252D01*
X1438920Y168981D01*
X1434164Y157500D01*
X1438920Y146019D01*
X1450400Y141264D01*
X1461881Y146019D01*
X1466636Y157500D01*
X1461881Y168981D01*
X1461224Y169252D01*
Y229247D01*
X1461880Y229520D01*
X1466636Y241000D01*
Y249000D01*
X1461880Y260480D01*
X1450400Y265236D01*
D02*
G37*
G36*
X1663545Y168730D02*
X1650000D01*
X1636455D01*
X1640050Y160050D01*
X1645157Y157935D01*
Y156665D01*
X1640050Y154550D01*
X1635929Y144600D01*
X1640050Y134650D01*
X1650000Y130529D01*
X1659950Y134650D01*
X1664071Y144600D01*
X1659950Y154550D01*
X1654843Y156665D01*
Y157935D01*
X1659950Y160050D01*
X1663545Y168730D01*
D02*
G37*
G36*
X1390710Y156230D02*
X1376270D01*
Y141790D01*
X1386481Y146019D01*
X1390710Y156230D01*
D02*
G37*
G36*
X1373730D02*
X1359290D01*
X1363519Y146019D01*
X1373730Y141790D01*
Y156230D01*
D02*
G37*
G36*
X1503730Y264710D02*
X1493519Y260480D01*
X1488764Y249000D01*
Y246270D01*
X1503730D01*
Y264710D01*
D02*
G37*
G36*
X1672500Y314818D02*
X1660254Y309746D01*
X1655182Y297500D01*
X1660254Y285254D01*
X1672500Y280182D01*
X1684746Y285254D01*
X1689818Y297500D01*
X1684746Y309746D01*
X1672500Y314818D01*
D02*
G37*
G36*
X1506270Y264710D02*
Y246270D01*
X1521236D01*
Y249000D01*
X1516481Y260480D01*
X1506270Y264710D01*
D02*
G37*
G36*
X1376270Y331792D02*
Y316270D01*
X1391792D01*
X1387246Y327246D01*
X1376270Y331792D01*
D02*
G37*
G36*
X1373730Y331792D02*
X1362754Y327246D01*
X1358208Y316270D01*
X1373730D01*
Y331792D01*
D02*
G37*
G36*
X1251270Y584845D02*
Y572570D01*
X1263545D01*
X1259950Y581250D01*
X1251270Y584845D01*
D02*
G37*
G36*
X1248730Y584845D02*
X1240050Y581250D01*
X1236455Y572570D01*
X1248730D01*
Y584845D01*
D02*
G37*
G36*
X1168750Y645018D02*
Y636250D01*
X1177518D01*
X1174950Y642450D01*
X1168750Y645018D01*
D02*
G37*
G36*
X1161250D02*
X1155050Y642450D01*
X1152482Y636250D01*
X1161250D01*
Y645018D01*
D02*
G37*
G36*
X1177518Y628750D02*
X1168750D01*
Y619982D01*
X1174950Y622550D01*
X1177518Y628750D01*
D02*
G37*
G36*
X1161250D02*
X1152482D01*
X1155050Y622550D01*
X1161250Y619982D01*
Y628750D01*
D02*
G37*
G36*
X1310000Y526236D02*
X1298519Y521480D01*
X1293764Y510000D01*
X1298519Y498520D01*
X1310000Y493764D01*
X1321481Y498520D01*
X1326236Y510000D01*
X1321481Y521480D01*
X1310000Y526236D01*
D02*
G37*
G36*
X1689292Y568730D02*
X1673770D01*
Y553208D01*
X1684746Y557754D01*
X1689292Y568730D01*
D02*
G37*
G36*
X1671230D02*
X1655708D01*
X1660254Y557754D01*
X1671230Y553208D01*
Y568730D01*
D02*
G37*
G36*
X1362500Y594818D02*
X1350254Y589746D01*
X1345182Y577500D01*
X1350254Y565254D01*
X1362500Y560182D01*
X1374746Y565254D01*
X1379818Y577500D01*
X1374746Y589746D01*
X1362500Y594818D01*
D02*
G37*
G36*
X1507500Y558683D02*
X1506505Y558271D01*
X1505429D01*
X1505429Y558271D01*
X1488974Y551455D01*
X1488974D01*
X1488212Y550694D01*
X1487218Y550282D01*
X1486806Y549288D01*
X1486045Y548526D01*
Y548526D01*
X1479229Y532071D01*
X1479229Y532071D01*
Y530994D01*
X1478817Y530000D01*
X1479229Y529006D01*
Y527929D01*
X1479229Y527929D01*
X1486045Y511474D01*
Y511474D01*
X1486806Y510712D01*
X1487218Y509718D01*
X1488212Y509306D01*
X1488974Y508545D01*
X1488974D01*
X1505429Y501729D01*
X1505429Y501729D01*
X1506505D01*
X1507500Y501317D01*
X1508495Y501729D01*
X1509571D01*
X1509571Y501729D01*
X1526026Y508545D01*
X1526026D01*
X1526788Y509306D01*
X1527782Y509718D01*
X1528194Y510712D01*
X1528955Y511474D01*
Y511474D01*
X1535771Y527929D01*
X1535771Y527929D01*
Y529006D01*
X1536183Y530000D01*
X1535771Y530994D01*
Y532071D01*
X1535771Y532071D01*
X1528955Y548526D01*
Y548526D01*
X1528194Y549288D01*
X1527782Y550282D01*
X1526788Y550694D01*
X1526026Y551455D01*
X1526026D01*
X1509571Y558271D01*
X1509571Y558271D01*
X1508495D01*
X1507500Y558683D01*
D02*
G37*
G36*
X1673770Y586792D02*
Y571270D01*
X1689292D01*
X1684746Y582246D01*
X1673770Y586792D01*
D02*
G37*
G36*
X1671230Y586792D02*
X1660254Y582246D01*
X1655708Y571270D01*
X1671230D01*
Y586792D01*
D02*
G37*
G36*
X1659790Y847500D02*
X1645350D01*
X1649579Y837290D01*
X1659790Y833060D01*
Y847500D01*
D02*
G37*
G36*
X1481990Y865006D02*
X1470509Y860250D01*
X1465754Y848770D01*
X1470509Y837290D01*
X1481990Y832534D01*
X1493470Y837290D01*
X1498226Y848770D01*
X1493470Y860250D01*
X1481990Y865006D01*
D02*
G37*
G36*
X1659790Y864480D02*
X1649579Y860250D01*
X1645350Y850040D01*
X1659790D01*
Y864480D01*
D02*
G37*
G36*
X1676770Y847500D02*
X1662330D01*
Y833060D01*
X1672540Y837290D01*
X1676770Y847500D01*
D02*
G37*
G36*
X1662330Y864480D02*
Y850040D01*
X1676770D01*
X1672540Y860250D01*
X1662330Y864480D01*
D02*
G37*
G36*
X1676770Y955000D02*
X1662330D01*
Y940560D01*
X1672540Y944790D01*
X1676770Y955000D01*
D02*
G37*
G36*
X1659790D02*
X1645350D01*
X1649579Y944790D01*
X1659790Y940560D01*
Y955000D01*
D02*
G37*
G36*
X1662330Y971980D02*
Y957540D01*
X1676770D01*
X1672540Y967750D01*
X1662330Y971980D01*
D02*
G37*
G36*
X1659790Y971980D02*
X1649579Y967750D01*
X1645350Y957540D01*
X1659790D01*
Y971980D01*
D02*
G37*
G36*
X1481990Y972506D02*
X1470509Y967750D01*
X1465754Y956270D01*
X1470509Y944790D01*
X1481990Y940034D01*
X1493470Y944790D01*
X1498226Y956270D01*
X1493470Y967750D01*
X1481990Y972506D01*
D02*
G37*
G36*
X1362500Y674818D02*
X1350254Y669746D01*
X1345182Y657500D01*
X1350254Y645254D01*
X1362500Y640182D01*
X1374746Y645254D01*
X1379818Y657500D01*
X1376947Y664431D01*
X1375000Y669132D01*
X1374746Y669746D01*
X1362500Y674818D01*
D02*
G37*
G36*
X1557500Y694818D02*
X1545254Y689746D01*
X1540182Y677500D01*
X1545254Y665254D01*
X1557500Y660182D01*
X1569746Y665254D01*
X1574818Y677500D01*
X1569746Y689746D01*
X1557500Y694818D01*
D02*
G37*
G36*
X1457500D02*
X1445254Y689746D01*
X1440182Y677500D01*
X1445254Y665254D01*
X1457500Y660182D01*
X1469746Y665254D01*
X1474818Y677500D01*
X1469746Y689746D01*
X1457500Y694818D01*
D02*
G37*
G36*
X682570Y586045D02*
Y573770D01*
X694845D01*
X691250Y582450D01*
X682570Y586045D01*
D02*
G37*
G36*
X680030D02*
X671350Y582450D01*
X667755Y573770D01*
X680030D01*
Y586045D01*
D02*
G37*
G36*
X650710Y651230D02*
X636270D01*
Y636790D01*
X646480Y641020D01*
X650710Y651230D01*
D02*
G37*
G36*
X811440Y607466D02*
X799959Y602710D01*
X795204Y591230D01*
X799959Y579749D01*
X811440Y574994D01*
X822921Y579749D01*
X827676Y591230D01*
X822921Y602710D01*
X811440Y607466D01*
D02*
G37*
G36*
X636270Y668210D02*
Y653770D01*
X650710D01*
X646480Y663980D01*
X636270Y668210D01*
D02*
G37*
G36*
X543210Y523730D02*
X528770D01*
Y509290D01*
X538980Y513520D01*
X543210Y523730D01*
D02*
G37*
G36*
X526230Y540710D02*
X516020Y536480D01*
X511790Y526270D01*
X526230D01*
Y540710D01*
D02*
G37*
G36*
Y523730D02*
X511790D01*
X516020Y513520D01*
X526230Y509290D01*
Y523730D01*
D02*
G37*
G36*
X528770Y540710D02*
Y526270D01*
X543210D01*
X538980Y536480D01*
X528770Y540710D01*
D02*
G37*
G36*
X287840Y833210D02*
Y818770D01*
X302280D01*
X298050Y828980D01*
X287840Y833210D01*
D02*
G37*
G36*
X285300Y816230D02*
X270860D01*
X275089Y806020D01*
X285300Y801790D01*
Y816230D01*
D02*
G37*
G36*
X456250Y677518D02*
Y668750D01*
X465018D01*
X462450Y674950D01*
X456250Y677518D01*
D02*
G37*
G36*
X285300Y833210D02*
X275089Y828980D01*
X270860Y818770D01*
X285300D01*
Y833210D01*
D02*
G37*
G36*
X302280Y816230D02*
X287840D01*
Y801790D01*
X298050Y806020D01*
X302280Y816230D01*
D02*
G37*
G36*
X302280Y908730D02*
X287840D01*
Y894290D01*
X298050Y898520D01*
X302280Y908730D01*
D02*
G37*
G36*
X285300D02*
X270860D01*
X275089Y898520D01*
X285300Y894290D01*
Y908730D01*
D02*
G37*
G36*
X287840Y925710D02*
Y911270D01*
X302280D01*
X298050Y921480D01*
X287840Y925710D01*
D02*
G37*
G36*
X285300D02*
X275089Y921480D01*
X270860Y911270D01*
X285300D01*
Y925710D01*
D02*
G37*
G36*
X88000Y662812D02*
X72000D01*
X68173Y661227D01*
X66588Y657400D01*
Y641400D01*
X68173Y637573D01*
X70619Y636560D01*
Y635185D01*
X70050Y634950D01*
X65929Y625000D01*
X70050Y615050D01*
X73950Y613435D01*
Y612165D01*
X70050Y610550D01*
X65929Y600600D01*
X70050Y590650D01*
X80000Y586529D01*
X89950Y590650D01*
X94071Y600600D01*
X89950Y610550D01*
X86050Y612165D01*
Y613435D01*
X89950Y615050D01*
X94071Y625000D01*
X89950Y634950D01*
X89381Y635185D01*
Y636560D01*
X91827Y637573D01*
X93412Y641400D01*
Y657400D01*
X91827Y661227D01*
X88000Y662812D01*
D02*
G37*
G36*
X202500Y631736D02*
X191019Y626980D01*
X186264Y615500D01*
X191019Y604019D01*
X202500Y599264D01*
X213981Y604019D01*
X218736Y615500D01*
X213981Y626980D01*
X202500Y631736D01*
D02*
G37*
G36*
X561250Y658750D02*
X552482D01*
X555050Y652550D01*
X561250Y649982D01*
Y658750D01*
D02*
G37*
G36*
Y675306D02*
X554846Y672654D01*
X552194Y666250D01*
X561250D01*
Y675306D01*
D02*
G37*
G36*
X448750Y677518D02*
X442550Y674950D01*
X439982Y668750D01*
X448750D01*
Y677518D01*
D02*
G37*
G36*
X568750Y675018D02*
Y666250D01*
X577518D01*
X574950Y672450D01*
X568750Y675018D01*
D02*
G37*
G36*
X448750Y661250D02*
X439982D01*
X442550Y655050D01*
X448750Y652482D01*
Y661250D01*
D02*
G37*
G36*
X577518Y658750D02*
X568750D01*
Y649982D01*
X574950Y652550D01*
X577518Y658750D01*
D02*
G37*
G36*
X465018Y661250D02*
X456250D01*
Y652482D01*
X462450Y655050D01*
X465018Y661250D01*
D02*
G37*
G36*
X953545Y393730D02*
X941270D01*
Y381455D01*
X949950Y385050D01*
X953545Y393730D01*
D02*
G37*
G36*
X1028730Y388730D02*
X1016588D01*
Y382000D01*
X1018173Y378173D01*
X1022000Y376588D01*
X1028730D01*
Y388730D01*
D02*
G37*
G36*
X923000Y350912D02*
X916270D01*
Y338770D01*
X928412D01*
Y345500D01*
X926827Y349327D01*
X923000Y350912D01*
D02*
G37*
G36*
X938730Y393730D02*
X926455D01*
X930050Y385050D01*
X938730Y381455D01*
Y393730D01*
D02*
G37*
G36*
X1043412Y388730D02*
X1031270D01*
Y376588D01*
X1038000D01*
X1041827Y378173D01*
X1043412Y382000D01*
Y388730D01*
D02*
G37*
G36*
X913730Y350912D02*
X907000D01*
X903173Y349327D01*
X901588Y345500D01*
Y338770D01*
X913730D01*
Y350912D01*
D02*
G37*
%LPD*%
D12*
X1672500Y397500D02*
Y470000D01*
X1088700Y438800D02*
X1090000Y437500D01*
X1030000Y438800D02*
X1088700D01*
X562500Y665000D02*
X565000Y662500D01*
X927500Y685000D02*
Y710000D01*
X935000Y717500D01*
X1020000D01*
X1025000Y722500D01*
X1049500Y740500D02*
X1077500Y712500D01*
X1017544Y740500D02*
X1049500D01*
X1012044Y735000D02*
X1017544Y740500D01*
X295000Y735000D02*
X1012044D01*
X1672500Y570000D02*
Y572500D01*
X1442500Y407500D02*
X1445000Y405000D01*
X1387500Y407500D02*
X1442500D01*
X1065000Y355000D02*
X1490000D01*
X1559600Y285400D01*
Y245000D02*
Y285400D01*
X1067500Y600000D02*
Y675000D01*
Y580000D02*
Y600000D01*
Y675000D02*
X1077500Y685000D01*
X1067500Y600000D02*
X1100000Y632500D01*
X1132500D01*
X1091900Y580000D02*
X1192500D01*
X1277500Y395000D02*
X1280000Y392500D01*
X1205000Y395000D02*
X1277500D01*
X1375000Y157500D02*
Y315000D01*
X1450400Y245000D02*
X1450400Y245000D01*
Y157500D02*
Y245000D01*
X1215000Y477500D02*
Y547500D01*
X1132500Y395000D02*
X1215000Y477500D01*
X1060000Y395000D02*
X1132500D01*
X1020000Y547500D02*
X1215000D01*
X1240000Y522500D01*
X1250000D01*
X1120000Y467500D02*
X1146304Y493804D01*
X1052500Y467500D02*
X1120000D01*
X997500Y522500D02*
X1052500Y467500D01*
X1146304Y493804D02*
Y505000D01*
X987500Y522500D02*
X997500D01*
X940000Y395000D02*
Y407500D01*
X780000Y97500D02*
X810000D01*
X770000Y107500D02*
X780000Y97500D01*
X770000Y107500D02*
Y169156D01*
X870000Y235000D02*
X1012500D01*
X797500Y162500D02*
X870000Y235000D01*
X797500Y140000D02*
Y162500D01*
X770000Y169156D02*
X913944Y313100D01*
X915000D01*
X1032500Y147500D02*
Y157500D01*
X997500Y192500D02*
X1032500Y157500D01*
X875000Y192500D02*
X997500D01*
X872500Y195000D02*
X875000Y192500D01*
X692500Y355000D02*
Y436287D01*
X696300Y440087D01*
Y476300D01*
X752500Y532500D01*
X947500D01*
X982500Y497500D01*
Y450000D02*
Y497500D01*
X940000Y407500D02*
X982500Y450000D01*
X735000Y395000D02*
Y445000D01*
X787500Y497500D01*
X952500D01*
X735000Y357500D02*
Y395000D01*
Y357500D02*
X770000Y322500D01*
X835000D01*
X857500Y300000D01*
Y287500D02*
Y300000D01*
X727500Y157500D02*
X857500Y287500D01*
X702500Y157500D02*
X727500D01*
X685000Y175000D02*
X702500Y157500D01*
X685000Y175000D02*
Y225000D01*
X672500Y237500D02*
X685000Y225000D01*
X635000Y237500D02*
X672500D01*
X612500Y215000D02*
X635000Y237500D01*
X612500Y182500D02*
Y215000D01*
X923800Y458800D02*
X940000D01*
X822500Y357500D02*
X923800Y458800D01*
X712500Y292500D02*
X820000D01*
X627500Y377500D02*
X712500Y292500D01*
X610000Y377500D02*
X627500D01*
X617956Y395000D02*
X630000D01*
X617456Y395500D02*
X617956Y395000D01*
X602544Y395500D02*
X617456D01*
X602044Y395000D02*
X602544Y395500D01*
X480000Y395000D02*
X602044D01*
X810000Y73100D02*
X853100D01*
X867500Y87500D01*
Y117500D01*
X845000Y140000D02*
X867500Y117500D01*
X797500Y140000D02*
X845000D01*
X655000Y167500D02*
Y207500D01*
X637500Y150000D02*
X655000Y167500D01*
X492500Y150000D02*
X637500D01*
X470000Y172500D02*
X492500Y150000D01*
X470000Y172500D02*
Y253100D01*
X1012500Y235000D02*
X1085000Y307500D01*
X240000Y575000D02*
X300000D01*
X225000D02*
X240000D01*
X681300Y446300D02*
Y572500D01*
X630000Y395000D02*
X681300Y446300D01*
X300000Y575000D02*
X480000Y395000D01*
X195000Y277500D02*
X440000D01*
X718800Y207500D02*
Y246200D01*
X627500Y337500D02*
X718800Y246200D01*
X450000Y337500D02*
X627500D01*
X427500Y315000D02*
X450000Y337500D01*
X427500Y290000D02*
Y315000D01*
Y290000D02*
X440000Y277500D01*
X470000D01*
X560000Y210070D02*
Y270000D01*
X528100Y301900D02*
X560000Y270000D01*
X470000Y301900D02*
X528100D01*
X525000Y440000D02*
X560000D01*
X495000Y470000D02*
X525000Y440000D01*
X495000Y470000D02*
Y515000D01*
X445000Y565000D02*
X495000Y515000D01*
X85000Y387500D02*
X195000Y277500D01*
X85000Y387500D02*
Y522500D01*
X240000Y575000D02*
X255000Y590000D01*
Y622500D01*
X107500Y770000D02*
X255000Y622500D01*
X107500Y770000D02*
Y817500D01*
X107500Y910000D02*
X120000D01*
X295000Y735000D01*
X1077500Y685000D02*
Y712500D01*
X1043100Y570600D02*
Y580000D01*
X1020000Y547500D02*
X1043100Y570600D01*
X930000Y547500D02*
X1020000D01*
X897500Y580000D02*
X930000Y547500D01*
X897500Y580000D02*
Y685000D01*
D13*
X811440Y591230D02*
D03*
X990510D02*
D03*
X1146304Y505000D02*
D03*
X1065000Y510000D02*
D03*
X1280000Y392500D02*
D03*
X286570Y817500D02*
D03*
X107500Y817500D02*
D03*
X1072500Y187500D02*
D03*
X1037500Y73100D02*
D03*
X692500Y355000D02*
D03*
X560000Y440000D02*
D03*
X970000Y78100D02*
D03*
X445000Y480000D02*
D03*
X560000Y210070D02*
D03*
X1090000Y437500D02*
D03*
X1450400Y157500D02*
D03*
X722500Y78100D02*
D03*
X1310000Y510000D02*
D03*
X202500Y615500D02*
D03*
X1375000Y157500D02*
D03*
X642500Y78100D02*
D03*
X1080000Y245000D02*
D03*
X797500Y140000D02*
D03*
X1250000Y650000D02*
D03*
X292500Y377500D02*
D03*
X85000Y522500D02*
D03*
X107500Y910000D02*
D03*
X286570D02*
D03*
X1661060Y956270D02*
D03*
X1481990D02*
D03*
X837500Y685000D02*
D03*
X867500D02*
D03*
X927500D02*
D03*
X897500D02*
D03*
X1017500D02*
D03*
X1047500D02*
D03*
X987500D02*
D03*
X957500D02*
D03*
X1077500D02*
D03*
X1108010D02*
D03*
X1661060Y848770D02*
D03*
X1481990D02*
D03*
X635000Y652500D02*
D03*
X527500Y525000D02*
D03*
X612500Y182500D02*
D03*
D14*
X1715000Y75000D02*
D03*
X75000D02*
D03*
X1043100Y580000D02*
D03*
D15*
X1375000Y315000D02*
D03*
X1295000D02*
D03*
X940000Y162500D02*
D03*
X860000D02*
D03*
X1672500Y297500D02*
D03*
Y397500D02*
D03*
X387500Y437500D02*
D03*
Y357500D02*
D03*
X1672500Y470000D02*
D03*
Y570000D02*
D03*
X1362500Y577500D02*
D03*
Y657500D02*
D03*
X1557500Y677500D02*
D03*
X1457500D02*
D03*
D16*
X810000Y48700D02*
D03*
Y73100D02*
D03*
X1250000Y571300D02*
D03*
Y546900D02*
D03*
X1067500Y580000D02*
D03*
X1091900D02*
D03*
X1030000Y438800D02*
D03*
Y414400D02*
D03*
X915000Y313100D02*
D03*
Y288700D02*
D03*
X470000Y277500D02*
D03*
Y301900D02*
D03*
X257500Y460600D02*
D03*
Y485000D02*
D03*
X80000Y625000D02*
D03*
Y600600D02*
D03*
X940000Y395000D02*
D03*
Y458800D02*
D03*
X1650000Y144600D02*
D03*
Y170000D02*
D03*
X655000Y207500D02*
D03*
X718800D02*
D03*
X681300Y572500D02*
D03*
X617500D02*
D03*
X565000Y662500D02*
D03*
X452500Y665000D02*
D03*
X1025000Y722500D02*
D03*
X1165000Y632500D02*
D03*
X1445000Y405000D02*
D03*
X1387500Y407500D02*
D03*
X1132500Y632500D02*
D03*
X1192500Y580000D02*
D03*
X1205000Y395000D02*
D03*
X987500Y522500D02*
D03*
X1032500Y147500D02*
D03*
X872500Y195000D02*
D03*
X952500Y497500D02*
D03*
X735000Y395000D02*
D03*
X822500Y357500D02*
D03*
X820000Y292500D02*
D03*
X610000Y377500D02*
D03*
X1085000Y307500D02*
D03*
X445000Y565000D02*
D03*
X225000Y575000D02*
D03*
D17*
X810000Y97500D02*
D03*
X1250000Y522500D02*
D03*
X1030000Y390000D02*
D03*
X915000Y337500D02*
D03*
X470000Y253100D02*
D03*
X257500Y509400D02*
D03*
X80000Y649400D02*
D03*
D18*
X1559600Y245000D02*
D03*
X1505000D02*
D03*
X1450400D02*
D03*
M02*
