G04 Layer_Color=65535*
%FSLAX44Y44*%
%MOMM*%
G71*
G01*
G75*
%ADD19C,0.2540*%
%ADD20C,0.2000*%
%ADD21R,0.1270X1.2700*%
%ADD22R,1.2700X0.1270*%
D19*
X1388980Y315000D02*
G03*
X1388980Y315000I-53980J0D01*
G01*
X797300Y37810D02*
G03*
X797340Y110823I10336J36501D01*
G01*
X1262700Y582190D02*
G03*
X1262660Y509177I-10336J-36501D01*
G01*
X1102790Y567300D02*
G03*
X1029777Y567340I-36501J10336D01*
G01*
X1042700Y449690D02*
G03*
X1042660Y376677I-10336J-36501D01*
G01*
X902300Y277810D02*
G03*
X902340Y350823I10336J36501D01*
G01*
X482700Y312790D02*
G03*
X482660Y239777I-10336J-36501D01*
G01*
X244800Y449710D02*
G03*
X244840Y522723I10336J36501D01*
G01*
X67300Y589710D02*
G03*
X67340Y662723I10336J36501D01*
G01*
X953980Y162500D02*
G03*
X953980Y162500I-53980J0D01*
G01*
X1676700Y157300D02*
G03*
X1676700Y157300I-26700J0D01*
G01*
X441480Y397500D02*
G03*
X441480Y397500I-53980J0D01*
G01*
X1416480Y617500D02*
G03*
X1416480Y617500I-53980J0D01*
G01*
X827950Y567100D02*
Y612820D01*
X976540Y567100D02*
Y612820D01*
X827950D02*
X976540D01*
X827950Y567100D02*
X976540D01*
X1127254Y485950D02*
Y524050D01*
Y485950D02*
X1165354D01*
Y524050D01*
X1127254D02*
X1165354D01*
X1045950Y490950D02*
Y529050D01*
Y490950D02*
X1084050D01*
Y529050D01*
X1045950D02*
X1084050D01*
X1348330Y302300D02*
X1348330Y328970D01*
X1333090Y313730D02*
X1348330Y328970D01*
X1348330Y298490D02*
Y302300D01*
X1333090Y298490D02*
Y328970D01*
X1316580Y313730D02*
X1333090D01*
X1348330Y298490D01*
X1333090Y313730D02*
X1359760D01*
X1260950Y373450D02*
Y411550D01*
Y373450D02*
X1299050D01*
Y411550D01*
X1260950D02*
X1299050D01*
X797300Y37810D02*
Y110200D01*
X124010Y793370D02*
X272600D01*
X124010Y839090D02*
X272600Y839090D01*
Y793370D02*
Y839090D01*
X124010Y793370D02*
Y839090D01*
X1262700Y582190D02*
X1262700Y509800D01*
X1030400Y567300D02*
X1102790D01*
X1042700Y377300D02*
Y449690D01*
X902300Y277810D02*
Y350200D01*
X482700Y240400D02*
Y312790D01*
X244800Y449710D02*
Y522100D01*
X67300Y589710D02*
Y662100D01*
X1053450Y168450D02*
X1091550D01*
Y206550D01*
X1053450D02*
X1091550D01*
X1053450Y168450D02*
Y206550D01*
X1018450Y54050D02*
Y92150D01*
Y54050D02*
X1056550D01*
Y92150D01*
X1018450D02*
X1056550D01*
X673450Y335950D02*
Y374050D01*
Y335950D02*
X711550D01*
Y374050D01*
X673450D02*
X711550D01*
X540950Y420950D02*
Y459050D01*
Y420950D02*
X579050D01*
Y459050D01*
X540950D02*
X579050D01*
X913330Y149800D02*
X913330Y176470D01*
X898090Y161230D02*
X913330Y176470D01*
X913330Y145990D02*
Y149800D01*
X898090Y145990D02*
Y176470D01*
X881580Y161230D02*
X898090D01*
X913330Y145990D01*
X898090Y161230D02*
X924760D01*
X950950Y59050D02*
Y97150D01*
Y59050D02*
X989050D01*
Y97150D01*
X950950D02*
X989050D01*
X425950Y460950D02*
Y499050D01*
Y460950D02*
X464050D01*
Y499050D01*
X425950D02*
X464050D01*
X540950Y191020D02*
Y229120D01*
Y191020D02*
X579050D01*
Y229120D01*
X540950D02*
X579050D01*
X1070950Y418450D02*
Y456550D01*
Y418450D02*
X1109050D01*
Y456550D01*
X1070950D02*
X1109050D01*
X1431350Y138450D02*
Y176550D01*
Y138450D02*
X1469450D01*
Y176550D01*
X1431350D02*
X1469450D01*
X940000Y409270D02*
Y423240D01*
X927300Y423240D02*
X952700D01*
X927300Y433400D02*
X952700D01*
X940000D02*
Y447370D01*
X920950Y394030D02*
Y461340D01*
Y394030D02*
X928570D01*
X920950Y461340D02*
X929840D01*
X950160D02*
X959050D01*
X951430Y394030D02*
X959050D01*
Y461340D01*
X703450Y59050D02*
Y97150D01*
Y59050D02*
X741550D01*
Y97150D01*
X703450D02*
X741550D01*
X1290950Y490950D02*
Y529050D01*
Y490950D02*
X1329050D01*
Y529050D01*
X1290950D02*
X1329050D01*
X221550Y596450D02*
Y634550D01*
X183450D02*
X221550D01*
X183450Y596450D02*
Y634550D01*
Y596450D02*
X221550D01*
X1669050Y140790D02*
Y147140D01*
X1662700D02*
X1662700Y135710D01*
X1656350Y133170D02*
Y136980D01*
X1650000Y130600D02*
Y134440D01*
X1643650Y131900D02*
Y136980D01*
X1637300Y134440D02*
Y144600D01*
X1630950Y145870D02*
X1630950Y139520D01*
X1627140Y145870D02*
X1641110D01*
X1660160Y147140D02*
X1674130Y147140D01*
X1425000Y242460D02*
X1436430D01*
X1425000D02*
Y584090D01*
X1586290D01*
Y242460D02*
Y584090D01*
X1572320Y242460D02*
X1586290D01*
X1355950Y138450D02*
Y176550D01*
Y138450D02*
X1394050D01*
Y176550D01*
X1355950D02*
X1394050D01*
X1659800Y335600D02*
X1686470D01*
X1671230Y350840D02*
X1686470Y335600D01*
X1655990D02*
X1659800D01*
X1655990Y350840D02*
X1686470D01*
X1671230D02*
Y382590D01*
X1655990Y335600D02*
X1671230Y350840D01*
Y315280D02*
Y350840D01*
X623450Y59050D02*
Y97150D01*
Y59050D02*
X661550D01*
Y97150D01*
X623450D02*
X661550D01*
X373530Y410830D02*
X400200D01*
X373530D02*
X388770Y395590D01*
X400200Y410830D02*
X404010D01*
X373530Y395590D02*
X404010Y395590D01*
X388770Y379080D02*
Y395590D01*
X404010Y410830D01*
X388770Y395590D02*
Y422260D01*
X669270Y207500D02*
X683240D01*
X683240Y194800D02*
Y220200D01*
X693400Y194800D02*
Y220200D01*
X693400Y207500D02*
X707370D01*
X654030Y226550D02*
X721340D01*
X654030Y218930D02*
Y226550D01*
X721340Y217660D02*
X721340Y226550D01*
X721340Y197340D02*
X721340Y188450D01*
X654030D02*
Y196070D01*
Y188450D02*
X721340D01*
X1060950Y225950D02*
X1099050D01*
Y264050D01*
X1060950D02*
X1099050D01*
X1060950Y225950D02*
Y264050D01*
X1659800Y508100D02*
X1686470D01*
X1671230Y523340D02*
X1686470Y508100D01*
X1655990D02*
X1659800D01*
X1655990Y523340D02*
X1686470D01*
X1671230D02*
Y555090D01*
X1655990Y508100D02*
X1671230Y523340D01*
Y487780D02*
Y523340D01*
X778450Y120950D02*
Y159050D01*
Y120950D02*
X816550D01*
Y159050D01*
X778450D02*
X816550D01*
X1230950Y630950D02*
Y669050D01*
Y630950D02*
X1269050D01*
Y669050D01*
X1230950D02*
X1269050D01*
X1349800Y604170D02*
X1376470D01*
X1361230Y619410D02*
X1376470Y604170D01*
X1345990D02*
X1349800D01*
X1345990Y619410D02*
X1376470Y619410D01*
X1361230Y619410D02*
Y635920D01*
X1345990Y604170D02*
X1361230Y619410D01*
Y592740D02*
Y619410D01*
X311550Y358450D02*
Y396550D01*
X273450D02*
X311550D01*
X273450Y358450D02*
Y396550D01*
Y358450D02*
X311550D01*
X65950Y503450D02*
Y541550D01*
Y503450D02*
X104050D01*
Y541550D01*
X65950D02*
X104050D01*
X1519400Y664800D02*
X1519400Y691470D01*
X1504160Y676230D02*
X1519400Y691470D01*
X1519400Y660990D02*
Y664800D01*
X1504160Y660990D02*
Y691470D01*
X1472410Y676230D02*
X1504160D01*
X1519400Y660990D01*
X1504160Y676230D02*
X1539720D01*
X124010Y885870D02*
Y931590D01*
X272600D02*
X272600Y885870D01*
X124010Y931590D02*
X272600D01*
X124010Y885870D02*
X272600D01*
X1644550Y934680D02*
Y980400D01*
X1495960Y934680D02*
Y980400D01*
Y934680D02*
X1644550D01*
X1495960Y980400D02*
X1644550D01*
X812100Y678650D02*
Y697700D01*
X824800Y710400D01*
X1129600D01*
Y700240D02*
Y710400D01*
Y665950D02*
Y700240D01*
X812100Y665950D02*
X1129600D01*
X812100D02*
Y678650D01*
X1644550Y827180D02*
Y872900D01*
X1495960Y827180D02*
Y872900D01*
Y827180D02*
X1644550D01*
X1495960Y872900D02*
X1644550D01*
X615950Y633450D02*
Y671550D01*
Y633450D02*
X654050D01*
Y671550D01*
X615950D02*
X654050D01*
X653060Y572500D02*
X667030D01*
X653060Y559800D02*
Y585200D01*
X642900Y559800D02*
Y585200D01*
X628930Y572500D02*
X642900D01*
X614960Y553450D02*
X682270D01*
Y561070D01*
X614960Y553450D02*
X614960Y562340D01*
X614960Y591550D02*
X614960Y582660D01*
X682270Y583930D02*
Y591550D01*
X614960D02*
X682270D01*
X508450Y505950D02*
Y544050D01*
Y505950D02*
X546550D01*
Y544050D01*
X508450D02*
X546550D01*
X593450Y163450D02*
Y201550D01*
Y163450D02*
X631550D01*
Y201550D01*
X593450D02*
X631550D01*
X621069Y622566D02*
X618530Y625105D01*
X613451D01*
X610912Y622566D01*
Y612409D01*
X613451Y609870D01*
X618530D01*
X621069Y612409D01*
X626147Y609870D02*
X631225D01*
X628686D01*
Y625105D01*
X626147Y622566D01*
X658567Y257072D02*
X656028Y259611D01*
X650949D01*
X648410Y257072D01*
Y246915D01*
X650949Y244376D01*
X656028D01*
X658567Y246915D01*
X673802Y244376D02*
X663645D01*
X673802Y254533D01*
Y257072D01*
X671263Y259611D01*
X666184D01*
X663645Y257072D01*
X923367Y488038D02*
X920827Y490577D01*
X915749D01*
X913210Y488038D01*
Y477881D01*
X915749Y475342D01*
X920827D01*
X923367Y477881D01*
X928445Y488038D02*
X930984Y490577D01*
X936063D01*
X938602Y488038D01*
Y485499D01*
X936063Y482960D01*
X933523D01*
X936063D01*
X938602Y480420D01*
Y477881D01*
X936063Y475342D01*
X930984D01*
X928445Y477881D01*
X1624694Y208211D02*
Y192976D01*
Y200593D01*
X1634851D01*
Y208211D01*
Y192976D01*
X1639929Y208211D02*
Y192976D01*
X1650086D01*
X1655164D02*
X1660242D01*
X1657703D01*
Y208211D01*
X1655164Y205672D01*
X99052Y848066D02*
Y863301D01*
X106670D01*
X109209Y860762D01*
Y855684D01*
X106670Y853144D01*
X99052D01*
X104130D02*
X109209Y848066D01*
X114287D02*
X119365D01*
X116826D01*
Y863301D01*
X114287Y860762D01*
X148040Y586056D02*
Y601291D01*
X155658D01*
X158197Y598752D01*
Y593673D01*
X155658Y591134D01*
X148040D01*
X153118D02*
X158197Y586056D01*
X173432D02*
X163275D01*
X173432Y596213D01*
Y598752D01*
X170893Y601291D01*
X165814D01*
X163275Y598752D01*
X140982Y674140D02*
Y689375D01*
X148600D01*
X151139Y686836D01*
Y681758D01*
X148600Y679218D01*
X140982D01*
X146060D02*
X151139Y674140D01*
X156217Y686836D02*
X158756Y689375D01*
X163835D01*
X166374Y686836D01*
Y684297D01*
X163835Y681758D01*
X161295D01*
X163835D01*
X166374Y679218D01*
Y676679D01*
X163835Y674140D01*
X158756D01*
X156217Y676679D01*
X598650Y314154D02*
Y329389D01*
X606268D01*
X608807Y326850D01*
Y321772D01*
X606268Y319232D01*
X598650D01*
X603728D02*
X608807Y314154D01*
X621503D02*
Y329389D01*
X613885Y321772D01*
X624042D01*
X326148Y579174D02*
Y594409D01*
X333766D01*
X336305Y591870D01*
Y586791D01*
X333766Y584252D01*
X326148D01*
X331226D02*
X336305Y579174D01*
X351540Y594409D02*
X341383D01*
Y586791D01*
X346461Y589331D01*
X349001D01*
X351540Y586791D01*
Y581713D01*
X349001Y579174D01*
X343922D01*
X341383Y581713D01*
X383606Y579148D02*
Y594383D01*
X391223D01*
X393763Y591844D01*
Y586766D01*
X391223Y584226D01*
X383606D01*
X388684D02*
X393763Y579148D01*
X408998Y594383D02*
X403919Y591844D01*
X398841Y586766D01*
Y581687D01*
X401380Y579148D01*
X406459D01*
X408998Y581687D01*
Y584226D01*
X406459Y586766D01*
X398841D01*
X518492Y344044D02*
Y359279D01*
X526110D01*
X528649Y356740D01*
Y351661D01*
X526110Y349122D01*
X518492D01*
X523570D02*
X528649Y344044D01*
X533727Y359279D02*
X543884D01*
Y356740D01*
X533727Y346583D01*
Y344044D01*
X556004Y391596D02*
Y406831D01*
X563621D01*
X566161Y404292D01*
Y399213D01*
X563621Y396674D01*
X556004D01*
X561082D02*
X566161Y391596D01*
X571239Y404292D02*
X573778Y406831D01*
X578857D01*
X581396Y404292D01*
Y401753D01*
X578857Y399213D01*
X581396Y396674D01*
Y394135D01*
X578857Y391596D01*
X573778D01*
X571239Y394135D01*
Y396674D01*
X573778Y399213D01*
X571239Y401753D01*
Y404292D01*
X573778Y399213D02*
X578857D01*
X458634Y171534D02*
Y186769D01*
X466251D01*
X468791Y184230D01*
Y179151D01*
X466251Y176612D01*
X458634D01*
X463712D02*
X468791Y171534D01*
X473869Y174073D02*
X476408Y171534D01*
X481487D01*
X484026Y174073D01*
Y184230D01*
X481487Y186769D01*
X476408D01*
X473869Y184230D01*
Y181691D01*
X476408Y179151D01*
X484026D01*
X738588Y229178D02*
Y244413D01*
X746206D01*
X748745Y241874D01*
Y236796D01*
X746206Y234256D01*
X738588D01*
X743666D02*
X748745Y229178D01*
X753823D02*
X758901D01*
X756362D01*
Y244413D01*
X753823Y241874D01*
X766519D02*
X769058Y244413D01*
X774137D01*
X776676Y241874D01*
Y231717D01*
X774137Y229178D01*
X769058D01*
X766519Y231717D01*
Y241874D01*
X808506Y266676D02*
Y281911D01*
X816124D01*
X818663Y279372D01*
Y274293D01*
X816124Y271754D01*
X808506D01*
X813584D02*
X818663Y266676D01*
X823741D02*
X828819D01*
X826280D01*
Y281911D01*
X823741Y279372D01*
X836437Y266676D02*
X841515D01*
X838976D01*
Y281911D01*
X836437Y279372D01*
X705972Y166762D02*
Y181997D01*
X713589D01*
X716129Y179458D01*
Y174380D01*
X713589Y171840D01*
X705972D01*
X711050D02*
X716129Y166762D01*
X721207D02*
X726285D01*
X723746D01*
Y181997D01*
X721207Y179458D01*
X744060Y166762D02*
X733903D01*
X744060Y176919D01*
Y179458D01*
X741520Y181997D01*
X736442D01*
X733903Y179458D01*
X980974Y266690D02*
Y281925D01*
X988592D01*
X991131Y279386D01*
Y274307D01*
X988592Y271768D01*
X980974D01*
X986052D02*
X991131Y266690D01*
X996209D02*
X1001287D01*
X998748D01*
Y281925D01*
X996209Y279386D01*
X1008905D02*
X1011444Y281925D01*
X1016523D01*
X1019062Y279386D01*
Y276847D01*
X1016523Y274307D01*
X1013983D01*
X1016523D01*
X1019062Y271768D01*
Y269229D01*
X1016523Y266690D01*
X1011444D01*
X1008905Y269229D01*
X980986Y201532D02*
Y216767D01*
X988604D01*
X991143Y214228D01*
Y209149D01*
X988604Y206610D01*
X980986D01*
X986064D02*
X991143Y201532D01*
X996221D02*
X1001299D01*
X998760D01*
Y216767D01*
X996221Y214228D01*
X1016535Y201532D02*
Y216767D01*
X1008917Y209149D01*
X1019074D01*
X1073456Y386618D02*
Y401853D01*
X1081074D01*
X1083613Y399314D01*
Y394235D01*
X1081074Y391696D01*
X1073456D01*
X1078534D02*
X1083613Y386618D01*
X1088691D02*
X1093769D01*
X1091230D01*
Y401853D01*
X1088691Y399314D01*
X1111544Y401853D02*
X1101387D01*
Y394235D01*
X1106465Y396775D01*
X1109005D01*
X1111544Y394235D01*
Y389157D01*
X1109005Y386618D01*
X1103926D01*
X1101387Y389157D01*
X1128443Y386703D02*
Y401938D01*
X1136060D01*
X1138600Y399399D01*
Y394320D01*
X1136060Y391781D01*
X1128443D01*
X1133521D02*
X1138600Y386703D01*
X1143678D02*
X1148756D01*
X1146217D01*
Y401938D01*
X1143678Y399399D01*
X1166531Y401938D02*
X1161452Y399399D01*
X1156374Y394320D01*
Y389242D01*
X1158913Y386703D01*
X1163991D01*
X1166531Y389242D01*
Y391781D01*
X1163991Y394320D01*
X1156374D01*
X748562Y376698D02*
Y391933D01*
X756180D01*
X758719Y389394D01*
Y384315D01*
X756180Y381776D01*
X748562D01*
X753640D02*
X758719Y376698D01*
X763797D02*
X768875D01*
X766336D01*
Y391933D01*
X763797Y389394D01*
X776493Y391933D02*
X786650D01*
Y389394D01*
X776493Y379237D01*
Y376698D01*
X825000Y540000D02*
Y555235D01*
X832617D01*
X835157Y552696D01*
Y547617D01*
X832617Y545078D01*
X825000D01*
X830078D02*
X835157Y540000D01*
X840235D02*
X845313D01*
X842774D01*
Y555235D01*
X840235Y552696D01*
X852931D02*
X855470Y555235D01*
X860548D01*
X863088Y552696D01*
Y550157D01*
X860548Y547617D01*
X863088Y545078D01*
Y542539D01*
X860548Y540000D01*
X855470D01*
X852931Y542539D01*
Y545078D01*
X855470Y547617D01*
X852931Y550157D01*
Y552696D01*
X855470Y547617D02*
X860548D01*
X1145980Y449168D02*
Y464403D01*
X1153597D01*
X1156137Y461864D01*
Y456786D01*
X1153597Y454246D01*
X1145980D01*
X1151058D02*
X1156137Y449168D01*
X1161215D02*
X1166293D01*
X1163754D01*
Y464403D01*
X1161215Y461864D01*
X1173911Y451707D02*
X1176450Y449168D01*
X1181528D01*
X1184068Y451707D01*
Y461864D01*
X1181528Y464403D01*
X1176450D01*
X1173911Y461864D01*
Y459325D01*
X1176450Y456786D01*
X1184068D01*
X1187500Y297500D02*
Y312735D01*
X1195117D01*
X1197657Y310196D01*
Y305117D01*
X1195117Y302578D01*
X1187500D01*
X1192578D02*
X1197657Y297500D01*
X1212892D02*
X1202735D01*
X1212892Y307657D01*
Y310196D01*
X1210353Y312735D01*
X1205274D01*
X1202735Y310196D01*
X1217970D02*
X1220509Y312735D01*
X1225588D01*
X1228127Y310196D01*
Y300039D01*
X1225588Y297500D01*
X1220509D01*
X1217970Y300039D01*
Y310196D01*
X99052Y940522D02*
Y955757D01*
X106670D01*
X109209Y953218D01*
Y948139D01*
X106670Y945600D01*
X99052D01*
X104130D02*
X109209Y940522D01*
X124444D02*
X114287D01*
X124444Y950679D01*
Y953218D01*
X121905Y955757D01*
X116826D01*
X114287Y953218D01*
X129522Y940522D02*
X134600D01*
X132061D01*
Y955757D01*
X129522Y953218D01*
X1182500Y652500D02*
Y667735D01*
X1190117D01*
X1192657Y665196D01*
Y660117D01*
X1190117Y657578D01*
X1182500D01*
X1187578D02*
X1192657Y652500D01*
X1207892D02*
X1197735D01*
X1207892Y662657D01*
Y665196D01*
X1205353Y667735D01*
X1200274D01*
X1197735Y665196D01*
X1223127Y652500D02*
X1212970D01*
X1223127Y662657D01*
Y665196D01*
X1220588Y667735D01*
X1215509D01*
X1212970Y665196D01*
X1245000Y447500D02*
X1229765D01*
Y455117D01*
X1232304Y457657D01*
X1237383D01*
X1239922Y455117D01*
Y447500D01*
Y452578D02*
X1245000Y457657D01*
Y472892D02*
Y462735D01*
X1234843Y472892D01*
X1232304D01*
X1229765Y470353D01*
Y465274D01*
X1232304Y462735D01*
Y477970D02*
X1229765Y480509D01*
Y485588D01*
X1232304Y488127D01*
X1234843D01*
X1237383Y485588D01*
Y483049D01*
Y485588D01*
X1239922Y488127D01*
X1242461D01*
X1245000Y485588D01*
Y480509D01*
X1242461Y477970D01*
X1473476Y989368D02*
Y1004603D01*
X1481093D01*
X1483633Y1002064D01*
Y996985D01*
X1481093Y994446D01*
X1473476D01*
X1478554D02*
X1483633Y989368D01*
X1498868D02*
X1488711D01*
X1498868Y999525D01*
Y1002064D01*
X1496329Y1004603D01*
X1491250D01*
X1488711Y1002064D01*
X1511564Y989368D02*
Y1004603D01*
X1503946Y996985D01*
X1514103D01*
X1473504Y881872D02*
Y897107D01*
X1481122D01*
X1483661Y894568D01*
Y889490D01*
X1481122Y886950D01*
X1473504D01*
X1478582D02*
X1483661Y881872D01*
X1498896D02*
X1488739D01*
X1498896Y892029D01*
Y894568D01*
X1496357Y897107D01*
X1491278D01*
X1488739Y894568D01*
X1514131Y897107D02*
X1503974D01*
Y889490D01*
X1509052Y892029D01*
X1511592D01*
X1514131Y889490D01*
Y884411D01*
X1511592Y881872D01*
X1506513D01*
X1503974Y884411D01*
X1331150Y465566D02*
Y480801D01*
X1338768D01*
X1341307Y478262D01*
Y473184D01*
X1338768Y470644D01*
X1331150D01*
X1336228D02*
X1341307Y465566D01*
X1356542D02*
X1346385D01*
X1356542Y475723D01*
Y478262D01*
X1354003Y480801D01*
X1348924D01*
X1346385Y478262D01*
X1371777Y480801D02*
X1366698Y478262D01*
X1361620Y473184D01*
Y468105D01*
X1364159Y465566D01*
X1369238D01*
X1371777Y468105D01*
Y470644D01*
X1369238Y473184D01*
X1361620D01*
X1553588Y201520D02*
Y216755D01*
X1561205D01*
X1563745Y214216D01*
Y209137D01*
X1561205Y206598D01*
X1553588D01*
X1558666D02*
X1563745Y201520D01*
X1578980D02*
X1568823D01*
X1578980Y211677D01*
Y214216D01*
X1576441Y216755D01*
X1571362D01*
X1568823Y214216D01*
X1584058Y216755D02*
X1594215D01*
Y214216D01*
X1584058Y204059D01*
Y201520D01*
X334910Y475687D02*
Y465530D01*
X339988Y460452D01*
X345067Y465530D01*
Y475687D01*
X350145D02*
Y460452D01*
X357763D01*
X360302Y462991D01*
Y473148D01*
X357763Y475687D01*
X350145D01*
X365380Y460452D02*
X370458D01*
X367919D01*
Y475687D01*
X365380Y473148D01*
X847330Y240625D02*
Y230468D01*
X852408Y225390D01*
X857487Y230468D01*
Y240625D01*
X862565D02*
Y225390D01*
X870183D01*
X872722Y227929D01*
Y238086D01*
X870183Y240625D01*
X862565D01*
X887957Y225390D02*
X877800D01*
X887957Y235547D01*
Y238086D01*
X885418Y240625D01*
X880339D01*
X877800Y238086D01*
X1657387Y604996D02*
Y594839D01*
X1662465Y589761D01*
X1667544Y594839D01*
Y604996D01*
X1672622D02*
Y589761D01*
X1680240D01*
X1682779Y592300D01*
Y602457D01*
X1680240Y604996D01*
X1672622D01*
X1687857Y602457D02*
X1690396Y604996D01*
X1695475D01*
X1698014Y602457D01*
Y599918D01*
X1695475Y597379D01*
X1692935D01*
X1695475D01*
X1698014Y594839D01*
Y592300D01*
X1695475Y589761D01*
X1690396D01*
X1687857Y592300D01*
X1657387Y432496D02*
Y422339D01*
X1662465Y417261D01*
X1667544Y422339D01*
Y432496D01*
X1672622D02*
Y417261D01*
X1680240D01*
X1682779Y419800D01*
Y429957D01*
X1680240Y432496D01*
X1672622D01*
X1695475Y417261D02*
Y432496D01*
X1687857Y424879D01*
X1698014D01*
X1448056Y715529D02*
Y705372D01*
X1453134Y700294D01*
X1458213Y705372D01*
Y715529D01*
X1463291D02*
Y700294D01*
X1470909D01*
X1473448Y702833D01*
Y712990D01*
X1470909Y715529D01*
X1463291D01*
X1488683D02*
X1478526D01*
Y707912D01*
X1483604Y710451D01*
X1486144D01*
X1488683Y707912D01*
Y702833D01*
X1486144Y700294D01*
X1481065D01*
X1478526Y702833D01*
X1309760Y695531D02*
Y685374D01*
X1314838Y680296D01*
X1319917Y685374D01*
Y695531D01*
X1324995D02*
Y680296D01*
X1332613D01*
X1335152Y682835D01*
Y692992D01*
X1332613Y695531D01*
X1324995D01*
X1350387D02*
X1345309Y692992D01*
X1340230Y687914D01*
Y682835D01*
X1342769Y680296D01*
X1347848D01*
X1350387Y682835D01*
Y685374D01*
X1347848Y687914D01*
X1340230D01*
X1310000Y252735D02*
Y242578D01*
X1315078Y237500D01*
X1320157Y242578D01*
Y252735D01*
X1325235D02*
Y237500D01*
X1332853D01*
X1335392Y240039D01*
Y250196D01*
X1332853Y252735D01*
X1325235D01*
X1340470D02*
X1350627D01*
Y250196D01*
X1340470Y240039D01*
Y237500D01*
X68608Y686099D02*
Y675942D01*
X73686Y670864D01*
X78765Y675942D01*
Y686099D01*
X83843D02*
X94000D01*
X88921D01*
Y670864D01*
X99078D02*
X104157D01*
X101617D01*
Y686099D01*
X99078Y683560D01*
X246086Y546145D02*
Y535988D01*
X251164Y530910D01*
X256243Y535988D01*
Y546145D01*
X261321D02*
X271478D01*
X266399D01*
Y530910D01*
X286713D02*
X276556D01*
X286713Y541067D01*
Y543606D01*
X284174Y546145D01*
X279095D01*
X276556Y543606D01*
X439432Y336869D02*
Y326712D01*
X444510Y321634D01*
X449589Y326712D01*
Y336869D01*
X454667D02*
X464824D01*
X459745D01*
Y321634D01*
X469902Y334330D02*
X472441Y336869D01*
X477520D01*
X480059Y334330D01*
Y331791D01*
X477520Y329252D01*
X474981D01*
X477520D01*
X480059Y326712D01*
Y324173D01*
X477520Y321634D01*
X472441D01*
X469902Y324173D01*
X857265Y50000D02*
X867422D01*
X872500Y55078D01*
X867422Y60157D01*
X857265D01*
Y65235D02*
Y75392D01*
Y70313D01*
X872500D01*
Y88088D02*
X857265D01*
X864883Y80470D01*
Y90627D01*
X903516Y374273D02*
Y364116D01*
X908594Y359038D01*
X913673Y364116D01*
Y374273D01*
X918751D02*
X928908D01*
X923829D01*
Y359038D01*
X944143Y374273D02*
X933986D01*
Y366656D01*
X939064Y369195D01*
X941604D01*
X944143Y366656D01*
Y361577D01*
X941604Y359038D01*
X936525D01*
X933986Y361577D01*
X999462Y473857D02*
Y463700D01*
X1004540Y458622D01*
X1009619Y463700D01*
Y473857D01*
X1014697D02*
X1024854D01*
X1019775D01*
Y458622D01*
X1040089Y473857D02*
X1035011Y471318D01*
X1029932Y466240D01*
Y461161D01*
X1032471Y458622D01*
X1037550D01*
X1040089Y461161D01*
Y463700D01*
X1037550Y466240D01*
X1029932D01*
X1031574Y635899D02*
Y625742D01*
X1036652Y620664D01*
X1041731Y625742D01*
Y635899D01*
X1046809D02*
X1056966D01*
X1051887D01*
Y620664D01*
X1062044Y635899D02*
X1072201D01*
Y633360D01*
X1062044Y623203D01*
Y620664D01*
X1215754Y607751D02*
Y597594D01*
X1220832Y592516D01*
X1225911Y597594D01*
Y607751D01*
X1230989D02*
X1241146D01*
X1236067D01*
Y592516D01*
X1246224Y605212D02*
X1248763Y607751D01*
X1253842D01*
X1256381Y605212D01*
Y602673D01*
X1253842Y600134D01*
X1256381Y597594D01*
Y595055D01*
X1253842Y592516D01*
X1248763D01*
X1246224Y595055D01*
Y597594D01*
X1248763Y600134D01*
X1246224Y602673D01*
Y605212D01*
X1248763Y600134D02*
X1253842D01*
X1426143Y608342D02*
Y598185D01*
X1431221Y593107D01*
X1436300Y598185D01*
Y608342D01*
X1441378D02*
X1451535D01*
X1446456D01*
Y593107D01*
X1456613Y595646D02*
X1459152Y593107D01*
X1464231D01*
X1466770Y595646D01*
Y605803D01*
X1464231Y608342D01*
X1459152D01*
X1456613Y605803D01*
Y603264D01*
X1459152Y600724D01*
X1466770D01*
X813378Y734461D02*
X823535Y719226D01*
Y734461D02*
X813378Y719226D01*
X828613D02*
Y734461D01*
X836231D01*
X838770Y731922D01*
Y726843D01*
X836231Y724304D01*
X828613D01*
X843848Y719226D02*
X848926D01*
X846387D01*
Y734461D01*
X843848Y731922D01*
X67347Y565802D02*
X77504D01*
Y563263D01*
X67347Y553106D01*
Y550567D01*
X77504D01*
X82582D02*
X87660D01*
X85121D01*
Y565802D01*
X82582Y563263D01*
X542347Y483302D02*
X552504D01*
Y480763D01*
X542347Y470606D01*
Y468067D01*
X552504D01*
X567739D02*
X557582D01*
X567739Y478224D01*
Y480763D01*
X565200Y483302D01*
X560121D01*
X557582Y480763D01*
X674847Y398302D02*
X685004D01*
Y395763D01*
X674847Y385606D01*
Y383067D01*
X685004D01*
X690082Y395763D02*
X692621Y398302D01*
X697700D01*
X700239Y395763D01*
Y393224D01*
X697700Y390685D01*
X695160D01*
X697700D01*
X700239Y388145D01*
Y385606D01*
X697700Y383067D01*
X692621D01*
X690082Y385606D01*
X509847Y568302D02*
X520004D01*
Y565763D01*
X509847Y555606D01*
Y553067D01*
X520004D01*
X532700D02*
Y568302D01*
X525082Y560685D01*
X535239D01*
X617347Y695802D02*
X627504D01*
Y693263D01*
X617347Y683106D01*
Y680567D01*
X627504D01*
X642739Y695802D02*
X632582D01*
Y688185D01*
X637660Y690724D01*
X640200D01*
X642739Y688185D01*
Y683106D01*
X640200Y680567D01*
X635121D01*
X632582Y683106D01*
X184724Y658689D02*
X194881D01*
Y656150D01*
X184724Y645993D01*
Y643454D01*
X194881D01*
X210116Y658689D02*
X205037Y656150D01*
X199959Y651071D01*
Y645993D01*
X202498Y643454D01*
X207577D01*
X210116Y645993D01*
Y648532D01*
X207577Y651071D01*
X199959D01*
X274734Y420579D02*
X284891D01*
Y418040D01*
X274734Y407883D01*
Y405344D01*
X284891D01*
X289969Y420579D02*
X300126D01*
Y418040D01*
X289969Y407883D01*
Y405344D01*
X594847Y225802D02*
X605004D01*
Y223263D01*
X594847Y213106D01*
Y210567D01*
X605004D01*
X610082Y223263D02*
X612621Y225802D01*
X617700D01*
X620239Y223263D01*
Y220724D01*
X617700Y218185D01*
X620239Y215645D01*
Y213106D01*
X617700Y210567D01*
X612621D01*
X610082Y213106D01*
Y215645D01*
X612621Y218185D01*
X610082Y220724D01*
Y223263D01*
X612621Y218185D02*
X617700D01*
X427347Y523302D02*
X437504D01*
Y520763D01*
X427347Y510606D01*
Y508067D01*
X437504D01*
X442582Y510606D02*
X445121Y508067D01*
X450200D01*
X452739Y510606D01*
Y520763D01*
X450200Y523302D01*
X445121D01*
X442582Y520763D01*
Y518224D01*
X445121Y515685D01*
X452739D01*
X542347Y253372D02*
X552504D01*
Y250833D01*
X542347Y240676D01*
Y238137D01*
X552504D01*
X557582D02*
X562660D01*
X560121D01*
Y253372D01*
X557582Y250833D01*
X570278D02*
X572817Y253372D01*
X577896D01*
X580435Y250833D01*
Y240676D01*
X577896Y238137D01*
X572817D01*
X570278Y240676D01*
Y250833D01*
X704847Y121402D02*
X715004D01*
Y118863D01*
X704847Y108706D01*
Y106167D01*
X715004D01*
X720082D02*
X725160D01*
X722621D01*
Y121402D01*
X720082Y118863D01*
X732778Y106167D02*
X737856D01*
X735317D01*
Y121402D01*
X732778Y118863D01*
X624847Y121402D02*
X635004D01*
Y118863D01*
X624847Y108706D01*
Y106167D01*
X635004D01*
X640082D02*
X645160D01*
X642621D01*
Y121402D01*
X640082Y118863D01*
X662935Y106167D02*
X652778D01*
X662935Y116324D01*
Y118863D01*
X660396Y121402D01*
X655317D01*
X652778Y118863D01*
X779847Y183302D02*
X790004D01*
Y180763D01*
X779847Y170606D01*
Y168067D01*
X790004D01*
X795082D02*
X800160D01*
X797621D01*
Y183302D01*
X795082Y180763D01*
X807778D02*
X810317Y183302D01*
X815396D01*
X817935Y180763D01*
Y178224D01*
X815396Y175685D01*
X812856D01*
X815396D01*
X817935Y173145D01*
Y170606D01*
X815396Y168067D01*
X810317D01*
X807778Y170606D01*
X952347Y121402D02*
X962504D01*
Y118863D01*
X952347Y108706D01*
Y106167D01*
X962504D01*
X967582D02*
X972660D01*
X970121D01*
Y121402D01*
X967582Y118863D01*
X987896Y106167D02*
Y121402D01*
X980278Y113785D01*
X990435D01*
X1019847Y116402D02*
X1030004D01*
Y113863D01*
X1019847Y103706D01*
Y101167D01*
X1030004D01*
X1035082D02*
X1040160D01*
X1037621D01*
Y116402D01*
X1035082Y113863D01*
X1057935Y116402D02*
X1047778D01*
Y108785D01*
X1052856Y111324D01*
X1055396D01*
X1057935Y108785D01*
Y103706D01*
X1055396Y101167D01*
X1050317D01*
X1047778Y103706D01*
X1062160Y288181D02*
X1072317D01*
Y285642D01*
X1062160Y275485D01*
Y272946D01*
X1072317D01*
X1077395D02*
X1082473D01*
X1079934D01*
Y288181D01*
X1077395Y285642D01*
X1100248Y288181D02*
X1095169Y285642D01*
X1090091Y280564D01*
Y275485D01*
X1092630Y272946D01*
X1097709D01*
X1100248Y275485D01*
Y278024D01*
X1097709Y280564D01*
X1090091D01*
X1057500Y157735D02*
X1067657D01*
Y155196D01*
X1057500Y145039D01*
Y142500D01*
X1067657D01*
X1072735D02*
X1077813D01*
X1075274D01*
Y157735D01*
X1072735Y155196D01*
X1085431Y157735D02*
X1095588D01*
Y155196D01*
X1085431Y145039D01*
Y142500D01*
X1072347Y480802D02*
X1082504D01*
Y478263D01*
X1072347Y468106D01*
Y465567D01*
X1082504D01*
X1087582D02*
X1092660D01*
X1090121D01*
Y480802D01*
X1087582Y478263D01*
X1100278D02*
X1102817Y480802D01*
X1107896D01*
X1110435Y478263D01*
Y475724D01*
X1107896Y473185D01*
X1110435Y470645D01*
Y468106D01*
X1107896Y465567D01*
X1102817D01*
X1100278Y468106D01*
Y470645D01*
X1102817Y473185D01*
X1100278Y475724D01*
Y478263D01*
X1102817Y473185D02*
X1107896D01*
X1104765Y487500D02*
Y497657D01*
X1107304D01*
X1117461Y487500D01*
X1120000D01*
Y497657D01*
Y502735D02*
Y507813D01*
Y505274D01*
X1104765D01*
X1107304Y502735D01*
X1117461Y515431D02*
X1120000Y517970D01*
Y523049D01*
X1117461Y525588D01*
X1107304D01*
X1104765Y523049D01*
Y517970D01*
X1107304Y515431D01*
X1109843D01*
X1112383Y517970D01*
Y525588D01*
X1239765Y372500D02*
Y382657D01*
X1242304D01*
X1252461Y372500D01*
X1255000D01*
Y382657D01*
Y397892D02*
Y387735D01*
X1244843Y397892D01*
X1242304D01*
X1239765Y395353D01*
Y390274D01*
X1242304Y387735D01*
Y402970D02*
X1239765Y405509D01*
Y410588D01*
X1242304Y413127D01*
X1252461D01*
X1255000Y410588D01*
Y405509D01*
X1252461Y402970D01*
X1242304D01*
X1022265Y502500D02*
Y512657D01*
X1024804D01*
X1034961Y502500D01*
X1037500D01*
Y512657D01*
Y527892D02*
Y517735D01*
X1027343Y527892D01*
X1024804D01*
X1022265Y525353D01*
Y520274D01*
X1024804Y517735D01*
X1037500Y532970D02*
Y538049D01*
Y535509D01*
X1022265D01*
X1024804Y532970D01*
X1292347Y553302D02*
X1302504D01*
Y550763D01*
X1292347Y540606D01*
Y538067D01*
X1302504D01*
X1317739D02*
X1307582D01*
X1317739Y548224D01*
Y550763D01*
X1315200Y553302D01*
X1310121D01*
X1307582Y550763D01*
X1332974Y538067D02*
X1322817D01*
X1332974Y548224D01*
Y550763D01*
X1330435Y553302D01*
X1325356D01*
X1322817Y550763D01*
X1232347Y693302D02*
X1242504D01*
Y690763D01*
X1232347Y680606D01*
Y678067D01*
X1242504D01*
X1257739D02*
X1247582D01*
X1257739Y688224D01*
Y690763D01*
X1255200Y693302D01*
X1250121D01*
X1247582Y690763D01*
X1262817D02*
X1265356Y693302D01*
X1270435D01*
X1272974Y690763D01*
Y688224D01*
X1270435Y685685D01*
X1267896D01*
X1270435D01*
X1272974Y683145D01*
Y680606D01*
X1270435Y678067D01*
X1265356D01*
X1262817Y680606D01*
X1432747Y200802D02*
X1442904D01*
Y198263D01*
X1432747Y188106D01*
Y185567D01*
X1442904D01*
X1458139D02*
X1447982D01*
X1458139Y195724D01*
Y198263D01*
X1455600Y200802D01*
X1450521D01*
X1447982Y198263D01*
X1470835Y185567D02*
Y200802D01*
X1463217Y193185D01*
X1473374D01*
X1357347Y200802D02*
X1367504D01*
Y198263D01*
X1357347Y188106D01*
Y185567D01*
X1367504D01*
X1382739D02*
X1372582D01*
X1382739Y195724D01*
Y198263D01*
X1380200Y200802D01*
X1375121D01*
X1372582Y198263D01*
X1397974Y200802D02*
X1387817D01*
Y193185D01*
X1392896Y195724D01*
X1395435D01*
X1397974Y193185D01*
Y188106D01*
X1395435Y185567D01*
X1390356D01*
X1387817Y188106D01*
D20*
X1153000Y595500D02*
X1177000Y595500D01*
X1153000Y619500D02*
X1177000D01*
X1203000Y338000D02*
Y362000D01*
X1227000Y338000D02*
Y362000D01*
X1270500Y445500D02*
X1294500Y445500D01*
X1270500Y469500D02*
X1294500D01*
X1577000Y177000D02*
X1577000Y153000D01*
X1553000Y153000D02*
Y177000D01*
X1128000Y338000D02*
Y362000D01*
X1152000Y338000D02*
Y362000D01*
X980500Y177000D02*
X980500Y153000D01*
X1004500D02*
Y177000D01*
X832000Y242000D02*
X832000Y218000D01*
X808000Y218000D02*
Y242000D01*
X407000Y554500D02*
X407000Y530500D01*
X383000Y530500D02*
Y554500D01*
X579500Y367000D02*
X579500Y343000D01*
X555500Y343000D02*
Y367000D01*
X1354500Y440804D02*
X1354500Y416804D01*
X1330500Y416804D02*
Y440804D01*
X164500Y649500D02*
X164500Y625500D01*
X140500Y625500D02*
Y649500D01*
X1097000Y362000D02*
X1097000Y338000D01*
X1073000Y338000D02*
Y362000D01*
X995500Y257000D02*
X1019500Y257000D01*
X995500Y233000D02*
X1019500D01*
X753000Y195500D02*
X777000Y195500D01*
X753000Y219500D02*
X777000D01*
X325500Y554500D02*
X325500Y530500D01*
X349500D02*
Y554500D01*
X542000Y319500D02*
X542000Y295500D01*
X518000Y295500D02*
Y319500D01*
X1160500Y415500D02*
X1184500Y415500D01*
X1160500Y439500D02*
X1184500D01*
X162500Y576500D02*
X186500Y576500D01*
X162500Y552500D02*
X186500D01*
X473000Y162000D02*
X497000Y162000D01*
X473000Y138000D02*
X497000D01*
X720500Y133000D02*
X744500Y133000D01*
X720500Y157000D02*
X744500D01*
X763000Y343000D02*
X787000Y343000D01*
X763000Y367000D02*
X787000D01*
X622000Y289500D02*
X622000Y265500D01*
X598000Y265500D02*
Y289500D01*
X1105003Y651665D02*
X1106669Y648332D01*
X1110002Y645000D01*
X1113334D01*
X1115000Y646666D01*
Y649998D01*
X1113334Y651665D01*
X1111668D01*
X1110002Y649998D01*
Y645000D01*
X1105003Y661661D02*
Y654997D01*
X1110002D01*
X1108335Y658329D01*
Y659995D01*
X1110002Y661661D01*
X1113334D01*
X1115000Y659995D01*
Y656663D01*
X1113334Y654997D01*
X1065003Y651665D02*
Y645000D01*
X1070002D01*
X1068335Y648332D01*
Y649998D01*
X1070002Y651665D01*
X1073334D01*
X1075000Y649998D01*
Y646666D01*
X1073334Y645000D01*
Y654997D02*
X1075000Y656663D01*
Y659995D01*
X1073334Y661661D01*
X1066669D01*
X1065003Y659995D01*
Y656663D01*
X1066669Y654997D01*
X1068335D01*
X1070002Y656663D01*
Y661661D01*
X1040003Y646665D02*
Y640000D01*
X1045002D01*
X1043335Y643332D01*
Y644998D01*
X1045002Y646665D01*
X1048334D01*
X1050000Y644998D01*
Y641666D01*
X1048334Y640000D01*
X1040003Y649997D02*
Y656661D01*
X1041669D01*
X1048334Y649997D01*
X1050000D01*
X990000Y644998D02*
X980003D01*
X985002Y640000D01*
Y646665D01*
X980003Y656661D02*
Y649997D01*
X985002D01*
X983335Y653329D01*
Y654995D01*
X985002Y656661D01*
X988334D01*
X990000Y654995D01*
Y651663D01*
X988334Y649997D01*
X1015003Y646665D02*
Y640000D01*
X1020002D01*
X1018335Y643332D01*
Y644998D01*
X1020002Y646665D01*
X1023334D01*
X1025000Y644998D01*
Y641666D01*
X1023334Y640000D01*
X1015003Y656661D02*
Y649997D01*
X1020002D01*
X1018335Y653329D01*
Y654995D01*
X1020002Y656661D01*
X1023334D01*
X1025000Y654995D01*
Y651663D01*
X1023334Y649997D01*
X965000Y644998D02*
X955003D01*
X960002Y640000D01*
Y646665D01*
X956669Y649997D02*
X955003Y651663D01*
Y654995D01*
X956669Y656661D01*
X958335D01*
X960002Y654995D01*
Y653329D01*
Y654995D01*
X961668Y656661D01*
X963334D01*
X965000Y654995D01*
Y651663D01*
X963334Y649997D01*
X920003Y646665D02*
X921669Y643332D01*
X925002Y640000D01*
X928334D01*
X930000Y641666D01*
Y644998D01*
X928334Y646665D01*
X926668D01*
X925002Y644998D01*
Y640000D01*
X921669Y649997D02*
X920003Y651663D01*
Y654995D01*
X921669Y656661D01*
X928334D01*
X930000Y654995D01*
Y651663D01*
X928334Y649997D01*
X921669D01*
X900000Y646665D02*
Y640000D01*
X893335Y646665D01*
X891669D01*
X890003Y644998D01*
Y641666D01*
X891669Y640000D01*
Y649997D02*
X890003Y651663D01*
Y654995D01*
X891669Y656661D01*
X898334D01*
X900000Y654995D01*
Y651663D01*
X898334Y649997D01*
X891669D01*
X875000Y646665D02*
Y640000D01*
X868335Y646665D01*
X866669D01*
X865003Y644998D01*
Y641666D01*
X866669Y640000D01*
X873334Y649997D02*
X875000Y651663D01*
Y654995D01*
X873334Y656661D01*
X866669D01*
X865003Y654995D01*
Y651663D01*
X866669Y649997D01*
X868335D01*
X870002Y651663D01*
Y656661D01*
X831669Y640000D02*
X830003Y641666D01*
Y644998D01*
X831669Y646665D01*
X833335D01*
X835002Y644998D01*
Y643332D01*
Y644998D01*
X836668Y646665D01*
X838334D01*
X840000Y644998D01*
Y641666D01*
X838334Y640000D01*
X831669Y649997D02*
X830003Y651663D01*
Y654995D01*
X831669Y656661D01*
X838334D01*
X840000Y654995D01*
Y651663D01*
X838334Y649997D01*
X831669D01*
X793327Y99726D02*
Y106390D01*
X783330D01*
Y99726D01*
X788328Y106390D02*
Y103058D01*
X793327Y49240D02*
X783330D01*
Y44242D01*
X784996Y42575D01*
X786662D01*
X788328Y44242D01*
Y49240D01*
Y44242D01*
X789995Y42575D01*
X791661D01*
X793327Y44242D01*
Y49240D01*
X1266673Y520275D02*
Y513610D01*
X1276670D01*
Y520275D01*
X1271672Y513610D02*
Y516942D01*
X1266673Y570760D02*
X1276670D01*
Y575758D01*
X1275004Y577425D01*
X1273338D01*
X1271672Y575758D01*
Y570760D01*
Y575758D01*
X1270005Y577425D01*
X1268339D01*
X1266673Y575758D01*
Y570760D01*
X1091360Y563327D02*
Y553330D01*
X1096358D01*
X1098025Y554996D01*
Y556662D01*
X1096358Y558328D01*
X1091360D01*
X1096358D01*
X1098025Y559995D01*
Y561661D01*
X1096358Y563327D01*
X1091360D01*
X1040874D02*
X1034210D01*
Y553330D01*
X1040874D01*
X1034210Y558328D02*
X1037542D01*
X1046673Y387775D02*
Y381110D01*
X1056670D01*
Y387775D01*
X1051672Y381110D02*
Y384442D01*
X1046673Y438260D02*
X1056670D01*
Y443258D01*
X1055004Y444925D01*
X1053338D01*
X1051672Y443258D01*
Y438260D01*
Y443258D01*
X1050005Y444925D01*
X1048339D01*
X1046673Y443258D01*
Y438260D01*
X898327Y289240D02*
X888330D01*
Y284242D01*
X889996Y282575D01*
X891662D01*
X893328Y284242D01*
Y289240D01*
Y284242D01*
X894995Y282575D01*
X896661D01*
X898327Y284242D01*
Y289240D01*
Y339725D02*
Y346390D01*
X888330D01*
Y339725D01*
X893328Y346390D02*
Y343058D01*
X486673Y301360D02*
X496670D01*
Y306358D01*
X495004Y308025D01*
X493338D01*
X491672Y306358D01*
Y301360D01*
Y306358D01*
X490005Y308025D01*
X488339D01*
X486673Y306358D01*
Y301360D01*
Y250875D02*
Y244210D01*
X496670D01*
Y250875D01*
X491672Y244210D02*
Y247542D01*
X240827Y511626D02*
Y518290D01*
X230830D01*
Y511626D01*
X235828Y518290D02*
Y514958D01*
X240827Y461140D02*
X230830D01*
Y456142D01*
X232496Y454476D01*
X234162D01*
X235828Y456142D01*
Y461140D01*
Y456142D01*
X237495Y454476D01*
X239161D01*
X240827Y456142D01*
Y461140D01*
X63327Y601140D02*
X53330D01*
Y596142D01*
X54996Y594476D01*
X56662D01*
X58328Y596142D01*
Y601140D01*
Y596142D01*
X59995Y594476D01*
X61661D01*
X63327Y596142D01*
Y601140D01*
Y651626D02*
Y658290D01*
X53330D01*
Y651626D01*
X58328Y658290D02*
Y654958D01*
D21*
X799206Y103850D02*
D03*
X1260795Y516150D02*
D03*
X1040795Y383650D02*
D03*
X904205Y343850D02*
D03*
X480795Y246750D02*
D03*
X246705Y515750D02*
D03*
X69205Y655750D02*
D03*
D22*
X1036750Y569205D02*
D03*
M02*
