G04 Layer_Color=8421504*
%FSLAX44Y44*%
%MOMM*%
G71*
G01*
G75*
%ADD10R,1.2000X2.6000*%
%ADD11R,2.6000X1.2000*%
D10*
X1187000Y607500D02*
D03*
X1143000D02*
D03*
X1304500Y457500D02*
D03*
X1260500D02*
D03*
X985500Y245000D02*
D03*
X1029500D02*
D03*
X787000Y207500D02*
D03*
X743000D02*
D03*
X1194500Y427500D02*
D03*
X1150500D02*
D03*
X152500Y564500D02*
D03*
X196500D02*
D03*
X463000Y150000D02*
D03*
X507000D02*
D03*
X754500Y145000D02*
D03*
X710500D02*
D03*
X797000Y355000D02*
D03*
X753000D02*
D03*
D11*
X1215000Y328000D02*
D03*
Y372000D02*
D03*
X1565000Y187000D02*
D03*
Y143000D02*
D03*
X1140000Y328000D02*
D03*
Y372000D02*
D03*
X992500Y143000D02*
D03*
Y187000D02*
D03*
X820000Y252000D02*
D03*
Y208000D02*
D03*
X395000Y564500D02*
D03*
Y520500D02*
D03*
X567500Y377000D02*
D03*
Y333000D02*
D03*
X1342500Y450804D02*
D03*
Y406804D02*
D03*
X152500Y659500D02*
D03*
Y615500D02*
D03*
X1085000Y372000D02*
D03*
Y328000D02*
D03*
X337500Y520500D02*
D03*
Y564500D02*
D03*
X530000Y329500D02*
D03*
Y285500D02*
D03*
X610000Y299500D02*
D03*
Y255500D02*
D03*
M02*
