M48
;Layer_Color=9474304
;FILE_FORMAT=4:4
METRIC,LZ
;TYPE=PLATED
T1F00S00C1.0000
T2F00S00C1.1000
T3F00S00C1.7000
T4F00S00C4.0000
%
T01
X00122Y00104
X00097Y00187
X00351Y00035
X0035Y00305
X00351Y00561
X005835Y004575
X00576Y00265
X00116Y00403
X00098Y0049
X00115Y00613
X00077Y00699
X00574Y00725
T02
X006925Y00225
Y0025
Y00275
X00695Y003875
Y004125
Y004375
X000475Y00425
Y0045
Y00475
Y005
Y00525
Y0055
T03
X006325Y0005694
X006825
X00083Y00293
Y00343
T04
X00075Y0005
Y0075
X0065
M30
