M48
;Layer_Color=9474304
;FILE_FORMAT=4:4
METRIC,LZ
;TYPE=PLATED
T1F00S00C0.8000
T2F00S00C1.0000
T3F00S00C1.1000
T4F00S00C1.4000
T5F00S00C4.3000
%
T01
X0081Y000487
Y000731
Y000975
X013875Y004075
X01445Y00405
X016525Y002029
Y001775
X010325Y001475
X01085Y003075
X0103Y0039
Y004144
Y004388
X009875Y005225
X009525Y004975
X0125Y005225
X01205Y00395
X0094
Y004588
X00915Y003375
Y003131
Y002887
X0082Y002925
X008225Y003575
X00735Y00395
X0061Y003775
X00655Y002075
X007188
X008725Y00195
X0047Y002531
Y002775
Y003019
X002575Y004606
Y00485
Y005094
X0008Y006006
Y00625
Y006494
X00225Y00575
X00445Y00565
X004525Y00665
X00565Y006625
X006175Y005725
X006813
X010431Y0058
X010675
X010919
X011325Y006325
X01165
X011925Y0058
X0125Y005713
Y005469
X01025Y007225
T02
X006425Y000781
X007225
X007975Y0014
X0097Y000781
X010375Y000731
X01375Y001575
X014504
X0128Y003925
X0131Y0051
X01146304Y00505
X01065Y0051
X0109Y004375
X0108Y00245
X010725Y001875
X006125Y001825
X0056Y0021007
X0056Y0044
X006925Y00355
X005275Y00525
X00445Y0048
X002925Y003775
X00085Y005225
X001075Y008175
X001075Y0091
X0028657
X0028657Y008175
X002025Y006155
X00635Y006525
X008375Y00685
X008675
X008975
X009275
X0081144Y0059123
X0099051
X009875Y00685
X009575
X010175
X010475
X010775
X0110801
X0125Y0065
X0148199Y0084877
X0166106
X0166106Y0095627
X0148199
T03
X01375Y00315
X016725Y002975
Y003975
Y0047
X01295Y00315
X0094Y001625
X0086
X003875Y003575
Y004375
X013625Y005775
Y006575
X014575Y006775
X015575
X016725Y0057
T04
X014504Y00245
X01505
X015596
T05
X00075Y00075
X01715
X015075Y0053
M30
