%FSTAX24Y24*%
%MOIN*%
%SFA1B1*%

%IPPOS*%
%ADD44C,0.204900*%
%ADD45C,0.055200*%
%ADD46C,0.094600*%
%ADD47C,0.071000*%
%ADD48C,0.086700*%
%ADD49C,0.047400*%
%LNpcb181216ver1-1*%
%LPD*%
G54D44*
X033465Y001969D03*
X01378D03*
X020669Y031496D03*
X001969D03*
G54D45*
X011878Y00706D03*
Y007887D03*
G54D46*
X007878Y015623D03*
X008878D03*
G54D47*
X022491Y008323D03*
X023278D03*
X026041D03*
X026828D03*
X022328Y018623D03*
X021328D03*
X022328Y015273D03*
X021328D03*
X022328Y01191D03*
X021328D03*
X009078Y020794D03*
Y018873D03*
X02689Y014622D03*
Y013622D03*
G54D48*
X005928Y010673D03*
Y002406D03*
X028228Y022723D03*
X029228D03*
X030228D03*
X033128D03*
X034128D03*
X035128D03*
X023078D03*
X024078D03*
X025078D03*
G54D49*
X012756Y01315D03*
Y014134D03*
X015787Y014685D03*
X015827Y016693D03*
X014173Y014252D03*
X014567Y012559D03*
X015866Y013661D03*
X016614Y015512D03*
X015748Y011811D03*
X017402Y016732D03*
X012165Y015591D03*
X014213Y015394D03*
X023346Y005591D03*
X01437Y024606D03*
X013307Y024134D03*
X015079Y025354D03*
X012913Y025D03*
X012835Y018425D03*
X011339Y016811D03*
X031811Y021339D03*
X032362Y019724D03*
X025315Y011732D03*
X01689Y016181D03*
X01311Y016535D03*
X02752Y016575D03*
X030118Y018661D03*
X022874Y020236D03*
X026378Y019213D03*
X028898Y018583D03*
X034724Y016575D03*
X034055Y01874D03*
X012913Y019921D03*
X013583Y020551D03*
X014449Y018819D03*
X015512Y019724D03*
X013346Y018346D03*
X012992Y019252D03*
X014134Y021181D03*
X021772Y022795D03*
X018268Y018622D03*
M02*