G04 Layer_Color=65535*
%FSLAX44Y44*%
%MOMM*%
G71*
G01*
G75*
%ADD28C,0.2540*%
%ADD29C,0.2000*%
%ADD30C,0.0500*%
%ADD31R,0.1270X1.7780*%
%ADD32R,1.2700X0.7620*%
%ADD33R,0.7620X1.2700*%
%ADD34R,1.7780X0.1270*%
%ADD35R,0.2540X1.5240*%
%ADD36R,1.5240X0.2540*%
D28*
X65914Y567000D02*
G03*
X65914Y567000I-1414J0D01*
G01*
X681118Y371000D02*
G03*
X681118Y371000I-1118J0D01*
G01*
X165526Y445320D02*
G03*
X165526Y445320I-4016J0D01*
G01*
X170526Y145320D02*
G03*
X170526Y145320I-4016J0D01*
G01*
X158026Y660120D02*
G03*
X158026Y660120I-4016J0D01*
G01*
X393731Y765850D02*
G03*
X393731Y765850I-1031J0D01*
G01*
Y638350D02*
G03*
X393731Y638350I-1031J0D01*
G01*
X392031Y498750D02*
G03*
X392031Y498750I-1031J0D01*
G01*
X391231Y371650D02*
G03*
X391231Y371650I-1031J0D01*
G01*
Y246650D02*
G03*
X391231Y246650I-1031J0D01*
G01*
Y121650D02*
G03*
X391231Y121650I-1031J0D01*
G01*
X678618Y208500D02*
G03*
X678618Y208500I-1118J0D01*
G01*
X156843Y694804D02*
X159382Y692265D01*
X164461D01*
X167000Y694804D01*
Y704961D01*
X164461Y707500D01*
X159382D01*
X156843Y704961D01*
X151765Y707500D02*
X146687D01*
X149226D01*
Y692265D01*
X151765Y694804D01*
X141157Y508696D02*
X138617Y511235D01*
X133539D01*
X131000Y508696D01*
Y498539D01*
X133539Y496000D01*
X138617D01*
X141157Y498539D01*
X156392Y496000D02*
X146235D01*
X156392Y506157D01*
Y508696D01*
X153853Y511235D01*
X148774D01*
X146235Y508696D01*
X123369Y217026D02*
X120830Y219565D01*
X115751D01*
X113212Y217026D01*
Y206869D01*
X115751Y204330D01*
X120830D01*
X123369Y206869D01*
X128447Y217026D02*
X130986Y219565D01*
X136065D01*
X138604Y217026D01*
Y214487D01*
X136065Y211947D01*
X133525D01*
X136065D01*
X138604Y209408D01*
Y206869D01*
X136065Y204330D01*
X130986D01*
X128447Y206869D01*
X267657Y712696D02*
X265117Y715235D01*
X260039D01*
X257500Y712696D01*
Y702539D01*
X260039Y700000D01*
X265117D01*
X267657Y702539D01*
X280353Y700000D02*
Y715235D01*
X272735Y707618D01*
X282892D01*
X247304Y515157D02*
X244765Y512617D01*
Y507539D01*
X247304Y505000D01*
X257461D01*
X260000Y507539D01*
Y512617D01*
X257461Y515157D01*
X244765Y530392D02*
Y520235D01*
X252383D01*
X249843Y525313D01*
Y527853D01*
X252383Y530392D01*
X257461D01*
X260000Y527853D01*
Y522774D01*
X257461Y520235D01*
X246009Y219580D02*
X243470Y222119D01*
X238391D01*
X235852Y219580D01*
Y209423D01*
X238391Y206884D01*
X243470D01*
X246009Y209423D01*
X261244Y222119D02*
X256165Y219580D01*
X251087Y214501D01*
Y209423D01*
X253626Y206884D01*
X258705D01*
X261244Y209423D01*
Y211962D01*
X258705Y214501D01*
X251087D01*
X107265Y632500D02*
X122500D01*
Y640117D01*
X119961Y642657D01*
X109804D01*
X107265Y640117D01*
Y632500D01*
X122500Y647735D02*
X112343D01*
X107265Y652813D01*
X112343Y657892D01*
X122500D01*
X114882D01*
Y647735D01*
X122500Y662970D02*
Y668048D01*
Y665509D01*
X107265D01*
X109804Y662970D01*
X216765Y410000D02*
X232000D01*
Y417617D01*
X229461Y420157D01*
X219304D01*
X216765Y417617D01*
Y410000D01*
X232000Y425235D02*
X221843D01*
X216765Y430313D01*
X221843Y435392D01*
X232000D01*
X224382D01*
Y425235D01*
X232000Y450627D02*
Y440470D01*
X221843Y450627D01*
X219304D01*
X216765Y448088D01*
Y443009D01*
X219304Y440470D01*
X75765Y123000D02*
X91000D01*
Y130618D01*
X88461Y133157D01*
X78304D01*
X75765Y130618D01*
Y123000D01*
X91000Y138235D02*
X80843D01*
X75765Y143313D01*
X80843Y148392D01*
X91000D01*
X83383D01*
Y138235D01*
X78304Y153470D02*
X75765Y156009D01*
Y161088D01*
X78304Y163627D01*
X80843D01*
X83383Y161088D01*
Y158548D01*
Y161088D01*
X85922Y163627D01*
X88461D01*
X91000Y161088D01*
Y156009D01*
X88461Y153470D01*
X312500Y647500D02*
Y662735D01*
X320117D01*
X322657Y660196D01*
Y655117D01*
X320117Y652578D01*
X312500D01*
X317578D02*
X322657Y647500D01*
X327735D02*
X332813D01*
X330274D01*
Y662735D01*
X327735Y660196D01*
X310000Y622500D02*
Y637735D01*
X317618D01*
X320157Y635196D01*
Y630117D01*
X317618Y627578D01*
X310000D01*
X315078D02*
X320157Y622500D01*
X335392D02*
X325235D01*
X335392Y632657D01*
Y635196D01*
X332853Y637735D01*
X327774D01*
X325235Y635196D01*
X320000Y432500D02*
Y447735D01*
X327617D01*
X330157Y445196D01*
Y440117D01*
X327617Y437578D01*
X320000D01*
X325078D02*
X330157Y432500D01*
X335235Y445196D02*
X337774Y447735D01*
X342853D01*
X345392Y445196D01*
Y442657D01*
X342853Y440117D01*
X340313D01*
X342853D01*
X345392Y437578D01*
Y435039D01*
X342853Y432500D01*
X337774D01*
X335235Y435039D01*
X319000Y400000D02*
Y415235D01*
X326618D01*
X329157Y412696D01*
Y407617D01*
X326618Y405078D01*
X319000D01*
X324078D02*
X329157Y400000D01*
X341853D02*
Y415235D01*
X334235Y407617D01*
X344392D01*
X315000Y130000D02*
Y145235D01*
X322617D01*
X325157Y142696D01*
Y137618D01*
X322617Y135078D01*
X315000D01*
X320078D02*
X325157Y130000D01*
X340392Y145235D02*
X330235D01*
Y137618D01*
X335313Y140157D01*
X337853D01*
X340392Y137618D01*
Y132539D01*
X337853Y130000D01*
X332774D01*
X330235Y132539D01*
X315000Y100000D02*
Y115235D01*
X322617D01*
X325157Y112696D01*
Y107618D01*
X322617Y105078D01*
X315000D01*
X320078D02*
X325157Y100000D01*
X340392Y115235D02*
X335313Y112696D01*
X330235Y107618D01*
Y102539D01*
X332774Y100000D01*
X337853D01*
X340392Y102539D01*
Y105078D01*
X337853Y107618D01*
X330235D01*
X160000Y690235D02*
Y680078D01*
X165078Y675000D01*
X170157Y680078D01*
Y690235D01*
X175235D02*
Y675000D01*
X182853D01*
X185392Y677539D01*
Y687696D01*
X182853Y690235D01*
X175235D01*
X190470Y675000D02*
X195548D01*
X193009D01*
Y690235D01*
X190470Y687696D01*
X167500Y482735D02*
Y472578D01*
X172578Y467500D01*
X177657Y472578D01*
Y482735D01*
X182735D02*
Y467500D01*
X190353D01*
X192892Y470039D01*
Y480196D01*
X190353Y482735D01*
X182735D01*
X208127Y467500D02*
X197970D01*
X208127Y477657D01*
Y480196D01*
X205588Y482735D01*
X200509D01*
X197970Y480196D01*
X157500Y217735D02*
Y207578D01*
X162578Y202500D01*
X167657Y207578D01*
Y217735D01*
X172735D02*
Y202500D01*
X180353D01*
X182892Y205039D01*
Y215196D01*
X180353Y217735D01*
X172735D01*
X187970Y215196D02*
X190509Y217735D01*
X195588D01*
X198127Y215196D01*
Y212657D01*
X195588Y210117D01*
X193048D01*
X195588D01*
X198127Y207578D01*
Y205039D01*
X195588Y202500D01*
X190509D01*
X187970Y205039D01*
X315160Y695235D02*
Y685078D01*
X320238Y680000D01*
X325317Y685078D01*
Y695235D01*
X330395D02*
Y680000D01*
X338013D01*
X340552Y682539D01*
Y692696D01*
X338013Y695235D01*
X330395D01*
X353248Y680000D02*
Y695235D01*
X345630Y687617D01*
X355787D01*
X317660Y610235D02*
Y600078D01*
X322738Y595000D01*
X327817Y600078D01*
Y610235D01*
X332895D02*
Y595000D01*
X340513D01*
X343052Y597539D01*
Y607696D01*
X340513Y610235D01*
X332895D01*
X358287D02*
X348130D01*
Y602617D01*
X353209Y605157D01*
X355748D01*
X358287Y602617D01*
Y597539D01*
X355748Y595000D01*
X350669D01*
X348130Y597539D01*
X325000Y480235D02*
Y470078D01*
X330078Y465000D01*
X335157Y470078D01*
Y480235D01*
X340235D02*
Y465000D01*
X347853D01*
X350392Y467539D01*
Y477696D01*
X347853Y480235D01*
X340235D01*
X365627D02*
X360549Y477696D01*
X355470Y472617D01*
Y467539D01*
X358009Y465000D01*
X363088D01*
X365627Y467539D01*
Y470078D01*
X363088Y472617D01*
X355470D01*
X325160Y387735D02*
Y377578D01*
X330238Y372500D01*
X335317Y377578D01*
Y387735D01*
X340395D02*
Y372500D01*
X348013D01*
X350552Y375039D01*
Y385196D01*
X348013Y387735D01*
X340395D01*
X355630D02*
X365787D01*
Y385196D01*
X355630Y375039D01*
Y372500D01*
X265986Y199111D02*
Y188954D01*
X271064Y183876D01*
X276143Y188954D01*
Y199111D01*
X281221D02*
Y183876D01*
X288839D01*
X291378Y186415D01*
Y196572D01*
X288839Y199111D01*
X281221D01*
X296456Y196572D02*
X298995Y199111D01*
X304074D01*
X306613Y196572D01*
Y194033D01*
X304074Y191493D01*
X306613Y188954D01*
Y186415D01*
X304074Y183876D01*
X298995D01*
X296456Y186415D01*
Y188954D01*
X298995Y191493D01*
X296456Y194033D01*
Y196572D01*
X298995Y191493D02*
X304074D01*
X317500Y87735D02*
Y77578D01*
X322578Y72500D01*
X327657Y77578D01*
Y87735D01*
X332735D02*
Y72500D01*
X340353D01*
X342892Y75039D01*
Y85196D01*
X340353Y87735D01*
X332735D01*
X347970Y75039D02*
X350509Y72500D01*
X355588D01*
X358127Y75039D01*
Y85196D01*
X355588Y87735D01*
X350509D01*
X347970Y85196D01*
Y82657D01*
X350509Y80118D01*
X358127D01*
X562765Y665000D02*
X572922D01*
X578000Y670078D01*
X572922Y675157D01*
X562765D01*
Y680235D02*
Y690392D01*
Y685313D01*
X578000D01*
Y695470D02*
Y700548D01*
Y698009D01*
X562765D01*
X565304Y695470D01*
X562265Y582500D02*
X572422D01*
X577500Y587578D01*
X572422Y592657D01*
X562265D01*
Y597735D02*
Y607892D01*
Y602813D01*
X577500D01*
Y623127D02*
Y612970D01*
X567343Y623127D01*
X564804D01*
X562265Y620588D01*
Y615509D01*
X564804Y612970D01*
X558765Y408000D02*
X568922D01*
X574000Y413078D01*
X568922Y418157D01*
X558765D01*
Y423235D02*
Y433392D01*
Y428313D01*
X574000D01*
X561304Y438470D02*
X558765Y441009D01*
Y446088D01*
X561304Y448627D01*
X563843D01*
X566382Y446088D01*
Y443549D01*
Y446088D01*
X568922Y448627D01*
X571461D01*
X574000Y446088D01*
Y441009D01*
X571461Y438470D01*
X563965Y310400D02*
X574122D01*
X579200Y315478D01*
X574122Y320557D01*
X563965D01*
Y325635D02*
Y335792D01*
Y330713D01*
X579200D01*
Y348488D02*
X563965D01*
X571582Y340870D01*
Y351027D01*
X561765Y155000D02*
X571922D01*
X577000Y160078D01*
X571922Y165157D01*
X561765D01*
Y170235D02*
Y180392D01*
Y175313D01*
X577000D01*
X561765Y195627D02*
Y185470D01*
X569383D01*
X566843Y190548D01*
Y193088D01*
X569383Y195627D01*
X574461D01*
X577000Y193088D01*
Y188009D01*
X574461Y185470D01*
X559765Y58300D02*
X569922D01*
X575000Y63378D01*
X569922Y68457D01*
X559765D01*
Y73535D02*
Y83692D01*
Y78613D01*
X575000D01*
X559765Y98927D02*
X562304Y93848D01*
X567382Y88770D01*
X572461D01*
X575000Y91309D01*
Y96388D01*
X572461Y98927D01*
X569922D01*
X567382Y96388D01*
Y88770D01*
X115500Y328235D02*
X125657Y313000D01*
Y328235D02*
X115500Y313000D01*
X130735D02*
Y328235D01*
X138353D01*
X140892Y325696D01*
Y320617D01*
X138353Y318078D01*
X130735D01*
X156127Y313000D02*
X145970D01*
X156127Y323157D01*
Y325696D01*
X153588Y328235D01*
X148509D01*
X145970Y325696D01*
X647265Y91940D02*
X662500Y102096D01*
X647265D02*
X662500Y91940D01*
Y107175D02*
X647265D01*
Y114792D01*
X649804Y117331D01*
X654883D01*
X657422Y114792D01*
Y107175D01*
X649804Y122410D02*
X647265Y124949D01*
Y130027D01*
X649804Y132566D01*
X652343D01*
X654883Y130027D01*
Y127488D01*
Y130027D01*
X657422Y132566D01*
X659961D01*
X662500Y130027D01*
Y124949D01*
X659961Y122410D01*
X665000Y485235D02*
X675157Y470000D01*
Y485235D02*
X665000Y470000D01*
X680235D02*
Y485235D01*
X687853D01*
X690392Y482696D01*
Y477617D01*
X687853Y475078D01*
X680235D01*
X703088Y470000D02*
Y485235D01*
X695470Y477617D01*
X705627D01*
X666000Y326235D02*
X676157Y311000D01*
Y326235D02*
X666000Y311000D01*
X681235D02*
Y326235D01*
X688853D01*
X691392Y323696D01*
Y318617D01*
X688853Y316078D01*
X681235D01*
X706627Y326235D02*
X696470D01*
Y318617D01*
X701548Y321157D01*
X704088D01*
X706627Y318617D01*
Y313539D01*
X704088Y311000D01*
X699009D01*
X696470Y313539D01*
X30000Y600235D02*
X40157Y585000D01*
Y600235D02*
X30000Y585000D01*
X45235D02*
Y600235D01*
X52853D01*
X55392Y597696D01*
Y592617D01*
X52853Y590078D01*
X45235D01*
X60470Y585000D02*
X65549D01*
X63009D01*
Y600235D01*
X60470Y597696D01*
D29*
X599000Y79010D02*
G03*
X600750Y77260I1750J0D01*
G01*
Y31540D02*
Y77260D01*
Y31540D02*
X602020Y30270D01*
X709970D01*
Y77260D01*
X600750D02*
X709970D01*
X57600Y374750D02*
X103320D01*
X56330Y373480D02*
X57600Y374750D01*
X56330Y265530D02*
Y373480D01*
Y265530D02*
X103320D01*
Y374750D01*
X315120Y157380D02*
Y172620D01*
X268130Y157380D02*
X315120Y157380D01*
X268130Y157380D02*
Y172620D01*
X315120Y172620D01*
X265590Y161190D02*
Y167540D01*
X155160Y452940D02*
X190720D01*
Y408490D02*
Y452940D01*
X170400Y408490D02*
X190720D01*
X155160D02*
X175480D01*
X155160D02*
Y452940D01*
X160160Y152940D02*
X195720D01*
Y108490D02*
Y152940D01*
X175400Y108490D02*
X195720D01*
X160160D02*
X180480D01*
X160160D02*
Y152940D01*
X147660Y667740D02*
X183220D01*
Y623290D02*
Y667740D01*
X162900Y623290D02*
X183220D01*
X147660D02*
X167980D01*
X147660D02*
Y667740D01*
X209880Y715120D02*
X225120D01*
X225120Y668130D01*
X209880D02*
X225120D01*
X209880D02*
X209880Y715120D01*
X214960Y665590D02*
X221310D01*
X307780Y677380D02*
Y692620D01*
X260790Y677380D02*
X307780Y677380D01*
X260790Y677380D02*
Y692620D01*
X307780Y692620D01*
X258250Y681190D02*
Y687540D01*
X281000Y647500D02*
X289000D01*
X281000Y662500D02*
X289000D01*
X281000Y620000D02*
X289000D01*
X281000Y635000D02*
X289000D01*
X312780Y594880D02*
Y610120D01*
X265790Y594880D02*
X312780Y594880D01*
X265790Y594880D02*
Y610120D01*
X312780Y610120D01*
X263250Y598690D02*
Y605040D01*
X217380Y507620D02*
X232620D01*
X232620Y460630D01*
X217380D02*
X232620D01*
X217380D02*
X217380Y507620D01*
X222460Y458090D02*
X228810D01*
X317620Y462380D02*
Y477620D01*
X270630Y462380D02*
X317620Y462380D01*
X270630Y462380D02*
Y477620D01*
X317620Y477620D01*
X268090Y466190D02*
Y472540D01*
X290000Y400000D02*
X298000D01*
X290000Y415000D02*
X298000D01*
X291000Y432500D02*
X299000D01*
X291000Y447500D02*
X299000D01*
X317780Y372380D02*
Y387620D01*
X270790Y372380D02*
X317780Y372380D01*
X270790Y372380D02*
Y387620D01*
X317780Y387620D01*
X268250Y376190D02*
Y382540D01*
X207380Y212620D02*
X222620D01*
X222620Y165630D01*
X207380D02*
X222620D01*
X207380D02*
X207380Y212620D01*
X212460Y163090D02*
X218810D01*
X283500Y130000D02*
X291500D01*
X283500Y145000D02*
X291500D01*
X283500Y102500D02*
X291500D01*
X283500Y117500D02*
X291500D01*
X310120Y72380D02*
Y87620D01*
X263130Y72380D02*
X310120Y72380D01*
X263130Y72380D02*
Y87620D01*
X310120Y87620D01*
X260590Y76190D02*
Y82540D01*
X599000Y79010D02*
Y138000D01*
X62000Y557997D02*
Y548000D01*
Y552998D01*
X68664D01*
Y557997D01*
Y548000D01*
X71997Y557997D02*
X75329D01*
X73663D01*
Y548000D01*
X71997D01*
X75329D01*
X80327D02*
Y557997D01*
X86992Y548000D01*
Y557997D01*
X90324Y548000D02*
X93657D01*
X91990D01*
Y557997D01*
X90324Y556331D01*
X61750Y534497D02*
Y524500D01*
X68415D01*
X71747Y534497D02*
X75079D01*
X73413D01*
Y524500D01*
X71747D01*
X75079D01*
X80077D02*
Y534497D01*
X86742Y524500D01*
Y534497D01*
X90074Y524500D02*
X93406D01*
X91740D01*
Y534497D01*
X90074Y532831D01*
X61250Y511997D02*
Y502000D01*
Y506998D01*
X67915D01*
Y511997D01*
Y502000D01*
X71247Y511997D02*
X74579D01*
X72913D01*
Y502000D01*
X71247D01*
X74579D01*
X79577D02*
Y511997D01*
X86242Y502000D01*
Y511997D01*
X96239Y502000D02*
X89574D01*
X96239Y508665D01*
Y510331D01*
X94573Y511997D01*
X91240D01*
X89574Y510331D01*
X63250Y479747D02*
Y469750D01*
X69914D01*
X73247Y479747D02*
X76579D01*
X74913D01*
Y469750D01*
X73247D01*
X76579D01*
X81577D02*
Y479747D01*
X88242Y469750D01*
Y479747D01*
X98239Y469750D02*
X91574D01*
X98239Y476414D01*
Y478081D01*
X96573Y479747D01*
X93240D01*
X91574Y478081D01*
X63000Y456747D02*
Y446750D01*
Y451748D01*
X69665D01*
Y456747D01*
Y446750D01*
X72997Y456747D02*
X76329D01*
X74663D01*
Y446750D01*
X72997D01*
X76329D01*
X81327D02*
Y456747D01*
X87992Y446750D01*
Y456747D01*
X91324Y455081D02*
X92990Y456747D01*
X96323D01*
X97989Y455081D01*
Y453414D01*
X96323Y451748D01*
X94656D01*
X96323D01*
X97989Y450082D01*
Y448416D01*
X96323Y446750D01*
X92990D01*
X91324Y448416D01*
X63250Y431497D02*
Y421500D01*
X69914D01*
X73247Y431497D02*
X76579D01*
X74913D01*
Y421500D01*
X73247D01*
X76579D01*
X81577D02*
Y431497D01*
X88242Y421500D01*
Y431497D01*
X91574Y429831D02*
X93240Y431497D01*
X96573D01*
X98239Y429831D01*
Y428164D01*
X96573Y426498D01*
X94906D01*
X96573D01*
X98239Y424832D01*
Y423166D01*
X96573Y421500D01*
X93240D01*
X91574Y423166D01*
X67000Y247000D02*
X70332D01*
X68666D01*
Y256997D01*
X67000Y255331D01*
X81995Y247000D02*
X75331D01*
X81995Y253664D01*
Y255331D01*
X80329Y256997D01*
X76997D01*
X75331Y255331D01*
X85327Y256997D02*
Y250332D01*
X88660Y247000D01*
X91992Y250332D01*
Y256997D01*
X622503Y83610D02*
X629168D01*
X632500Y86942D01*
X629168Y90274D01*
X622503D01*
X624169Y100271D02*
X622503Y98605D01*
Y95273D01*
X624169Y93607D01*
X630834D01*
X632500Y95273D01*
Y98605D01*
X630834Y100271D01*
X624169Y110268D02*
X622503Y108602D01*
Y105269D01*
X624169Y103603D01*
X630834D01*
X632500Y105269D01*
Y108602D01*
X630834Y110268D01*
X677509Y89004D02*
X675843Y87338D01*
Y84006D01*
X677509Y82340D01*
X684174D01*
X685840Y84006D01*
Y87338D01*
X684174Y89004D01*
X680842D01*
Y85672D01*
X685840Y92337D02*
X675843D01*
X685840Y99001D01*
X675843D01*
Y102333D02*
X685840D01*
Y107332D01*
X684174Y108998D01*
X677509D01*
X675843Y107332D01*
Y102333D01*
X109670Y352997D02*
Y346332D01*
X113002Y343000D01*
X116334Y346332D01*
Y352997D01*
X126331Y351331D02*
X124665Y352997D01*
X121333D01*
X119667Y351331D01*
Y344666D01*
X121333Y343000D01*
X124665D01*
X126331Y344666D01*
X136328Y351331D02*
X134662Y352997D01*
X131330D01*
X129664Y351331D01*
Y344666D01*
X131330Y343000D01*
X134662D01*
X136328Y344666D01*
X115064Y297991D02*
X113398Y299657D01*
X110066D01*
X108400Y297991D01*
Y291326D01*
X110066Y289660D01*
X113398D01*
X115064Y291326D01*
Y294658D01*
X111732D01*
X118397Y289660D02*
Y299657D01*
X125061Y289660D01*
Y299657D01*
X128394D02*
Y289660D01*
X133392D01*
X135058Y291326D01*
Y297991D01*
X133392Y299657D01*
X128394D01*
X666000Y342000D02*
Y351997D01*
X669332Y348665D01*
X672664Y351997D01*
Y342000D01*
X680995Y351997D02*
X677663D01*
X675997Y350331D01*
Y343666D01*
X677663Y342000D01*
X680995D01*
X682661Y343666D01*
Y350331D01*
X680995Y351997D01*
X685993D02*
X692658D01*
X689326D01*
Y342000D01*
X700989Y351997D02*
X697656D01*
X695990Y350331D01*
Y343666D01*
X697656Y342000D01*
X700989D01*
X702655Y343666D01*
Y350331D01*
X700989Y351997D01*
X705987Y342000D02*
Y351997D01*
X710985D01*
X712652Y350331D01*
Y346998D01*
X710985Y345332D01*
X705987D01*
X709319D02*
X712652Y342000D01*
X654000Y441997D02*
Y433666D01*
X655666Y432000D01*
X658998D01*
X660665Y433666D01*
Y441997D01*
X654000Y417997D02*
Y411332D01*
X657332Y408000D01*
X660665Y411332D01*
Y417997D01*
X655000Y390997D02*
Y381000D01*
X658332Y384332D01*
X661665Y381000D01*
Y390997D01*
X652500Y228497D02*
Y218500D01*
X655832Y221832D01*
X659165Y218500D01*
Y228497D01*
X651500Y255497D02*
Y248832D01*
X654832Y245500D01*
X658165Y248832D01*
Y255497D01*
X651500Y279497D02*
Y271166D01*
X653166Y269500D01*
X656498D01*
X658165Y271166D01*
Y279497D01*
X618000Y183000D02*
Y189664D01*
X621332Y192997D01*
X624664Y189664D01*
Y183000D01*
Y187998D01*
X618000D01*
X627997Y192997D02*
Y183000D01*
X632995D01*
X634661Y184666D01*
Y191331D01*
X632995Y192997D01*
X627997D01*
X644658Y191331D02*
X642992Y192997D01*
X639660D01*
X637994Y191331D01*
Y184666D01*
X639660Y183000D01*
X642992D01*
X644658Y184666D01*
X664652Y191331D02*
X662986Y192997D01*
X659653D01*
X657987Y191331D01*
Y189664D01*
X659653Y187998D01*
X662986D01*
X664652Y186332D01*
Y184666D01*
X662986Y183000D01*
X659653D01*
X657987Y184666D01*
X672982Y183000D02*
X669650D01*
X667984Y184666D01*
Y187998D01*
X669650Y189664D01*
X672982D01*
X674648Y187998D01*
Y186332D01*
X667984D01*
X677981Y183000D02*
Y189664D01*
X682979D01*
X684645Y187998D01*
Y183000D01*
X687978D02*
X692976D01*
X694642Y184666D01*
X692976Y186332D01*
X689644D01*
X687978Y187998D01*
X689644Y189664D01*
X694642D01*
X699640Y183000D02*
X702973D01*
X704639Y184666D01*
Y187998D01*
X702973Y189664D01*
X699640D01*
X697974Y187998D01*
Y184666D01*
X699640Y183000D01*
X707971Y189664D02*
Y183000D01*
Y186332D01*
X709637Y187998D01*
X711303Y189664D01*
X712969D01*
X149000Y612997D02*
X152332D01*
X150666D01*
Y603000D01*
X149000D01*
X152332D01*
X157331D02*
Y612997D01*
X162329D01*
X163995Y611331D01*
Y607998D01*
X162329Y606332D01*
X157331D01*
X160663D02*
X163995Y603000D01*
X173992Y612997D02*
X167327D01*
Y607998D01*
X170660D01*
X167327D01*
Y603000D01*
X183989D02*
X177324D01*
X183989Y609664D01*
Y611331D01*
X182323Y612997D01*
X178990D01*
X177324Y611331D01*
X187321Y603000D02*
X190653D01*
X188987D01*
Y612997D01*
X187321Y611331D01*
X195652D02*
X197318Y612997D01*
X200650D01*
X202316Y611331D01*
Y604666D01*
X200650Y603000D01*
X197318D01*
X195652Y604666D01*
Y611331D01*
X205648Y603000D02*
X208981D01*
X207314D01*
Y612997D01*
X205648Y611331D01*
X142000Y398997D02*
X145332D01*
X143666D01*
Y389000D01*
X142000D01*
X145332D01*
X150331D02*
Y398997D01*
X155329D01*
X156995Y397331D01*
Y393998D01*
X155329Y392332D01*
X150331D01*
X153663D02*
X156995Y389000D01*
X166992Y398997D02*
X160327D01*
Y393998D01*
X163660D01*
X160327D01*
Y389000D01*
X176989D02*
X170324D01*
X176989Y395664D01*
Y397331D01*
X175323Y398997D01*
X171990D01*
X170324Y397331D01*
X180321Y389000D02*
X183653D01*
X181987D01*
Y398997D01*
X180321Y397331D01*
X188652D02*
X190318Y398997D01*
X193650D01*
X195316Y397331D01*
Y390666D01*
X193650Y389000D01*
X190318D01*
X188652Y390666D01*
Y397331D01*
X198648Y389000D02*
X201981D01*
X200315D01*
Y398997D01*
X198648Y397331D01*
X144000Y97997D02*
X147332D01*
X145666D01*
Y88000D01*
X144000D01*
X147332D01*
X152331D02*
Y97997D01*
X157329D01*
X158995Y96331D01*
Y92998D01*
X157329Y91332D01*
X152331D01*
X155663D02*
X158995Y88000D01*
X168992Y97997D02*
X162327D01*
Y92998D01*
X165660D01*
X162327D01*
Y88000D01*
X178989D02*
X172324D01*
X178989Y94664D01*
Y96331D01*
X177323Y97997D01*
X173990D01*
X172324Y96331D01*
X182321Y88000D02*
X185653D01*
X183987D01*
Y97997D01*
X182321Y96331D01*
X190652D02*
X192318Y97997D01*
X195650D01*
X197316Y96331D01*
Y89666D01*
X195650Y88000D01*
X192318D01*
X190652Y89666D01*
Y96331D01*
X200648Y88000D02*
X203981D01*
X202314D01*
Y97997D01*
X200648Y96331D01*
X299000Y756997D02*
X302332D01*
X300666D01*
Y747000D01*
X299000D01*
X302332D01*
X307331D02*
Y756997D01*
X312329D01*
X313995Y755331D01*
Y751998D01*
X312329Y750332D01*
X307331D01*
X310663D02*
X313995Y747000D01*
X317327Y756997D02*
Y747000D01*
X323992D01*
X333989D02*
X327324D01*
X333989Y753664D01*
Y755331D01*
X332323Y756997D01*
X328990D01*
X327324Y755331D01*
X337321Y748666D02*
X338987Y747000D01*
X342319D01*
X343985Y748666D01*
Y755331D01*
X342319Y756997D01*
X338987D01*
X337321Y755331D01*
Y753664D01*
X338987Y751998D01*
X343985D01*
X347318Y747000D02*
X350650D01*
X348984D01*
Y756997D01*
X347318Y755331D01*
X355648D02*
X357315Y756997D01*
X360647D01*
X362313Y755331D01*
Y748666D01*
X360647Y747000D01*
X357315D01*
X355648Y748666D01*
Y755331D01*
X268000Y564997D02*
X271332D01*
X269666D01*
Y555000D01*
X268000D01*
X271332D01*
X276331D02*
Y564997D01*
X281329D01*
X282995Y563331D01*
Y559998D01*
X281329Y558332D01*
X276331D01*
X279663D02*
X282995Y555000D01*
X286327Y564997D02*
Y555000D01*
X292992D01*
X302989D02*
X296324D01*
X302989Y561665D01*
Y563331D01*
X301323Y564997D01*
X297990D01*
X296324Y563331D01*
X306321Y556666D02*
X307987Y555000D01*
X311319D01*
X312985Y556666D01*
Y563331D01*
X311319Y564997D01*
X307987D01*
X306321Y563331D01*
Y561665D01*
X307987Y559998D01*
X312985D01*
X316318Y555000D02*
X319650D01*
X317984D01*
Y564997D01*
X316318Y563331D01*
X324648D02*
X326315Y564997D01*
X329647D01*
X331313Y563331D01*
Y556666D01*
X329647Y555000D01*
X326315D01*
X324648Y556666D01*
Y563331D01*
X298000Y359997D02*
X301332D01*
X299666D01*
Y350000D01*
X298000D01*
X301332D01*
X306331D02*
Y359997D01*
X311329D01*
X312995Y358331D01*
Y354998D01*
X311329Y353332D01*
X306331D01*
X309663D02*
X312995Y350000D01*
X316327Y359997D02*
Y350000D01*
X322992D01*
X332989D02*
X326324D01*
X332989Y356665D01*
Y358331D01*
X331323Y359997D01*
X327990D01*
X326324Y358331D01*
X336321Y351666D02*
X337987Y350000D01*
X341319D01*
X342985Y351666D01*
Y358331D01*
X341319Y359997D01*
X337987D01*
X336321Y358331D01*
Y356665D01*
X337987Y354998D01*
X342985D01*
X346318Y350000D02*
X349650D01*
X347984D01*
Y359997D01*
X346318Y358331D01*
X354648D02*
X356315Y359997D01*
X359647D01*
X361313Y358331D01*
Y351666D01*
X359647Y350000D01*
X356315D01*
X354648Y351666D01*
Y358331D01*
X296000Y236997D02*
X299332D01*
X297666D01*
Y227000D01*
X296000D01*
X299332D01*
X304331D02*
Y236997D01*
X309329D01*
X310995Y235331D01*
Y231998D01*
X309329Y230332D01*
X304331D01*
X307663D02*
X310995Y227000D01*
X314327Y236997D02*
Y227000D01*
X320992D01*
X330989D02*
X324324D01*
X330989Y233664D01*
Y235331D01*
X329323Y236997D01*
X325990D01*
X324324Y235331D01*
X334321Y228666D02*
X335987Y227000D01*
X339319D01*
X340985Y228666D01*
Y235331D01*
X339319Y236997D01*
X335987D01*
X334321Y235331D01*
Y233664D01*
X335987Y231998D01*
X340985D01*
X344318Y227000D02*
X347650D01*
X345984D01*
Y236997D01*
X344318Y235331D01*
X352648D02*
X354315Y236997D01*
X357647D01*
X359313Y235331D01*
Y228666D01*
X357647Y227000D01*
X354315D01*
X352648Y228666D01*
Y235331D01*
X270000Y55997D02*
X273332D01*
X271666D01*
Y46000D01*
X270000D01*
X273332D01*
X278331D02*
Y55997D01*
X283329D01*
X284995Y54331D01*
Y50998D01*
X283329Y49332D01*
X278331D01*
X281663D02*
X284995Y46000D01*
X288327Y55997D02*
Y46000D01*
X294992D01*
X304989D02*
X298324D01*
X304989Y52664D01*
Y54331D01*
X303323Y55997D01*
X299990D01*
X298324Y54331D01*
X308321Y47666D02*
X309987Y46000D01*
X313319D01*
X314986Y47666D01*
Y54331D01*
X313319Y55997D01*
X309987D01*
X308321Y54331D01*
Y52664D01*
X309987Y50998D01*
X314986D01*
X318318Y46000D02*
X321650D01*
X319984D01*
Y55997D01*
X318318Y54331D01*
X326648D02*
X328315Y55997D01*
X331647D01*
X333313Y54331D01*
Y47666D01*
X331647Y46000D01*
X328315D01*
X326648Y47666D01*
Y54331D01*
X600000Y143000D02*
Y152997D01*
X604998D01*
X606665Y151331D01*
Y147998D01*
X604998Y146332D01*
X600000D01*
X611663Y143000D02*
X614995D01*
X616661Y144666D01*
Y147998D01*
X614995Y149664D01*
X611663D01*
X609997Y147998D01*
Y144666D01*
X611663Y143000D01*
X619994Y149664D02*
Y144666D01*
X621660Y143000D01*
X623326Y144666D01*
X624992Y143000D01*
X626658Y144666D01*
Y149664D01*
X634989Y143000D02*
X631656D01*
X629990Y144666D01*
Y147998D01*
X631656Y149664D01*
X634989D01*
X636655Y147998D01*
Y146332D01*
X629990D01*
X639987Y149664D02*
Y143000D01*
Y146332D01*
X641653Y147998D01*
X643319Y149664D01*
X644986D01*
X659981Y143000D02*
Y152997D01*
X663313Y149664D01*
X666645Y152997D01*
Y143000D01*
X671644D02*
X674976D01*
X676642Y144666D01*
Y147998D01*
X674976Y149664D01*
X671644D01*
X669977Y147998D01*
Y144666D01*
X671644Y143000D01*
X681640Y151331D02*
Y149664D01*
X679974D01*
X683307D01*
X681640D01*
Y144666D01*
X683307Y143000D01*
X689971D02*
X693303D01*
X694969Y144666D01*
Y147998D01*
X693303Y149664D01*
X689971D01*
X688305Y147998D01*
Y144666D01*
X689971Y143000D01*
X698302Y149664D02*
Y143000D01*
Y146332D01*
X699968Y147998D01*
X701634Y149664D01*
X703300D01*
D30*
X105870Y466110D02*
Y483890D01*
X154130D01*
Y466110D02*
Y483890D01*
X105870Y466110D02*
X154130D01*
X127460D02*
Y483890D01*
X41000Y575000D02*
X73750D01*
Y400250D02*
Y575000D01*
X19750Y400250D02*
X73750D01*
X19750D02*
Y575000D01*
X41000D01*
X668500Y462750D02*
X714000D01*
X722000Y454750D01*
Y372000D02*
Y454750D01*
X712250Y362250D02*
X722000Y372000D01*
X668500Y362250D02*
X712250D01*
X668500D02*
Y462750D01*
X110870Y178610D02*
Y196390D01*
X159130D01*
Y178610D02*
Y196390D01*
X110870Y178610D02*
X159130D01*
X132460D02*
Y196390D01*
X233610Y199130D02*
X251390D01*
Y150870D02*
Y199130D01*
X233610Y150870D02*
X251390D01*
X233610D02*
Y199130D01*
Y177540D02*
X251390D01*
X92870Y691110D02*
Y708890D01*
X141130D01*
Y691110D02*
Y708890D01*
X92870Y691110D02*
X141130D01*
X114460D02*
Y708890D01*
X233610Y711630D02*
X251390D01*
Y663370D02*
Y711630D01*
X233610Y663370D02*
X251390D01*
X233610D02*
Y711630D01*
Y690040D02*
X251390D01*
X401200Y667350D02*
X461450Y667350D01*
X401200Y667350D02*
Y687600D01*
Y761350D02*
Y781600D01*
X461450Y781600D01*
X401200Y539850D02*
X461450Y539850D01*
X401200Y539850D02*
Y560100D01*
Y633850D02*
Y654100D01*
X461450Y654100D01*
X243610Y494130D02*
X261390D01*
Y445870D02*
Y494130D01*
X243610Y445870D02*
X261390D01*
X243610D02*
Y494130D01*
Y472540D02*
X261390D01*
X399500Y400250D02*
X459750Y400250D01*
X399500Y400250D02*
Y420500D01*
Y494250D02*
Y514500D01*
X459750Y514500D01*
X398700Y273150D02*
X458950Y273150D01*
X398700Y273150D02*
Y293400D01*
Y367150D02*
Y387400D01*
X458950Y387400D01*
X398700Y148150D02*
X458950Y148150D01*
X398700Y148150D02*
Y168400D01*
Y242150D02*
Y262400D01*
X458950Y262400D01*
X398700Y23150D02*
X458950Y23150D01*
X398700Y23150D02*
Y43400D01*
Y117150D02*
Y137400D01*
X458950Y137400D01*
X666000Y199750D02*
Y300250D01*
Y199750D02*
X709750D01*
X719500Y209500D01*
Y292250D01*
X711500Y300250D02*
X719500Y292250D01*
X666000Y300250D02*
X711500D01*
D31*
X106506Y475000D02*
D03*
X111506Y187500D02*
D03*
X93506Y700000D02*
D03*
D32*
X607100Y73450D02*
D03*
D33*
X99510Y368400D02*
D03*
D34*
X242500Y198495D02*
D03*
X242499Y710995D02*
D03*
X252500Y493494D02*
D03*
D35*
X282101Y165000D02*
D03*
X274760Y685000D02*
D03*
X279760Y602500D02*
D03*
X284601Y470000D02*
D03*
X284761Y380000D02*
D03*
X277101Y80000D02*
D03*
D36*
X217499Y682100D02*
D03*
X225000Y474599D02*
D03*
X215001Y179601D02*
D03*
M02*
