G04 Layer_Color=8388736*
%FSLAX44Y44*%
%MOMM*%
G71*
G01*
G75*
%ADD37R,1.9532X1.5532*%
%ADD38R,1.5532X1.9532*%
%ADD39R,1.1532X1.1532*%
G04:AMPARAMS|DCode=40|XSize=1.0052mm|YSize=1.7082mm|CornerRadius=0.3021mm|HoleSize=0mm|Usage=FLASHONLY|Rotation=90.000|XOffset=0mm|YOffset=0mm|HoleType=Round|Shape=RoundedRectangle|*
%AMROUNDEDRECTD40*
21,1,1.0052,1.1040,0,0,90.0*
21,1,0.4010,1.7082,0,0,90.0*
1,1,0.6042,0.5520,0.2005*
1,1,0.6042,0.5520,-0.2005*
1,1,0.6042,-0.5520,-0.2005*
1,1,0.6042,-0.5520,0.2005*
%
%ADD40ROUNDEDRECTD40*%
%ADD41R,1.1532X1.1532*%
%ADD42R,1.3032X1.9032*%
%ADD43R,9.0932X11.6332*%
%ADD44R,4.0132X2.2832*%
%ADD45O,3.6032X3.0032*%
%ADD46O,3.0032X3.6032*%
%ADD47C,2.4032*%
%ADD48C,1.7272*%
%ADD49C,1.7032*%
D37*
X143000Y475000D02*
D03*
X117000D02*
D03*
X148000Y187500D02*
D03*
X122000D02*
D03*
X130000Y700000D02*
D03*
X104000D02*
D03*
D38*
X242500Y162000D02*
D03*
Y188000D02*
D03*
Y674500D02*
D03*
Y700500D02*
D03*
X252500Y457000D02*
D03*
Y483000D02*
D03*
D39*
X307500Y165000D02*
D03*
X274840D02*
D03*
X300160Y685000D02*
D03*
X267500D02*
D03*
X305160Y602500D02*
D03*
X272500D02*
D03*
X310000Y470000D02*
D03*
X277340D02*
D03*
X310160Y380000D02*
D03*
X277500D02*
D03*
X302500Y80000D02*
D03*
X269840D02*
D03*
D40*
X200620Y450400D02*
D03*
Y437700D02*
D03*
Y412300D02*
D03*
Y425000D02*
D03*
X145000D02*
D03*
Y412300D02*
D03*
Y437700D02*
D03*
Y450400D02*
D03*
X205620Y150400D02*
D03*
Y137700D02*
D03*
Y112300D02*
D03*
Y125000D02*
D03*
X150000D02*
D03*
Y112300D02*
D03*
Y137700D02*
D03*
Y150400D02*
D03*
X193120Y665200D02*
D03*
Y652500D02*
D03*
Y627100D02*
D03*
Y639800D02*
D03*
X137500D02*
D03*
Y627100D02*
D03*
Y652500D02*
D03*
Y665200D02*
D03*
D41*
X217500Y707500D02*
D03*
Y674840D02*
D03*
X225000Y500000D02*
D03*
Y467340D02*
D03*
X215000Y205000D02*
D03*
Y172340D02*
D03*
D42*
X298500Y655000D02*
D03*
X271500D02*
D03*
X298500Y627500D02*
D03*
X271500D02*
D03*
X307500Y407500D02*
D03*
X280500D02*
D03*
X308500Y440000D02*
D03*
X281500D02*
D03*
X301000Y137500D02*
D03*
X274000D02*
D03*
X301000Y110000D02*
D03*
X274000D02*
D03*
D43*
X506700Y724600D02*
D03*
Y597100D02*
D03*
X505000Y457500D02*
D03*
X504200Y330400D02*
D03*
Y205400D02*
D03*
Y80400D02*
D03*
D44*
X392500Y750000D02*
D03*
Y699200D02*
D03*
Y622500D02*
D03*
Y571700D02*
D03*
X390800Y482900D02*
D03*
Y432100D02*
D03*
X390000Y355800D02*
D03*
Y305000D02*
D03*
Y230800D02*
D03*
Y180000D02*
D03*
Y105800D02*
D03*
Y55000D02*
D03*
D45*
X632500Y56940D02*
D03*
X682500D02*
D03*
D46*
X83000Y343000D02*
D03*
Y293000D02*
D03*
D47*
X47500Y500000D02*
D03*
Y525000D02*
D03*
Y550000D02*
D03*
Y475000D02*
D03*
Y450000D02*
D03*
Y425000D02*
D03*
X695000Y437500D02*
D03*
Y412500D02*
D03*
Y387500D02*
D03*
X692500Y225000D02*
D03*
Y250000D02*
D03*
Y275000D02*
D03*
D48*
X75000Y750000D02*
D03*
X650000D02*
D03*
X75000Y50000D02*
D03*
D49*
X98000Y490000D02*
D03*
X122000Y104000D02*
D03*
X97000Y187000D02*
D03*
X115000Y613000D02*
D03*
X77000Y699000D02*
D03*
X116000Y403000D02*
D03*
X350000Y305000D02*
D03*
X351000Y561000D02*
D03*
Y35000D02*
D03*
X576000Y265000D02*
D03*
X583500Y457500D02*
D03*
X574000Y725000D02*
D03*
M02*
