G04 Layer_Color=8421504*
%FSLAX44Y44*%
%MOMM*%
G71*
G01*
G75*
%ADD10R,1.7500X1.3500*%
%ADD11R,1.3500X1.7500*%
%ADD12R,0.9500X0.9500*%
G04:AMPARAMS|DCode=13|XSize=0.802mm|YSize=1.505mm|CornerRadius=0.2005mm|HoleSize=0mm|Usage=FLASHONLY|Rotation=90.000|XOffset=0mm|YOffset=0mm|HoleType=Round|Shape=RoundedRectangle|*
%AMROUNDEDRECTD13*
21,1,0.8020,1.1040,0,0,90.0*
21,1,0.4010,1.5050,0,0,90.0*
1,1,0.4010,0.5520,0.2005*
1,1,0.4010,0.5520,-0.2005*
1,1,0.4010,-0.5520,-0.2005*
1,1,0.4010,-0.5520,0.2005*
%
%ADD13ROUNDEDRECTD13*%
%ADD14R,0.9500X0.9500*%
%ADD15R,1.1000X1.7000*%
%ADD16R,8.8900X11.4300*%
%ADD17R,3.8100X2.0800*%
D10*
X143000Y475000D02*
D03*
X117000D02*
D03*
X148000Y187500D02*
D03*
X122000D02*
D03*
X130000Y700000D02*
D03*
X104000D02*
D03*
D11*
X242500Y162000D02*
D03*
Y188000D02*
D03*
Y674500D02*
D03*
Y700500D02*
D03*
X252500Y457000D02*
D03*
Y483000D02*
D03*
D12*
X307500Y165000D02*
D03*
X274840D02*
D03*
X300160Y685000D02*
D03*
X267500D02*
D03*
X305160Y602500D02*
D03*
X272500D02*
D03*
X310000Y470000D02*
D03*
X277340D02*
D03*
X310160Y380000D02*
D03*
X277500D02*
D03*
X302500Y80000D02*
D03*
X269840D02*
D03*
D13*
X200620Y450400D02*
D03*
Y437700D02*
D03*
Y412300D02*
D03*
Y425000D02*
D03*
X145000D02*
D03*
Y412300D02*
D03*
Y437700D02*
D03*
Y450400D02*
D03*
X205620Y150400D02*
D03*
Y137700D02*
D03*
Y112300D02*
D03*
Y125000D02*
D03*
X150000D02*
D03*
Y112300D02*
D03*
Y137700D02*
D03*
Y150400D02*
D03*
X193120Y665200D02*
D03*
Y652500D02*
D03*
Y627100D02*
D03*
Y639800D02*
D03*
X137500D02*
D03*
Y627100D02*
D03*
Y652500D02*
D03*
Y665200D02*
D03*
D14*
X217500Y707500D02*
D03*
Y674840D02*
D03*
X225000Y500000D02*
D03*
Y467340D02*
D03*
X215000Y205000D02*
D03*
Y172340D02*
D03*
D15*
X298500Y655000D02*
D03*
X271500D02*
D03*
X298500Y627500D02*
D03*
X271500D02*
D03*
X307500Y407500D02*
D03*
X280500D02*
D03*
X308500Y440000D02*
D03*
X281500D02*
D03*
X301000Y137500D02*
D03*
X274000D02*
D03*
X301000Y110000D02*
D03*
X274000D02*
D03*
D16*
X506700Y724600D02*
D03*
Y597100D02*
D03*
X505000Y457500D02*
D03*
X504200Y330400D02*
D03*
Y205400D02*
D03*
Y80400D02*
D03*
D17*
X392500Y750000D02*
D03*
Y699200D02*
D03*
Y622500D02*
D03*
Y571700D02*
D03*
X390800Y482900D02*
D03*
Y432100D02*
D03*
X390000Y355800D02*
D03*
Y305000D02*
D03*
Y230800D02*
D03*
Y180000D02*
D03*
Y105800D02*
D03*
Y55000D02*
D03*
M02*
