G04 Layer_Physical_Order=2*
G04 Layer_Color=16711680*
%FSLAX44Y44*%
%MOMM*%
G71*
G01*
G75*
%ADD18C,0.7500*%
%ADD19C,1.0000*%
%ADD21C,1.5000*%
%ADD23O,3.4000X2.8000*%
%ADD24O,2.8000X3.4000*%
%ADD25C,2.2000*%
%ADD26C,1.5240*%
%ADD27C,1.5000*%
G36*
X714588Y782101D02*
Y462000D01*
X673000D01*
Y423324D01*
X639500D01*
X631846Y420154D01*
X605346Y393654D01*
X602176Y386000D01*
Y296000D01*
X605346Y288346D01*
X651346Y242346D01*
X659000Y239176D01*
X679665D01*
X679948Y238494D01*
X680192Y237500D01*
X679948Y236506D01*
X675182Y225000D01*
X680254Y212754D01*
X692500Y207682D01*
X704746Y212754D01*
X705827Y215363D01*
X707000Y215529D01*
X713318Y218146D01*
X714588Y217535D01*
Y40736D01*
X699285D01*
X699037Y41982D01*
X700042Y42398D01*
X706065Y56940D01*
X700042Y71482D01*
X685500Y77505D01*
X679500D01*
X664958Y71482D01*
X658935Y56940D01*
X664958Y42398D01*
X668970Y40736D01*
Y33104D01*
X668396Y32530D01*
X435975D01*
X435199Y629622D01*
X435484Y630049D01*
X435721Y631250D01*
X435612Y631794D01*
X435824Y632306D01*
X435630Y781540D01*
X435697Y781880D01*
X435944Y782230D01*
X436807Y782905D01*
X436900Y782934D01*
X713690Y782999D01*
X714588Y782101D01*
D02*
G37*
G36*
X430389Y782932D02*
X430315Y782562D01*
X430316Y782058D01*
X430218Y781564D01*
X430412Y632299D01*
X430174Y631098D01*
X428880Y631097D01*
X428710Y631951D01*
X427605Y633605D01*
X411605Y649605D01*
X409951Y650710D01*
X408000Y651098D01*
X289902D01*
X289891Y651096D01*
X289881Y651098D01*
X288916Y650902D01*
X287951Y650710D01*
X287942Y650704D01*
X287932Y650702D01*
X287114Y650151D01*
X286297Y649605D01*
X286291Y649596D01*
X286283Y649591D01*
X285388Y648689D01*
X285382Y648680D01*
X285374Y648675D01*
X284833Y647851D01*
X284290Y647031D01*
X284288Y647021D01*
X284282Y647012D01*
X284097Y646041D01*
X283909Y645078D01*
X283911Y645068D01*
X283909Y645058D01*
X288902Y12960D01*
X289100Y12003D01*
X289227Y11368D01*
X288672Y10378D01*
X288391Y10098D01*
X10098D01*
Y789902D01*
X430389D01*
Y782932D01*
D02*
G37*
G36*
X424000Y630000D02*
Y21000D01*
X414000Y11000D01*
X296000D01*
X294000Y13000D01*
X289007Y645098D01*
X289902Y646000D01*
X408000D01*
X424000Y630000D01*
D02*
G37*
%LPC*%
G36*
X571000Y277541D02*
X565668Y275332D01*
X563459Y270000D01*
X571000D01*
Y277541D01*
D02*
G37*
G36*
X581000D02*
Y270000D01*
X588541D01*
X586332Y275332D01*
X581000Y277541D01*
D02*
G37*
G36*
X588541Y260000D02*
X581000D01*
Y252459D01*
X586332Y254668D01*
X588541Y260000D01*
D02*
G37*
G36*
X571000D02*
X563459D01*
X565668Y254668D01*
X571000Y252459D01*
Y260000D01*
D02*
G37*
G36*
X627500Y77759D02*
X614193Y72247D01*
X609923Y61940D01*
X627500D01*
Y77759D01*
D02*
G37*
G36*
X655077Y51940D02*
X637500D01*
Y36120D01*
X650807Y41632D01*
X655077Y51940D01*
D02*
G37*
G36*
X627500D02*
X609923D01*
X614193Y41632D01*
X627500Y36120D01*
Y51940D01*
D02*
G37*
G36*
X637500Y77759D02*
Y61940D01*
X655077D01*
X650807Y72247D01*
X637500Y77759D01*
D02*
G37*
G36*
X579000Y737541D02*
Y730000D01*
X586541D01*
X584332Y735332D01*
X579000Y737541D01*
D02*
G37*
G36*
X650000Y777060D02*
X649006Y776648D01*
X647929D01*
X647929Y776648D01*
X632622Y770307D01*
X632622D01*
X631860Y769546D01*
X630866Y769134D01*
X630454Y768140D01*
X629693Y767378D01*
Y767378D01*
X623352Y752071D01*
X623352Y752071D01*
Y750994D01*
X622940Y750000D01*
X623352Y749006D01*
Y747929D01*
X623352Y747929D01*
X629693Y732622D01*
Y732622D01*
X630454Y731860D01*
X630866Y730866D01*
X631860Y730454D01*
X632622Y729693D01*
X632622D01*
X647929Y723352D01*
X647929Y723352D01*
X649006D01*
X650000Y722940D01*
X650994Y723352D01*
X652071D01*
X652071Y723352D01*
X667378Y729693D01*
X667378D01*
X668140Y730454D01*
X669134Y730866D01*
X669546Y731860D01*
X670307Y732622D01*
Y732622D01*
X676648Y747929D01*
X676648Y747929D01*
Y749006D01*
X677060Y750000D01*
X676648Y750994D01*
Y752071D01*
X676648Y752071D01*
X670307Y767378D01*
Y767378D01*
X669546Y768140D01*
X669134Y769134D01*
X668140Y769546D01*
X667378Y770307D01*
X667378D01*
X652071Y776648D01*
X652071Y776648D01*
X650994D01*
X650000Y777060D01*
D02*
G37*
G36*
X569000Y737541D02*
X563668Y735332D01*
X561459Y730000D01*
X569000D01*
Y737541D01*
D02*
G37*
G36*
Y720000D02*
X561459D01*
X563668Y714668D01*
X569000Y712459D01*
Y720000D01*
D02*
G37*
G36*
X586541D02*
X579000D01*
Y712459D01*
X584332Y714668D01*
X586541Y720000D01*
D02*
G37*
G36*
X578500Y452500D02*
X570959D01*
X573168Y447168D01*
X578500Y444959D01*
Y452500D01*
D02*
G37*
G36*
X596041D02*
X588500D01*
Y444959D01*
X593832Y447168D01*
X596041Y452500D01*
D02*
G37*
G36*
X578500Y470041D02*
X573168Y467832D01*
X570959Y462500D01*
X578500D01*
Y470041D01*
D02*
G37*
G36*
X588500D02*
Y462500D01*
X596041D01*
X593832Y467832D01*
X588500Y470041D01*
D02*
G37*
G36*
X102000Y199541D02*
Y192000D01*
X109541D01*
X108792Y193808D01*
X106628Y196628D01*
X103808Y198792D01*
X102000Y199541D01*
D02*
G37*
G36*
X92000D02*
X90192Y198792D01*
X87372Y196628D01*
X85208Y193808D01*
X84459Y192000D01*
X92000D01*
Y199541D01*
D02*
G37*
G36*
X78000Y288000D02*
X63100D01*
X63289Y286079D01*
X64433Y282309D01*
X66290Y278835D01*
X68789Y275789D01*
X71835Y273290D01*
X75309Y271433D01*
X78000Y270617D01*
Y288000D01*
D02*
G37*
G36*
X88000Y315383D02*
Y298000D01*
X102900D01*
X102711Y299921D01*
X101567Y303691D01*
X99710Y307165D01*
X97211Y310211D01*
X94165Y312710D01*
X90691Y314567D01*
X88000Y315383D01*
D02*
G37*
G36*
X78000Y315383D02*
X75309Y314567D01*
X71835Y312710D01*
X68789Y310211D01*
X66290Y307165D01*
X64433Y303691D01*
X63289Y299921D01*
X63100Y298000D01*
X78000D01*
Y315383D01*
D02*
G37*
G36*
X102900Y288000D02*
X88000D01*
Y270617D01*
X90691Y271433D01*
X94165Y273290D01*
X97211Y275789D01*
X99710Y278835D01*
X101567Y282309D01*
X102711Y286079D01*
X102900Y288000D01*
D02*
G37*
G36*
X109541Y182000D02*
X102000D01*
Y174459D01*
X103808Y175208D01*
X106628Y177372D01*
X108792Y180192D01*
X109541Y182000D01*
D02*
G37*
G36*
X117000Y116541D02*
X115192Y115792D01*
X112372Y113628D01*
X110208Y110808D01*
X109459Y109000D01*
X117000D01*
Y116541D01*
D02*
G37*
G36*
X127000D02*
Y109000D01*
X134541D01*
X133792Y110808D01*
X131628Y113628D01*
X128808Y115792D01*
X127000Y116541D01*
D02*
G37*
G36*
X92000Y182000D02*
X84459D01*
X85208Y180192D01*
X87372Y177372D01*
X90192Y175208D01*
X92000Y174459D01*
Y182000D01*
D02*
G37*
G36*
X134541Y99000D02*
X127000D01*
Y91459D01*
X128808Y92208D01*
X131628Y94372D01*
X133792Y97192D01*
X134541Y99000D01*
D02*
G37*
G36*
X75000Y75195D02*
X74752Y75145D01*
X74500Y75170D01*
X70580Y74784D01*
X70099Y74638D01*
X69599Y74589D01*
X65830Y73445D01*
X65387Y73209D01*
X64906Y73063D01*
X61432Y71206D01*
X61044Y70887D01*
X60601Y70651D01*
X57555Y68151D01*
X57237Y67763D01*
X56849Y67445D01*
X54349Y64399D01*
X54113Y63956D01*
X53794Y63568D01*
X51937Y60094D01*
X51791Y59613D01*
X51555Y59170D01*
X50411Y55401D01*
X50362Y54901D01*
X50216Y54420D01*
X49830Y50500D01*
X49879Y50000D01*
X49830Y49500D01*
X50216Y45580D01*
X50362Y45099D01*
X50411Y44599D01*
X51555Y40830D01*
X51791Y40387D01*
X51937Y39906D01*
X53794Y36432D01*
X54113Y36044D01*
X54349Y35601D01*
X56849Y32555D01*
X57237Y32237D01*
X57555Y31849D01*
X60601Y29349D01*
X61044Y29113D01*
X61432Y28794D01*
X64906Y26937D01*
X65387Y26791D01*
X65830Y26555D01*
X69599Y25411D01*
X70099Y25362D01*
X70580Y25216D01*
X74500Y24830D01*
X74752Y24855D01*
X75000Y24805D01*
X75248Y24855D01*
X75500Y24830D01*
X79420Y25216D01*
X79901Y25362D01*
X80401Y25411D01*
X84171Y26555D01*
X84613Y26791D01*
X85094Y26937D01*
X88568Y28794D01*
X88956Y29113D01*
X89399Y29349D01*
X92445Y31849D01*
X92763Y32237D01*
X93151Y32555D01*
X95651Y35601D01*
X95887Y36044D01*
X96206Y36432D01*
X98063Y39906D01*
X98209Y40387D01*
X98445Y40830D01*
X99589Y44599D01*
X99638Y45099D01*
X99784Y45580D01*
X100170Y49500D01*
X100121Y50000D01*
X100170Y50500D01*
X99784Y54420D01*
X99638Y54901D01*
X99589Y55401D01*
X98445Y59170D01*
X98209Y59613D01*
X98063Y60094D01*
X96206Y63568D01*
X95887Y63956D01*
X95651Y64399D01*
X93151Y67445D01*
X92763Y67763D01*
X92445Y68151D01*
X89399Y70651D01*
X88956Y70887D01*
X88568Y71206D01*
X85094Y73063D01*
X84613Y73209D01*
X84171Y73445D01*
X80401Y74589D01*
X79901Y74638D01*
X79420Y74784D01*
X75500Y75170D01*
X75248Y75145D01*
X75000Y75195D01*
D02*
G37*
G36*
X117000Y99000D02*
X109459D01*
X110208Y97192D01*
X112372Y94372D01*
X115192Y92208D01*
X117000Y91459D01*
Y99000D01*
D02*
G37*
G36*
X83000Y365092D02*
X79275Y364725D01*
X75694Y363639D01*
X72393Y361874D01*
X69500Y359500D01*
X67126Y356607D01*
X65361Y353306D01*
X64275Y349725D01*
X63908Y346000D01*
Y340000D01*
X64275Y336275D01*
X65361Y332694D01*
X67126Y329393D01*
X69500Y326500D01*
X72393Y324126D01*
X75694Y322361D01*
X79275Y321275D01*
X83000Y320908D01*
X86725Y321275D01*
X90306Y322361D01*
X93607Y324126D01*
X96500Y326500D01*
X98874Y329393D01*
X100639Y332694D01*
X101725Y336275D01*
X102092Y340000D01*
Y346000D01*
X101725Y349725D01*
X100639Y353306D01*
X98874Y356607D01*
X96500Y359500D01*
X93607Y361874D01*
X90306Y363639D01*
X86725Y364725D01*
X83000Y365092D01*
D02*
G37*
G36*
X120000Y625541D02*
Y618000D01*
X127541D01*
X126792Y619808D01*
X124628Y622628D01*
X121808Y624792D01*
X120000Y625541D01*
D02*
G37*
G36*
X72000Y694000D02*
X64459D01*
X65208Y692192D01*
X67372Y689372D01*
X70192Y687208D01*
X72000Y686459D01*
Y694000D01*
D02*
G37*
G36*
X89541D02*
X82000D01*
Y686459D01*
X83808Y687208D01*
X86628Y689372D01*
X88792Y692192D01*
X89541Y694000D01*
D02*
G37*
G36*
X110000Y625541D02*
X108192Y624792D01*
X105372Y622628D01*
X103208Y619808D01*
X102459Y618000D01*
X110000D01*
Y625541D01*
D02*
G37*
G36*
Y608000D02*
X102459D01*
X103208Y606192D01*
X105372Y603372D01*
X108192Y601208D01*
X110000Y600459D01*
Y608000D01*
D02*
G37*
G36*
X127541D02*
X120000D01*
Y600459D01*
X121808Y601208D01*
X124628Y603372D01*
X126792Y606192D01*
X127541Y608000D01*
D02*
G37*
G36*
X72000Y711541D02*
X70192Y710792D01*
X67372Y708628D01*
X65208Y705808D01*
X64459Y704000D01*
X72000D01*
Y711541D01*
D02*
G37*
G36*
X75000Y775195D02*
X74752Y775145D01*
X74500Y775170D01*
X70580Y774784D01*
X70099Y774638D01*
X69599Y774589D01*
X65830Y773445D01*
X65387Y773209D01*
X64906Y773063D01*
X61432Y771206D01*
X61044Y770887D01*
X60601Y770651D01*
X57555Y768151D01*
X57237Y767763D01*
X56849Y767445D01*
X54349Y764399D01*
X54113Y763957D01*
X53794Y763568D01*
X51937Y760094D01*
X51791Y759613D01*
X51555Y759171D01*
X50411Y755400D01*
X50362Y754901D01*
X50216Y754420D01*
X49830Y750500D01*
X49879Y750000D01*
X49830Y749500D01*
X50216Y745580D01*
X50362Y745099D01*
X50411Y744600D01*
X51555Y740829D01*
X51791Y740387D01*
X51937Y739906D01*
X53794Y736432D01*
X54113Y736044D01*
X54349Y735601D01*
X56849Y732555D01*
X57237Y732237D01*
X57555Y731849D01*
X60601Y729349D01*
X61044Y729113D01*
X61432Y728794D01*
X64906Y726937D01*
X65387Y726791D01*
X65830Y726555D01*
X69599Y725411D01*
X70099Y725362D01*
X70580Y725216D01*
X74500Y724830D01*
X74752Y724855D01*
X75000Y724805D01*
X75248Y724855D01*
X75500Y724830D01*
X79420Y725216D01*
X79901Y725362D01*
X80401Y725411D01*
X84171Y726555D01*
X84613Y726791D01*
X85094Y726937D01*
X88568Y728794D01*
X88956Y729113D01*
X89399Y729349D01*
X92445Y731849D01*
X92763Y732237D01*
X93151Y732555D01*
X95651Y735601D01*
X95887Y736043D01*
X96206Y736432D01*
X98063Y739906D01*
X98209Y740387D01*
X98445Y740829D01*
X99589Y744600D01*
X99638Y745099D01*
X99784Y745580D01*
X100170Y749500D01*
X100121Y750000D01*
X100170Y750500D01*
X99784Y754420D01*
X99638Y754901D01*
X99589Y755400D01*
X98445Y759171D01*
X98209Y759613D01*
X98063Y760094D01*
X96206Y763568D01*
X95887Y763956D01*
X95651Y764399D01*
X93151Y767445D01*
X92763Y767763D01*
X92445Y768151D01*
X89399Y770651D01*
X88956Y770887D01*
X88568Y771206D01*
X85094Y773063D01*
X84613Y773209D01*
X84171Y773445D01*
X80401Y774589D01*
X79901Y774638D01*
X79420Y774784D01*
X75500Y775170D01*
X75248Y775145D01*
X75000Y775195D01*
D02*
G37*
G36*
X82000Y711541D02*
Y704000D01*
X89541D01*
X88792Y705808D01*
X86628Y708628D01*
X83808Y710792D01*
X82000Y711541D01*
D02*
G37*
G36*
X121000Y415541D02*
Y408000D01*
X128541D01*
X127792Y409808D01*
X125628Y412628D01*
X122808Y414792D01*
X121000Y415541D01*
D02*
G37*
G36*
X111000D02*
X109192Y414792D01*
X106372Y412628D01*
X104208Y409808D01*
X103459Y408000D01*
X111000D01*
Y415541D01*
D02*
G37*
G36*
Y398000D02*
X103459D01*
X104208Y396192D01*
X106372Y393372D01*
X109192Y391208D01*
X111000Y390459D01*
Y398000D01*
D02*
G37*
G36*
X128541D02*
X121000D01*
Y390459D01*
X122808Y391208D01*
X125628Y393372D01*
X127792Y396192D01*
X128541Y398000D01*
D02*
G37*
G36*
X72000Y574000D02*
X26000D01*
Y405000D01*
X72000D01*
Y574000D01*
D02*
G37*
G36*
X103000Y502541D02*
Y495000D01*
X110541D01*
X109792Y496808D01*
X107628Y499628D01*
X104808Y501792D01*
X103000Y502541D01*
D02*
G37*
G36*
X93000D02*
X91192Y501792D01*
X88372Y499628D01*
X86208Y496808D01*
X85459Y495000D01*
X93000D01*
Y502541D01*
D02*
G37*
G36*
Y485000D02*
X85459D01*
X86208Y483192D01*
X88372Y480372D01*
X91192Y478208D01*
X93000Y477459D01*
Y485000D01*
D02*
G37*
G36*
X110541D02*
X103000D01*
Y477459D01*
X104808Y478208D01*
X107628Y480372D01*
X109792Y483192D01*
X110541Y485000D01*
D02*
G37*
G36*
X345000Y317541D02*
X339668Y315332D01*
X337459Y310000D01*
X345000D01*
Y317541D01*
D02*
G37*
G36*
X355000D02*
Y310000D01*
X362541D01*
X360332Y315332D01*
X355000Y317541D01*
D02*
G37*
G36*
X345000Y300000D02*
X337459D01*
X339668Y294668D01*
X345000Y292459D01*
Y300000D01*
D02*
G37*
G36*
X362541D02*
X355000D01*
Y292459D01*
X360332Y294668D01*
X362541Y300000D01*
D02*
G37*
G36*
X346000Y47541D02*
X340668Y45332D01*
X338459Y40000D01*
X346000D01*
Y47541D01*
D02*
G37*
G36*
X356000D02*
Y40000D01*
X363541D01*
X361332Y45332D01*
X356000Y47541D01*
D02*
G37*
G36*
X346000Y30000D02*
X338459D01*
X340668Y24668D01*
X346000Y22459D01*
Y30000D01*
D02*
G37*
G36*
X363541D02*
X356000D01*
Y22459D01*
X361332Y24668D01*
X363541Y30000D01*
D02*
G37*
G36*
X356000Y573541D02*
Y566000D01*
X363541D01*
X361332Y571332D01*
X356000Y573541D01*
D02*
G37*
G36*
X346000D02*
X340668Y571332D01*
X338459Y566000D01*
X346000D01*
Y573541D01*
D02*
G37*
G36*
Y556000D02*
X338459D01*
X340668Y550668D01*
X346000Y548459D01*
Y556000D01*
D02*
G37*
G36*
X363541D02*
X356000D01*
Y548459D01*
X361332Y550668D01*
X363541Y556000D01*
D02*
G37*
%LPD*%
D18*
X692500Y225000D02*
X707000D01*
X712250Y230250D01*
Y292750D01*
X695000Y310000D02*
X712250Y292750D01*
X695000Y310000D02*
Y387500D01*
D19*
X659000Y250000D02*
X692500D01*
X613000Y296000D02*
X659000Y250000D01*
X613000Y296000D02*
Y386000D01*
X639500Y412500D01*
X695000D01*
D21*
X409000Y22000D02*
X412000Y19000D01*
X674000D01*
X682500Y27500D01*
Y56940D01*
D23*
X632500D02*
D03*
X682500D02*
D03*
D24*
X83000Y343000D02*
D03*
Y293000D02*
D03*
D25*
X47500Y500000D02*
D03*
Y525000D02*
D03*
Y550000D02*
D03*
Y475000D02*
D03*
Y450000D02*
D03*
Y425000D02*
D03*
X695000Y437500D02*
D03*
Y412500D02*
D03*
Y387500D02*
D03*
X692500Y225000D02*
D03*
Y250000D02*
D03*
Y275000D02*
D03*
D26*
X75000Y750000D02*
D03*
X650000D02*
D03*
X75000Y50000D02*
D03*
D27*
X98000Y490000D02*
D03*
X122000Y104000D02*
D03*
X97000Y187000D02*
D03*
X115000Y613000D02*
D03*
X77000Y699000D02*
D03*
X116000Y403000D02*
D03*
X350000Y305000D02*
D03*
X351000Y561000D02*
D03*
Y35000D02*
D03*
X576000Y265000D02*
D03*
X583500Y457500D02*
D03*
X574000Y725000D02*
D03*
M02*
