G04 Layer_Color=32896*
%FSLAX44Y44*%
%MOMM*%
G71*
G01*
G75*
%ADD26C,0.2540*%
%ADD28C,0.2000*%
%ADD45C,0.6000*%
%ADD46C,0.2500*%
%ADD47R,0.2540X1.5240*%
D26*
X545402Y375000D02*
G03*
X545402Y375000I-100402J0D01*
G01*
X430126Y202420D02*
G03*
X430126Y202420I-4016J0D01*
G01*
X999000Y562000D02*
G03*
X999000Y562000I-2000J0D01*
G01*
X252570Y521811D02*
Y506576D01*
X244953D01*
X242413Y509115D01*
Y511654D01*
X244953Y514193D01*
X252570D01*
X244953D01*
X242413Y516733D01*
Y519272D01*
X244953Y521811D01*
X252570D01*
X234796Y519272D02*
Y516733D01*
X237335D01*
X232257D01*
X234796D01*
Y509115D01*
X232257Y506576D01*
X224639D02*
X219561D01*
X222100D01*
Y521811D01*
X224639Y519272D01*
X317331Y255130D02*
X319870Y257669D01*
X324949D01*
X327488Y255130D01*
Y244973D01*
X324949Y242434D01*
X319870D01*
X317331Y244973D01*
X312253Y242434D02*
X307175D01*
X309714D01*
Y257669D01*
X312253Y255130D01*
X478529Y161370D02*
X481068Y163909D01*
X486147D01*
X488686Y161370D01*
Y151213D01*
X486147Y148674D01*
X481068D01*
X478529Y151213D01*
X463294Y148674D02*
X473451D01*
X463294Y158831D01*
Y161370D01*
X465833Y163909D01*
X470912D01*
X473451Y161370D01*
X603693Y271366D02*
X606232Y273905D01*
X611311D01*
X613850Y271366D01*
Y261209D01*
X611311Y258670D01*
X606232D01*
X603693Y261209D01*
X598615Y271366D02*
X596076Y273905D01*
X590997D01*
X588458Y271366D01*
Y268827D01*
X590997Y266287D01*
X593537D01*
X590997D01*
X588458Y263748D01*
Y261209D01*
X590997Y258670D01*
X596076D01*
X598615Y261209D01*
X638589Y401412D02*
X641128Y403951D01*
X646207D01*
X648746Y401412D01*
Y391255D01*
X646207Y388716D01*
X641128D01*
X638589Y391255D01*
X625893Y388716D02*
Y403951D01*
X633511Y396334D01*
X623354D01*
X798741Y563932D02*
X801281Y566471D01*
X806359D01*
X808898Y563932D01*
Y553775D01*
X806359Y551236D01*
X801281D01*
X798741Y553775D01*
X783506Y566471D02*
X793663D01*
Y558853D01*
X788585Y561393D01*
X786045D01*
X783506Y558853D01*
Y553775D01*
X786045Y551236D01*
X791124D01*
X793663Y553775D01*
X798609Y711386D02*
X801149Y713925D01*
X806227D01*
X808766Y711386D01*
Y701229D01*
X806227Y698690D01*
X801149D01*
X798609Y701229D01*
X783374Y713925D02*
X788453Y711386D01*
X793531Y706308D01*
Y701229D01*
X790992Y698690D01*
X785913D01*
X783374Y701229D01*
Y703768D01*
X785913Y706308D01*
X793531D01*
X898497Y711546D02*
X901037Y714085D01*
X906115D01*
X908654Y711546D01*
Y701389D01*
X906115Y698850D01*
X901037D01*
X898497Y701389D01*
X893419Y714085D02*
X883262D01*
Y711546D01*
X893419Y701389D01*
Y698850D01*
X432000Y155035D02*
Y139800D01*
X424383D01*
X421843Y142339D01*
Y152496D01*
X424383Y155035D01*
X432000D01*
X416765Y139800D02*
Y149957D01*
X411687Y155035D01*
X406608Y149957D01*
Y139800D01*
Y147417D01*
X416765D01*
X401530Y139800D02*
X396452D01*
X398991D01*
Y155035D01*
X401530Y152496D01*
X585000Y437265D02*
Y452500D01*
X592617D01*
X595157Y449961D01*
Y439804D01*
X592617Y437265D01*
X585000D01*
X600235D02*
Y452500D01*
X607853D01*
X610392Y449961D01*
Y439804D01*
X607853Y437265D01*
X600235D01*
X615470Y452500D02*
X620549D01*
X618009D01*
Y437265D01*
X615470Y439804D01*
X549110Y504589D02*
Y489354D01*
X538953D01*
X533875D02*
X528797D01*
X531336D01*
Y504589D01*
X533875Y502050D01*
X532500Y135000D02*
Y150235D01*
X524883D01*
X522343Y147696D01*
Y142618D01*
X524883Y140078D01*
X532500D01*
X527422D02*
X522343Y135000D01*
X517265D02*
X512187D01*
X514726D01*
Y150235D01*
X517265Y147696D01*
X540542Y217694D02*
Y232929D01*
X532924D01*
X530385Y230390D01*
Y225312D01*
X532924Y222772D01*
X540542D01*
X535464D02*
X530385Y217694D01*
X515150D02*
X525307D01*
X515150Y227851D01*
Y230390D01*
X517689Y232929D01*
X522768D01*
X525307Y230390D01*
X420000Y217500D02*
Y232735D01*
X412383D01*
X409843Y230196D01*
Y225118D01*
X412383Y222578D01*
X420000D01*
X414922D02*
X409843Y217500D01*
X404765Y230196D02*
X402226Y232735D01*
X397147D01*
X394608Y230196D01*
Y227657D01*
X397147Y225118D01*
X399687D01*
X397147D01*
X394608Y222578D01*
Y220039D01*
X397147Y217500D01*
X402226D01*
X404765Y220039D01*
X859930Y215650D02*
Y230885D01*
X852312D01*
X849773Y228346D01*
Y223267D01*
X852312Y220728D01*
X859930D01*
X854852D02*
X849773Y215650D01*
X837077D02*
Y230885D01*
X844695Y223267D01*
X834538D01*
X123300Y627100D02*
Y611865D01*
X130918D01*
X133457Y614404D01*
Y619482D01*
X130918Y622022D01*
X123300D01*
X128378D02*
X133457Y627100D01*
X148692Y611865D02*
X138535D01*
Y619482D01*
X143614Y616943D01*
X146153D01*
X148692Y619482D01*
Y624561D01*
X146153Y627100D01*
X141074D01*
X138535Y624561D01*
X899992Y520634D02*
Y535869D01*
X892374D01*
X889835Y533330D01*
Y528251D01*
X892374Y525712D01*
X899992D01*
X894914D02*
X889835Y520634D01*
X874600Y535869D02*
X879679Y533330D01*
X884757Y528251D01*
Y523173D01*
X882218Y520634D01*
X877139D01*
X874600Y523173D01*
Y525712D01*
X877139Y528251D01*
X884757D01*
X647984Y737740D02*
Y752975D01*
X640367D01*
X637827Y750436D01*
Y745358D01*
X640367Y742818D01*
X647984D01*
X642906D02*
X637827Y737740D01*
X632749Y752975D02*
X622592D01*
Y750436D01*
X632749Y740279D01*
Y737740D01*
X556438Y291391D02*
Y281234D01*
X551360Y276156D01*
X546281Y281234D01*
Y291391D01*
X541203D02*
Y276156D01*
X533585D01*
X531046Y278695D01*
Y288852D01*
X533585Y291391D01*
X541203D01*
X525968Y276156D02*
X520890D01*
X523429D01*
Y291391D01*
X525968Y288852D01*
X1000000Y387735D02*
X989843Y372500D01*
Y387735D02*
X1000000Y372500D01*
X984765D02*
Y387735D01*
X977147D01*
X974608Y385196D01*
Y380117D01*
X977147Y377578D01*
X984765D01*
X969530Y372500D02*
X964452D01*
X966991D01*
Y387735D01*
X969530Y385196D01*
X944765Y630000D02*
Y619843D01*
X947304D01*
X957461Y630000D01*
X960000D01*
Y619843D01*
X957461Y604608D02*
X947304D01*
X944765Y607147D01*
Y612226D01*
X947304Y614765D01*
X957461D01*
X960000Y612226D01*
Y607147D01*
X954922Y609687D02*
X960000Y604608D01*
Y607147D02*
X957461Y604608D01*
X960000Y599530D02*
Y594451D01*
Y596991D01*
X944765D01*
X947304Y599530D01*
D28*
X29000Y498000D02*
G03*
X26000Y495000I0J-3000D01*
G01*
Y225000D02*
G03*
X28000Y223000I2000J0D01*
G01*
X252000D02*
G03*
X254000Y225000I0J2000D01*
G01*
X786000Y540000D02*
X794000D01*
X786000Y525000D02*
X794000D01*
X626000Y727500D02*
X634000D01*
X626000Y712500D02*
X634000D01*
X744480Y646950D02*
Y648220D01*
X933710D01*
X744480Y558050D02*
Y646950D01*
Y558050D02*
X933710Y558050D01*
X933710Y648220D02*
X933710Y558050D01*
X886000Y672500D02*
X894000D01*
X886000Y687500D02*
X894000D01*
X786000Y687500D02*
X794000D01*
X786000Y672500D02*
X794000D01*
X626000Y377500D02*
X634000D01*
X626000Y362500D02*
X634000D01*
X860000Y183500D02*
Y191500D01*
X845000Y183500D02*
Y191500D01*
X21740Y543170D02*
Y596510D01*
Y543170D02*
X227498D01*
Y596510D01*
X21740D02*
X227498D01*
X14120Y585080D02*
X20470Y585080D01*
X14120Y553330D02*
Y585080D01*
Y553330D02*
X19200Y553330D01*
X659946Y470000D02*
X725000Y535054D01*
Y404946D02*
X790054Y470000D01*
X725000Y535054D02*
X790054Y470000D01*
X659946D02*
X725000Y404946D01*
X900000Y488500D02*
Y496500D01*
X885000Y488500D02*
Y496500D01*
X518500Y177500D02*
X526500D01*
X518500Y162500D02*
X526500D01*
X518500Y207500D02*
X526500D01*
X518500Y192500D02*
X526500D01*
X600160Y193010D02*
X606510D01*
Y177770D02*
X611905Y171700D01*
X567140Y177770D02*
X573096Y171070D01*
X567140Y185390D02*
X574287Y177350D01*
X573490Y187930D02*
X578255Y182570D01*
X579840Y189200D02*
X585796Y182500D01*
X587460Y189200D02*
X592785Y183209D01*
X595080Y189200D02*
X600475Y183130D01*
X602700Y189200D02*
X612860Y177770D01*
X607780Y189200D02*
X612860Y182850D01*
X567140Y189200D02*
X612860D01*
X606510Y245080D02*
X612860Y245080D01*
Y168880D02*
Y245080D01*
X606510Y168880D02*
X612860D01*
X567140D02*
X573490D01*
X567140D02*
Y245080D01*
X573490Y245080D01*
X556750Y253690D02*
Y260040D01*
X507220Y265120D02*
X554210D01*
Y249880D02*
Y265120D01*
X507220Y249880D02*
X554210D01*
X507220D02*
Y265120D01*
X401000Y242500D02*
X409000D01*
X401000Y257500D02*
X409000D01*
X396900Y210040D02*
X432460Y210040D01*
X396900Y165590D02*
Y210040D01*
Y165590D02*
X417220D01*
X412140D02*
X432460Y165590D01*
Y210040D01*
X466000Y137500D02*
X474000D01*
X466000Y122500D02*
X474000D01*
X288490Y204490D02*
X294840D01*
X283095Y225800D02*
X288490Y219730D01*
X321904Y226430D02*
X327860Y219730D01*
X320713Y220150D02*
X327860Y212110D01*
X316745Y214930D02*
X321510Y209570D01*
X309204Y215000D02*
X315160Y208300D01*
X302215Y214291D02*
X307540Y208300D01*
X294525Y214370D02*
X299920Y208300D01*
X282140Y219730D02*
X292300Y208300D01*
X282140Y214650D02*
X287220Y208300D01*
X282140D02*
X327860D01*
X282140Y152420D02*
X288490Y152420D01*
X282140Y152420D02*
Y228620D01*
X288490D01*
X321510D02*
X327860D01*
Y152420D02*
Y228620D01*
X321510Y152420D02*
X327860Y152420D01*
X173000Y458000D02*
X189000D01*
X176000Y248000D02*
X192000D01*
X184000Y240000D02*
Y256000D01*
X29000Y498000D02*
X254000D01*
X26000Y225000D02*
Y495000D01*
X28000Y223000D02*
X252000D01*
X254000Y225000D02*
Y498000D01*
X975000Y406000D02*
X1015000D01*
Y480000D01*
X975000Y406000D02*
Y480000D01*
Y556000D01*
X1015000Y480000D02*
Y556000D01*
X975000D02*
X1015000D01*
X824490Y638060D02*
X827822D01*
X826156D01*
Y628063D01*
X824490Y629729D01*
X832821Y638060D02*
Y628063D01*
X836153Y631395D01*
X839485Y628063D01*
Y638060D01*
X842817Y628063D02*
Y638060D01*
Y633062D01*
X849482D01*
Y628063D01*
Y638060D01*
X852814Y631395D02*
X859479D01*
X852814Y638060D01*
X859479D01*
X55665Y480669D02*
X53998Y479003D01*
X50666D01*
X49000Y480669D01*
Y487334D01*
X50666Y489000D01*
X53998D01*
X55665Y487334D01*
X58997Y479003D02*
Y489000D01*
Y484002D01*
X65661D01*
Y479003D01*
Y489000D01*
X75658D02*
X68994D01*
X75658Y482336D01*
Y480669D01*
X73992Y479003D01*
X70660D01*
X68994Y480669D01*
X85655Y479003D02*
X78990D01*
Y484002D01*
X82323Y482336D01*
X83989D01*
X85655Y484002D01*
Y487334D01*
X83989Y489000D01*
X80656D01*
X78990Y487334D01*
X88987Y484002D02*
X95652D01*
X105648Y489000D02*
X98984D01*
X105648Y482336D01*
Y480669D01*
X103982Y479003D01*
X100650D01*
X98984Y480669D01*
X108981D02*
X110647Y479003D01*
X113979D01*
X115645Y480669D01*
Y487334D01*
X113979Y489000D01*
X110647D01*
X108981Y487334D01*
Y480669D01*
X118977D02*
X120644Y479003D01*
X123976D01*
X125642Y480669D01*
Y482336D01*
X123976Y484002D01*
X122310D01*
X123976D01*
X125642Y485668D01*
Y487334D01*
X123976Y489000D01*
X120644D01*
X118977Y487334D01*
X135639Y489000D02*
X128974D01*
X135639Y482336D01*
Y480669D01*
X133973Y479003D01*
X130640D01*
X128974Y480669D01*
X970000Y484997D02*
Y475000D01*
X965002D01*
X963335Y476666D01*
Y483331D01*
X965002Y484997D01*
X970000D01*
X953339Y483331D02*
X955005Y484997D01*
X958337D01*
X960003Y483331D01*
Y481665D01*
X958337Y479998D01*
X955005D01*
X953339Y478332D01*
Y476666D01*
X955005Y475000D01*
X958337D01*
X960003Y476666D01*
X961336Y434331D02*
X963002Y435997D01*
X966334D01*
X968000Y434331D01*
Y427666D01*
X966334Y426000D01*
X963002D01*
X961336Y427666D01*
Y430998D01*
X964668D01*
X958003Y426000D02*
Y435997D01*
X951339Y426000D01*
Y435997D01*
X948006D02*
Y426000D01*
X943008D01*
X941342Y427666D01*
Y434331D01*
X943008Y435997D01*
X948006D01*
X968000Y535997D02*
Y529332D01*
X964668Y526000D01*
X961336Y529332D01*
Y535997D01*
X951339Y534331D02*
X953005Y535997D01*
X956337D01*
X958003Y534331D01*
Y527666D01*
X956337Y526000D01*
X953005D01*
X951339Y527666D01*
X941342Y534331D02*
X943008Y535997D01*
X946340D01*
X948006Y534331D01*
Y527666D01*
X946340Y526000D01*
X943008D01*
X941342Y527666D01*
D45*
X728000Y419088D02*
G03*
X728000Y419088I-3000J0D01*
G01*
D46*
X719532Y395400D02*
G03*
X719532Y395400I-1250J0D01*
G01*
D47*
X540240Y257500D02*
D03*
M02*
