G04 Layer_Color=65535*
%FSLAX44Y44*%
%MOMM*%
G71*
G01*
G75*
%ADD10C,0.5000*%
%ADD26C,0.2540*%
%ADD27C,0.1000*%
%ADD28C,0.2000*%
%ADD29R,16.7500X3.2500*%
G36*
X812489Y239057D02*
X812734Y239009D01*
X813075Y238911D01*
X813417Y238667D01*
X813661Y238374D01*
X813856Y237983D01*
X813954Y237398D01*
Y214160D01*
Y214111D01*
X813905Y213916D01*
X813856Y213623D01*
X813759Y213330D01*
X813515Y213037D01*
X813222Y212744D01*
X812782Y212549D01*
X812197Y212500D01*
X812148D01*
X811953Y212549D01*
X811660Y212598D01*
X811367Y212695D01*
X811074Y212891D01*
X810781Y213183D01*
X810586Y213623D01*
X810537Y214160D01*
Y233883D01*
X808242Y231002D01*
X808145Y230905D01*
X807900Y230758D01*
X807510Y230612D01*
X807022Y230514D01*
X806973D01*
X806778Y230563D01*
X806485Y230612D01*
X806192Y230709D01*
X805899Y230954D01*
X805606Y231246D01*
X805411Y231637D01*
X805362Y232223D01*
Y232272D01*
Y232320D01*
X805411Y232613D01*
X805557Y233004D01*
X805801Y233395D01*
X810879Y238423D01*
X810927Y238472D01*
X810976Y238520D01*
X811269Y238764D01*
X811660Y239009D01*
X811953Y239057D01*
X812197Y239106D01*
X812294D01*
X812489Y239057D01*
D02*
G37*
G36*
X820496Y217089D02*
X820740Y217040D01*
X821082Y216943D01*
X821423Y216698D01*
X821667Y216406D01*
X821863Y216015D01*
X821960Y215429D01*
Y214160D01*
Y214111D01*
X821911Y213916D01*
X821863Y213623D01*
X821765Y213330D01*
X821521Y213037D01*
X821228Y212744D01*
X820789Y212549D01*
X820203Y212500D01*
X820154D01*
X819959Y212549D01*
X819666Y212598D01*
X819373Y212695D01*
X819080Y212891D01*
X818787Y213183D01*
X818592Y213623D01*
X818543Y214160D01*
Y215429D01*
Y215527D01*
X818592Y215722D01*
X818641Y215966D01*
X818738Y216308D01*
X818934Y216601D01*
X819227Y216894D01*
X819666Y217089D01*
X820203Y217138D01*
X820301D01*
X820496Y217089D01*
D02*
G37*
G36*
X775387Y231295D02*
X775631Y231246D01*
X775973Y231149D01*
X776315Y230905D01*
X776559Y230612D01*
X776754Y230221D01*
X776852Y229635D01*
Y229587D01*
Y229489D01*
X776803Y229342D01*
X776754Y229147D01*
X771677Y213818D01*
Y213769D01*
X771579Y213623D01*
X771482Y213379D01*
X771286Y213183D01*
X771091Y212939D01*
X770749Y212695D01*
X770408Y212549D01*
X769968Y212500D01*
X769773D01*
X769578Y212549D01*
X769285Y212647D01*
X769041Y212842D01*
X768748Y213037D01*
X768504Y213379D01*
X768308Y213818D01*
X763183Y229098D01*
Y229147D01*
Y229294D01*
X763134Y229635D01*
Y229684D01*
Y229782D01*
X763183Y230075D01*
X763329Y230465D01*
X763622Y230856D01*
X763719Y230954D01*
X763964Y231100D01*
X764305Y231246D01*
X764793Y231344D01*
X764989D01*
X765233Y231295D01*
X765477Y231198D01*
X765770Y231051D01*
X766014Y230856D01*
X766258Y230563D01*
X766453Y230172D01*
X769968Y218651D01*
X773483Y230172D01*
Y230221D01*
X773581Y230368D01*
X773679Y230563D01*
X773825Y230758D01*
X774069Y230954D01*
X774313Y231149D01*
X774655Y231295D01*
X775094Y231344D01*
X775192D01*
X775387Y231295D01*
D02*
G37*
G36*
X783540Y217089D02*
X783784Y217040D01*
X784126Y216943D01*
X784467Y216698D01*
X784712Y216406D01*
X784907Y216015D01*
X785005Y215429D01*
Y214160D01*
Y214111D01*
X784956Y213916D01*
X784907Y213623D01*
X784809Y213330D01*
X784565Y213037D01*
X784272Y212744D01*
X783833Y212549D01*
X783247Y212500D01*
X783198D01*
X783003Y212549D01*
X782710Y212598D01*
X782417Y212695D01*
X782124Y212891D01*
X781831Y213183D01*
X781636Y213623D01*
X781587Y214160D01*
Y215429D01*
Y215527D01*
X781636Y215722D01*
X781685Y215966D01*
X781783Y216308D01*
X781978Y216601D01*
X782271Y216894D01*
X782710Y217089D01*
X783247Y217138D01*
X783345D01*
X783540Y217089D01*
D02*
G37*
G36*
X852179Y239057D02*
X852423Y239009D01*
X852765Y238960D01*
X853156Y238813D01*
X853546Y238667D01*
X853986Y238472D01*
X854425Y238179D01*
X854913Y237837D01*
X855401Y237398D01*
X855889Y236909D01*
X856329Y236324D01*
X856768Y235591D01*
X857159Y234810D01*
X857500Y233883D01*
Y233834D01*
X857549Y233736D01*
X857598Y233541D01*
X857696Y233248D01*
X857793Y232955D01*
X857891Y232565D01*
X857989Y232076D01*
X858086Y231588D01*
X858184Y231002D01*
X858281Y230368D01*
X858477Y229001D01*
X858623Y227439D01*
X858672Y225779D01*
Y225730D01*
Y225583D01*
Y225339D01*
Y224998D01*
X858623Y224607D01*
Y224119D01*
X858574Y223582D01*
X858526Y222996D01*
X858379Y221727D01*
X858184Y220409D01*
X857891Y218993D01*
X857500Y217675D01*
Y217626D01*
X857403Y217431D01*
X857305Y217187D01*
X857159Y216845D01*
X856963Y216454D01*
X856719Y216015D01*
X856133Y215087D01*
X855352Y214160D01*
X854864Y213720D01*
X854327Y213330D01*
X853790Y212988D01*
X853156Y212744D01*
X852521Y212549D01*
X851789Y212500D01*
X851593D01*
X851398Y212549D01*
X851154Y212598D01*
X850812Y212647D01*
X850471Y212793D01*
X850031Y212939D01*
X849592Y213135D01*
X849152Y213428D01*
X848664Y213769D01*
X848176Y214160D01*
X847737Y214648D01*
X847249Y215234D01*
X846809Y215917D01*
X846419Y216747D01*
X846077Y217626D01*
Y217675D01*
X846028Y217772D01*
X845979Y217968D01*
X845882Y218212D01*
X845833Y218554D01*
X845735Y218944D01*
X845638Y219432D01*
X845540Y219921D01*
X845393Y220506D01*
X845296Y221141D01*
X845198Y221776D01*
X845149Y222508D01*
X845003Y224070D01*
X844954Y225779D01*
Y225828D01*
Y225974D01*
Y226218D01*
Y226560D01*
X845003Y226950D01*
Y227439D01*
X845052Y227976D01*
X845100Y228561D01*
X845247Y229831D01*
X845442Y231198D01*
X845686Y232565D01*
X846077Y233883D01*
Y233932D01*
X846174Y234127D01*
X846272Y234371D01*
X846419Y234713D01*
X846614Y235103D01*
X846858Y235543D01*
X847444Y236519D01*
X848225Y237446D01*
X848713Y237886D01*
X849250Y238276D01*
X849787Y238618D01*
X850422Y238862D01*
X851056Y239057D01*
X851789Y239106D01*
X851984D01*
X852179Y239057D01*
D02*
G37*
G36*
X833726D02*
X833970Y239009D01*
X834312Y238960D01*
X834702Y238813D01*
X835093Y238667D01*
X835532Y238472D01*
X835971Y238179D01*
X836460Y237837D01*
X836948Y237398D01*
X837436Y236909D01*
X837875Y236324D01*
X838315Y235591D01*
X838705Y234810D01*
X839047Y233883D01*
Y233834D01*
X839096Y233736D01*
X839145Y233541D01*
X839242Y233248D01*
X839340Y232955D01*
X839437Y232565D01*
X839535Y232076D01*
X839633Y231588D01*
X839730Y231002D01*
X839828Y230368D01*
X840023Y229001D01*
X840170Y227439D01*
X840219Y225779D01*
Y225730D01*
Y225583D01*
Y225339D01*
Y224998D01*
X840170Y224607D01*
Y224119D01*
X840121Y223582D01*
X840072Y222996D01*
X839926Y221727D01*
X839730Y220409D01*
X839437Y218993D01*
X839047Y217675D01*
Y217626D01*
X838949Y217431D01*
X838852Y217187D01*
X838705Y216845D01*
X838510Y216454D01*
X838266Y216015D01*
X837680Y215087D01*
X836899Y214160D01*
X836411Y213720D01*
X835874Y213330D01*
X835337Y212988D01*
X834702Y212744D01*
X834067Y212549D01*
X833335Y212500D01*
X833140D01*
X832945Y212549D01*
X832701Y212598D01*
X832359Y212647D01*
X832017Y212793D01*
X831578Y212939D01*
X831138Y213135D01*
X830699Y213428D01*
X830211Y213769D01*
X829723Y214160D01*
X829283Y214648D01*
X828795Y215234D01*
X828356Y215917D01*
X827965Y216747D01*
X827623Y217626D01*
Y217675D01*
X827574Y217772D01*
X827526Y217968D01*
X827428Y218212D01*
X827379Y218554D01*
X827282Y218944D01*
X827184Y219432D01*
X827086Y219921D01*
X826940Y220506D01*
X826842Y221141D01*
X826745Y221776D01*
X826696Y222508D01*
X826549Y224070D01*
X826500Y225779D01*
Y225828D01*
Y225974D01*
Y226218D01*
Y226560D01*
X826549Y226950D01*
Y227439D01*
X826598Y227976D01*
X826647Y228561D01*
X826793Y229831D01*
X826989Y231198D01*
X827233Y232565D01*
X827623Y233883D01*
Y233932D01*
X827721Y234127D01*
X827819Y234371D01*
X827965Y234713D01*
X828160Y235103D01*
X828404Y235543D01*
X828990Y236519D01*
X829771Y237446D01*
X830259Y237886D01*
X830797Y238276D01*
X831333Y238618D01*
X831968Y238862D01*
X832603Y239057D01*
X833335Y239106D01*
X833530D01*
X833726Y239057D01*
D02*
G37*
G36*
X707041Y218358D02*
X707285Y218309D01*
X707627Y218212D01*
X707968Y217968D01*
X708213Y217675D01*
X708408Y217284D01*
X708505Y216698D01*
Y215429D01*
Y215380D01*
X708457Y215185D01*
X708408Y214892D01*
X708310Y214599D01*
X708066Y214306D01*
X707773Y214013D01*
X707334Y213818D01*
X706748Y213769D01*
X706699D01*
X706504Y213818D01*
X706211Y213867D01*
X705918Y213965D01*
X705625Y214160D01*
X705332Y214453D01*
X705137Y214892D01*
X705088Y215429D01*
Y216698D01*
Y216796D01*
X705137Y216991D01*
X705186Y217235D01*
X705283Y217577D01*
X705479Y217870D01*
X705772Y218163D01*
X706211Y218358D01*
X706748Y218407D01*
X706846D01*
X707041Y218358D01*
D02*
G37*
G36*
X870633Y239057D02*
X870877Y239009D01*
X871218Y238960D01*
X871609Y238813D01*
X872000Y238667D01*
X872439Y238472D01*
X872878Y238179D01*
X873366Y237837D01*
X873855Y237398D01*
X874343Y236909D01*
X874782Y236324D01*
X875222Y235591D01*
X875612Y234810D01*
X875954Y233883D01*
Y233834D01*
X876003Y233736D01*
X876052Y233541D01*
X876149Y233248D01*
X876247Y232955D01*
X876345Y232565D01*
X876442Y232076D01*
X876540Y231588D01*
X876637Y231002D01*
X876735Y230368D01*
X876930Y229001D01*
X877077Y227439D01*
X877126Y225779D01*
Y225730D01*
Y225583D01*
Y225339D01*
Y224998D01*
X877077Y224607D01*
Y224119D01*
X877028Y223582D01*
X876979Y222996D01*
X876833Y221727D01*
X876637Y220409D01*
X876345Y218993D01*
X875954Y217675D01*
Y217626D01*
X875856Y217431D01*
X875759Y217187D01*
X875612Y216845D01*
X875417Y216454D01*
X875173Y216015D01*
X874587Y215087D01*
X873806Y214160D01*
X873318Y213720D01*
X872781Y213330D01*
X872244Y212988D01*
X871609Y212744D01*
X870974Y212549D01*
X870242Y212500D01*
X870047D01*
X869852Y212549D01*
X869607Y212598D01*
X869266Y212647D01*
X868924Y212793D01*
X868485Y212939D01*
X868045Y213135D01*
X867606Y213428D01*
X867118Y213769D01*
X866629Y214160D01*
X866190Y214648D01*
X865702Y215234D01*
X865263Y215917D01*
X864872Y216747D01*
X864530Y217626D01*
Y217675D01*
X864482Y217772D01*
X864433Y217968D01*
X864335Y218212D01*
X864286Y218554D01*
X864189Y218944D01*
X864091Y219432D01*
X863993Y219921D01*
X863847Y220506D01*
X863749Y221141D01*
X863652Y221776D01*
X863603Y222508D01*
X863456Y224070D01*
X863408Y225779D01*
Y225828D01*
Y225974D01*
Y226218D01*
Y226560D01*
X863456Y226950D01*
Y227439D01*
X863505Y227976D01*
X863554Y228561D01*
X863700Y229831D01*
X863896Y231198D01*
X864140Y232565D01*
X864530Y233883D01*
Y233932D01*
X864628Y234127D01*
X864726Y234371D01*
X864872Y234713D01*
X865067Y235103D01*
X865311Y235543D01*
X865897Y236519D01*
X866678Y237446D01*
X867167Y237886D01*
X867703Y238276D01*
X868241Y238618D01*
X868875Y238862D01*
X869510Y239057D01*
X870242Y239106D01*
X870437D01*
X870633Y239057D01*
D02*
G37*
G36*
X698693D02*
X698937Y239009D01*
X699279Y238911D01*
X699572Y238667D01*
X699865Y238374D01*
X700060Y237983D01*
X700109Y237398D01*
Y237349D01*
Y237300D01*
X700060Y237007D01*
X694934Y213867D01*
Y213818D01*
X694885Y213672D01*
X694787Y213428D01*
X694592Y213183D01*
X694397Y212939D01*
X694104Y212695D01*
X693713Y212549D01*
X693225Y212500D01*
X693030D01*
X692835Y212598D01*
X692542Y212695D01*
X692298Y212842D01*
X692005Y213086D01*
X691761Y213428D01*
X691565Y213867D01*
X688099Y225144D01*
X684633Y213867D01*
Y213818D01*
X684535Y213672D01*
X684438Y213428D01*
X684242Y213183D01*
X684047Y212939D01*
X683706Y212695D01*
X683364Y212549D01*
X682924Y212500D01*
X682729D01*
X682485Y212549D01*
X682192Y212647D01*
X681948Y212793D01*
X681655Y212988D01*
X681460Y213232D01*
X681313Y213623D01*
X676090Y237007D01*
Y237056D01*
Y237153D01*
Y237398D01*
Y237495D01*
X676139Y237691D01*
X676187Y237935D01*
X676285Y238276D01*
X676480Y238569D01*
X676773Y238862D01*
X677213Y239057D01*
X677750Y239106D01*
X677994D01*
X678189Y239057D01*
X678482Y238960D01*
X678775Y238862D01*
X679019Y238667D01*
X679214Y238374D01*
X679361Y238032D01*
X683266Y219384D01*
X686439Y229977D01*
Y230026D01*
X686537Y230172D01*
X686635Y230417D01*
X686830Y230661D01*
X687025Y230905D01*
X687318Y231149D01*
X687660Y231295D01*
X688050Y231344D01*
X688246D01*
X688490Y231295D01*
X688734Y231198D01*
X689027Y231051D01*
X689271Y230856D01*
X689515Y230612D01*
X689661Y230221D01*
X692932Y219384D01*
X696740Y237739D01*
Y237788D01*
X696789Y237935D01*
X696887Y238179D01*
X697082Y238423D01*
X697277Y238667D01*
X697570Y238911D01*
X697961Y239057D01*
X698400Y239106D01*
X698498D01*
X698693Y239057D01*
D02*
G37*
G36*
X704405Y175858D02*
X704649Y175809D01*
X704990Y175712D01*
X705332Y175468D01*
X705576Y175175D01*
X705772Y174784D01*
X705869Y174198D01*
Y172929D01*
Y172880D01*
X705820Y172685D01*
X705772Y172392D01*
X705674Y172099D01*
X705430Y171806D01*
X705137Y171513D01*
X704697Y171318D01*
X704112Y171269D01*
X704063D01*
X703868Y171318D01*
X703575Y171367D01*
X703282Y171465D01*
X702989Y171660D01*
X702696Y171953D01*
X702501Y172392D01*
X702452Y172929D01*
Y174198D01*
Y174296D01*
X702501Y174491D01*
X702550Y174735D01*
X702647Y175077D01*
X702842Y175370D01*
X703135Y175663D01*
X703575Y175858D01*
X704112Y175907D01*
X704209D01*
X704405Y175858D01*
D02*
G37*
G36*
X667253Y196557D02*
X667498Y196509D01*
X667839Y196411D01*
X668181Y196167D01*
X668425Y195874D01*
X668621Y195483D01*
X668718Y194898D01*
Y194849D01*
X668669Y194653D01*
X668621Y194361D01*
X668523Y194068D01*
X668279Y193775D01*
X667986Y193482D01*
X667546Y193287D01*
X666961Y193238D01*
X658417D01*
Y186257D01*
X667058D01*
X667253Y186208D01*
X667498Y186159D01*
X667839Y186061D01*
X668181Y185817D01*
X668425Y185524D01*
X668621Y185134D01*
X668718Y184548D01*
Y184499D01*
X668669Y184304D01*
X668621Y184011D01*
X668523Y183718D01*
X668279Y183425D01*
X667986Y183132D01*
X667546Y182937D01*
X666961Y182888D01*
X658417D01*
Y171660D01*
Y171611D01*
X658369Y171416D01*
X658320Y171123D01*
X658222Y170830D01*
X657978Y170537D01*
X657685Y170244D01*
X657246Y170049D01*
X656660Y170000D01*
X656611D01*
X656416Y170049D01*
X656123Y170098D01*
X655830Y170195D01*
X655537Y170390D01*
X655244Y170683D01*
X655049Y171123D01*
X655000Y171660D01*
Y194898D01*
Y194995D01*
X655049Y195191D01*
X655098Y195435D01*
X655195Y195776D01*
X655391Y196069D01*
X655684Y196362D01*
X656123Y196557D01*
X656660Y196606D01*
X667058D01*
X667253Y196557D01*
D02*
G37*
G36*
X704405Y186208D02*
X704649Y186159D01*
X704990Y186061D01*
X705332Y185817D01*
X705576Y185524D01*
X705772Y185134D01*
X705869Y184548D01*
Y183279D01*
Y183230D01*
X705820Y183035D01*
X705772Y182742D01*
X705674Y182449D01*
X705430Y182156D01*
X705137Y181863D01*
X704697Y181668D01*
X704112Y181619D01*
X704063D01*
X703868Y181668D01*
X703575Y181716D01*
X703282Y181814D01*
X702989Y182009D01*
X702696Y182302D01*
X702501Y182742D01*
X702452Y183279D01*
Y184548D01*
Y184646D01*
X702501Y184841D01*
X702550Y185085D01*
X702647Y185427D01*
X702842Y185720D01*
X703135Y186013D01*
X703575Y186208D01*
X704112Y186257D01*
X704209D01*
X704405Y186208D01*
D02*
G37*
G36*
X696057Y196557D02*
X696301Y196509D01*
X696642Y196411D01*
X696935Y196167D01*
X697228Y195874D01*
X697423Y195483D01*
X697472Y194898D01*
Y194849D01*
Y194800D01*
X697423Y194507D01*
X692298Y171367D01*
Y171318D01*
X692249Y171172D01*
X692151Y170928D01*
X691956Y170683D01*
X691761Y170439D01*
X691468Y170195D01*
X691077Y170049D01*
X690589Y170000D01*
X690394D01*
X690198Y170098D01*
X689905Y170195D01*
X689661Y170342D01*
X689368Y170586D01*
X689124Y170928D01*
X688929Y171367D01*
X685463Y182644D01*
X681997Y171367D01*
Y171318D01*
X681899Y171172D01*
X681802Y170928D01*
X681606Y170683D01*
X681411Y170439D01*
X681069Y170195D01*
X680727Y170049D01*
X680288Y170000D01*
X680093D01*
X679849Y170049D01*
X679556Y170146D01*
X679312Y170293D01*
X679019Y170488D01*
X678824Y170732D01*
X678677Y171123D01*
X673454Y194507D01*
Y194556D01*
Y194653D01*
Y194898D01*
Y194995D01*
X673502Y195191D01*
X673551Y195435D01*
X673649Y195776D01*
X673844Y196069D01*
X674137Y196362D01*
X674576Y196557D01*
X675113Y196606D01*
X675358D01*
X675553Y196557D01*
X675846Y196460D01*
X676139Y196362D01*
X676383Y196167D01*
X676578Y195874D01*
X676724Y195532D01*
X680630Y176883D01*
X683803Y187477D01*
Y187526D01*
X683901Y187672D01*
X683998Y187917D01*
X684194Y188161D01*
X684389Y188405D01*
X684682Y188649D01*
X685024Y188795D01*
X685414Y188844D01*
X685609D01*
X685854Y188795D01*
X686098Y188698D01*
X686391Y188551D01*
X686635Y188356D01*
X686879Y188112D01*
X687025Y187721D01*
X690296Y176883D01*
X694104Y195239D01*
Y195288D01*
X694153Y195435D01*
X694250Y195679D01*
X694446Y195923D01*
X694641Y196167D01*
X694934Y196411D01*
X695324Y196557D01*
X695764Y196606D01*
X695861D01*
X696057Y196557D01*
D02*
G37*
G36*
X707041Y228708D02*
X707285Y228659D01*
X707627Y228561D01*
X707968Y228317D01*
X708213Y228024D01*
X708408Y227634D01*
X708505Y227048D01*
Y225779D01*
Y225730D01*
X708457Y225535D01*
X708408Y225242D01*
X708310Y224949D01*
X708066Y224656D01*
X707773Y224363D01*
X707334Y224168D01*
X706748Y224119D01*
X706699D01*
X706504Y224168D01*
X706211Y224216D01*
X705918Y224314D01*
X705625Y224509D01*
X705332Y224802D01*
X705137Y225242D01*
X705088Y225779D01*
Y227048D01*
Y227146D01*
X705137Y227341D01*
X705186Y227585D01*
X705283Y227927D01*
X705479Y228220D01*
X705772Y228513D01*
X706211Y228708D01*
X706748Y228757D01*
X706846D01*
X707041Y228708D01*
D02*
G37*
G36*
X752003Y231295D02*
X752540Y231246D01*
X753223Y231100D01*
X753956Y230856D01*
X754786Y230514D01*
X755616Y230026D01*
X756397Y229342D01*
X756494Y229245D01*
X756690Y229001D01*
X757031Y228561D01*
X757422Y227976D01*
X757764Y227292D01*
X758105Y226462D01*
X758301Y225535D01*
X758398Y224509D01*
Y220262D01*
X748098D01*
Y218065D01*
Y218016D01*
Y217919D01*
X748146Y217724D01*
X748195Y217528D01*
X748390Y217040D01*
X748537Y216747D01*
X748732Y216503D01*
X748781Y216454D01*
X748830Y216406D01*
X748976Y216308D01*
X749172Y216210D01*
X749611Y215966D01*
X749904Y215917D01*
X750197Y215868D01*
X756738D01*
X756934Y215820D01*
X757178Y215771D01*
X757520Y215673D01*
X757861Y215429D01*
X758105Y215136D01*
X758301Y214746D01*
X758398Y214160D01*
Y214111D01*
X758349Y213916D01*
X758301Y213623D01*
X758203Y213330D01*
X757959Y213037D01*
X757666Y212744D01*
X757227Y212549D01*
X756641Y212500D01*
X750099D01*
X749806Y212549D01*
X749367Y212598D01*
X748830Y212695D01*
X748195Y212891D01*
X747561Y213183D01*
X746877Y213525D01*
X746242Y214062D01*
X746194Y214160D01*
X745998Y214355D01*
X745754Y214697D01*
X745461Y215185D01*
X745168Y215722D01*
X744924Y216406D01*
X744729Y217187D01*
X744680Y218016D01*
Y224461D01*
Y224509D01*
Y224607D01*
Y224753D01*
X744729Y224949D01*
X744778Y225486D01*
X744924Y226169D01*
X745168Y226902D01*
X745510Y227731D01*
X745998Y228561D01*
X746633Y229342D01*
X746731Y229440D01*
X746975Y229635D01*
X747414Y229977D01*
X748000Y230368D01*
X748683Y230709D01*
X749562Y231051D01*
X750490Y231246D01*
X751515Y231344D01*
X751808D01*
X752003Y231295D01*
D02*
G37*
G36*
X669841Y239057D02*
X670085Y239009D01*
X670427Y238911D01*
X670769Y238667D01*
X671013Y238374D01*
X671208Y237983D01*
X671305Y237398D01*
Y214160D01*
Y214111D01*
X671257Y213916D01*
X671208Y213623D01*
X671110Y213330D01*
X670866Y213037D01*
X670573Y212744D01*
X670134Y212549D01*
X669548Y212500D01*
X669499D01*
X669304Y212549D01*
X669011Y212598D01*
X668718Y212695D01*
X668425Y212891D01*
X668132Y213183D01*
X667937Y213623D01*
X667888Y214160D01*
Y225388D01*
X658417D01*
Y214160D01*
Y214111D01*
X658369Y213916D01*
X658320Y213623D01*
X658222Y213330D01*
X657978Y213037D01*
X657685Y212744D01*
X657246Y212549D01*
X656660Y212500D01*
X656611D01*
X656416Y212549D01*
X656123Y212598D01*
X655830Y212695D01*
X655537Y212891D01*
X655244Y213183D01*
X655049Y213623D01*
X655000Y214160D01*
Y237398D01*
Y237495D01*
X655049Y237691D01*
X655098Y237935D01*
X655195Y238276D01*
X655391Y238569D01*
X655684Y238862D01*
X656123Y239057D01*
X656660Y239106D01*
X656758D01*
X656953Y239057D01*
X657197Y239009D01*
X657539Y238911D01*
X657880Y238667D01*
X658124Y238374D01*
X658320Y237983D01*
X658417Y237398D01*
Y228757D01*
X667888D01*
Y237398D01*
Y237495D01*
X667937Y237691D01*
X667986Y237935D01*
X668083Y238276D01*
X668279Y238569D01*
X668572Y238862D01*
X669011Y239057D01*
X669548Y239106D01*
X669646D01*
X669841Y239057D01*
D02*
G37*
G36*
X738529Y231295D02*
X738773Y231246D01*
X739115Y231149D01*
X739457Y230905D01*
X739701Y230612D01*
X739896Y230221D01*
X739994Y229635D01*
Y227048D01*
Y226999D01*
X739945Y226804D01*
X739896Y226511D01*
X739798Y226218D01*
X739554Y225925D01*
X739261Y225632D01*
X738822Y225437D01*
X738236Y225388D01*
X738187D01*
X737992Y225437D01*
X737699Y225486D01*
X737406Y225583D01*
X737113Y225779D01*
X736820Y226072D01*
X736625Y226511D01*
X736576Y227048D01*
Y227976D01*
X732280D01*
Y214160D01*
Y214111D01*
X732231Y213916D01*
X732183Y213623D01*
X732085Y213330D01*
X731841Y213037D01*
X731548Y212744D01*
X731108Y212549D01*
X730523Y212500D01*
X730474D01*
X730279Y212549D01*
X729986Y212598D01*
X729693Y212695D01*
X729400Y212891D01*
X729107Y213183D01*
X728912Y213623D01*
X728863Y214160D01*
Y229635D01*
Y229733D01*
X728912Y229928D01*
X728960Y230172D01*
X729058Y230514D01*
X729253Y230807D01*
X729546Y231100D01*
X729986Y231295D01*
X730523Y231344D01*
X738334D01*
X738529Y231295D01*
D02*
G37*
%LPC*%
G36*
X851789Y235738D02*
X851691D01*
X851496Y235689D01*
X851154Y235543D01*
X850763Y235250D01*
X850568Y235005D01*
X850324Y234761D01*
X850080Y234420D01*
X849885Y234029D01*
X849641Y233590D01*
X849445Y233004D01*
X849250Y232418D01*
X849055Y231686D01*
Y231637D01*
X849006Y231539D01*
Y231393D01*
X848957Y231198D01*
X848908Y230954D01*
X848859Y230612D01*
X848713Y229879D01*
X848567Y229001D01*
X848469Y228024D01*
X848420Y226902D01*
X848371Y225779D01*
Y225730D01*
Y225632D01*
Y225486D01*
Y225242D01*
Y224949D01*
X848420Y224607D01*
X848469Y223826D01*
X848518Y222947D01*
X848664Y221922D01*
X848811Y220897D01*
X849006Y219823D01*
Y219774D01*
X849055Y219676D01*
X849104Y219481D01*
X849201Y219188D01*
X849397Y218554D01*
X849738Y217870D01*
X850129Y217138D01*
X850617Y216503D01*
X850861Y216259D01*
X851154Y216064D01*
X851447Y215917D01*
X851789Y215868D01*
X851886D01*
X852082Y215917D01*
X852423Y216064D01*
X852814Y216357D01*
X853058Y216552D01*
X853253Y216845D01*
X853497Y217138D01*
X853741Y217528D01*
X853937Y217968D01*
X854181Y218505D01*
X854376Y219139D01*
X854571Y219823D01*
Y219872D01*
X854620Y219969D01*
Y220116D01*
X854669Y220311D01*
X854718Y220555D01*
X854767Y220897D01*
X854913Y221629D01*
X855060Y222508D01*
X855157Y223533D01*
X855206Y224607D01*
X855255Y225779D01*
Y225828D01*
Y225925D01*
Y226072D01*
Y226316D01*
Y226609D01*
X855206Y226902D01*
X855157Y227683D01*
X855108Y228610D01*
X854962Y229635D01*
X854815Y230661D01*
X854571Y231735D01*
Y231783D01*
X854522Y231930D01*
X854474Y232125D01*
X854376Y232369D01*
X854181Y233004D01*
X853839Y233736D01*
X853448Y234468D01*
X853009Y235103D01*
X852716Y235347D01*
X852423Y235591D01*
X852130Y235689D01*
X851789Y235738D01*
D02*
G37*
G36*
X833335D02*
X833238D01*
X833042Y235689D01*
X832701Y235543D01*
X832310Y235250D01*
X832115Y235005D01*
X831870Y234761D01*
X831627Y234420D01*
X831431Y234029D01*
X831187Y233590D01*
X830992Y233004D01*
X830797Y232418D01*
X830601Y231686D01*
Y231637D01*
X830552Y231539D01*
Y231393D01*
X830504Y231198D01*
X830455Y230954D01*
X830406Y230612D01*
X830259Y229879D01*
X830113Y229001D01*
X830015Y228024D01*
X829967Y226902D01*
X829918Y225779D01*
Y225730D01*
Y225632D01*
Y225486D01*
Y225242D01*
Y224949D01*
X829967Y224607D01*
X830015Y223826D01*
X830064Y222947D01*
X830211Y221922D01*
X830357Y220897D01*
X830552Y219823D01*
Y219774D01*
X830601Y219676D01*
X830650Y219481D01*
X830748Y219188D01*
X830943Y218554D01*
X831285Y217870D01*
X831675Y217138D01*
X832163Y216503D01*
X832408Y216259D01*
X832701Y216064D01*
X832993Y215917D01*
X833335Y215868D01*
X833433D01*
X833628Y215917D01*
X833970Y216064D01*
X834360Y216357D01*
X834604Y216552D01*
X834800Y216845D01*
X835044Y217138D01*
X835288Y217528D01*
X835483Y217968D01*
X835727Y218505D01*
X835922Y219139D01*
X836118Y219823D01*
Y219872D01*
X836167Y219969D01*
Y220116D01*
X836215Y220311D01*
X836264Y220555D01*
X836313Y220897D01*
X836460Y221629D01*
X836606Y222508D01*
X836704Y223533D01*
X836752Y224607D01*
X836801Y225779D01*
Y225828D01*
Y225925D01*
Y226072D01*
Y226316D01*
Y226609D01*
X836752Y226902D01*
X836704Y227683D01*
X836655Y228610D01*
X836508Y229635D01*
X836362Y230661D01*
X836118Y231735D01*
Y231783D01*
X836069Y231930D01*
X836020Y232125D01*
X835922Y232369D01*
X835727Y233004D01*
X835386Y233736D01*
X834995Y234468D01*
X834556Y235103D01*
X834263Y235347D01*
X833970Y235591D01*
X833677Y235689D01*
X833335Y235738D01*
D02*
G37*
G36*
X870242D02*
X870145D01*
X869949Y235689D01*
X869607Y235543D01*
X869217Y235250D01*
X869022Y235005D01*
X868778Y234761D01*
X868533Y234420D01*
X868338Y234029D01*
X868094Y233590D01*
X867899Y233004D01*
X867703Y232418D01*
X867508Y231686D01*
Y231637D01*
X867459Y231539D01*
Y231393D01*
X867411Y231198D01*
X867362Y230954D01*
X867313Y230612D01*
X867167Y229879D01*
X867020Y229001D01*
X866922Y228024D01*
X866874Y226902D01*
X866825Y225779D01*
Y225730D01*
Y225632D01*
Y225486D01*
Y225242D01*
Y224949D01*
X866874Y224607D01*
X866922Y223826D01*
X866971Y222947D01*
X867118Y221922D01*
X867264Y220897D01*
X867459Y219823D01*
Y219774D01*
X867508Y219676D01*
X867557Y219481D01*
X867655Y219188D01*
X867850Y218554D01*
X868192Y217870D01*
X868582Y217138D01*
X869071Y216503D01*
X869315Y216259D01*
X869607Y216064D01*
X869900Y215917D01*
X870242Y215868D01*
X870340D01*
X870535Y215917D01*
X870877Y216064D01*
X871267Y216357D01*
X871511Y216552D01*
X871707Y216845D01*
X871951Y217138D01*
X872195Y217528D01*
X872390Y217968D01*
X872634Y218505D01*
X872830Y219139D01*
X873025Y219823D01*
Y219872D01*
X873074Y219969D01*
Y220116D01*
X873122Y220311D01*
X873171Y220555D01*
X873220Y220897D01*
X873366Y221629D01*
X873513Y222508D01*
X873611Y223533D01*
X873659Y224607D01*
X873708Y225779D01*
Y225828D01*
Y225925D01*
Y226072D01*
Y226316D01*
Y226609D01*
X873659Y226902D01*
X873611Y227683D01*
X873562Y228610D01*
X873415Y229635D01*
X873269Y230661D01*
X873025Y231735D01*
Y231783D01*
X872976Y231930D01*
X872927Y232125D01*
X872830Y232369D01*
X872634Y233004D01*
X872292Y233736D01*
X871902Y234468D01*
X871463Y235103D01*
X871170Y235347D01*
X870877Y235591D01*
X870584Y235689D01*
X870242Y235738D01*
D02*
G37*
G36*
X751515Y227976D02*
X751271D01*
X751027Y227927D01*
X750685Y227829D01*
X750294Y227731D01*
X749904Y227536D01*
X749464Y227292D01*
X749074Y226950D01*
X749025Y226902D01*
X748927Y226755D01*
X748781Y226560D01*
X748586Y226267D01*
X748390Y225925D01*
X748244Y225486D01*
X748146Y225046D01*
X748098Y224509D01*
Y223631D01*
X754981D01*
Y224509D01*
Y224558D01*
Y224753D01*
X754932Y224998D01*
X754835Y225339D01*
X754737Y225730D01*
X754542Y226120D01*
X754297Y226560D01*
X753956Y226950D01*
X753907Y226999D01*
X753761Y227097D01*
X753565Y227292D01*
X753272Y227487D01*
X752931Y227634D01*
X752491Y227829D01*
X752052Y227927D01*
X751515Y227976D01*
D02*
G37*
%LPD*%
D10*
X640000Y257500D02*
G03*
X630000Y247500I0J-10000D01*
G01*
X630000Y170000D02*
G03*
X640000Y160000I10000J0D01*
G01*
X910000D02*
G03*
X920000Y170000I0J10000D01*
G01*
X920000Y247500D02*
G03*
X910000Y257500I-10000J0D01*
G01*
X630000Y172500D02*
X630000Y250000D01*
X640000Y160000D02*
X910000D01*
X920000Y172500D02*
Y247500D01*
X640000Y257500D02*
X910000D01*
D26*
X802240Y90999D02*
G03*
X802240Y90999I-15240J0D01*
G01*
X37600Y690235D02*
Y675000D01*
Y682617D01*
X47757D01*
Y690235D01*
Y675000D01*
X62992Y687696D02*
X60453Y690235D01*
X55374D01*
X52835Y687696D01*
Y677539D01*
X55374Y675000D01*
X60453D01*
X62992Y677539D01*
Y682617D01*
X57913D01*
X68070Y675000D02*
X73148D01*
X70609D01*
Y690235D01*
X68070Y687696D01*
X694657Y126196D02*
X692117Y128735D01*
X687039D01*
X684500Y126196D01*
Y123657D01*
X687039Y121117D01*
X692117D01*
X694657Y118578D01*
Y116039D01*
X692117Y113500D01*
X687039D01*
X684500Y116039D01*
X699735Y128735D02*
Y113500D01*
X707353D01*
X709892Y116039D01*
Y118578D01*
X707353Y121117D01*
X699735D01*
X707353D01*
X709892Y123657D01*
Y126196D01*
X707353Y128735D01*
X699735D01*
X714970Y113500D02*
X720049D01*
X717509D01*
Y128735D01*
X714970Y126196D01*
D27*
X767950Y113859D02*
X806050D01*
Y69409D02*
Y113859D01*
X767950Y69409D02*
X806050D01*
X767950D02*
Y113859D01*
D28*
X21270Y140680D02*
X21270Y765520D01*
X1025840D01*
X1025840Y140680D01*
X21270D02*
X1025840D01*
X126843Y681700D02*
X133508D01*
X136840Y685032D01*
X133508Y688364D01*
X126843D01*
X136840Y691697D02*
Y696695D01*
X135174Y698361D01*
X133508Y696695D01*
Y693363D01*
X131842Y691697D01*
X130176Y693363D01*
Y698361D01*
X136840Y701694D02*
Y706692D01*
X135174Y708358D01*
X133508Y706692D01*
Y703360D01*
X131842Y701694D01*
X130176Y703360D01*
Y708358D01*
X152243Y681700D02*
X158908D01*
X162240Y685032D01*
X158908Y688364D01*
X152243D01*
Y698361D02*
X162240D01*
Y693363D01*
X160574Y691697D01*
X157242D01*
X155576Y693363D01*
Y698361D01*
X152243Y708358D02*
X162240D01*
Y703360D01*
X160574Y701693D01*
X157242D01*
X155576Y703360D01*
Y708358D01*
X180183Y691697D02*
X186848D01*
X190180Y695029D01*
X186848Y698361D01*
X180183D01*
X190180Y703360D02*
Y706692D01*
X188514Y708358D01*
X185182D01*
X183515Y706692D01*
Y703360D01*
X185182Y701694D01*
X188514D01*
X190180Y703360D01*
X215580Y691697D02*
X205583D01*
Y696695D01*
X207249Y698361D01*
X210582D01*
X212248Y696695D01*
Y691697D01*
Y695029D02*
X215580Y698361D01*
X207249Y708358D02*
X205583Y706692D01*
Y703360D01*
X207249Y701694D01*
X208916D01*
X210582Y703360D01*
Y706692D01*
X212248Y708358D01*
X213914D01*
X215580Y706692D01*
Y703360D01*
X213914Y701694D01*
X240980Y691697D02*
X230983D01*
Y696695D01*
X232649Y698361D01*
X235982D01*
X237648Y696695D01*
Y691697D01*
Y695029D02*
X240980Y698361D01*
X230983Y701694D02*
X240980D01*
X237648Y705026D01*
X240980Y708358D01*
X230983D01*
X256383D02*
Y701694D01*
X266380D01*
Y708358D01*
X261382Y701694D02*
Y705026D01*
X279243Y691697D02*
X289240D01*
Y696695D01*
X287574Y698361D01*
X280909D01*
X279243Y696695D01*
Y691697D01*
X280909Y701694D02*
X279243Y703360D01*
Y706692D01*
X280909Y708358D01*
X287574D01*
X289240Y706692D01*
Y703360D01*
X287574Y701694D01*
X280909D01*
X305913Y695029D02*
X315910D01*
Y700027D01*
X314244Y701693D01*
X307579D01*
X305913Y700027D01*
Y695029D01*
X315910Y705026D02*
Y708358D01*
Y706692D01*
X305913D01*
X307579Y705026D01*
X330043Y691697D02*
X340040D01*
Y696695D01*
X338374Y698361D01*
X331709D01*
X330043Y696695D01*
Y691697D01*
X340040Y708358D02*
Y701694D01*
X333376Y708358D01*
X331709D01*
X330043Y706692D01*
Y703360D01*
X331709Y701694D01*
X357983Y691697D02*
X367980D01*
Y696695D01*
X366314Y698361D01*
X359649D01*
X357983Y696695D01*
Y691697D01*
X359649Y701694D02*
X357983Y703360D01*
Y706692D01*
X359649Y708358D01*
X361315D01*
X362982Y706692D01*
Y705026D01*
Y706692D01*
X364648Y708358D01*
X366314D01*
X367980Y706692D01*
Y703360D01*
X366314Y701694D01*
X382113Y691697D02*
X392110D01*
Y696695D01*
X390444Y698361D01*
X383779D01*
X382113Y696695D01*
Y691697D01*
X392110Y706692D02*
X382113D01*
X387112Y701694D01*
Y708358D01*
X406243Y691697D02*
X416240D01*
Y696695D01*
X414574Y698361D01*
X407909D01*
X406243Y696695D01*
Y691697D01*
Y708358D02*
Y701694D01*
X411242D01*
X409576Y705026D01*
Y706692D01*
X411242Y708358D01*
X414574D01*
X416240Y706692D01*
Y703360D01*
X414574Y701694D01*
X431643Y691697D02*
X441640D01*
Y696695D01*
X439974Y698361D01*
X433309D01*
X431643Y696695D01*
Y691697D01*
Y708358D02*
X433309Y705026D01*
X436642Y701694D01*
X439974D01*
X441640Y703360D01*
Y706692D01*
X439974Y708358D01*
X438308D01*
X436642Y706692D01*
Y701694D01*
X458313Y691697D02*
X468310D01*
Y696695D01*
X466644Y698361D01*
X459979D01*
X458313Y696695D01*
Y691697D01*
Y701694D02*
Y708358D01*
X459979D01*
X466644Y701694D01*
X468310D01*
X494980D02*
X488316D01*
X484983Y705026D01*
X488316Y708358D01*
X494980D01*
X489982D01*
Y701694D01*
X509113Y701694D02*
X519110D01*
X515778D01*
X509113Y708358D01*
X514112Y703360D01*
X519110Y708358D01*
D29*
X801250Y183750D02*
D03*
M02*
