G04 Layer_Color=8388736*
%FSLAX44Y44*%
%MOMM*%
G71*
G01*
G75*
G04:AMPARAMS|DCode=30|XSize=2.2032mm|YSize=2.2032mm|CornerRadius=0.6016mm|HoleSize=0mm|Usage=FLASHONLY|Rotation=0.000|XOffset=0mm|YOffset=0mm|HoleType=Round|Shape=RoundedRectangle|*
%AMROUNDEDRECTD30*
21,1,2.2032,1.0000,0,0,0.0*
21,1,1.0000,2.2032,0,0,0.0*
1,1,1.2032,0.5000,-0.5000*
1,1,1.2032,-0.5000,-0.5000*
1,1,1.2032,-0.5000,0.5000*
1,1,1.2032,0.5000,0.5000*
%
%ADD30ROUNDEDRECTD30*%
%ADD31O,2.6032X3.2032*%
%ADD32C,1.8032*%
%ADD33C,2.2032*%
%ADD34C,0.2032*%
%ADD35O,3.0032X3.6032*%
%ADD36C,1.0032*%
D30*
X755250Y113859D02*
D03*
Y68859D02*
D03*
X820250D02*
D03*
X820250Y113859D02*
D03*
D31*
X900900Y602500D02*
D03*
X777500D02*
D03*
D32*
X197000Y580000D02*
D03*
X70000D02*
D03*
X120800Y554600D02*
D03*
D33*
X140000Y445000D02*
D03*
Y249000D02*
D03*
X261300Y732500D02*
D03*
X286700D02*
D03*
X312100D02*
D03*
X235900D02*
D03*
X185100D02*
D03*
X210500D02*
D03*
X159700D02*
D03*
X134300D02*
D03*
X464500D02*
D03*
X489900D02*
D03*
X515300D02*
D03*
X439100D02*
D03*
X388300D02*
D03*
X413700D02*
D03*
X362900D02*
D03*
X337500D02*
D03*
D34*
X53020D02*
D03*
X991550Y732500D02*
D03*
X991550Y176240D02*
D03*
X53020D02*
D03*
D35*
X995000Y530000D02*
D03*
Y480000D02*
D03*
Y430000D02*
D03*
D36*
X757500Y547500D02*
D03*
X840000Y680000D02*
D03*
X708814Y497500D02*
D03*
M02*
