G04 Layer_Color=16711935*
%FSLAX44Y44*%
%MOMM*%
G71*
G01*
G75*
G04:AMPARAMS|DCode=30|XSize=2.2032mm|YSize=2.2032mm|CornerRadius=0.6016mm|HoleSize=0mm|Usage=FLASHONLY|Rotation=0.000|XOffset=0mm|YOffset=0mm|HoleType=Round|Shape=RoundedRectangle|*
%AMROUNDEDRECTD30*
21,1,2.2032,1.0000,0,0,0.0*
21,1,1.0000,2.2032,0,0,0.0*
1,1,1.2032,0.5000,-0.5000*
1,1,1.2032,-0.5000,-0.5000*
1,1,1.2032,-0.5000,0.5000*
1,1,1.2032,0.5000,0.5000*
%
%ADD30ROUNDEDRECTD30*%
%ADD31O,2.6032X3.2032*%
%ADD32C,1.8032*%
%ADD33C,2.2032*%
%ADD34C,0.2032*%
%ADD35O,3.0032X3.6032*%
%ADD36C,1.0032*%
%ADD37R,1.3032X1.9032*%
%ADD38R,1.9032X1.3032*%
G04:AMPARAMS|DCode=39|XSize=0.7032mm|YSize=1.6032mm|CornerRadius=0mm|HoleSize=0mm|Usage=FLASHONLY|Rotation=45.000|XOffset=0mm|YOffset=0mm|HoleType=Round|Shape=Round|*
%AMOVALD39*
21,1,0.9000,0.7032,0.0000,0.0000,135.0*
1,1,0.7032,0.3182,-0.3182*
1,1,0.7032,-0.3182,0.3182*
%
%ADD39OVALD39*%

G04:AMPARAMS|DCode=40|XSize=0.7032mm|YSize=1.6032mm|CornerRadius=0mm|HoleSize=0mm|Usage=FLASHONLY|Rotation=315.000|XOffset=0mm|YOffset=0mm|HoleType=Round|Shape=Round|*
%AMOVALD40*
21,1,0.9000,0.7032,0.0000,0.0000,45.0*
1,1,0.7032,-0.3182,-0.3182*
1,1,0.7032,0.3182,0.3182*
%
%ADD40OVALD40*%

%ADD41R,3.0032X1.8032*%
%ADD42R,1.1532X1.1532*%
G04:AMPARAMS|DCode=43|XSize=14.2032mm|YSize=4.9532mm|CornerRadius=1.2891mm|HoleSize=0mm|Usage=FLASHONLY|Rotation=90.000|XOffset=0mm|YOffset=0mm|HoleType=Round|Shape=RoundedRectangle|*
%AMROUNDEDRECTD43*
21,1,14.2032,2.3750,0,0,90.0*
21,1,11.6250,4.9532,0,0,90.0*
1,1,2.5782,1.1875,5.8125*
1,1,2.5782,1.1875,-5.8125*
1,1,2.5782,-1.1875,-5.8125*
1,1,2.5782,-1.1875,5.8125*
%
%ADD43ROUNDEDRECTD43*%
G04:AMPARAMS|DCode=44|XSize=1.0052mm|YSize=1.7082mm|CornerRadius=0.3021mm|HoleSize=0mm|Usage=FLASHONLY|Rotation=90.000|XOffset=0mm|YOffset=0mm|HoleType=Round|Shape=RoundedRectangle|*
%AMROUNDEDRECTD44*
21,1,1.0052,1.1040,0,0,90.0*
21,1,0.4010,1.7082,0,0,90.0*
1,1,0.6042,0.5520,0.2005*
1,1,0.6042,0.5520,-0.2005*
1,1,0.6042,-0.5520,-0.2005*
1,1,0.6042,-0.5520,0.2005*
%
%ADD44ROUNDEDRECTD44*%
D30*
X755250Y113859D02*
D03*
Y68859D02*
D03*
X820250D02*
D03*
X820250Y113859D02*
D03*
D31*
X900900Y602500D02*
D03*
X777500D02*
D03*
D32*
X197000Y580000D02*
D03*
X70000D02*
D03*
X120800Y554600D02*
D03*
D33*
X140000Y445000D02*
D03*
Y249000D02*
D03*
X261300Y732500D02*
D03*
X286700D02*
D03*
X312100D02*
D03*
X235900D02*
D03*
X185100D02*
D03*
X210500D02*
D03*
X159700D02*
D03*
X134300D02*
D03*
X464500D02*
D03*
X489900D02*
D03*
X515300D02*
D03*
X439100D02*
D03*
X388300D02*
D03*
X413700D02*
D03*
X362900D02*
D03*
X337500D02*
D03*
D34*
X53020D02*
D03*
X991550Y732500D02*
D03*
X991550Y176240D02*
D03*
X53020D02*
D03*
D35*
X995000Y530000D02*
D03*
Y480000D02*
D03*
Y430000D02*
D03*
D36*
X757500Y547500D02*
D03*
X840000Y680000D02*
D03*
X708814Y497500D02*
D03*
D37*
X803500Y532500D02*
D03*
X776500D02*
D03*
X643500Y720000D02*
D03*
X616500D02*
D03*
X876500Y680000D02*
D03*
X903500D02*
D03*
X803500D02*
D03*
X776500D02*
D03*
X643500Y370000D02*
D03*
X616500D02*
D03*
X536000Y170000D02*
D03*
X509000D02*
D03*
X536000Y200000D02*
D03*
X509000D02*
D03*
X391500Y250000D02*
D03*
X418500D02*
D03*
X483500Y130000D02*
D03*
X456500D02*
D03*
D38*
X852500Y174000D02*
D03*
Y201000D02*
D03*
X892500Y479000D02*
D03*
Y506000D02*
D03*
D39*
X737374Y401057D02*
D03*
X743031Y406714D02*
D03*
X748688Y412371D02*
D03*
X754345Y418028D02*
D03*
X760002Y423685D02*
D03*
X765659Y429341D02*
D03*
X771316Y434998D02*
D03*
X776972Y440655D02*
D03*
X782629Y446312D02*
D03*
X788286Y451969D02*
D03*
X793943Y457626D02*
D03*
X712626Y538943D02*
D03*
X706969Y533286D02*
D03*
X701312Y527629D02*
D03*
X695655Y521972D02*
D03*
X689998Y516315D02*
D03*
X684341Y510659D02*
D03*
X678684Y505002D02*
D03*
X673028Y499345D02*
D03*
X667371Y493688D02*
D03*
X661714Y488031D02*
D03*
X656057Y482374D02*
D03*
D40*
X793943D02*
D03*
X788286Y488031D02*
D03*
X782629Y493688D02*
D03*
X776972Y499345D02*
D03*
X771316Y505002D02*
D03*
X765659Y510659D02*
D03*
X760002Y516315D02*
D03*
X754345Y521972D02*
D03*
X748688Y527629D02*
D03*
X743031Y533286D02*
D03*
X737374Y538943D02*
D03*
X656057Y457626D02*
D03*
X661714Y451969D02*
D03*
X667371Y446312D02*
D03*
X673028Y440655D02*
D03*
X678684Y434998D02*
D03*
X684341Y429341D02*
D03*
X689998Y423685D02*
D03*
X695655Y418028D02*
D03*
X701312Y412371D02*
D03*
X706969Y406714D02*
D03*
X712626Y401057D02*
D03*
D41*
X590000Y172690D02*
D03*
Y240000D02*
D03*
X305000Y224810D02*
D03*
Y157500D02*
D03*
D42*
X547500Y257500D02*
D03*
X514840D02*
D03*
D43*
X490360Y375000D02*
D03*
X399640D02*
D03*
D44*
X387000Y207500D02*
D03*
Y194800D02*
D03*
X387000Y169400D02*
D03*
X387000Y182100D02*
D03*
X442620D02*
D03*
X442620Y169400D02*
D03*
X442620Y194800D02*
D03*
Y207500D02*
D03*
M02*
