G04 Layer_Color=128*
%FSLAX44Y44*%
%MOMM*%
G71*
G01*
G75*
%ADD17R,1.1000X1.7000*%
%ADD18R,1.7000X1.1000*%
G04:AMPARAMS|DCode=19|XSize=0.5mm|YSize=1.4mm|CornerRadius=0mm|HoleSize=0mm|Usage=FLASHONLY|Rotation=45.000|XOffset=0mm|YOffset=0mm|HoleType=Round|Shape=Round|*
%AMOVALD19*
21,1,0.9000,0.5000,0.0000,0.0000,135.0*
1,1,0.5000,0.3182,-0.3182*
1,1,0.5000,-0.3182,0.3182*
%
%ADD19OVALD19*%

G04:AMPARAMS|DCode=20|XSize=0.5mm|YSize=1.4mm|CornerRadius=0mm|HoleSize=0mm|Usage=FLASHONLY|Rotation=315.000|XOffset=0mm|YOffset=0mm|HoleType=Round|Shape=Round|*
%AMOVALD20*
21,1,0.9000,0.5000,0.0000,0.0000,45.0*
1,1,0.5000,-0.3182,-0.3182*
1,1,0.5000,0.3182,0.3182*
%
%ADD20OVALD20*%

%ADD21R,2.8000X1.6000*%
%ADD22R,0.9500X0.9500*%
G04:AMPARAMS|DCode=23|XSize=14mm|YSize=4.75mm|CornerRadius=1.1875mm|HoleSize=0mm|Usage=FLASHONLY|Rotation=90.000|XOffset=0mm|YOffset=0mm|HoleType=Round|Shape=RoundedRectangle|*
%AMROUNDEDRECTD23*
21,1,14.0000,2.3750,0,0,90.0*
21,1,11.6250,4.7500,0,0,90.0*
1,1,2.3750,1.1875,5.8125*
1,1,2.3750,1.1875,-5.8125*
1,1,2.3750,-1.1875,-5.8125*
1,1,2.3750,-1.1875,5.8125*
%
%ADD23ROUNDEDRECTD23*%
G04:AMPARAMS|DCode=24|XSize=0.802mm|YSize=1.505mm|CornerRadius=0.2005mm|HoleSize=0mm|Usage=FLASHONLY|Rotation=90.000|XOffset=0mm|YOffset=0mm|HoleType=Round|Shape=RoundedRectangle|*
%AMROUNDEDRECTD24*
21,1,0.8020,1.1040,0,0,90.0*
21,1,0.4010,1.5050,0,0,90.0*
1,1,0.4010,0.5520,0.2005*
1,1,0.4010,0.5520,-0.2005*
1,1,0.4010,-0.5520,-0.2005*
1,1,0.4010,-0.5520,0.2005*
%
%ADD24ROUNDEDRECTD24*%
D17*
X803500Y532500D02*
D03*
X776500D02*
D03*
X643500Y720000D02*
D03*
X616500D02*
D03*
X876500Y680000D02*
D03*
X903500D02*
D03*
X803500D02*
D03*
X776500D02*
D03*
X643500Y370000D02*
D03*
X616500D02*
D03*
X536000Y170000D02*
D03*
X509000D02*
D03*
X536000Y200000D02*
D03*
X509000D02*
D03*
X391500Y250000D02*
D03*
X418500D02*
D03*
X483500Y130000D02*
D03*
X456500D02*
D03*
D18*
X852500Y174000D02*
D03*
Y201000D02*
D03*
X892500Y479000D02*
D03*
Y506000D02*
D03*
D19*
X737374Y401057D02*
D03*
X743031Y406714D02*
D03*
X748688Y412371D02*
D03*
X754345Y418028D02*
D03*
X760002Y423685D02*
D03*
X765659Y429341D02*
D03*
X771316Y434998D02*
D03*
X776972Y440655D02*
D03*
X782629Y446312D02*
D03*
X788286Y451969D02*
D03*
X793943Y457626D02*
D03*
X712626Y538943D02*
D03*
X706969Y533286D02*
D03*
X701312Y527629D02*
D03*
X695655Y521972D02*
D03*
X689998Y516315D02*
D03*
X684341Y510659D02*
D03*
X678684Y505002D02*
D03*
X673028Y499345D02*
D03*
X667371Y493688D02*
D03*
X661714Y488031D02*
D03*
X656057Y482374D02*
D03*
D20*
X793943D02*
D03*
X788286Y488031D02*
D03*
X782629Y493688D02*
D03*
X776972Y499345D02*
D03*
X771316Y505002D02*
D03*
X765659Y510659D02*
D03*
X760002Y516315D02*
D03*
X754345Y521972D02*
D03*
X748688Y527629D02*
D03*
X743031Y533286D02*
D03*
X737374Y538943D02*
D03*
X656057Y457626D02*
D03*
X661714Y451969D02*
D03*
X667371Y446312D02*
D03*
X673028Y440655D02*
D03*
X678684Y434998D02*
D03*
X684341Y429341D02*
D03*
X689998Y423685D02*
D03*
X695655Y418028D02*
D03*
X701312Y412371D02*
D03*
X706969Y406714D02*
D03*
X712626Y401057D02*
D03*
D21*
X590000Y172690D02*
D03*
Y240000D02*
D03*
X305000Y224810D02*
D03*
Y157500D02*
D03*
D22*
X547500Y257500D02*
D03*
X514840D02*
D03*
D23*
X490360Y375000D02*
D03*
X399640D02*
D03*
D24*
X387000Y207500D02*
D03*
Y194800D02*
D03*
X387000Y169400D02*
D03*
X387000Y182100D02*
D03*
X442620D02*
D03*
X442620Y169400D02*
D03*
X442620Y194800D02*
D03*
Y207500D02*
D03*
M02*
