G04 Layer_Physical_Order=1*
G04 Layer_Color=255*
%FSLAX44Y44*%
%MOMM*%
G71*
G01*
G75*
%ADD10C,0.5000*%
G04:AMPARAMS|DCode=11|XSize=2mm|YSize=2mm|CornerRadius=0.5mm|HoleSize=0mm|Usage=FLASHONLY|Rotation=0.000|XOffset=0mm|YOffset=0mm|HoleType=Round|Shape=RoundedRectangle|*
%AMROUNDEDRECTD11*
21,1,2.0000,1.0000,0,0,0.0*
21,1,1.0000,2.0000,0,0,0.0*
1,1,1.0000,0.5000,-0.5000*
1,1,1.0000,-0.5000,-0.5000*
1,1,1.0000,-0.5000,0.5000*
1,1,1.0000,0.5000,0.5000*
%
%ADD11ROUNDEDRECTD11*%
%ADD12O,2.4000X3.0000*%
%ADD13C,1.6000*%
%ADD14C,2.0000*%
%ADD15O,2.8000X3.4000*%
%ADD16C,0.8000*%
G36*
X1034902Y57598D02*
X834486D01*
X833924Y58737D01*
X833985Y58816D01*
X834992Y61249D01*
X834998Y61294D01*
X841359D01*
X843317Y61552D01*
X845142Y62308D01*
X846708Y63510D01*
X860349Y77151D01*
X860349Y77151D01*
X861551Y78718D01*
X862307Y80542D01*
X862565Y82500D01*
Y372500D01*
X862307Y374458D01*
X861551Y376282D01*
X860349Y377849D01*
X735349Y502849D01*
X733782Y504051D01*
X731958Y504807D01*
X730000Y505065D01*
X713739D01*
X713353Y505361D01*
X711163Y506268D01*
X708814Y506578D01*
X706464Y506268D01*
X704275Y505361D01*
X702395Y503919D01*
X700952Y502039D01*
X700045Y499850D01*
X699736Y497500D01*
X700045Y495150D01*
X700952Y492961D01*
X702395Y491081D01*
X704275Y489638D01*
X706464Y488732D01*
X708814Y488422D01*
X711163Y488732D01*
X713353Y489638D01*
X713739Y489935D01*
X726867D01*
X847435Y369367D01*
Y85633D01*
X838226Y76424D01*
X834998D01*
X834992Y76470D01*
X833985Y78902D01*
X832382Y80991D01*
X830293Y82594D01*
X827860Y83602D01*
X825250Y83946D01*
X815250D01*
X812639Y83602D01*
X810206Y82594D01*
X808118Y80991D01*
X806515Y78902D01*
X805507Y76470D01*
X805163Y73859D01*
Y63859D01*
X805507Y61249D01*
X806515Y58816D01*
X806575Y58737D01*
X806013Y57598D01*
X769486D01*
X768924Y58737D01*
X768985Y58816D01*
X769992Y61249D01*
X770336Y63859D01*
Y73859D01*
X769992Y76470D01*
X768985Y78902D01*
X767382Y80991D01*
X765293Y82594D01*
X762860Y83602D01*
X760250Y83946D01*
X750250D01*
X747639Y83602D01*
X745206Y82594D01*
X743118Y80991D01*
X741515Y78902D01*
X740507Y76470D01*
X740163Y73859D01*
Y63859D01*
X740507Y61249D01*
X741515Y58816D01*
X741575Y58737D01*
X741014Y57598D01*
X15098D01*
Y782402D01*
X1034902D01*
Y57598D01*
D02*
G37*
%LPC*%
G36*
X120800Y567712D02*
X117406Y567265D01*
X114244Y565956D01*
X111528Y563872D01*
X109445Y561156D01*
X108135Y557994D01*
X107688Y554600D01*
X108135Y551206D01*
X109445Y548044D01*
X111528Y545328D01*
X114244Y543245D01*
X117406Y541935D01*
X120800Y541488D01*
X124194Y541935D01*
X127356Y543245D01*
X130072Y545328D01*
X132156Y548044D01*
X133465Y551206D01*
X133912Y554600D01*
X133465Y557994D01*
X132156Y561156D01*
X130072Y563872D01*
X127356Y565956D01*
X124194Y567265D01*
X120800Y567712D01*
D02*
G37*
G36*
X756230Y546230D02*
X753674D01*
X753732Y545939D01*
X754616Y544616D01*
X755939Y543732D01*
X756230Y543674D01*
Y546230D01*
D02*
G37*
G36*
X995000Y502092D02*
X991275Y501725D01*
X987694Y500639D01*
X984393Y498874D01*
X981500Y496500D01*
X979126Y493607D01*
X977361Y490306D01*
X976275Y486725D01*
X975908Y483000D01*
Y477000D01*
X976275Y473275D01*
X977361Y469694D01*
X979126Y466393D01*
X981500Y463500D01*
X984393Y461126D01*
X987694Y459361D01*
X991275Y458275D01*
X995000Y457908D01*
X998725Y458275D01*
X1002306Y459361D01*
X1005607Y461126D01*
X1008500Y463500D01*
X1010874Y466393D01*
X1012639Y469694D01*
X1013725Y473275D01*
X1014092Y477000D01*
Y483000D01*
X1013725Y486725D01*
X1012639Y490306D01*
X1010874Y493607D01*
X1008500Y496500D01*
X1005607Y498874D01*
X1002306Y500639D01*
X998725Y501725D01*
X995000Y502092D01*
D02*
G37*
G36*
Y552092D02*
X991275Y551725D01*
X987694Y550639D01*
X984393Y548874D01*
X981500Y546500D01*
X979126Y543607D01*
X977361Y540306D01*
X976275Y536725D01*
X975908Y533000D01*
Y527000D01*
X976275Y523275D01*
X977361Y519694D01*
X979126Y516393D01*
X981500Y513500D01*
X984393Y511126D01*
X987694Y509361D01*
X991275Y508275D01*
X995000Y507908D01*
X998725Y508275D01*
X1002306Y509361D01*
X1005607Y511126D01*
X1008500Y513500D01*
X1010874Y516393D01*
X1012639Y519694D01*
X1013725Y523275D01*
X1014092Y527000D01*
Y533000D01*
X1013725Y536725D01*
X1012639Y540306D01*
X1010874Y543607D01*
X1008500Y546500D01*
X1005607Y548874D01*
X1002306Y550639D01*
X998725Y551725D01*
X995000Y552092D01*
D02*
G37*
G36*
X758770Y551326D02*
Y548770D01*
X761326D01*
X761268Y549061D01*
X760384Y550384D01*
X759061Y551268D01*
X758770Y551326D01*
D02*
G37*
G36*
X70000Y593112D02*
X66606Y592665D01*
X63444Y591356D01*
X60728Y589272D01*
X58645Y586556D01*
X57335Y583394D01*
X56888Y580000D01*
X57335Y576606D01*
X58645Y573444D01*
X60728Y570728D01*
X63444Y568645D01*
X66606Y567335D01*
X70000Y566888D01*
X73394Y567335D01*
X76556Y568645D01*
X79272Y570728D01*
X81355Y573444D01*
X82665Y576606D01*
X83112Y580000D01*
X82665Y583394D01*
X81355Y586556D01*
X79272Y589272D01*
X76556Y591356D01*
X73394Y592665D01*
X70000Y593112D01*
D02*
G37*
G36*
X761326Y546230D02*
X758770D01*
Y543674D01*
X759061Y543732D01*
X760384Y544616D01*
X761268Y545939D01*
X761326Y546230D01*
D02*
G37*
G36*
X756230Y551326D02*
X755939Y551268D01*
X754616Y550384D01*
X753732Y549061D01*
X753674Y548770D01*
X756230D01*
Y551326D01*
D02*
G37*
G36*
X769327Y111359D02*
X757750D01*
Y99782D01*
X760250D01*
X762599Y100091D01*
X764788Y100998D01*
X766668Y102440D01*
X768111Y104320D01*
X769018Y106510D01*
X769327Y108859D01*
Y111359D01*
D02*
G37*
G36*
X752750Y127937D02*
X750250D01*
X747900Y127627D01*
X745711Y126721D01*
X743831Y125278D01*
X742388Y123398D01*
X741481Y121209D01*
X741172Y118859D01*
Y116359D01*
X752750D01*
Y127937D01*
D02*
G37*
G36*
X825250Y128946D02*
X815250D01*
X812639Y128602D01*
X810207Y127594D01*
X808118Y125991D01*
X806515Y123902D01*
X805507Y121470D01*
X805163Y118859D01*
Y108859D01*
X805507Y106249D01*
X806515Y103816D01*
X808118Y101727D01*
X810207Y100124D01*
X812639Y99117D01*
X815250Y98773D01*
X825250D01*
X827860Y99117D01*
X830293Y100124D01*
X832382Y101727D01*
X833985Y103816D01*
X834992Y106249D01*
X835336Y108859D01*
Y118859D01*
X834992Y121470D01*
X833985Y123902D01*
X832382Y125991D01*
X830293Y127594D01*
X827860Y128602D01*
X825250Y128946D01*
D02*
G37*
G36*
X752750Y111359D02*
X741172D01*
Y108859D01*
X741481Y106510D01*
X742388Y104320D01*
X743831Y102440D01*
X745711Y100998D01*
X747900Y100091D01*
X750250Y99782D01*
X752750D01*
Y111359D01*
D02*
G37*
G36*
X991550Y203947D02*
X991302Y203897D01*
X991050Y203922D01*
X986640Y203488D01*
X986159Y203342D01*
X985659Y203293D01*
X981418Y202006D01*
X980975Y201770D01*
X980495Y201624D01*
X976586Y199535D01*
X976198Y199216D01*
X975755Y198979D01*
X972329Y196168D01*
X972010Y195779D01*
X971622Y195461D01*
X968811Y192035D01*
X968574Y191592D01*
X968255Y191204D01*
X966166Y187295D01*
X966020Y186815D01*
X965784Y186372D01*
X964497Y182131D01*
X964448Y181631D01*
X964302Y181150D01*
X963868Y176740D01*
X963917Y176240D01*
X963868Y175740D01*
X964302Y171330D01*
X964448Y170849D01*
X964497Y170349D01*
X965784Y166108D01*
X966020Y165665D01*
X966166Y165185D01*
X968255Y161276D01*
X968574Y160888D01*
X968811Y160445D01*
X971622Y157019D01*
X972010Y156700D01*
X972329Y156312D01*
X975755Y153501D01*
X976198Y153264D01*
X976586Y152945D01*
X980495Y150856D01*
X980975Y150710D01*
X981418Y150474D01*
X985659Y149187D01*
X986159Y149138D01*
X986640Y148992D01*
X991050Y148558D01*
X991302Y148582D01*
X991550Y148533D01*
X991798Y148582D01*
X992050Y148558D01*
X996460Y148992D01*
X996941Y149138D01*
X997441Y149187D01*
X1001682Y150474D01*
X1002125Y150710D01*
X1002605Y150856D01*
X1006514Y152945D01*
X1006902Y153264D01*
X1007345Y153501D01*
X1010771Y156312D01*
X1011089Y156700D01*
X1011478Y157019D01*
X1014289Y160445D01*
X1014526Y160888D01*
X1014845Y161276D01*
X1016934Y165185D01*
X1017080Y165665D01*
X1017316Y166108D01*
X1018603Y170349D01*
X1018652Y170849D01*
X1018798Y171330D01*
X1019232Y175740D01*
X1019183Y176240D01*
X1019232Y176740D01*
X1018798Y181150D01*
X1018652Y181631D01*
X1018603Y182131D01*
X1017316Y186372D01*
X1017080Y186815D01*
X1016934Y187295D01*
X1014845Y191204D01*
X1014526Y191592D01*
X1014289Y192035D01*
X1011478Y195461D01*
X1011089Y195779D01*
X1010771Y196168D01*
X1007345Y198979D01*
X1006902Y199216D01*
X1006514Y199535D01*
X1002605Y201624D01*
X1002125Y201770D01*
X1001682Y202006D01*
X997441Y203293D01*
X996941Y203342D01*
X996460Y203488D01*
X992050Y203922D01*
X991798Y203897D01*
X991550Y203947D01*
D02*
G37*
G36*
X140000Y264072D02*
X137059Y263783D01*
X134232Y262925D01*
X131626Y261532D01*
X129342Y259658D01*
X127468Y257374D01*
X126075Y254768D01*
X125217Y251940D01*
X124927Y249000D01*
X125217Y246059D01*
X126075Y243232D01*
X127468Y240626D01*
X129342Y238342D01*
X131626Y236468D01*
X134232Y235075D01*
X137059Y234217D01*
X140000Y233927D01*
X142941Y234217D01*
X145768Y235075D01*
X148374Y236468D01*
X150658Y238342D01*
X152532Y240626D01*
X153925Y243232D01*
X154783Y246059D01*
X155073Y249000D01*
X154783Y251940D01*
X153925Y254768D01*
X152532Y257374D01*
X150658Y259658D01*
X148374Y261532D01*
X145768Y262925D01*
X142941Y263783D01*
X140000Y264072D01*
D02*
G37*
G36*
X760250Y127937D02*
X757750D01*
Y116359D01*
X769327D01*
Y118859D01*
X769018Y121209D01*
X768111Y123398D01*
X766668Y125278D01*
X764788Y126721D01*
X762599Y127627D01*
X760250Y127937D01*
D02*
G37*
G36*
X53020Y203947D02*
X52772Y203897D01*
X52520Y203922D01*
X48110Y203488D01*
X47629Y203342D01*
X47129Y203293D01*
X42888Y202006D01*
X42445Y201770D01*
X41965Y201624D01*
X38056Y199535D01*
X37668Y199216D01*
X37225Y198979D01*
X33799Y196168D01*
X33481Y195779D01*
X33092Y195461D01*
X30281Y192035D01*
X30044Y191592D01*
X29725Y191204D01*
X27636Y187295D01*
X27490Y186815D01*
X27254Y186372D01*
X25967Y182131D01*
X25918Y181631D01*
X25772Y181150D01*
X25338Y176740D01*
X25387Y176240D01*
X25338Y175740D01*
X25772Y171330D01*
X25918Y170849D01*
X25967Y170349D01*
X27254Y166108D01*
X27490Y165665D01*
X27636Y165185D01*
X29725Y161276D01*
X30044Y160888D01*
X30281Y160445D01*
X33092Y157019D01*
X33481Y156700D01*
X33799Y156312D01*
X37225Y153501D01*
X37668Y153264D01*
X38056Y152945D01*
X41965Y150856D01*
X42445Y150710D01*
X42888Y150474D01*
X47129Y149187D01*
X47629Y149138D01*
X48110Y148992D01*
X52520Y148558D01*
X52772Y148582D01*
X53020Y148533D01*
X53268Y148582D01*
X53520Y148558D01*
X57930Y148992D01*
X58411Y149138D01*
X58911Y149187D01*
X63152Y150474D01*
X63595Y150710D01*
X64075Y150856D01*
X67984Y152945D01*
X68372Y153264D01*
X68815Y153501D01*
X72241Y156312D01*
X72559Y156700D01*
X72948Y157019D01*
X75759Y160445D01*
X75996Y160888D01*
X76315Y161276D01*
X78404Y165185D01*
X78550Y165665D01*
X78786Y166108D01*
X80073Y170349D01*
X80122Y170849D01*
X80268Y171330D01*
X80702Y175740D01*
X80653Y176240D01*
X80702Y176740D01*
X80268Y181150D01*
X80122Y181631D01*
X80073Y182131D01*
X78786Y186372D01*
X78550Y186815D01*
X78404Y187295D01*
X76315Y191204D01*
X75996Y191592D01*
X75759Y192035D01*
X72948Y195461D01*
X72559Y195779D01*
X72241Y196168D01*
X68815Y198979D01*
X68372Y199216D01*
X67984Y199535D01*
X64075Y201624D01*
X63595Y201770D01*
X63152Y202006D01*
X58911Y203293D01*
X58411Y203342D01*
X57930Y203488D01*
X53520Y203922D01*
X53268Y203897D01*
X53020Y203947D01*
D02*
G37*
G36*
X525219Y731230D02*
X516570D01*
Y722581D01*
X517911Y722757D01*
X520343Y723765D01*
X522432Y725368D01*
X524035Y727457D01*
X525043Y729890D01*
X525219Y731230D01*
D02*
G37*
G36*
X133030Y742419D02*
X131690Y742243D01*
X129257Y741235D01*
X127168Y739632D01*
X125565Y737543D01*
X124558Y735110D01*
X124381Y733770D01*
X133030D01*
Y742419D01*
D02*
G37*
G36*
X841270Y683826D02*
Y681270D01*
X843826D01*
X843768Y681561D01*
X842884Y682884D01*
X841561Y683768D01*
X841270Y683826D01*
D02*
G37*
G36*
X133030Y731230D02*
X124381D01*
X124558Y729890D01*
X125565Y727457D01*
X127168Y725368D01*
X129257Y723765D01*
X131690Y722757D01*
X133030Y722581D01*
Y731230D01*
D02*
G37*
G36*
X53020Y760207D02*
X52772Y760157D01*
X52520Y760182D01*
X48110Y759748D01*
X47629Y759602D01*
X47129Y759553D01*
X42888Y758266D01*
X42445Y758030D01*
X41965Y757884D01*
X38056Y755795D01*
X37668Y755476D01*
X37225Y755239D01*
X33799Y752428D01*
X33481Y752039D01*
X33092Y751721D01*
X30281Y748295D01*
X30044Y747852D01*
X29725Y747464D01*
X27636Y743555D01*
X27490Y743075D01*
X27254Y742632D01*
X25967Y738391D01*
X25918Y737891D01*
X25772Y737410D01*
X25338Y733000D01*
X25387Y732500D01*
X25338Y732000D01*
X25772Y727590D01*
X25918Y727109D01*
X25967Y726609D01*
X27254Y722368D01*
X27490Y721925D01*
X27636Y721445D01*
X29725Y717536D01*
X30044Y717148D01*
X30281Y716705D01*
X33092Y713279D01*
X33481Y712961D01*
X33799Y712572D01*
X37225Y709761D01*
X37668Y709524D01*
X38056Y709205D01*
X41965Y707116D01*
X42445Y706970D01*
X42888Y706734D01*
X47129Y705447D01*
X47629Y705398D01*
X48110Y705252D01*
X52520Y704818D01*
X52772Y704843D01*
X53020Y704793D01*
X53268Y704843D01*
X53520Y704818D01*
X57930Y705252D01*
X58411Y705398D01*
X58911Y705447D01*
X63152Y706734D01*
X63595Y706970D01*
X64075Y707116D01*
X67984Y709205D01*
X68372Y709524D01*
X68815Y709761D01*
X72241Y712572D01*
X72559Y712961D01*
X72948Y713279D01*
X75759Y716705D01*
X75996Y717148D01*
X76315Y717536D01*
X78404Y721445D01*
X78550Y721925D01*
X78786Y722368D01*
X80073Y726609D01*
X80122Y727109D01*
X80268Y727590D01*
X80702Y732000D01*
X80653Y732500D01*
X80702Y733000D01*
X80268Y737410D01*
X80122Y737891D01*
X80073Y738391D01*
X78786Y742632D01*
X78550Y743075D01*
X78404Y743555D01*
X76315Y747464D01*
X75996Y747852D01*
X75759Y748295D01*
X72948Y751721D01*
X72559Y752039D01*
X72241Y752428D01*
X68815Y755239D01*
X68372Y755476D01*
X67984Y755795D01*
X64075Y757884D01*
X63595Y758030D01*
X63152Y758266D01*
X58911Y759553D01*
X58411Y759602D01*
X57930Y759748D01*
X53520Y760182D01*
X53268Y760157D01*
X53020Y760207D01*
D02*
G37*
G36*
X991550Y760207D02*
X991302Y760157D01*
X991050Y760182D01*
X986639Y759748D01*
X986159Y759602D01*
X985659Y759553D01*
X981418Y758266D01*
X980975Y758030D01*
X980495Y757884D01*
X976586Y755795D01*
X976198Y755476D01*
X975755Y755239D01*
X972329Y752428D01*
X972010Y752040D01*
X971622Y751721D01*
X968811Y748295D01*
X968574Y747852D01*
X968255Y747464D01*
X966166Y743555D01*
X966020Y743075D01*
X965784Y742632D01*
X964497Y738391D01*
X964448Y737891D01*
X964302Y737411D01*
X963868Y733000D01*
X963917Y732500D01*
X963868Y732000D01*
X964302Y727590D01*
X964448Y727109D01*
X964497Y726609D01*
X965784Y722368D01*
X966020Y721925D01*
X966166Y721445D01*
X968255Y717536D01*
X968574Y717148D01*
X968811Y716705D01*
X971622Y713279D01*
X972010Y712961D01*
X972329Y712572D01*
X975755Y709761D01*
X976198Y709524D01*
X976586Y709205D01*
X980495Y707116D01*
X980975Y706970D01*
X981418Y706734D01*
X985659Y705447D01*
X986159Y705398D01*
X986639Y705252D01*
X991050Y704818D01*
X991302Y704843D01*
X991550Y704793D01*
X991798Y704843D01*
X992050Y704818D01*
X996460Y705252D01*
X996941Y705398D01*
X997441Y705447D01*
X1001682Y706734D01*
X1002125Y706970D01*
X1002605Y707116D01*
X1006514Y709205D01*
X1006902Y709524D01*
X1007345Y709761D01*
X1010771Y712572D01*
X1011089Y712961D01*
X1011478Y713279D01*
X1014289Y716705D01*
X1014526Y717148D01*
X1014845Y717536D01*
X1016934Y721445D01*
X1017080Y721925D01*
X1017316Y722368D01*
X1018603Y726609D01*
X1018652Y727109D01*
X1018798Y727590D01*
X1019232Y732000D01*
X1019183Y732500D01*
X1019232Y733000D01*
X1018798Y737411D01*
X1018652Y737891D01*
X1018603Y738391D01*
X1017316Y742632D01*
X1017080Y743075D01*
X1016934Y743555D01*
X1014845Y747464D01*
X1014526Y747852D01*
X1014289Y748295D01*
X1011478Y751721D01*
X1011089Y752040D01*
X1010771Y752428D01*
X1007345Y755239D01*
X1006902Y755476D01*
X1006514Y755795D01*
X1002605Y757884D01*
X1002125Y758030D01*
X1001682Y758266D01*
X997441Y759553D01*
X996941Y759602D01*
X996460Y759748D01*
X992050Y760182D01*
X991798Y760157D01*
X991550Y760207D01*
D02*
G37*
G36*
X516570Y742419D02*
Y733770D01*
X525219D01*
X525043Y735110D01*
X524035Y737543D01*
X522432Y739632D01*
X520343Y741235D01*
X517911Y742243D01*
X516570Y742419D01*
D02*
G37*
G36*
X489900Y747573D02*
X486959Y747283D01*
X484132Y746425D01*
X481526Y745032D01*
X479242Y743158D01*
X478018Y741666D01*
X476382D01*
X475158Y743158D01*
X472874Y745032D01*
X470268Y746425D01*
X467440Y747283D01*
X464500Y747573D01*
X461559Y747283D01*
X458732Y746425D01*
X456126Y745032D01*
X453842Y743158D01*
X452618Y741666D01*
X450982D01*
X449758Y743158D01*
X447474Y745032D01*
X444868Y746425D01*
X442040Y747283D01*
X439100Y747573D01*
X436160Y747283D01*
X433332Y746425D01*
X430726Y745032D01*
X428442Y743158D01*
X427218Y741666D01*
X425582D01*
X424358Y743158D01*
X422074Y745032D01*
X419468Y746425D01*
X416641Y747283D01*
X413700Y747573D01*
X410760Y747283D01*
X407932Y746425D01*
X405326Y745032D01*
X403042Y743158D01*
X401818Y741666D01*
X400182D01*
X398958Y743158D01*
X396674Y745032D01*
X394068Y746425D01*
X391241Y747283D01*
X388300Y747573D01*
X385359Y747283D01*
X382532Y746425D01*
X379926Y745032D01*
X377642Y743158D01*
X376418Y741666D01*
X374782D01*
X373558Y743158D01*
X371274Y745032D01*
X368668Y746425D01*
X365840Y747283D01*
X362900Y747573D01*
X359959Y747283D01*
X357132Y746425D01*
X354526Y745032D01*
X352242Y743158D01*
X351018Y741666D01*
X349382D01*
X348158Y743158D01*
X345874Y745032D01*
X343268Y746425D01*
X340440Y747283D01*
X337500Y747573D01*
X334560Y747283D01*
X331732Y746425D01*
X329126Y745032D01*
X326842Y743158D01*
X325618Y741666D01*
X323982D01*
X322758Y743158D01*
X320474Y745032D01*
X317868Y746425D01*
X315040Y747283D01*
X312100Y747573D01*
X309160Y747283D01*
X306332Y746425D01*
X303726Y745032D01*
X301442Y743158D01*
X300218Y741666D01*
X298582D01*
X297358Y743158D01*
X295074Y745032D01*
X292468Y746425D01*
X289641Y747283D01*
X286700Y747573D01*
X283759Y747283D01*
X280932Y746425D01*
X278326Y745032D01*
X276042Y743158D01*
X274818Y741666D01*
X273182D01*
X271958Y743158D01*
X269674Y745032D01*
X267068Y746425D01*
X264240Y747283D01*
X261300Y747573D01*
X258360Y747283D01*
X255532Y746425D01*
X252926Y745032D01*
X250642Y743158D01*
X249418Y741666D01*
X247782D01*
X246558Y743158D01*
X244274Y745032D01*
X241668Y746425D01*
X238841Y747283D01*
X235900Y747573D01*
X232959Y747283D01*
X230132Y746425D01*
X227526Y745032D01*
X225242Y743158D01*
X224018Y741666D01*
X222382D01*
X221158Y743158D01*
X218874Y745032D01*
X216268Y746425D01*
X213440Y747283D01*
X210500Y747573D01*
X207560Y747283D01*
X204732Y746425D01*
X202126Y745032D01*
X199842Y743158D01*
X198618Y741666D01*
X196982D01*
X195758Y743158D01*
X193474Y745032D01*
X190868Y746425D01*
X188041Y747283D01*
X185100Y747573D01*
X182160Y747283D01*
X179332Y746425D01*
X176726Y745032D01*
X174442Y743158D01*
X173218Y741666D01*
X171582D01*
X170358Y743158D01*
X168074Y745032D01*
X165468Y746425D01*
X162640Y747283D01*
X159700Y747573D01*
X156760Y747283D01*
X153932Y746425D01*
X151326Y745032D01*
X149042Y743158D01*
X147168Y740874D01*
X145775Y738268D01*
X145071Y735947D01*
X143723Y735881D01*
X143035Y737543D01*
X141432Y739632D01*
X139343Y741235D01*
X136911Y742243D01*
X135570Y742419D01*
Y732500D01*
Y722581D01*
X136911Y722757D01*
X139343Y723765D01*
X141432Y725368D01*
X143035Y727457D01*
X143723Y729119D01*
X145071Y729053D01*
X145775Y726732D01*
X147168Y724126D01*
X149042Y721842D01*
X151326Y719968D01*
X153932Y718575D01*
X156760Y717717D01*
X159700Y717427D01*
X162640Y717717D01*
X165468Y718575D01*
X168074Y719968D01*
X170358Y721842D01*
X171582Y723334D01*
X173218D01*
X174442Y721842D01*
X176726Y719968D01*
X179332Y718575D01*
X182160Y717717D01*
X185100Y717427D01*
X188041Y717717D01*
X190868Y718575D01*
X193474Y719968D01*
X195758Y721842D01*
X196982Y723334D01*
X198618D01*
X199842Y721842D01*
X202126Y719968D01*
X204732Y718575D01*
X207560Y717717D01*
X210500Y717427D01*
X213440Y717717D01*
X216268Y718575D01*
X218874Y719968D01*
X221158Y721842D01*
X222382Y723334D01*
X224018D01*
X225242Y721842D01*
X227526Y719968D01*
X230132Y718575D01*
X232959Y717717D01*
X235900Y717427D01*
X238841Y717717D01*
X241668Y718575D01*
X244274Y719968D01*
X246558Y721842D01*
X247782Y723334D01*
X249418D01*
X250642Y721842D01*
X252926Y719968D01*
X255532Y718575D01*
X258360Y717717D01*
X261300Y717427D01*
X264240Y717717D01*
X267068Y718575D01*
X269674Y719968D01*
X271958Y721842D01*
X273182Y723334D01*
X274818D01*
X276042Y721842D01*
X278326Y719968D01*
X280932Y718575D01*
X283759Y717717D01*
X286700Y717427D01*
X289641Y717717D01*
X292468Y718575D01*
X295074Y719968D01*
X297358Y721842D01*
X298582Y723334D01*
X300218D01*
X301442Y721842D01*
X303726Y719968D01*
X306332Y718575D01*
X309160Y717717D01*
X312100Y717427D01*
X315040Y717717D01*
X317868Y718575D01*
X320474Y719968D01*
X322758Y721842D01*
X323982Y723334D01*
X325618D01*
X326842Y721842D01*
X329126Y719968D01*
X331732Y718575D01*
X334560Y717717D01*
X337500Y717427D01*
X340440Y717717D01*
X343268Y718575D01*
X345874Y719968D01*
X348158Y721842D01*
X349382Y723334D01*
X351018D01*
X352242Y721842D01*
X354526Y719968D01*
X357132Y718575D01*
X359959Y717717D01*
X362900Y717427D01*
X365840Y717717D01*
X368668Y718575D01*
X371274Y719968D01*
X373558Y721842D01*
X374782Y723334D01*
X376418D01*
X377642Y721842D01*
X379926Y719968D01*
X382532Y718575D01*
X385359Y717717D01*
X388300Y717427D01*
X391241Y717717D01*
X394068Y718575D01*
X396674Y719968D01*
X398958Y721842D01*
X400182Y723334D01*
X401818D01*
X403042Y721842D01*
X405326Y719968D01*
X407932Y718575D01*
X410760Y717717D01*
X413700Y717427D01*
X416641Y717717D01*
X419468Y718575D01*
X422074Y719968D01*
X424358Y721842D01*
X425582Y723334D01*
X427218D01*
X428442Y721842D01*
X430726Y719968D01*
X433332Y718575D01*
X436160Y717717D01*
X439100Y717427D01*
X442040Y717717D01*
X444868Y718575D01*
X447474Y719968D01*
X449758Y721842D01*
X450982Y723334D01*
X452618D01*
X453842Y721842D01*
X456126Y719968D01*
X458732Y718575D01*
X461559Y717717D01*
X464500Y717427D01*
X467440Y717717D01*
X470268Y718575D01*
X472874Y719968D01*
X475158Y721842D01*
X476382Y723334D01*
X478018D01*
X479242Y721842D01*
X481526Y719968D01*
X484132Y718575D01*
X486959Y717717D01*
X489900Y717427D01*
X492840Y717717D01*
X495668Y718575D01*
X498274Y719968D01*
X500558Y721842D01*
X502432Y724126D01*
X503825Y726732D01*
X504529Y729053D01*
X505877Y729119D01*
X506565Y727457D01*
X508168Y725368D01*
X510257Y723765D01*
X512690Y722757D01*
X514030Y722581D01*
Y732500D01*
Y742419D01*
X512690Y742243D01*
X510257Y741235D01*
X508168Y739632D01*
X506565Y737543D01*
X505877Y735881D01*
X504529Y735947D01*
X503825Y738268D01*
X502432Y740874D01*
X500558Y743158D01*
X498274Y745032D01*
X495668Y746425D01*
X492840Y747283D01*
X489900Y747573D01*
D02*
G37*
G36*
X838730Y683826D02*
X838439Y683768D01*
X837116Y682884D01*
X836232Y681561D01*
X836174Y681270D01*
X838730D01*
Y683826D01*
D02*
G37*
G36*
X777500Y622582D02*
X774167Y622254D01*
X770963Y621282D01*
X768010Y619703D01*
X765421Y617579D01*
X763297Y614990D01*
X761718Y612037D01*
X760746Y608833D01*
X760418Y605500D01*
Y599500D01*
X760746Y596167D01*
X761718Y592963D01*
X763297Y590010D01*
X765421Y587421D01*
X768010Y585297D01*
X770963Y583718D01*
X774167Y582746D01*
X777500Y582418D01*
X780833Y582746D01*
X784037Y583718D01*
X786990Y585297D01*
X789579Y587421D01*
X791703Y590010D01*
X793282Y592963D01*
X794254Y596167D01*
X794582Y599500D01*
Y605500D01*
X794254Y608833D01*
X793282Y612037D01*
X791703Y614990D01*
X789579Y617579D01*
X786990Y619703D01*
X784037Y621282D01*
X780833Y622254D01*
X777500Y622582D01*
D02*
G37*
G36*
X900900D02*
X897567Y622254D01*
X894363Y621282D01*
X891410Y619703D01*
X888821Y617579D01*
X886697Y614990D01*
X885118Y612037D01*
X884146Y608833D01*
X883818Y605500D01*
Y599500D01*
X884146Y596167D01*
X885118Y592963D01*
X886697Y590010D01*
X888821Y587421D01*
X891410Y585297D01*
X894363Y583718D01*
X897567Y582746D01*
X900900Y582418D01*
X904233Y582746D01*
X907437Y583718D01*
X910390Y585297D01*
X912979Y587421D01*
X915103Y590010D01*
X916682Y592963D01*
X917654Y596167D01*
X917982Y599500D01*
Y605500D01*
X917654Y608833D01*
X916682Y612037D01*
X915103Y614990D01*
X912979Y617579D01*
X910390Y619703D01*
X907437Y621282D01*
X904233Y622254D01*
X900900Y622582D01*
D02*
G37*
G36*
X194500Y577500D02*
X185226D01*
X185309Y576867D01*
X186518Y573948D01*
X188442Y571441D01*
X190948Y569518D01*
X193867Y568309D01*
X194500Y568226D01*
Y577500D01*
D02*
G37*
G36*
X208774D02*
X199500D01*
Y568226D01*
X200133Y568309D01*
X203052Y569518D01*
X205558Y571441D01*
X207482Y573948D01*
X208691Y576867D01*
X208774Y577500D01*
D02*
G37*
G36*
X838730Y678730D02*
X836174D01*
X836232Y678439D01*
X837116Y677116D01*
X838439Y676232D01*
X838730Y676174D01*
Y678730D01*
D02*
G37*
G36*
X843826D02*
X841270D01*
Y676174D01*
X841561Y676232D01*
X842884Y677116D01*
X843768Y678439D01*
X843826Y678730D01*
D02*
G37*
G36*
X194500Y591774D02*
X193867Y591691D01*
X190948Y590482D01*
X188442Y588559D01*
X186518Y586052D01*
X185309Y583133D01*
X185226Y582500D01*
X194500D01*
Y591774D01*
D02*
G37*
G36*
X199500D02*
Y582500D01*
X208774D01*
X208691Y583133D01*
X207482Y586052D01*
X205558Y588559D01*
X203052Y590482D01*
X200133Y591691D01*
X199500Y591774D01*
D02*
G37*
%LPD*%
D10*
X820250Y68859D02*
X841359D01*
X855000Y82500D01*
Y372500D01*
X730000Y497500D02*
X855000Y372500D01*
X708814Y497500D02*
X730000D01*
D11*
X755250Y113859D02*
D03*
Y68859D02*
D03*
X820250D02*
D03*
X820250Y113859D02*
D03*
D12*
X900900Y602500D02*
D03*
X777500D02*
D03*
D13*
X197000Y580000D02*
D03*
X70000D02*
D03*
X120800Y554600D02*
D03*
D14*
X140000Y445000D02*
D03*
Y249000D02*
D03*
X261300Y732500D02*
D03*
X286700D02*
D03*
X312100D02*
D03*
X235900D02*
D03*
X185100D02*
D03*
X210500D02*
D03*
X159700D02*
D03*
X134300D02*
D03*
X464500D02*
D03*
X489900D02*
D03*
X515300D02*
D03*
X439100D02*
D03*
X388300D02*
D03*
X413700D02*
D03*
X362900D02*
D03*
X337500D02*
D03*
D15*
X995000Y530000D02*
D03*
Y480000D02*
D03*
Y430000D02*
D03*
D16*
X757500Y547500D02*
D03*
X840000Y680000D02*
D03*
X708814Y497500D02*
D03*
M02*
