G04 Layer_Color=8388736*
%FSLAX24Y24*%
%MOIN*%
G70*
G01*
G75*
%ADD35R,0.0828X0.0671*%
%ADD36R,0.0671X0.0828*%
G04:AMPARAMS|DCode=37|XSize=126.1mil|YSize=47.4mil|CornerRadius=13.8mil|HoleSize=0mil|Usage=FLASHONLY|Rotation=180.000|XOffset=0mil|YOffset=0mil|HoleType=Round|Shape=RoundedRectangle|*
%AMROUNDEDRECTD37*
21,1,0.1261,0.0197,0,0,180.0*
21,1,0.0984,0.0474,0,0,180.0*
1,1,0.0277,-0.0492,0.0098*
1,1,0.0277,0.0492,0.0098*
1,1,0.0277,0.0492,-0.0098*
1,1,0.0277,-0.0492,-0.0098*
%
%ADD37ROUNDEDRECTD37*%
%ADD38O,0.0316X0.0887*%
%ADD39O,0.0887X0.0316*%
%ADD40R,0.0749X0.0513*%
%ADD41R,0.0513X0.0749*%
%ADD42O,0.0316X0.0651*%
G04:AMPARAMS|DCode=43|XSize=165.5mil|YSize=86.7mil|CornerRadius=23.7mil|HoleSize=0mil|Usage=FLASHONLY|Rotation=180.000|XOffset=0mil|YOffset=0mil|HoleType=Round|Shape=RoundedRectangle|*
%AMROUNDEDRECTD43*
21,1,0.1655,0.0394,0,0,180.0*
21,1,0.1181,0.0867,0,0,180.0*
1,1,0.0474,-0.0591,0.0197*
1,1,0.0474,0.0591,0.0197*
1,1,0.0474,0.0591,-0.0197*
1,1,0.0474,-0.0591,-0.0197*
%
%ADD43ROUNDEDRECTD43*%
%ADD44C,0.0867*%
%ADD45C,0.0710*%
%ADD46C,0.0946*%
%ADD47C,0.0552*%
%ADD48C,0.2049*%
%ADD49C,0.0474*%
D35*
X23678Y18613D02*
D03*
Y19833D02*
D03*
X20978Y23383D02*
D03*
Y22163D02*
D03*
X33128Y18613D02*
D03*
Y19833D02*
D03*
X27278Y18613D02*
D03*
Y19833D02*
D03*
X11299Y16201D02*
D03*
Y14980D02*
D03*
X11878Y13683D02*
D03*
Y12463D02*
D03*
D36*
X35488Y19673D02*
D03*
X34268D02*
D03*
X30088Y19755D02*
D03*
X28868D02*
D03*
X17818Y14873D02*
D03*
X19038D02*
D03*
X17818Y13573D02*
D03*
X19038D02*
D03*
X17818Y12373D02*
D03*
X19038D02*
D03*
X17818Y11223D02*
D03*
X19038D02*
D03*
X13988Y12523D02*
D03*
X12768D02*
D03*
D37*
X11228Y28309D02*
D03*
Y26537D02*
D03*
X7628Y28309D02*
D03*
Y26537D02*
D03*
X16028D02*
D03*
Y28309D02*
D03*
X19628Y26537D02*
D03*
Y28309D02*
D03*
D38*
X12553Y21967D02*
D03*
X12868D02*
D03*
X13183D02*
D03*
X13498D02*
D03*
X13813D02*
D03*
X14128D02*
D03*
X14443D02*
D03*
X14758D02*
D03*
X15073D02*
D03*
X15388D02*
D03*
X15703D02*
D03*
X15703Y17479D02*
D03*
X15388Y17479D02*
D03*
X15073D02*
D03*
X14758Y17479D02*
D03*
X14443D02*
D03*
X14128D02*
D03*
X13813D02*
D03*
X13498D02*
D03*
X13183D02*
D03*
X12868D02*
D03*
X12553D02*
D03*
D39*
X16372Y21298D02*
D03*
Y20983D02*
D03*
Y20668D02*
D03*
Y20353D02*
D03*
Y20038D02*
D03*
Y19723D02*
D03*
Y19408D02*
D03*
Y19093D02*
D03*
Y18778D02*
D03*
Y18463D02*
D03*
Y18148D02*
D03*
X11884D02*
D03*
Y18463D02*
D03*
Y18778D02*
D03*
Y19093D02*
D03*
Y19408D02*
D03*
Y19723D02*
D03*
Y20038D02*
D03*
Y20353D02*
D03*
X11884Y20668D02*
D03*
Y20983D02*
D03*
X11884Y21298D02*
D03*
D40*
X7378Y17892D02*
D03*
Y18955D02*
D03*
X7428Y21555D02*
D03*
Y20492D02*
D03*
X18178Y20305D02*
D03*
Y19242D02*
D03*
D41*
X12796Y15052D02*
D03*
X13859D02*
D03*
D42*
X11897Y8800D02*
D03*
X12397D02*
D03*
X12897D02*
D03*
X13397D02*
D03*
X11897Y10946D02*
D03*
X12397D02*
D03*
X12897D02*
D03*
X13397D02*
D03*
D43*
X31228Y12911D02*
D03*
Y11711D02*
D03*
Y14073D02*
D03*
Y15273D02*
D03*
D44*
X25078Y22723D02*
D03*
X24078D02*
D03*
X23078D02*
D03*
X35128D02*
D03*
X34128D02*
D03*
X33128D02*
D03*
X30228D02*
D03*
X29228D02*
D03*
X28228D02*
D03*
X5928Y2406D02*
D03*
Y10673D02*
D03*
D45*
X26890Y13622D02*
D03*
Y14622D02*
D03*
X9078Y18873D02*
D03*
Y20794D02*
D03*
X21328Y11910D02*
D03*
X22328D02*
D03*
X21328Y15273D02*
D03*
X22328D02*
D03*
X21328Y18623D02*
D03*
X22328D02*
D03*
X26828Y8323D02*
D03*
X26041D02*
D03*
X23278D02*
D03*
X22491D02*
D03*
D46*
X8878Y15623D02*
D03*
X7878D02*
D03*
D47*
X11878Y7887D02*
D03*
Y7060D02*
D03*
D48*
X1969Y31496D02*
D03*
X20669D02*
D03*
X13780Y1969D02*
D03*
X33465D02*
D03*
D49*
X18268Y18622D02*
D03*
X21772Y22795D02*
D03*
X14134Y21181D02*
D03*
X12992Y19252D02*
D03*
X13346Y18346D02*
D03*
X15512Y19724D02*
D03*
X14449Y18819D02*
D03*
X13583Y20551D02*
D03*
X12913Y19921D02*
D03*
X34055Y18740D02*
D03*
X34724Y16575D02*
D03*
X28898Y18583D02*
D03*
X26378Y19213D02*
D03*
X22874Y20236D02*
D03*
X30118Y18661D02*
D03*
X27520Y16575D02*
D03*
X13110Y16535D02*
D03*
X16890Y16181D02*
D03*
X25315Y11732D02*
D03*
X32362Y19724D02*
D03*
X31811Y21339D02*
D03*
X11339Y16811D02*
D03*
X12835Y18425D02*
D03*
X12913Y25000D02*
D03*
X15079Y25354D02*
D03*
X13307Y24134D02*
D03*
X14370Y24606D02*
D03*
X23346Y5591D02*
D03*
X14213Y15394D02*
D03*
X12165Y15591D02*
D03*
X17402Y16732D02*
D03*
X15748Y11811D02*
D03*
X16614Y15512D02*
D03*
X15866Y13661D02*
D03*
X14567Y12559D02*
D03*
X14173Y14252D02*
D03*
X15827Y16693D02*
D03*
X15787Y14685D02*
D03*
X12756Y14134D02*
D03*
X12756Y13150D02*
D03*
M02*
