M48
;Layer_Color=9474304
;FILE_FORMAT=4:3
METRIC,LZ
;TYPE=PLATED
T1F00S00C0.600
T2F00S00C0.800
T3F00S00C1.000
T4F00S00C1.100
T5F00S00C4.000
%
T01
X00593Y00142
X00643Y00298
X00699Y00421
X00734Y00472
X00765Y00474
X00822Y00501
X00865Y00476
X00882Y00421
X0067Y00488
X00581Y00514
X00464Y00473
X00442Y00425
X00429Y00411
X00422Y00394
X00401Y00373
X00403Y00347
X004Y003
X0037Y00319
X0036Y00362
X00361Y00391
X00333Y0042
X00309Y00396
X00288Y00427
X00326Y00468
X00339Y00466
X0033Y00489
X00328Y00506
X00367Y00478
X00394Y00501
X00402Y00424
X00324Y00359
X00324Y00334
X003017Y0020032
Y0017932
X00345Y00522
X00359Y00538
X00365Y00625
X00383Y00644
X00328Y00635
X00338Y00613
X00553Y00579
X00808Y00542
T02
X0059126Y0021141
X0066143
X0068143
X00683Y00346
Y003714
X0056713Y0038794
X0054173
Y0047303
X0056713
Y0030252
X0054173
X0057126Y0021141
X0023058Y0047938
Y0052818
T03
X0015057Y000611
Y002711
X0058618Y0057717
X0061158
X0063698
X0071699
X0074239
X0076779
X0084145
X0086685
X0089225
T04
X002001Y0039683
X002255
T05
X0035Y0005
X0085
X0005Y008
X00525
M30
