G04 Layer_Physical_Order=1*
G04 Layer_Color=255*
%FSLAX24Y24*%
%MOIN*%
G70*
G01*
G75*
%ADD10R,0.0748X0.0591*%
%ADD11R,0.0591X0.0748*%
G04:AMPARAMS|DCode=12|XSize=118.1mil|YSize=39.4mil|CornerRadius=9.8mil|HoleSize=0mil|Usage=FLASHONLY|Rotation=180.000|XOffset=0mil|YOffset=0mil|HoleType=Round|Shape=RoundedRectangle|*
%AMROUNDEDRECTD12*
21,1,0.1181,0.0197,0,0,180.0*
21,1,0.0984,0.0394,0,0,180.0*
1,1,0.0197,-0.0492,0.0098*
1,1,0.0197,0.0492,0.0098*
1,1,0.0197,0.0492,-0.0098*
1,1,0.0197,-0.0492,-0.0098*
%
%ADD12ROUNDEDRECTD12*%
%ADD13O,0.0236X0.0807*%
%ADD14O,0.0807X0.0236*%
%ADD15R,0.0669X0.0433*%
%ADD16R,0.0433X0.0669*%
%ADD17O,0.0236X0.0571*%
G04:AMPARAMS|DCode=18|XSize=157.5mil|YSize=78.7mil|CornerRadius=19.7mil|HoleSize=0mil|Usage=FLASHONLY|Rotation=180.000|XOffset=0mil|YOffset=0mil|HoleType=Round|Shape=RoundedRectangle|*
%AMROUNDEDRECTD18*
21,1,0.1575,0.0394,0,0,180.0*
21,1,0.1181,0.0787,0,0,180.0*
1,1,0.0394,-0.0591,0.0197*
1,1,0.0394,0.0591,0.0197*
1,1,0.0394,0.0591,-0.0197*
1,1,0.0394,-0.0591,-0.0197*
%
%ADD18ROUNDEDRECTD18*%
%ADD19C,0.0197*%
%ADD20C,0.0295*%
%ADD21C,0.0394*%
%ADD22C,0.0787*%
%ADD23C,0.0630*%
%ADD24C,0.0866*%
%ADD25C,0.0472*%
%ADD26C,0.1969*%
%ADD27C,0.0394*%
G36*
X19635Y32087D02*
X19391Y31496D01*
X19765Y30592D01*
X20669Y30218D01*
X21573Y30592D01*
X21952Y30478D01*
Y24685D01*
Y23956D01*
X21559Y23647D01*
X21549Y23649D01*
Y23876D01*
X20938D01*
X19233Y25580D01*
X19007Y25674D01*
X15336D01*
X15079Y25780D01*
X14743Y26068D01*
Y27680D01*
X14999Y27936D01*
X15427D01*
X15536Y27891D01*
X16520D01*
X16746Y27985D01*
X16840Y28211D01*
Y28407D01*
X16746Y28633D01*
X16520Y28727D01*
X15536D01*
X15427Y28682D01*
X14844D01*
X14844Y28682D01*
X14581Y28573D01*
X14581Y28573D01*
X14106Y28098D01*
X13997Y27835D01*
X13997Y27835D01*
Y26575D01*
X13633Y26425D01*
X13295Y26763D01*
X13069Y26857D01*
X11948D01*
X11946Y26862D01*
X11720Y26955D01*
X10736D01*
X10510Y26862D01*
X10416Y26636D01*
Y26439D01*
X10510Y26213D01*
X10736Y26119D01*
X11720D01*
X11946Y26213D01*
X11948Y26218D01*
X12937D01*
X13282Y25872D01*
X13254Y25709D01*
X12913Y25426D01*
X12674Y25327D01*
X12612Y25301D01*
X12487Y25000D01*
X12574Y24790D01*
Y22608D01*
X12553Y22594D01*
X12312Y22494D01*
X12261Y22371D01*
X12212Y22253D01*
Y22003D01*
X12174Y21677D01*
X11849Y21639D01*
X11598D01*
X11357Y21539D01*
X11258Y21298D01*
X11323Y21141D01*
X11258Y20983D01*
X11323Y20826D01*
X11258Y20668D01*
X11323Y20511D01*
X11258Y20353D01*
X11323Y20196D01*
X11258Y20038D01*
X10981Y19749D01*
X10578Y19746D01*
X9602Y20722D01*
X9632Y20794D01*
X9470Y21186D01*
X9078Y21348D01*
X9006Y21319D01*
X8544Y21781D01*
X8318Y21874D01*
X7959D01*
Y21968D01*
X6896D01*
Y21299D01*
X6896Y21141D01*
Y20905D01*
X6896Y20748D01*
Y20590D01*
X7428D01*
Y20492D01*
D01*
Y20590D01*
X7959D01*
X7959Y20813D01*
X8061Y20905D01*
X8454Y20878D01*
X8524Y20794D01*
X8686Y20403D01*
X9078Y20241D01*
X9150Y20270D01*
X9486Y19935D01*
X9369Y19497D01*
X9129Y19406D01*
X9078Y19427D01*
X8686Y19265D01*
X8524Y18873D01*
X8545Y18823D01*
X8281Y18560D01*
X7909Y18713D01*
Y18856D01*
X6846D01*
Y18699D01*
X6846Y18541D01*
Y18305D01*
X6846Y18148D01*
Y17478D01*
X7729D01*
X7893Y17085D01*
X7652Y16844D01*
X7558Y16618D01*
Y16173D01*
X7396Y16105D01*
X7196Y15623D01*
X7396Y15141D01*
X7878Y14941D01*
X8360Y15141D01*
X8396Y15141D01*
X8878Y14941D01*
X9360Y15141D01*
X9560Y15623D01*
X9360Y16105D01*
X9198Y16173D01*
Y16620D01*
X10722Y18144D01*
X11259D01*
X11357Y17907D01*
X11598Y17808D01*
X11849D01*
X12174Y17769D01*
X12212Y17444D01*
Y17194D01*
X12312Y16953D01*
X12413Y16911D01*
X12684Y16535D01*
X12793Y16273D01*
X12533Y16013D01*
X12136Y16036D01*
X11870Y16214D01*
Y16693D01*
X11844D01*
X11765Y16811D01*
X11666Y17050D01*
X11640Y17112D01*
X11339Y17237D01*
X11100Y17138D01*
X11037Y17112D01*
X10912Y16811D01*
X10834Y16693D01*
X10728D01*
Y15709D01*
X10728D01*
Y15472D01*
X10728D01*
Y14488D01*
X11111D01*
X11307Y14176D01*
Y13191D01*
X11307Y13191D01*
Y12955D01*
X11307D01*
X11307Y12798D01*
Y11971D01*
X11505D01*
Y10965D01*
X11505Y10965D01*
X11524Y10919D01*
Y10426D01*
X11524Y10426D01*
X11633Y10162D01*
X11980Y9815D01*
X11980Y9815D01*
X12244Y9706D01*
X15200D01*
X19579Y5327D01*
X19579Y5327D01*
X19843Y5218D01*
X19843Y5218D01*
X23218D01*
X23346Y5164D01*
X23648Y5289D01*
X23773Y5591D01*
X23682Y5808D01*
X23852Y6202D01*
X24016D01*
X24016Y6202D01*
X24279Y6311D01*
X24870Y6902D01*
X24870Y6902D01*
X24979Y7165D01*
X24979Y7165D01*
Y8225D01*
X25373Y8388D01*
X25521Y8240D01*
X25649Y7932D01*
X25872Y7839D01*
X25874Y7838D01*
X26081Y7651D01*
X26165Y7406D01*
Y6890D01*
Y3346D01*
X26165Y3346D01*
X26227Y3196D01*
X26227Y3196D01*
X28045Y1378D01*
X27882Y984D01*
X15076D01*
X14813Y1378D01*
X15058Y1969D01*
X14684Y2872D01*
X13780Y3247D01*
X12876Y2872D01*
X12501Y1969D01*
X12746Y1378D01*
X12483Y984D01*
X984D01*
Y30199D01*
X1378Y30462D01*
X1969Y30218D01*
X2872Y30592D01*
X3247Y31496D01*
X3002Y32087D01*
X3265Y32480D01*
X19372D01*
X19635Y32087D01*
D02*
G37*
G36*
X36063Y23038D02*
X35669Y22960D01*
X35580Y23175D01*
X35325Y23281D01*
Y22723D01*
X34931D01*
Y23281D01*
X34676Y23175D01*
X34580Y23175D01*
X34128Y23362D01*
X33676Y23175D01*
X33580Y23175D01*
X33128Y23362D01*
X32676Y23175D01*
X32489Y22723D01*
X32499Y22697D01*
X31574Y21772D01*
X30503D01*
X30424Y22165D01*
X30680Y22271D01*
X30786Y22526D01*
X30228D01*
Y22723D01*
X30031D01*
Y23281D01*
X29776Y23175D01*
X29680Y23175D01*
X29228Y23362D01*
X28776Y23175D01*
X28680Y23175D01*
X28228Y23362D01*
X27776Y23175D01*
X27589Y22723D01*
X27776Y22271D01*
X27855Y22238D01*
Y21772D01*
X27335D01*
X27073Y22034D01*
X26772Y22158D01*
X25909D01*
X25663Y22526D01*
X25078D01*
Y22723D01*
X24881D01*
Y23281D01*
X24626Y23175D01*
X24530Y23175D01*
X24078Y23362D01*
X23626Y23175D01*
X23530Y23175D01*
X23078Y23362D01*
X22626Y23175D01*
X22529Y23156D01*
X22165Y23464D01*
Y24685D01*
Y31890D01*
X36063D01*
Y23038D01*
D02*
G37*
G36*
X15388Y21341D02*
X15721Y21191D01*
X15746Y20983D01*
X15811Y20826D01*
X15746Y20668D01*
X15811Y20511D01*
X15790Y20461D01*
X15512Y20151D01*
X15273Y20052D01*
X15210Y20026D01*
X15086Y19724D01*
X15210Y19423D01*
X15512Y19298D01*
X15790Y18987D01*
X15811Y18936D01*
X15746Y18778D01*
X15811Y18621D01*
X15746Y18463D01*
X15721Y18256D01*
X15388Y18105D01*
X15230Y18040D01*
X15073Y18105D01*
X14763Y18402D01*
Y18547D01*
X14849Y18756D01*
X14875Y18819D01*
X14750Y19120D01*
X14449Y19245D01*
X14328Y19195D01*
X13942Y19429D01*
Y19921D01*
X13848Y20147D01*
X13867Y20243D01*
X13884Y20250D01*
X13968Y20453D01*
X13583D01*
Y20650D01*
X14069D01*
X14134Y20755D01*
X14248Y20802D01*
X14435Y20880D01*
X14560Y21181D01*
X14896Y21398D01*
X14915Y21406D01*
X15073Y21341D01*
X15230Y21406D01*
X15388Y21341D01*
D02*
G37*
G36*
X22426Y18110D02*
X22720Y18232D01*
X23107Y18138D01*
Y18121D01*
X23580D01*
Y18613D01*
X23776D01*
Y18121D01*
X24249D01*
X24352Y17770D01*
Y17480D01*
X24352Y17480D01*
X24461Y17217D01*
X25051Y16626D01*
X25051Y16626D01*
X25315Y16517D01*
X25315Y16517D01*
X26406D01*
X26406Y16517D01*
X26670Y16626D01*
X26730Y16686D01*
X27118Y16517D01*
X27193Y16336D01*
X27218Y16273D01*
X27421Y16189D01*
Y16575D01*
X27618D01*
Y16083D01*
X27618D01*
X27802Y15960D01*
Y14785D01*
X27409Y14707D01*
X27281Y15014D01*
X26988Y15135D01*
Y14622D01*
X26890D01*
Y14524D01*
X26377D01*
X26432Y14389D01*
X26219Y13995D01*
X26024D01*
X25760Y13886D01*
X25760Y13886D01*
X25000Y13126D01*
X24343Y12468D01*
X24233Y12205D01*
X24233Y12205D01*
Y7320D01*
X23861Y6948D01*
X21808D01*
X21200Y7556D01*
Y10276D01*
X21200Y10276D01*
X21090Y10539D01*
X21090Y10539D01*
X20143Y11487D01*
X19918Y11580D01*
X19902Y11623D01*
X20106Y11975D01*
X20135Y12000D01*
X20410D01*
X20774Y11910D01*
X20936Y11519D01*
X21328Y11356D01*
X21457Y11410D01*
D01*
X21720Y11519D01*
X21936Y11519D01*
X22230Y11397D01*
Y11910D01*
Y12424D01*
X21936Y12302D01*
X21805Y12302D01*
X21720D01*
X21328Y12464D01*
X21309Y12457D01*
X21129Y12637D01*
X20865Y12746D01*
X20865Y12746D01*
X20038D01*
X19924Y12973D01*
X19993Y13111D01*
X20099Y13200D01*
X20384D01*
X20384Y13200D01*
X20648Y13310D01*
X21457Y14118D01*
D01*
X21592Y14253D01*
X21592Y14253D01*
X21701Y14517D01*
X21993Y14761D01*
X22095Y14816D01*
X22230Y14760D01*
Y15273D01*
Y15786D01*
X21936Y15665D01*
X21805Y15665D01*
X21720D01*
X21328Y15827D01*
X20936Y15665D01*
X20774Y15273D01*
X20936Y14882D01*
X20797Y14513D01*
X20230Y13946D01*
X19621D01*
X19530Y14302D01*
X19530Y14538D01*
Y15444D01*
X19411D01*
Y16876D01*
X20594Y18059D01*
X20936Y18232D01*
X21328Y18069D01*
X21457Y18123D01*
D01*
X21720Y18232D01*
X21936Y18232D01*
X22230Y18110D01*
Y18623D01*
X22426D01*
Y18110D01*
D02*
G37*
G36*
X20407Y23502D02*
Y23049D01*
X20407Y22891D01*
X20407D01*
Y22655D01*
X20407D01*
Y21671D01*
X21549D01*
Y21737D01*
X22518D01*
X22819Y21862D01*
X23052Y22095D01*
X23078Y22084D01*
X23347Y22196D01*
X23764Y22081D01*
X23814Y22040D01*
X24423Y21431D01*
X24724Y21306D01*
X26595D01*
X27212Y20689D01*
X27061Y20326D01*
X26707D01*
Y20183D01*
X26499Y20097D01*
X26499Y20097D01*
X26114Y19712D01*
X26005Y19449D01*
X26005Y19449D01*
Y19341D01*
X25952Y19213D01*
X26077Y18911D01*
X26139Y18885D01*
X26378Y18786D01*
X26693Y18509D01*
X26707Y18121D01*
X26716Y17727D01*
X26252Y17263D01*
X25469D01*
X25097Y17635D01*
Y19961D01*
X25097Y19961D01*
X24988Y20224D01*
X24988Y20224D01*
X24004Y21209D01*
X23740Y21318D01*
X23740Y21318D01*
X21772D01*
X21772Y21318D01*
X21508Y21209D01*
X19086Y18786D01*
X18709Y18967D01*
Y19143D01*
X18178D01*
Y19340D01*
X18709D01*
Y19655D01*
X18709Y19655D01*
Y19891D01*
X18709D01*
X18709Y20049D01*
Y20718D01*
X17646D01*
Y20457D01*
X17253Y20402D01*
X16998Y20668D01*
X16933Y20826D01*
X16998Y20983D01*
X16933Y21141D01*
X16998Y21298D01*
X16899Y21539D01*
X16657Y21639D01*
X16407D01*
X16082Y21677D01*
X16044Y22003D01*
Y22253D01*
X15944Y22494D01*
X15703Y22594D01*
X15545Y22528D01*
X15388Y22594D01*
X15230Y22528D01*
X15073Y22594D01*
X14915Y22528D01*
X14758Y22594D01*
X14600Y22528D01*
X14443Y22594D01*
X14133Y22890D01*
Y24021D01*
X14370Y24180D01*
X14671Y24305D01*
X14796Y24606D01*
X14790Y24622D01*
X15014Y24891D01*
X15079Y24928D01*
X15336Y25035D01*
X18875D01*
X20407Y23502D01*
D02*
G37*
G36*
X35433Y17315D02*
X35433Y17200D01*
X35104Y16932D01*
X34884Y16935D01*
X34724Y17001D01*
X34516Y17341D01*
Y18735D01*
X34516Y18988D01*
X34760Y19102D01*
X34996D01*
Y19102D01*
X35433D01*
Y17315D01*
D02*
G37*
G36*
X35630Y11457D02*
Y10472D01*
Y1575D01*
X35433Y1378D01*
X34853D01*
X34634Y1705D01*
X34743Y1969D01*
X34369Y2872D01*
X33465Y3247D01*
X32561Y2872D01*
X32186Y1969D01*
X32295Y1705D01*
X32076Y1378D01*
X28346D01*
X26378Y3346D01*
Y6890D01*
Y7530D01*
X26631Y7699D01*
Y8323D01*
Y8948D01*
X26378Y9117D01*
Y12402D01*
X30014D01*
X30253Y12008D01*
X30211Y11908D01*
X31228D01*
X32245D01*
X32203Y12008D01*
X32442Y12402D01*
X34685D01*
X35630Y11457D01*
D02*
G37*
%LPC*%
G36*
X8120Y28727D02*
X7726D01*
Y28407D01*
X8440D01*
X8346Y28633D01*
X8120Y28727D01*
D02*
G37*
G36*
X7530D02*
X7136D01*
X6910Y28633D01*
X6816Y28407D01*
X7530D01*
Y28727D01*
D02*
G37*
G36*
X20120D02*
X19136D01*
X18910Y28633D01*
X18816Y28407D01*
Y28211D01*
X18910Y27985D01*
X19136Y27891D01*
X20120D01*
X20346Y27985D01*
X20440Y28211D01*
Y28407D01*
X20346Y28633D01*
X20120Y28727D01*
D02*
G37*
G36*
X11720D02*
X10736D01*
X10510Y28633D01*
X10416Y28407D01*
Y28211D01*
X10510Y27985D01*
X10736Y27891D01*
X11720D01*
X11946Y27985D01*
X12040Y28211D01*
Y28407D01*
X11946Y28633D01*
X11720Y28727D01*
D02*
G37*
G36*
X8440Y28211D02*
X7726D01*
Y27891D01*
X8120D01*
X8346Y27985D01*
X8440Y28211D01*
D02*
G37*
G36*
X7530D02*
X6816D01*
X6910Y27985D01*
X7136Y27891D01*
X7530D01*
Y28211D01*
D02*
G37*
G36*
X20120Y26955D02*
X19726D01*
Y26636D01*
X20440D01*
Y26636D01*
X20346Y26862D01*
X20120Y26955D01*
D02*
G37*
G36*
X19530D02*
X19136D01*
X18910Y26862D01*
X18816Y26636D01*
Y26636D01*
X19530D01*
Y26955D01*
D02*
G37*
G36*
X20440Y26439D02*
X19726D01*
Y26119D01*
X20120D01*
X20346Y26213D01*
X20440Y26439D01*
D02*
G37*
G36*
X19530D02*
X18816D01*
X18910Y26213D01*
X19136Y26119D01*
X19530D01*
Y26439D01*
D02*
G37*
G36*
X16520Y26955D02*
X15536D01*
X15310Y26862D01*
X15216Y26636D01*
Y26439D01*
X15310Y26213D01*
X15536Y26119D01*
X16520D01*
X16746Y26213D01*
X16840Y26439D01*
Y26636D01*
X16746Y26862D01*
X16520Y26955D01*
D02*
G37*
G36*
X8120D02*
X7136D01*
X6910Y26862D01*
X6816Y26636D01*
Y26439D01*
X6910Y26213D01*
X7136Y26119D01*
X8120D01*
X8346Y26213D01*
X8440Y26439D01*
Y26636D01*
X8346Y26862D01*
X8120Y26955D01*
D02*
G37*
G36*
X7959Y20393D02*
X7526D01*
Y20078D01*
X7959D01*
Y20393D01*
D02*
G37*
G36*
X7330D02*
X6896D01*
Y20078D01*
X7330D01*
Y20393D01*
D02*
G37*
G36*
X7909Y19368D02*
X7476D01*
Y19053D01*
X7909D01*
Y19368D01*
D02*
G37*
G36*
X7280D02*
X6846D01*
Y19053D01*
X7280D01*
Y19368D01*
D02*
G37*
G36*
X13495Y9268D02*
Y8899D01*
X13738D01*
Y8968D01*
X13638Y9209D01*
X13520Y9258D01*
X13495Y9268D01*
D02*
G37*
G36*
X13738Y8702D02*
X13495D01*
Y8333D01*
X13638Y8392D01*
X13738Y8633D01*
Y8702D01*
D02*
G37*
G36*
X5928Y11312D02*
X5476Y11125D01*
X5289Y10673D01*
X5476Y10221D01*
X5608Y10166D01*
Y7537D01*
X5702Y7311D01*
X7687Y5325D01*
X7913Y5232D01*
X12126D01*
X12352Y5325D01*
X13123Y6096D01*
X13217Y6322D01*
Y8172D01*
X13299Y8226D01*
Y8800D01*
Y9271D01*
X13147Y9212D01*
X12897Y9309D01*
X12897Y9309D01*
X12897Y9309D01*
X12647Y9212D01*
X12397Y9309D01*
X12397Y9309D01*
X12397Y9309D01*
X12147Y9212D01*
X11897Y9309D01*
X11897Y9309D01*
X11656Y9209D01*
X11556Y8968D01*
Y8633D01*
X11577Y8582D01*
Y8231D01*
X11546Y8218D01*
X11409Y7887D01*
X11546Y7555D01*
X11546Y7391D01*
X11423Y7092D01*
X11409Y7060D01*
X11546Y6728D01*
X11878Y6591D01*
X11891Y6597D01*
X12345Y6358D01*
X12369Y6246D01*
X11994Y5871D01*
X8046D01*
X6248Y7669D01*
Y10166D01*
X6380Y10221D01*
X6567Y10673D01*
X6380Y11125D01*
X5928Y11312D01*
D02*
G37*
G36*
X6026Y3004D02*
Y2504D01*
X6526D01*
X6380Y2858D01*
X6026Y3004D01*
D02*
G37*
G36*
X5830D02*
X5476Y2858D01*
X5330Y2504D01*
X5830D01*
Y3004D01*
D02*
G37*
G36*
X6526Y2307D02*
X6026D01*
Y1807D01*
X6380Y1954D01*
X6526Y2307D01*
D02*
G37*
G36*
X5830D02*
X5330D01*
X5476Y1954D01*
X5830Y1807D01*
Y2307D01*
D02*
G37*
G36*
X30425Y23281D02*
Y22920D01*
X30786D01*
X30680Y23175D01*
X30425Y23281D01*
D02*
G37*
G36*
X25275D02*
Y22920D01*
X25636D01*
X25530Y23175D01*
X25275Y23281D01*
D02*
G37*
G36*
X22426Y15786D02*
Y15372D01*
X22841D01*
X22720Y15665D01*
X22426Y15786D01*
D02*
G37*
G36*
X22841Y15175D02*
X22426D01*
Y14760D01*
X22720Y14882D01*
X22841Y15175D01*
D02*
G37*
G36*
X26791Y15135D02*
X26498Y15014D01*
X26377Y14720D01*
X26791D01*
Y15135D01*
D02*
G37*
G36*
X22426Y12424D02*
Y12009D01*
X22841D01*
X22720Y12302D01*
X22426Y12424D01*
D02*
G37*
G36*
X22841Y11812D02*
X22426D01*
Y11397D01*
X22720Y11519D01*
X22841Y11812D01*
D02*
G37*
G36*
X23278Y8877D02*
X22886Y8715D01*
X22882Y8715D01*
X22589Y8836D01*
Y8323D01*
Y7810D01*
X22882Y7932D01*
X22886Y7932D01*
X23278Y7769D01*
X23670Y7932D01*
X23832Y8323D01*
X23670Y8715D01*
X23278Y8877D01*
D02*
G37*
G36*
X22392Y8836D02*
X22099Y8715D01*
X21977Y8422D01*
X22392D01*
Y8836D01*
D02*
G37*
G36*
Y8225D02*
X21977D01*
X22099Y7932D01*
X22392Y7810D01*
Y8225D01*
D02*
G37*
G36*
X32245Y11514D02*
X31425D01*
Y11088D01*
X31818D01*
X32120Y11213D01*
X32245Y11514D01*
Y11514D01*
D02*
G37*
G36*
X31031D02*
X30211D01*
Y11514D01*
X30336Y11213D01*
X30637Y11088D01*
X31031D01*
Y11514D01*
D02*
G37*
G36*
X27025Y8796D02*
Y8520D01*
X27300D01*
X27220Y8715D01*
X27025Y8796D01*
D02*
G37*
G36*
X27300Y8126D02*
X27025D01*
Y7851D01*
X27220Y7932D01*
X27300Y8126D01*
D02*
G37*
%LPD*%
D10*
X23678Y18613D02*
D03*
Y19833D02*
D03*
X20978Y23383D02*
D03*
Y22163D02*
D03*
X33128Y18613D02*
D03*
Y19833D02*
D03*
X27278Y18613D02*
D03*
Y19833D02*
D03*
X11299Y16201D02*
D03*
Y14980D02*
D03*
X11878Y13683D02*
D03*
Y12463D02*
D03*
D11*
X35488Y19673D02*
D03*
X34268D02*
D03*
X30088Y19755D02*
D03*
X28868D02*
D03*
X17818Y14873D02*
D03*
X19038D02*
D03*
X17818Y13573D02*
D03*
X19038D02*
D03*
X17818Y12373D02*
D03*
X19038D02*
D03*
X17818Y11223D02*
D03*
X19038D02*
D03*
X13988Y12523D02*
D03*
X12768D02*
D03*
D12*
X11228Y28309D02*
D03*
Y26537D02*
D03*
X7628Y28309D02*
D03*
Y26537D02*
D03*
X16028D02*
D03*
Y28309D02*
D03*
X19628Y26537D02*
D03*
Y28309D02*
D03*
D13*
X12553Y21967D02*
D03*
X12868D02*
D03*
X13183D02*
D03*
X13498D02*
D03*
X13813D02*
D03*
X14128D02*
D03*
X14443D02*
D03*
X14758D02*
D03*
X15073D02*
D03*
X15388D02*
D03*
X15703D02*
D03*
X15703Y17479D02*
D03*
X15388Y17479D02*
D03*
X15073D02*
D03*
X14758Y17479D02*
D03*
X14443D02*
D03*
X14128D02*
D03*
X13813D02*
D03*
X13498D02*
D03*
X13183D02*
D03*
X12868D02*
D03*
X12553D02*
D03*
D14*
X16372Y21298D02*
D03*
Y20983D02*
D03*
Y20668D02*
D03*
Y20353D02*
D03*
Y20038D02*
D03*
Y19723D02*
D03*
Y19408D02*
D03*
Y19093D02*
D03*
Y18778D02*
D03*
Y18463D02*
D03*
Y18148D02*
D03*
X11884D02*
D03*
Y18463D02*
D03*
Y18778D02*
D03*
Y19093D02*
D03*
Y19408D02*
D03*
Y19723D02*
D03*
Y20038D02*
D03*
Y20353D02*
D03*
X11884Y20668D02*
D03*
Y20983D02*
D03*
X11884Y21298D02*
D03*
D15*
X7378Y17892D02*
D03*
Y18955D02*
D03*
X7428Y21555D02*
D03*
Y20492D02*
D03*
X18178Y20305D02*
D03*
Y19242D02*
D03*
D16*
X12796Y15052D02*
D03*
X13859D02*
D03*
D17*
X11897Y8800D02*
D03*
X12397D02*
D03*
X12897D02*
D03*
X13397D02*
D03*
X11897Y10946D02*
D03*
X12397D02*
D03*
X12897D02*
D03*
X13397D02*
D03*
D18*
X31228Y12911D02*
D03*
Y11711D02*
D03*
Y14073D02*
D03*
Y15273D02*
D03*
D19*
X14411Y10946D02*
X15073Y11608D01*
X14443Y21502D02*
X14764Y21181D01*
X14443Y21502D02*
Y21967D01*
X15591Y19055D02*
X15944Y19408D01*
X16372D01*
X15512Y20354D02*
X15828Y20038D01*
X16372D01*
X14128Y21187D02*
X14134Y21181D01*
X14128Y21187D02*
Y21967D01*
X11884Y19723D02*
X12521D01*
X12992Y19252D01*
X13346Y18346D02*
X13543D01*
X13813Y17479D02*
Y18077D01*
X13543Y18346D02*
X13813Y18077D01*
X15513Y19723D02*
X16372D01*
X15512Y19724D02*
X15513Y19723D01*
X14443Y18813D02*
X14449Y18819D01*
X14443Y17479D02*
Y18813D01*
X11884Y20038D02*
X12913D01*
X12913Y19921D02*
X12913Y19921D01*
Y20038D01*
X12913Y20038D02*
X12913Y20038D01*
X13163Y17459D02*
X13183Y17479D01*
X13163Y16589D02*
Y17459D01*
X13110Y16535D02*
X13163Y16589D01*
X11299Y16201D02*
X11339Y16240D01*
Y16811D01*
X12835Y18425D02*
X13622Y19213D01*
Y19921D01*
X13190Y20353D02*
X13622Y19921D01*
X11884Y20353D02*
X13190D01*
X12868Y21967D02*
X12888Y21987D01*
Y22375D01*
X12894Y22381D01*
Y24980D01*
X12913Y25000D01*
X15079Y25354D02*
X19007D01*
X20978Y23383D01*
X16372Y20038D02*
X17911D01*
X18178Y20305D01*
X16372Y19723D02*
X17696D01*
X18178Y19242D01*
X13498Y21967D02*
Y23504D01*
X13307Y23695D02*
X13498Y23504D01*
X13307Y23695D02*
Y24134D01*
X14758Y14837D02*
Y17479D01*
X15073Y11608D02*
Y17479D01*
X15388Y15951D02*
X16465Y14873D01*
X15388Y15951D02*
Y17479D01*
X14173Y14252D02*
X14758Y14837D01*
X14266Y15459D02*
X14443Y15636D01*
X10709Y15591D02*
X12165D01*
X10394Y15276D02*
X10709Y15591D01*
X10394Y10236D02*
Y15276D01*
Y10236D02*
X10984Y9646D01*
X13071D01*
X13397Y9320D01*
Y8800D02*
Y9320D01*
X5928Y7537D02*
Y10673D01*
Y7537D02*
X7913Y5551D01*
X12126D01*
X12897Y6322D01*
Y8800D01*
X10038Y18778D02*
X11884D01*
X7878Y16618D02*
X10038Y18778D01*
X7878Y15623D02*
Y16618D01*
X10589Y18463D02*
X11884D01*
X8878Y16752D02*
X10589Y18463D01*
X8878Y15623D02*
Y16752D01*
X14128Y16530D02*
Y17479D01*
X13661Y16063D02*
X14128Y16530D01*
X15748Y11850D02*
X16375Y11223D01*
X16372Y19093D02*
X17403D01*
X17677Y18819D01*
Y17008D02*
Y18819D01*
X17402Y16732D02*
X17677Y17008D01*
X15748Y11811D02*
Y11850D01*
X16375Y11223D02*
X17818D01*
X16372Y15754D02*
Y18148D01*
Y15754D02*
X16614Y15512D01*
X15866Y13032D02*
Y13661D01*
Y13032D02*
X16524Y12373D01*
X17818D01*
X13988Y12523D02*
X14024Y12559D01*
X14567D01*
X15703Y16817D02*
Y17479D01*
Y16817D02*
X15827Y16693D01*
X15787Y14685D02*
X16899Y13573D01*
X17818D01*
X16465Y14873D02*
X17818D01*
X11878Y13683D02*
X14624D01*
X15000Y13307D01*
X13397Y10946D02*
X14411D01*
X13988Y12020D02*
Y12523D01*
X13661Y11693D02*
X13988Y12020D01*
X13189Y11693D02*
X13661D01*
X12897Y11401D02*
X13189Y11693D01*
X12897Y10946D02*
Y11401D01*
X11878Y7887D02*
X11897Y7906D01*
Y8800D01*
X11878Y7060D02*
Y7123D01*
X12409Y7654D01*
Y8788D01*
X12397Y8800D02*
X12409Y8788D01*
X5928Y2406D02*
X11067D01*
X13397Y4736D01*
Y8800D01*
X11228Y26537D02*
X13069D01*
X13813Y25793D01*
Y21967D02*
Y25793D01*
X10946Y19723D02*
X11884D01*
X10354Y20315D02*
X10946Y19723D01*
X10354Y20315D02*
Y21811D01*
X8819Y23346D02*
X10354Y21811D01*
X5866Y23346D02*
X8819D01*
X4921Y22402D02*
X5866Y23346D01*
X4921Y20512D02*
Y22402D01*
Y20512D02*
X5685Y19748D01*
X7428D01*
X8096Y17892D02*
X9078Y18873D01*
X7378Y17892D02*
X8096D01*
X8318Y21555D02*
X9078Y20794D01*
X7428Y21555D02*
X8318D01*
X10464Y19408D02*
X11884D01*
X9078Y20794D02*
X10464Y19408D01*
X9408Y19093D02*
X11884D01*
X9188Y18873D02*
X9408Y19093D01*
X9078Y18873D02*
X9188D01*
X14443Y15636D02*
Y17479D01*
X11299Y14980D02*
X12724D01*
X12757Y15013D01*
X12756Y14095D02*
X12757Y14093D01*
X12756Y14095D02*
Y14134D01*
X12756Y13150D02*
X12768Y13138D01*
Y12523D02*
Y13138D01*
X12757Y14093D02*
Y15013D01*
X14128Y17479D02*
Y18555D01*
X14035Y18648D02*
X14128Y18555D01*
X14035Y18648D02*
Y19547D01*
X14173Y19685D01*
D20*
X18178Y19242D02*
X18268Y19152D01*
Y18622D02*
Y19152D01*
X21772Y22795D02*
Y25591D01*
X20825Y26537D02*
X21772Y25591D01*
X19628Y26537D02*
X20825D01*
X33928Y18613D02*
X34055Y18740D01*
X33128Y18613D02*
X33928D01*
X34724Y16575D02*
X35488Y17339D01*
Y19673D01*
X28868Y19755D02*
X28898Y19725D01*
Y18583D02*
Y19725D01*
X26378Y19213D02*
Y19449D01*
X26763Y19833D01*
X27278D01*
X30088Y19755D02*
X30118Y19725D01*
Y18661D02*
Y19725D01*
X27283Y16339D02*
X27520Y16575D01*
X24646Y16339D02*
X27283D01*
X23678Y17306D02*
X24646Y16339D01*
X23678Y17306D02*
Y18613D01*
X16890Y16181D02*
X17362Y15709D01*
X17953D01*
X18465Y16220D01*
Y17638D01*
X21772Y20945D01*
X23740D01*
X24724Y19961D01*
Y17480D02*
Y19961D01*
Y17480D02*
X25315Y16890D01*
X26406D01*
X27278Y17761D01*
X14370Y24606D02*
Y27835D01*
X14844Y28309D01*
X16028D01*
X19843Y5591D02*
X23346D01*
X15354Y10079D02*
X19843Y5591D01*
X12244Y10079D02*
X15354D01*
X11897Y10426D02*
X12244Y10079D01*
X11897Y10426D02*
Y10946D01*
X13110Y16063D02*
X13661D01*
X12796Y15749D02*
X13110Y16063D01*
X12796Y15052D02*
Y15749D01*
X33128Y19833D02*
X33288Y19673D01*
X34268D01*
X28228Y21260D02*
Y22723D01*
Y21260D02*
X28868Y20620D01*
Y19755D02*
Y20620D01*
X12757Y15013D02*
X12796Y15052D01*
X11878Y10965D02*
X11897Y10946D01*
X11878Y10965D02*
Y12463D01*
X12707D02*
X12768Y12523D01*
X11878Y12463D02*
X12707D01*
X27278Y17761D02*
Y18613D01*
X24606Y12205D02*
X26024Y13622D01*
X24606Y7165D02*
Y12205D01*
X24016Y6575D02*
X24606Y7165D01*
X21654Y6575D02*
X24016D01*
X20827Y7402D02*
X21654Y6575D01*
X20827Y7402D02*
Y10276D01*
X19879Y11223D02*
X20827Y10276D01*
X19038Y11223D02*
X19879D01*
X20631Y18623D02*
X21328D01*
X19038Y17030D02*
X20631Y18623D01*
X19038Y14873D02*
Y17030D01*
X21328Y14517D02*
Y15273D01*
X20384Y13573D02*
X21328Y14517D01*
X19038Y13573D02*
X20384D01*
X20865Y12373D02*
X21328Y11910D01*
X19038Y12373D02*
X20865D01*
X26024Y13622D02*
X26890D01*
D21*
X22874Y20236D02*
X23277Y19833D01*
X23678D01*
X25315Y9049D02*
Y11732D01*
Y9049D02*
X26041Y8323D01*
X33019Y19724D02*
X33128Y19833D01*
X32362Y19724D02*
X33019D01*
X31811Y21339D02*
Y21406D01*
X33128Y22723D01*
X29228Y22189D02*
Y22723D01*
Y22189D02*
X30984Y20433D01*
Y15866D02*
Y20433D01*
Y15866D02*
X31228Y15622D01*
Y15273D02*
Y15622D01*
X34128Y21844D02*
Y22723D01*
X33740Y21457D02*
X34128Y21844D01*
X32835Y21457D02*
X33740D01*
X31732Y20354D02*
X32835Y21457D01*
X31732Y18701D02*
Y20354D01*
Y18701D02*
X33819Y16614D01*
Y14606D02*
Y16614D01*
X33286Y14073D02*
X33819Y14606D01*
X31228Y14073D02*
X33286D01*
X24078Y22379D02*
Y22723D01*
Y22379D02*
X24724Y21732D01*
X26772D01*
X28228Y20276D01*
Y14488D02*
Y20276D01*
Y14488D02*
X29806Y12911D01*
X31228D01*
X22518Y22163D02*
X23078Y22723D01*
X20978Y22163D02*
X22518D01*
X7428Y19748D02*
Y20492D01*
Y19005D02*
Y19748D01*
X7378Y18955D02*
X7428Y19005D01*
D22*
X25078Y22723D02*
D03*
X24078D02*
D03*
X23078D02*
D03*
X35128D02*
D03*
X34128D02*
D03*
X33128D02*
D03*
X30228D02*
D03*
X29228D02*
D03*
X28228D02*
D03*
X5928Y2406D02*
D03*
Y10673D02*
D03*
D23*
X26890Y13622D02*
D03*
Y14622D02*
D03*
X9078Y18873D02*
D03*
Y20794D02*
D03*
X21328Y11910D02*
D03*
X22328D02*
D03*
X21328Y15273D02*
D03*
X22328D02*
D03*
X21328Y18623D02*
D03*
X22328D02*
D03*
X26828Y8323D02*
D03*
X26041D02*
D03*
X23278D02*
D03*
X22491D02*
D03*
D24*
X8878Y15623D02*
D03*
X7878D02*
D03*
D25*
X11878Y7887D02*
D03*
Y7060D02*
D03*
D26*
X1969Y31496D02*
D03*
X20669D02*
D03*
X13780Y1969D02*
D03*
X33465D02*
D03*
D27*
X18268Y18622D02*
D03*
X21772Y22795D02*
D03*
X14134Y21181D02*
D03*
X12992Y19252D02*
D03*
X13346Y18346D02*
D03*
X15512Y19724D02*
D03*
X14449Y18819D02*
D03*
X13583Y20551D02*
D03*
X12913Y19921D02*
D03*
X34055Y18740D02*
D03*
X34724Y16575D02*
D03*
X28898Y18583D02*
D03*
X26378Y19213D02*
D03*
X22874Y20236D02*
D03*
X30118Y18661D02*
D03*
X27520Y16575D02*
D03*
X13110Y16535D02*
D03*
X16890Y16181D02*
D03*
X25315Y11732D02*
D03*
X32362Y19724D02*
D03*
X31811Y21339D02*
D03*
X11339Y16811D02*
D03*
X12835Y18425D02*
D03*
X12913Y25000D02*
D03*
X15079Y25354D02*
D03*
X13307Y24134D02*
D03*
X14370Y24606D02*
D03*
X23346Y5591D02*
D03*
X14213Y15394D02*
D03*
X12165Y15591D02*
D03*
X17402Y16732D02*
D03*
X15748Y11811D02*
D03*
X16614Y15512D02*
D03*
X15866Y13661D02*
D03*
X14567Y12559D02*
D03*
X14173Y14252D02*
D03*
X15827Y16693D02*
D03*
X15787Y14685D02*
D03*
X12756Y14134D02*
D03*
X12756Y13150D02*
D03*
M02*
