G04 Layer_Physical_Order=2*
G04 Layer_Color=16711680*
%FSLAX24Y24*%
%MOIN*%
G70*
G01*
G75*
%ADD19C,0.0197*%
%ADD20C,0.0295*%
%ADD21C,0.0394*%
%ADD22C,0.0787*%
%ADD23C,0.0630*%
%ADD24C,0.0866*%
%ADD25C,0.0472*%
%ADD26C,0.1969*%
%ADD27C,0.0394*%
D19*
X14449Y18819D02*
Y20866D01*
X14134Y21181D02*
X14449Y20866D01*
X12992Y19252D02*
X13425Y18819D01*
X14449D01*
X15354Y19724D02*
X15512D01*
X14449Y18819D02*
X15354Y19724D01*
X13504Y20551D02*
X13583D01*
X12913Y19961D02*
X13504Y20551D01*
X12913Y19921D02*
Y19961D01*
X11339Y16811D02*
Y16929D01*
X12835Y18425D01*
X12913Y25000D02*
Y25039D01*
X13228Y25354D01*
X15079D01*
X14213Y15394D02*
Y15512D01*
X14134Y15591D02*
X14213Y15512D01*
X12165Y15591D02*
X14134D01*
X17402Y13465D02*
Y16732D01*
X15748Y11811D02*
X17402Y13465D01*
X16614Y14409D02*
Y15512D01*
X15866Y13661D02*
X16614Y14409D01*
X14370Y12559D02*
X14567D01*
X14173Y12756D02*
X14370Y12559D01*
X14173Y12756D02*
Y14252D01*
X15748Y16693D02*
X15866Y16575D01*
Y14685D02*
Y16575D01*
X15748Y16693D02*
X15827D01*
X15787Y14685D02*
X15866D01*
X12756Y13150D02*
Y14134D01*
Y13150D02*
X12756Y13150D01*
D20*
X18268Y18622D02*
Y18858D01*
X18740Y19331D01*
X21620D01*
X22328Y18623D01*
Y19562D01*
X21772Y20118D02*
X22328Y19562D01*
X21772Y20118D02*
Y22795D01*
X13346Y18346D02*
X14016D01*
X14803Y17559D01*
X15454D01*
X15464Y17569D01*
X15522D01*
X17244Y19291D01*
Y21575D01*
X19882Y24213D01*
X30394D01*
X34055Y20551D01*
Y18740D02*
Y20551D01*
X28425Y16575D02*
X34724D01*
X28268Y19213D02*
X28898Y18583D01*
X26378Y19213D02*
X28268D01*
X30118Y18268D02*
Y18661D01*
X28425Y16575D02*
X30118Y18268D01*
X27520Y16575D02*
X28425D01*
X13110Y16535D02*
X13346Y16299D01*
X14779D01*
X15635Y17155D01*
X16018D01*
X16289Y16884D01*
Y16782D02*
Y16884D01*
Y16782D02*
X16890Y16181D01*
X13307Y24134D02*
X13898D01*
X14370Y24606D01*
X23278Y8323D02*
X23346Y8255D01*
Y5591D02*
Y8255D01*
D21*
X23078Y20440D02*
Y22723D01*
X22874Y20236D02*
X23078Y20440D01*
X25276Y11772D02*
X25315Y11732D01*
X25078Y22723D02*
X25276Y22526D01*
Y11772D02*
Y22526D01*
X32362Y19724D02*
Y20787D01*
X31811Y21339D02*
X32362Y20787D01*
D22*
X25078Y22723D02*
D03*
X24078D02*
D03*
X23078D02*
D03*
X35128D02*
D03*
X34128D02*
D03*
X33128D02*
D03*
X30228D02*
D03*
X29228D02*
D03*
X28228D02*
D03*
X5928Y2406D02*
D03*
Y10673D02*
D03*
D23*
X26890Y13622D02*
D03*
Y14622D02*
D03*
X9078Y18873D02*
D03*
Y20794D02*
D03*
X21328Y11910D02*
D03*
X22328D02*
D03*
X21328Y15273D02*
D03*
X22328D02*
D03*
X21328Y18623D02*
D03*
X22328D02*
D03*
X26828Y8323D02*
D03*
X26041D02*
D03*
X23278D02*
D03*
X22491D02*
D03*
D24*
X8878Y15623D02*
D03*
X7878D02*
D03*
D25*
X11878Y7887D02*
D03*
Y7060D02*
D03*
D26*
X1969Y31496D02*
D03*
X20669D02*
D03*
X13780Y1969D02*
D03*
X33465D02*
D03*
D27*
X18268Y18622D02*
D03*
X21772Y22795D02*
D03*
X14134Y21181D02*
D03*
X12992Y19252D02*
D03*
X13346Y18346D02*
D03*
X15512Y19724D02*
D03*
X14449Y18819D02*
D03*
X13583Y20551D02*
D03*
X12913Y19921D02*
D03*
X34055Y18740D02*
D03*
X34724Y16575D02*
D03*
X28898Y18583D02*
D03*
X26378Y19213D02*
D03*
X22874Y20236D02*
D03*
X30118Y18661D02*
D03*
X27520Y16575D02*
D03*
X13110Y16535D02*
D03*
X16890Y16181D02*
D03*
X25315Y11732D02*
D03*
X32362Y19724D02*
D03*
X31811Y21339D02*
D03*
X11339Y16811D02*
D03*
X12835Y18425D02*
D03*
X12913Y25000D02*
D03*
X15079Y25354D02*
D03*
X13307Y24134D02*
D03*
X14370Y24606D02*
D03*
X23346Y5591D02*
D03*
X14213Y15394D02*
D03*
X12165Y15591D02*
D03*
X17402Y16732D02*
D03*
X15748Y11811D02*
D03*
X16614Y15512D02*
D03*
X15866Y13661D02*
D03*
X14567Y12559D02*
D03*
X14173Y14252D02*
D03*
X15827Y16693D02*
D03*
X15787Y14685D02*
D03*
X12756Y14134D02*
D03*
X12756Y13150D02*
D03*
M02*
