G04 Layer_Color=8421504*
%FSLAX24Y24*%
%MOIN*%
G70*
G01*
G75*
G04:AMPARAMS|DCode=10|XSize=157.5mil|YSize=78.7mil|CornerRadius=19.7mil|HoleSize=0mil|Usage=FLASHONLY|Rotation=180.000|XOffset=0mil|YOffset=0mil|HoleType=Round|Shape=RoundedRectangle|*
%AMROUNDEDRECTD10*
21,1,0.1575,0.0394,0,0,180.0*
21,1,0.1181,0.0787,0,0,180.0*
1,1,0.0394,-0.0591,0.0197*
1,1,0.0394,0.0591,0.0197*
1,1,0.0394,0.0591,-0.0197*
1,1,0.0394,-0.0591,-0.0197*
%
%ADD10ROUNDEDRECTD10*%
%ADD11R,0.0591X0.0748*%
%ADD12R,0.0748X0.0591*%
%ADD13O,0.0236X0.0571*%
%ADD14R,0.0669X0.0433*%
%ADD15R,0.0433X0.0669*%
%ADD16O,0.0807X0.0236*%
%ADD17O,0.0236X0.0807*%
G04:AMPARAMS|DCode=18|XSize=118.1mil|YSize=39.4mil|CornerRadius=9.8mil|HoleSize=0mil|Usage=FLASHONLY|Rotation=180.000|XOffset=0mil|YOffset=0mil|HoleType=Round|Shape=RoundedRectangle|*
%AMROUNDEDRECTD18*
21,1,0.1181,0.0197,0,0,180.0*
21,1,0.0984,0.0394,0,0,180.0*
1,1,0.0197,-0.0492,0.0098*
1,1,0.0197,0.0492,0.0098*
1,1,0.0197,0.0492,-0.0098*
1,1,0.0197,-0.0492,-0.0098*
%
%ADD18ROUNDEDRECTD18*%
D10*
X31228Y15273D02*
D03*
Y14073D02*
D03*
Y11711D02*
D03*
Y12911D02*
D03*
D11*
X12768Y12523D02*
D03*
X13988D02*
D03*
X19038Y11223D02*
D03*
X17818D02*
D03*
X19038Y12373D02*
D03*
X17818D02*
D03*
X19038Y13573D02*
D03*
X17818D02*
D03*
X19038Y14873D02*
D03*
X17818D02*
D03*
X28868Y19755D02*
D03*
X30088D02*
D03*
X34268Y19673D02*
D03*
X35488D02*
D03*
D12*
X11878Y12463D02*
D03*
Y13683D02*
D03*
X11299Y14980D02*
D03*
Y16201D02*
D03*
X27278Y19833D02*
D03*
Y18613D02*
D03*
X33128Y19833D02*
D03*
Y18613D02*
D03*
X20978Y22163D02*
D03*
Y23383D02*
D03*
X23678Y19833D02*
D03*
Y18613D02*
D03*
D13*
X13397Y10946D02*
D03*
X12897D02*
D03*
X12397D02*
D03*
X11897D02*
D03*
X13397Y8800D02*
D03*
X12897D02*
D03*
X12397D02*
D03*
X11897D02*
D03*
D14*
X18178Y19242D02*
D03*
Y20305D02*
D03*
X7428Y20492D02*
D03*
Y21555D02*
D03*
X7378Y18955D02*
D03*
Y17892D02*
D03*
D15*
X13859Y15052D02*
D03*
X12796D02*
D03*
D16*
X11884Y21298D02*
D03*
X11884Y20983D02*
D03*
Y20668D02*
D03*
X11884Y20353D02*
D03*
Y20038D02*
D03*
Y19723D02*
D03*
Y19408D02*
D03*
Y19093D02*
D03*
Y18778D02*
D03*
Y18463D02*
D03*
Y18148D02*
D03*
X16372D02*
D03*
Y18463D02*
D03*
Y18778D02*
D03*
Y19093D02*
D03*
Y19408D02*
D03*
Y19723D02*
D03*
Y20038D02*
D03*
Y20353D02*
D03*
Y20668D02*
D03*
Y20983D02*
D03*
Y21298D02*
D03*
D17*
X12553Y17479D02*
D03*
X12868D02*
D03*
X13183D02*
D03*
X13498D02*
D03*
X13813D02*
D03*
X14128D02*
D03*
X14443D02*
D03*
X14758D02*
D03*
X15073Y17479D02*
D03*
X15388D02*
D03*
X15703Y17479D02*
D03*
X15703Y21967D02*
D03*
X15388D02*
D03*
X15073D02*
D03*
X14758D02*
D03*
X14443D02*
D03*
X14128D02*
D03*
X13813D02*
D03*
X13498D02*
D03*
X13183D02*
D03*
X12868D02*
D03*
X12553D02*
D03*
D18*
X19628Y28309D02*
D03*
Y26537D02*
D03*
X16028Y28309D02*
D03*
Y26537D02*
D03*
X7628D02*
D03*
Y28309D02*
D03*
X11228Y26537D02*
D03*
Y28309D02*
D03*
M02*
