G04 Layer_Color=16711935*
%FSLAX24Y24*%
%MOIN*%
G70*
G01*
G75*
%ADD44C,0.0867*%
%ADD45C,0.0710*%
%ADD46C,0.0946*%
%ADD47C,0.0552*%
%ADD48C,0.2049*%
%ADD49C,0.0474*%
D44*
X25078Y22723D02*
D03*
X24078D02*
D03*
X23078D02*
D03*
X35128D02*
D03*
X34128D02*
D03*
X33128D02*
D03*
X30228D02*
D03*
X29228D02*
D03*
X28228D02*
D03*
X5928Y2406D02*
D03*
Y10673D02*
D03*
D45*
X26890Y13622D02*
D03*
Y14622D02*
D03*
X9078Y18873D02*
D03*
Y20794D02*
D03*
X21328Y11910D02*
D03*
X22328D02*
D03*
X21328Y15273D02*
D03*
X22328D02*
D03*
X21328Y18623D02*
D03*
X22328D02*
D03*
X26828Y8323D02*
D03*
X26041D02*
D03*
X23278D02*
D03*
X22491D02*
D03*
D46*
X8878Y15623D02*
D03*
X7878D02*
D03*
D47*
X11878Y7887D02*
D03*
Y7060D02*
D03*
D48*
X1969Y31496D02*
D03*
X20669D02*
D03*
X13780Y1969D02*
D03*
X33465D02*
D03*
D49*
X18268Y18622D02*
D03*
X21772Y22795D02*
D03*
X14134Y21181D02*
D03*
X12992Y19252D02*
D03*
X13346Y18346D02*
D03*
X15512Y19724D02*
D03*
X14449Y18819D02*
D03*
X13583Y20551D02*
D03*
X12913Y19921D02*
D03*
X34055Y18740D02*
D03*
X34724Y16575D02*
D03*
X28898Y18583D02*
D03*
X26378Y19213D02*
D03*
X22874Y20236D02*
D03*
X30118Y18661D02*
D03*
X27520Y16575D02*
D03*
X13110Y16535D02*
D03*
X16890Y16181D02*
D03*
X25315Y11732D02*
D03*
X32362Y19724D02*
D03*
X31811Y21339D02*
D03*
X11339Y16811D02*
D03*
X12835Y18425D02*
D03*
X12913Y25000D02*
D03*
X15079Y25354D02*
D03*
X13307Y24134D02*
D03*
X14370Y24606D02*
D03*
X23346Y5591D02*
D03*
X14213Y15394D02*
D03*
X12165Y15591D02*
D03*
X17402Y16732D02*
D03*
X15748Y11811D02*
D03*
X16614Y15512D02*
D03*
X15866Y13661D02*
D03*
X14567Y12559D02*
D03*
X14173Y14252D02*
D03*
X15827Y16693D02*
D03*
X15787Y14685D02*
D03*
X12756Y14134D02*
D03*
X12756Y13150D02*
D03*
M02*
