G04 Layer_Physical_Order=1*
G04 Layer_Color=255*
%FSLAX44Y44*%
%MOMM*%
G71*
G01*
G75*
%ADD10R,1.3000X1.0000*%
%ADD11O,0.3000X1.5000*%
%ADD12O,1.5000X0.3000*%
%ADD13R,1.3500X4.6000*%
%ADD14R,10.8000X9.4000*%
%ADD15R,1.4000X1.1000*%
%ADD16R,1.1000X1.4000*%
%ADD17R,1.0000X1.3000*%
%ADD18O,0.5000X1.6000*%
%ADD19R,2.2500X1.0000*%
%ADD20R,2.2500X0.5000*%
%ADD21R,2.9000X2.0000*%
%ADD22C,0.3000*%
%ADD23C,0.5000*%
G04:AMPARAMS|DCode=24|XSize=2mm|YSize=2mm|CornerRadius=0.5mm|HoleSize=0mm|Usage=FLASHONLY|Rotation=180.000|XOffset=0mm|YOffset=0mm|HoleType=Round|Shape=RoundedRectangle|*
%AMROUNDEDRECTD24*
21,1,2.0000,1.0000,0,0,180.0*
21,1,1.0000,2.0000,0,0,180.0*
1,1,1.0000,-0.5000,0.5000*
1,1,1.0000,0.5000,0.5000*
1,1,1.0000,0.5000,-0.5000*
1,1,1.0000,-0.5000,-0.5000*
%
%ADD24ROUNDEDRECTD24*%
%ADD25C,2.5000*%
%ADD26C,1.6000*%
%ADD27C,2.0000*%
%ADD28C,0.6000*%
G36*
X633753Y371126D02*
X633555Y370830D01*
X632000D01*
Y359500D01*
Y348422D01*
D01*
X633431D01*
X633611Y348356D01*
X633900Y348162D01*
X634546Y347395D01*
X634604Y347100D01*
Y346799D01*
X634720Y346520D01*
X634779Y346225D01*
X634946Y345974D01*
X635010Y345821D01*
X635061Y345696D01*
X635274Y345483D01*
X635442Y345233D01*
X636837Y343837D01*
X637579Y343341D01*
X638125Y343115D01*
X639000Y342941D01*
X639000Y342941D01*
X651744D01*
X651934Y342626D01*
X652253Y342413D01*
Y342097D01*
X652441Y341785D01*
Y337294D01*
X651450Y336764D01*
X651364Y336762D01*
X651214Y336661D01*
X650813Y336827D01*
X649500Y337088D01*
X583426D01*
X583088Y337500D01*
X582827Y338813D01*
X582488Y339632D01*
X582242Y340000D01*
X582488Y340368D01*
X582827Y341187D01*
X583088Y342500D01*
X582827Y343812D01*
X582488Y344632D01*
X582242Y345000D01*
X582488Y345368D01*
X582827Y346187D01*
X583088Y347500D01*
X582827Y348813D01*
X582488Y349632D01*
X582242Y350000D01*
X582488Y350368D01*
X582827Y351187D01*
X583088Y352500D01*
X582827Y353813D01*
X582488Y354632D01*
X582242Y355000D01*
X582488Y355368D01*
X582827Y356187D01*
X583088Y357500D01*
X582827Y358812D01*
X582488Y359632D01*
X582242Y360000D01*
X582488Y360368D01*
X582827Y361187D01*
X583088Y362500D01*
X582827Y363813D01*
X582488Y364632D01*
X582242Y365000D01*
X582488Y365368D01*
X582827Y366187D01*
X583088Y367500D01*
X583426Y367912D01*
X606600D01*
X618256Y356256D01*
X619369Y355512D01*
X619670Y355387D01*
Y355310D01*
X619744Y355261D01*
X619922Y355226D01*
Y352500D01*
X620154Y351333D01*
X620455Y350605D01*
X621116Y349616D01*
X622105Y348955D01*
X622833Y348654D01*
X624000Y348422D01*
X627000D01*
D01*
Y359500D01*
Y370830D01*
X624000D01*
X620938Y369561D01*
X620604Y368754D01*
X619378Y368510D01*
X616414Y371474D01*
X616892Y372629D01*
X633753D01*
Y371126D01*
D02*
G37*
G36*
X366506Y328006D02*
X367994Y327011D01*
X369750Y326662D01*
X389514D01*
X390000Y325489D01*
X379648Y315137D01*
X378013Y315298D01*
X377326Y316326D01*
X375341Y317652D01*
X373463Y318025D01*
X362444Y329045D01*
X360955Y330040D01*
X359199Y330389D01*
X317570D01*
X316755Y332357D01*
X314671Y335073D01*
X311955Y337156D01*
X310370Y337813D01*
Y339188D01*
X311956Y339845D01*
X314672Y341928D01*
X316756Y344644D01*
X316937Y345081D01*
X318182Y345329D01*
X320975Y342537D01*
X321348Y340659D01*
X322674Y338674D01*
X324659Y337348D01*
X327000Y336883D01*
X329341Y337348D01*
X331326Y338674D01*
X332652Y340659D01*
X333117Y343000D01*
X332652Y345341D01*
X331326Y347326D01*
X329341Y348652D01*
X327463Y349025D01*
X322044Y354444D01*
X320556Y355439D01*
X318800Y355788D01*
X317571D01*
X316756Y357756D01*
X314672Y360472D01*
X311956Y362556D01*
X310369Y363213D01*
Y364587D01*
X311956Y365244D01*
X314672Y367328D01*
X316756Y370044D01*
X317571Y372012D01*
X322500D01*
X366506Y328006D01*
D02*
G37*
G36*
X867837Y337837D02*
X868829Y337174D01*
X870000Y336941D01*
X875047D01*
X875392Y336658D01*
Y315198D01*
X874219Y314712D01*
X868468Y320463D01*
X866648Y321678D01*
X864502Y322105D01*
X864249D01*
X863856Y323054D01*
X861773Y325769D01*
X859057Y327853D01*
X858651Y328021D01*
Y329291D01*
X859561Y329669D01*
X862486Y331913D01*
X864730Y334837D01*
X866109Y338168D01*
X866408Y338280D01*
X867445Y338424D01*
X867837Y337837D01*
D02*
G37*
G36*
X841146Y411541D02*
X843230Y408825D01*
X845946Y406741D01*
X847531Y406085D01*
Y404710D01*
X845945Y404053D01*
X843229Y401969D01*
X841145Y399254D01*
X839835Y396091D01*
X839389Y392698D01*
X839835Y389304D01*
X840227Y388358D01*
X839379Y387088D01*
X751236D01*
X750750Y388261D01*
X775997Y413509D01*
X840331D01*
X841146Y411541D01*
D02*
G37*
G36*
X386217Y381642D02*
X385348Y380341D01*
X385198Y379588D01*
X382933D01*
X381341Y380652D01*
X379000Y381118D01*
X377250Y380769D01*
X376158Y380317D01*
X374674Y379326D01*
X373683Y377842D01*
X373231Y376750D01*
X372882Y375000D01*
X373231Y373250D01*
X373683Y372158D01*
X374028Y371642D01*
X374654Y370660D01*
X374380Y370474D01*
X374403Y370419D01*
X374137Y370308D01*
X373704Y370014D01*
X372674Y369326D01*
X371683Y367842D01*
X371231Y366750D01*
X370882Y365000D01*
X371231Y363250D01*
X371683Y362158D01*
X372674Y360674D01*
X373481Y360135D01*
Y358865D01*
X372674Y358326D01*
X371683Y356842D01*
X371231Y355750D01*
X370882Y354000D01*
X371231Y352250D01*
X371683Y351158D01*
X372674Y349674D01*
X374158Y348683D01*
X374658Y348476D01*
X374706Y348339D01*
X374993Y348282D01*
X375394Y346907D01*
X374683Y345842D01*
X374231Y344750D01*
X373882Y343000D01*
X374231Y341250D01*
X374683Y340158D01*
X375674Y338674D01*
X377158Y337683D01*
X377911Y337371D01*
X377897Y337301D01*
X378865Y337108D01*
X378740Y335838D01*
X371651D01*
X348740Y358748D01*
X349226Y359922D01*
X349500D01*
Y369500D01*
X354500D01*
Y359922D01*
X359000D01*
X360167Y360154D01*
X360895Y360455D01*
X361884Y361116D01*
X362545Y362105D01*
X362846Y362833D01*
X363078Y364000D01*
Y365811D01*
X363744Y366256D01*
X369244Y371756D01*
X369988Y372868D01*
X370327Y373687D01*
X370588Y375000D01*
Y380099D01*
X373400Y382912D01*
X385538D01*
X386217Y381642D01*
D02*
G37*
G36*
X843637Y376882D02*
X843229Y376569D01*
X841145Y373854D01*
X840330Y371886D01*
X731603D01*
X726750Y376739D01*
X727236Y377912D01*
X842303D01*
X843099Y378070D01*
X843637Y376882D01*
D02*
G37*
G36*
X712910Y371590D02*
X712459Y370500D01*
X719000D01*
Y368000D01*
X721500D01*
Y361459D01*
X724358Y362643D01*
X724838Y363803D01*
X726064Y364047D01*
X726258Y363853D01*
X729702Y362427D01*
X731573D01*
X732000Y362000D01*
X840624D01*
X842551Y357348D01*
X847682Y355223D01*
Y353973D01*
X842551Y351847D01*
X838430Y341898D01*
X842551Y331948D01*
X846375Y330364D01*
Y329114D01*
X841786Y327213D01*
X838383Y318998D01*
X852501D01*
Y313998D01*
X838383D01*
X841786Y305782D01*
X846374Y303882D01*
Y302632D01*
X842550Y301048D01*
X839217Y293000D01*
X813000D01*
X760000Y346000D01*
X672256D01*
X671691Y347250D01*
X672830Y350000D01*
Y352500D01*
X662000D01*
Y355000D01*
X659500D01*
Y364329D01*
X655500D01*
X655369Y364275D01*
X654330Y364970D01*
Y366500D01*
X653061Y369561D01*
X650000Y370830D01*
X647000D01*
Y359500D01*
Y348170D01*
X650000D01*
X651646Y348852D01*
X652309Y347250D01*
X651744Y346000D01*
X639000D01*
X637605Y347395D01*
X638313Y348455D01*
X639000Y348170D01*
X642000D01*
Y359500D01*
Y370830D01*
X639000D01*
X638039Y370432D01*
X637000Y371126D01*
Y372629D01*
X712216D01*
X712910Y371590D01*
D02*
G37*
G36*
X419750Y311738D02*
X387350Y279338D01*
X373750D01*
X373591Y279307D01*
X372966Y280477D01*
X405401Y312912D01*
X419264D01*
X419750Y311738D01*
D02*
G37*
G36*
X366975Y311537D02*
X367348Y309659D01*
X368674Y307674D01*
X369702Y306987D01*
X369864Y305352D01*
X307600Y243088D01*
X290479D01*
X288723Y242739D01*
X287235Y241744D01*
X163780Y118290D01*
X159669D01*
X158854Y120258D01*
X156770Y122973D01*
X154054Y125057D01*
X152469Y125714D01*
Y127088D01*
X154055Y127745D01*
X156771Y129829D01*
X158855Y132545D01*
X160165Y135707D01*
X160611Y139101D01*
X160165Y142494D01*
X158855Y145657D01*
X156771Y148372D01*
X154055Y150456D01*
X152469Y151114D01*
Y152488D01*
X154055Y153145D01*
X156771Y155229D01*
X158855Y157945D01*
X159670Y159913D01*
X194901D01*
X196657Y160262D01*
X198145Y161257D01*
X300038Y263150D01*
X302006Y262335D01*
X305400Y261888D01*
X308794Y262335D01*
X311956Y263645D01*
X314672Y265728D01*
X316756Y268444D01*
X317571Y270412D01*
X320000D01*
X321756Y270761D01*
X323244Y271756D01*
X351463Y299975D01*
X353341Y300348D01*
X355326Y301674D01*
X356652Y303659D01*
X357118Y306000D01*
X356652Y308341D01*
X355326Y310326D01*
X353341Y311652D01*
X351000Y312118D01*
X348659Y311652D01*
X346674Y310326D01*
X345348Y308341D01*
X344975Y306463D01*
X318698Y280186D01*
X317200Y280483D01*
X316756Y281556D01*
X314672Y284272D01*
X311956Y286355D01*
X310369Y287013D01*
Y288387D01*
X311956Y289044D01*
X314672Y291128D01*
X316756Y293844D01*
X318065Y297006D01*
X318512Y300400D01*
X318065Y303794D01*
X316756Y306956D01*
X314672Y309672D01*
X311956Y311756D01*
X310368Y312413D01*
Y313788D01*
X311955Y314445D01*
X314671Y316529D01*
X316755Y319245D01*
X317570Y321213D01*
X357299D01*
X366975Y311537D01*
D02*
G37*
G36*
X130000Y294000D02*
Y81000D01*
X136452D01*
X137549Y78352D01*
X142682Y76226D01*
Y74976D01*
X137550Y72850D01*
X133429Y62900D01*
X137550Y52950D01*
X147500Y48829D01*
X157450Y52950D01*
X159554Y58029D01*
X168900D01*
X172344Y59456D01*
X188444Y75556D01*
X189871Y79000D01*
Y81000D01*
X192931D01*
Y74555D01*
X187852Y72451D01*
X183731Y62502D01*
X187852Y52552D01*
X197802Y48431D01*
X207751Y52552D01*
X209877Y57683D01*
X211127D01*
X213252Y52552D01*
X223202Y48431D01*
X233151Y52552D01*
X235276Y57681D01*
X236526D01*
X238651Y52551D01*
X248601Y48430D01*
X258551Y52551D01*
X260676Y57682D01*
X261926D01*
X264051Y52551D01*
X274001Y48430D01*
X283951Y52551D01*
X286076Y57682D01*
X287326D01*
X289451Y52551D01*
X299401Y48430D01*
X309351Y52551D01*
X310935Y56375D01*
X312185D01*
X314086Y51786D01*
X322301Y48383D01*
Y62501D01*
X327301D01*
Y48383D01*
X335516Y51786D01*
X337416Y56374D01*
X338666D01*
X340250Y52550D01*
X344000Y50997D01*
Y30000D01*
X334000Y20000D01*
X11000D01*
X11000Y81000D01*
X11000D01*
Y295000D01*
X50479D01*
X50957Y293845D01*
X36556Y279444D01*
X35129Y276000D01*
Y262789D01*
X31581Y261319D01*
X28094Y252900D01*
X31581Y244481D01*
X40000Y240994D01*
X48419Y244481D01*
X51906Y252900D01*
X48419Y261319D01*
X44871Y262789D01*
Y273983D01*
X65888Y295000D01*
X78581D01*
X78704Y294704D01*
X81000Y293753D01*
X88859D01*
X93029Y289583D01*
Y259239D01*
X91990Y258544D01*
X91500Y258747D01*
X82141D01*
X78216Y262673D01*
X76592Y266592D01*
X72000Y268494D01*
X67408Y266592D01*
X65506Y262000D01*
X67408Y257408D01*
X71328Y255784D01*
X75253Y251859D01*
Y245500D01*
X75841Y244081D01*
X75439Y242561D01*
X74170Y239500D01*
Y237000D01*
X85000D01*
Y234500D01*
X87500D01*
Y225170D01*
X91500D01*
X91990Y225373D01*
X93029Y224679D01*
Y172389D01*
X89481Y170919D01*
X86418Y163524D01*
X85065D01*
X81684Y171684D01*
X75000Y174453D01*
Y162500D01*
Y150547D01*
X81684Y153316D01*
X85065Y161476D01*
X86418D01*
X89481Y154081D01*
X97900Y150594D01*
X106319Y154081D01*
X109806Y162500D01*
X106319Y170919D01*
X102771Y172389D01*
Y291600D01*
X101793Y293961D01*
X102487Y295000D01*
X129000D01*
X130000Y294000D01*
D02*
G37*
G36*
X640412Y306099D02*
Y287073D01*
X639142Y286031D01*
X639000Y286059D01*
X636588D01*
Y289067D01*
X637317Y290158D01*
X637769Y291250D01*
X638117Y293000D01*
X637769Y294750D01*
X637317Y295842D01*
X636326Y297326D01*
X634842Y298317D01*
X633750Y298769D01*
X632000Y299118D01*
X630250Y298769D01*
X629158Y298317D01*
X627674Y297326D01*
X626683Y295842D01*
X626231Y294750D01*
X625882Y293000D01*
X626231Y291250D01*
X626683Y290158D01*
X627412Y289067D01*
Y286059D01*
X625000D01*
X624125Y285885D01*
X623579Y285658D01*
X622837Y285163D01*
X622341Y284421D01*
X622115Y283875D01*
X621941Y283000D01*
Y272000D01*
X622158Y270912D01*
X622116Y270884D01*
X621455Y269895D01*
X621154Y269167D01*
X620922Y268000D01*
Y265000D01*
X632000D01*
Y260000D01*
X620922D01*
Y259226D01*
X619748Y258740D01*
X613588Y264900D01*
Y301000D01*
X613327Y302313D01*
X612988Y303132D01*
X612244Y304244D01*
X599750Y316738D01*
X600236Y317912D01*
X628600D01*
X640412Y306099D01*
D02*
G37*
G36*
X992155Y344655D02*
X994453Y342892D01*
X994791Y342751D01*
Y189247D01*
X993843Y188855D01*
X991127Y186771D01*
X989044Y184055D01*
X988387Y182470D01*
X987012D01*
X986356Y184056D01*
X984272Y186772D01*
X981556Y188855D01*
X978394Y190165D01*
X975000Y190612D01*
X971606Y190165D01*
X968444Y188855D01*
X965728Y186772D01*
X963644Y184056D01*
X962987Y182469D01*
X961613D01*
X960956Y184056D01*
X958872Y186772D01*
X956156Y188855D01*
X955208Y189248D01*
Y205400D01*
X954781Y207546D01*
X953565Y209365D01*
X886608Y276323D01*
Y336658D01*
X886953Y336941D01*
X968167D01*
X968462Y337000D01*
X968764D01*
X969042Y337115D01*
X969337Y337174D01*
X969588Y337341D01*
X969866Y337457D01*
X970079Y337670D01*
X970330Y337837D01*
X970497Y338088D01*
X970710Y338301D01*
X970826Y338579D01*
X970993Y338829D01*
X971052Y339125D01*
X971167Y339403D01*
X971401Y340581D01*
X973133Y340809D01*
X976052Y342018D01*
X978122Y343607D01*
X979392Y343039D01*
Y306323D01*
X958677Y285608D01*
X924562D01*
X922845Y287845D01*
X920547Y289608D01*
X917872Y290717D01*
X915000Y291095D01*
X912128Y290717D01*
X909453Y289608D01*
X907155Y287845D01*
X905391Y285547D01*
X904283Y282872D01*
X903905Y280000D01*
X904283Y277128D01*
X905391Y274453D01*
X907155Y272155D01*
X909453Y270392D01*
X912128Y269283D01*
X915000Y268905D01*
X917872Y269283D01*
X920547Y270392D01*
X922845Y272155D01*
X924562Y274392D01*
X961000D01*
X963146Y274819D01*
X964965Y276035D01*
X988965Y300035D01*
X990181Y301854D01*
X990608Y304000D01*
Y344695D01*
X991810Y345103D01*
X992155Y344655D01*
D02*
G37*
G36*
X671161Y301065D02*
X673250Y300790D01*
X683250D01*
X684646Y300974D01*
X687412Y298208D01*
Y282169D01*
X686142Y281320D01*
X685338Y281653D01*
X683250Y281928D01*
X673250D01*
X671161Y281653D01*
X669858Y281113D01*
X668588Y281880D01*
Y300839D01*
X669858Y301605D01*
X671161Y301065D01*
D02*
G37*
G36*
X841146Y640141D02*
X843230Y637425D01*
X845946Y635341D01*
X847532Y634684D01*
Y633309D01*
X845946Y632652D01*
X843230Y630569D01*
X841146Y627853D01*
X840331Y625885D01*
X820297D01*
X818541Y625536D01*
X817052Y624541D01*
X624599Y432088D01*
X614236D01*
X613750Y433261D01*
X822597Y642109D01*
X840331D01*
X841146Y640141D01*
D02*
G37*
G36*
X229535Y508086D02*
X229756Y507756D01*
X304250Y433261D01*
X303764Y432088D01*
X302400D01*
X227588Y506900D01*
Y508151D01*
X227833Y508348D01*
X229535Y508086D01*
D02*
G37*
G36*
X841146Y614741D02*
X843230Y612025D01*
X845946Y609941D01*
X847531Y609285D01*
Y607910D01*
X845945Y607253D01*
X843229Y605169D01*
X841145Y602454D01*
X840330Y600486D01*
X813898D01*
X812142Y600136D01*
X810653Y599142D01*
X638600Y427088D01*
X634236D01*
X633750Y428261D01*
X822197Y616709D01*
X840331D01*
X841146Y614741D01*
D02*
G37*
G36*
X193753Y449758D02*
X193227Y448488D01*
X159671D01*
X158855Y450456D01*
X156772Y453172D01*
X154056Y455256D01*
X152470Y455913D01*
Y457287D01*
X154056Y457944D01*
X156772Y460028D01*
X158855Y462744D01*
X159671Y464712D01*
X178799D01*
X193753Y449758D01*
D02*
G37*
G36*
X841144Y665542D02*
X843228Y662827D01*
X845944Y660743D01*
X847533Y660085D01*
Y658710D01*
X845946Y658052D01*
X843230Y655968D01*
X841146Y653253D01*
X840331Y651285D01*
X820697D01*
X818941Y650936D01*
X817452Y649941D01*
X604599Y437088D01*
X593236D01*
X592750Y438261D01*
X821999Y667510D01*
X840329D01*
X841144Y665542D01*
D02*
G37*
G36*
Y462342D02*
X843228Y459627D01*
X845944Y457543D01*
X847533Y456885D01*
Y455510D01*
X845946Y454852D01*
X843230Y452769D01*
X841146Y450053D01*
X840331Y448085D01*
X772497D01*
X770741Y447736D01*
X769252Y446741D01*
X755140Y432628D01*
X753969Y433254D01*
X754118Y434000D01*
X753652Y436341D01*
X752326Y438326D01*
X750698Y439413D01*
X750338Y440849D01*
X773799Y464310D01*
X840329D01*
X841144Y462342D01*
D02*
G37*
G36*
X219535Y502086D02*
X219756Y501756D01*
X293250Y428261D01*
X292764Y427088D01*
X291401D01*
X217588Y500900D01*
Y502151D01*
X217833Y502348D01*
X219535Y502086D01*
D02*
G37*
G36*
X841144Y487742D02*
X843228Y485027D01*
X845944Y482943D01*
X847531Y482286D01*
Y480911D01*
X845944Y480254D01*
X843228Y478170D01*
X841144Y475454D01*
X840329Y473487D01*
X771898D01*
X770143Y473137D01*
X768654Y472143D01*
X698599Y402088D01*
X691236D01*
X690750Y403261D01*
X777199Y489710D01*
X840329D01*
X841144Y487742D01*
D02*
G37*
G36*
X120412Y477099D02*
Y453000D01*
X120673Y451687D01*
X121012Y450868D01*
X121756Y449756D01*
X130856Y440656D01*
X131968Y439912D01*
X132787Y439573D01*
X134100Y439312D01*
X135329D01*
X135490Y438925D01*
X136145Y437344D01*
X138228Y434628D01*
X140944Y432545D01*
X141373Y432367D01*
Y431117D01*
X141349Y431107D01*
Y431107D01*
X140439Y430730D01*
X137514Y428486D01*
X135270Y425561D01*
X133860Y422155D01*
X133708Y421001D01*
X147499D01*
Y416001D01*
X133708D01*
X133860Y414846D01*
X135270Y411440D01*
X137514Y408516D01*
X140439Y406272D01*
X141349Y405895D01*
Y405895D01*
X141374Y405885D01*
Y404635D01*
X140943Y404456D01*
X138228Y402373D01*
X137029Y400810D01*
X135761Y400727D01*
X125588Y410900D01*
Y425000D01*
X125327Y426312D01*
X124988Y427132D01*
X124244Y428244D01*
X109338Y443150D01*
Y469217D01*
X109624Y469645D01*
X110039Y470646D01*
X110358Y472250D01*
Y483250D01*
X110039Y484854D01*
X109720Y485624D01*
X109760Y485651D01*
X109149Y486567D01*
X110135Y487376D01*
X120412Y477099D01*
D02*
G37*
G36*
X841146Y436941D02*
X843230Y434225D01*
X845946Y432141D01*
X847532Y431484D01*
Y430109D01*
X845946Y429452D01*
X843230Y427369D01*
X841146Y424653D01*
X840331Y422685D01*
X774097D01*
X772341Y422336D01*
X770852Y421341D01*
X741600Y392088D01*
X729236D01*
X728750Y393261D01*
X774397Y438909D01*
X840331D01*
X841146Y436941D01*
D02*
G37*
G36*
X207249Y424262D02*
X206763Y423089D01*
X160752D01*
X159728Y425561D01*
X157484Y428486D01*
X154560Y430730D01*
X153650Y431106D01*
Y432377D01*
X154056Y432545D01*
X156772Y434628D01*
X158855Y437344D01*
X159671Y439312D01*
X192199D01*
X207249Y424262D01*
D02*
G37*
G36*
X841145Y589342D02*
X843229Y586626D01*
X845945Y584542D01*
X847531Y583885D01*
Y582510D01*
X845945Y581853D01*
X843229Y579769D01*
X841145Y577054D01*
X840330Y575086D01*
X805498D01*
X803742Y574737D01*
X802253Y573742D01*
X650600Y422088D01*
X648236D01*
X647750Y423261D01*
X815798Y591309D01*
X840330D01*
X841145Y589342D01*
D02*
G37*
G36*
Y538541D02*
X843229Y535826D01*
X845945Y533742D01*
X847531Y533085D01*
Y531710D01*
X845945Y531053D01*
X843229Y528969D01*
X841145Y526254D01*
X840330Y524286D01*
X787698D01*
X785942Y523937D01*
X784453Y522942D01*
X673599Y412088D01*
X669236D01*
X668750Y413261D01*
X795998Y540509D01*
X840330D01*
X841145Y538541D01*
D02*
G37*
G36*
X659412Y316099D02*
Y256000D01*
X659692Y254593D01*
X658562Y253926D01*
X653838Y258650D01*
Y320014D01*
X655012Y320500D01*
X659412Y316099D01*
D02*
G37*
G36*
X328653Y214142D02*
X219957Y105446D01*
X218963Y103958D01*
X218613Y102202D01*
Y74672D01*
X216646Y73857D01*
X213930Y71773D01*
X211846Y69058D01*
X211189Y67471D01*
X209814D01*
X209157Y69058D01*
X207073Y71773D01*
X204358Y73857D01*
X202390Y74672D01*
Y105901D01*
X311901Y215412D01*
X328127D01*
X328653Y214142D01*
D02*
G37*
G36*
X650412Y131100D02*
Y74671D01*
X648444Y73856D01*
X645728Y71772D01*
X643644Y69056D01*
X642988Y67471D01*
X641613D01*
X640956Y69057D01*
X638872Y71772D01*
X636157Y73856D01*
X634189Y74671D01*
Y145663D01*
X635362Y146149D01*
X650412Y131100D01*
D02*
G37*
G36*
X625013Y146499D02*
Y74671D01*
X623045Y73856D01*
X620329Y71772D01*
X618245Y69057D01*
X617588Y67470D01*
X616213D01*
X615556Y69057D01*
X613473Y71772D01*
X610757Y73856D01*
X608789Y74671D01*
Y161063D01*
X609962Y161549D01*
X625013Y146499D01*
D02*
G37*
G36*
X307348Y225167D02*
X307086Y223465D01*
X306756Y223244D01*
X194557Y111046D01*
X193563Y109557D01*
X193214Y107802D01*
Y84291D01*
X192931Y84059D01*
X189871D01*
X189588Y84291D01*
Y119100D01*
X295900Y225412D01*
X307152D01*
X307348Y225167D01*
D02*
G37*
G36*
X819412Y126100D02*
Y70289D01*
X818142Y69858D01*
X816673Y71772D01*
X813957Y73856D01*
X811989Y74671D01*
Y127599D01*
X811640Y129355D01*
X810645Y130844D01*
X715347Y226142D01*
X715873Y227412D01*
X718100D01*
X819412Y126100D01*
D02*
G37*
G36*
X180412Y102264D02*
Y80900D01*
X166999Y67488D01*
X159671D01*
X158855Y69456D01*
X156772Y72172D01*
X154056Y74255D01*
X152467Y74914D01*
Y76288D01*
X154054Y76946D01*
X156770Y79030D01*
X158854Y81746D01*
X159792Y84010D01*
X160057Y84063D01*
X161546Y85057D01*
X179238Y102750D01*
X180412Y102264D01*
D02*
G37*
G36*
X752011Y89500D02*
Y74670D01*
X750043Y73855D01*
X747327Y71771D01*
X745244Y69055D01*
X744587Y67470D01*
X743212D01*
X742555Y69056D01*
X740472Y71772D01*
X737756Y73856D01*
X735788Y74671D01*
Y81800D01*
X735439Y83556D01*
X734444Y85044D01*
X726250Y93238D01*
X726736Y94412D01*
X747100D01*
X752011Y89500D01*
D02*
G37*
G36*
X777411Y91100D02*
Y74670D01*
X775443Y73855D01*
X772728Y71771D01*
X770644Y69055D01*
X769986Y67469D01*
X768612D01*
X767955Y69055D01*
X765871Y71771D01*
X763155Y73855D01*
X761187Y74670D01*
Y91401D01*
X760838Y93157D01*
X759844Y94645D01*
X753352Y101137D01*
X753878Y102407D01*
X766105D01*
X777411Y91100D01*
D02*
G37*
G36*
X599613Y161899D02*
Y74671D01*
X597645Y73856D01*
X594929Y71772D01*
X592845Y69057D01*
X592187Y67467D01*
X590812D01*
X590155Y69055D01*
X588071Y71771D01*
X585355Y73855D01*
X583387Y74670D01*
Y175201D01*
X583107Y176608D01*
X584237Y177275D01*
X599613Y161899D01*
D02*
G37*
G36*
X832857Y84655D02*
X834345Y83660D01*
X836101Y83311D01*
X840329D01*
X841144Y81343D01*
X843227Y78628D01*
X845943Y76544D01*
X847530Y75887D01*
Y74512D01*
X845943Y73855D01*
X843227Y71771D01*
X841144Y69055D01*
X840329Y67087D01*
X831401D01*
X828588Y69900D01*
Y87264D01*
X829762Y87750D01*
X832857Y84655D01*
D02*
G37*
G36*
X701212Y97300D02*
Y74671D01*
X699244Y73856D01*
X696528Y71772D01*
X694445Y69056D01*
X693787Y67470D01*
X692413D01*
X691756Y69056D01*
X689672Y71772D01*
X686956Y73856D01*
X684988Y74671D01*
Y111864D01*
X686161Y112350D01*
X701212Y97300D01*
D02*
G37*
G36*
X726612Y79900D02*
Y74671D01*
X724644Y73856D01*
X721928Y71772D01*
X719845Y69056D01*
X719187Y67470D01*
X717813D01*
X717156Y69056D01*
X715072Y71772D01*
X712356Y73856D01*
X710388Y74671D01*
Y94464D01*
X711562Y94950D01*
X726612Y79900D01*
D02*
G37*
G36*
X675812Y114699D02*
Y74671D01*
X673844Y73856D01*
X671128Y71772D01*
X669044Y69056D01*
X668387Y67469D01*
X667013D01*
X666356Y69056D01*
X664272Y71772D01*
X661556Y73856D01*
X659588Y74671D01*
Y129264D01*
X660761Y129750D01*
X675812Y114699D01*
D02*
G37*
G36*
X802813Y125699D02*
Y74671D01*
X800845Y73856D01*
X798129Y71772D01*
X796045Y69057D01*
X795390Y67476D01*
X795387Y67467D01*
D01*
X795325Y67317D01*
X794075D01*
X794012Y67467D01*
D01*
X794010Y67474D01*
X793355Y69055D01*
X791271Y71771D01*
X788555Y73855D01*
X786974Y74510D01*
X786587Y74670D01*
Y93001D01*
X786326Y94313D01*
X785987Y95132D01*
X785244Y96245D01*
X771249Y110239D01*
X770137Y110983D01*
X769318Y111322D01*
X768005Y111583D01*
X729895D01*
X638663Y202815D01*
X639296Y203979D01*
X640827Y204180D01*
X641679Y204533D01*
X642530Y204886D01*
X643191Y205392D01*
X669945D01*
X671008Y204007D01*
X672470Y202885D01*
X673321Y202533D01*
X673500Y202459D01*
Y209000D01*
X676000D01*
Y211500D01*
X682968D01*
X683410Y212162D01*
X685049D01*
X685231Y211250D01*
X685683Y210158D01*
X686674Y208674D01*
X688158Y207683D01*
X689250Y207231D01*
X691000Y206882D01*
X692750Y207231D01*
X693842Y207683D01*
X695326Y208674D01*
X696317Y210158D01*
X696769Y211250D01*
X697117Y213000D01*
X696769Y214750D01*
X696317Y215842D01*
X695326Y217326D01*
X694104Y218142D01*
X694490Y219412D01*
X709100D01*
X802813Y125699D01*
D02*
G37*
G36*
X819412Y272099D02*
Y205933D01*
X818683Y204842D01*
X818235Y203762D01*
X818233Y203762D01*
X818171Y203452D01*
X816956Y203083D01*
X757194Y262845D01*
X757327Y263859D01*
Y266359D01*
X743250D01*
X729172D01*
Y263859D01*
X729481Y261510D01*
X730388Y259320D01*
X730843Y258727D01*
X730282Y257588D01*
X700283D01*
X699756Y258719D01*
X699629Y258910D01*
X699769Y259250D01*
X700117Y261000D01*
X699769Y262750D01*
X699317Y263842D01*
X698326Y265326D01*
X696588Y266487D01*
Y300109D01*
X696327Y301421D01*
X695988Y302240D01*
X695244Y303353D01*
X691135Y307463D01*
X691319Y308859D01*
Y318859D01*
X691044Y320948D01*
X690641Y321921D01*
X690238Y322894D01*
X688955Y324565D01*
X687284Y325847D01*
X686311Y326250D01*
X685338Y326653D01*
X683250Y326928D01*
X682838D01*
Y334412D01*
X757100D01*
X819412Y272099D01*
D02*
G37*
G36*
X347739Y206238D02*
X336089Y194588D01*
X334819D01*
X334326Y195326D01*
X332341Y196652D01*
X330000Y197118D01*
X327659Y196652D01*
X325674Y195326D01*
X324348Y193341D01*
X323882Y191000D01*
X324348Y188659D01*
X325674Y186674D01*
X327659Y185348D01*
X330000Y184883D01*
X330746Y185031D01*
X331372Y183860D01*
X245357Y97845D01*
X244362Y96357D01*
X244013Y94601D01*
Y74671D01*
X242045Y73856D01*
X239329Y71772D01*
X237245Y69057D01*
X236589Y67472D01*
X235214D01*
X234557Y69058D01*
X232473Y71773D01*
X229758Y73857D01*
X227790Y74672D01*
Y100301D01*
X334901Y207412D01*
X347253D01*
X347739Y206238D01*
D02*
G37*
G36*
X435899Y272209D02*
X435328Y271772D01*
X433245Y269056D01*
X431935Y265894D01*
X431488Y262500D01*
X431935Y259106D01*
X433093Y256310D01*
X432912Y255400D01*
Y243559D01*
X430500D01*
X429625Y243385D01*
X429079Y243158D01*
X428337Y242663D01*
X427841Y241921D01*
X427615Y241375D01*
X427441Y240500D01*
Y238702D01*
X426756Y238244D01*
X403761Y215250D01*
X402588Y215736D01*
Y227697D01*
X402992Y228008D01*
X404114Y229470D01*
X404467Y230321D01*
X404541Y230500D01*
X391459D01*
X391533Y230321D01*
X391885Y229470D01*
X393008Y228008D01*
X393412Y227697D01*
Y214900D01*
X386762Y208250D01*
X385588Y208736D01*
Y215067D01*
X386317Y216158D01*
X386769Y217250D01*
X387118Y219000D01*
X386769Y220750D01*
X386317Y221842D01*
X385326Y223326D01*
X383842Y224317D01*
X382750Y224769D01*
X381000Y225117D01*
X379858Y224890D01*
X378588Y225933D01*
Y229100D01*
X400748Y251260D01*
X401922Y250774D01*
Y250500D01*
X424078D01*
Y253500D01*
X423846Y254667D01*
X423545Y255395D01*
X422884Y256384D01*
X422842Y256412D01*
X423059Y257500D01*
Y268500D01*
X422881Y269393D01*
X426900Y273412D01*
X435490D01*
X435899Y272209D01*
D02*
G37*
G36*
X483387Y257531D02*
X483387D01*
X484044Y255944D01*
X486128Y253228D01*
X488844Y251145D01*
X490812Y250329D01*
Y243559D01*
X488400D01*
X487525Y243385D01*
X486979Y243158D01*
X486237Y242663D01*
X485742Y241921D01*
X485515Y241375D01*
X485341Y240500D01*
Y229500D01*
X485558Y228412D01*
X485516Y228384D01*
X484855Y227395D01*
X484554Y226667D01*
X484322Y225500D01*
Y222500D01*
X495400D01*
X506478D01*
Y223374D01*
X507652Y223860D01*
X509412Y222099D01*
Y205900D01*
X397757Y94245D01*
X397013Y93132D01*
X396674Y92313D01*
X396413Y91001D01*
Y74671D01*
X396026Y74511D01*
X394445Y73856D01*
X391729Y71772D01*
X389645Y69057D01*
X388967Y67420D01*
X387770Y67406D01*
X387245Y68390D01*
X387339Y68616D01*
X387334Y68623D01*
X387588Y69900D01*
Y144717D01*
X388719Y145244D01*
X388910Y145371D01*
X389250Y145231D01*
X391000Y144882D01*
X392750Y145231D01*
X393842Y145683D01*
X394933Y146412D01*
X435067D01*
X436158Y145683D01*
X437250Y145231D01*
X439000Y144882D01*
X440750Y145231D01*
X441842Y145683D01*
X443326Y146674D01*
X444317Y148158D01*
X444769Y149250D01*
X445118Y151000D01*
X444769Y152750D01*
X444317Y153842D01*
X443326Y155326D01*
X441842Y156317D01*
X440750Y156769D01*
X439000Y157118D01*
X437250Y156769D01*
X436158Y156317D01*
X435067Y155588D01*
X394933D01*
X393842Y156317D01*
X392750Y156769D01*
X391000Y157118D01*
X389250Y156769D01*
X388910Y156629D01*
X388719Y156756D01*
X387588Y157283D01*
Y186099D01*
X425248Y223760D01*
X426422Y223274D01*
Y222500D01*
X437500D01*
X448578D01*
Y225500D01*
X448346Y226667D01*
X448220Y226973D01*
X448045Y227395D01*
X447384Y228384D01*
X447342Y228412D01*
X447559Y229500D01*
Y240500D01*
X447385Y241375D01*
X447159Y241921D01*
X446663Y242663D01*
X445921Y243158D01*
X445375Y243385D01*
X444500Y243559D01*
X442088D01*
Y248755D01*
X443043Y249593D01*
X444600Y249388D01*
X447994Y249835D01*
X449575Y250490D01*
X451156Y251145D01*
X453872Y253228D01*
X455956Y255944D01*
X456613Y257530D01*
D01*
X456675Y257681D01*
X457925D01*
X457987Y257530D01*
D01*
X458644Y255944D01*
X460728Y253228D01*
X463444Y251145D01*
X465025Y250490D01*
X466606Y249835D01*
X470000Y249388D01*
X473394Y249835D01*
X474975Y250490D01*
X476556Y251145D01*
X479272Y253228D01*
X481356Y255944D01*
X482013Y257531D01*
X482013D01*
X482075Y257681D01*
X483325D01*
X483387Y257531D01*
D02*
G37*
G36*
X375102Y269259D02*
X375694Y267859D01*
X375348Y267341D01*
X374883Y265000D01*
X375348Y262659D01*
X376674Y260674D01*
X378659Y259348D01*
X381000Y258883D01*
X383341Y259348D01*
X385326Y260674D01*
X386065Y261780D01*
X387313Y261731D01*
X387764Y260642D01*
X351710Y224588D01*
X318848D01*
X318652Y224832D01*
X318914Y226535D01*
X319244Y226756D01*
X343273Y250784D01*
X344443Y250159D01*
X344412Y250000D01*
Y237933D01*
X343348Y236341D01*
X342882Y234000D01*
X343348Y231659D01*
X344674Y229674D01*
X346659Y228348D01*
X349000Y227882D01*
X351341Y228348D01*
X353326Y229674D01*
X354652Y231659D01*
X355117Y234000D01*
X354652Y236341D01*
X353588Y237933D01*
Y248099D01*
X374802Y269314D01*
X375102Y269259D01*
D02*
G37*
G36*
X247156Y373356D02*
X248269Y372612D01*
X249087Y372273D01*
X250400Y372012D01*
X266747D01*
X267066Y371242D01*
X267771Y369540D01*
X270015Y366615D01*
X272574Y364652D01*
X272676Y364309D01*
Y363491D01*
X272574Y363148D01*
X270015Y361185D01*
X267771Y358260D01*
X267066Y356558D01*
X266360Y354855D01*
X266208Y353700D01*
X280000D01*
Y348700D01*
X266208D01*
X266360Y347545D01*
X267066Y345842D01*
X267771Y344140D01*
X270015Y341215D01*
X272572Y339253D01*
X272675Y338910D01*
X272675Y338090D01*
X272572Y337748D01*
X270014Y335786D01*
X267770Y332861D01*
X267065Y331158D01*
X266360Y329456D01*
X266208Y328301D01*
X279999D01*
Y323301D01*
X266208D01*
X266360Y322146D01*
X267065Y320443D01*
X267770Y318740D01*
X270014Y315816D01*
X272574Y313852D01*
X272677Y313508D01*
X272677Y312693D01*
X272574Y312348D01*
X270015Y310385D01*
X267771Y307460D01*
X266360Y304055D01*
X266208Y302900D01*
X280000D01*
Y297900D01*
X266208D01*
X266360Y296745D01*
X267771Y293340D01*
X270015Y290415D01*
X272940Y288171D01*
X273850Y287794D01*
Y287794D01*
X273874Y287784D01*
Y286534D01*
X273444Y286355D01*
X270728Y284272D01*
X268645Y281556D01*
X267335Y278394D01*
X266888Y275000D01*
X267335Y271606D01*
X268645Y268444D01*
X270728Y265728D01*
X273444Y263645D01*
X275025Y262990D01*
X276606Y262335D01*
X280000Y261888D01*
X283394Y262335D01*
X285197Y263081D01*
X285916Y262005D01*
X193000Y169089D01*
X159670D01*
X158855Y171057D01*
X156771Y173773D01*
X154055Y175856D01*
X152474Y176511D01*
X152469Y176514D01*
D01*
X152318Y176576D01*
Y177826D01*
X152469Y177888D01*
D01*
X152474Y177890D01*
X154055Y178545D01*
X156771Y180629D01*
X158855Y183345D01*
X159510Y184926D01*
X160165Y186507D01*
X160611Y189901D01*
X160165Y193295D01*
X159510Y194876D01*
X158855Y196457D01*
X156771Y199172D01*
X154055Y201256D01*
X152474Y201911D01*
X152469Y201914D01*
D01*
X152318Y201976D01*
Y203226D01*
X152469Y203288D01*
D01*
X152474Y203290D01*
X154055Y203945D01*
X156771Y206029D01*
X158855Y208745D01*
X159510Y210326D01*
X160165Y211907D01*
X160611Y215301D01*
X160165Y218694D01*
X159510Y220276D01*
X158855Y221857D01*
X156771Y224573D01*
X154055Y226656D01*
X152474Y227311D01*
X152470Y227313D01*
D01*
X152320Y227375D01*
Y228625D01*
X152470Y228688D01*
D01*
X152475Y228690D01*
X154056Y229345D01*
X156772Y231428D01*
X158855Y234144D01*
X159510Y235725D01*
X160165Y237306D01*
X160612Y240700D01*
X160165Y244094D01*
X159510Y245675D01*
X158855Y247256D01*
X156772Y249972D01*
X154056Y252055D01*
X152475Y252710D01*
X152469Y252713D01*
D01*
X152319Y252775D01*
Y254025D01*
X152469Y254087D01*
Y254087D01*
X154056Y254745D01*
X156772Y256828D01*
X158855Y259544D01*
X159510Y261125D01*
X160165Y262706D01*
X160612Y266100D01*
X160165Y269494D01*
X159510Y271075D01*
X158855Y272656D01*
X156772Y275372D01*
X154056Y277456D01*
X152467Y278114D01*
D01*
X152316Y278176D01*
Y279426D01*
X152467Y279489D01*
D01*
X152473Y279491D01*
X154054Y280146D01*
X156770Y282230D01*
X158854Y284946D01*
X159509Y286527D01*
X160164Y288108D01*
X160611Y291502D01*
X160164Y294895D01*
X159509Y296476D01*
X158854Y298058D01*
X156770Y300773D01*
X154054Y302857D01*
X152473Y303512D01*
X152468Y303514D01*
D01*
X152317Y303577D01*
Y304827D01*
X152468Y304889D01*
D01*
X152473Y304891D01*
X154054Y305546D01*
X156770Y307630D01*
X158854Y310345D01*
X159509Y311927D01*
X160164Y313508D01*
X160611Y316902D01*
X160164Y320295D01*
X159509Y321876D01*
X158854Y323458D01*
X156770Y326173D01*
X154054Y328257D01*
X152473Y328912D01*
X152469Y328914D01*
D01*
X152319Y328976D01*
Y330226D01*
X152469Y330288D01*
D01*
X152474Y330290D01*
X154055Y330945D01*
X156771Y333029D01*
X158855Y335745D01*
X159510Y337326D01*
X160165Y338907D01*
X160611Y342301D01*
X160165Y345695D01*
X159510Y347276D01*
X158855Y348857D01*
X156771Y351572D01*
X154055Y353656D01*
X152474Y354311D01*
X152469Y354314D01*
D01*
X152318Y354376D01*
Y355626D01*
X152469Y355688D01*
D01*
X152474Y355690D01*
X154055Y356345D01*
X156771Y358429D01*
X158855Y361145D01*
X159510Y362726D01*
X160165Y364307D01*
X160611Y367701D01*
X160165Y371095D01*
X159510Y372676D01*
X158855Y374257D01*
X156771Y376973D01*
X154055Y379056D01*
X152474Y379711D01*
X152469Y379714D01*
D01*
X152318Y379776D01*
Y381026D01*
X152469Y381088D01*
D01*
X152474Y381090D01*
X154055Y381745D01*
X156771Y383829D01*
X158855Y386545D01*
X160165Y389707D01*
X160611Y393101D01*
X160165Y396494D01*
X158855Y399657D01*
X156771Y402373D01*
X154055Y404456D01*
X153625Y404635D01*
Y405885D01*
X153649Y405895D01*
D01*
X154560Y406272D01*
X157484Y408516D01*
X159728Y411440D01*
X160752Y413913D01*
X206599D01*
X247156Y373356D01*
D02*
G37*
G36*
X574211Y173300D02*
Y154790D01*
X572941Y154405D01*
X572326Y155326D01*
X570341Y156652D01*
X568000Y157118D01*
X565659Y156652D01*
X564067Y155588D01*
X489436D01*
X489341Y155652D01*
X487000Y156117D01*
X484659Y155652D01*
X482674Y154326D01*
X481348Y152341D01*
X480882Y150000D01*
X481348Y147659D01*
X482674Y145674D01*
X484659Y144348D01*
X487000Y143883D01*
X489341Y144348D01*
X491326Y145674D01*
X491819Y146412D01*
X564067D01*
X565659Y145348D01*
X568000Y144882D01*
X570341Y145348D01*
X572326Y146674D01*
X572941Y147595D01*
X574211Y147210D01*
Y74670D01*
X572243Y73855D01*
X569528Y71771D01*
X567444Y69055D01*
X566786Y67469D01*
X565412D01*
X564755Y69055D01*
X562671Y71771D01*
X559955Y73855D01*
X556793Y75165D01*
X553399Y75611D01*
X550005Y75165D01*
X546843Y73855D01*
X544128Y71771D01*
X542044Y69055D01*
X541387Y67470D01*
X540012D01*
X539356Y69056D01*
X537272Y71772D01*
X534556Y73856D01*
X531394Y75165D01*
X528000Y75612D01*
X524606Y75165D01*
X521444Y73856D01*
X518728Y71772D01*
X516645Y69056D01*
X515987Y67470D01*
X514613D01*
X513955Y69056D01*
X511872Y71772D01*
X509156Y73856D01*
X505994Y75165D01*
X502600Y75612D01*
X499206Y75165D01*
X496044Y73856D01*
X493328Y71772D01*
X491245Y69056D01*
X490587Y67470D01*
X489213D01*
X488555Y69056D01*
X486472Y71772D01*
X483756Y73856D01*
X480594Y75165D01*
X477200Y75612D01*
X473806Y75165D01*
X470644Y73856D01*
X467928Y71772D01*
X465844Y69056D01*
X465187Y67470D01*
X463813D01*
X463156Y69056D01*
X461072Y71772D01*
X458356Y73856D01*
X455194Y75165D01*
X451800Y75612D01*
X448406Y75165D01*
X445244Y73856D01*
X442528Y71772D01*
X440444Y69056D01*
X439788Y67471D01*
X438413Y67471D01*
X437756Y69057D01*
X435672Y71772D01*
X432957Y73856D01*
X429795Y75166D01*
X426401Y75613D01*
X423007Y75166D01*
X419845Y73856D01*
X417129Y71772D01*
X415045Y69057D01*
X414388Y67470D01*
X413013D01*
X412356Y69057D01*
X410272Y71772D01*
X407557Y73856D01*
X405589Y74671D01*
Y89100D01*
X517244Y200756D01*
X518239Y202244D01*
X518588Y204000D01*
Y224000D01*
X518239Y225756D01*
X517244Y227244D01*
X506244Y238244D01*
X505459Y238769D01*
Y240411D01*
X505557Y240501D01*
X506756Y240756D01*
X574211Y173300D01*
D02*
G37*
G36*
X943992Y203077D02*
Y189248D01*
X943044Y188855D01*
X940328Y186772D01*
X938244Y184056D01*
X936935Y180894D01*
X936488Y177500D01*
X936935Y174106D01*
X938244Y170944D01*
X940328Y168228D01*
X943044Y166145D01*
X946206Y164835D01*
X949600Y164388D01*
X952994Y164835D01*
X956156Y166145D01*
X958872Y168228D01*
X960956Y170944D01*
X961613Y172531D01*
X962987D01*
X963644Y170944D01*
X965728Y168228D01*
X968444Y166145D01*
X969392Y165752D01*
Y158323D01*
X955378Y144309D01*
X929247D01*
X928854Y145257D01*
X926770Y147972D01*
X924055Y150056D01*
X923106Y150449D01*
Y211501D01*
X922680Y213647D01*
X921464Y215467D01*
X877608Y259323D01*
Y267802D01*
X878781Y268288D01*
X943992Y203077D01*
D02*
G37*
G36*
X826412Y139100D02*
Y133736D01*
X825238Y133250D01*
X724347Y234142D01*
X724873Y235412D01*
X730099D01*
X826412Y139100D01*
D02*
G37*
G36*
X839574Y289685D02*
X839835Y287705D01*
X841144Y284542D01*
X843228Y281827D01*
X845944Y279743D01*
X847531Y279086D01*
Y277711D01*
X845944Y277054D01*
X843228Y274970D01*
X841144Y272254D01*
X839835Y269092D01*
X839388Y265698D01*
X839835Y262305D01*
X841144Y259142D01*
X843228Y256427D01*
X845944Y254343D01*
X847532Y253685D01*
Y252311D01*
X845945Y251653D01*
X843229Y249569D01*
X841145Y246854D01*
X839835Y243691D01*
X839389Y240298D01*
X839835Y236904D01*
X841145Y233741D01*
X843229Y231026D01*
X845945Y228942D01*
X847531Y228285D01*
Y226910D01*
X845945Y226253D01*
X843229Y224169D01*
X841145Y221454D01*
X839835Y218291D01*
X839389Y214898D01*
X839835Y211504D01*
X841145Y208342D01*
X843229Y205626D01*
X845945Y203542D01*
X847530Y202885D01*
Y201511D01*
X845944Y200854D01*
X843228Y198770D01*
X841144Y196054D01*
X839835Y192892D01*
X839388Y189498D01*
X839835Y186105D01*
X841144Y182942D01*
X843228Y180227D01*
X845944Y178143D01*
X847531Y177486D01*
Y176111D01*
X845944Y175454D01*
X843228Y173370D01*
X841144Y170654D01*
X840386Y168822D01*
X840084Y168670D01*
X838910Y168579D01*
X819694Y187794D01*
X820008Y189277D01*
X821101Y190116D01*
X822223Y191579D01*
X822929Y193281D01*
X823123Y194762D01*
X824000Y195882D01*
X826341Y196348D01*
X828326Y197674D01*
X829652Y199659D01*
X830117Y202000D01*
X829652Y204341D01*
X828588Y205933D01*
Y274000D01*
X828239Y275756D01*
X827244Y277244D01*
X815721Y288768D01*
X816207Y289941D01*
X839217D01*
X839574Y289685D01*
D02*
G37*
G36*
X819975Y161537D02*
X820279Y160005D01*
X819153Y159336D01*
X737250Y241238D01*
X737736Y242412D01*
X739100D01*
X819975Y161537D01*
D02*
G37*
G36*
X831412Y157188D02*
Y155198D01*
X831761Y153442D01*
X832756Y151954D01*
X840650Y144060D01*
X839835Y142092D01*
X839388Y138698D01*
X839835Y135305D01*
X841144Y132142D01*
X843228Y129427D01*
X845944Y127343D01*
X847531Y126686D01*
Y125311D01*
X845944Y124654D01*
X843228Y122570D01*
X841144Y119854D01*
X839835Y116692D01*
X839388Y113298D01*
X839835Y109905D01*
X841144Y106742D01*
X843228Y104027D01*
X845944Y101943D01*
X847529Y101286D01*
Y99912D01*
X845943Y99255D01*
X843227Y97171D01*
X841144Y94455D01*
X840329Y92487D01*
X838001D01*
X835588Y94901D01*
Y141000D01*
X835239Y142756D01*
X834244Y144244D01*
X823336Y155153D01*
X824006Y156279D01*
X826000Y155883D01*
X828341Y156348D01*
X830142Y157551D01*
X831412Y157188D01*
D02*
G37*
G36*
X96104Y467069D02*
X98250Y466642D01*
X99180Y466827D01*
X100162Y466022D01*
Y441250D01*
X100511Y439494D01*
X101506Y438006D01*
X116412Y423100D01*
Y409000D01*
X116673Y407687D01*
X117012Y406868D01*
X117756Y405756D01*
X119024Y404487D01*
X118777Y403242D01*
X118511Y403131D01*
D01*
X118470Y403115D01*
X117008Y401992D01*
X115885Y400530D01*
X115533Y399679D01*
X115459Y399500D01*
X122000D01*
Y397000D01*
X124500D01*
Y390459D01*
X124679Y390533D01*
X125530Y390886D01*
X126993Y392007D01*
X128115Y393470D01*
X128131Y393511D01*
D01*
X128242Y393777D01*
X129487Y394024D01*
X133655Y389856D01*
X134768Y389113D01*
X135145Y388957D01*
X135188Y388853D01*
D01*
X136144Y386545D01*
X138228Y383829D01*
X140943Y381745D01*
X142524Y381090D01*
X142530Y381088D01*
D01*
X142680Y381026D01*
Y379776D01*
X142530Y379714D01*
D01*
X142524Y379711D01*
X140943Y379056D01*
X138228Y376973D01*
X136144Y374257D01*
X135489Y372676D01*
X134834Y371095D01*
X134387Y367701D01*
X134834Y364307D01*
X135489Y362726D01*
X136144Y361145D01*
X138228Y358429D01*
X140943Y356345D01*
X142524Y355690D01*
X142530Y355688D01*
D01*
X142680Y355626D01*
Y354376D01*
X142530Y354314D01*
D01*
X142524Y354311D01*
X140943Y353656D01*
X138228Y351572D01*
X136144Y348857D01*
X135489Y347276D01*
X134834Y345695D01*
X134387Y342301D01*
X134834Y338907D01*
X135489Y337326D01*
X136144Y335745D01*
X138228Y333029D01*
X140943Y330945D01*
X142524Y330290D01*
X142528Y330289D01*
D01*
X142679Y330226D01*
Y328976D01*
X142528Y328914D01*
D01*
X142523Y328912D01*
X140942Y328257D01*
X138227Y326173D01*
X136143Y323458D01*
X135488Y321876D01*
X134833Y320295D01*
X134386Y316902D01*
X134833Y313508D01*
X135488Y311927D01*
X136143Y310345D01*
X138227Y307630D01*
X140942Y305546D01*
X142523Y304891D01*
X142529Y304889D01*
D01*
X142679Y304827D01*
Y303577D01*
X142529Y303514D01*
D01*
X142523Y303512D01*
X140942Y302857D01*
X138227Y300773D01*
X136143Y298058D01*
X135488Y296476D01*
X134833Y294895D01*
X134386Y291502D01*
X134833Y288108D01*
X136143Y284946D01*
X138227Y282230D01*
X140942Y280146D01*
X142532Y279488D01*
Y278113D01*
X140944Y277456D01*
X138228Y275372D01*
X136145Y272656D01*
X134835Y269494D01*
X134388Y266100D01*
X134835Y262706D01*
X136145Y259544D01*
X138228Y256828D01*
X140944Y254745D01*
X142531Y254087D01*
Y252713D01*
X140944Y252055D01*
X138228Y249972D01*
X136145Y247256D01*
X134835Y244094D01*
X134388Y240700D01*
X134835Y237306D01*
X136145Y234144D01*
X138228Y231428D01*
X140944Y229345D01*
X142529Y228688D01*
Y227313D01*
X140943Y226656D01*
X138228Y224573D01*
X136144Y221857D01*
X134834Y218694D01*
X134387Y215301D01*
X134834Y211907D01*
X136144Y208745D01*
X138228Y206029D01*
X140943Y203945D01*
X142530Y203288D01*
Y201914D01*
X140943Y201256D01*
X138228Y199172D01*
X136144Y196457D01*
X134834Y193295D01*
X134387Y189901D01*
X134834Y186507D01*
X136144Y183345D01*
X138228Y180629D01*
X140943Y178545D01*
X142530Y177888D01*
Y176514D01*
X140943Y175856D01*
X138228Y173773D01*
X136144Y171057D01*
X134834Y167894D01*
X134387Y164501D01*
X134834Y161107D01*
X136144Y157945D01*
X138228Y155229D01*
X140943Y153145D01*
X142530Y152488D01*
Y151114D01*
X140943Y150456D01*
X138228Y148372D01*
X136144Y145657D01*
X134834Y142494D01*
X134387Y139101D01*
X134834Y135707D01*
X136144Y132545D01*
X138228Y129829D01*
X140943Y127745D01*
X142528Y127089D01*
Y125714D01*
X140942Y125057D01*
X138227Y122973D01*
X136143Y120258D01*
X134833Y117095D01*
X134386Y113702D01*
X134833Y110308D01*
X136143Y107146D01*
X138227Y104430D01*
X140942Y102346D01*
X142529Y101689D01*
Y100314D01*
X140942Y99657D01*
X138227Y97573D01*
X136143Y94858D01*
X134833Y91695D01*
X134386Y88302D01*
X134713Y85821D01*
X133728Y84799D01*
X133059Y84994D01*
Y294000D01*
X133059Y294000D01*
X132885Y294875D01*
X132659Y295421D01*
X132163Y296163D01*
X132163Y296163D01*
X131163Y297163D01*
X130421Y297659D01*
X129875Y297885D01*
X129000Y298059D01*
X129000Y298059D01*
X102487D01*
X102192Y298000D01*
X101891D01*
X101612Y297885D01*
X101317Y297826D01*
X101250Y297781D01*
D01*
X101066Y297659D01*
X100788Y297543D01*
X100575Y297330D01*
X100324Y297163D01*
X98980Y297009D01*
X97059Y298930D01*
Y307000D01*
X96826Y308171D01*
X96163Y309163D01*
X96865Y310096D01*
X96884Y310116D01*
X96884Y310116D01*
X97768Y311439D01*
X98078Y313000D01*
Y315500D01*
X87500D01*
Y318000D01*
X85000D01*
Y327078D01*
X81000D01*
X79439Y326768D01*
X78500Y326140D01*
Y318000D01*
X73500D01*
Y324541D01*
X72470Y324114D01*
X71608Y323453D01*
X70338Y324080D01*
Y366514D01*
X71512Y367000D01*
X73975Y364537D01*
X74348Y362659D01*
X75674Y360674D01*
X77659Y359348D01*
X80000Y358882D01*
X82341Y359348D01*
X84326Y360674D01*
X85652Y362659D01*
X86117Y365000D01*
X85652Y367341D01*
X84326Y369326D01*
X82341Y370652D01*
X80463Y371025D01*
X76838Y374650D01*
Y395522D01*
X77820Y396327D01*
X78750Y396142D01*
X80896Y396569D01*
X81125Y396722D01*
X81972Y396072D01*
X82750Y395750D01*
Y397836D01*
X83931Y399604D01*
X84358Y401750D01*
Y407250D01*
X87750D01*
Y395750D01*
X88500Y396061D01*
X89250Y395750D01*
Y407250D01*
X92642D01*
Y401750D01*
X93069Y399604D01*
X94250Y397836D01*
Y395750D01*
X95028Y396072D01*
X95875Y396722D01*
X96104Y396569D01*
X98250Y396142D01*
X100000Y396490D01*
Y396522D01*
X100855Y396876D01*
X101500Y397307D01*
X102145Y396876D01*
X103146Y396461D01*
X104750Y396142D01*
X106354Y396461D01*
X107355Y396876D01*
X108715Y397785D01*
X109624Y399145D01*
X110039Y400146D01*
X110358Y401750D01*
Y412750D01*
X110039Y414354D01*
X109624Y415355D01*
X108715Y416715D01*
X107355Y417624D01*
X106354Y418039D01*
X104750Y418358D01*
X103146Y418039D01*
X102145Y417624D01*
X101500Y417193D01*
X100855Y417624D01*
X100000Y417978D01*
Y418010D01*
X98250Y418358D01*
X97320Y418173D01*
X96338Y418978D01*
Y422250D01*
X95989Y424006D01*
X94994Y425494D01*
X93989Y426500D01*
X85000D01*
Y429000D01*
X82500D01*
Y435541D01*
X81470Y435115D01*
X80008Y433993D01*
X79697Y433588D01*
X69000D01*
X67593Y433308D01*
X66926Y434438D01*
X88494Y456006D01*
X89489Y457494D01*
X89838Y459250D01*
Y466022D01*
X90820Y466827D01*
X91750Y466642D01*
X93896Y467069D01*
X95000Y467807D01*
X96104Y467069D01*
D02*
G37*
G36*
X218412Y604100D02*
Y586848D01*
X218167Y586652D01*
X216465Y586914D01*
X216244Y587244D01*
X203944Y599544D01*
X202456Y600539D01*
X200700Y600888D01*
X159671D01*
X158855Y602856D01*
X156772Y605572D01*
X154056Y607655D01*
X152470Y608313D01*
Y609687D01*
X154056Y610345D01*
X156772Y612428D01*
X158855Y615144D01*
X159671Y617112D01*
X205400D01*
X218412Y604100D01*
D02*
G37*
G36*
X542446Y690445D02*
X544530Y687729D01*
X547245Y685645D01*
X549213Y684830D01*
Y603702D01*
X505761Y560250D01*
X504588Y560736D01*
Y566162D01*
X505570Y566968D01*
X506000Y566883D01*
X508341Y567348D01*
X510326Y568674D01*
X511652Y570659D01*
X512025Y572537D01*
X525712Y586223D01*
X526341Y586348D01*
X528326Y587674D01*
X529652Y589659D01*
X530117Y592000D01*
X529652Y594341D01*
X528326Y596326D01*
X526341Y597652D01*
X524000Y598117D01*
X521659Y597652D01*
X519674Y596326D01*
X518348Y594341D01*
X517882Y592000D01*
X517987Y591475D01*
X505858Y579347D01*
X504594Y579799D01*
X504588Y579804D01*
Y592099D01*
X531646Y619157D01*
X532640Y620646D01*
X532990Y622402D01*
Y684830D01*
X534958Y685645D01*
X537673Y687729D01*
X539757Y690445D01*
X540414Y692031D01*
X541789D01*
X542446Y690445D01*
D02*
G37*
G36*
X440847Y690446D02*
X442931Y687730D01*
X445646Y685646D01*
X447614Y684831D01*
Y631798D01*
X447963Y630042D01*
X448958Y628553D01*
X480412Y597099D01*
Y594736D01*
X479239Y594250D01*
X431391Y642098D01*
Y684831D01*
X433358Y685646D01*
X436074Y687730D01*
X438158Y690446D01*
X438815Y692032D01*
X440190D01*
X440847Y690446D01*
D02*
G37*
G36*
X466246Y690445D02*
X468330Y687729D01*
X471045Y685645D01*
X473013Y684830D01*
Y658398D01*
X473363Y656643D01*
X474357Y655154D01*
X485412Y644100D01*
Y606736D01*
X484239Y606250D01*
X456791Y633698D01*
Y684831D01*
X458759Y685646D01*
X461474Y687730D01*
X463558Y690446D01*
X464215Y692031D01*
X465589D01*
X466246Y690445D01*
D02*
G37*
G36*
X516389Y692031D02*
X517046Y690445D01*
X519130Y687729D01*
X521846Y685645D01*
X523814Y684830D01*
Y624302D01*
X500761Y601250D01*
X499588Y601736D01*
Y630099D01*
X506246Y636757D01*
X507240Y638246D01*
X507590Y640002D01*
Y684830D01*
X509558Y685645D01*
X512273Y687729D01*
X514357Y690445D01*
X515014Y692031D01*
X516389D01*
D02*
G37*
G36*
X199412Y557099D02*
Y545736D01*
X198239Y545250D01*
X194744Y548744D01*
X193256Y549739D01*
X191500Y550088D01*
X159671D01*
X158855Y552056D01*
X156772Y554772D01*
X154056Y556856D01*
X152470Y557513D01*
Y558887D01*
X154056Y559544D01*
X156772Y561628D01*
X158855Y564344D01*
X159671Y566312D01*
X190200D01*
X199412Y557099D01*
D02*
G37*
G36*
X287789Y692031D02*
X288446Y690445D01*
X290530Y687729D01*
X293246Y685645D01*
X296408Y684335D01*
X299802Y683889D01*
X303195Y684335D01*
X306358Y685645D01*
X307777Y686734D01*
X449697Y544815D01*
X449659Y544626D01*
X448281Y544207D01*
X388244Y604244D01*
X386756Y605239D01*
X385000Y605588D01*
X343900D01*
X278990Y670499D01*
Y684830D01*
X280958Y685645D01*
X283673Y687729D01*
X285757Y690445D01*
X286414Y692031D01*
X287789D01*
D02*
G37*
G36*
X841145Y563941D02*
X843229Y561226D01*
X845945Y559142D01*
X847531Y558485D01*
Y557110D01*
X845945Y556453D01*
X843229Y554369D01*
X841145Y551654D01*
X840330Y549686D01*
X794098D01*
X792691Y549406D01*
X792024Y550535D01*
X807398Y565909D01*
X840330D01*
X841145Y563941D01*
D02*
G37*
G36*
X208412Y582099D02*
Y562783D01*
X207573Y562396D01*
X207142Y562347D01*
X195344Y574144D01*
X193856Y575139D01*
X192100Y575488D01*
X159671D01*
X158855Y577456D01*
X156772Y580172D01*
X154056Y582256D01*
X152470Y582913D01*
Y584287D01*
X154056Y584944D01*
X156772Y587028D01*
X158855Y589744D01*
X159671Y591712D01*
X198799D01*
X208412Y582099D01*
D02*
G37*
G36*
X454697Y554815D02*
X454659Y554626D01*
X453281Y554207D01*
X325709Y681779D01*
X326177Y683108D01*
X326381Y683130D01*
X454697Y554815D01*
D02*
G37*
G36*
X228412Y615099D02*
Y608849D01*
X228167Y608652D01*
X226465Y608914D01*
X226244Y609244D01*
X210544Y624944D01*
X209056Y625939D01*
X207300Y626288D01*
X159671D01*
X158855Y628256D01*
X156772Y630972D01*
X154056Y633055D01*
X152471Y633712D01*
Y635087D01*
X154057Y635744D01*
X156772Y637827D01*
X158856Y640543D01*
X159671Y642511D01*
X201000D01*
X228412Y615099D01*
D02*
G37*
G36*
X771044Y690443D02*
X773128Y687728D01*
X775844Y685644D01*
X777812Y684829D01*
Y671301D01*
X762438Y655927D01*
X761309Y656594D01*
X761589Y658001D01*
Y684829D01*
X763557Y685645D01*
X766273Y687728D01*
X768356Y690444D01*
X769013Y692029D01*
X770387D01*
X771044Y690443D01*
D02*
G37*
G36*
X390045Y690444D02*
X392129Y687728D01*
X394845Y685645D01*
X396813Y684829D01*
Y652599D01*
X397093Y651192D01*
X395963Y650526D01*
X380589Y665900D01*
Y684829D01*
X382557Y685645D01*
X385272Y687728D01*
X387356Y690444D01*
X388013Y692031D01*
X389388D01*
X390045Y690444D01*
D02*
G37*
G36*
X364645D02*
X366729Y687728D01*
X369445Y685645D01*
X371413Y684829D01*
Y665735D01*
X370239Y665249D01*
X355190Y680299D01*
Y684830D01*
X357158Y685645D01*
X359873Y687729D01*
X361957Y690445D01*
X362614Y692030D01*
X363988D01*
X364645Y690444D01*
D02*
G37*
G36*
X974674Y724329D02*
X974148Y723059D01*
X930667D01*
X930372Y723000D01*
X930070D01*
X929792Y722885D01*
X929497Y722826D01*
X929246Y722659D01*
X928968Y722543D01*
X928755Y722330D01*
X928504Y722163D01*
X928337Y721912D01*
X928124Y721699D01*
X928009Y721421D01*
X927841Y721171D01*
X927782Y720875D01*
X927741Y720776D01*
X927262Y720352D01*
X926507Y719995D01*
X924133Y721265D01*
X923844Y721352D01*
X923579Y721494D01*
X919809Y722638D01*
X919509Y722667D01*
X919221Y722755D01*
X915300Y723141D01*
X915149Y723126D01*
X915000Y723156D01*
X914851Y723126D01*
X914700Y723141D01*
X910779Y722755D01*
X910491Y722667D01*
X910191Y722638D01*
X906421Y721494D01*
X906156Y721352D01*
X905867Y721265D01*
X903493Y719995D01*
X902738Y720352D01*
X902259Y720776D01*
X902218Y720875D01*
X902159Y721171D01*
X902021Y721376D01*
X901991Y721421D01*
X901876Y721699D01*
X901663Y721912D01*
X901496Y722163D01*
X901245Y722330D01*
X901032Y722543D01*
X900754Y722659D01*
X900503Y722826D01*
X900208Y722885D01*
X899930Y723000D01*
X899628D01*
X899333Y723059D01*
X870000D01*
X869125Y722885D01*
X868579Y722658D01*
X867837Y722163D01*
X867342Y721421D01*
X867115Y720875D01*
X866941Y720000D01*
X866941Y346938D01*
X865671Y346685D01*
X864730Y348958D01*
X862486Y351883D01*
X859561Y354127D01*
X858651Y354504D01*
Y355774D01*
X859057Y355942D01*
X861773Y358026D01*
X863856Y360742D01*
X865166Y363904D01*
X865613Y367298D01*
X865166Y370691D01*
X863856Y373854D01*
X861773Y376569D01*
X859057Y378653D01*
X857470Y379310D01*
Y380685D01*
X859057Y381342D01*
X861773Y383426D01*
X863856Y386142D01*
X865166Y389304D01*
X865613Y392698D01*
X865166Y396091D01*
X863856Y399254D01*
X861773Y401969D01*
X859057Y404053D01*
X857472Y404710D01*
Y406084D01*
X859058Y406741D01*
X861773Y408825D01*
X863857Y411541D01*
X865167Y414703D01*
X865614Y418097D01*
X865167Y421490D01*
X863857Y424653D01*
X861773Y427369D01*
X859058Y429452D01*
X857471Y430109D01*
Y431484D01*
X859058Y432141D01*
X861773Y434225D01*
X863857Y436941D01*
X865167Y440103D01*
X865614Y443497D01*
X865167Y446890D01*
X863857Y450053D01*
X861773Y452769D01*
X859058Y454852D01*
X857468Y455511D01*
Y456885D01*
X859056Y457543D01*
X861772Y459627D01*
X863856Y462342D01*
X865165Y465505D01*
X865612Y468898D01*
X865165Y472292D01*
X863856Y475454D01*
X861772Y478170D01*
X859056Y480254D01*
X857469Y480911D01*
Y482286D01*
X859056Y482943D01*
X861772Y485027D01*
X863856Y487742D01*
X865165Y490905D01*
X865612Y494298D01*
X865165Y497692D01*
X863856Y500854D01*
X861772Y503570D01*
X859056Y505654D01*
X857471Y506311D01*
Y507685D01*
X859057Y508342D01*
X861773Y510426D01*
X863856Y513142D01*
X865166Y516304D01*
X865613Y519698D01*
X865166Y523091D01*
X863856Y526254D01*
X861773Y528969D01*
X859057Y531053D01*
X857470Y531710D01*
Y533085D01*
X859057Y533742D01*
X861773Y535826D01*
X863856Y538541D01*
X865166Y541704D01*
X865613Y545098D01*
X865166Y548491D01*
X863856Y551654D01*
X861773Y554369D01*
X859057Y556453D01*
X857470Y557110D01*
Y558485D01*
X859057Y559142D01*
X861773Y561226D01*
X863856Y563941D01*
X865166Y567104D01*
X865613Y570498D01*
X865166Y573891D01*
X863856Y577054D01*
X861773Y579769D01*
X859057Y581853D01*
X857470Y582510D01*
Y583885D01*
X859057Y584542D01*
X861773Y586626D01*
X863856Y589342D01*
X865166Y592504D01*
X865613Y595898D01*
X865166Y599291D01*
X863856Y602454D01*
X861773Y605169D01*
X859057Y607253D01*
X857472Y607910D01*
Y609284D01*
X859058Y609941D01*
X861773Y612025D01*
X863857Y614741D01*
X865167Y617903D01*
X865614Y621297D01*
X865167Y624690D01*
X863857Y627853D01*
X861773Y630569D01*
X859058Y632652D01*
X857471Y633309D01*
Y634684D01*
X859058Y635341D01*
X861773Y637425D01*
X863857Y640141D01*
X865167Y643303D01*
X865614Y646697D01*
X865167Y650090D01*
X863857Y653253D01*
X861773Y655968D01*
X859058Y658052D01*
X857468Y658711D01*
Y660085D01*
X859056Y660743D01*
X861772Y662827D01*
X863856Y665542D01*
X865165Y668705D01*
X865612Y672098D01*
X865165Y675492D01*
X863856Y678654D01*
X861772Y681370D01*
X859056Y683454D01*
X857475Y684109D01*
X855894Y684764D01*
X852500Y685210D01*
X849106Y684764D01*
X847525Y684109D01*
X845944Y683454D01*
X843228Y681370D01*
X841144Y678654D01*
X840329Y676686D01*
X820098D01*
X818786Y676425D01*
X817967Y676086D01*
X816854Y675343D01*
X813658Y672147D01*
X812388Y672673D01*
Y684829D01*
X812775Y684989D01*
X814356Y685644D01*
X817072Y687728D01*
X819156Y690443D01*
X820465Y693605D01*
X820912Y696999D01*
X820465Y700393D01*
X819156Y703555D01*
X817072Y706271D01*
X814356Y708355D01*
X812775Y709010D01*
X811194Y709665D01*
X807800Y710111D01*
X804406Y709665D01*
X802825Y709010D01*
X801244Y708355D01*
X798528Y706271D01*
X796444Y703555D01*
X795787Y701969D01*
D01*
X795725Y701818D01*
X794475D01*
X794413Y701969D01*
D01*
X793755Y703555D01*
X791672Y706271D01*
X788956Y708355D01*
X787375Y709010D01*
X785794Y709665D01*
X782400Y710111D01*
X779006Y709665D01*
X777425Y709010D01*
X775844Y708355D01*
X773128Y706271D01*
X771044Y703555D01*
X770388Y701970D01*
D01*
X770325Y701820D01*
X769076D01*
X769013Y701970D01*
D01*
X768356Y703556D01*
X766273Y706272D01*
X763557Y708355D01*
X760394Y709665D01*
X757001Y710112D01*
X753607Y709665D01*
X750445Y708355D01*
X747729Y706272D01*
X745645Y703556D01*
X744988Y701970D01*
X744988D01*
X744926Y701819D01*
X743676D01*
X743614Y701970D01*
X743613D01*
X742956Y703556D01*
X740872Y706272D01*
X738157Y708355D01*
X736576Y709010D01*
X734995Y709665D01*
X731601Y710112D01*
X728207Y709665D01*
X726626Y709010D01*
X725045Y708355D01*
X722329Y706272D01*
X720245Y703556D01*
X719588Y701969D01*
D01*
X719526Y701819D01*
X718276D01*
X718214Y701969D01*
D01*
X717556Y703556D01*
X715472Y706272D01*
X712757Y708355D01*
X711176Y709010D01*
X709594Y709665D01*
X706201Y710112D01*
X702807Y709665D01*
X701226Y709010D01*
X699645Y708355D01*
X696929Y706272D01*
X694845Y703556D01*
X694677Y703150D01*
D01*
X694667Y703126D01*
X693417D01*
X693030Y704060D01*
X690786Y706985D01*
X687861Y709229D01*
X684455Y710640D01*
X683301Y710792D01*
Y697000D01*
Y683454D01*
Y683208D01*
X684455Y683360D01*
X687861Y684771D01*
X690786Y687015D01*
X693030Y689940D01*
X693417Y690874D01*
X694667D01*
X694677Y690850D01*
D01*
X694845Y690444D01*
X696929Y687728D01*
X699645Y685645D01*
X701226Y684990D01*
X702807Y684335D01*
X706201Y683888D01*
X709594Y684335D01*
X711176Y684990D01*
X712757Y685645D01*
X715472Y687728D01*
X717556Y690444D01*
X718214Y692031D01*
D01*
X718276Y692181D01*
X719526D01*
X719588Y692031D01*
D01*
X720245Y690444D01*
X722329Y687728D01*
X725045Y685645D01*
X726626Y684990D01*
X727013Y684829D01*
Y656501D01*
X714100Y643588D01*
X696000D01*
X694687Y643327D01*
X693868Y642988D01*
X692756Y642244D01*
X545761Y495250D01*
X544588Y495736D01*
Y507000D01*
X544327Y508312D01*
X543988Y509132D01*
X543244Y510244D01*
X539744Y513744D01*
X538632Y514488D01*
X537812Y514827D01*
X536500Y515088D01*
X534059D01*
Y516000D01*
X533885Y516875D01*
X533658Y517421D01*
X533163Y518163D01*
X532421Y518658D01*
X531875Y518885D01*
X531000Y519059D01*
X529588D01*
Y546067D01*
X530317Y547158D01*
X530769Y548250D01*
X531118Y550000D01*
X530769Y551750D01*
X530317Y552842D01*
X529326Y554326D01*
X527842Y555317D01*
X526750Y555769D01*
X525000Y556118D01*
X523250Y555769D01*
X522158Y555317D01*
X520674Y554326D01*
X519683Y552842D01*
X519231Y551750D01*
X518882Y550000D01*
X519231Y548250D01*
X519683Y547158D01*
X520412Y546067D01*
Y519059D01*
X517000D01*
X516125Y518885D01*
X515579Y518658D01*
X514837Y518163D01*
X514342Y517421D01*
X514115Y516875D01*
X513941Y516000D01*
Y505000D01*
X514158Y503912D01*
X514116Y503884D01*
X513455Y502895D01*
X513154Y502167D01*
X512922Y501000D01*
Y498000D01*
X524000D01*
Y493000D01*
X512922D01*
Y490000D01*
X513132Y488945D01*
X512250Y488769D01*
X511158Y488317D01*
X510858Y488117D01*
X509588Y488796D01*
Y551100D01*
X557046Y598557D01*
X557789Y599670D01*
X558129Y600489D01*
X558390Y601802D01*
Y684830D01*
X558777Y684990D01*
X560358Y685645D01*
X563073Y687729D01*
X565157Y690445D01*
X565814Y692030D01*
X565814D01*
X565876Y692180D01*
X567126D01*
X567188Y692030D01*
D01*
X567845Y690444D01*
X569929Y687728D01*
X572645Y685645D01*
X574226Y684990D01*
X575807Y684335D01*
X579201Y683888D01*
X582594Y684335D01*
X584176Y684990D01*
X585757Y685645D01*
X588473Y687728D01*
X590556Y690444D01*
X591213Y692031D01*
D01*
X591276Y692181D01*
X592526D01*
X592588Y692031D01*
D01*
X593245Y690444D01*
X595329Y687728D01*
X598045Y685645D01*
X599626Y684990D01*
X601207Y684335D01*
X604601Y683888D01*
X607994Y684335D01*
X609576Y684990D01*
X611157Y685645D01*
X613872Y687728D01*
X615956Y690444D01*
X616614Y692032D01*
D01*
X616676Y692182D01*
X617926D01*
X617989Y692032D01*
X617989D01*
X618646Y690445D01*
X620730Y687729D01*
X623446Y685645D01*
X625027Y684990D01*
X626608Y684335D01*
X630002Y683889D01*
X633395Y684335D01*
X634977Y684990D01*
X636558Y685645D01*
X639273Y687729D01*
X641357Y690445D01*
X642014Y692031D01*
D01*
X642077Y692182D01*
X643327D01*
X643389Y692031D01*
D01*
X643391Y692026D01*
X644046Y690445D01*
X646130Y687729D01*
X648846Y685645D01*
X650427Y684990D01*
X652008Y684335D01*
X655402Y683889D01*
X658795Y684335D01*
X660377Y684990D01*
X661958Y685645D01*
X664673Y687729D01*
X666757Y690445D01*
X666935Y690874D01*
X668185D01*
X668572Y689940D01*
X670816Y687015D01*
X673740Y684771D01*
X677146Y683360D01*
X678301Y683208D01*
Y697000D01*
Y710792D01*
X677146Y710640D01*
X673740Y709229D01*
X670816Y706985D01*
X668572Y704060D01*
X668185Y703127D01*
X666935D01*
X666757Y703557D01*
X664673Y706273D01*
X661958Y708356D01*
X660377Y709011D01*
X658795Y709666D01*
X655402Y710113D01*
X652008Y709666D01*
X650427Y709011D01*
X648846Y708356D01*
X646130Y706273D01*
X644046Y703557D01*
X643391Y701976D01*
X643389Y701970D01*
D01*
X643327Y701820D01*
X642077D01*
X642014Y701970D01*
D01*
X641357Y703557D01*
X639273Y706273D01*
X636558Y708356D01*
X634977Y709011D01*
X633395Y709666D01*
X630002Y710113D01*
X626608Y709666D01*
X625027Y709011D01*
X623446Y708356D01*
X620730Y706273D01*
X618646Y703557D01*
X617988Y701969D01*
D01*
X617926Y701818D01*
X616676D01*
X616614Y701969D01*
X616614D01*
X615956Y703556D01*
X613872Y706272D01*
X611157Y708355D01*
X609576Y709010D01*
X607994Y709665D01*
X604601Y710112D01*
X601207Y709665D01*
X599626Y709010D01*
X598045Y708355D01*
X595329Y706272D01*
X593245Y703556D01*
X592588Y701969D01*
D01*
X592526Y701819D01*
X591276D01*
X591213Y701969D01*
D01*
X590556Y703556D01*
X588473Y706272D01*
X585757Y708355D01*
X584176Y709010D01*
X582594Y709665D01*
X579201Y710112D01*
X575807Y709665D01*
X574226Y709010D01*
X572645Y708355D01*
X569929Y706272D01*
X567845Y703556D01*
X567189Y701971D01*
X567189D01*
X567126Y701820D01*
X565876D01*
X565814Y701971D01*
D01*
X565157Y703557D01*
X563073Y706273D01*
X560358Y708356D01*
X558777Y709011D01*
X557195Y709666D01*
X553802Y710113D01*
X550408Y709666D01*
X548827Y709011D01*
X547245Y708356D01*
X544530Y706273D01*
X542446Y703557D01*
X541789Y701970D01*
D01*
X541727Y701820D01*
X540477D01*
X540414Y701970D01*
D01*
X540412Y701976D01*
X539757Y703557D01*
X537673Y706273D01*
X534958Y708356D01*
X533377Y709011D01*
X531795Y709666D01*
X528402Y710113D01*
X525008Y709666D01*
X523427Y709011D01*
X521846Y708356D01*
X519130Y706273D01*
X517046Y703557D01*
X516391Y701976D01*
X516389Y701970D01*
D01*
X516327Y701820D01*
X515077D01*
X515014Y701970D01*
D01*
X514357Y703557D01*
X512273Y706273D01*
X509558Y708356D01*
X507976Y709011D01*
X506395Y709666D01*
X503002Y710113D01*
X499608Y709666D01*
X498027Y709011D01*
X496446Y708356D01*
X493730Y706273D01*
X491646Y703557D01*
X490989Y701970D01*
D01*
X490927Y701820D01*
X489677D01*
X489614Y701970D01*
D01*
X488957Y703557D01*
X486873Y706273D01*
X484158Y708356D01*
X482576Y709011D01*
X480995Y709666D01*
X477602Y710113D01*
X474208Y709666D01*
X472627Y709011D01*
X471045Y708356D01*
X468330Y706273D01*
X466246Y703557D01*
X465589Y701972D01*
X465589D01*
X465527Y701821D01*
X464277D01*
X464215Y701972D01*
D01*
X463558Y703558D01*
X461474Y706273D01*
X458759Y708357D01*
X457177Y709012D01*
X455596Y709667D01*
X452202Y710114D01*
X448809Y709667D01*
X447228Y709012D01*
X445646Y708357D01*
X442931Y706273D01*
X440847Y703558D01*
X440190Y701971D01*
D01*
X440127Y701821D01*
X438877D01*
X438815Y701971D01*
D01*
X438158Y703558D01*
X436074Y706273D01*
X433358Y708357D01*
X431777Y709012D01*
X430196Y709667D01*
X426802Y710114D01*
X423409Y709667D01*
X421828Y709012D01*
X420246Y708357D01*
X417531Y706273D01*
X415447Y703558D01*
X414789Y701968D01*
D01*
X414726Y701818D01*
X413476D01*
X413414Y701968D01*
D01*
X412756Y703556D01*
X410672Y706272D01*
X407957Y708355D01*
X404795Y709665D01*
X401401Y710112D01*
X398007Y709665D01*
X394845Y708355D01*
X392129Y706272D01*
X390045Y703556D01*
X389388Y701969D01*
X389388D01*
X389326Y701819D01*
X388076D01*
X388013Y701969D01*
X388013D01*
X387356Y703556D01*
X385272Y706272D01*
X382557Y708355D01*
X380976Y709010D01*
X379394Y709665D01*
X376001Y710112D01*
X372607Y709665D01*
X371026Y709010D01*
X369445Y708355D01*
X366729Y706272D01*
X364645Y703556D01*
X363989Y701971D01*
X363989D01*
X363926Y701820D01*
X362676D01*
X362614Y701971D01*
D01*
X361957Y703557D01*
X359873Y706273D01*
X357158Y708356D01*
X355577Y709011D01*
X353995Y709666D01*
X350602Y710113D01*
X347208Y709666D01*
X345627Y709011D01*
X344045Y708356D01*
X341330Y706273D01*
X339246Y703557D01*
X338589Y701970D01*
D01*
X338527Y701820D01*
X337277D01*
X337214Y701970D01*
D01*
X336557Y703557D01*
X334473Y706273D01*
X331758Y708356D01*
X330177Y709011D01*
X328595Y709666D01*
X325202Y710113D01*
X321808Y709666D01*
X320227Y709011D01*
X318645Y708356D01*
X315930Y706273D01*
X313846Y703557D01*
X313189Y701970D01*
D01*
X313127Y701820D01*
X311877D01*
X311814Y701970D01*
D01*
X311812Y701976D01*
X311157Y703557D01*
X309073Y706273D01*
X306358Y708356D01*
X304776Y709011D01*
X303195Y709666D01*
X299802Y710113D01*
X296408Y709666D01*
X294827Y709011D01*
X293246Y708356D01*
X290530Y706273D01*
X288446Y703557D01*
X287791Y701976D01*
X287789Y701970D01*
D01*
X287727Y701820D01*
X286477D01*
X286414Y701970D01*
D01*
X285757Y703557D01*
X283673Y706273D01*
X280958Y708356D01*
X279377Y709011D01*
X277795Y709666D01*
X274402Y710113D01*
X271008Y709666D01*
X269427Y709011D01*
X267845Y708356D01*
X265130Y706273D01*
X263046Y703557D01*
X262390Y701972D01*
X262390D01*
X262327Y701821D01*
X261077D01*
X261015Y701972D01*
D01*
X260358Y703558D01*
X258274Y706273D01*
X255558Y708357D01*
X253977Y709012D01*
X252396Y709667D01*
X249002Y710114D01*
X245609Y709667D01*
X244028Y709012D01*
X242446Y708357D01*
X239731Y706273D01*
X237647Y703558D01*
X237479Y703151D01*
D01*
X237469Y703127D01*
X236219D01*
X235831Y704062D01*
X233587Y706986D01*
X230663Y709231D01*
X227257Y710641D01*
X226102Y710793D01*
Y699700D01*
Y697002D01*
Y683210D01*
X227257Y683362D01*
X230663Y684773D01*
X233587Y687017D01*
X235831Y689941D01*
X236219Y690876D01*
X237469D01*
X237479Y690852D01*
D01*
X237647Y690446D01*
X239731Y687730D01*
X242446Y685646D01*
X243049Y685396D01*
D01*
X243395Y685253D01*
Y638998D01*
X243714Y637393D01*
X244128Y636392D01*
X245037Y635032D01*
X270392Y609677D01*
Y535000D01*
X270711Y533396D01*
X271126Y532395D01*
X272035Y531035D01*
X285035Y518035D01*
X286395Y517126D01*
X287396Y516711D01*
X289000Y516392D01*
X309879D01*
X310128Y516051D01*
X310441Y515122D01*
X309955Y514395D01*
X309654Y513667D01*
X309422Y512500D01*
Y509500D01*
X331578D01*
Y512500D01*
X331346Y513667D01*
X331045Y514395D01*
X330546Y515142D01*
X330829Y516015D01*
X331108Y516412D01*
X336067D01*
X337158Y515683D01*
X338250Y515231D01*
X340000Y514883D01*
X341750Y515231D01*
X342842Y515683D01*
X344326Y516674D01*
X345317Y518158D01*
X345769Y519250D01*
X346118Y521000D01*
X345769Y522750D01*
X345317Y523842D01*
X344326Y525326D01*
X342842Y526317D01*
X341750Y526769D01*
X340000Y527118D01*
X338250Y526769D01*
X337158Y526317D01*
X336067Y525588D01*
X330559D01*
Y527500D01*
X330385Y528375D01*
X330159Y528921D01*
X329663Y529663D01*
X328921Y530159D01*
X328375Y530385D01*
X327500Y530559D01*
X313500D01*
X312625Y530385D01*
X312079Y530159D01*
X311337Y529663D01*
X310842Y528921D01*
X310615Y528375D01*
X310463Y527608D01*
X291323D01*
X281608Y537323D01*
Y612000D01*
X281289Y613604D01*
X280874Y614605D01*
X279965Y615965D01*
X254610Y641320D01*
Y685253D01*
X254956Y685396D01*
D01*
X255558Y685646D01*
X258274Y687730D01*
X260358Y690446D01*
X261014Y692031D01*
X261014D01*
X261077Y692181D01*
X262327D01*
X262389Y692031D01*
D01*
X263046Y690445D01*
X265130Y687729D01*
X267845Y685645D01*
X269427Y684990D01*
X269813Y684830D01*
Y668598D01*
X270075Y667286D01*
X270414Y666467D01*
X271157Y665354D01*
X338756Y597756D01*
X339868Y597012D01*
X340687Y596673D01*
X342000Y596412D01*
X383100D01*
X425183Y554329D01*
X424657Y553059D01*
X423378D01*
X423239Y553756D01*
X422244Y555244D01*
X404744Y572744D01*
X403632Y573488D01*
X402812Y573827D01*
X401500Y574088D01*
X398006D01*
X397608Y575047D01*
X395845Y577345D01*
X393547Y579109D01*
X390872Y580217D01*
X388000Y580595D01*
X385128Y580217D01*
X382453Y579109D01*
X380155Y577345D01*
X378391Y575047D01*
X377283Y572372D01*
X376905Y569500D01*
X377283Y566628D01*
X378391Y563952D01*
X380155Y561655D01*
X382453Y559892D01*
X385128Y558783D01*
X388000Y558405D01*
X390872Y558783D01*
X393547Y559892D01*
X395845Y561655D01*
X397608Y563952D01*
X398006Y564912D01*
X399599D01*
X410629Y553883D01*
X410466Y552249D01*
X410337Y552163D01*
X409841Y551421D01*
X409615Y550875D01*
X409441Y550000D01*
Y549588D01*
X405000D01*
X403687Y549327D01*
X402868Y548988D01*
X401756Y548244D01*
X395756Y542244D01*
X395012Y541132D01*
X394673Y540312D01*
X394412Y539000D01*
Y493000D01*
X394673Y491688D01*
X395012Y490868D01*
X395756Y489756D01*
X415756Y469756D01*
X416868Y469012D01*
X417687Y468673D01*
X419000Y468412D01*
X428100D01*
X430412Y466100D01*
Y461000D01*
Y449000D01*
X430673Y447687D01*
X431012Y446868D01*
X431756Y445756D01*
X432868Y445012D01*
X433687Y444673D01*
X435000Y444412D01*
X436516Y444713D01*
X437395Y444126D01*
X437500Y444082D01*
Y445164D01*
Y445258D01*
X438245Y445755D01*
X438988Y446868D01*
X439328Y447687D01*
X439589Y449000D01*
Y455000D01*
X440411D01*
Y449000D01*
X440672Y447687D01*
X441012Y446868D01*
X441755Y445755D01*
X442500Y445258D01*
Y445164D01*
Y444082D01*
X442605Y444126D01*
X443484Y444713D01*
X445000Y444412D01*
X446313Y444673D01*
X447132Y445012D01*
X447500Y445258D01*
X447868Y445012D01*
X448687Y444673D01*
X450000Y444412D01*
X451313Y444673D01*
X452132Y445012D01*
X452500Y445258D01*
X452868Y445012D01*
X453687Y444673D01*
X455000Y444412D01*
X456313Y444673D01*
X457132Y445012D01*
X457500Y445258D01*
X457868Y445012D01*
X458687Y444673D01*
X460000Y444412D01*
X461313Y444673D01*
X462132Y445012D01*
X462500Y445258D01*
X462868Y445012D01*
X463687Y444673D01*
X465000Y444412D01*
X466313Y444673D01*
X467132Y445012D01*
X467500Y445258D01*
X467868Y445012D01*
X468687Y444673D01*
X470000Y444412D01*
X471313Y444673D01*
X472132Y445012D01*
X472500Y445258D01*
X472868Y445012D01*
X473687Y444673D01*
X475000Y444412D01*
X476313Y444673D01*
X477132Y445012D01*
X477500Y445258D01*
X477868Y445012D01*
X478687Y444673D01*
X480000Y444412D01*
X481313Y444673D01*
X482132Y445012D01*
X482500Y445258D01*
X482868Y445012D01*
X483687Y444673D01*
X485000Y444412D01*
X486313Y444673D01*
X487132Y445012D01*
X487500Y445258D01*
X487868Y445012D01*
X488687Y444673D01*
X490000Y444412D01*
X491313Y444673D01*
X492132Y445012D01*
X492500Y445258D01*
X492868Y445012D01*
X493687Y444673D01*
X495000Y444412D01*
X496313Y444673D01*
X497132Y445012D01*
X497500Y445258D01*
X497868Y445012D01*
X498687Y444673D01*
X500000Y444412D01*
X501313Y444673D01*
X502132Y445012D01*
X502500Y445258D01*
X502868Y445012D01*
X503687Y444673D01*
X505000Y444412D01*
X506313Y444673D01*
X507132Y445012D01*
X507500Y445258D01*
X507868Y445012D01*
X508244Y444857D01*
X508687Y444673D01*
X508852Y444640D01*
X508860Y444602D01*
X508926Y444574D01*
Y444268D01*
X509120Y443292D01*
X507674Y442326D01*
X506683Y440842D01*
X506606Y440656D01*
X506231Y439750D01*
X505882Y438000D01*
X506231Y436250D01*
X506683Y435158D01*
X507674Y433674D01*
X509158Y432683D01*
X510250Y432231D01*
X512000Y431883D01*
X513750Y432231D01*
X514842Y432683D01*
X516326Y433674D01*
X516402Y433789D01*
X517930D01*
X518674Y432674D01*
X520158Y431683D01*
X521250Y431231D01*
X523000Y430882D01*
X524142Y431110D01*
X524248Y431022D01*
X525346Y431477D01*
X526556Y428556D01*
X527556Y427556D01*
X531000Y426129D01*
X534444Y427556D01*
X534588Y427904D01*
Y430717D01*
X535719Y431244D01*
X535910Y431371D01*
X536250Y431231D01*
X538000Y430882D01*
X539750Y431231D01*
X540842Y431683D01*
X541933Y432412D01*
X548067D01*
X549158Y431683D01*
X550250Y431231D01*
X552000Y430882D01*
X553750Y431231D01*
X554842Y431683D01*
X556326Y432674D01*
X557317Y434158D01*
X557769Y435250D01*
X558117Y437000D01*
X557769Y438750D01*
X557317Y439842D01*
X556326Y441326D01*
X554842Y442317D01*
X553750Y442769D01*
X552000Y443117D01*
X550250Y442769D01*
X549158Y442317D01*
X548067Y441588D01*
X541933D01*
X540842Y442317D01*
X539871Y442719D01*
Y442745D01*
X539588Y442802D01*
Y444074D01*
X540000Y444412D01*
X541313Y444673D01*
X542132Y445012D01*
X542500Y445258D01*
X542868Y445012D01*
X543687Y444673D01*
X545000Y444412D01*
X546313Y444673D01*
X547132Y445012D01*
X547500Y445258D01*
X547868Y445012D01*
X548687Y444673D01*
X550000Y444412D01*
X551313Y444673D01*
X552132Y445012D01*
X552500Y445258D01*
X552868Y445012D01*
X553687Y444673D01*
X555000Y444412D01*
X556313Y444673D01*
X557132Y445012D01*
X558244Y445756D01*
X558988Y446868D01*
X559327Y447687D01*
X559492Y448516D01*
X560813Y448646D01*
X560886Y448470D01*
X562008Y447008D01*
X563470Y445886D01*
X564321Y445533D01*
X564500Y445459D01*
Y452000D01*
Y458541D01*
X564321Y458467D01*
X563470Y458115D01*
X562008Y456992D01*
X560886Y455530D01*
X560858Y455464D01*
X559588Y455717D01*
Y466100D01*
X695900Y602412D01*
X742127D01*
X742653Y601142D01*
X583600Y442088D01*
X566500D01*
X565187Y441827D01*
X564368Y441488D01*
X563256Y440744D01*
X562512Y439632D01*
X562173Y438813D01*
X561912Y437500D01*
X562173Y436187D01*
X562512Y435368D01*
X562758Y435000D01*
X562512Y434632D01*
X562344Y434225D01*
X562173Y433812D01*
X561912Y432500D01*
X562173Y431187D01*
X562512Y430368D01*
X562758Y430000D01*
X562512Y429632D01*
X562173Y428813D01*
X561912Y427500D01*
X562173Y426187D01*
X562512Y425368D01*
X562758Y425000D01*
X562512Y424632D01*
X562173Y423812D01*
X561912Y422500D01*
X562173Y421187D01*
X562250Y421001D01*
X562512Y420368D01*
X562758Y420000D01*
X562512Y419632D01*
X562173Y418812D01*
X561912Y417500D01*
X562173Y416187D01*
X562512Y415368D01*
X562758Y415000D01*
X562512Y414632D01*
X562214Y413913D01*
X562173Y413813D01*
X561912Y412500D01*
X562173Y411187D01*
X562512Y410368D01*
X562758Y410000D01*
X562512Y409632D01*
X562173Y408812D01*
X561912Y407500D01*
X562173Y406187D01*
X562512Y405368D01*
X562758Y405000D01*
X562512Y404632D01*
X562173Y403813D01*
X561912Y402500D01*
X562173Y401187D01*
X562512Y400368D01*
X562758Y400000D01*
X562512Y399632D01*
X562173Y398812D01*
X561912Y397500D01*
X562173Y396187D01*
X562512Y395368D01*
X562758Y395000D01*
X562512Y394632D01*
X562173Y393812D01*
X561912Y392500D01*
X562173Y391187D01*
X562512Y390368D01*
X562758Y390000D01*
X562512Y389632D01*
X562173Y388813D01*
X562061Y388248D01*
X561948Y388270D01*
X561629Y387500D01*
X562665Y385000D01*
X562022Y383447D01*
X561000Y383871D01*
X557556Y382444D01*
X557406Y382083D01*
X555252Y382976D01*
X555142Y382890D01*
X554000Y383117D01*
X552250Y382769D01*
X551158Y382317D01*
X549674Y381326D01*
X548683Y379842D01*
X548231Y378750D01*
X547882Y377000D01*
X548231Y375250D01*
X548683Y374158D01*
X549412Y373067D01*
Y369000D01*
X549539Y368358D01*
X548497Y367088D01*
X508500D01*
X507187Y366827D01*
X506931Y366721D01*
X506368Y366488D01*
X505256Y365744D01*
X499537Y360025D01*
X498250Y359769D01*
X497158Y359317D01*
X495674Y358326D01*
X494683Y356842D01*
X494231Y355750D01*
X493882Y354000D01*
X494231Y352250D01*
X494683Y351158D01*
X495674Y349674D01*
X497158Y348683D01*
X497423Y348573D01*
X498250Y348231D01*
X500000Y347882D01*
X501750Y348231D01*
X502577Y348573D01*
X502842Y348683D01*
X504326Y349674D01*
X505317Y351158D01*
X505769Y352250D01*
X506025Y353537D01*
X507153Y354664D01*
X508279Y353994D01*
X507882Y352000D01*
X508231Y350250D01*
X508642Y349256D01*
X508683Y349158D01*
X509674Y347674D01*
X511158Y346683D01*
X511550Y346520D01*
X512250Y346231D01*
X514000Y345882D01*
X515750Y346231D01*
X516613Y346588D01*
X516842Y346683D01*
X518326Y347674D01*
X518653Y348165D01*
X519240Y348086D01*
X519926Y347783D01*
X520231Y346250D01*
X520256Y346187D01*
X520683Y345158D01*
X521674Y343674D01*
X523158Y342683D01*
X524250Y342231D01*
X526000Y341883D01*
X527002Y342082D01*
X528082Y341002D01*
X527882Y340000D01*
X528231Y338250D01*
X528613Y337326D01*
X528683Y337158D01*
X529674Y335674D01*
X531158Y334683D01*
X532250Y334231D01*
X534000Y333882D01*
X535750Y334231D01*
X535813Y334257D01*
X535819Y334244D01*
X536025Y334285D01*
X536231Y333250D01*
X536683Y332158D01*
X537674Y330674D01*
X539158Y329683D01*
X540250Y329231D01*
X542000Y328882D01*
X543750Y329231D01*
X544842Y329683D01*
X546326Y330674D01*
X547037Y331739D01*
X547141Y331733D01*
X547168Y331798D01*
X548418D01*
X548683Y331158D01*
X549674Y329674D01*
X551158Y328683D01*
X551586Y328506D01*
X552250Y328231D01*
X554000Y327882D01*
X555750Y328231D01*
X556414Y328506D01*
X556842Y328683D01*
X558326Y329674D01*
X559317Y331158D01*
X559630Y331913D01*
X559769Y332250D01*
X559901Y332912D01*
X561574D01*
X561912Y332500D01*
X562173Y331187D01*
X562512Y330368D01*
X562758Y330000D01*
X562512Y329632D01*
X562173Y328813D01*
X561912Y327500D01*
X562173Y326187D01*
X562512Y325368D01*
X562758Y325000D01*
X562512Y324632D01*
X562173Y323813D01*
X561912Y322500D01*
X562173Y321187D01*
X562512Y320368D01*
X562758Y320000D01*
X562512Y319632D01*
X562173Y318813D01*
X561912Y317500D01*
X562173Y316187D01*
X562512Y315368D01*
X563256Y314256D01*
X564368Y313512D01*
X565187Y313173D01*
X566285Y312955D01*
X566512Y312655D01*
X566524Y312629D01*
X575000D01*
Y302392D01*
X578677D01*
X584392Y296677D01*
Y285191D01*
X583885Y284530D01*
X583533Y283679D01*
X583459Y283500D01*
X596541D01*
X596467Y283679D01*
X596115Y284530D01*
X595608Y285191D01*
Y299000D01*
X595289Y300604D01*
X594874Y301605D01*
X593965Y302965D01*
X585289Y311642D01*
X585746Y312912D01*
X590600D01*
X604412Y299100D01*
Y263000D01*
X604673Y261687D01*
X605012Y260868D01*
X605756Y259756D01*
X635653Y229858D01*
X635127Y228588D01*
X618900D01*
X559588Y287901D01*
Y300000D01*
Y306000D01*
X559327Y307313D01*
X558988Y308132D01*
X558244Y309244D01*
X557132Y309988D01*
X556822Y310116D01*
X556313Y310327D01*
X555000Y310588D01*
X553687Y310327D01*
X552868Y309988D01*
X552500Y309742D01*
X552132Y309988D01*
X551313Y310327D01*
X550000Y310588D01*
X548687Y310327D01*
X547868Y309988D01*
X547500Y309742D01*
X547132Y309988D01*
X546313Y310327D01*
X545000Y310588D01*
X543687Y310327D01*
X542868Y309988D01*
X542500Y309742D01*
X542132Y309988D01*
X541313Y310327D01*
X540000Y310588D01*
X538687Y310327D01*
X537868Y309988D01*
X537500Y309742D01*
X537132Y309988D01*
X536313Y310327D01*
X535000Y310588D01*
X533687Y310327D01*
X532868Y309988D01*
X532500Y309742D01*
X532132Y309988D01*
X531313Y310327D01*
X530000Y310588D01*
X528687Y310327D01*
X527868Y309988D01*
X527500Y309742D01*
X527132Y309988D01*
X526313Y310327D01*
X525000Y310588D01*
X523687Y310327D01*
X522868Y309988D01*
X522500Y309742D01*
X522132Y309988D01*
X521313Y310327D01*
X520000Y310588D01*
X518687Y310327D01*
X517868Y309988D01*
X517500Y309742D01*
X517132Y309988D01*
X516313Y310327D01*
X515000Y310588D01*
X513687Y310327D01*
X512868Y309988D01*
X512500Y309742D01*
X512132Y309988D01*
X511313Y310327D01*
X510000Y310588D01*
X509588Y310926D01*
Y317067D01*
X510317Y318158D01*
X510483Y318559D01*
X510769Y319250D01*
X511118Y321000D01*
X510769Y322750D01*
X510317Y323842D01*
X509326Y325326D01*
X507842Y326317D01*
X507500Y326459D01*
X506750Y326769D01*
X505000Y327118D01*
X504812Y327080D01*
X503914Y327978D01*
X504118Y329000D01*
X503769Y330750D01*
X503317Y331842D01*
X502326Y333326D01*
X500842Y334317D01*
X499750Y334769D01*
X498000Y335117D01*
X496250Y334769D01*
X495158Y334317D01*
X494357Y333782D01*
X493326Y335326D01*
X491842Y336317D01*
X490750Y336769D01*
X489000Y337118D01*
X487250Y336769D01*
X486158Y336317D01*
X484798Y335408D01*
X484362Y335267D01*
X483638D01*
X483202Y335408D01*
X481842Y336317D01*
X480750Y336769D01*
X479000Y337118D01*
X477250Y336769D01*
X476158Y336317D01*
X474674Y335326D01*
X473683Y333842D01*
X473231Y332750D01*
X472882Y331000D01*
X473231Y329250D01*
X473412Y328813D01*
X473683Y328158D01*
X474028Y327641D01*
X474654Y326660D01*
X474380Y326474D01*
X474403Y326419D01*
X474137Y326308D01*
X473704Y326014D01*
X472801Y325411D01*
X472120Y325520D01*
X471437Y325760D01*
X471327Y326312D01*
X470988Y327132D01*
X470244Y328244D01*
X463753Y334735D01*
X464336Y335949D01*
X465750Y336231D01*
X466842Y336683D01*
X468326Y337674D01*
X469317Y339158D01*
X469769Y340250D01*
X470118Y342000D01*
X469769Y343750D01*
X469744Y343812D01*
X469317Y344842D01*
X468326Y346326D01*
X466842Y347317D01*
X465750Y347769D01*
X464000Y348117D01*
X462250Y347769D01*
X461158Y347317D01*
X460067Y346588D01*
X445437D01*
X445341Y346652D01*
X443000Y347118D01*
X441250Y346769D01*
X440158Y346317D01*
X438674Y345326D01*
X437683Y343842D01*
X437231Y342750D01*
X436883Y341000D01*
X436970Y340559D01*
X436500Y340173D01*
Y333000D01*
Y326006D01*
X436506Y326000D01*
X437371Y323910D01*
X436677Y322871D01*
X432500D01*
X429334Y321559D01*
X428499Y322167D01*
X428326Y322392D01*
X428371Y322500D01*
X427335Y325000D01*
X428014Y326638D01*
X428534Y327468D01*
X429526Y327277D01*
X431500Y326459D01*
Y333000D01*
Y339541D01*
X430680Y339201D01*
X430470Y339114D01*
X429248Y338177D01*
X428342Y338346D01*
X428320Y338358D01*
X428016D01*
X427930Y338565D01*
X427870Y338596D01*
X427827Y338813D01*
X427488Y339632D01*
X427242Y340000D01*
X427488Y340368D01*
X427775Y341061D01*
X427827Y341187D01*
X428088Y342500D01*
X427827Y343812D01*
X427488Y344632D01*
X427242Y345000D01*
X427488Y345368D01*
X427535Y345483D01*
X427827Y346187D01*
X428088Y347500D01*
X427827Y348813D01*
X427488Y349632D01*
X427242Y350000D01*
X427488Y350368D01*
X427827Y351187D01*
X428088Y352500D01*
X427827Y353813D01*
X427488Y354632D01*
X427242Y355000D01*
X427488Y355368D01*
X427517Y355439D01*
X427827Y356187D01*
X428088Y357500D01*
X427827Y358812D01*
X427488Y359632D01*
X427242Y360000D01*
X427488Y360368D01*
X427827Y361187D01*
X428088Y362500D01*
X427827Y363813D01*
X427824Y363820D01*
X427747Y364006D01*
X427777Y364063D01*
X427739Y364256D01*
X428001Y364726D01*
X429552Y364959D01*
X432975Y361537D01*
X433231Y360250D01*
X433487Y359632D01*
X433683Y359158D01*
X434674Y357674D01*
X436158Y356683D01*
X436983Y356341D01*
X437250Y356231D01*
X439000Y355882D01*
X440750Y356231D01*
X441017Y356341D01*
X441842Y356683D01*
X443326Y357674D01*
X444317Y359158D01*
X444513Y359632D01*
X444769Y360250D01*
X445118Y362000D01*
X444980Y362690D01*
X445123Y362897D01*
X444909Y363414D01*
D01*
X445000Y363506D01*
X445760Y363820D01*
X445930Y364067D01*
X446750Y364231D01*
X447842Y364683D01*
X449326Y365674D01*
X450317Y367158D01*
X450769Y368250D01*
X451118Y370000D01*
X450769Y371750D01*
X450317Y372842D01*
X449408Y374202D01*
X449267Y374638D01*
Y375362D01*
X449408Y375798D01*
X450317Y377158D01*
X450695Y378070D01*
X450769Y378250D01*
X450843Y378618D01*
X450950Y378685D01*
X451407Y379789D01*
X452191Y379464D01*
X452322Y379547D01*
X453000Y379412D01*
X461682D01*
X464444Y380556D01*
X465871Y384000D01*
X464444Y387444D01*
X461682Y388588D01*
X456796D01*
X456117Y389858D01*
X456317Y390158D01*
X456404Y390368D01*
X456769Y391250D01*
X457118Y393000D01*
X456769Y394750D01*
X456317Y395842D01*
X455326Y397326D01*
X453842Y398317D01*
X452750Y398769D01*
X451000Y399118D01*
X449250Y398769D01*
X448158Y398317D01*
X446674Y397326D01*
X446516Y397088D01*
X428426D01*
X428088Y397500D01*
X427827Y398812D01*
X427701Y399118D01*
X427488Y399632D01*
X427242Y400000D01*
X427488Y400368D01*
X427827Y401187D01*
X428088Y402500D01*
X427827Y403813D01*
X427488Y404632D01*
X427242Y405000D01*
X427488Y405368D01*
X427827Y406187D01*
X428088Y407500D01*
X427827Y408812D01*
X427488Y409632D01*
X427242Y410000D01*
X427488Y410368D01*
X427827Y411187D01*
X428088Y412500D01*
X427827Y413813D01*
X427786Y413913D01*
X427488Y414632D01*
X427242Y415000D01*
X427488Y415368D01*
X427827Y416187D01*
X428088Y417500D01*
X427827Y418812D01*
X427488Y419632D01*
X427242Y420000D01*
X427488Y420368D01*
X427750Y421001D01*
X427827Y421187D01*
X428088Y422500D01*
X427827Y423812D01*
X427488Y424632D01*
X427242Y425000D01*
X427488Y425368D01*
X427827Y426187D01*
X428088Y427500D01*
X427827Y428813D01*
X427488Y429632D01*
X427242Y430000D01*
X427488Y430368D01*
X427827Y431187D01*
X428088Y432500D01*
X427827Y433812D01*
X427656Y434225D01*
X427488Y434632D01*
X427242Y435000D01*
X427488Y435368D01*
X427827Y436187D01*
X428088Y437500D01*
X427827Y438813D01*
X427488Y439632D01*
X426744Y440744D01*
X425632Y441488D01*
X424813Y441827D01*
X423500Y442088D01*
X323400D01*
X246588Y518900D01*
Y562487D01*
X247858Y562740D01*
X248391Y561453D01*
X250155Y559155D01*
X252453Y557392D01*
X255128Y556283D01*
X258000Y555905D01*
X260872Y556283D01*
X263547Y557392D01*
X265845Y559155D01*
X267608Y561453D01*
X268717Y564128D01*
X269095Y567000D01*
X268717Y569872D01*
X267608Y572547D01*
X265845Y574845D01*
X263547Y576609D01*
X260872Y577717D01*
X258000Y578095D01*
X255128Y577717D01*
X252453Y576609D01*
X250155Y574845D01*
X248391Y572547D01*
X247858Y571260D01*
X246588Y571512D01*
Y625000D01*
X246327Y626313D01*
X245988Y627132D01*
X245244Y628244D01*
X197745Y675743D01*
X196632Y676487D01*
X195813Y676826D01*
X194501Y677087D01*
X159671D01*
X159511Y677474D01*
X158856Y679055D01*
X156772Y681771D01*
X154057Y683855D01*
X152476Y684510D01*
X150894Y685165D01*
X147501Y685611D01*
X144107Y685165D01*
X142526Y684510D01*
X140945Y683855D01*
X138229Y681771D01*
X136145Y679055D01*
X135490Y677474D01*
X134835Y675893D01*
X134389Y672499D01*
X134835Y669106D01*
X135490Y667524D01*
X136145Y665943D01*
X138229Y663227D01*
X140945Y661144D01*
X142526Y660489D01*
X142531Y660487D01*
D01*
X142682Y660424D01*
Y659174D01*
X142531Y659112D01*
D01*
X142526Y659110D01*
X140945Y658455D01*
X138229Y656371D01*
X136145Y653655D01*
X135490Y652074D01*
X134835Y650493D01*
X134389Y647099D01*
X134835Y643706D01*
X135490Y642124D01*
X136145Y640543D01*
X138229Y637827D01*
X140945Y635744D01*
X142526Y635089D01*
X142530Y635087D01*
D01*
X142681Y635025D01*
Y633775D01*
X142530Y633712D01*
D01*
X140944Y633055D01*
X138228Y630972D01*
X136145Y628256D01*
X135490Y626675D01*
X134835Y625094D01*
X134388Y621700D01*
X134835Y618306D01*
X135490Y616725D01*
X136145Y615144D01*
X138228Y612428D01*
X140944Y610345D01*
X142530Y609687D01*
Y609687D01*
X142681Y609625D01*
Y608375D01*
X142530Y608313D01*
D01*
X142525Y608310D01*
X140944Y607655D01*
X138228Y605572D01*
X136145Y602856D01*
X135490Y601275D01*
X134835Y599694D01*
X134388Y596300D01*
X134835Y592906D01*
X135490Y591325D01*
X136145Y589744D01*
X138228Y587028D01*
X140944Y584945D01*
X142525Y584290D01*
X142531Y584287D01*
D01*
X142681Y584225D01*
Y582975D01*
X142531Y582913D01*
D01*
X142525Y582910D01*
X140944Y582256D01*
X138228Y580172D01*
X136145Y577456D01*
X135490Y575875D01*
X134835Y574294D01*
X134388Y570900D01*
X134835Y567506D01*
X135490Y565925D01*
X136145Y564344D01*
X138228Y561628D01*
X140944Y559545D01*
X142525Y558890D01*
X142531Y558887D01*
D01*
X142681Y558825D01*
Y557575D01*
X142531Y557513D01*
D01*
X142525Y557510D01*
X140944Y556856D01*
X138228Y554772D01*
X136145Y552056D01*
X135490Y550475D01*
X134835Y548894D01*
X134388Y545500D01*
X134835Y542106D01*
X135490Y540525D01*
X136145Y538944D01*
X138228Y536228D01*
X140944Y534145D01*
X142525Y533490D01*
X142529Y533488D01*
D01*
X142680Y533426D01*
Y532176D01*
X142529Y532113D01*
D01*
X142524Y532111D01*
X140943Y531456D01*
X138228Y529372D01*
X136144Y526657D01*
X134834Y523494D01*
X134387Y520101D01*
X134834Y516707D01*
X136144Y513545D01*
X138228Y510829D01*
X140943Y508745D01*
X142524Y508090D01*
X142530Y508088D01*
D01*
X142680Y508026D01*
Y506776D01*
X142530Y506713D01*
D01*
X142524Y506711D01*
X140943Y506056D01*
X138228Y503973D01*
X136144Y501257D01*
X135489Y499676D01*
X134834Y498094D01*
X134387Y494701D01*
X134834Y491307D01*
X135489Y489726D01*
X136144Y488145D01*
X138228Y485429D01*
X140943Y483345D01*
X142524Y482690D01*
X142531Y482688D01*
D01*
X142682Y482625D01*
Y481375D01*
X142531Y481313D01*
D01*
X142525Y481310D01*
X140944Y480656D01*
X138228Y478572D01*
X136145Y475856D01*
X135490Y474275D01*
X134835Y472694D01*
X134388Y469300D01*
X134835Y465906D01*
X135490Y464325D01*
X136145Y462744D01*
X138228Y460028D01*
X140944Y457945D01*
X142525Y457290D01*
X142531Y457287D01*
D01*
X142681Y457225D01*
Y455975D01*
X142531Y455913D01*
D01*
X142525Y455910D01*
X140944Y455256D01*
X138228Y453172D01*
X136145Y450456D01*
X136074Y450285D01*
X136074D01*
X135963Y450019D01*
X134718Y449771D01*
X129588Y454901D01*
Y479000D01*
X129327Y480312D01*
X128988Y481132D01*
X128244Y482244D01*
X114244Y496244D01*
X113132Y496988D01*
X112312Y497327D01*
X111000Y497588D01*
X91933D01*
X90890Y498858D01*
X91117Y500000D01*
X90652Y502341D01*
X89326Y504326D01*
X87341Y505652D01*
X85000Y506118D01*
X82659Y505652D01*
X80674Y504326D01*
X79348Y502341D01*
X78975Y500463D01*
X75506Y496994D01*
X74511Y495506D01*
X74162Y493750D01*
Y489478D01*
X73180Y488673D01*
X72250Y488858D01*
X70104Y488431D01*
X69875Y488278D01*
X69028Y488928D01*
X68250Y489250D01*
Y487164D01*
X67069Y485396D01*
X66642Y483250D01*
Y477750D01*
X64858D01*
Y483250D01*
X64431Y485396D01*
X63250Y487164D01*
Y489250D01*
X62472Y488928D01*
X61625Y488278D01*
X61396Y488431D01*
X59250Y488858D01*
X57104Y488431D01*
X56000Y487693D01*
X54896Y488431D01*
X52750Y488858D01*
X50604Y488431D01*
X49500Y487693D01*
X48396Y488431D01*
X46250Y488858D01*
X44104Y488431D01*
X43000Y487693D01*
X41896Y488431D01*
X39750Y488858D01*
X37604Y488431D01*
X36500Y487693D01*
X35396Y488431D01*
X33250Y488858D01*
X31104Y488431D01*
X30000Y487693D01*
X28896Y488431D01*
X26750Y488858D01*
X24604Y488431D01*
X23500Y487693D01*
X22396Y488431D01*
X20250Y488858D01*
X18104Y488431D01*
X16285Y487215D01*
X15069Y485396D01*
X14642Y483250D01*
Y472250D01*
X15069Y470104D01*
X16285Y468285D01*
X18104Y467069D01*
X20250Y466642D01*
X22396Y467069D01*
X23500Y467807D01*
X24604Y467069D01*
X26750Y466642D01*
X28896Y467069D01*
X30000Y467807D01*
X31104Y467069D01*
X33250Y466642D01*
X35396Y467069D01*
X36500Y467807D01*
X37604Y467069D01*
X39750Y466642D01*
X41896Y467069D01*
X43000Y467807D01*
X44104Y467069D01*
X46250Y466642D01*
X48396Y467069D01*
X49500Y467807D01*
X50604Y467069D01*
X52750Y466642D01*
X54896Y467069D01*
X56000Y467807D01*
X57104Y467069D01*
X59250Y466642D01*
X60180Y466827D01*
X61162Y466022D01*
Y463111D01*
X61007Y462992D01*
X59886Y461530D01*
X59459Y460500D01*
X66000D01*
Y458000D01*
X68500D01*
Y451459D01*
X69530Y451885D01*
X69834Y452118D01*
X70673Y451162D01*
X49506Y429994D01*
X48511Y428506D01*
X48290Y427393D01*
X47003Y427435D01*
X46820Y428827D01*
X46115Y430530D01*
X44992Y431992D01*
X43530Y433115D01*
X42500Y433541D01*
Y427000D01*
X40000D01*
Y424500D01*
X33459D01*
X33886Y423470D01*
X35008Y422008D01*
X35162Y421889D01*
Y418978D01*
X34180Y418173D01*
X33250Y418358D01*
X32320Y418173D01*
X31338Y418978D01*
Y434850D01*
X37101Y440612D01*
X38561Y440322D01*
X40902Y440788D01*
X42886Y442114D01*
X44213Y444098D01*
X44678Y446439D01*
X44213Y448781D01*
X42886Y450765D01*
X40902Y452091D01*
X38561Y452557D01*
X38123Y453765D01*
X37849Y455144D01*
X36523Y457129D01*
X34538Y458455D01*
X32197Y458921D01*
X29856Y458455D01*
X27871Y457129D01*
X26545Y455144D01*
X26079Y452803D01*
X26370Y451343D01*
X17006Y441980D01*
X16011Y440491D01*
X15662Y438735D01*
Y415783D01*
X15069Y414896D01*
X14642Y412750D01*
Y401750D01*
X15069Y399604D01*
X16285Y397785D01*
X18104Y396569D01*
X20250Y396142D01*
X22396Y396569D01*
X23500Y397307D01*
X24604Y396569D01*
X26750Y396142D01*
X28896Y396569D01*
X30000Y397307D01*
X31104Y396569D01*
X33250Y396142D01*
X35396Y396569D01*
X35625Y396722D01*
X36472Y396072D01*
X37250Y395750D01*
Y397836D01*
X38431Y399604D01*
X38858Y401750D01*
Y407250D01*
X40642D01*
Y401750D01*
X41069Y399604D01*
X42250Y397836D01*
Y395750D01*
X43028Y396072D01*
X43875Y396722D01*
X44104Y396569D01*
X46250Y396142D01*
X48396Y396569D01*
X49500Y397307D01*
X50604Y396569D01*
X52750Y396142D01*
X54896Y396569D01*
X55125Y396722D01*
X55972Y396072D01*
X57553Y395417D01*
X59250Y395194D01*
X59892Y395278D01*
X61162Y394187D01*
Y303650D01*
X54365Y296854D01*
X53928Y296760D01*
X52736Y297021D01*
X52641Y297163D01*
X51649Y297826D01*
X50479Y298059D01*
X11000D01*
X9829Y297826D01*
X8837Y297163D01*
X8174Y296171D01*
X7941Y295000D01*
Y81000D01*
X7941Y81000D01*
X7941Y20000D01*
X8174Y18829D01*
X8837Y17837D01*
X9829Y17174D01*
X11000Y16941D01*
X334000D01*
X334000Y16941D01*
X335171Y17174D01*
X336163Y17837D01*
X346163Y27837D01*
X346659Y28579D01*
X346885Y29125D01*
X347059Y30000D01*
X347059Y30000D01*
Y47830D01*
X347700Y48392D01*
Y62500D01*
Y76292D01*
X346545Y76140D01*
X343140Y74729D01*
X340215Y72485D01*
X337971Y69560D01*
X337594Y68651D01*
D01*
X337584Y68627D01*
X336334D01*
X336156Y69057D01*
X334072Y71772D01*
X331357Y73856D01*
X329776Y74511D01*
X329389Y74671D01*
Y135900D01*
X348244Y154756D01*
X348988Y155868D01*
X349327Y156687D01*
X349588Y158000D01*
Y163067D01*
X350317Y164158D01*
X350769Y165250D01*
X351118Y167000D01*
X350769Y168750D01*
X350317Y169842D01*
X349326Y171326D01*
X347842Y172317D01*
X346750Y172769D01*
X345000Y173118D01*
X343250Y172769D01*
X342158Y172317D01*
X340674Y171326D01*
X339683Y169842D01*
X339231Y168750D01*
X338882Y167000D01*
X339231Y165250D01*
X339683Y164158D01*
X340412Y163067D01*
Y159901D01*
X321557Y141045D01*
X320813Y139932D01*
X320474Y139113D01*
X320213Y137801D01*
Y74671D01*
X319826Y74511D01*
X318245Y73856D01*
X315529Y71772D01*
X313445Y69057D01*
X312790Y67476D01*
X312788Y67470D01*
D01*
X312726Y67320D01*
X311476D01*
X311413Y67470D01*
D01*
X311411Y67476D01*
X310756Y69057D01*
X308673Y71772D01*
X305957Y73856D01*
X304376Y74511D01*
X302794Y75166D01*
X299401Y75613D01*
X296007Y75166D01*
X294426Y74511D01*
X292845Y73856D01*
X290129Y71772D01*
X288045Y69057D01*
X287390Y67476D01*
X287388Y67470D01*
D01*
X287326Y67320D01*
X286076D01*
X286014Y67470D01*
D01*
X286011Y67476D01*
X285356Y69057D01*
X283272Y71772D01*
X280557Y73856D01*
X278976Y74511D01*
X277395Y75166D01*
X274001Y75613D01*
X270607Y75166D01*
X269026Y74511D01*
X267445Y73856D01*
X264729Y71772D01*
X262645Y69057D01*
X261990Y67476D01*
X261988Y67470D01*
D01*
X261926Y67320D01*
X260676D01*
X260613Y67470D01*
D01*
X260611Y67476D01*
X259956Y69057D01*
X257873Y71772D01*
X255157Y73856D01*
X253576Y74511D01*
X253189Y74671D01*
Y92700D01*
X356900Y196412D01*
X373264D01*
X373750Y195238D01*
X367756Y189244D01*
X367012Y188132D01*
X366673Y187313D01*
X366412Y186000D01*
Y182303D01*
X366007Y181992D01*
X364885Y180530D01*
X364533Y179679D01*
X364459Y179500D01*
X371000D01*
Y177000D01*
X373500D01*
Y170459D01*
X373679Y170533D01*
X374530Y170886D01*
X375992Y172008D01*
X377114Y173470D01*
X377142Y173536D01*
X378412Y173283D01*
Y76205D01*
X377457Y75368D01*
X375600Y75612D01*
X372206Y75165D01*
X370625Y74510D01*
X369044Y73856D01*
X366328Y71772D01*
X364244Y69056D01*
X364066Y68626D01*
X362816D01*
X362806Y68650D01*
D01*
X362429Y69560D01*
X360185Y72485D01*
X357260Y74729D01*
X353855Y76140D01*
X352700Y76292D01*
Y62500D01*
Y48708D01*
X353855Y48860D01*
X357260Y50271D01*
X360185Y52515D01*
X362429Y55440D01*
X362806Y56350D01*
D01*
X362816Y56374D01*
X364066D01*
X364244Y55944D01*
X366328Y53228D01*
X369044Y51145D01*
X370625Y50490D01*
X372206Y49835D01*
X375600Y49388D01*
X378994Y49835D01*
X380575Y50490D01*
X382156Y51145D01*
X384872Y53228D01*
X386955Y55944D01*
X387610Y57525D01*
X387613Y57532D01*
D01*
X387676Y57682D01*
X388926D01*
X388988Y57532D01*
D01*
X388990Y57526D01*
X389645Y55945D01*
X391729Y53229D01*
X394445Y51145D01*
X396026Y50490D01*
X397607Y49835D01*
X401001Y49389D01*
X404394Y49835D01*
X405976Y50490D01*
X407557Y51145D01*
X410272Y53229D01*
X412356Y55945D01*
X413011Y57526D01*
X413013Y57531D01*
D01*
X413076Y57682D01*
X414326D01*
X414388Y57531D01*
D01*
X414390Y57526D01*
X415045Y55945D01*
X417129Y53229D01*
X419845Y51145D01*
X421426Y50490D01*
X423007Y49835D01*
X426401Y49389D01*
X429795Y49835D01*
X431376Y50490D01*
X432957Y51145D01*
X435672Y53229D01*
X437756Y55945D01*
X438411Y57526D01*
X438413Y57530D01*
D01*
X438475Y57681D01*
X439725D01*
X439788Y57530D01*
D01*
X440444Y55944D01*
X442528Y53228D01*
X445244Y51144D01*
X448406Y49835D01*
X451800Y49388D01*
X455194Y49835D01*
X458356Y51144D01*
X461072Y53228D01*
X463156Y55944D01*
X463813Y57530D01*
D01*
X463875Y57681D01*
X465125D01*
X465187Y57530D01*
D01*
X465190Y57525D01*
X465844Y55944D01*
X467928Y53228D01*
X470644Y51145D01*
X472225Y50490D01*
X473806Y49835D01*
X477200Y49388D01*
X480594Y49835D01*
X482175Y50490D01*
X483756Y51145D01*
X486472Y53228D01*
X488555Y55944D01*
X489210Y57525D01*
X489213Y57530D01*
D01*
X489275Y57681D01*
X490525D01*
X490587Y57530D01*
D01*
X490589Y57525D01*
X491245Y55944D01*
X493328Y53228D01*
X496044Y51145D01*
X497625Y50490D01*
X499206Y49835D01*
X502600Y49388D01*
X505994Y49835D01*
X507575Y50490D01*
X509156Y51145D01*
X511872Y53228D01*
X513955Y55944D01*
X514610Y57525D01*
X514613Y57530D01*
D01*
X514675Y57681D01*
X515925D01*
X515987Y57530D01*
D01*
X515989Y57525D01*
X516645Y55944D01*
X518728Y53228D01*
X521444Y51145D01*
X523025Y50490D01*
X524606Y49835D01*
X528000Y49388D01*
X531394Y49835D01*
X532975Y50490D01*
X534556Y51145D01*
X537272Y53228D01*
X539355Y55944D01*
X540010Y57525D01*
X540012Y57529D01*
D01*
X540074Y57680D01*
X541324D01*
X541387Y57529D01*
D01*
X541389Y57524D01*
X542044Y55943D01*
X544128Y53228D01*
X546843Y51144D01*
X548424Y50489D01*
X550005Y49834D01*
X553399Y49387D01*
X556793Y49834D01*
X558374Y50489D01*
X559955Y51144D01*
X562671Y53228D01*
X564755Y55943D01*
X565410Y57524D01*
X565412Y57530D01*
D01*
X565474Y57680D01*
X566724D01*
X566786Y57530D01*
D01*
X566789Y57524D01*
X567444Y55943D01*
X569528Y53228D01*
X572243Y51144D01*
X573824Y50489D01*
X575406Y49834D01*
X578799Y49387D01*
X582193Y49834D01*
X583774Y50489D01*
X585355Y51144D01*
X588071Y53228D01*
X590155Y55943D01*
X590810Y57524D01*
X590813Y57533D01*
D01*
X590875Y57683D01*
X592125D01*
X592188Y57533D01*
D01*
X592190Y57526D01*
X592845Y55945D01*
X594929Y53229D01*
X597645Y51145D01*
X599226Y50490D01*
X600807Y49835D01*
X604201Y49389D01*
X607594Y49835D01*
X609176Y50490D01*
X610757Y51145D01*
X613473Y53229D01*
X615556Y55945D01*
X616211Y57526D01*
X616213Y57531D01*
D01*
X616276Y57682D01*
X617526D01*
X617588Y57531D01*
D01*
X617590Y57526D01*
X618245Y55945D01*
X620329Y53229D01*
X623045Y51145D01*
X624626Y50490D01*
X626207Y49835D01*
X629601Y49389D01*
X632994Y49835D01*
X634576Y50490D01*
X636157Y51145D01*
X638872Y53229D01*
X640956Y55945D01*
X641611Y57526D01*
X641613Y57530D01*
D01*
X641675Y57680D01*
X642925D01*
X642988Y57530D01*
D01*
X642990Y57525D01*
X643644Y55944D01*
X645728Y53228D01*
X648444Y51145D01*
X650025Y50490D01*
X651606Y49835D01*
X655000Y49388D01*
X658394Y49835D01*
X659975Y50490D01*
X661556Y51145D01*
X664272Y53228D01*
X666355Y55944D01*
X667010Y57525D01*
X667013Y57531D01*
D01*
X667075Y57681D01*
X668325D01*
X668387Y57531D01*
D01*
X669044Y55944D01*
X671128Y53228D01*
X673844Y51144D01*
X677006Y49835D01*
X680400Y49388D01*
X683794Y49835D01*
X686956Y51144D01*
X689672Y53228D01*
X691756Y55944D01*
X692413Y57530D01*
D01*
X692475Y57681D01*
X693725D01*
X693787Y57530D01*
D01*
X693790Y57525D01*
X694445Y55944D01*
X696528Y53228D01*
X699244Y51145D01*
X700825Y50490D01*
X702406Y49835D01*
X705800Y49388D01*
X709194Y49835D01*
X710775Y50490D01*
X712356Y51145D01*
X715072Y53228D01*
X717155Y55944D01*
X717810Y57525D01*
X717813Y57530D01*
D01*
X717875Y57681D01*
X719125D01*
X719187Y57530D01*
D01*
X719190Y57525D01*
X719845Y55944D01*
X721928Y53228D01*
X724644Y51145D01*
X726225Y50490D01*
X727806Y49835D01*
X731200Y49388D01*
X734594Y49835D01*
X736175Y50490D01*
X737756Y51145D01*
X740472Y53228D01*
X742555Y55944D01*
X743210Y57525D01*
X743212Y57529D01*
D01*
X743274Y57680D01*
X744524D01*
X744587Y57529D01*
D01*
X744589Y57524D01*
X745244Y55943D01*
X747327Y53228D01*
X750043Y51144D01*
X753205Y49834D01*
X756599Y49387D01*
X759993Y49834D01*
X763155Y51144D01*
X765871Y53228D01*
X767955Y55943D01*
X768610Y57524D01*
X768612Y57530D01*
D01*
X768674Y57680D01*
X769924D01*
X769986Y57530D01*
D01*
X769989Y57524D01*
X770644Y55943D01*
X772728Y53228D01*
X775443Y51144D01*
X777024Y50489D01*
X778605Y49834D01*
X781999Y49387D01*
X785393Y49834D01*
X786974Y50489D01*
X788555Y51144D01*
X791271Y53228D01*
X793355Y55943D01*
X794010Y57524D01*
X794013Y57533D01*
D01*
X794075Y57683D01*
X795325D01*
X795388Y57533D01*
D01*
X795390Y57526D01*
X796045Y55945D01*
X798129Y53229D01*
X800845Y51145D01*
X804007Y49835D01*
X807401Y49389D01*
X810794Y49835D01*
X813957Y51145D01*
X816673Y53229D01*
X818756Y55945D01*
X819411Y57526D01*
X820066Y59107D01*
X820513Y62501D01*
X820407Y63309D01*
X821609Y63902D01*
X826256Y59255D01*
X827369Y58511D01*
X828188Y58172D01*
X829501Y57911D01*
X840329D01*
X841144Y55943D01*
X843227Y53228D01*
X845943Y51144D01*
X847524Y50489D01*
X849106Y49834D01*
X852499Y49387D01*
X855893Y49834D01*
X857474Y50489D01*
X859055Y51144D01*
X861771Y53228D01*
X863855Y55943D01*
X865165Y59106D01*
X865611Y62499D01*
X865165Y65893D01*
X863855Y69055D01*
X861771Y71771D01*
X859055Y73855D01*
X857474Y74510D01*
X857469Y74512D01*
D01*
X857318Y74574D01*
Y75824D01*
X857469Y75887D01*
D01*
X857474Y75889D01*
X859055Y76544D01*
X861771Y78628D01*
X863855Y81343D01*
X865165Y84506D01*
X865611Y87899D01*
X865165Y91293D01*
X863855Y94455D01*
X861771Y97171D01*
X859055Y99255D01*
X857474Y99910D01*
X857470Y99911D01*
D01*
X857320Y99974D01*
Y101224D01*
X857470Y101286D01*
D01*
X857475Y101288D01*
X859056Y101943D01*
X861772Y104027D01*
X863856Y106742D01*
X865165Y109905D01*
X865612Y113298D01*
X865165Y116692D01*
X863856Y119854D01*
X861772Y122570D01*
X859056Y124654D01*
X857475Y125309D01*
X857469Y125311D01*
D01*
X857319Y125373D01*
Y126623D01*
X857469Y126686D01*
D01*
X857475Y126688D01*
X859056Y127343D01*
X861772Y129427D01*
X863856Y132142D01*
X865165Y135305D01*
X865612Y138698D01*
X865165Y142092D01*
X863856Y145254D01*
X861772Y147970D01*
X859056Y150054D01*
X857475Y150709D01*
X857469Y150711D01*
D01*
X857319Y150773D01*
Y152023D01*
X857469Y152086D01*
D01*
X857475Y152088D01*
X859056Y152743D01*
X861772Y154827D01*
X863856Y157542D01*
X865165Y160705D01*
X865612Y164098D01*
X865165Y167492D01*
X863856Y170654D01*
X861772Y173370D01*
X859056Y175454D01*
X857475Y176109D01*
X857469Y176111D01*
D01*
X857319Y176173D01*
Y177423D01*
X857469Y177486D01*
D01*
X857475Y177488D01*
X859056Y178143D01*
X861772Y180227D01*
X863856Y182942D01*
X865165Y186105D01*
X865612Y189498D01*
X865165Y192892D01*
X863856Y196054D01*
X861772Y198770D01*
X859056Y200854D01*
X857475Y201509D01*
X857471Y201511D01*
D01*
X857320Y201573D01*
Y202823D01*
X857471Y202885D01*
D01*
X857476Y202887D01*
X859057Y203542D01*
X861773Y205626D01*
X863856Y208342D01*
X865166Y211504D01*
X865613Y214898D01*
X865166Y218291D01*
X863856Y221454D01*
X861773Y224169D01*
X859057Y226253D01*
X857476Y226908D01*
X857470Y226910D01*
D01*
X857320Y226973D01*
Y228223D01*
X857470Y228285D01*
D01*
X857476Y228287D01*
X859057Y228942D01*
X861773Y231026D01*
X863856Y233741D01*
X865166Y236904D01*
X865613Y240298D01*
X865166Y243691D01*
X863856Y246854D01*
X861773Y249569D01*
X859057Y251653D01*
X857476Y252308D01*
X857469Y252311D01*
D01*
X857318Y252373D01*
Y253623D01*
X857469Y253685D01*
D01*
X857475Y253688D01*
X859056Y254343D01*
X861772Y256427D01*
X863856Y259142D01*
X865165Y262305D01*
X866392Y262083D01*
Y257000D01*
X866711Y255396D01*
X867126Y254395D01*
X868035Y253035D01*
X911891Y209179D01*
Y150449D01*
X911545Y150306D01*
D01*
X910943Y150056D01*
X908227Y147972D01*
X906143Y145257D01*
X905965Y144826D01*
X904715D01*
X904705Y144851D01*
D01*
X904328Y145761D01*
X902084Y148686D01*
X899159Y150930D01*
X895753Y152340D01*
X894599Y152493D01*
Y138701D01*
X892099D01*
Y136201D01*
X878307D01*
X878459Y135046D01*
X879870Y131640D01*
X882114Y128716D01*
X884672Y126753D01*
X884775Y126410D01*
Y125592D01*
X884672Y125249D01*
X882114Y123286D01*
X879870Y120361D01*
X878459Y116955D01*
X878307Y115801D01*
X892099D01*
Y110801D01*
X878307D01*
X878459Y109646D01*
X879870Y106240D01*
X882114Y103316D01*
X884671Y101354D01*
X884774Y101011D01*
X884774Y100191D01*
X884671Y99849D01*
X882113Y97886D01*
X879869Y94962D01*
X879164Y93259D01*
X878458Y91556D01*
X878306Y90402D01*
X892098D01*
Y85402D01*
X878306D01*
X878458Y84247D01*
X879164Y82544D01*
X879869Y80841D01*
X882113Y77917D01*
X884672Y75953D01*
X884775Y75609D01*
X884775Y74794D01*
X884673Y74449D01*
X882114Y72486D01*
X879870Y69561D01*
X878459Y66156D01*
X878307Y65001D01*
X892099D01*
Y62501D01*
X894599D01*
Y48709D01*
X895753Y48861D01*
X899159Y50272D01*
X902084Y52516D01*
X904328Y55440D01*
X904705Y56351D01*
D01*
X904715Y56375D01*
X905965D01*
X906143Y55945D01*
X908227Y53229D01*
X910943Y51145D01*
X912524Y50490D01*
X914105Y49835D01*
X917499Y49389D01*
X920892Y49835D01*
X922474Y50490D01*
X924055Y51145D01*
X926770Y53229D01*
X928854Y55945D01*
X929509Y57526D01*
X930164Y59107D01*
X930611Y62501D01*
X930164Y65894D01*
X929509Y67476D01*
X928854Y69057D01*
X926770Y71772D01*
X924055Y73856D01*
X923452Y74106D01*
D01*
X923106Y74249D01*
Y76154D01*
X923452Y76297D01*
D01*
X924054Y76546D01*
X926769Y78630D01*
X928853Y81346D01*
X930163Y84508D01*
X930610Y87902D01*
X930163Y91295D01*
X928853Y94458D01*
X926769Y97173D01*
X924054Y99257D01*
X923451Y99507D01*
D01*
X923106Y99650D01*
Y101552D01*
X923451Y101695D01*
D01*
X924055Y101945D01*
X926770Y104029D01*
X928854Y106745D01*
X929509Y108326D01*
X930164Y109907D01*
X930611Y113301D01*
X930164Y116694D01*
X929509Y118276D01*
X928854Y119857D01*
X926770Y122572D01*
X924055Y124656D01*
X923452Y124906D01*
D01*
X923106Y125049D01*
Y126952D01*
X923452Y127096D01*
D01*
X924055Y127345D01*
X926770Y129429D01*
X928854Y132145D01*
X929104Y132748D01*
D01*
X929247Y133093D01*
X957701D01*
X959847Y133520D01*
X961666Y134735D01*
X978965Y152035D01*
X980181Y153854D01*
X980608Y156000D01*
Y165752D01*
X981556Y166145D01*
X984272Y168228D01*
X986356Y170944D01*
X987012Y172529D01*
X988387D01*
X989044Y170943D01*
X991127Y168228D01*
X993843Y166144D01*
X997005Y164834D01*
X1000399Y164387D01*
X1003793Y164834D01*
X1006955Y166144D01*
X1009671Y168228D01*
X1011755Y170943D01*
X1013065Y174105D01*
X1013511Y177499D01*
X1013065Y180893D01*
X1011755Y184055D01*
X1009671Y186771D01*
X1006955Y188855D01*
X1006007Y189247D01*
Y336658D01*
X1006352Y336941D01*
X1022000D01*
X1023170Y337174D01*
X1024163Y337837D01*
X1024826Y338829D01*
X1025059Y340000D01*
X1025059Y672148D01*
X1026329Y672674D01*
X1028270Y670733D01*
Y79595D01*
X956733Y8059D01*
X6059D01*
Y743734D01*
X955268D01*
X974674Y724329D01*
D02*
G37*
G36*
X1022000Y673000D02*
X1022000Y340000D01*
X1006352D01*
Y342142D01*
X1009184Y343316D01*
X1011953Y350000D01*
X1000000D01*
Y352500D01*
X997500D01*
Y364453D01*
X991992Y362172D01*
X990953Y362866D01*
Y432062D01*
X991296Y432204D01*
X992247Y434500D01*
Y444500D01*
X991659Y445919D01*
X992061Y447439D01*
X993329Y450500D01*
Y453000D01*
X982500D01*
Y458000D01*
X993329D01*
Y458206D01*
X994854D01*
X997870Y456957D01*
X1001457Y453370D01*
X1002706Y450354D01*
Y442586D01*
X1002953Y441990D01*
Y441344D01*
X1003410Y440887D01*
X1003657Y440290D01*
X1004254Y440043D01*
X1004710Y439586D01*
X1005865Y439108D01*
X1006511D01*
X1007108Y438861D01*
X1007705Y439108D01*
X1008351D01*
X1008807Y439565D01*
X1009404Y439812D01*
X1012296Y442704D01*
X1013247Y445000D01*
Y476000D01*
X1012296Y478296D01*
X1002296Y488296D01*
X1000000Y489247D01*
X978500D01*
X977997Y490000D01*
Y536000D01*
X977046Y538296D01*
X974750Y539247D01*
X961250D01*
X958954Y538296D01*
X958003Y536000D01*
Y490000D01*
X957500Y489247D01*
X954183D01*
X953680Y490000D01*
Y510500D01*
X942600D01*
Y513000D01*
X940100D01*
Y540330D01*
X935850D01*
X933939Y539538D01*
X933247Y540000D01*
X932296Y542296D01*
X930000Y543247D01*
X927706D01*
X927156Y543019D01*
X926561Y543038D01*
X926053Y542562D01*
X925410Y542296D01*
X925182Y541746D01*
X924748Y541339D01*
X924182Y540089D01*
X924161Y540013D01*
X924140Y539993D01*
X923177Y539247D01*
X910450D01*
X910259Y539938D01*
Y539993D01*
X910239Y540014D01*
X910218Y540089D01*
X909652Y541339D01*
X909218Y541746D01*
X908990Y542296D01*
X908347Y542562D01*
X907839Y543038D01*
X907244Y543019D01*
X906694Y543247D01*
X894000D01*
X891704Y542296D01*
X890753Y540000D01*
Y467000D01*
X891704Y464704D01*
X924704Y431704D01*
X927000Y430753D01*
X971336D01*
X971644Y430880D01*
X971970Y430815D01*
X972757Y431341D01*
X973632Y431704D01*
X973760Y432011D01*
X973916Y432116D01*
X976000Y431253D01*
X979047D01*
Y361924D01*
X977797Y361177D01*
X970000Y364406D01*
X961581Y360919D01*
X958094Y352500D01*
X961581Y344081D01*
X968416Y341250D01*
X968167Y340000D01*
X886953D01*
Y405534D01*
X892966Y411547D01*
X905560D01*
X906581Y409081D01*
X915000Y405594D01*
X923419Y409081D01*
X926906Y417500D01*
X923419Y425919D01*
X915000Y429406D01*
X906581Y425919D01*
X905560Y423453D01*
X890500D01*
X886291Y421710D01*
X876790Y412210D01*
X875047Y408000D01*
Y340000D01*
X870000D01*
X870000Y720000D01*
X899333D01*
X899577Y718774D01*
X898450Y718307D01*
X896693Y716550D01*
X890352Y701243D01*
Y700000D01*
Y698757D01*
X896693Y683450D01*
X898450Y681693D01*
X913757Y675352D01*
X914403D01*
X915000Y675105D01*
X915597Y675352D01*
X916243D01*
X931550Y681693D01*
X933307Y683450D01*
X939648Y698757D01*
Y700000D01*
Y701243D01*
X933307Y716550D01*
X931550Y718307D01*
X930423Y718774D01*
X930667Y720000D01*
X975000D01*
X1022000Y673000D01*
D02*
G37*
G36*
X237412Y623100D02*
Y620783D01*
X236573Y620396D01*
X236142Y620347D01*
X206145Y650343D01*
X204657Y651338D01*
X202901Y651687D01*
X159671D01*
X158856Y653655D01*
X156772Y656371D01*
X154057Y658455D01*
X152470Y659112D01*
Y660487D01*
X154057Y661144D01*
X156772Y663227D01*
X158856Y665943D01*
X159671Y667911D01*
X192600D01*
X237412Y623100D01*
D02*
G37*
G36*
X796444Y690443D02*
X798528Y687728D01*
X801244Y685644D01*
X803212Y684829D01*
Y673700D01*
X741099Y611588D01*
X695736D01*
X695250Y612761D01*
X699901Y617412D01*
X735000D01*
X736756Y617761D01*
X738244Y618756D01*
X785644Y666156D01*
X786639Y667644D01*
X786988Y669400D01*
Y684829D01*
X788956Y685644D01*
X791672Y687728D01*
X793755Y690443D01*
X794413Y692030D01*
X795787D01*
X796444Y690443D01*
D02*
G37*
G36*
X745645Y690444D02*
X747729Y687728D01*
X750445Y685645D01*
X752413Y684829D01*
Y659901D01*
X728100Y635588D01*
X720873D01*
X720347Y636858D01*
X734845Y651357D01*
X735840Y652845D01*
X736189Y654601D01*
Y684829D01*
X738157Y685645D01*
X740872Y687728D01*
X742956Y690444D01*
X743613Y692030D01*
X744988D01*
X745645Y690444D01*
D02*
G37*
G36*
X415447Y690446D02*
X417531Y687730D01*
X420246Y685646D01*
X422214Y684831D01*
Y640198D01*
X422246Y640039D01*
X421075Y639413D01*
X405989Y654500D01*
Y684829D01*
X407957Y685645D01*
X410672Y687728D01*
X412756Y690444D01*
X413415Y692033D01*
X414789D01*
X415447Y690446D01*
D02*
G37*
G36*
X491646Y690445D02*
X493730Y687729D01*
X496446Y685645D01*
X498414Y684830D01*
Y641902D01*
X495761Y639250D01*
X494588Y639736D01*
Y646000D01*
X494239Y647756D01*
X493244Y649244D01*
X482190Y660299D01*
Y684830D01*
X484158Y685645D01*
X486873Y687729D01*
X488957Y690445D01*
X489614Y692031D01*
X490989D01*
X491646Y690445D01*
D02*
G37*
G36*
X182774Y474738D02*
X182107Y473608D01*
X180700Y473888D01*
X159671D01*
X158855Y475856D01*
X156772Y478572D01*
X154056Y480656D01*
X152468Y481313D01*
Y482688D01*
X154055Y483345D01*
X156771Y485429D01*
X158855Y488145D01*
X159670Y490113D01*
X167399D01*
X182774Y474738D01*
D02*
G37*
G36*
X193412Y537099D02*
Y520736D01*
X192239Y520250D01*
X189144Y523345D01*
X187655Y524340D01*
X185899Y524689D01*
X159670D01*
X158855Y526657D01*
X156771Y529372D01*
X154055Y531456D01*
X152470Y532113D01*
Y533488D01*
X154056Y534145D01*
X156772Y536228D01*
X158855Y538944D01*
X159671Y540912D01*
X189599D01*
X193412Y537099D01*
D02*
G37*
G36*
X186412Y513100D02*
Y486000D01*
X186443Y485841D01*
X185273Y485216D01*
X172544Y497945D01*
X171055Y498940D01*
X169299Y499289D01*
X159670D01*
X158855Y501257D01*
X156771Y503973D01*
X154055Y506056D01*
X152469Y506713D01*
Y508088D01*
X154055Y508745D01*
X156771Y510829D01*
X158855Y513545D01*
X159670Y515513D01*
X183999D01*
X186412Y513100D01*
D02*
G37*
G36*
X841145Y513142D02*
X843229Y510426D01*
X845945Y508342D01*
X847530Y507686D01*
Y506311D01*
X845944Y505654D01*
X843228Y503570D01*
X841144Y500854D01*
X840329Y498886D01*
X775298D01*
X775140Y498855D01*
X774514Y500025D01*
X789598Y515109D01*
X840330D01*
X841145Y513142D01*
D02*
G37*
G36*
X929811Y539811D02*
X930000Y539354D01*
Y493000D01*
X932603Y490397D01*
Y490000D01*
X933554Y487704D01*
X935850Y486753D01*
X936247D01*
X937000Y486000D01*
X962047D01*
Y483000D01*
X963791Y478791D01*
X970790Y471791D01*
X975000Y470047D01*
X975000Y470047D01*
X988693D01*
X990000Y469506D01*
X994592Y471408D01*
X996494Y476000D01*
X994592Y480592D01*
X990000Y482494D01*
X988693Y481953D01*
X977466D01*
X974669Y484750D01*
X975187Y486000D01*
X999354D01*
X1000457Y485543D01*
X1009543Y476457D01*
X1010000Y475354D01*
Y445646D01*
X1009543Y444543D01*
X1007108Y442108D01*
X1005953Y442586D01*
Y450354D01*
X1005706Y450951D01*
Y451597D01*
X1004457Y454613D01*
X1004000Y455070D01*
X1003753Y455666D01*
X1000166Y459253D01*
X999570Y459500D01*
X999113Y459957D01*
X996097Y461206D01*
X995451D01*
X994854Y461453D01*
X993329D01*
X993092Y461355D01*
X991721Y461769D01*
X991296Y462796D01*
X989000Y463747D01*
X976000D01*
X973704Y462796D01*
X972753Y460500D01*
Y450500D01*
X973341Y449081D01*
X972939Y447561D01*
X971670Y444500D01*
Y442000D01*
X982500D01*
Y437000D01*
X971670D01*
Y434500D01*
X970525Y434000D01*
X927646D01*
X926543Y434457D01*
X918892Y442108D01*
X894457Y466543D01*
X894000Y467646D01*
Y539354D01*
X894189Y539811D01*
X894646Y540000D01*
X906639D01*
X906683Y539983D01*
X906716Y539950D01*
X907155Y538981D01*
X907235Y538691D01*
X906120Y536000D01*
Y515500D01*
X928280D01*
Y536000D01*
X927141Y538750D01*
X927684Y539950D01*
X927717Y539983D01*
X927761Y540000D01*
X929354D01*
X929811Y539811D01*
D02*
G37*
G36*
X445412Y534100D02*
Y497736D01*
X444239Y497250D01*
X431244Y510244D01*
X430132Y510988D01*
X429783Y511132D01*
X429737Y511243D01*
X429327Y511324D01*
X429326Y511326D01*
X427842Y512317D01*
X426750Y512769D01*
X425000Y513117D01*
X423250Y512769D01*
X422158Y512317D01*
X420674Y511326D01*
X419683Y509842D01*
X419231Y508750D01*
X418882Y507000D01*
X419231Y505250D01*
X419683Y504158D01*
X420674Y502674D01*
X422158Y501683D01*
X423250Y501231D01*
X425000Y500882D01*
X426750Y501231D01*
X426843Y501269D01*
X426859Y501252D01*
X427193Y501319D01*
X440412Y488100D01*
Y484736D01*
X439239Y484250D01*
X426244Y497244D01*
X425132Y497988D01*
X424313Y498327D01*
X423000Y498588D01*
X421303D01*
X420993Y498992D01*
X419530Y500115D01*
X418679Y500467D01*
X418500Y500541D01*
Y494000D01*
Y487459D01*
X421357Y488642D01*
X421451Y488661D01*
X431516Y478596D01*
X430808Y477536D01*
X430000Y477871D01*
X421017D01*
X412275Y486613D01*
X412983Y487673D01*
X413500Y487459D01*
Y491500D01*
X409459D01*
X409533Y491321D01*
X409673Y490983D01*
D01*
X409885Y490470D01*
X410118Y490166D01*
X409162Y489327D01*
X403588Y494901D01*
Y537099D01*
X406900Y540412D01*
X409441D01*
Y540000D01*
X409615Y539125D01*
X409841Y538579D01*
X410337Y537837D01*
X410447Y537764D01*
Y536236D01*
X410337Y536163D01*
X409841Y535421D01*
X409615Y534875D01*
X409441Y534000D01*
Y524000D01*
X409615Y523125D01*
X409841Y522579D01*
X410337Y521837D01*
X411079Y521342D01*
X411625Y521115D01*
X412500Y520941D01*
X425500D01*
X426375Y521115D01*
X426921Y521342D01*
X427663Y521837D01*
X428158Y522579D01*
X428385Y523125D01*
X428559Y524000D01*
Y524412D01*
X432067D01*
X433158Y523683D01*
X434250Y523231D01*
X436000Y522882D01*
X437750Y523231D01*
X438842Y523683D01*
X440326Y524674D01*
X441317Y526158D01*
X441769Y527250D01*
X442118Y529000D01*
X441769Y530750D01*
X441317Y531842D01*
X440326Y533326D01*
X438842Y534317D01*
X437750Y534769D01*
X436000Y535117D01*
X434250Y534769D01*
X433158Y534317D01*
X432067Y533588D01*
X428559D01*
Y534000D01*
X428385Y534875D01*
X428158Y535421D01*
X427663Y536163D01*
X427553Y536236D01*
Y537764D01*
X427663Y537837D01*
X428158Y538579D01*
X428385Y539125D01*
X428559Y540000D01*
Y549156D01*
X429829Y549683D01*
X445412Y534100D01*
D02*
G37*
%LPC*%
G36*
X716500Y365500D02*
X712459D01*
X713643Y362643D01*
X716500Y361459D01*
Y365500D01*
D02*
G37*
G36*
X668500Y364329D02*
X664500D01*
Y357500D01*
X672830D01*
Y360000D01*
X671561Y363061D01*
X668500Y364329D01*
D02*
G37*
G36*
X70000Y174453D02*
X63316Y171684D01*
X60547Y165000D01*
X70000D01*
Y174453D01*
D02*
G37*
G36*
X40000Y239406D02*
X31581Y235919D01*
X28094Y227500D01*
X30147Y222543D01*
X30129Y222500D01*
Y178747D01*
X28500D01*
X26204Y177796D01*
X25253Y175500D01*
Y165500D01*
X25841Y164081D01*
X25439Y162561D01*
X24170Y159500D01*
Y157000D01*
X35000D01*
X45830D01*
Y159500D01*
X44562Y162561D01*
X44159Y164081D01*
X44747Y165500D01*
Y175500D01*
X43796Y177796D01*
X41500Y178747D01*
X39871D01*
Y215507D01*
X40000Y215594D01*
X48419Y219081D01*
X51906Y227500D01*
X48419Y235919D01*
X40000Y239406D01*
D02*
G37*
G36*
X70000Y160000D02*
X60547D01*
X63316Y153316D01*
X70000Y150547D01*
Y160000D01*
D02*
G37*
G36*
X45830Y152000D02*
X37500D01*
Y145170D01*
X41500D01*
X44562Y146439D01*
X45830Y149500D01*
Y152000D01*
D02*
G37*
G36*
X32500D02*
X24170D01*
Y149500D01*
X25439Y146439D01*
X28500Y145170D01*
X32500D01*
Y152000D01*
D02*
G37*
G36*
X65000Y74895D02*
X64403Y74648D01*
X63757D01*
X48450Y68307D01*
X46693Y66550D01*
X40352Y51243D01*
Y50000D01*
Y48757D01*
X46693Y33450D01*
X48450Y31693D01*
X63757Y25352D01*
X64403D01*
X65000Y25105D01*
X65597Y25352D01*
X66243D01*
X81550Y31693D01*
X83307Y33450D01*
X89648Y48757D01*
Y50000D01*
Y51243D01*
X83307Y66550D01*
X81550Y68307D01*
X66243Y74648D01*
X65597D01*
X65000Y74895D01*
D02*
G37*
G36*
X82500Y232000D02*
X74170D01*
Y229500D01*
X75439Y226439D01*
X78500Y225170D01*
X82500D01*
Y232000D01*
D02*
G37*
G36*
X912500Y321774D02*
X911867Y321691D01*
X908948Y320482D01*
X906441Y318559D01*
X904518Y316052D01*
X903309Y313133D01*
X903226Y312500D01*
X912500D01*
Y315500D01*
Y321774D01*
D02*
G37*
G36*
X917500D02*
Y312500D01*
X926774D01*
X926691Y313133D01*
X925482Y316052D01*
X923559Y318559D01*
X921052Y320482D01*
X918133Y321691D01*
X917500Y321774D01*
D02*
G37*
G36*
X926774Y307500D02*
X917500D01*
Y298769D01*
Y298226D01*
X918133Y298309D01*
X921052Y299518D01*
X923559Y301441D01*
X925482Y303948D01*
X926691Y306867D01*
X926774Y307500D01*
D02*
G37*
G36*
X912500D02*
X903226D01*
X903309Y306867D01*
X904518Y303948D01*
X906441Y301441D01*
X908948Y299518D01*
X911867Y298309D01*
X912500Y298226D01*
Y298930D01*
Y307500D01*
D02*
G37*
G36*
X682541Y206500D02*
X678500D01*
Y202459D01*
X678679Y202533D01*
X679530Y202885D01*
X680992Y204007D01*
X682114Y205470D01*
X682467Y206321D01*
X682541Y206500D01*
D02*
G37*
G36*
X713000Y208118D02*
X711250Y207769D01*
X710158Y207317D01*
X708674Y206326D01*
X707683Y204842D01*
X707231Y203750D01*
X706882Y202000D01*
X707231Y200250D01*
X707683Y199158D01*
X708412Y198067D01*
Y154933D01*
X707683Y153842D01*
X707231Y152750D01*
X706882Y151000D01*
X707231Y149250D01*
X707683Y148158D01*
X708674Y146674D01*
X710158Y145683D01*
X711250Y145231D01*
X713000Y144882D01*
X714750Y145231D01*
X715842Y145683D01*
X717326Y146674D01*
X718317Y148158D01*
X718769Y149250D01*
X719118Y151000D01*
X718769Y152750D01*
X718317Y153842D01*
X717588Y154933D01*
Y198067D01*
X718317Y199158D01*
X718769Y200250D01*
X719118Y202000D01*
X718769Y203750D01*
X718317Y204842D01*
X717326Y206326D01*
X715842Y207317D01*
X714750Y207769D01*
X713000Y208118D01*
D02*
G37*
G36*
X748250Y326928D02*
X738250D01*
X736161Y326653D01*
X735188Y326250D01*
X734215Y325847D01*
X732544Y324565D01*
X731262Y322894D01*
X730859Y321921D01*
X730455Y320948D01*
X730181Y318859D01*
Y308859D01*
X730455Y306771D01*
X730859Y305798D01*
X731262Y304825D01*
X732544Y303153D01*
X734215Y301871D01*
X735188Y301468D01*
X736161Y301065D01*
X738250Y300790D01*
X748250D01*
X750338Y301065D01*
X751311Y301468D01*
X752284Y301871D01*
X753955Y303153D01*
X755238Y304825D01*
X755641Y305798D01*
X756044Y306771D01*
X756319Y308859D01*
Y318859D01*
X756044Y320948D01*
X755641Y321921D01*
X755238Y322894D01*
X753955Y324565D01*
X752284Y325847D01*
X751311Y326250D01*
X750338Y326653D01*
X748250Y326928D01*
D02*
G37*
G36*
Y282937D02*
X745750D01*
Y271359D01*
X757327D01*
Y273859D01*
X757018Y276209D01*
X756111Y278398D01*
X754669Y280278D01*
X752788Y281721D01*
X750599Y282628D01*
X748250Y282937D01*
D02*
G37*
G36*
X740750D02*
X738250D01*
X735900Y282628D01*
X733711Y281721D01*
X731831Y280278D01*
X730388Y278398D01*
X729481Y276209D01*
X729172Y273859D01*
Y271359D01*
X740750D01*
Y282937D01*
D02*
G37*
G36*
X395500Y239541D02*
X395321Y239467D01*
X394470Y239114D01*
X393008Y237992D01*
X391885Y236530D01*
X391533Y235679D01*
X391459Y235500D01*
X395500D01*
Y239541D01*
D02*
G37*
G36*
X424078Y245500D02*
X415500D01*
Y238422D01*
X420000D01*
X421167Y238654D01*
X421895Y238955D01*
X422884Y239616D01*
X423545Y240605D01*
X423846Y241333D01*
X424078Y242500D01*
Y245500D01*
D02*
G37*
G36*
X410500D02*
X401922D01*
Y243410D01*
X400500Y241989D01*
Y235500D01*
X406989D01*
X409910Y238422D01*
X410500D01*
Y245500D01*
D02*
G37*
G36*
X403500Y182541D02*
Y178500D01*
X407541D01*
X407467Y178679D01*
X407114Y179530D01*
X405993Y180992D01*
X404530Y182115D01*
X403679Y182467D01*
X403500Y182541D01*
D02*
G37*
G36*
X398500D02*
X398321Y182467D01*
X397470Y182115D01*
X396008Y180992D01*
X394885Y179530D01*
X394533Y178679D01*
X394459Y178500D01*
X398500D01*
Y182541D01*
D02*
G37*
G36*
Y173500D02*
X394459D01*
X394533Y173321D01*
X394885Y172470D01*
X396008Y171008D01*
X397470Y169886D01*
X398321Y169533D01*
X398500Y169459D01*
Y173500D01*
D02*
G37*
G36*
X407541D02*
X403500D01*
Y169459D01*
X403679Y169533D01*
X404530Y169886D01*
X405993Y171008D01*
X407114Y172470D01*
X407467Y173321D01*
X407541Y173500D01*
D02*
G37*
G36*
X448578Y217500D02*
X440000D01*
Y210422D01*
X444500D01*
X445667Y210654D01*
X446395Y210955D01*
X447384Y211616D01*
X448045Y212605D01*
X448346Y213333D01*
X448578Y214500D01*
Y217500D01*
D02*
G37*
G36*
X435000D02*
X426422D01*
Y214500D01*
X426654Y213333D01*
X426955Y212605D01*
X427616Y211616D01*
X428605Y210955D01*
X429333Y210654D01*
X430500Y210422D01*
X435000D01*
Y217500D01*
D02*
G37*
G36*
X506478D02*
X497900D01*
Y210422D01*
X502400D01*
X503567Y210654D01*
X504295Y210955D01*
X505284Y211616D01*
X505945Y212605D01*
X506246Y213333D01*
X506478Y214500D01*
Y217500D01*
D02*
G37*
G36*
X492900D02*
X484322D01*
Y214500D01*
X484554Y213333D01*
X484855Y212605D01*
X485516Y211616D01*
X486505Y210955D01*
X487233Y210654D01*
X488400Y210422D01*
X492900D01*
Y217500D01*
D02*
G37*
G36*
X87500Y435541D02*
Y431500D01*
X91541D01*
X91115Y432530D01*
X89993Y433993D01*
X88530Y435115D01*
X87500Y435541D01*
D02*
G37*
G36*
X94000Y327078D02*
X90000D01*
Y320500D01*
X98078D01*
Y323000D01*
X97768Y324561D01*
X96884Y325884D01*
X95561Y326768D01*
X94000Y327078D01*
D02*
G37*
G36*
X119500Y394500D02*
X115459D01*
X115533Y394321D01*
X115885Y393470D01*
X117008Y392007D01*
X118470Y390886D01*
X119321Y390533D01*
X119500Y390459D01*
Y394500D01*
D02*
G37*
G36*
X889599Y60001D02*
X878307D01*
X878459Y58846D01*
X879870Y55440D01*
X882114Y52516D01*
X885038Y50272D01*
X888444Y48861D01*
X889599Y48709D01*
Y48829D01*
Y60001D01*
D02*
G37*
G36*
X37500Y433541D02*
X36470Y433115D01*
X35008Y431992D01*
X33886Y430530D01*
X33459Y429500D01*
X37500D01*
Y433541D01*
D02*
G37*
G36*
X331578Y504500D02*
X309422D01*
Y501500D01*
X309654Y500333D01*
X309955Y499605D01*
X310616Y498616D01*
X311605Y497955D01*
X312333Y497654D01*
X313500Y497422D01*
X315912D01*
Y496500D01*
X316173Y495187D01*
X316512Y494368D01*
X317256Y493256D01*
X319756Y490756D01*
X320868Y490012D01*
X321687Y489673D01*
X323000Y489412D01*
X338697D01*
X339008Y489008D01*
X340470Y487886D01*
X341321Y487533D01*
X341500Y487459D01*
Y494000D01*
Y500541D01*
X341321Y500467D01*
X340470Y500115D01*
X339008Y498992D01*
X338697Y498588D01*
X331893D01*
X331246Y499798D01*
X331171Y499910D01*
X331346Y500333D01*
X331578Y501500D01*
Y504500D01*
D02*
G37*
G36*
X90000Y629588D02*
X50000D01*
X48244Y629239D01*
X46756Y628244D01*
X41537Y623025D01*
X39659Y622652D01*
X37674Y621326D01*
X36348Y619341D01*
X35882Y617000D01*
X36348Y614659D01*
X37674Y612674D01*
X39659Y611348D01*
X42000Y610882D01*
X44341Y611348D01*
X46326Y612674D01*
X47652Y614659D01*
X48025Y616537D01*
X51901Y620412D01*
X67127D01*
X67653Y619142D01*
X64756Y616244D01*
X63761Y614756D01*
X63412Y613000D01*
Y604000D01*
X63761Y602244D01*
X64756Y600756D01*
X68756Y596756D01*
X70244Y595761D01*
X72000Y595412D01*
X76067D01*
X77659Y594348D01*
X80000Y593882D01*
X82341Y594348D01*
X84326Y595674D01*
X85652Y597659D01*
X86118Y600000D01*
X85721Y601994D01*
X86847Y602664D01*
X90256Y599256D01*
X91744Y598261D01*
X93500Y597912D01*
X93943D01*
X94691Y597000D01*
Y592122D01*
X93982Y591061D01*
X93672Y589500D01*
Y587000D01*
X109000D01*
X124328D01*
Y589500D01*
X124096Y590667D01*
X123795Y591395D01*
X123309Y592122D01*
Y597000D01*
X123135Y597875D01*
X122908Y598421D01*
X122856Y598500D01*
X122908Y598579D01*
X123135Y599125D01*
X123309Y600000D01*
Y605000D01*
X123135Y605875D01*
X122908Y606421D01*
X122856Y606500D01*
X122908Y606579D01*
X123135Y607125D01*
X123309Y608000D01*
Y613000D01*
X123135Y613875D01*
X122979Y614250D01*
X123135Y614625D01*
X123309Y615500D01*
Y625500D01*
X123135Y626375D01*
X122908Y626921D01*
X122413Y627663D01*
X121671Y628158D01*
X121125Y628385D01*
X120250Y628559D01*
X97750D01*
X96580Y628326D01*
X95587Y627663D01*
X93966Y627523D01*
X93244Y628244D01*
X91756Y629239D01*
X90000Y629588D01*
D02*
G37*
G36*
X346500Y500541D02*
Y496500D01*
X350541D01*
X350467Y496679D01*
X350115Y497530D01*
X348992Y498992D01*
X347530Y500115D01*
X346679Y500467D01*
X346500Y500541D01*
D02*
G37*
G36*
X350541Y491500D02*
X346500D01*
Y487459D01*
X346679Y487533D01*
X347530Y487886D01*
X348992Y489008D01*
X350115Y490470D01*
X350467Y491321D01*
X350541Y491500D01*
D02*
G37*
G36*
X368500Y174500D02*
X364459D01*
X364533Y174321D01*
X364885Y173470D01*
X366007Y172008D01*
X367470Y170886D01*
X368321Y170533D01*
X368500Y170459D01*
Y174500D01*
D02*
G37*
G36*
X573541Y449500D02*
X569500D01*
Y445459D01*
X569679Y445533D01*
X570530Y445886D01*
X571992Y447008D01*
X573115Y448470D01*
X573467Y449321D01*
X573541Y449500D01*
D02*
G37*
G36*
X54500Y665559D02*
X25500D01*
X24330Y665326D01*
X23337Y664663D01*
X22674Y663671D01*
X22441Y662500D01*
Y642500D01*
X22674Y641329D01*
X23337Y640337D01*
X24330Y639674D01*
X25500Y639441D01*
X54500D01*
X55670Y639674D01*
X56663Y640337D01*
X57326Y641329D01*
X57559Y642500D01*
Y662500D01*
X57326Y663671D01*
X56663Y664663D01*
X55670Y665326D01*
X54500Y665559D01*
D02*
G37*
G36*
X94500D02*
X65500D01*
X64330Y665326D01*
X63337Y664663D01*
X62674Y663671D01*
X62441Y662500D01*
Y642500D01*
X62674Y641329D01*
X63337Y640337D01*
X64330Y639674D01*
X65500Y639441D01*
X94500D01*
X95670Y639674D01*
X96663Y640337D01*
X97326Y641329D01*
X97559Y642500D01*
Y662500D01*
X97326Y663671D01*
X96663Y664663D01*
X95670Y665326D01*
X94500Y665559D01*
D02*
G37*
G36*
X569500Y458541D02*
Y454500D01*
X573541D01*
X573467Y454679D01*
X573115Y455530D01*
X571992Y456992D01*
X570530Y458115D01*
X569679Y458467D01*
X569500Y458541D01*
D02*
G37*
G36*
X221102Y710793D02*
X219948Y710641D01*
X216542Y709231D01*
X213617Y706986D01*
X211373Y704062D01*
X210985Y703124D01*
X209735D01*
X209725Y703149D01*
D01*
X209556Y703556D01*
X207472Y706272D01*
X204757Y708355D01*
X203176Y709010D01*
X201595Y709665D01*
X198201Y710112D01*
X194807Y709665D01*
X193226Y709010D01*
X191645Y708355D01*
X188929Y706272D01*
X186845Y703556D01*
X185535Y700394D01*
X185089Y697000D01*
X185535Y693606D01*
X186845Y690444D01*
X188929Y687728D01*
X191645Y685645D01*
X193226Y684990D01*
X194807Y684335D01*
X198201Y683888D01*
X201595Y684335D01*
X203176Y684990D01*
X204757Y685645D01*
X207472Y687728D01*
X209556Y690444D01*
X209726Y690853D01*
D01*
X209736Y690877D01*
X210986D01*
X211373Y689941D01*
X213617Y687017D01*
X216542Y684773D01*
X219948Y683362D01*
X221102Y683210D01*
Y697002D01*
Y698757D01*
Y710793D01*
D02*
G37*
G36*
X63500Y455500D02*
X59459D01*
X59886Y454470D01*
X61007Y453008D01*
X62470Y451885D01*
X63500Y451459D01*
Y455500D01*
D02*
G37*
G36*
X65000Y723156D02*
X64851Y723126D01*
X64700Y723141D01*
X60780Y722755D01*
X60491Y722667D01*
X60191Y722638D01*
X56421Y721494D01*
X56156Y721352D01*
X55867Y721265D01*
X52393Y719407D01*
X52160Y719216D01*
X51894Y719074D01*
X48849Y716575D01*
X48658Y716342D01*
X48425Y716151D01*
X45926Y713106D01*
X45784Y712840D01*
X45593Y712607D01*
X43735Y709133D01*
X43648Y708844D01*
X43506Y708579D01*
X42362Y704809D01*
X42333Y704509D01*
X42245Y704221D01*
X41859Y700300D01*
X41889Y700000D01*
X41859Y699700D01*
X42245Y695779D01*
X42333Y695491D01*
X42362Y695191D01*
X43506Y691421D01*
X43648Y691156D01*
X43735Y690867D01*
X45593Y687393D01*
X45784Y687160D01*
X45926Y686894D01*
X48425Y683849D01*
X48658Y683658D01*
X48849Y683425D01*
X51894Y680926D01*
X52160Y680784D01*
X52393Y680593D01*
X55867Y678735D01*
X56156Y678648D01*
X56421Y678506D01*
X60191Y677362D01*
X60491Y677333D01*
X60780Y677245D01*
X64700Y676859D01*
X64851Y676874D01*
X65000Y676844D01*
X65149Y676874D01*
X65300Y676859D01*
X69220Y677245D01*
X69509Y677333D01*
X69809Y677362D01*
X73579Y678506D01*
X73844Y678648D01*
X74133Y678735D01*
X77607Y680593D01*
X77840Y680784D01*
X78106Y680926D01*
X81151Y683425D01*
X81342Y683658D01*
X81575Y683849D01*
X84074Y686894D01*
X84216Y687160D01*
X84407Y687393D01*
X86265Y690867D01*
X86352Y691156D01*
X86494Y691421D01*
X87638Y695191D01*
X87667Y695491D01*
X87755Y695779D01*
X88141Y699700D01*
X88111Y700000D01*
X88141Y700300D01*
X87755Y704221D01*
X87667Y704509D01*
X87638Y704809D01*
X86494Y708579D01*
X86352Y708844D01*
X86265Y709133D01*
X84407Y712607D01*
X84216Y712840D01*
X84074Y713106D01*
X81575Y716151D01*
X81342Y716342D01*
X81151Y716575D01*
X78106Y719074D01*
X77840Y719216D01*
X77607Y719407D01*
X74133Y721265D01*
X73844Y721352D01*
X73579Y721494D01*
X69809Y722638D01*
X69509Y722667D01*
X69220Y722755D01*
X65300Y723141D01*
X65149Y723126D01*
X65000Y723156D01*
D02*
G37*
G36*
X889599Y152493D02*
X888444Y152340D01*
X885038Y150930D01*
X882114Y148686D01*
X879870Y145761D01*
X878459Y142355D01*
X878307Y141201D01*
X889599D01*
Y152493D01*
D02*
G37*
G36*
X990000Y123155D02*
X989851Y123126D01*
X989700Y123141D01*
X985779Y122755D01*
X985491Y122667D01*
X985191Y122638D01*
X981421Y121494D01*
X981156Y121352D01*
X980867Y121265D01*
X977393Y119407D01*
X977160Y119216D01*
X976894Y119074D01*
X973849Y116575D01*
X973658Y116342D01*
X973425Y116151D01*
X970926Y113106D01*
X970784Y112840D01*
X970593Y112607D01*
X968735Y109133D01*
X968648Y108844D01*
X968506Y108579D01*
X967362Y104809D01*
X967333Y104509D01*
X967245Y104221D01*
X966859Y100300D01*
X966889Y100000D01*
X966859Y99700D01*
X967245Y95779D01*
X967333Y95491D01*
X967362Y95191D01*
X968506Y91421D01*
X968648Y91156D01*
X968735Y90867D01*
X970593Y87393D01*
X970784Y87160D01*
X970926Y86894D01*
X973425Y83849D01*
X973658Y83658D01*
X973849Y83425D01*
X976894Y80926D01*
X977160Y80784D01*
X977393Y80593D01*
X980867Y78735D01*
X981156Y78648D01*
X981421Y78506D01*
X985191Y77362D01*
X985491Y77333D01*
X985779Y77245D01*
X989700Y76859D01*
X989851Y76874D01*
X990000Y76845D01*
X990149Y76874D01*
X990300Y76859D01*
X994221Y77245D01*
X994509Y77333D01*
X994809Y77362D01*
X998579Y78506D01*
X998844Y78648D01*
X999133Y78735D01*
X1002607Y80593D01*
X1002840Y80784D01*
X1003106Y80926D01*
X1006151Y83425D01*
X1006342Y83658D01*
X1006575Y83849D01*
X1009074Y86894D01*
X1009216Y87160D01*
X1009407Y87393D01*
X1011265Y90867D01*
X1011352Y91156D01*
X1011494Y91421D01*
X1012638Y95191D01*
X1012667Y95491D01*
X1012755Y95779D01*
X1013141Y99700D01*
X1013111Y100000D01*
X1013141Y100300D01*
X1012755Y104221D01*
X1012667Y104509D01*
X1012638Y104809D01*
X1011494Y108579D01*
X1011352Y108844D01*
X1011265Y109133D01*
X1009407Y112607D01*
X1009216Y112840D01*
X1009074Y113106D01*
X1006575Y116151D01*
X1006342Y116342D01*
X1006151Y116575D01*
X1003106Y119074D01*
X1002840Y119216D01*
X1002607Y119407D01*
X999133Y121265D01*
X998844Y121352D01*
X998579Y121494D01*
X994809Y122638D01*
X994509Y122667D01*
X994221Y122755D01*
X990300Y123141D01*
X990149Y123126D01*
X990000Y123155D01*
D02*
G37*
G36*
X360500Y581274D02*
Y572000D01*
X369774D01*
X369691Y572633D01*
X368482Y575552D01*
X366558Y578059D01*
X364052Y579982D01*
X361133Y581191D01*
X360500Y581274D01*
D02*
G37*
G36*
X40000Y331095D02*
X37128Y330717D01*
X34453Y329608D01*
X32155Y327845D01*
X30391Y325547D01*
X29283Y322872D01*
X28905Y320000D01*
X29283Y317128D01*
X30391Y314452D01*
X32155Y312155D01*
X34453Y310392D01*
X37128Y309283D01*
X40000Y308905D01*
X42872Y309283D01*
X45547Y310392D01*
X47845Y312155D01*
X49608Y314452D01*
X50717Y317128D01*
X51095Y320000D01*
X50717Y322872D01*
X49608Y325547D01*
X47845Y327845D01*
X45547Y329608D01*
X42872Y330717D01*
X40000Y331095D01*
D02*
G37*
G36*
X106500Y556500D02*
X102459D01*
X102533Y556321D01*
X102886Y555470D01*
X104008Y554008D01*
X105470Y552886D01*
X106321Y552533D01*
X106500Y552459D01*
Y556500D01*
D02*
G37*
G36*
X115541D02*
X111500D01*
Y552459D01*
X111679Y552533D01*
X112530Y552886D01*
X113993Y554008D01*
X115114Y555470D01*
X115467Y556321D01*
X115541Y556500D01*
D02*
G37*
G36*
X308000Y578095D02*
X305128Y577717D01*
X302453Y576609D01*
X300155Y574845D01*
X298391Y572547D01*
X297283Y569872D01*
X296905Y567000D01*
X297283Y564128D01*
X298391Y561453D01*
X300155Y559155D01*
X302453Y557392D01*
X305128Y556283D01*
X308000Y555905D01*
X310872Y556283D01*
X313547Y557392D01*
X315845Y559155D01*
X317609Y561453D01*
X318717Y564128D01*
X319095Y567000D01*
X318717Y569872D01*
X317609Y572547D01*
X315845Y574845D01*
X313547Y576609D01*
X310872Y577717D01*
X308000Y578095D01*
D02*
G37*
G36*
X94500Y565559D02*
X65500D01*
X64330Y565326D01*
X63337Y564663D01*
X62674Y563671D01*
X62441Y562500D01*
Y542500D01*
X62674Y541329D01*
X63337Y540337D01*
X64330Y539674D01*
X65500Y539441D01*
X94500D01*
X95670Y539674D01*
X96663Y540337D01*
X97326Y541329D01*
X97559Y542500D01*
Y562500D01*
X97326Y563671D01*
X96663Y564663D01*
X95670Y565326D01*
X94500Y565559D01*
D02*
G37*
G36*
X54500D02*
X25500D01*
X24330Y565326D01*
X23337Y564663D01*
X22674Y563671D01*
X22441Y562500D01*
Y542500D01*
X22674Y541329D01*
X23337Y540337D01*
X24330Y539674D01*
X25500Y539441D01*
X54500D01*
X55670Y539674D01*
X56663Y540337D01*
X57326Y541329D01*
X57559Y542500D01*
Y562500D01*
X57326Y563671D01*
X56663Y564663D01*
X55670Y565326D01*
X54500Y565559D01*
D02*
G37*
G36*
X40000Y356495D02*
X37128Y356117D01*
X34453Y355009D01*
X32155Y353245D01*
X30391Y350947D01*
X29283Y348272D01*
X28905Y345400D01*
X29283Y342528D01*
X30391Y339852D01*
X32155Y337555D01*
X34453Y335792D01*
X37128Y334683D01*
X40000Y334305D01*
X42872Y334683D01*
X45547Y335792D01*
X47845Y337555D01*
X49608Y339852D01*
X50717Y342528D01*
X51095Y345400D01*
X50717Y348272D01*
X49608Y350947D01*
X47845Y353245D01*
X45547Y355009D01*
X42872Y356117D01*
X40000Y356495D01*
D02*
G37*
G36*
X355500Y581274D02*
X354867Y581191D01*
X351948Y579982D01*
X349441Y578059D01*
X347518Y575552D01*
X346309Y572633D01*
X346226Y572000D01*
X355500D01*
Y581274D01*
D02*
G37*
G36*
X596541Y278500D02*
X592500D01*
Y274459D01*
X592679Y274533D01*
X593530Y274886D01*
X594992Y276008D01*
X596115Y277470D01*
X596467Y278321D01*
X596541Y278500D01*
D02*
G37*
G36*
X587500D02*
X583459D01*
X583533Y278321D01*
X583885Y277470D01*
X585008Y276008D01*
X586470Y274886D01*
X587321Y274533D01*
X587500Y274459D01*
Y278500D01*
D02*
G37*
G36*
X369774Y567000D02*
X360500D01*
Y558405D01*
Y557726D01*
X361133Y557809D01*
X364052Y559018D01*
X366558Y560942D01*
X368482Y563448D01*
X369691Y566367D01*
X369774Y567000D01*
D02*
G37*
G36*
X355500D02*
X346226D01*
X346309Y566367D01*
X347518Y563448D01*
X349441Y560942D01*
X351948Y559018D01*
X354867Y557809D01*
X355500Y557726D01*
Y558405D01*
Y567000D01*
D02*
G37*
G36*
X124328Y582000D02*
X109000D01*
X93672D01*
Y579500D01*
X93982Y577939D01*
X94866Y576616D01*
X96189Y575732D01*
X97750Y575422D01*
X104412D01*
Y564303D01*
X104008Y563992D01*
X102886Y562530D01*
X102533Y561679D01*
X102459Y561500D01*
X115541D01*
X115467Y561679D01*
X115114Y562530D01*
X113993Y563992D01*
X113588Y564303D01*
Y575422D01*
X120250D01*
X121417Y575654D01*
X122145Y575955D01*
X123134Y576616D01*
X123795Y577605D01*
X124096Y578333D01*
X124328Y579500D01*
Y582000D01*
D02*
G37*
G36*
X996600Y670330D02*
X945100D01*
Y621500D01*
X1000929D01*
Y666000D01*
X999661Y669061D01*
X996600Y670330D01*
D02*
G37*
G36*
X940100D02*
X888600D01*
X885538Y669061D01*
X884270Y666000D01*
Y621500D01*
X940100D01*
Y670330D01*
D02*
G37*
G36*
X915000Y399406D02*
X906581Y395919D01*
X903094Y387500D01*
X906581Y379081D01*
X915000Y375594D01*
X923419Y379081D01*
X926906Y387500D01*
X923419Y395919D01*
X915000Y399406D01*
D02*
G37*
G36*
X949350Y540330D02*
X945100D01*
Y515500D01*
X953680D01*
Y536000D01*
X952411Y539062D01*
X949350Y540330D01*
D02*
G37*
G36*
X1002500Y364453D02*
Y355000D01*
X1011953D01*
X1009184Y361684D01*
X1002500Y364453D01*
D02*
G37*
G36*
X1000929Y616500D02*
X945100D01*
Y567670D01*
X996600D01*
X999661Y568938D01*
X1000929Y572000D01*
Y616500D01*
D02*
G37*
G36*
X940100D02*
X884270D01*
Y572000D01*
X885538Y568938D01*
X888600Y567670D01*
X940100D01*
Y616500D01*
D02*
G37*
G36*
X928280Y510500D02*
X919700D01*
Y485670D01*
X923950D01*
X927011Y486939D01*
X928280Y490000D01*
Y510500D01*
D02*
G37*
G36*
X955500Y460830D02*
X953000D01*
X949939Y459562D01*
X948419Y459159D01*
X947000Y459747D01*
X937000D01*
X934704Y458796D01*
X933753Y456500D01*
Y455953D01*
X930306D01*
X929000Y456494D01*
X924408Y454592D01*
X922506Y450000D01*
X924408Y445408D01*
X929000Y443506D01*
X930306Y444047D01*
X933753D01*
Y443500D01*
X934704Y441204D01*
X937000Y440253D01*
X947000D01*
X948419Y440841D01*
X949939Y440438D01*
X953000Y439170D01*
X955500D01*
Y450000D01*
Y460830D01*
D02*
G37*
G36*
X967330Y447500D02*
X960500D01*
Y439170D01*
X963000D01*
X966061Y440438D01*
X967330Y443500D01*
Y447500D01*
D02*
G37*
G36*
X963000Y460830D02*
X960500D01*
Y452500D01*
X967330D01*
Y456500D01*
X966061Y459561D01*
X963000Y460830D01*
D02*
G37*
G36*
X914700Y510500D02*
X906120D01*
Y490000D01*
X907389Y486939D01*
X910450Y485670D01*
X914700D01*
Y510500D01*
D02*
G37*
G36*
X413500Y500541D02*
X413321Y500467D01*
X412470Y500115D01*
X411008Y498992D01*
X409885Y497530D01*
X409533Y496679D01*
X409459Y496500D01*
X413500D01*
Y500541D01*
D02*
G37*
%LPD*%
D10*
X419000Y529000D02*
D03*
Y545000D02*
D03*
X662000Y355000D02*
D03*
Y339000D02*
D03*
X982500Y439500D02*
D03*
Y455500D02*
D03*
X85000Y250500D02*
D03*
Y234500D02*
D03*
X35000Y170500D02*
D03*
Y154500D02*
D03*
X87500Y302000D02*
D03*
Y318000D02*
D03*
D11*
X435000Y455000D02*
D03*
X440000D02*
D03*
X445000D02*
D03*
X450000D02*
D03*
X455000D02*
D03*
X460000D02*
D03*
X465000D02*
D03*
X470000D02*
D03*
X475000D02*
D03*
X480000D02*
D03*
X485000D02*
D03*
X490000D02*
D03*
X495000D02*
D03*
X500000D02*
D03*
X505000D02*
D03*
X510000D02*
D03*
X515000D02*
D03*
X520000D02*
D03*
X525000D02*
D03*
X530000D02*
D03*
X535000D02*
D03*
X540000D02*
D03*
X545000D02*
D03*
X550000D02*
D03*
X555000D02*
D03*
Y300000D02*
D03*
X550000D02*
D03*
X545000D02*
D03*
X540000D02*
D03*
X535000D02*
D03*
X530000D02*
D03*
X525000D02*
D03*
X520000D02*
D03*
X515000D02*
D03*
X510000D02*
D03*
X505000D02*
D03*
X500000D02*
D03*
X495000D02*
D03*
X490000D02*
D03*
X485000D02*
D03*
X480000D02*
D03*
X475000D02*
D03*
X470000D02*
D03*
X465000D02*
D03*
X460000D02*
D03*
X455000D02*
D03*
X450000D02*
D03*
X445000D02*
D03*
X440000D02*
D03*
X435000D02*
D03*
D12*
X572500Y437500D02*
D03*
Y432500D02*
D03*
Y427500D02*
D03*
Y422500D02*
D03*
Y417500D02*
D03*
Y412500D02*
D03*
Y407500D02*
D03*
Y402500D02*
D03*
Y397500D02*
D03*
Y392500D02*
D03*
Y387500D02*
D03*
Y382500D02*
D03*
Y377500D02*
D03*
Y372500D02*
D03*
Y367500D02*
D03*
Y362500D02*
D03*
Y357500D02*
D03*
Y352500D02*
D03*
Y347500D02*
D03*
Y342500D02*
D03*
Y337500D02*
D03*
Y332500D02*
D03*
Y327500D02*
D03*
Y322500D02*
D03*
Y317500D02*
D03*
X417500D02*
D03*
Y322500D02*
D03*
Y327500D02*
D03*
Y332500D02*
D03*
Y337500D02*
D03*
Y342500D02*
D03*
Y347500D02*
D03*
Y352500D02*
D03*
Y357500D02*
D03*
Y362500D02*
D03*
Y367500D02*
D03*
Y372500D02*
D03*
Y377500D02*
D03*
Y382500D02*
D03*
Y387500D02*
D03*
Y392500D02*
D03*
Y397500D02*
D03*
Y402500D02*
D03*
Y407500D02*
D03*
Y412500D02*
D03*
Y417500D02*
D03*
Y422500D02*
D03*
Y427500D02*
D03*
Y432500D02*
D03*
Y437500D02*
D03*
D13*
X968000Y513000D02*
D03*
X942600D02*
D03*
X917200D02*
D03*
D14*
X942600Y619000D02*
D03*
D15*
X320500Y507000D02*
D03*
Y522000D02*
D03*
X413000Y248000D02*
D03*
Y263000D02*
D03*
X352000Y369500D02*
D03*
Y384500D02*
D03*
X524000Y495500D02*
D03*
Y510500D02*
D03*
X495400Y235000D02*
D03*
Y220000D02*
D03*
X437500Y235000D02*
D03*
X437500Y220000D02*
D03*
X632000Y262500D02*
D03*
Y277500D02*
D03*
D16*
X629500Y359500D02*
D03*
X644500D02*
D03*
D17*
X958000Y450000D02*
D03*
X942000D02*
D03*
D18*
X104750Y477750D02*
D03*
X98250D02*
D03*
X91750D02*
D03*
X85250D02*
D03*
X78750D02*
D03*
X72250D02*
D03*
X65750D02*
D03*
X59250D02*
D03*
X52750D02*
D03*
X46250D02*
D03*
X39750D02*
D03*
X33250D02*
D03*
X26750D02*
D03*
X20250D02*
D03*
X104750Y407250D02*
D03*
X98250Y407250D02*
D03*
X91750Y407250D02*
D03*
X85250Y407250D02*
D03*
X78750Y407250D02*
D03*
X72250Y407250D02*
D03*
X65750D02*
D03*
X59250D02*
D03*
X52750D02*
D03*
X46250Y407250D02*
D03*
X39750Y407250D02*
D03*
X33250Y407250D02*
D03*
X26750Y407250D02*
D03*
X20250Y407250D02*
D03*
D19*
X109000Y620500D02*
D03*
Y584500D02*
D03*
D20*
Y610500D02*
D03*
Y602500D02*
D03*
Y594500D02*
D03*
D21*
X80000Y652500D02*
D03*
X40000D02*
D03*
Y552500D02*
D03*
X80000D02*
D03*
D22*
X515000Y473000D02*
X519000Y477000D01*
X692000Y261000D02*
Y300109D01*
X629000Y218000D02*
X630250Y216750D01*
X687250D01*
X691000Y213000D01*
X692000Y261000D02*
X694000D01*
X678250Y313859D02*
X692000Y300109D01*
X644500Y327500D02*
X649250Y322750D01*
Y256750D02*
Y322750D01*
Y256750D02*
X659000Y247000D01*
X649500Y332500D02*
X664000Y318000D01*
Y256000D02*
Y318000D01*
Y256000D02*
X667000Y253000D01*
X748000Y433000D02*
Y434000D01*
X728000Y413000D02*
X748000Y433000D01*
X134100Y443900D02*
X147500D01*
X125000Y453000D02*
X134100Y443900D01*
X125000Y453000D02*
Y479000D01*
X111000Y493000D02*
X125000Y479000D01*
X90000Y493000D02*
X111000D01*
X85250Y488250D02*
X90000Y493000D01*
X85250Y477750D02*
Y488250D01*
X78750Y493750D02*
X85000Y500000D01*
X78750Y477750D02*
Y493750D01*
X388000Y569500D02*
X401500D01*
X419000Y552000D01*
Y545000D02*
Y552000D01*
X524000Y510500D02*
X525000Y511500D01*
Y550000D01*
X524000Y591000D02*
Y592000D01*
X506000Y573000D02*
X524000Y591000D01*
X436000Y529000D02*
X436000Y529000D01*
X419000Y529000D02*
X436000D01*
X553802Y601802D02*
Y697001D01*
X505000Y553000D02*
X553802Y601802D01*
X505000Y455000D02*
Y553000D01*
X109000Y559000D02*
Y584500D01*
X94500Y620500D02*
X109000D01*
X90000Y625000D02*
X94500Y620500D01*
X50000Y625000D02*
X90000D01*
X42000Y617000D02*
X50000Y625000D01*
X76000Y318000D02*
X76000Y318000D01*
X87500D01*
X194100Y443900D02*
X244750Y393250D01*
X299769Y389000D02*
X300119Y389350D01*
X292400Y389000D02*
X299769D01*
X280000Y376600D02*
X292400Y389000D01*
X298008Y393250D02*
X298358Y393600D01*
X244750Y393250D02*
X298008D01*
X300119Y389350D02*
X317660D01*
X337510Y369500D01*
X352000D01*
X342900Y393600D02*
X352000Y384500D01*
X298358Y393600D02*
X342900D01*
X296598Y397850D02*
X417150D01*
X417500Y397500D01*
X296248D02*
X296598Y397850D01*
X252500Y397500D02*
X296248D01*
X65750Y458250D02*
X66000Y458000D01*
X65750Y458250D02*
Y477750D01*
X39750Y426750D02*
X40000Y427000D01*
X39750Y407250D02*
Y426750D01*
X69000Y429000D02*
X85000D01*
X59250Y419250D02*
X69000Y429000D01*
X59250Y407250D02*
Y419250D01*
X85250Y428750D02*
X91750Y422250D01*
X85000Y429000D02*
X85250Y428750D01*
X91750Y407250D02*
Y422250D01*
X85250Y407250D02*
Y428750D01*
X72000Y262000D02*
X83500Y250500D01*
X85000D01*
X530000Y424000D02*
Y455000D01*
X330000Y191000D02*
X331000Y190000D01*
X337990D01*
X353240Y205250D01*
X371250D01*
X374000Y208000D01*
Y231000D01*
X406000Y263000D01*
X413000D01*
X349000Y234000D02*
Y250000D01*
X373750Y274750D01*
X389250D01*
X345000Y158000D02*
Y167000D01*
X324801Y137801D02*
X345000Y158000D01*
X324801Y62501D02*
Y137801D01*
X371000Y177000D02*
Y186000D01*
X398000Y213000D01*
Y233000D01*
X430000Y235000D02*
X437500D01*
X383000Y188000D02*
X430000Y235000D01*
X383000Y69900D02*
Y188000D01*
X375600Y62500D02*
X383000Y69900D01*
X453000Y384000D02*
X465817D01*
X563500Y372500D02*
X572500D01*
X561000Y375000D02*
Y383871D01*
Y375000D02*
X563500Y372500D01*
X434000Y333000D02*
X459000D01*
X467000Y325000D01*
Y314000D02*
Y325000D01*
X465000Y312000D02*
X467000Y314000D01*
X465000Y300000D02*
Y312000D01*
X449750Y387250D02*
X453000Y384000D01*
X417750Y387250D02*
X449750D01*
X417500Y387500D02*
X417750Y387250D01*
X361500Y392500D02*
X417500D01*
X460000Y290000D02*
Y300000D01*
X535000Y440000D02*
Y455000D01*
X440000D02*
Y477000D01*
X147500Y443900D02*
X194100D01*
X444000Y380000D02*
X445000D01*
X441500Y382500D02*
X444000Y380000D01*
X417500Y382500D02*
X441500D01*
X437500Y377500D02*
X445000Y370000D01*
X417500Y377500D02*
X437500D01*
X428500Y372500D02*
X439000Y362000D01*
X417500Y372500D02*
X428500D01*
X417500Y392500D02*
X450500D01*
X451000Y393000D01*
X398999Y378001D02*
Y379999D01*
Y378001D02*
X409500Y367500D01*
X417500D01*
X403368Y357500D02*
X417500D01*
X385868Y375000D02*
X403368Y357500D01*
X379000Y375000D02*
X385868D01*
X391000Y378000D02*
X406500Y362500D01*
X417500D01*
X377000Y365000D02*
X387000D01*
X399500Y352500D01*
X417500D01*
X377000Y354000D02*
X385000D01*
X391500Y347500D01*
X417500D01*
X398000Y327000D02*
X417000D01*
X309500Y238500D02*
X398000Y327000D01*
X402490Y322500D02*
X417500D01*
X314240Y234250D02*
X402490Y322500D01*
X403500Y317500D02*
X417500D01*
X316000Y230000D02*
X403500Y317500D01*
X290479Y238500D02*
X309500D01*
X292240Y234250D02*
X314240D01*
X294000Y230000D02*
X316000D01*
X369750Y331250D02*
X399382D01*
X147499Y164501D02*
X194901D01*
X305400Y275000D01*
X320000D02*
X351000Y306000D01*
X351000D01*
X305400Y275000D02*
X320000D01*
X417000Y337000D02*
X417500Y337500D01*
X397000Y337000D02*
X417000D01*
X324400Y376600D02*
X369750Y331250D01*
X417000Y327000D02*
X417500Y327500D01*
X400632Y332500D02*
X417500D01*
X399382Y331250D02*
X400632Y332500D01*
X417000Y343000D02*
X417500Y342500D01*
X380000Y343000D02*
X417000D01*
X318800Y351200D02*
X327000Y343000D01*
X305400Y351200D02*
X318800D01*
X305400Y376600D02*
X324400D01*
X366000Y375000D02*
Y382000D01*
X360500Y369500D02*
X366000Y375000D01*
X147498Y113702D02*
X165681D01*
X290479Y238500D01*
X147498Y88302D02*
X158302D01*
X180750Y110750D01*
Y122760D01*
X292240Y234250D01*
X147500Y62900D02*
X168900D01*
X185000Y79000D01*
Y121000D01*
X294000Y230000D01*
X455000Y300000D02*
Y315010D01*
X444010Y326000D02*
X455000Y315010D01*
X443000Y326000D02*
X444010D01*
X443000Y341000D02*
X444000Y342000D01*
X464000D01*
X433868Y300000D02*
X435000D01*
X405118Y271250D02*
X433868Y300000D01*
X310000Y220000D02*
X353611D01*
X404861Y271250D02*
X405118D01*
X381000Y265000D02*
X382500Y266500D01*
X388500D01*
X433000Y311000D01*
X353611Y220000D02*
X404861Y271250D01*
X381000Y206000D02*
Y219000D01*
X376000Y201000D02*
X381000Y206000D01*
X355000Y201000D02*
X376000D01*
X248601Y94601D02*
X355000Y201000D01*
X248601Y62501D02*
Y94601D01*
X428000Y286000D02*
X436000D01*
X440000Y290000D01*
Y300000D01*
X389250Y274750D02*
X427750Y313250D01*
X432500Y318000D01*
X446000D01*
X450000Y314000D01*
Y300000D02*
Y314000D01*
X433000Y311000D02*
X443000D01*
X445000Y309000D01*
Y300000D02*
Y309000D01*
X359199Y325801D02*
X373000Y312000D01*
X333000Y212000D02*
X367000D01*
X223202Y102202D02*
X333000Y212000D01*
X223202Y62502D02*
Y102202D01*
X391000Y151000D02*
X439000D01*
X487000Y150000D02*
X488000Y151000D01*
X568000D01*
X713000D02*
Y202000D01*
X824000D02*
Y274000D01*
X759000Y339000D02*
X824000Y274000D01*
X678000Y339000D02*
X759000D01*
X678000D02*
X678250Y338750D01*
Y313859D02*
Y338750D01*
X495400Y235000D02*
X503000D01*
X514000Y224000D01*
Y204000D02*
Y224000D01*
X401001Y91001D02*
X514000Y204000D01*
X401001Y62501D02*
Y91001D01*
X147499Y418501D02*
X208499D01*
X250400Y376600D01*
X280000D01*
X35000Y222500D02*
X40000Y227500D01*
X35000Y170500D02*
Y222500D01*
X97900Y162500D02*
Y291600D01*
X87500Y302000D02*
X97900Y291600D01*
X72250Y372750D02*
X80000Y365000D01*
X72250Y372750D02*
Y407250D01*
X40000Y252900D02*
Y276000D01*
X65750Y301750D01*
Y407250D01*
X136899Y393101D02*
X147499D01*
X121000Y409000D02*
X136899Y393101D01*
X121000Y409000D02*
Y425000D01*
X104750Y441250D02*
X121000Y425000D01*
X104750Y441250D02*
Y477750D01*
X85250Y459250D02*
Y477750D01*
X52750Y426750D02*
X85250Y459250D01*
X52750Y407250D02*
Y426750D01*
X71500Y616500D02*
X90500D01*
X96500Y610500D01*
X109000D01*
X68000Y613000D02*
X71500Y616500D01*
X68000Y604000D02*
Y613000D01*
Y604000D02*
X72000Y600000D01*
X80000D01*
X93500Y602500D02*
X109000D01*
X87000Y609000D02*
X93500Y602500D01*
X80000Y609000D02*
X87000D01*
X32197Y450682D02*
Y452803D01*
X20250Y438735D02*
X32197Y450682D01*
X36439Y446439D02*
X38561D01*
X26750Y436750D02*
X36439Y446439D01*
X20250Y407250D02*
Y438735D01*
X26750Y407250D02*
Y436750D01*
X371500Y387500D02*
X417500D01*
X366000Y382000D02*
X371500Y387500D01*
X352000Y369500D02*
X360500D01*
X353500Y384500D02*
X361500Y392500D01*
X352000Y384500D02*
X353500D01*
X147500Y469300D02*
X180700D01*
X252500Y397500D01*
X147499Y494701D02*
X169299D01*
X261500Y402500D01*
X417500D01*
X147499Y520101D02*
X185899D01*
X191000Y515000D01*
Y486000D02*
Y515000D01*
Y486000D02*
X269500Y407500D01*
X417500D01*
X147500Y545500D02*
X191500D01*
X198000Y539000D01*
Y491000D02*
Y539000D01*
Y491000D02*
X276500Y412500D01*
X417500D01*
X147500Y570900D02*
X192100D01*
X204000Y559000D01*
Y497000D02*
Y559000D01*
Y497000D02*
X283500Y417500D01*
X417500D01*
X147500Y596300D02*
X200700D01*
X213000Y584000D01*
Y499000D02*
Y584000D01*
Y499000D02*
X289500Y422500D01*
X417500D01*
X147500Y621700D02*
X207300D01*
X223000Y606000D01*
Y505000D02*
Y606000D01*
Y505000D02*
X300500Y427500D01*
X417500D01*
X147501Y647099D02*
X202901D01*
X233000Y617000D01*
Y511000D02*
Y617000D01*
Y511000D02*
X311500Y432500D01*
X417500D01*
X147501Y672499D02*
X194501D01*
X242000Y625000D01*
Y517000D02*
Y625000D01*
Y517000D02*
X321500Y437500D01*
X417500D01*
X477000Y321000D02*
X480000Y318000D01*
Y300000D02*
Y318000D01*
X398000Y233000D02*
X413000Y248000D01*
X448000Y278000D02*
X460000Y290000D01*
X425000Y278000D02*
X448000D01*
X413000Y266000D02*
X425000Y278000D01*
X413000Y263000D02*
Y266000D01*
X305399Y325801D02*
X359199D01*
X485000Y290000D02*
X492000Y283000D01*
X485000Y290000D02*
Y300000D01*
X484750Y314240D02*
X490000Y308990D01*
X489000Y316000D02*
Y331000D01*
Y316000D02*
X495000Y310000D01*
X490000Y300000D02*
Y308990D01*
X495000Y300000D02*
Y310000D01*
X495400Y235000D02*
Y262500D01*
X437500Y235000D02*
Y255400D01*
X444600Y262500D01*
X495400D02*
Y265600D01*
X475000Y286000D02*
X495400Y265600D01*
X475000Y286000D02*
Y300000D01*
X444600Y262500D02*
Y264600D01*
X470000Y290000D01*
Y300000D01*
X479000Y331000D02*
X484750Y325250D01*
Y314240D02*
Y325250D01*
X498000Y317000D02*
Y329000D01*
Y317000D02*
X500000Y315000D01*
Y300000D02*
Y315000D01*
X197802Y107802D02*
X310000Y220000D01*
X197802Y62502D02*
Y107802D01*
X729702Y367298D02*
X852501D01*
X719500Y377500D02*
X729702Y367298D01*
X572500Y377500D02*
X719500D01*
X500000Y354000D02*
X508500Y362500D01*
X572500D01*
X554000Y369000D02*
Y377000D01*
Y369000D02*
X555500Y367500D01*
X514000Y352000D02*
X519500Y357500D01*
X572500D01*
X526000Y348000D02*
X530500Y352500D01*
X572500D01*
X534000Y340000D02*
X541500Y347500D01*
X572500D01*
X542000Y335000D02*
X549500Y342500D01*
X572500D01*
X554000Y334000D02*
X557500Y337500D01*
X572500D01*
X836000Y155198D02*
X852500Y138698D01*
X836000Y155198D02*
Y165000D01*
X748000Y253000D02*
X836000Y165000D01*
X667000Y253000D02*
X748000D01*
X572500Y332500D02*
X649500D01*
X741000Y247000D02*
X826000Y162000D01*
X659000Y247000D02*
X741000D01*
X572500Y327500D02*
X644500D01*
X836101Y87899D02*
X852499D01*
X831000Y93000D02*
X836101Y87899D01*
X831000Y93000D02*
Y141000D01*
X732000Y240000D02*
X831000Y141000D01*
X650000Y240000D02*
X732000D01*
X645000Y245000D02*
X650000Y240000D01*
X645000Y245000D02*
Y308000D01*
X630500Y322500D02*
X645000Y308000D01*
X572500Y322500D02*
X630500D01*
X829501Y62499D02*
X852499D01*
X824000Y68000D02*
X829501Y62499D01*
X824000Y68000D02*
Y128000D01*
X720000Y232000D02*
X824000Y128000D01*
X640000Y232000D02*
X720000D01*
X609000Y263000D02*
X640000Y232000D01*
X609000Y263000D02*
Y301000D01*
X592500Y317500D02*
X609000Y301000D01*
X572500Y317500D02*
X592500D01*
X523000Y437000D02*
X525000Y439000D01*
Y455000D01*
X512000Y438000D02*
X520000Y446000D01*
Y455000D01*
X519000Y476000D02*
Y477000D01*
X515000Y455000D02*
Y473000D01*
X510000Y479000D02*
X514000Y483000D01*
X510000Y455000D02*
Y479000D01*
X320500Y496500D02*
Y507000D01*
Y496500D02*
X323000Y494000D01*
X344000D01*
X416000D02*
X423000D01*
X440000Y477000D01*
X320500Y522000D02*
X321500Y521000D01*
X340000D01*
X425000Y507000D02*
X428000D01*
X445000Y490000D01*
Y455000D02*
Y490000D01*
X405000Y545000D02*
X419000D01*
X399000Y539000D02*
X405000Y545000D01*
X399000Y493000D02*
Y539000D01*
Y493000D02*
X419000Y473000D01*
X430000D01*
X435000Y468000D01*
Y455000D02*
Y468000D01*
X274402Y668598D02*
Y697001D01*
Y668598D02*
X342000Y601000D01*
X385000D01*
X450000Y536000D01*
Y455000D02*
Y536000D01*
X299802Y697001D02*
X303999D01*
X455000Y546000D01*
Y455000D02*
Y546000D01*
X325202Y690798D02*
Y697001D01*
Y690798D02*
X460000Y556000D01*
Y455000D02*
Y556000D01*
X350602Y678398D02*
Y697001D01*
Y678398D02*
X465000Y564000D01*
Y455000D02*
Y564000D01*
X376001Y663999D02*
Y697000D01*
Y663999D02*
X470000Y570000D01*
Y455000D02*
Y570000D01*
X401401Y652599D02*
Y697000D01*
Y652599D02*
X475000Y579000D01*
Y455000D02*
Y579000D01*
X426802Y640198D02*
Y697002D01*
Y640198D02*
X480000Y587000D01*
Y455000D02*
Y587000D01*
X452202Y631798D02*
Y697002D01*
Y631798D02*
X485000Y599000D01*
Y455000D02*
Y599000D01*
X477602Y658398D02*
Y697001D01*
Y658398D02*
X490000Y646000D01*
Y455000D02*
Y646000D01*
X503002Y640002D02*
Y697001D01*
X495000Y632000D02*
X503002Y640002D01*
X495000Y455000D02*
Y632000D01*
X528402Y622402D02*
Y697001D01*
X500000Y594000D02*
X528402Y622402D01*
X500000Y455000D02*
Y594000D01*
X572500Y437500D02*
X585500D01*
X820098Y672098D02*
X852500D01*
X585500Y437500D02*
X820098Y672098D01*
X820697Y646697D02*
X852502D01*
X572500Y427500D02*
X626500D01*
X820297Y621297D01*
X852502D01*
X572500Y422500D02*
X640500D01*
X813898Y595898D01*
X852501D01*
X572500Y417500D02*
X652500D01*
X805498Y570498D01*
X852501D01*
X606500Y432500D02*
X820697Y646697D01*
X572500Y432500D02*
X606500D01*
X572500Y412500D02*
X661500D01*
X794098Y545098D01*
X852501D01*
X572500Y407500D02*
X675500D01*
X787698Y519698D01*
X852501D01*
X572500Y402500D02*
X683500D01*
X775298Y494298D01*
X852500D01*
X700500Y397500D02*
X771898Y468898D01*
X852500D01*
X721500Y392500D02*
X772497Y443497D01*
X852502D01*
X743500Y387500D02*
X774097Y418097D01*
X852502D01*
X842303Y382500D02*
X852501Y392698D01*
X572500Y372500D02*
X608500D01*
X621500Y359500D01*
X629500D01*
X555500Y367500D02*
X572500D01*
X538000Y437000D02*
X552000D01*
X535000Y440000D02*
X538000Y437000D01*
X460000Y300000D02*
Y319000D01*
X711000Y224000D02*
X807401Y127599D01*
Y62501D02*
Y127599D01*
X555000Y286000D02*
X617000Y224000D01*
X711000D01*
X615240Y219750D02*
X727995Y106995D01*
X768005D01*
X781999Y93001D01*
Y62499D02*
Y93001D01*
X545000Y278000D02*
Y300000D01*
Y278000D02*
X724000Y99000D01*
X749000D01*
X756599Y91401D01*
Y62499D02*
Y91401D01*
X555000Y286000D02*
Y300000D01*
X540000Y273000D02*
Y300000D01*
Y273000D02*
X731200Y81800D01*
Y62500D02*
Y81800D01*
X535000Y270000D02*
Y300000D01*
Y270000D02*
X705800Y99200D01*
Y62500D02*
Y99200D01*
X530000Y267000D02*
Y300000D01*
Y267000D02*
X680400Y116600D01*
Y62500D02*
Y116600D01*
X525000Y263000D02*
Y300000D01*
Y263000D02*
X655000Y133000D01*
Y62500D02*
Y133000D01*
X520000Y258000D02*
Y300000D01*
Y258000D02*
X629601Y148399D01*
Y62501D02*
Y148399D01*
X550000Y284990D02*
Y300000D01*
Y284990D02*
X615240Y219750D01*
X515000Y253000D02*
Y300000D01*
Y253000D02*
X604201Y163799D01*
Y62501D02*
Y163799D01*
X510000Y244000D02*
Y300000D01*
Y244000D02*
X578799Y175201D01*
Y62499D02*
Y175201D01*
X505000Y300000D02*
Y321000D01*
X632000Y277500D02*
Y293000D01*
X632000Y293000D02*
X632000Y293000D01*
X572500Y397500D02*
X700500D01*
X572500Y392500D02*
X721500D01*
X572500Y387500D02*
X743500D01*
X572500Y382500D02*
X842303D01*
X662000Y339000D02*
X678000D01*
X555000Y455000D02*
Y468000D01*
X694000Y607000D01*
X743000D01*
X807800Y671800D01*
Y696999D01*
X550000Y455000D02*
Y474000D01*
X698000Y622000D01*
X735000D01*
X782400Y669400D01*
Y696999D01*
X545000Y455000D02*
Y479000D01*
X697000Y631000D01*
X730000D01*
X757001Y658001D01*
Y697000D01*
X540000Y455000D02*
Y483000D01*
X696000Y639000D01*
X716000D01*
X731601Y654601D01*
Y697000D01*
X524000Y485000D02*
Y495500D01*
Y485000D02*
X530000Y479000D01*
Y455000D02*
Y479000D01*
X535000Y455000D02*
Y488000D01*
X540000Y493000D01*
Y507000D01*
X536500Y510500D02*
X540000Y507000D01*
X524000Y510500D02*
X536500D01*
D23*
X743250Y268859D02*
X817000Y195109D01*
X639000Y211000D02*
X674000D01*
X676000Y209000D01*
X816109Y195109D02*
X817000D01*
X917499Y138701D02*
Y211501D01*
X872000Y257000D02*
X917499Y211501D01*
X872000Y257000D02*
Y309000D01*
X864502Y316498D02*
X872000Y309000D01*
X852501Y316498D02*
X864502D01*
X929000Y450000D02*
X942000D01*
X985000Y304000D02*
Y437000D01*
X961000Y280000D02*
X985000Y304000D01*
X982500Y439500D02*
X985000Y437000D01*
X571000Y308000D02*
X581000D01*
X590000Y299000D01*
Y281000D02*
Y299000D01*
X632000Y253000D02*
X637000Y248000D01*
X632000Y253000D02*
Y262500D01*
X975000Y156000D02*
Y177500D01*
X957701Y138701D02*
X975000Y156000D01*
X917499Y138701D02*
X957701D01*
X890500Y417500D02*
X915000D01*
X881000Y408000D02*
X890500Y417500D01*
X881000Y274000D02*
Y408000D01*
Y274000D02*
X949600Y205400D01*
Y177500D02*
Y205400D01*
X917498Y87902D02*
X917499Y87901D01*
Y62501D02*
Y87901D01*
X917498Y113300D02*
X917499Y113301D01*
X917498Y87902D02*
Y113300D01*
X917499Y113301D02*
Y138701D01*
X915000Y280000D02*
X961000D01*
X975000Y476000D02*
X990000D01*
X968000Y483000D02*
X975000Y476000D01*
X968000Y483000D02*
Y513000D01*
X1000000Y352500D02*
X1000399Y352101D01*
Y177499D02*
Y352101D01*
X249002Y638998D02*
Y697002D01*
Y638998D02*
X276000Y612000D01*
Y535000D02*
Y612000D01*
Y535000D02*
X289000Y522000D01*
X320500D01*
D24*
X743250Y313859D02*
D03*
Y268859D02*
D03*
X678250D02*
D03*
Y313859D02*
D03*
D25*
X915000Y700000D02*
D03*
X990000Y100000D02*
D03*
X65000Y50000D02*
D03*
Y700000D02*
D03*
D26*
X97900Y162500D02*
D03*
X72500D02*
D03*
X970000Y352500D02*
D03*
X1000000D02*
D03*
X915000Y387500D02*
D03*
Y417500D02*
D03*
X40000Y252900D02*
D03*
Y227500D02*
D03*
Y320000D02*
D03*
Y345400D02*
D03*
X358000Y569500D02*
D03*
X388000D02*
D03*
X308000Y567000D02*
D03*
X258000D02*
D03*
X915000Y310000D02*
D03*
Y280000D02*
D03*
D27*
X949600Y177500D02*
D03*
X975000D02*
D03*
X1000399Y177499D02*
D03*
X305399Y325801D02*
D03*
X305400Y351200D02*
D03*
Y376600D02*
D03*
X280000D02*
D03*
Y351200D02*
D03*
X279999Y325801D02*
D03*
X305400Y275000D02*
D03*
Y300400D02*
D03*
X280000D02*
D03*
X280000Y275000D02*
D03*
X807800Y696999D02*
D03*
X782400D02*
D03*
X731601Y697000D02*
D03*
X757001D02*
D03*
X655402Y697001D02*
D03*
X630002Y697001D02*
D03*
X680801Y697000D02*
D03*
X706201D02*
D03*
X503002Y697001D02*
D03*
X477602D02*
D03*
X426802Y697002D02*
D03*
X452202D02*
D03*
X553802Y697001D02*
D03*
X528402Y697001D02*
D03*
X579201Y697000D02*
D03*
X604601D02*
D03*
X299802Y697001D02*
D03*
X274402Y697001D02*
D03*
X223602Y697002D02*
D03*
X249002D02*
D03*
X350602Y697001D02*
D03*
X325202D02*
D03*
X376001Y697000D02*
D03*
X401401D02*
D03*
X198201D02*
D03*
X147501Y672499D02*
D03*
Y647099D02*
D03*
X147500Y596300D02*
D03*
Y621700D02*
D03*
X147499Y520101D02*
D03*
X147499Y494701D02*
D03*
X147500Y545500D02*
D03*
Y570900D02*
D03*
X147499Y367701D02*
D03*
Y342301D02*
D03*
X147498Y291502D02*
D03*
Y316902D02*
D03*
X147499Y418501D02*
D03*
X147499Y393101D02*
D03*
X147500Y443900D02*
D03*
Y469300D02*
D03*
X147499Y164501D02*
D03*
X147499Y139101D02*
D03*
X147498Y88302D02*
D03*
Y113702D02*
D03*
X147499Y215301D02*
D03*
Y189901D02*
D03*
X147500Y240700D02*
D03*
Y266100D02*
D03*
Y62900D02*
D03*
X444600Y262500D02*
D03*
X495400D02*
D03*
X470000D02*
D03*
X852499Y62499D02*
D03*
Y87899D02*
D03*
X852500Y138698D02*
D03*
Y113298D02*
D03*
X852501Y214898D02*
D03*
Y240298D02*
D03*
X852500Y189498D02*
D03*
Y164098D02*
D03*
X852501Y367298D02*
D03*
Y392698D02*
D03*
X852502Y443497D02*
D03*
Y418097D02*
D03*
X852501Y316498D02*
D03*
Y341898D02*
D03*
X852500Y291098D02*
D03*
Y265698D02*
D03*
X852501Y570498D02*
D03*
Y595898D02*
D03*
X852502Y646697D02*
D03*
Y621297D02*
D03*
X852501Y519698D02*
D03*
Y545098D02*
D03*
X852500Y494298D02*
D03*
Y468898D02*
D03*
Y672098D02*
D03*
X917499Y138701D02*
D03*
Y113301D02*
D03*
X917498Y87902D02*
D03*
X917499Y62501D02*
D03*
X892099D02*
D03*
X892098Y87902D02*
D03*
X892099Y113301D02*
D03*
Y138701D02*
D03*
X197802Y62502D02*
D03*
X223202D02*
D03*
X274001Y62501D02*
D03*
X248601D02*
D03*
X350200Y62500D02*
D03*
X375600D02*
D03*
X324801Y62501D02*
D03*
X299401D02*
D03*
X502600Y62500D02*
D03*
X528000D02*
D03*
X578799Y62499D02*
D03*
X553399D02*
D03*
X451800Y62500D02*
D03*
X477200Y62500D02*
D03*
X426401Y62501D02*
D03*
X401001D02*
D03*
X705800Y62500D02*
D03*
X731200D02*
D03*
X781999Y62499D02*
D03*
X756599D02*
D03*
X655000Y62500D02*
D03*
X680400Y62500D02*
D03*
X629601Y62501D02*
D03*
X604201D02*
D03*
X807401D02*
D03*
D28*
X629000Y218000D02*
D03*
X691000Y213000D02*
D03*
X694000Y261000D02*
D03*
X639000Y211000D02*
D03*
X676000Y209000D02*
D03*
X816109Y195109D02*
D03*
X748000Y434000D02*
D03*
X728000Y413000D02*
D03*
X929000Y450000D02*
D03*
X590000Y281000D02*
D03*
X637000Y248000D02*
D03*
X567000Y452000D02*
D03*
X85000Y500000D02*
D03*
X990000Y476000D02*
D03*
X525000Y550000D02*
D03*
X524000Y592000D02*
D03*
X506000Y573000D02*
D03*
X436000Y529000D02*
D03*
X109000Y559000D02*
D03*
X42000Y617000D02*
D03*
X76000Y318000D02*
D03*
X66000Y458000D02*
D03*
X40000Y427000D02*
D03*
X85000Y429000D02*
D03*
X72000Y262000D02*
D03*
X330000Y191000D02*
D03*
X349000Y234000D02*
D03*
X345000Y167000D02*
D03*
X401000Y176000D02*
D03*
X371000Y177000D02*
D03*
X445000Y380000D02*
D03*
Y370000D02*
D03*
X439000Y362000D02*
D03*
X451000Y393000D02*
D03*
X398999Y379999D02*
D03*
X391000Y378000D02*
D03*
X379000Y375000D02*
D03*
X377000Y365000D02*
D03*
Y354000D02*
D03*
X351000Y306000D02*
D03*
X397000Y337000D02*
D03*
X380000Y343000D02*
D03*
X327000D02*
D03*
X373000Y312000D02*
D03*
X443000Y326000D02*
D03*
Y341000D02*
D03*
X464000Y342000D02*
D03*
X381000Y265000D02*
D03*
Y219000D02*
D03*
X367000Y212000D02*
D03*
X428000Y286000D02*
D03*
X391000Y151000D02*
D03*
X439000D02*
D03*
X487000Y150000D02*
D03*
X568000Y151000D02*
D03*
X713000D02*
D03*
Y202000D02*
D03*
X824000D02*
D03*
X122000Y397000D02*
D03*
X80000Y365000D02*
D03*
X80000Y609000D02*
D03*
Y600000D02*
D03*
X32197Y452803D02*
D03*
X38561Y446439D02*
D03*
X477000Y321000D02*
D03*
X434000Y333000D02*
D03*
X398000Y233000D02*
D03*
X492000Y283000D02*
D03*
X479000Y331000D02*
D03*
X489000D02*
D03*
X498000Y329000D02*
D03*
X719000Y368000D02*
D03*
X500000Y354000D02*
D03*
X554000Y377000D02*
D03*
X514000Y352000D02*
D03*
X526000Y348000D02*
D03*
X534000Y340000D02*
D03*
X542000Y335000D02*
D03*
X554000Y334000D02*
D03*
X826000Y162000D02*
D03*
X523000Y437000D02*
D03*
X512000Y438000D02*
D03*
X519000Y476000D02*
D03*
X514000Y483000D02*
D03*
X344000Y494000D02*
D03*
X416000D02*
D03*
X340000Y521000D02*
D03*
X425000Y507000D02*
D03*
X552000Y437000D02*
D03*
X460000Y319000D02*
D03*
X538000Y437000D02*
D03*
X505000Y321000D02*
D03*
X632000Y293000D02*
D03*
X678000Y339000D02*
D03*
M02*
