G04 Layer_Color=65535*
%FSLAX44Y44*%
%MOMM*%
G71*
G01*
G75*
%ADD29C,0.6000*%
%ADD30C,0.2500*%
%ADD31C,0.2540*%
%ADD32C,0.2000*%
%ADD33C,0.1000*%
%ADD34R,0.8000X0.6000*%
%ADD35R,0.6000X0.8000*%
%ADD36R,1.0000X1.0000*%
D29*
X442000Y433500D02*
G03*
X442000Y433500I-3000J0D01*
G01*
X106500Y455750D02*
G03*
X106500Y455750I-3000J0D01*
G01*
D30*
X418750Y444500D02*
G03*
X418750Y444500I-1250J0D01*
G01*
X114000Y477750D02*
G03*
X114000Y477750I-1250J0D01*
G01*
D31*
X725240Y290999D02*
G03*
X725240Y290999I-15240J0D01*
G01*
X904014Y515000D02*
G03*
X904014Y515000I-1414J0D01*
G01*
X111900Y162500D02*
G03*
X111900Y162500I-26700J0D01*
G01*
X954791Y351138D02*
G03*
X954760Y352500I29969J1363D01*
G01*
X916363Y372291D02*
G03*
X915000Y372260I-1363J29969D01*
G01*
X66700Y240200D02*
G03*
X66700Y240200I-26700J0D01*
G01*
Y332700D02*
G03*
X66700Y332700I-26700J0D01*
G01*
X342791Y568138D02*
G03*
X342760Y569500I29969J1363D01*
G01*
X278790Y567000D02*
G03*
X289263Y567000I5236J0D01*
G01*
X268317D02*
G03*
X278790Y567000I5236J0D01*
G01*
X513180Y276470D02*
G03*
X513180Y276470I-1270J0D01*
G01*
X913637Y325209D02*
G03*
X915000Y325240I1363J-29969D01*
G01*
X997600Y543000D02*
Y569000D01*
X887600Y543000D02*
X997600D01*
X887600D02*
Y568000D01*
X95360Y181550D02*
X101710D01*
X95360Y175200D02*
X106790Y175200D01*
X105520Y168850D02*
X109330D01*
X108060Y162500D02*
X111900D01*
X105520Y156150D02*
X110600D01*
X97900Y149800D02*
X108060D01*
X96630Y143450D02*
X102980Y143450D01*
X96630Y139640D02*
Y153610D01*
X95360Y172660D02*
X95360Y186630D01*
X934600Y192500D02*
X1014600D01*
Y162500D02*
Y192500D01*
X934600Y162500D02*
X1014600D01*
X934600D02*
Y192500D01*
X964440Y330910D02*
X972060D01*
X960630Y335990D02*
X970790D01*
X959360Y341070D02*
X972060Y341070D01*
X956820Y346150D02*
X960630D01*
X955550Y353770D02*
X959360D01*
X956820Y361390D02*
X964440D01*
X959360Y365200D02*
X970790D01*
X963170Y370280D02*
X970790D01*
X965710Y375360D02*
X972060Y375360D01*
Y362660D02*
Y379170D01*
Y327100D02*
Y341070D01*
X936590Y381940D02*
Y389560D01*
X931510Y378130D02*
Y388290D01*
X926430Y376860D02*
Y389560D01*
X921350Y374320D02*
Y378130D01*
X913730Y373050D02*
Y376860D01*
X906110Y374320D02*
Y381940D01*
X902300Y376860D02*
Y388290D01*
X897220Y380670D02*
Y388290D01*
X892140Y383210D02*
Y389560D01*
X888330D02*
X904840D01*
X926430D02*
X940400D01*
X246400Y428600D02*
X335400D01*
X246400Y330600D02*
Y428600D01*
X335400Y224600D02*
Y428600D01*
X246400Y224600D02*
X335400D01*
X246400D02*
X246400Y330600D01*
X335400Y351600D02*
X340400Y351600D01*
Y301600D02*
Y351600D01*
X336400Y301600D02*
X340400D01*
X20950Y250360D02*
Y256710D01*
X27300Y261790D02*
X27300Y250360D01*
X33650Y260520D02*
Y264330D01*
X40000Y263060D02*
Y266900D01*
X46350Y260520D02*
Y265600D01*
X52700Y252900D02*
Y263060D01*
X59050Y257980D02*
X59050Y251630D01*
X48890D02*
X62860D01*
X15870Y250360D02*
X29840Y250360D01*
X59050Y316190D02*
Y322540D01*
X52700D02*
X52700Y311110D01*
X46350Y308570D02*
Y312380D01*
X40000Y306000D02*
Y309840D01*
X33650Y307300D02*
Y312380D01*
X27300Y309840D02*
X27300Y320000D01*
X20950Y321270D02*
X20950Y314920D01*
X17140Y321270D02*
X31110D01*
X50160Y322540D02*
X64130D01*
X182801Y682000D02*
X822801D01*
X182801D02*
Y712000D01*
X822801D01*
Y682000D02*
Y712000D01*
X162500Y47500D02*
Y687500D01*
X132500Y47500D02*
X162500D01*
X132500D02*
Y687500D01*
X162500D01*
X352440Y547910D02*
X360060D01*
X348630Y552990D02*
X358790D01*
X347360Y558070D02*
X360060Y558070D01*
X344820Y563150D02*
X348630D01*
X343550Y570770D02*
X347360D01*
X344820Y578390D02*
X352440D01*
X347360Y582200D02*
X358790D01*
X351170Y587280D02*
X358790D01*
X353710Y592360D02*
X360060Y592360D01*
Y579660D02*
Y596170D01*
Y544100D02*
Y558070D01*
X288950Y567000D02*
X297840D01*
X837500Y47498D02*
Y687498D01*
X867500D01*
Y47498D02*
Y687498D01*
X837500Y47498D02*
X867500D01*
X877499Y151701D02*
X930499D01*
X877499D02*
X877499Y49701D01*
X930499Y49701D01*
Y151701D01*
X90000Y633500D02*
Y639500D01*
X40000Y633500D02*
X90000D01*
X40000D02*
Y639500D01*
Y566500D02*
Y572500D01*
X90000D01*
Y566500D02*
Y572500D01*
X7000Y652500D02*
X18000D01*
X7000Y552500D02*
X17000D01*
X7000D02*
Y652500D01*
X893410Y307940D02*
Y315560D01*
X898490Y309210D02*
Y319370D01*
X903570Y307940D02*
X903570Y320640D01*
X908650Y319370D02*
Y323180D01*
X916270Y320640D02*
Y324450D01*
X923890Y315560D02*
Y323180D01*
X927700Y309210D02*
Y320640D01*
X932780Y309210D02*
Y316830D01*
X937860Y314290D02*
X937860Y307940D01*
X925160D02*
X941670D01*
X889600D02*
X903570D01*
X182801Y77501D02*
X822801D01*
Y47501D02*
Y77501D01*
X182801Y47501D02*
X822801D01*
X182801D02*
Y77501D01*
X411584Y486379D02*
Y471144D01*
X419202D01*
X421741Y473683D01*
Y483840D01*
X419202Y486379D01*
X411584D01*
X426819D02*
Y471144D01*
X434437D01*
X436976Y473683D01*
Y483840D01*
X434437Y486379D01*
X426819D01*
X442054Y471144D02*
X447132D01*
X444593D01*
Y486379D01*
X442054Y483840D01*
X602304Y265157D02*
X599765Y262617D01*
Y257539D01*
X602304Y255000D01*
X612461D01*
X615000Y257539D01*
Y262617D01*
X612461Y265157D01*
X615000Y270235D02*
Y275313D01*
Y272774D01*
X599765D01*
X602304Y270235D01*
X467704Y227657D02*
X465165Y225117D01*
Y220039D01*
X467704Y217500D01*
X477861D01*
X480400Y220039D01*
Y225117D01*
X477861Y227657D01*
X480400Y242892D02*
Y232735D01*
X470243Y242892D01*
X467704D01*
X465165Y240353D01*
Y235274D01*
X467704Y232735D01*
X412304Y225157D02*
X409765Y222617D01*
Y217539D01*
X412304Y215000D01*
X422461D01*
X425000Y217539D01*
Y222617D01*
X422461Y225157D01*
X412304Y230235D02*
X409765Y232774D01*
Y237853D01*
X412304Y240392D01*
X414843D01*
X417383Y237853D01*
Y235313D01*
Y237853D01*
X419922Y240392D01*
X422461D01*
X425000Y237853D01*
Y232774D01*
X422461Y230235D01*
X895153Y455276D02*
X892614Y457815D01*
X887535D01*
X884996Y455276D01*
Y445119D01*
X887535Y442580D01*
X892614D01*
X895153Y445119D01*
X907849Y442580D02*
Y457815D01*
X900231Y450198D01*
X910388D01*
X635721Y387718D02*
X633181Y390257D01*
X628103D01*
X625564Y387718D01*
Y377561D01*
X628103Y375022D01*
X633181D01*
X635721Y377561D01*
X650956Y390257D02*
X640799D01*
Y382640D01*
X645877Y385179D01*
X648417D01*
X650956Y382640D01*
Y377561D01*
X648417Y375022D01*
X643338D01*
X640799Y377561D01*
X528727Y537322D02*
X526188Y539861D01*
X521109D01*
X518570Y537322D01*
Y527165D01*
X521109Y524626D01*
X526188D01*
X528727Y527165D01*
X543962Y539861D02*
X538883Y537322D01*
X533805Y532243D01*
Y527165D01*
X536344Y524626D01*
X541423D01*
X543962Y527165D01*
Y529704D01*
X541423Y532243D01*
X533805D01*
X895157Y252696D02*
X892617Y255235D01*
X887539D01*
X885000Y252696D01*
Y242539D01*
X887539Y240000D01*
X892617D01*
X895157Y242539D01*
X900235Y255235D02*
X910392D01*
Y252696D01*
X900235Y242539D01*
Y240000D01*
X385304Y255657D02*
X382765Y253118D01*
Y248039D01*
X385304Y245500D01*
X395461D01*
X398000Y248039D01*
Y253118D01*
X395461Y255657D01*
X385304Y260735D02*
X382765Y263274D01*
Y268353D01*
X385304Y270892D01*
X387843D01*
X390382Y268353D01*
X392922Y270892D01*
X395461D01*
X398000Y268353D01*
Y263274D01*
X395461Y260735D01*
X392922D01*
X390382Y263274D01*
X387843Y260735D01*
X385304D01*
X390382Y263274D02*
Y268353D01*
X356681Y411220D02*
X354142Y413759D01*
X349063D01*
X346524Y411220D01*
Y401063D01*
X349063Y398524D01*
X354142D01*
X356681Y401063D01*
X361759D02*
X364298Y398524D01*
X369377D01*
X371916Y401063D01*
Y411220D01*
X369377Y413759D01*
X364298D01*
X361759Y411220D01*
Y408681D01*
X364298Y406142D01*
X371916D01*
X292804Y507157D02*
X290265Y504618D01*
Y499539D01*
X292804Y497000D01*
X302961D01*
X305500Y499539D01*
Y504618D01*
X302961Y507157D01*
X305500Y512235D02*
Y517313D01*
Y514774D01*
X290265D01*
X292804Y512235D01*
Y524931D02*
X290265Y527470D01*
Y532548D01*
X292804Y535088D01*
X302961D01*
X305500Y532548D01*
Y527470D01*
X302961Y524931D01*
X292804D01*
X965097Y405304D02*
X962558Y407843D01*
X957479D01*
X954940Y405304D01*
Y395147D01*
X957479Y392608D01*
X962558D01*
X965097Y395147D01*
X970175Y392608D02*
X975253D01*
X972714D01*
Y407843D01*
X970175Y405304D01*
X982871Y392608D02*
X987949D01*
X985410D01*
Y407843D01*
X982871Y405304D01*
X353201Y622296D02*
X350662Y624835D01*
X345583D01*
X343044Y622296D01*
Y612139D01*
X345583Y609600D01*
X350662D01*
X353201Y612139D01*
X358279Y609600D02*
X363357D01*
X360818D01*
Y624835D01*
X358279Y622296D01*
X381132Y609600D02*
X370975D01*
X381132Y619757D01*
Y622296D01*
X378592Y624835D01*
X373514D01*
X370975Y622296D01*
X937600Y689235D02*
Y674000D01*
X945218D01*
X947757Y676539D01*
Y686696D01*
X945218Y689235D01*
X937600D01*
X952835Y674000D02*
Y684157D01*
X957913Y689235D01*
X962992Y684157D01*
Y674000D01*
Y681618D01*
X952835D01*
X968070Y674000D02*
X973148D01*
X970609D01*
Y689235D01*
X968070Y686696D01*
X13148Y509537D02*
Y494302D01*
X20766D01*
X23305Y496841D01*
Y506998D01*
X20766Y509537D01*
X13148D01*
X28383D02*
Y494302D01*
X36001D01*
X38540Y496841D01*
Y506998D01*
X36001Y509537D01*
X28383D01*
X53775Y494302D02*
X43618D01*
X53775Y504459D01*
Y506998D01*
X51236Y509537D01*
X46157D01*
X43618Y506998D01*
X14592Y383445D02*
Y368210D01*
Y375827D01*
X24749D01*
Y383445D01*
Y368210D01*
X29827Y383445D02*
Y368210D01*
X39984D01*
X45062D02*
X50141D01*
X47601D01*
Y383445D01*
X45062Y380906D01*
X14672Y291069D02*
Y275834D01*
Y283451D01*
X24829D01*
Y291069D01*
Y275834D01*
X29907Y291069D02*
Y275834D01*
X40064D01*
X55299D02*
X45142D01*
X55299Y285991D01*
Y288530D01*
X52760Y291069D01*
X47681D01*
X45142Y288530D01*
X75000Y212735D02*
Y197500D01*
Y205117D01*
X85157D01*
Y212735D01*
Y197500D01*
X90235Y212735D02*
Y197500D01*
X100392D01*
X105470Y210196D02*
X108009Y212735D01*
X113088D01*
X115627Y210196D01*
Y207657D01*
X113088Y205117D01*
X110548D01*
X113088D01*
X115627Y202578D01*
Y200039D01*
X113088Y197500D01*
X108009D01*
X105470Y200039D01*
X245482Y604823D02*
Y589588D01*
X255639D01*
X260717D02*
X265795D01*
X263256D01*
Y604823D01*
X260717Y602284D01*
X677000Y354000D02*
Y369235D01*
X684617D01*
X687157Y366696D01*
Y361618D01*
X684617Y359078D01*
X677000D01*
X682078D02*
X687157Y354000D01*
X692235D02*
X697313D01*
X694774D01*
Y369235D01*
X692235Y366696D01*
X938108Y465680D02*
Y480915D01*
X945725D01*
X948265Y478376D01*
Y473298D01*
X945725Y470758D01*
X938108D01*
X943186D02*
X948265Y465680D01*
X963500D02*
X953343D01*
X963500Y475837D01*
Y478376D01*
X960961Y480915D01*
X955882D01*
X953343Y478376D01*
X977090Y469570D02*
Y484805D01*
X984707D01*
X987247Y482266D01*
Y477188D01*
X984707Y474648D01*
X977090D01*
X982168D02*
X987247Y469570D01*
X992325Y482266D02*
X994864Y484805D01*
X999943D01*
X1002482Y482266D01*
Y479727D01*
X999943Y477188D01*
X997403D01*
X999943D01*
X1002482Y474648D01*
Y472109D01*
X999943Y469570D01*
X994864D01*
X992325Y472109D01*
X436000Y538000D02*
Y553235D01*
X443618D01*
X446157Y550696D01*
Y545617D01*
X443618Y543078D01*
X436000D01*
X441078D02*
X446157Y538000D01*
X458853D02*
Y553235D01*
X451235Y545617D01*
X461392D01*
X81928Y332156D02*
Y347391D01*
X89545D01*
X92085Y344852D01*
Y339773D01*
X89545Y337234D01*
X81928D01*
X87006D02*
X92085Y332156D01*
X107320Y347391D02*
X97163D01*
Y339773D01*
X102241Y342313D01*
X104781D01*
X107320Y339773D01*
Y334695D01*
X104781Y332156D01*
X99702D01*
X97163Y334695D01*
X79428Y264498D02*
Y279733D01*
X87045D01*
X89585Y277194D01*
Y272115D01*
X87045Y269576D01*
X79428D01*
X84506D02*
X89585Y264498D01*
X104820Y279733D02*
X99741Y277194D01*
X94663Y272115D01*
Y267037D01*
X97202Y264498D01*
X102281D01*
X104820Y267037D01*
Y269576D01*
X102281Y272115D01*
X94663D01*
X29444Y184608D02*
Y199843D01*
X37062D01*
X39601Y197304D01*
Y192225D01*
X37062Y189686D01*
X29444D01*
X34522D02*
X39601Y184608D01*
X44679Y199843D02*
X54836D01*
Y197304D01*
X44679Y187147D01*
Y184608D01*
X765804Y286157D02*
X763265Y283617D01*
Y278539D01*
X765804Y276000D01*
X768343D01*
X770882Y278539D01*
Y283617D01*
X773422Y286157D01*
X775961D01*
X778500Y283617D01*
Y278539D01*
X775961Y276000D01*
X763265Y291235D02*
X778500D01*
Y298853D01*
X775961Y301392D01*
X773422D01*
X770882Y298853D01*
Y291235D01*
Y298853D01*
X768343Y301392D01*
X765804D01*
X763265Y298853D01*
Y291235D01*
X778500Y306470D02*
Y311549D01*
Y309009D01*
X763265D01*
X765804Y306470D01*
X935850Y257247D02*
X946007Y242012D01*
Y257247D02*
X935850Y242012D01*
X951085D02*
X956163D01*
X953624D01*
Y257247D01*
X951085Y254708D01*
X185000Y40235D02*
X195157Y25000D01*
Y40235D02*
X185000Y25000D01*
X200235D02*
Y40235D01*
X207853D01*
X210392Y37696D01*
Y32617D01*
X207853Y30078D01*
X200235D01*
X215470Y25000D02*
X220548D01*
X218009D01*
Y40235D01*
X215470Y37696D01*
X133666Y711733D02*
X143823Y696498D01*
Y711733D02*
X133666Y696498D01*
X148901D02*
Y711733D01*
X156519D01*
X159058Y709194D01*
Y704116D01*
X156519Y701576D01*
X148901D01*
X174293Y696498D02*
X164136D01*
X174293Y706655D01*
Y709194D01*
X171754Y711733D01*
X166675D01*
X164136Y709194D01*
X247658Y452851D02*
X257815Y437616D01*
Y452851D02*
X247658Y437616D01*
X262893D02*
Y452851D01*
X270511D01*
X273050Y450312D01*
Y445233D01*
X270511Y442694D01*
X262893D01*
X278128Y450312D02*
X280667Y452851D01*
X285746D01*
X288285Y450312D01*
Y447773D01*
X285746Y445233D01*
X283207D01*
X285746D01*
X288285Y442694D01*
Y440155D01*
X285746Y437616D01*
X280667D01*
X278128Y440155D01*
X184187Y736147D02*
X194343Y720912D01*
Y736147D02*
X184187Y720912D01*
X199422D02*
Y736147D01*
X207039D01*
X209579Y733608D01*
Y728530D01*
X207039Y725990D01*
X199422D01*
X222274Y720912D02*
Y736147D01*
X214657Y728530D01*
X224814D01*
X835000Y710235D02*
X845157Y695000D01*
Y710235D02*
X835000Y695000D01*
X850235D02*
Y710235D01*
X857853D01*
X860392Y707696D01*
Y702617D01*
X857853Y700078D01*
X850235D01*
X875627Y710235D02*
X865470D01*
Y702617D01*
X870548Y705157D01*
X873088D01*
X875627Y702617D01*
Y697539D01*
X873088Y695000D01*
X868009D01*
X865470Y697539D01*
X939765Y50000D02*
X955000Y60157D01*
X939765D02*
X955000Y50000D01*
Y65235D02*
X939765D01*
Y72853D01*
X942304Y75392D01*
X947383D01*
X949922Y72853D01*
Y65235D01*
X939765Y90627D02*
X942304Y85548D01*
X947383Y80470D01*
X952461D01*
X955000Y83009D01*
Y88088D01*
X952461Y90627D01*
X949922D01*
X947383Y88088D01*
Y80470D01*
X65000Y540235D02*
X75157Y525000D01*
Y540235D02*
X65000Y525000D01*
X90392Y537696D02*
X87853Y540235D01*
X82774D01*
X80235Y537696D01*
Y535157D01*
X82774Y532617D01*
X87853D01*
X90392Y530078D01*
Y527539D01*
X87853Y525000D01*
X82774D01*
X80235Y527539D01*
X95470Y525000D02*
X100548D01*
X98009D01*
Y540235D01*
X95470Y537696D01*
X514765Y235000D02*
Y245157D01*
X517304D01*
X527461Y235000D01*
X530000D01*
Y245157D01*
X527461Y260392D02*
X517304D01*
X514765Y257853D01*
Y252774D01*
X517304Y250235D01*
X527461D01*
X530000Y252774D01*
Y257853D01*
X524922Y255313D02*
X530000Y260392D01*
Y257853D02*
X527461Y260392D01*
X530000Y265470D02*
Y270548D01*
Y268009D01*
X514765D01*
X517304Y265470D01*
D32*
X413500Y537000D02*
X424500D01*
X429000Y311500D02*
X561000D01*
X429000Y443500D02*
X561000D01*
Y311500D02*
Y443500D01*
X429000Y311500D02*
Y443500D01*
X656500Y347000D02*
X667500D01*
X950000Y444500D02*
Y455500D01*
X977000Y447500D02*
X988000D01*
X79500Y242500D02*
X90500D01*
X29500Y162500D02*
X40500D01*
X82000Y310000D02*
X93000D01*
X11500Y465750D02*
X113500D01*
X11500Y419250D02*
X113500D01*
Y465750D01*
X11500Y419250D02*
Y465750D01*
X1005003Y505000D02*
X1015000D01*
Y511665D01*
Y514997D02*
X1005003D01*
X1008335Y518329D01*
X1005003Y521661D01*
X1015000D01*
X1006669Y524994D02*
X1005003Y526660D01*
Y529992D01*
X1006669Y531658D01*
X1008335D01*
X1010002Y529992D01*
Y528326D01*
Y529992D01*
X1011668Y531658D01*
X1013334D01*
X1015000Y529992D01*
Y526660D01*
X1013334Y524994D01*
X1015000Y534990D02*
Y538323D01*
Y536656D01*
X1005003D01*
X1006669Y534990D01*
X1005003Y543321D02*
Y549986D01*
X1006669D01*
X1013334Y543321D01*
X1015000D01*
X995269Y197500D02*
X993603Y199166D01*
Y202498D01*
X995269Y204165D01*
X996936D01*
X998602Y202498D01*
Y200832D01*
Y202498D01*
X1000268Y204165D01*
X1001934D01*
X1003600Y202498D01*
Y199166D01*
X1001934Y197500D01*
X1003600Y207497D02*
X1001934D01*
Y209163D01*
X1003600D01*
Y207497D01*
X995269Y215827D02*
X993603Y217494D01*
Y220826D01*
X995269Y222492D01*
X996936D01*
X998602Y220826D01*
Y219160D01*
Y220826D01*
X1000268Y222492D01*
X1001934D01*
X1003600Y220826D01*
Y217494D01*
X1001934Y215827D01*
X993603Y225824D02*
X1000268D01*
X1003600Y229156D01*
X1000268Y232489D01*
X993603D01*
X940603Y204165D02*
Y197500D01*
X945602D01*
X943935Y200832D01*
Y202498D01*
X945602Y204165D01*
X948934D01*
X950600Y202498D01*
Y199166D01*
X948934Y197500D01*
X940603Y207497D02*
X947268D01*
X950600Y210829D01*
X947268Y214161D01*
X940603D01*
X922495Y183701D02*
X915831D01*
X912499Y180369D01*
X915831Y177036D01*
X922495D01*
X920829Y167040D02*
X922495Y168706D01*
Y172038D01*
X920829Y173704D01*
X914165D01*
X912499Y172038D01*
Y168706D01*
X914165Y167040D01*
X920829Y157043D02*
X922495Y158709D01*
Y162041D01*
X920829Y163707D01*
X914165D01*
X912499Y162041D01*
Y158709D01*
X914165Y157043D01*
X893829Y177036D02*
X895495Y178702D01*
Y182035D01*
X893829Y183701D01*
X887165D01*
X885499Y182035D01*
Y178702D01*
X887165Y177036D01*
X890497D01*
Y180369D01*
X885499Y173704D02*
X895495D01*
X885499Y167040D01*
X895495D01*
Y163707D02*
X885499D01*
Y158709D01*
X887165Y157043D01*
X893829D01*
X895495Y158709D01*
Y163707D01*
X100000Y634498D02*
X106664D01*
X103332Y637831D02*
Y631166D01*
X102000Y572498D02*
X108665D01*
X200000Y635000D02*
X193335D01*
X190003Y638332D01*
X193335Y641665D01*
X200000D01*
X195002D01*
Y635000D01*
X190003Y644997D02*
X196668D01*
X200000Y648329D01*
X196668Y651661D01*
X190003D01*
X191669Y661658D02*
X190003Y659992D01*
Y656660D01*
X191669Y654994D01*
X198334D01*
X200000Y656660D01*
Y659992D01*
X198334Y661658D01*
X191669Y671655D02*
X190003Y669989D01*
Y666656D01*
X191669Y664990D01*
X198334D01*
X200000Y666656D01*
Y669989D01*
X198334Y671655D01*
X221669Y641665D02*
X220003Y639998D01*
Y636666D01*
X221669Y635000D01*
X228334D01*
X230000Y636666D01*
Y639998D01*
X228334Y641665D01*
X225002D01*
Y638332D01*
X230000Y644997D02*
X220003D01*
X230000Y651661D01*
X220003D01*
Y654994D02*
X230000D01*
Y659992D01*
X228334Y661658D01*
X221669D01*
X220003Y659992D01*
Y654994D01*
X255000Y635000D02*
X248335D01*
X245003Y638332D01*
X248335Y641665D01*
X255000D01*
X250002D01*
Y635000D01*
X255000Y644997D02*
X245003D01*
Y649995D01*
X246669Y651661D01*
X250002D01*
X251668Y649995D01*
Y644997D01*
Y648329D02*
X255000Y651661D01*
X245003Y661658D02*
Y654994D01*
X255000D01*
Y661658D01*
X250002Y654994D02*
Y658326D01*
X245003Y671655D02*
Y664990D01*
X250002D01*
Y668323D01*
Y664990D01*
X255000D01*
X280000Y635000D02*
X270003D01*
Y639998D01*
X271669Y641665D01*
X275002D01*
X276668Y639998D01*
Y635000D01*
X270003Y651661D02*
Y644997D01*
X275002D01*
Y648329D01*
Y644997D01*
X280000D01*
X271669Y654994D02*
X270003Y656660D01*
Y659992D01*
X271669Y661658D01*
X278334D01*
X280000Y659992D01*
Y656660D01*
X278334Y654994D01*
X271669D01*
X300000Y635000D02*
X290003D01*
Y639998D01*
X291669Y641665D01*
X295002D01*
X296668Y639998D01*
Y635000D01*
X290003Y651661D02*
Y644997D01*
X295002D01*
Y648329D01*
Y644997D01*
X300000D01*
Y654994D02*
Y658326D01*
Y656660D01*
X290003D01*
X291669Y654994D01*
X355000Y635000D02*
X345003D01*
Y639998D01*
X346669Y641665D01*
X350002D01*
X351668Y639998D01*
Y635000D01*
X345003Y651661D02*
Y644997D01*
X350002D01*
Y648329D01*
Y644997D01*
X355000D01*
X346669Y654994D02*
X345003Y656660D01*
Y659992D01*
X346669Y661658D01*
X348335D01*
X350002Y659992D01*
Y658326D01*
Y659992D01*
X351668Y661658D01*
X353334D01*
X355000Y659992D01*
Y656660D01*
X353334Y654994D01*
X330000Y635000D02*
X320003D01*
Y639998D01*
X321669Y641665D01*
X325002D01*
X326668Y639998D01*
Y635000D01*
X320003Y651661D02*
Y644997D01*
X325002D01*
Y648329D01*
Y644997D01*
X330000D01*
Y661658D02*
Y654994D01*
X323335Y661658D01*
X321669D01*
X320003Y659992D01*
Y656660D01*
X321669Y654994D01*
X430000Y635000D02*
X420003D01*
Y639998D01*
X421669Y641665D01*
X425002D01*
X426668Y639998D01*
Y635000D01*
X420003Y651661D02*
Y644997D01*
X425002D01*
Y648329D01*
Y644997D01*
X430000D01*
X420003Y661658D02*
X421669Y658326D01*
X425002Y654994D01*
X428334D01*
X430000Y656660D01*
Y659992D01*
X428334Y661658D01*
X426668D01*
X425002Y659992D01*
Y654994D01*
X455000Y635000D02*
X445003D01*
Y639998D01*
X446669Y641665D01*
X450002D01*
X451668Y639998D01*
Y635000D01*
X445003Y651661D02*
Y644997D01*
X450002D01*
Y648329D01*
Y644997D01*
X455000D01*
X445003Y654994D02*
Y661658D01*
X446669D01*
X453334Y654994D01*
X455000D01*
X400000Y635000D02*
X390003D01*
Y639998D01*
X391669Y641665D01*
X395002D01*
X396668Y639998D01*
Y635000D01*
X390003Y651661D02*
Y644997D01*
X395002D01*
Y648329D01*
Y644997D01*
X400000D01*
X390003Y661658D02*
Y654994D01*
X395002D01*
X393335Y658326D01*
Y659992D01*
X395002Y661658D01*
X398334D01*
X400000Y659992D01*
Y656660D01*
X398334Y654994D01*
X380000Y635000D02*
X370003D01*
Y639998D01*
X371669Y641665D01*
X375002D01*
X376668Y639998D01*
Y635000D01*
X370003Y651661D02*
Y644997D01*
X375002D01*
Y648329D01*
Y644997D01*
X380000D01*
Y659992D02*
X370003D01*
X375002Y654994D01*
Y661658D01*
X585000Y635000D02*
X575003D01*
Y639998D01*
X576669Y641665D01*
X580002D01*
X581668Y639998D01*
Y635000D01*
X575003Y651661D02*
Y644997D01*
X580002D01*
Y648329D01*
Y644997D01*
X585000D01*
Y659992D02*
X575003D01*
X580002Y654994D01*
Y661658D01*
X605000Y635000D02*
X595003D01*
Y639998D01*
X596669Y641665D01*
X600002D01*
X601668Y639998D01*
Y635000D01*
X595003Y644997D02*
X605000D01*
X601668D01*
X595003Y651661D01*
X600002Y646663D01*
X605000Y651661D01*
X595003Y661658D02*
Y654994D01*
X600002D01*
X598335Y658326D01*
Y659992D01*
X600002Y661658D01*
X603334D01*
X605000Y659992D01*
Y656660D01*
X603334Y654994D01*
X660000Y635000D02*
X650003D01*
Y639998D01*
X651669Y641665D01*
X655002D01*
X656668Y639998D01*
Y635000D01*
X650003Y644997D02*
X660000D01*
X656668D01*
X650003Y651661D01*
X655002Y646663D01*
X660000Y651661D01*
X650003Y654994D02*
Y661658D01*
X651669D01*
X658334Y654994D01*
X660000D01*
X635000Y635000D02*
X625003D01*
Y639998D01*
X626669Y641665D01*
X630002D01*
X631668Y639998D01*
Y635000D01*
X625003Y644997D02*
X635000D01*
X631668D01*
X625003Y651661D01*
X630002Y646663D01*
X635000Y651661D01*
X625003Y661658D02*
X626669Y658326D01*
X630002Y654994D01*
X633334D01*
X635000Y656660D01*
Y659992D01*
X633334Y661658D01*
X631668D01*
X630002Y659992D01*
Y654994D01*
X535000Y635000D02*
X525003D01*
Y639998D01*
X526669Y641665D01*
X530002D01*
X531668Y639998D01*
Y635000D01*
X525003Y644997D02*
X535000D01*
X531668D01*
X525003Y651661D01*
X530002Y646663D01*
X535000Y651661D01*
Y661658D02*
Y654994D01*
X528335Y661658D01*
X526669D01*
X525003Y659992D01*
Y656660D01*
X526669Y654994D01*
X560000Y635000D02*
X550003D01*
Y639998D01*
X551669Y641665D01*
X555002D01*
X556668Y639998D01*
Y635000D01*
X550003Y644997D02*
X560000D01*
X556668D01*
X550003Y651661D01*
X555002Y646663D01*
X560000Y651661D01*
X551669Y654994D02*
X550003Y656660D01*
Y659992D01*
X551669Y661658D01*
X553335D01*
X555002Y659992D01*
Y658326D01*
Y659992D01*
X556668Y661658D01*
X558334D01*
X560000Y659992D01*
Y656660D01*
X558334Y654994D01*
X505000Y635000D02*
X495003D01*
Y639998D01*
X496669Y641665D01*
X500002D01*
X501668Y639998D01*
Y635000D01*
X495003Y644997D02*
X505000D01*
X501668D01*
X495003Y651661D01*
X500002Y646663D01*
X505000Y651661D01*
Y654994D02*
Y658326D01*
Y656660D01*
X495003D01*
X496669Y654994D01*
X485000Y635000D02*
X475003D01*
Y639998D01*
X476669Y641665D01*
X480002D01*
X481668Y639998D01*
Y635000D01*
X475003Y644997D02*
X485000D01*
X481668D01*
X475003Y651661D01*
X480002Y646663D01*
X485000Y651661D01*
X476669Y654994D02*
X475003Y656660D01*
Y659992D01*
X476669Y661658D01*
X483334D01*
X485000Y659992D01*
Y656660D01*
X483334Y654994D01*
X476669D01*
X676669Y641665D02*
X675003Y639998D01*
Y636666D01*
X676669Y635000D01*
X683334D01*
X685000Y636666D01*
Y639998D01*
X683334Y641665D01*
X680002D01*
Y638332D01*
X685000Y644997D02*
X675003D01*
X685000Y651661D01*
X675003D01*
Y654994D02*
X685000D01*
Y659992D01*
X683334Y661658D01*
X676669D01*
X675003Y659992D01*
Y654994D01*
X695003Y635000D02*
X701668D01*
X705000Y638332D01*
X701668Y641665D01*
X695003D01*
X696669Y651661D02*
X695003Y649995D01*
Y646663D01*
X696669Y644997D01*
X703334D01*
X705000Y646663D01*
Y649995D01*
X703334Y651661D01*
X696669Y661658D02*
X695003Y659992D01*
Y656660D01*
X696669Y654994D01*
X703334D01*
X705000Y656660D01*
Y659992D01*
X703334Y661658D01*
X735000Y635000D02*
X725003D01*
Y639998D01*
X726669Y641665D01*
X730002D01*
X731668Y639998D01*
Y635000D01*
X725003Y651661D02*
Y648329D01*
Y649995D01*
X733334D01*
X735000Y648329D01*
Y646663D01*
X733334Y644997D01*
X725003Y654994D02*
Y661658D01*
X726669D01*
X733334Y654994D01*
X735000D01*
X760000Y635000D02*
X750003D01*
Y639998D01*
X751669Y641665D01*
X755002D01*
X756668Y639998D01*
Y635000D01*
X760000Y644997D02*
X753335D01*
X750003Y648329D01*
X753335Y651661D01*
X760000D01*
X755002D01*
Y644997D01*
X751669Y654994D02*
X750003Y656660D01*
Y659992D01*
X751669Y661658D01*
X758334D01*
X760000Y659992D01*
Y656660D01*
X758334Y654994D01*
X751669D01*
X785000Y635000D02*
X775003D01*
Y639998D01*
X776669Y641665D01*
X780002D01*
X781668Y639998D01*
Y635000D01*
X785000Y644997D02*
X778335D01*
X775003Y648329D01*
X778335Y651661D01*
X785000D01*
X780002D01*
Y644997D01*
X785000Y654994D02*
Y658326D01*
Y656660D01*
X775003D01*
X776669Y654994D01*
X810000Y635000D02*
X800003D01*
Y639998D01*
X801669Y641665D01*
X805002D01*
X806668Y639998D01*
Y635000D01*
X810000Y644997D02*
X803335D01*
X800003Y648329D01*
X803335Y651661D01*
X810000D01*
X805002D01*
Y644997D01*
X810000Y661658D02*
Y654994D01*
X803335Y661658D01*
X801669D01*
X800003Y659992D01*
Y656660D01*
X801669Y654994D01*
X100000Y670000D02*
Y679997D01*
X104998D01*
X106664Y678331D01*
Y674998D01*
X104998Y673332D01*
X100000D01*
X116661Y678331D02*
X114995Y679997D01*
X111663D01*
X109997Y678331D01*
Y671666D01*
X111663Y670000D01*
X114995D01*
X116661Y671666D01*
Y674998D01*
X113329D01*
X126658Y679997D02*
X119994D01*
Y674998D01*
X123326Y676665D01*
X124992D01*
X126658Y674998D01*
Y671666D01*
X124992Y670000D01*
X121660D01*
X119994Y671666D01*
X100000Y645000D02*
Y654997D01*
X104998D01*
X106664Y653331D01*
Y649998D01*
X104998Y648332D01*
X100000D01*
X116661Y654997D02*
X109997D01*
Y645000D01*
X116661D01*
X109997Y649998D02*
X113329D01*
X119994Y653331D02*
X121660Y654997D01*
X124992D01*
X126658Y653331D01*
Y646666D01*
X124992Y645000D01*
X121660D01*
X119994Y646666D01*
Y653331D01*
X170000Y615000D02*
Y624997D01*
X174998D01*
X176665Y623331D01*
Y619998D01*
X174998Y618332D01*
X170000D01*
X186661Y624997D02*
X179997D01*
Y615000D01*
X186661D01*
X179997Y619998D02*
X183329D01*
X189993Y615000D02*
X193326D01*
X191660D01*
Y624997D01*
X189993Y623331D01*
X170000Y590000D02*
Y599997D01*
X174998D01*
X176665Y598331D01*
Y594998D01*
X174998Y593332D01*
X170000D01*
X186661Y599997D02*
X179997D01*
Y590000D01*
X186661D01*
X179997Y594998D02*
X183329D01*
X196658Y590000D02*
X189994D01*
X196658Y596665D01*
Y598331D01*
X194992Y599997D01*
X191660D01*
X189994Y598331D01*
X170000Y565000D02*
Y574997D01*
X174998D01*
X176665Y573331D01*
Y569998D01*
X174998Y568332D01*
X170000D01*
X186661Y574997D02*
X179997D01*
Y565000D01*
X186661D01*
X179997Y569998D02*
X183329D01*
X189994Y573331D02*
X191660Y574997D01*
X194992D01*
X196658Y573331D01*
Y571665D01*
X194992Y569998D01*
X193326D01*
X194992D01*
X196658Y568332D01*
Y566666D01*
X194992Y565000D01*
X191660D01*
X189994Y566666D01*
X170000Y540000D02*
Y549997D01*
X174998D01*
X176665Y548331D01*
Y544998D01*
X174998Y543332D01*
X170000D01*
X186661Y549997D02*
X179997D01*
Y540000D01*
X186661D01*
X179997Y544998D02*
X183329D01*
X194992Y540000D02*
Y549997D01*
X189994Y544998D01*
X196658D01*
X170000Y515000D02*
Y524997D01*
X174998D01*
X176665Y523331D01*
Y519998D01*
X174998Y518332D01*
X170000D01*
X186661Y524997D02*
X179997D01*
Y515000D01*
X186661D01*
X179997Y519998D02*
X183329D01*
X196658Y524997D02*
X189994D01*
Y519998D01*
X193326Y521665D01*
X194992D01*
X196658Y519998D01*
Y516666D01*
X194992Y515000D01*
X191660D01*
X189994Y516666D01*
X170000Y490000D02*
Y499997D01*
X174998D01*
X176665Y498331D01*
Y494998D01*
X174998Y493332D01*
X170000D01*
X186661Y499997D02*
X179997D01*
Y490000D01*
X186661D01*
X179997Y494998D02*
X183329D01*
X196658Y499997D02*
X193326Y498331D01*
X189994Y494998D01*
Y491666D01*
X191660Y490000D01*
X194992D01*
X196658Y491666D01*
Y493332D01*
X194992Y494998D01*
X189994D01*
X170000Y465000D02*
Y474997D01*
X174998D01*
X176665Y473331D01*
Y469998D01*
X174998Y468332D01*
X170000D01*
X186661Y474997D02*
X179997D01*
Y465000D01*
X186661D01*
X179997Y469998D02*
X183329D01*
X189994Y474997D02*
X196658D01*
Y473331D01*
X189994Y466666D01*
Y465000D01*
X170000Y449997D02*
Y443332D01*
X173332Y440000D01*
X176665Y443332D01*
Y449997D01*
X186661Y448331D02*
X184995Y449997D01*
X181663D01*
X179997Y448331D01*
Y441666D01*
X181663Y440000D01*
X184995D01*
X186661Y441666D01*
X196658Y448331D02*
X194992Y449997D01*
X191660D01*
X189994Y448331D01*
Y441666D01*
X191660Y440000D01*
X194992D01*
X196658Y441666D01*
X176665Y423331D02*
X174998Y424997D01*
X171666D01*
X170000Y423331D01*
Y416666D01*
X171666Y415000D01*
X174998D01*
X176665Y416666D01*
Y419998D01*
X173332D01*
X179997Y415000D02*
Y424997D01*
X186661Y415000D01*
Y424997D01*
X189994D02*
Y415000D01*
X194992D01*
X196658Y416666D01*
Y423331D01*
X194992Y424997D01*
X189994D01*
X170000Y390000D02*
Y399997D01*
X174998D01*
X176665Y398331D01*
Y394998D01*
X174998Y393332D01*
X170000D01*
X179997Y399997D02*
Y390000D01*
Y394998D01*
X186661D01*
Y399997D01*
Y390000D01*
X189994Y398331D02*
X191660Y399997D01*
X194992D01*
X196658Y398331D01*
Y391666D01*
X194992Y390000D01*
X191660D01*
X189994Y391666D01*
Y398331D01*
X170000Y365000D02*
Y374997D01*
X174998D01*
X176665Y373331D01*
Y369998D01*
X174998Y368332D01*
X170000D01*
X179997Y374997D02*
Y365000D01*
Y369998D01*
X186661D01*
Y374997D01*
Y365000D01*
X189994D02*
X193326D01*
X191660D01*
Y374997D01*
X189994Y373331D01*
X170000Y340000D02*
Y349997D01*
X174998D01*
X176665Y348331D01*
Y344998D01*
X174998Y343332D01*
X170000D01*
X179997Y349997D02*
Y340000D01*
Y344998D01*
X186661D01*
Y349997D01*
Y340000D01*
X196658D02*
X189994D01*
X196658Y346665D01*
Y348331D01*
X194992Y349997D01*
X191660D01*
X189994Y348331D01*
X170000Y310000D02*
Y319997D01*
X174998D01*
X176665Y318331D01*
Y314998D01*
X174998Y313332D01*
X170000D01*
X179997Y319997D02*
Y310000D01*
Y314998D01*
X186661D01*
Y319997D01*
Y310000D01*
X189994Y318331D02*
X191660Y319997D01*
X194992D01*
X196658Y318331D01*
Y316665D01*
X194992Y314998D01*
X193326D01*
X194992D01*
X196658Y313332D01*
Y311666D01*
X194992Y310000D01*
X191660D01*
X189994Y311666D01*
X170000Y285000D02*
Y294997D01*
X174998D01*
X176665Y293331D01*
Y289998D01*
X174998Y288332D01*
X170000D01*
X179997Y294997D02*
Y285000D01*
Y289998D01*
X186661D01*
Y294997D01*
Y285000D01*
X194992D02*
Y294997D01*
X189994Y289998D01*
X196658D01*
X170000Y260000D02*
Y269997D01*
X174998D01*
X176665Y268331D01*
Y264998D01*
X174998Y263332D01*
X170000D01*
X179997Y269997D02*
Y260000D01*
Y264998D01*
X186661D01*
Y269997D01*
Y260000D01*
X196658Y269997D02*
X189994D01*
Y264998D01*
X193326Y266665D01*
X194992D01*
X196658Y264998D01*
Y261666D01*
X194992Y260000D01*
X191660D01*
X189994Y261666D01*
X170000Y235000D02*
Y244997D01*
X174998D01*
X176665Y243331D01*
Y239998D01*
X174998Y238332D01*
X170000D01*
X179997Y244997D02*
Y235000D01*
Y239998D01*
X186661D01*
Y244997D01*
Y235000D01*
X196658Y244997D02*
X193326Y243331D01*
X189994Y239998D01*
Y236666D01*
X191660Y235000D01*
X194992D01*
X196658Y236666D01*
Y238332D01*
X194992Y239998D01*
X189994D01*
X170000Y210000D02*
Y219997D01*
X174998D01*
X176665Y218331D01*
Y214998D01*
X174998Y213332D01*
X170000D01*
X179997Y219997D02*
Y210000D01*
X184995D01*
X186661Y211666D01*
Y213332D01*
X184995Y214998D01*
X179997D01*
X184995D01*
X186661Y216665D01*
Y218331D01*
X184995Y219997D01*
X179997D01*
X189994Y218331D02*
X191660Y219997D01*
X194992D01*
X196658Y218331D01*
Y211666D01*
X194992Y210000D01*
X191660D01*
X189994Y211666D01*
Y218331D01*
X170000Y185000D02*
Y194997D01*
X174998D01*
X176665Y193331D01*
Y189998D01*
X174998Y188332D01*
X170000D01*
X179997Y194997D02*
Y185000D01*
X184995D01*
X186661Y186666D01*
Y188332D01*
X184995Y189998D01*
X179997D01*
X184995D01*
X186661Y191665D01*
Y193331D01*
X184995Y194997D01*
X179997D01*
X189994Y185000D02*
X193326D01*
X191660D01*
Y194997D01*
X189994Y193331D01*
X170000Y160000D02*
Y169997D01*
X174998D01*
X176665Y168331D01*
Y164998D01*
X174998Y163332D01*
X170000D01*
X179997Y169997D02*
Y160000D01*
X184995D01*
X186661Y161666D01*
Y163332D01*
X184995Y164998D01*
X179997D01*
X184995D01*
X186661Y166665D01*
Y168331D01*
X184995Y169997D01*
X179997D01*
X196658Y160000D02*
X189994D01*
X196658Y166665D01*
Y168331D01*
X194992Y169997D01*
X191660D01*
X189994Y168331D01*
X170000Y135000D02*
Y144997D01*
X174998D01*
X176665Y143331D01*
Y139998D01*
X174998Y138332D01*
X170000D01*
X179997Y144997D02*
Y135000D01*
X184995D01*
X186661Y136666D01*
Y138332D01*
X184995Y139998D01*
X179997D01*
X184995D01*
X186661Y141664D01*
Y143331D01*
X184995Y144997D01*
X179997D01*
X189994Y143331D02*
X191660Y144997D01*
X194992D01*
X196658Y143331D01*
Y141664D01*
X194992Y139998D01*
X193326D01*
X194992D01*
X196658Y138332D01*
Y136666D01*
X194992Y135000D01*
X191660D01*
X189994Y136666D01*
X170000Y110000D02*
Y119997D01*
X174998D01*
X176665Y118331D01*
Y114998D01*
X174998Y113332D01*
X170000D01*
X179997Y119997D02*
Y110000D01*
X184995D01*
X186661Y111666D01*
Y113332D01*
X184995Y114998D01*
X179997D01*
X184995D01*
X186661Y116664D01*
Y118331D01*
X184995Y119997D01*
X179997D01*
X194992Y110000D02*
Y119997D01*
X189994Y114998D01*
X196658D01*
X100000Y85000D02*
Y94997D01*
X104998D01*
X106664Y93331D01*
Y89998D01*
X104998Y88332D01*
X100000D01*
X109997Y94997D02*
Y85000D01*
X114995D01*
X116661Y86666D01*
Y88332D01*
X114995Y89998D01*
X109997D01*
X114995D01*
X116661Y91664D01*
Y93331D01*
X114995Y94997D01*
X109997D01*
X126658D02*
X119994D01*
Y89998D01*
X123326Y91664D01*
X124992D01*
X126658Y89998D01*
Y86666D01*
X124992Y85000D01*
X121660D01*
X119994Y86666D01*
X100000Y60000D02*
Y69997D01*
X104998D01*
X106664Y68331D01*
Y64998D01*
X104998Y63332D01*
X100000D01*
X109997Y69997D02*
Y60000D01*
X114995D01*
X116661Y61666D01*
Y63332D01*
X114995Y64998D01*
X109997D01*
X114995D01*
X116661Y66665D01*
Y68331D01*
X114995Y69997D01*
X109997D01*
X126658D02*
X123326Y68331D01*
X119994Y64998D01*
Y61666D01*
X121660Y60000D01*
X124992D01*
X126658Y61666D01*
Y63332D01*
X124992Y64998D01*
X119994D01*
X175000Y85000D02*
Y94997D01*
X179998D01*
X181665Y93331D01*
Y89998D01*
X179998Y88332D01*
X175000D01*
X184997Y94997D02*
Y85000D01*
X189995D01*
X191661Y86666D01*
Y88332D01*
X189995Y89998D01*
X184997D01*
X189995D01*
X191661Y91664D01*
Y93331D01*
X189995Y94997D01*
X184997D01*
X194994D02*
X201658D01*
Y93331D01*
X194994Y86666D01*
Y85000D01*
X230000D02*
X220003D01*
Y89998D01*
X221669Y91664D01*
X225002D01*
X226668Y89998D01*
Y85000D01*
X220003Y94997D02*
X230000D01*
X225002D01*
Y101661D01*
X220003D01*
X230000D01*
X220003Y104994D02*
Y111658D01*
X221669D01*
X228334Y104994D01*
X230000D01*
X255000Y85000D02*
X245003D01*
Y89998D01*
X246669Y91664D01*
X250002D01*
X251668Y89998D01*
Y85000D01*
X246669Y101661D02*
X245003Y99995D01*
Y96663D01*
X246669Y94997D01*
X253334D01*
X255000Y96663D01*
Y99995D01*
X253334Y101661D01*
X250002D01*
Y98329D01*
X246669Y104994D02*
X245003Y106660D01*
Y109992D01*
X246669Y111658D01*
X248335D01*
X250002Y109992D01*
Y108326D01*
Y109992D01*
X251668Y111658D01*
X253334D01*
X255000Y109992D01*
Y106660D01*
X253334Y104994D01*
X280000Y85000D02*
X270003D01*
Y89998D01*
X271669Y91664D01*
X275002D01*
X276668Y89998D01*
Y85000D01*
X271669Y101661D02*
X270003Y99995D01*
Y96663D01*
X271669Y94997D01*
X278334D01*
X280000Y96663D01*
Y99995D01*
X278334Y101661D01*
X275002D01*
Y98329D01*
X280000Y109992D02*
X270003D01*
X275002Y104994D01*
Y111658D01*
X305000Y85000D02*
X295003D01*
Y89998D01*
X296669Y91664D01*
X300002D01*
X301668Y89998D01*
Y85000D01*
Y88332D02*
X305000Y91664D01*
X295003Y101661D02*
Y94997D01*
X305000D01*
Y101661D01*
X300002Y94997D02*
Y98329D01*
X296669Y111658D02*
X295003Y109992D01*
Y106660D01*
X296669Y104994D01*
X298335D01*
X300002Y106660D01*
Y109992D01*
X301668Y111658D01*
X303334D01*
X305000Y109992D01*
Y106660D01*
X303334Y104994D01*
X295003Y121655D02*
Y114990D01*
X305000D01*
Y121655D01*
X300002Y114990D02*
Y118323D01*
X295003Y124987D02*
Y131652D01*
Y128319D01*
X305000D01*
X320003Y85000D02*
X326668D01*
X330000Y88332D01*
X326668Y91664D01*
X320003D01*
X321669Y101661D02*
X320003Y99995D01*
Y96663D01*
X321669Y94997D01*
X328334D01*
X330000Y96663D01*
Y99995D01*
X328334Y101661D01*
X321669Y111658D02*
X320003Y109992D01*
Y106660D01*
X321669Y104994D01*
X328334D01*
X330000Y106660D01*
Y109992D01*
X328334Y111658D01*
X346669Y91664D02*
X345003Y89998D01*
Y86666D01*
X346669Y85000D01*
X353334D01*
X355000Y86666D01*
Y89998D01*
X353334Y91664D01*
X350002D01*
Y88332D01*
X355000Y94997D02*
X345003D01*
X355000Y101661D01*
X345003D01*
Y104994D02*
X355000D01*
Y109992D01*
X353334Y111658D01*
X346669D01*
X345003Y109992D01*
Y104994D01*
X370003Y85000D02*
X380000Y91664D01*
X370003D02*
X380000Y85000D01*
X370003Y94997D02*
Y101661D01*
Y98329D01*
X380000D01*
Y104994D02*
X373335D01*
X370003Y108326D01*
X373335Y111658D01*
X380000D01*
X375002D01*
Y104994D01*
X370003Y114990D02*
X380000D01*
Y121655D01*
Y124987D02*
Y128319D01*
Y126653D01*
X370003D01*
X371669Y124987D01*
X395003Y85000D02*
X405000Y91664D01*
X395003D02*
X405000Y85000D01*
X395003Y94997D02*
Y101661D01*
Y98329D01*
X405000D01*
Y104994D02*
X398335D01*
X395003Y108326D01*
X398335Y111658D01*
X405000D01*
X400002D01*
Y104994D01*
X395003Y114990D02*
X405000D01*
Y121655D01*
Y131652D02*
Y124987D01*
X398335Y131652D01*
X396669D01*
X395003Y129986D01*
Y126653D01*
X396669Y124987D01*
X430000Y85000D02*
X420003D01*
Y89998D01*
X421669Y91664D01*
X425002D01*
X426668Y89998D01*
Y85000D01*
X420003Y94997D02*
X430000D01*
Y101661D01*
X421669Y104994D02*
X420003Y106660D01*
Y109992D01*
X421669Y111658D01*
X428334D01*
X430000Y109992D01*
Y106660D01*
X428334Y104994D01*
X421669D01*
X455000Y85000D02*
X445003D01*
Y89998D01*
X446669Y91664D01*
X450002D01*
X451668Y89998D01*
Y85000D01*
X445003Y94997D02*
X455000D01*
Y101661D01*
Y104994D02*
Y108326D01*
Y106660D01*
X445003D01*
X446669Y104994D01*
X485000Y85000D02*
X475003D01*
Y89998D01*
X476669Y91664D01*
X480002D01*
X481668Y89998D01*
Y85000D01*
X475003Y94997D02*
X485000D01*
Y101661D01*
Y111658D02*
Y104994D01*
X478335Y111658D01*
X476669D01*
X475003Y109992D01*
Y106660D01*
X476669Y104994D01*
X515000Y85000D02*
X505003D01*
Y89998D01*
X506669Y91664D01*
X510002D01*
X511668Y89998D01*
Y85000D01*
X505003Y94997D02*
X515000D01*
Y101661D01*
X506669Y104994D02*
X505003Y106660D01*
Y109992D01*
X506669Y111658D01*
X508335D01*
X510002Y109992D01*
Y108326D01*
Y109992D01*
X511668Y111658D01*
X513334D01*
X515000Y109992D01*
Y106660D01*
X513334Y104994D01*
X535000Y85000D02*
X525003D01*
Y89998D01*
X526669Y91664D01*
X530002D01*
X531668Y89998D01*
Y85000D01*
X525003Y94997D02*
X535000D01*
Y101661D01*
Y109992D02*
X525003D01*
X530002Y104994D01*
Y111658D01*
X560000Y85000D02*
X550003D01*
Y89998D01*
X551669Y91664D01*
X555002D01*
X556668Y89998D01*
Y85000D01*
X550003Y94997D02*
X560000D01*
Y101661D01*
X550003Y111658D02*
Y104994D01*
X555002D01*
X553335Y108326D01*
Y109992D01*
X555002Y111658D01*
X558334D01*
X560000Y109992D01*
Y106660D01*
X558334Y104994D01*
X585000Y85000D02*
X575003D01*
Y89998D01*
X576669Y91664D01*
X580002D01*
X581668Y89998D01*
Y85000D01*
X575003Y94997D02*
X585000D01*
Y101661D01*
X575003Y111658D02*
X576669Y108326D01*
X580002Y104994D01*
X583334D01*
X585000Y106660D01*
Y109992D01*
X583334Y111658D01*
X581668D01*
X580002Y109992D01*
Y104994D01*
X610000Y85000D02*
X600003D01*
Y89998D01*
X601669Y91664D01*
X605002D01*
X606668Y89998D01*
Y85000D01*
X600003Y94997D02*
X610000D01*
Y101661D01*
X600003Y104994D02*
Y111658D01*
X601669D01*
X608334Y104994D01*
X610000D01*
X635000Y85000D02*
X625003D01*
Y89998D01*
X626669Y91664D01*
X630002D01*
X631668Y89998D01*
Y85000D01*
X625003Y94997D02*
X635000D01*
Y99995D01*
X633334Y101661D01*
X626669D01*
X625003Y99995D01*
Y94997D01*
X626669Y104994D02*
X625003Y106660D01*
Y109992D01*
X626669Y111658D01*
X633334D01*
X635000Y109992D01*
Y106660D01*
X633334Y104994D01*
X626669D01*
X660000Y85000D02*
X650003D01*
Y89998D01*
X651669Y91664D01*
X655002D01*
X656668Y89998D01*
Y85000D01*
X650003Y94997D02*
X660000D01*
Y99995D01*
X658334Y101661D01*
X651669D01*
X650003Y99995D01*
Y94997D01*
X660000Y104994D02*
Y108326D01*
Y106660D01*
X650003D01*
X651669Y104994D01*
X685000Y85000D02*
X675003D01*
Y89998D01*
X676669Y91664D01*
X680002D01*
X681668Y89998D01*
Y85000D01*
X675003Y94997D02*
X685000D01*
Y99995D01*
X683334Y101661D01*
X676669D01*
X675003Y99995D01*
Y94997D01*
X685000Y111658D02*
Y104994D01*
X678335Y111658D01*
X676669D01*
X675003Y109992D01*
Y106660D01*
X676669Y104994D01*
X710000Y85000D02*
X700003D01*
Y89998D01*
X701669Y91664D01*
X705002D01*
X706668Y89998D01*
Y85000D01*
X700003Y94997D02*
X710000D01*
Y99995D01*
X708334Y101661D01*
X701669D01*
X700003Y99995D01*
Y94997D01*
X701669Y104994D02*
X700003Y106660D01*
Y109992D01*
X701669Y111658D01*
X703335D01*
X705002Y109992D01*
Y108326D01*
Y109992D01*
X706668Y111658D01*
X708334D01*
X710000Y109992D01*
Y106660D01*
X708334Y104994D01*
X735000Y85000D02*
X725003D01*
Y89998D01*
X726669Y91664D01*
X730002D01*
X731668Y89998D01*
Y85000D01*
X725003Y94997D02*
X735000D01*
Y99995D01*
X733334Y101661D01*
X726669D01*
X725003Y99995D01*
Y94997D01*
X735000Y109992D02*
X725003D01*
X730002Y104994D01*
Y111658D01*
X760000Y85000D02*
X750003D01*
Y89998D01*
X751669Y91664D01*
X755002D01*
X756668Y89998D01*
Y85000D01*
X750003Y94997D02*
X760000D01*
Y99995D01*
X758334Y101661D01*
X751669D01*
X750003Y99995D01*
Y94997D01*
Y111658D02*
Y104994D01*
X755002D01*
X753335Y108326D01*
Y109992D01*
X755002Y111658D01*
X758334D01*
X760000Y109992D01*
Y106660D01*
X758334Y104994D01*
X785000Y85000D02*
X775003D01*
Y89998D01*
X776669Y91664D01*
X780002D01*
X781668Y89998D01*
Y85000D01*
X775003Y94997D02*
X785000D01*
Y99995D01*
X783334Y101661D01*
X776669D01*
X775003Y99995D01*
Y94997D01*
Y111658D02*
X776669Y108326D01*
X780002Y104994D01*
X783334D01*
X785000Y106660D01*
Y109992D01*
X783334Y111658D01*
X781668D01*
X780002Y109992D01*
Y104994D01*
X810000Y85000D02*
X800003D01*
Y89998D01*
X801669Y91664D01*
X805002D01*
X806668Y89998D01*
Y85000D01*
X800003Y94997D02*
X810000D01*
Y99995D01*
X808334Y101661D01*
X801669D01*
X800003Y99995D01*
Y94997D01*
Y104994D02*
Y111658D01*
X801669D01*
X808334Y104994D01*
X810000D01*
X840000Y30000D02*
Y39997D01*
X844998D01*
X846665Y38331D01*
Y34998D01*
X844998Y33332D01*
X840000D01*
X856661Y38331D02*
X854995Y39997D01*
X851663D01*
X849997Y38331D01*
Y31666D01*
X851663Y30000D01*
X854995D01*
X856661Y31666D01*
Y34998D01*
X853329D01*
X859994Y38331D02*
X861660Y39997D01*
X864992D01*
X866658Y38331D01*
Y31666D01*
X864992Y30000D01*
X861660D01*
X859994Y31666D01*
Y38331D01*
X835000Y80000D02*
X825003D01*
Y84998D01*
X826669Y86664D01*
X830002D01*
X831668Y84998D01*
Y80000D01*
X826669Y96661D02*
X825003Y94995D01*
Y91663D01*
X826669Y89997D01*
X833334D01*
X835000Y91663D01*
Y94995D01*
X833334Y96661D01*
X830002D01*
Y93329D01*
X835000Y99994D02*
Y103326D01*
Y101660D01*
X825003D01*
X826669Y99994D01*
X805000Y115000D02*
Y124997D01*
X809998D01*
X811665Y123331D01*
Y119998D01*
X809998Y118332D01*
X805000D01*
X821661Y123331D02*
X819995Y124997D01*
X816663D01*
X814997Y123331D01*
Y116666D01*
X816663Y115000D01*
X819995D01*
X821661Y116666D01*
X824994Y123331D02*
X826660Y124997D01*
X829992D01*
X831658Y123331D01*
Y116666D01*
X829992Y115000D01*
X826660D01*
X824994Y116666D01*
Y123331D01*
X805000Y135000D02*
Y144997D01*
X809998D01*
X811665Y143331D01*
Y139998D01*
X809998Y138332D01*
X805000D01*
X821661Y143331D02*
X819995Y144997D01*
X816663D01*
X814997Y143331D01*
Y136666D01*
X816663Y135000D01*
X819995D01*
X821661Y136666D01*
X824994Y135000D02*
X828326D01*
X826660D01*
Y144997D01*
X824994Y143331D01*
X790000Y160000D02*
Y169997D01*
X794998D01*
X796665Y168331D01*
Y164998D01*
X794998Y163332D01*
X790000D01*
X806661Y168331D02*
X804995Y169997D01*
X801663D01*
X799997Y168331D01*
Y161666D01*
X801663Y160000D01*
X804995D01*
X806661Y161666D01*
X816658Y160000D02*
X809994D01*
X816658Y166665D01*
Y168331D01*
X814992Y169997D01*
X811660D01*
X809994Y168331D01*
X805000Y175000D02*
Y184997D01*
X809998D01*
X811665Y183331D01*
Y179998D01*
X809998Y178332D01*
X805000D01*
X821661Y183331D02*
X819995Y184997D01*
X816663D01*
X814997Y183331D01*
Y176666D01*
X816663Y175000D01*
X819995D01*
X821661Y176666D01*
X824994Y183331D02*
X826660Y184997D01*
X829992D01*
X831658Y183331D01*
Y181665D01*
X829992Y179998D01*
X828326D01*
X829992D01*
X831658Y178332D01*
Y176666D01*
X829992Y175000D01*
X826660D01*
X824994Y176666D01*
X805000Y215000D02*
Y224997D01*
X809998D01*
X811665Y223331D01*
Y219998D01*
X809998Y218332D01*
X805000D01*
X821661Y223331D02*
X819995Y224997D01*
X816663D01*
X814997Y223331D01*
Y216666D01*
X816663Y215000D01*
X819995D01*
X821661Y216666D01*
X829992Y215000D02*
Y224997D01*
X824994Y219998D01*
X831658D01*
X805000Y240000D02*
Y249997D01*
X809998D01*
X811665Y248331D01*
Y244998D01*
X809998Y243332D01*
X805000D01*
X821661Y248331D02*
X819995Y249997D01*
X816663D01*
X814997Y248331D01*
Y241666D01*
X816663Y240000D01*
X819995D01*
X821661Y241666D01*
X831658Y249997D02*
X824994D01*
Y244998D01*
X828326Y246665D01*
X829992D01*
X831658Y244998D01*
Y241666D01*
X829992Y240000D01*
X826660D01*
X824994Y241666D01*
X805000Y260000D02*
Y269997D01*
X809998D01*
X811665Y268331D01*
Y264998D01*
X809998Y263332D01*
X805000D01*
X821661Y268331D02*
X819995Y269997D01*
X816663D01*
X814997Y268331D01*
Y261666D01*
X816663Y260000D01*
X819995D01*
X821661Y261666D01*
X831658Y269997D02*
X828326Y268331D01*
X824994Y264998D01*
Y261666D01*
X826660Y260000D01*
X829992D01*
X831658Y261666D01*
Y263332D01*
X829992Y264998D01*
X824994D01*
X805000Y290000D02*
Y299997D01*
X809998D01*
X811665Y298331D01*
Y294998D01*
X809998Y293332D01*
X805000D01*
X821661Y298331D02*
X819995Y299997D01*
X816663D01*
X814997Y298331D01*
Y291666D01*
X816663Y290000D01*
X819995D01*
X821661Y291666D01*
X824994Y299997D02*
X831658D01*
Y298331D01*
X824994Y291666D01*
Y290000D01*
X805000Y319997D02*
Y313332D01*
X808332Y310000D01*
X811665Y313332D01*
Y319997D01*
X821661Y318331D02*
X819995Y319997D01*
X816663D01*
X814997Y318331D01*
Y311666D01*
X816663Y310000D01*
X819995D01*
X821661Y311666D01*
X831658Y318331D02*
X829992Y319997D01*
X826660D01*
X824994Y318331D01*
Y311666D01*
X826660Y310000D01*
X829992D01*
X831658Y311666D01*
X811665Y343331D02*
X809998Y344997D01*
X806666D01*
X805000Y343331D01*
Y336666D01*
X806666Y335000D01*
X809998D01*
X811665Y336666D01*
Y339998D01*
X808332D01*
X814997Y335000D02*
Y344997D01*
X821661Y335000D01*
Y344997D01*
X824994D02*
Y335000D01*
X829992D01*
X831658Y336666D01*
Y343331D01*
X829992Y344997D01*
X824994D01*
X805000Y360000D02*
Y369997D01*
X809998D01*
X811665Y368331D01*
Y364998D01*
X809998Y363332D01*
X805000D01*
X821661Y369997D02*
X818329D01*
X819995D01*
Y361666D01*
X818329Y360000D01*
X816663D01*
X814997Y361666D01*
X824994Y368331D02*
X826660Y369997D01*
X829992D01*
X831658Y368331D01*
Y361666D01*
X829992Y360000D01*
X826660D01*
X824994Y361666D01*
Y368331D01*
X805000Y390000D02*
Y399997D01*
X809998D01*
X811665Y398331D01*
Y394998D01*
X809998Y393332D01*
X805000D01*
X821661Y399997D02*
X818329D01*
X819995D01*
Y391666D01*
X818329Y390000D01*
X816663D01*
X814997Y391666D01*
X824994Y390000D02*
X828326D01*
X826660D01*
Y399997D01*
X824994Y398331D01*
X805000Y415000D02*
Y424997D01*
X809998D01*
X811665Y423331D01*
Y419998D01*
X809998Y418332D01*
X805000D01*
X821661Y424997D02*
X818329D01*
X819995D01*
Y416666D01*
X818329Y415000D01*
X816663D01*
X814997Y416666D01*
X831658Y415000D02*
X824994D01*
X831658Y421665D01*
Y423331D01*
X829992Y424997D01*
X826660D01*
X824994Y423331D01*
X805000Y440000D02*
Y449997D01*
X809998D01*
X811665Y448331D01*
Y444998D01*
X809998Y443332D01*
X805000D01*
X821661Y449997D02*
X818329D01*
X819995D01*
Y441666D01*
X818329Y440000D01*
X816663D01*
X814997Y441666D01*
X824994Y448331D02*
X826660Y449997D01*
X829992D01*
X831658Y448331D01*
Y446665D01*
X829992Y444998D01*
X828326D01*
X829992D01*
X831658Y443332D01*
Y441666D01*
X829992Y440000D01*
X826660D01*
X824994Y441666D01*
X805000Y465000D02*
Y474997D01*
X809998D01*
X811665Y473331D01*
Y469998D01*
X809998Y468332D01*
X805000D01*
X821661Y474997D02*
X818329D01*
X819995D01*
Y466666D01*
X818329Y465000D01*
X816663D01*
X814997Y466666D01*
X829992Y465000D02*
Y474997D01*
X824994Y469998D01*
X831658D01*
X805000Y490000D02*
Y499997D01*
X809998D01*
X811665Y498331D01*
Y494998D01*
X809998Y493332D01*
X805000D01*
X821661Y499997D02*
X818329D01*
X819995D01*
Y491666D01*
X818329Y490000D01*
X816663D01*
X814997Y491666D01*
X831658Y499997D02*
X824994D01*
Y494998D01*
X828326Y496665D01*
X829992D01*
X831658Y494998D01*
Y491666D01*
X829992Y490000D01*
X826660D01*
X824994Y491666D01*
X805000Y515000D02*
Y524997D01*
X809998D01*
X811665Y523331D01*
Y519998D01*
X809998Y518332D01*
X805000D01*
X821661Y524997D02*
X818329D01*
X819995D01*
Y516666D01*
X818329Y515000D01*
X816663D01*
X814997Y516666D01*
X831658Y524997D02*
X828326Y523331D01*
X824994Y519998D01*
Y516666D01*
X826660Y515000D01*
X829992D01*
X831658Y516666D01*
Y518332D01*
X829992Y519998D01*
X824994D01*
X805000Y540000D02*
Y549997D01*
X809998D01*
X811665Y548331D01*
Y544998D01*
X809998Y543332D01*
X805000D01*
X821661Y548331D02*
X819995Y549997D01*
X816663D01*
X814997Y548331D01*
Y541666D01*
X816663Y540000D01*
X819995D01*
X821661Y541666D01*
Y544998D01*
X818329D01*
X831658Y540000D02*
X824994D01*
X831658Y546665D01*
Y548331D01*
X829992Y549997D01*
X826660D01*
X824994Y548331D01*
X805000Y565000D02*
Y574997D01*
X809998D01*
X811665Y573331D01*
Y569998D01*
X809998Y568332D01*
X805000D01*
X814997Y565000D02*
Y571665D01*
X818329Y574997D01*
X821661Y571665D01*
Y565000D01*
Y569998D01*
X814997D01*
X824994Y574997D02*
X831658D01*
Y573331D01*
X824994Y566666D01*
Y565000D01*
X805000Y590000D02*
Y599997D01*
X809998D01*
X811665Y598331D01*
Y594998D01*
X809998Y593332D01*
X805000D01*
X814997Y590000D02*
Y596665D01*
X818329Y599997D01*
X821661Y596665D01*
Y590000D01*
Y594998D01*
X814997D01*
X831658Y599997D02*
X828326Y598331D01*
X824994Y594998D01*
Y591666D01*
X826660Y590000D01*
X829992D01*
X831658Y591666D01*
Y593332D01*
X829992Y594998D01*
X824994D01*
X805000Y615000D02*
Y624997D01*
X809998D01*
X811665Y623331D01*
Y619998D01*
X809998Y618332D01*
X805000D01*
X814997Y615000D02*
Y621665D01*
X818329Y624997D01*
X821661Y621665D01*
Y615000D01*
Y619998D01*
X814997D01*
X831658Y624997D02*
X824994D01*
Y619998D01*
X828326Y621665D01*
X829992D01*
X831658Y619998D01*
Y616666D01*
X829992Y615000D01*
X826660D01*
X824994Y616666D01*
X830000Y630000D02*
X820003D01*
Y634998D01*
X821669Y636665D01*
X825002D01*
X826668Y634998D01*
Y630000D01*
X830000Y639997D02*
X823335D01*
X820003Y643329D01*
X823335Y646661D01*
X830000D01*
X825002D01*
Y639997D01*
X830000Y654992D02*
X820003D01*
X825002Y649994D01*
Y656658D01*
X805000Y665000D02*
Y674997D01*
X809998D01*
X811665Y673331D01*
Y669998D01*
X809998Y668332D01*
X805000D01*
X814997Y665000D02*
Y671665D01*
X818329Y674997D01*
X821661Y671665D01*
Y665000D01*
Y669998D01*
X814997D01*
X824994Y673331D02*
X826660Y674997D01*
X829992D01*
X831658Y673331D01*
Y671665D01*
X829992Y669998D01*
X828326D01*
X829992D01*
X831658Y668332D01*
Y666666D01*
X829992Y665000D01*
X826660D01*
X824994Y666666D01*
D33*
X690950Y269409D02*
Y313859D01*
Y269409D02*
X729050D01*
Y313859D01*
X690950D02*
X729050D01*
X508100Y249800D02*
Y275200D01*
X505559Y277741D02*
X508100Y275200D01*
X431900Y277741D02*
X505559D01*
X431900Y249800D02*
Y277741D01*
Y249800D02*
X508100Y249800D01*
D34*
X818801Y709000D02*
D03*
X186800Y50501D02*
D03*
D35*
X135500Y683500D02*
D03*
X864500Y51498D02*
D03*
D36*
X935499Y147701D02*
D03*
M02*
