G04 Layer_Color=8421504*
%FSLAX44Y44*%
%MOMM*%
G71*
G01*
G75*
%ADD10R,1.3000X1.0000*%
%ADD11O,0.3000X1.5000*%
%ADD12O,1.5000X0.3000*%
%ADD13R,1.3500X4.6000*%
%ADD14R,10.8000X9.4000*%
%ADD15R,1.4000X1.1000*%
%ADD16R,1.1000X1.4000*%
%ADD17R,1.0000X1.3000*%
%ADD18O,0.5000X1.6000*%
%ADD19R,2.2500X1.0000*%
%ADD20R,2.2500X0.5000*%
%ADD21R,2.9000X2.0000*%
D10*
X419000Y529000D02*
D03*
Y545000D02*
D03*
X662000Y355000D02*
D03*
Y339000D02*
D03*
X982500Y439500D02*
D03*
Y455500D02*
D03*
X85000Y250500D02*
D03*
Y234500D02*
D03*
X35000Y170500D02*
D03*
Y154500D02*
D03*
X87500Y302000D02*
D03*
Y318000D02*
D03*
D11*
X435000Y455000D02*
D03*
X440000D02*
D03*
X445000D02*
D03*
X450000D02*
D03*
X455000D02*
D03*
X460000D02*
D03*
X465000D02*
D03*
X470000D02*
D03*
X475000D02*
D03*
X480000D02*
D03*
X485000D02*
D03*
X490000D02*
D03*
X495000D02*
D03*
X500000D02*
D03*
X505000D02*
D03*
X510000D02*
D03*
X515000D02*
D03*
X520000D02*
D03*
X525000D02*
D03*
X530000D02*
D03*
X535000D02*
D03*
X540000D02*
D03*
X545000D02*
D03*
X550000D02*
D03*
X555000D02*
D03*
Y300000D02*
D03*
X550000D02*
D03*
X545000D02*
D03*
X540000D02*
D03*
X535000D02*
D03*
X530000D02*
D03*
X525000D02*
D03*
X520000D02*
D03*
X515000D02*
D03*
X510000D02*
D03*
X505000D02*
D03*
X500000D02*
D03*
X495000D02*
D03*
X490000D02*
D03*
X485000D02*
D03*
X480000D02*
D03*
X475000D02*
D03*
X470000D02*
D03*
X465000D02*
D03*
X460000D02*
D03*
X455000D02*
D03*
X450000D02*
D03*
X445000D02*
D03*
X440000D02*
D03*
X435000D02*
D03*
D12*
X572500Y437500D02*
D03*
Y432500D02*
D03*
Y427500D02*
D03*
Y422500D02*
D03*
Y417500D02*
D03*
Y412500D02*
D03*
Y407500D02*
D03*
Y402500D02*
D03*
Y397500D02*
D03*
Y392500D02*
D03*
Y387500D02*
D03*
Y382500D02*
D03*
Y377500D02*
D03*
Y372500D02*
D03*
Y367500D02*
D03*
Y362500D02*
D03*
Y357500D02*
D03*
Y352500D02*
D03*
Y347500D02*
D03*
Y342500D02*
D03*
Y337500D02*
D03*
Y332500D02*
D03*
Y327500D02*
D03*
Y322500D02*
D03*
Y317500D02*
D03*
X417500D02*
D03*
Y322500D02*
D03*
Y327500D02*
D03*
Y332500D02*
D03*
Y337500D02*
D03*
Y342500D02*
D03*
Y347500D02*
D03*
Y352500D02*
D03*
Y357500D02*
D03*
Y362500D02*
D03*
Y367500D02*
D03*
Y372500D02*
D03*
Y377500D02*
D03*
Y382500D02*
D03*
Y387500D02*
D03*
Y392500D02*
D03*
Y397500D02*
D03*
Y402500D02*
D03*
Y407500D02*
D03*
Y412500D02*
D03*
Y417500D02*
D03*
Y422500D02*
D03*
Y427500D02*
D03*
Y432500D02*
D03*
Y437500D02*
D03*
D13*
X968000Y513000D02*
D03*
X942600D02*
D03*
X917200D02*
D03*
D14*
X942600Y619000D02*
D03*
D15*
X320500Y507000D02*
D03*
Y522000D02*
D03*
X413000Y248000D02*
D03*
Y263000D02*
D03*
X352000Y369500D02*
D03*
Y384500D02*
D03*
X524000Y495500D02*
D03*
Y510500D02*
D03*
X495400Y235000D02*
D03*
Y220000D02*
D03*
X437500Y235000D02*
D03*
X437500Y220000D02*
D03*
X632000Y262500D02*
D03*
Y277500D02*
D03*
D16*
X629500Y359500D02*
D03*
X644500D02*
D03*
D17*
X958000Y450000D02*
D03*
X942000D02*
D03*
D18*
X104750Y477750D02*
D03*
X98250D02*
D03*
X91750D02*
D03*
X85250D02*
D03*
X78750D02*
D03*
X72250D02*
D03*
X65750D02*
D03*
X59250D02*
D03*
X52750D02*
D03*
X46250D02*
D03*
X39750D02*
D03*
X33250D02*
D03*
X26750D02*
D03*
X20250D02*
D03*
X104750Y407250D02*
D03*
X98250Y407250D02*
D03*
X91750Y407250D02*
D03*
X85250Y407250D02*
D03*
X78750Y407250D02*
D03*
X72250Y407250D02*
D03*
X65750D02*
D03*
X59250D02*
D03*
X52750D02*
D03*
X46250Y407250D02*
D03*
X39750Y407250D02*
D03*
X33250Y407250D02*
D03*
X26750Y407250D02*
D03*
X20250Y407250D02*
D03*
D19*
X109000Y620500D02*
D03*
Y584500D02*
D03*
D20*
Y610500D02*
D03*
Y602500D02*
D03*
Y594500D02*
D03*
D21*
X80000Y652500D02*
D03*
X40000D02*
D03*
Y552500D02*
D03*
X80000D02*
D03*
M02*
