G04 Layer_Color=8388736*
%FSLAX44Y44*%
%MOMM*%
G71*
G01*
G75*
%ADD37R,1.5032X1.2032*%
%ADD38O,0.5032X1.7032*%
%ADD39O,1.7032X0.5032*%
%ADD40R,1.5532X4.8032*%
%ADD41R,11.0032X9.6032*%
%ADD42R,1.6032X1.3032*%
%ADD43R,1.3032X1.6032*%
%ADD44R,1.2032X1.5032*%
%ADD45O,0.7032X1.8032*%
%ADD46R,2.4532X1.2032*%
%ADD47R,2.4532X0.7032*%
%ADD48R,3.1032X2.2032*%
G04:AMPARAMS|DCode=49|XSize=2.2032mm|YSize=2.2032mm|CornerRadius=0.6016mm|HoleSize=0mm|Usage=FLASHONLY|Rotation=180.000|XOffset=0mm|YOffset=0mm|HoleType=Round|Shape=RoundedRectangle|*
%AMROUNDEDRECTD49*
21,1,2.2032,1.0000,0,0,180.0*
21,1,1.0000,2.2032,0,0,180.0*
1,1,1.2032,-0.5000,0.5000*
1,1,1.2032,0.5000,0.5000*
1,1,1.2032,0.5000,-0.5000*
1,1,1.2032,-0.5000,-0.5000*
%
%ADD49ROUNDEDRECTD49*%
%ADD50C,2.7032*%
%ADD51C,1.8032*%
%ADD52C,2.2032*%
%ADD53C,0.8032*%
D37*
X419000Y529000D02*
D03*
Y545000D02*
D03*
X662000Y355000D02*
D03*
Y339000D02*
D03*
X982500Y439500D02*
D03*
Y455500D02*
D03*
X85000Y250500D02*
D03*
Y234500D02*
D03*
X35000Y170500D02*
D03*
Y154500D02*
D03*
X87500Y302000D02*
D03*
Y318000D02*
D03*
D38*
X435000Y455000D02*
D03*
X440000D02*
D03*
X445000D02*
D03*
X450000D02*
D03*
X455000D02*
D03*
X460000D02*
D03*
X465000D02*
D03*
X470000D02*
D03*
X475000D02*
D03*
X480000D02*
D03*
X485000D02*
D03*
X490000D02*
D03*
X495000D02*
D03*
X500000D02*
D03*
X505000D02*
D03*
X510000D02*
D03*
X515000D02*
D03*
X520000D02*
D03*
X525000D02*
D03*
X530000D02*
D03*
X535000D02*
D03*
X540000D02*
D03*
X545000D02*
D03*
X550000D02*
D03*
X555000D02*
D03*
Y300000D02*
D03*
X550000D02*
D03*
X545000D02*
D03*
X540000D02*
D03*
X535000D02*
D03*
X530000D02*
D03*
X525000D02*
D03*
X520000D02*
D03*
X515000D02*
D03*
X510000D02*
D03*
X505000D02*
D03*
X500000D02*
D03*
X495000D02*
D03*
X490000D02*
D03*
X485000D02*
D03*
X480000D02*
D03*
X475000D02*
D03*
X470000D02*
D03*
X465000D02*
D03*
X460000D02*
D03*
X455000D02*
D03*
X450000D02*
D03*
X445000D02*
D03*
X440000D02*
D03*
X435000D02*
D03*
D39*
X572500Y437500D02*
D03*
Y432500D02*
D03*
Y427500D02*
D03*
Y422500D02*
D03*
Y417500D02*
D03*
Y412500D02*
D03*
Y407500D02*
D03*
Y402500D02*
D03*
Y397500D02*
D03*
Y392500D02*
D03*
Y387500D02*
D03*
Y382500D02*
D03*
Y377500D02*
D03*
Y372500D02*
D03*
Y367500D02*
D03*
Y362500D02*
D03*
Y357500D02*
D03*
Y352500D02*
D03*
Y347500D02*
D03*
Y342500D02*
D03*
Y337500D02*
D03*
Y332500D02*
D03*
Y327500D02*
D03*
Y322500D02*
D03*
Y317500D02*
D03*
X417500D02*
D03*
Y322500D02*
D03*
Y327500D02*
D03*
Y332500D02*
D03*
Y337500D02*
D03*
Y342500D02*
D03*
Y347500D02*
D03*
Y352500D02*
D03*
Y357500D02*
D03*
Y362500D02*
D03*
Y367500D02*
D03*
Y372500D02*
D03*
Y377500D02*
D03*
Y382500D02*
D03*
Y387500D02*
D03*
Y392500D02*
D03*
Y397500D02*
D03*
Y402500D02*
D03*
Y407500D02*
D03*
Y412500D02*
D03*
Y417500D02*
D03*
Y422500D02*
D03*
Y427500D02*
D03*
Y432500D02*
D03*
Y437500D02*
D03*
D40*
X968000Y513000D02*
D03*
X942600D02*
D03*
X917200D02*
D03*
D41*
X942600Y619000D02*
D03*
D42*
X320500Y507000D02*
D03*
Y522000D02*
D03*
X413000Y248000D02*
D03*
Y263000D02*
D03*
X352000Y369500D02*
D03*
Y384500D02*
D03*
X524000Y495500D02*
D03*
Y510500D02*
D03*
X495400Y235000D02*
D03*
Y220000D02*
D03*
X437500Y235000D02*
D03*
X437500Y220000D02*
D03*
X632000Y262500D02*
D03*
Y277500D02*
D03*
D43*
X629500Y359500D02*
D03*
X644500D02*
D03*
D44*
X958000Y450000D02*
D03*
X942000D02*
D03*
D45*
X104750Y477750D02*
D03*
X98250D02*
D03*
X91750D02*
D03*
X85250D02*
D03*
X78750D02*
D03*
X72250D02*
D03*
X65750D02*
D03*
X59250D02*
D03*
X52750D02*
D03*
X46250D02*
D03*
X39750D02*
D03*
X33250D02*
D03*
X26750D02*
D03*
X20250D02*
D03*
X104750Y407250D02*
D03*
X98250Y407250D02*
D03*
X91750Y407250D02*
D03*
X85250Y407250D02*
D03*
X78750Y407250D02*
D03*
X72250Y407250D02*
D03*
X65750D02*
D03*
X59250D02*
D03*
X52750D02*
D03*
X46250Y407250D02*
D03*
X39750Y407250D02*
D03*
X33250Y407250D02*
D03*
X26750Y407250D02*
D03*
X20250Y407250D02*
D03*
D46*
X109000Y620500D02*
D03*
Y584500D02*
D03*
D47*
Y610500D02*
D03*
Y602500D02*
D03*
Y594500D02*
D03*
D48*
X80000Y652500D02*
D03*
X40000D02*
D03*
Y552500D02*
D03*
X80000D02*
D03*
D49*
X743250Y313859D02*
D03*
Y268859D02*
D03*
X678250D02*
D03*
Y313859D02*
D03*
D50*
X915000Y700000D02*
D03*
X990000Y100000D02*
D03*
X65000Y50000D02*
D03*
Y700000D02*
D03*
D51*
X97900Y162500D02*
D03*
X72500D02*
D03*
X970000Y352500D02*
D03*
X1000000D02*
D03*
X915000Y387500D02*
D03*
Y417500D02*
D03*
X40000Y252900D02*
D03*
Y227500D02*
D03*
Y320000D02*
D03*
Y345400D02*
D03*
X358000Y569500D02*
D03*
X388000D02*
D03*
X308000Y567000D02*
D03*
X258000D02*
D03*
X915000Y310000D02*
D03*
Y280000D02*
D03*
D52*
X949600Y177500D02*
D03*
X975000D02*
D03*
X1000399Y177499D02*
D03*
X305399Y325801D02*
D03*
X305400Y351200D02*
D03*
Y376600D02*
D03*
X280000D02*
D03*
Y351200D02*
D03*
X279999Y325801D02*
D03*
X305400Y275000D02*
D03*
Y300400D02*
D03*
X280000D02*
D03*
X280000Y275000D02*
D03*
X807800Y696999D02*
D03*
X782400D02*
D03*
X731601Y697000D02*
D03*
X757001D02*
D03*
X655402Y697001D02*
D03*
X630002Y697001D02*
D03*
X680801Y697000D02*
D03*
X706201D02*
D03*
X503002Y697001D02*
D03*
X477602D02*
D03*
X426802Y697002D02*
D03*
X452202D02*
D03*
X553802Y697001D02*
D03*
X528402Y697001D02*
D03*
X579201Y697000D02*
D03*
X604601D02*
D03*
X299802Y697001D02*
D03*
X274402Y697001D02*
D03*
X223602Y697002D02*
D03*
X249002D02*
D03*
X350602Y697001D02*
D03*
X325202D02*
D03*
X376001Y697000D02*
D03*
X401401D02*
D03*
X198201D02*
D03*
X147501Y672499D02*
D03*
Y647099D02*
D03*
X147500Y596300D02*
D03*
Y621700D02*
D03*
X147499Y520101D02*
D03*
X147499Y494701D02*
D03*
X147500Y545500D02*
D03*
Y570900D02*
D03*
X147499Y367701D02*
D03*
Y342301D02*
D03*
X147498Y291502D02*
D03*
Y316902D02*
D03*
X147499Y418501D02*
D03*
X147499Y393101D02*
D03*
X147500Y443900D02*
D03*
Y469300D02*
D03*
X147499Y164501D02*
D03*
X147499Y139101D02*
D03*
X147498Y88302D02*
D03*
Y113702D02*
D03*
X147499Y215301D02*
D03*
Y189901D02*
D03*
X147500Y240700D02*
D03*
Y266100D02*
D03*
Y62900D02*
D03*
X444600Y262500D02*
D03*
X495400D02*
D03*
X470000D02*
D03*
X852499Y62499D02*
D03*
Y87899D02*
D03*
X852500Y138698D02*
D03*
Y113298D02*
D03*
X852501Y214898D02*
D03*
Y240298D02*
D03*
X852500Y189498D02*
D03*
Y164098D02*
D03*
X852501Y367298D02*
D03*
Y392698D02*
D03*
X852502Y443497D02*
D03*
Y418097D02*
D03*
X852501Y316498D02*
D03*
Y341898D02*
D03*
X852500Y291098D02*
D03*
Y265698D02*
D03*
X852501Y570498D02*
D03*
Y595898D02*
D03*
X852502Y646697D02*
D03*
Y621297D02*
D03*
X852501Y519698D02*
D03*
Y545098D02*
D03*
X852500Y494298D02*
D03*
Y468898D02*
D03*
Y672098D02*
D03*
X917499Y138701D02*
D03*
Y113301D02*
D03*
X917498Y87902D02*
D03*
X917499Y62501D02*
D03*
X892099D02*
D03*
X892098Y87902D02*
D03*
X892099Y113301D02*
D03*
Y138701D02*
D03*
X197802Y62502D02*
D03*
X223202D02*
D03*
X274001Y62501D02*
D03*
X248601D02*
D03*
X350200Y62500D02*
D03*
X375600D02*
D03*
X324801Y62501D02*
D03*
X299401D02*
D03*
X502600Y62500D02*
D03*
X528000D02*
D03*
X578799Y62499D02*
D03*
X553399D02*
D03*
X451800Y62500D02*
D03*
X477200Y62500D02*
D03*
X426401Y62501D02*
D03*
X401001D02*
D03*
X705800Y62500D02*
D03*
X731200D02*
D03*
X781999Y62499D02*
D03*
X756599D02*
D03*
X655000Y62500D02*
D03*
X680400Y62500D02*
D03*
X629601Y62501D02*
D03*
X604201D02*
D03*
X807401D02*
D03*
D53*
X629000Y218000D02*
D03*
X691000Y213000D02*
D03*
X694000Y261000D02*
D03*
X639000Y211000D02*
D03*
X676000Y209000D02*
D03*
X816109Y195109D02*
D03*
X748000Y434000D02*
D03*
X728000Y413000D02*
D03*
X929000Y450000D02*
D03*
X590000Y281000D02*
D03*
X637000Y248000D02*
D03*
X567000Y452000D02*
D03*
X85000Y500000D02*
D03*
X990000Y476000D02*
D03*
X525000Y550000D02*
D03*
X524000Y592000D02*
D03*
X506000Y573000D02*
D03*
X436000Y529000D02*
D03*
X109000Y559000D02*
D03*
X42000Y617000D02*
D03*
X76000Y318000D02*
D03*
X66000Y458000D02*
D03*
X40000Y427000D02*
D03*
X85000Y429000D02*
D03*
X72000Y262000D02*
D03*
X330000Y191000D02*
D03*
X349000Y234000D02*
D03*
X345000Y167000D02*
D03*
X401000Y176000D02*
D03*
X371000Y177000D02*
D03*
X445000Y380000D02*
D03*
Y370000D02*
D03*
X439000Y362000D02*
D03*
X451000Y393000D02*
D03*
X398999Y379999D02*
D03*
X391000Y378000D02*
D03*
X379000Y375000D02*
D03*
X377000Y365000D02*
D03*
Y354000D02*
D03*
X351000Y306000D02*
D03*
X397000Y337000D02*
D03*
X380000Y343000D02*
D03*
X327000D02*
D03*
X373000Y312000D02*
D03*
X443000Y326000D02*
D03*
Y341000D02*
D03*
X464000Y342000D02*
D03*
X381000Y265000D02*
D03*
Y219000D02*
D03*
X367000Y212000D02*
D03*
X428000Y286000D02*
D03*
X391000Y151000D02*
D03*
X439000D02*
D03*
X487000Y150000D02*
D03*
X568000Y151000D02*
D03*
X713000D02*
D03*
Y202000D02*
D03*
X824000D02*
D03*
X122000Y397000D02*
D03*
X80000Y365000D02*
D03*
X80000Y609000D02*
D03*
Y600000D02*
D03*
X32197Y452803D02*
D03*
X38561Y446439D02*
D03*
X477000Y321000D02*
D03*
X434000Y333000D02*
D03*
X398000Y233000D02*
D03*
X492000Y283000D02*
D03*
X479000Y331000D02*
D03*
X489000D02*
D03*
X498000Y329000D02*
D03*
X719000Y368000D02*
D03*
X500000Y354000D02*
D03*
X554000Y377000D02*
D03*
X514000Y352000D02*
D03*
X526000Y348000D02*
D03*
X534000Y340000D02*
D03*
X542000Y335000D02*
D03*
X554000Y334000D02*
D03*
X826000Y162000D02*
D03*
X523000Y437000D02*
D03*
X512000Y438000D02*
D03*
X519000Y476000D02*
D03*
X514000Y483000D02*
D03*
X344000Y494000D02*
D03*
X416000D02*
D03*
X340000Y521000D02*
D03*
X425000Y507000D02*
D03*
X552000Y437000D02*
D03*
X460000Y319000D02*
D03*
X538000Y437000D02*
D03*
X505000Y321000D02*
D03*
X632000Y293000D02*
D03*
X678000Y339000D02*
D03*
M02*
