M48
;Layer_Color=9474304
;FILE_FORMAT=4:4
METRIC,LZ
;TYPE=PLATED
T1F00S00C0.3000
T2F00S00C0.8000
T3F00S00C1.0000
T4F00S00C4.0000
%
T01
X00345Y00167
X00391Y00151
X00439
X00487Y0015
X00568Y00151
X00713
X00826Y00162
X00824Y00202
X00816109Y00195109
X00713Y00202
X00691Y00213
X00676Y00209
X00639Y00211
X00637Y00248
X00694Y00261
X00678Y00339
X00719Y00368
X00728Y00413
X00748Y00434
X00929Y0045
X0099Y00476
X00567Y00452
X00552Y00437
X00538
X00523
X00512Y00438
X00519Y00476
X00514Y00483
X00525Y0055
X00436Y00529
X00425Y00507
X00416Y00494
X00344
X0034Y00521
X00379Y00375
X00377Y00365
Y00354
X0038Y00343
X00397Y00337
X00434Y00333
X00443Y00326
Y00341
X00464Y00342
X00479Y00331
X00489
X00498Y00329
X00505Y00321
X00477
X0046Y00319
X00439Y00362
X00445Y0037
Y0038
X00451Y00393
X00398999Y00379999
X00391Y00378
X00373Y00312
X00351Y00306
X00327Y00343
X00349Y00234
X00367Y00212
X00381Y00219
X00398Y00233
X00381Y00265
X00428Y00286
X00492Y00283
X005Y00354
X00514Y00352
X00526Y00348
X00534Y0034
X00542Y00335
X00554Y00334
Y00377
X0059Y00281
X00632Y00293
X00629Y00218
X00401Y00176
X00371Y00177
X0033Y00191
X00072Y00262
X00076Y00318
X0008Y00365
X00085Y00429
X0004Y00427
X00038561Y00446439
X00032197Y00452803
X00066Y00458
X00085Y005
X00109Y00559
X00122Y00397
X0008Y006
Y00609
X00042Y00617
X00524Y00592
X00506Y00573
T02
X000725Y001625
X000979
X00915Y0028
Y0031
Y003875
Y004175
X0097Y003525
X01
X00308Y00567
X00258
X0004Y003454
Y0032
Y002529
Y002275
X00358Y005695
X00388
T03
X001475Y000629
X00147498Y00088302
Y00113702
X00147499Y00139101
X00147499Y00164501
X00197802Y00062502
X00223202
X00248601Y00062501
X00274001
X00299401
X00324801
X003502Y000625
X003756
X00401001Y00062501
X00426401
X004518Y000625
X004772Y000625
X005026
X00528
X00553399Y00062499
X00578799
X00604201Y00062501
X00629601
X00655Y000625
X006804Y000625
X007058Y000625
X007312
X00756599Y00062499
X00781999
X00807401Y00062501
X00852499Y00062499
Y00087899
X008525Y00113298
Y00138698
Y00164098
X00892099Y00138701
X00917499
Y00113301
X00892099
X00892098Y00087902
X00917498
X00917499Y00062501
X00892099
X008525Y00189498
X00852501Y00214898
Y00240298
X008525Y00265698
Y00291098
X00852501Y00316498
Y00341898
Y00367298
Y00392698
X00852502Y00418097
Y00443497
X008525Y00468898
Y00494298
X00852501Y00519698
Y00545098
X0074325Y00313859
Y00268859
X0067825
Y00313859
X009496Y001775
X00975
X01000399Y00177499
X004954Y002625
X0047
X004446
X003054Y00275
Y003004
X0028
X0028Y00275
X00279999Y00325801
X00305399
X003054Y003512
Y003766
X0028
Y003512
X00147499Y00342301
Y00367701
X00147499Y00393101
X00147499Y00418501
X001475Y004439
Y004693
X00147499Y00494701
X00147499Y00520101
X001475Y005455
X00147498Y00316902
Y00291502
X001475Y002661
Y002407
X00147499Y00215301
Y00189901
X001475Y005709
Y005963
Y006217
X00147501Y00647099
Y00672499
X00198201Y00697
X00223602Y00697002
X00249002
X00274402Y00697001
X00299802Y00697001
X00325202Y00697001
X00350602
X00376001Y00697
X00401401
X00426802Y00697002
X00452202
X00477602Y00697001
X00503002
X00528402Y00697001
X00553802Y00697001
X00579201Y00697
X00604601
X00630002Y00697001
X00655402Y00697001
X00680801Y00697
X00706201
X00731601
X00757001
X007824Y00696999
X008078
X008525Y00672098
X00852502Y00646697
Y00621297
X00852501Y00595898
Y00570498
T04
X00065Y0005
X0099Y001
X00065Y007
X00915
M30
