%FSTAX23Y23*%
%MOMM*%
%SFA1B1*%

%IPPOS*%
%ADD10R,1.199998X2.599995*%
%ADD11R,2.599995X1.199998*%
%ADD12C,0.999998*%
%ADD13C,1.999996*%
%ADD14R,1.599997X1.599997*%
%ADD15C,2.199996*%
%ADD16C,1.599997*%
%ADD17R,1.599997X1.599997*%
%ADD18O,1.999996X2.799994*%
%LNpcbbyb2aver3-1*%
%LPD*%
G36*
X92327Y16392D02*
X92268Y16249D01*
X92775Y15025*
X92917Y14966*
Y13749*
X93234Y12984*
X95484Y10734*
X96249Y10417*
X99111*
X101749Y07779*
Y04249*
X99999Y02499*
X81681*
X81632Y02617*
X82288Y03273*
X82293Y03283*
X82354Y03345*
X82391Y03434*
X82406Y03449*
X8241Y03459*
X8242Y03463*
X82435Y03478*
X82524Y03515*
X82586Y03576*
X82596Y03581*
X83306Y04291*
X83347Y0439*
X83423Y04466*
X83499Y0465*
Y04758*
X83541Y04857*
Y08559*
X83499Y08659*
Y08767*
X83468Y08843*
X83392Y08919*
X83382Y08942*
X83359Y08952*
X83284Y09026*
X83274Y0905*
X83251Y09059*
X83175Y09136*
X83099Y09167*
X82991*
X82892Y09208*
X82448*
X82448Y09208*
X8243*
X82341Y09298*
Y09622*
X80999*
Y09876*
X82341*
Y10201*
X8243Y1029*
X82448*
X82448Y10291*
X82892*
X82991Y10332*
X83099*
X83175Y10363*
X83251Y10439*
X83274Y10449*
X83284Y10473*
X83359Y10547*
X83382Y10557*
X83392Y1058*
X83468Y10656*
X83499Y10732*
Y1084*
X83541Y10939*
Y12642*
X83499Y12741*
Y12849*
X83423Y13033*
X83347Y13109*
X83306Y13208*
X83082Y13432*
Y17749*
X85114*
X85139Y17625*
X84775Y17474*
X8432Y16376*
X85999*
X87679*
X87224Y17474*
X8686Y17625*
X86885Y17749*
X90969*
X92327Y16392*
G37*
G36*
X174999Y03749D02*
X131249D01*
Y07708*
X131632Y07867*
X137537Y13772*
X137558Y13823*
X137604Y13854*
X137635Y14009*
X137696Y14154*
X137677Y14199*
X138648Y14601*
X139049Y15572*
X139094Y15553*
X13924Y15614*
X139395Y15644*
X139426Y15691*
X139477Y15712*
X140132Y16367*
X140291Y16749*
Y18749*
X154658*
Y18099*
X154817Y17717*
X155199Y17558*
X157799*
X158182Y17717*
X158341Y18099*
Y18749*
X164119*
X164204Y18622*
X163895Y17876*
X165249*
X166604*
X166295Y18622*
X16638Y18749*
X174999*
Y03749*
G37*
G36*
X71879Y19342D02*
X72252Y19497D01*
X72999Y18749*
Y14541*
X72191*
Y15799*
X72032Y16182*
X71649Y16341*
X71424*
Y14499*
X70674*
Y16341*
X70449*
X70067Y16182*
X69908Y15799*
Y14541*
X51841*
Y14624*
X50699*
X49558*
Y14541*
X48999*
Y19469*
X4903Y19499*
X55718*
X55999Y19383*
X56281Y19499*
X60037*
X60091Y19372*
X59678Y18376*
X6282*
X62408Y19372*
X62461Y19499*
X6512*
X65499Y19342*
X65879Y19499*
X715*
X71879Y19342*
G37*
G36*
X176749Y63749D02*
X175999Y62999D01*
Y20499*
X16657*
X166244Y21284*
X165249Y21697*
X164254Y21284*
X163929Y20499*
X161499*
X160499Y19499*
Y19291*
X158341*
Y19299*
X158182Y19682*
X157799Y19841*
X156874*
Y18699*
X156124*
Y19841*
X155199*
X154817Y19682*
X154658Y19299*
Y19291*
X151999*
Y21958*
X154769*
X154869Y21999*
X15705*
X157149Y21958*
X172642*
X172741Y21999*
X172849*
X172925Y22031*
X173001Y22107*
X173024Y22117*
X173034Y2214*
X173109Y22215*
X173132Y22225*
X173142Y22248*
X173218Y22324*
X173249Y224*
Y22508*
X173291Y22607*
Y58642*
X173249Y58741*
Y58849*
X173218Y58925*
X173142Y59001*
X173132Y59024*
X173109Y59034*
X173034Y59109*
X173024Y59132*
X173001Y59142*
X172925Y59218*
X172849Y59249*
X172741*
X172642Y59291*
X172499*
Y62249*
X138499*
X137499Y63249*
Y64586*
X137533Y64667*
X143749*
X144515Y64984*
X145607Y66077*
X145749Y66018*
X146974Y66525*
X147481Y67749*
X146974Y68974*
X145749Y69481*
X144525Y68974*
X144018Y67749*
X144077Y67607*
X143301Y66832*
X137533*
X137499Y66913*
Y101249*
X176749*
Y63749*
G37*
G36*
X14917Y44985D02*
Y32249D01*
X15234Y31484*
X22174Y24544*
X22939Y24227*
X44499*
Y13999*
X45158*
Y13699*
X45317Y13317*
X45699Y13158*
X46899*
X47282Y13317*
X47441Y13699*
Y13999*
X49558*
Y13699*
X49717Y13317*
X50099Y13158*
X51299*
X51682Y13317*
X51841Y13699*
Y13999*
X69908*
Y13199*
X70067Y12817*
X70449Y12658*
X71649*
X72032Y12817*
X72191Y13199*
Y13999*
X74308*
Y13199*
X74467Y12817*
X74849Y12658*
X76049*
X76432Y12817*
X76591Y13199*
Y13417*
X78367*
X78601Y12851*
X79749Y12376*
X80849Y12831*
X81003Y12791*
X81234Y12234*
X81999Y11917*
X82765Y12234*
X82872Y12494*
X82999Y12469*
Y11047*
Y10939*
X82976Y1093*
X82901Y10855*
X82892Y10832*
X82784*
X82448*
X82448Y10832*
X8243*
X82358Y10802*
X82219Y10844*
X82182Y10932*
X81799Y11091*
X80199*
X79817Y10932*
X79658Y10549*
Y08949*
X79817Y08567*
X80061Y08465*
Y08328*
X80004Y08304*
X79592Y07309*
X80004Y06314*
X80394Y06153*
Y06026*
X80004Y05864*
X79645Y04996*
X80999*
Y04869*
Y04996*
X82354*
X81994Y05864*
X81604Y06026*
Y06153*
X81994Y06314*
X82407Y07309*
X81994Y08304*
X81938Y08328*
Y08465*
X82182Y08567*
X82219Y08655*
X82358Y08697*
X8243Y08667*
X82448*
X82448Y08667*
X82784*
X82892*
X82901Y08644*
X82976Y08569*
X82999Y08559*
Y08452*
Y04965*
Y04857*
X82923Y04673*
X82233Y03983*
X82225Y03977*
X82169Y03964*
X82136Y03986*
X82093Y04048*
X82083Y04089*
X82354Y04742*
X81126*
Y03515*
X8176Y03777*
X81904Y03699*
X81904Y03696*
X81891Y03641*
X80749Y02499*
X02499*
Y44999*
X14827Y45075*
X14917Y44985*
G37*
G36*
X13408Y65349D02*
X13567Y64967D01*
X13949Y64808*
X16549*
X16691Y64867*
X25999*
Y59249*
X24282Y57532*
X24059*
X24024*
X23995*
X23864Y57601*
X23495Y58494*
X22499Y58907*
X21716Y58582*
X20699*
X19996Y58291*
X1905*
X18667Y58132*
X18508Y57749*
Y55149*
X18667Y54767*
X1905Y54608*
X20249*
X20581Y54745*
X20653Y54638*
X19347Y53332*
X09675*
X09648Y53397*
X08499Y53873*
X07351Y53397*
X07324Y53332*
X05698*
X05082Y53948*
Y60551*
X05948Y61417*
X07216*
X07394Y61343*
Y61216*
X07004Y61054*
X06645Y60186*
X07999*
X09354*
X08994Y61054*
X08604Y61216*
Y61343*
X08994Y61504*
X09407Y62499*
X08994Y63494*
X08938Y63518*
Y63655*
X09182Y63757*
X09341Y64139*
Y65499*
X13408*
Y65349*
G37*
G36*
X166961Y58749D02*
X166987Y58622D01*
X166025Y58224*
X165518Y56999*
X166025Y55775*
X167249Y55268*
X168474Y55775*
X168981Y56999*
X168474Y58224*
X167512Y58622*
X167537Y58749*
X172499*
X172642*
X172718Y58718*
X172749Y58642*
Y22607*
X172718Y22531*
X172642Y22499*
X157149*
X157073Y22531*
X157001Y22707*
X156956Y22751*
X156966Y22893*
X157107Y22951*
X157583Y24099*
Y24899*
X157107Y26047*
X155959Y26523*
X154811Y26047*
X154336Y24899*
Y24099*
X154811Y22951*
X154953Y22893*
X154963Y22751*
X154918Y22707*
X154846Y22531*
X154769Y22499*
X151999*
X150882*
X150857Y22624*
X151648Y22951*
X152123Y24099*
Y24899*
X151648Y26047*
X150499Y26523*
X149351Y26047*
X148876Y24899*
Y24099*
X149351Y22951*
X150142Y22624*
X150117Y22499*
X145422*
X145397Y22624*
X146187Y22951*
X146663Y24099*
Y24372*
X143416*
Y24099*
X143891Y22951*
X144682Y22624*
X144657Y22499*
X141249*
Y26469*
X142265Y27484*
X142582Y28249*
Y48749*
X142265Y49515*
X141249Y5053*
Y58749*
X166961*
G37*
G36*
X88249Y52249D02*
Y4903D01*
X88234Y49015*
X87917Y48249*
Y25667*
X85499Y23249*
X80249*
X77999Y25499*
Y28749*
X71249Y35499*
Y35999*
X70666*
X70397Y36647*
X69249Y37123*
X68101Y36647*
X67833Y35999*
X6671*
X66657Y36126*
X68948Y38417*
X72716*
X73499Y38092*
X74119Y38349*
X74217Y38251*
Y36941*
X74158Y36799*
Y34199*
X74317Y33817*
X74699Y33658*
X75899*
X76282Y33817*
X76441Y34199*
Y36799*
X76382Y36941*
Y38699*
X76065Y39465*
X75265Y40265*
X74499Y40582*
X74283*
X73499Y40907*
X72716Y40582*
X68499*
X67896Y40332*
X67857Y40358*
X67791Y40426*
Y46892*
X67749Y46991*
Y47099*
X67673Y47283*
X67597Y47359*
X67556Y47458*
X64958Y50056*
X64859Y50097*
X64783Y50173*
X64599Y50249*
X64491*
X64392Y50291*
X53999*
Y51417*
X58999*
X59765Y51734*
X6178Y53749*
X86749*
X88249Y52249*
G37*
G36*
X126734Y33734D02*
X127499Y33417D01*
X133832*
X13578Y31468*
X136275Y30275*
X137468Y2978*
X139484Y27765*
X137801Y26082*
X132948*
X130582Y28448*
Y30216*
X130724Y30275*
X131231Y31499*
X130724Y32724*
X129499Y33231*
X128275Y32724*
X127768Y31499*
X128275Y30275*
X128417Y30216*
Y27999*
X128734Y27234*
X131734Y24234*
X132499Y23917*
X138249*
X139015Y24234*
X139632Y24851*
X139749Y24803*
Y16749*
X139094Y16094*
X13897Y16119*
X138648Y16898*
X137499Y17373*
X136351Y16898*
X135876Y15749*
X136351Y14601*
X13713Y14279*
X137154Y14154*
X131249Y08249*
X104984*
X104897Y08457*
X103749Y08933*
X103684Y08906*
X100325Y12265*
X99559Y12582*
X96698*
X95999Y1328*
Y23417*
X97408*
Y23199*
X97467Y23057*
Y19949*
X97576Y19686*
X97567Y19682*
X97408Y19299*
Y18099*
X97567Y17717*
X97949Y17558*
X100549*
X100812Y17667*
X106074*
X106101Y17601*
X107249Y17126*
X108397Y17601*
X108873Y18749*
X108397Y19898*
X107249Y20373*
X106101Y19898*
X106074Y19832*
X100571*
X100549Y19841*
X100087*
X100015Y20015*
X99632Y20398*
Y23057*
X99691Y23199*
Y25799*
X99532Y26182*
X99149Y26341*
X97949*
X97567Y26182*
X97408Y25799*
Y25582*
X95999*
Y34499*
X99667*
Y33749*
X99984Y32984*
X101867Y31101*
Y25941*
X101808Y25799*
Y23199*
X101967Y22817*
X102349Y22658*
X103549*
X103932Y22817*
X104091Y23199*
Y23417*
X106824*
X106851Y23351*
X107999Y22876*
X109147Y23351*
X109623Y24499*
X109147Y25648*
X107999Y26123*
X106851Y25648*
X106824Y25582*
X104091*
Y25799*
X104032Y25941*
Y31549*
X103715Y32315*
X101832Y34198*
Y34499*
X106958*
X125969*
X126734Y33734*
G37*
G36*
X128667Y60999D02*
X128984Y60234D01*
X133167Y56051*
Y46221*
X132949*
X132807Y46162*
X131591*
Y47049*
X131432Y47432*
X131049Y47591*
X129849*
X129467Y47432*
X129308Y47049*
Y4445*
X129467Y44067*
X129849Y43908*
X131049*
X131265Y43997*
X132807*
X132949Y43939*
X135549*
X135932Y44097*
X136091Y4448*
Y4568*
X135932Y46063*
X135549Y46221*
X135332*
Y53276*
X135456Y53301*
X135484Y53234*
X140417Y48301*
Y34499*
X13703*
X136265Y35265*
X135499Y35582*
X127948*
X126332Y37198*
Y38999*
X126015Y39765*
X122582Y43198*
Y61249*
X128667*
Y60999*
G37*
G36*
X47249Y4628D02*
X45801Y44832D01*
X40033*
X39974Y44974*
X38749Y45481*
X37525Y44974*
X37018Y43749*
X37388Y42855*
X37318Y42749*
X23749*
Y47417*
X24966*
X25144Y47343*
Y47216*
X24754Y47054*
X24395Y46186*
X25749*
X27104*
X26744Y47054*
X26354Y47216*
Y47343*
X26744Y47504*
X27157Y48499*
X26744Y49494*
X26688Y49518*
Y49655*
X26932Y49757*
X27091Y50139*
Y51739*
X26932Y52122*
X26549Y52281*
X24949*
X24567Y52122*
X24525Y52022*
X23749*
Y53749*
X47249*
Y4628*
G37*
G36*
X64576Y49673D02*
X67173Y47076D01*
X67249Y46892*
Y40403*
Y3978*
X64734Y37265*
X64417Y36499*
Y27698*
X63351Y26632*
X62441*
X62299Y26691*
X59699*
X59317Y26532*
X59158Y26149*
Y24949*
X59317Y24567*
X59699Y24408*
X60167*
Y21999*
X57212*
X57147Y22155*
X55999Y2263*
X54851Y22155*
X54787Y21999*
X54499*
X51999Y24499*
Y27408*
X52624*
Y28549*
Y29691*
X51699*
X51423Y29576*
X49749Y31249*
X4821*
X48157Y31376*
X48648Y31867*
X51557*
X51699Y31808*
X54299*
X54682Y31967*
X54786Y32217*
X55307*
X55449Y32158*
X58049*
X58432Y32317*
X58591Y32699*
Y33899*
X58432Y34282*
X58049Y34441*
X55449*
X55307Y34382*
X53349*
X52646Y34091*
X51699*
X51557Y34032*
X48199*
X47434Y33715*
X46234Y32515*
X45917Y3175*
Y31249*
X1853*
X17082Y32698*
Y45801*
X2103Y49749*
X24568*
X24615Y49709*
X24568Y49582*
X21749*
X20984Y49265*
X19234Y47515*
X18917Y46749*
Y40749*
X19234Y39984*
X22234Y36984*
X22999Y36667*
X28074*
X28101Y36601*
X29122Y36178*
Y37749*
Y3932*
X28101Y38897*
X28074Y38832*
X23448*
X21082Y41198*
Y46301*
X22198Y47417*
X23208*
Y42749*
X23367Y42367*
X23749Y42208*
X37318*
X37369Y42229*
X37423Y42219*
X37554Y42306*
X377Y42367*
X37839Y42395*
X38749Y42018*
X39974Y42525*
X40033Y42667*
X46249*
X47015Y42984*
X49765Y45734*
X50082Y46499*
Y49749*
X64392*
X64576Y49673*
G37*
G36*
X118367Y44191D02*
X118308Y44049D01*
Y41449*
X118367Y41307*
Y40549*
X118684Y39784*
X11918Y39288*
X119504Y38504*
X119749Y38403*
Y3802*
X119658Y37799*
Y37158*
X117541Y35041*
X106958*
X104999Y36999*
Y40357*
X105189*
X105955Y40674*
X107015Y41734*
X107332Y42499*
Y43524*
X107459Y43549*
X107851Y42601*
X108872Y42178*
Y43749*
Y4532*
X107851Y44897*
X107459Y4395*
X107332Y43975*
Y46051*
X10753Y46249*
X113967*
Y44191*
X113908Y44049*
Y41449*
X114067Y41067*
X114449Y40908*
X115649*
X116032Y41067*
X116191Y41449*
Y44049*
X116132Y44191*
Y46249*
X118367*
Y44191*
G37*
%LNpcbbyb2aver3-2*%
%LPC*%
G36*
X9857Y07682D02*
X97126D01*
Y06238*
X98147Y06661*
X9857Y07682*
G37*
G36*
X96872D02*
X95428D01*
X95851Y06661*
X96872Y06238*
Y07682*
G37*
G36*
X85872Y16122D02*
X8432D01*
X84775Y15025*
X85872Y1457*
Y16122*
G37*
G36*
X87679D02*
X86126D01*
Y1457*
X87224Y15025*
X87679Y16122*
G37*
G36*
X96872Y0938D02*
X95851Y08957D01*
X95428Y07936*
X96872*
Y0938*
G37*
G36*
X97126D02*
Y07936D01*
X9857*
X98147Y08957*
X97126Y0938*
G37*
G36*
X145039Y17373D02*
X143891Y16898D01*
X143416Y15749*
X143891Y14601*
X145039Y14126*
X146188Y14601*
X146663Y15749*
X146188Y16898*
X145039Y17373*
G37*
G36*
X157799Y15441D02*
X156874D01*
Y14674*
X158341*
Y14899*
X158182Y15282*
X157799Y15441*
G37*
G36*
X156124D02*
X155199D01*
X154817Y15282*
X154658Y14899*
Y14674*
X156124*
Y15441*
G37*
G36*
X171499Y10368D02*
X1714Y10327D01*
X171292*
X169647Y09645*
X169571Y09569*
X169471Y09528*
X16943Y09428*
X169354Y09352*
X168672Y07707*
Y07599*
X168631Y07499*
X168672Y074*
Y07292*
X169354Y05647*
X16943Y05571*
X169471Y05471*
X169571Y0543*
X169647Y05354*
X171292Y04672*
X1714*
X171499Y04631*
X171599Y04672*
X171707*
X173352Y05354*
X173428Y0543*
X173528Y05471*
X173569Y05571*
X173645Y05647*
X174327Y07292*
Y074*
X174368Y07499*
X174327Y07599*
Y07707*
X173645Y09352*
X173569Y09428*
X173528Y09528*
X173428Y09569*
X173352Y09645*
X171707Y10327*
X171599*
X171499Y10368*
G37*
G36*
X156124Y13924D02*
X154658D01*
Y13699*
X154817Y13317*
X155199Y13158*
X156124*
Y13924*
G37*
G36*
X158341D02*
X156874D01*
Y13158*
X157799*
X158182Y13317*
X158341Y13699*
Y13924*
G37*
G36*
X165122Y17622D02*
X163895D01*
X164254Y16754*
X165122Y16395*
Y17622*
G37*
G36*
X166604D02*
X165376D01*
Y16395*
X166244Y16754*
X166604Y17622*
G37*
G36*
X6282Y18122D02*
X61376D01*
Y16678*
X62397Y17101*
X6282Y18122*
G37*
G36*
X61122D02*
X59678D01*
X60101Y17101*
X61122Y16678*
Y18122*
G37*
G36*
X50324Y16841D02*
X50099D01*
X49717Y16682*
X49558Y16299*
Y15374*
X50324*
Y16841*
G37*
G36*
X51299D02*
X51074D01*
Y15374*
X51841*
Y16299*
X51682Y16682*
X51299Y16841*
G37*
G36*
X148071Y86447D02*
X14705Y86024D01*
X146627Y85003*
X148071*
Y86447*
G37*
G36*
X148325D02*
Y85003D01*
X149769*
X149346Y86024*
X148325Y86447*
G37*
G36*
X148071Y84749D02*
X146627D01*
X14705Y83728*
X148071Y83305*
Y84749*
G37*
G36*
X149769D02*
X148325D01*
Y83305*
X149346Y83728*
X149769Y84749*
G37*
G36*
X166105Y9725D02*
X164957Y96774D01*
X164482Y95626*
X164957Y94478*
X166105Y94003*
X167253Y94478*
X167729Y95626*
X167253Y96774*
X166105Y9725*
G37*
G36*
X148071Y97197D02*
X14705Y96774D01*
X146627Y95753*
X148071*
Y97197*
G37*
G36*
X148325D02*
Y95753D01*
X149769*
X149346Y96774*
X148325Y97197*
G37*
G36*
X148071Y95499D02*
X146627D01*
X14705Y94478*
X148071Y94055*
Y95499*
G37*
G36*
X149769D02*
X148325D01*
Y94055*
X149346Y94478*
X149769Y95499*
G37*
G36*
X166105Y865D02*
X164957Y86024D01*
X164482Y84876*
X164957Y83728*
X166105Y83253*
X167253Y83728*
X167729Y84876*
X167253Y86024*
X166105Y865*
G37*
G36*
X155622Y69429D02*
X154525Y68974D01*
X15407Y67876*
X155622*
Y69429*
G37*
G36*
X155876D02*
Y67876D01*
X157429*
X156974Y68974*
X155876Y69429*
G37*
G36*
X157429Y67622D02*
X155876D01*
Y6607*
X156974Y66525*
X157429Y67622*
G37*
G36*
X155622D02*
X15407D01*
X154525Y66525*
X155622Y6607*
Y67622*
G37*
G36*
X64122Y07682D02*
X62678D01*
X63101Y06661*
X64122Y06238*
Y07682*
G37*
G36*
X6582D02*
X64376D01*
Y06238*
X65397Y06661*
X6582Y07682*
G37*
G36*
X72122D02*
X70678D01*
X71101Y06661*
X72122Y06238*
Y07682*
G37*
G36*
X80872Y04742D02*
X79645D01*
X80004Y03874*
X80872Y03515*
Y04742*
G37*
G36*
X72376Y0938D02*
Y07936D01*
X7382*
X73397Y08957*
X72376Y0938*
G37*
G36*
X07499Y10368D02*
X074Y10327D01*
X07292*
X05647Y09645*
X05571Y09569*
X05471Y09528*
X0543Y09428*
X05354Y09352*
X04672Y07707*
Y07599*
X04631Y07499*
X04672Y074*
Y07292*
X05354Y05647*
X0543Y05571*
X05471Y05471*
X05571Y0543*
X05647Y05354*
X07292Y04672*
X074*
X07499Y04631*
X07599Y04672*
X07707*
X09352Y05354*
X09428Y0543*
X09528Y05471*
X09569Y05571*
X09645Y05647*
X10327Y07292*
Y074*
X10368Y07499*
X10327Y07599*
Y07707*
X09645Y09352*
X09569Y09428*
X09528Y09528*
X09428Y09569*
X09352Y09645*
X07707Y10327*
X07599*
X07499Y10368*
G37*
G36*
X64122Y0938D02*
X63101Y08957D01*
X62678Y07936*
X64122*
Y0938*
G37*
G36*
X7382Y07682D02*
X72376D01*
Y06238*
X73397Y06661*
X7382Y07682*
G37*
G36*
X64376Y0938D02*
Y07936D01*
X6582*
X65397Y08957*
X64376Y0938*
G37*
G36*
X72122D02*
X71101Y08957D01*
X70678Y07936*
X72122*
Y0938*
G37*
G36*
X14874Y58291D02*
X14649D01*
X14267Y58132*
X14108Y57749*
Y56824*
X14874*
Y58291*
G37*
G36*
X15849D02*
X15624D01*
Y56824*
X16391*
Y57749*
X16232Y58132*
X15849Y58291*
G37*
G36*
X07872Y59932D02*
X06645D01*
X07004Y59064*
X07872Y58705*
Y59932*
G37*
G36*
X20122Y61422D02*
X18678D01*
X19101Y60401*
X20122Y59978*
Y61422*
G37*
G36*
X14874Y61174D02*
X13408D01*
Y60949*
X13567Y60567*
X13949Y60408*
X14874*
Y61174*
G37*
G36*
X09354Y59932D02*
X08126D01*
Y58705*
X08994Y59064*
X09354Y59932*
G37*
G36*
X2182Y61422D02*
X20376D01*
Y59978*
X21398Y60401*
X2182Y61422*
G37*
G36*
X14874Y56074D02*
X14108D01*
Y55149*
X14267Y54767*
X14649Y54608*
X14874*
Y56074*
G37*
G36*
X16391D02*
X15624D01*
Y54608*
X15849*
X16232Y54767*
X16391Y55149*
Y56074*
G37*
G36*
X20376Y6312D02*
Y61676D01*
X2182*
X21398Y62697*
X20376Y6312*
G37*
G36*
X14874Y62691D02*
X13949D01*
X13567Y62532*
X13408Y62149*
Y61924*
X14874*
Y62691*
G37*
G36*
X17091Y61174D02*
X15624D01*
Y60408*
X16549*
X16932Y60567*
X17091Y60949*
Y61174*
G37*
G36*
X20122Y6312D02*
X19101Y62697D01*
X18678Y61676*
X20122*
Y6312*
G37*
G36*
X16549Y62691D02*
X15624D01*
Y61924*
X17091*
Y62149*
X16932Y62532*
X16549Y62691*
G37*
G36*
X167122Y31429D02*
X166025Y30974D01*
X16557Y29876*
X167122*
Y31429*
G37*
G36*
X168929Y29622D02*
X167376D01*
Y2807*
X168474Y28525*
X168929Y29622*
G37*
G36*
X167122D02*
X16557D01*
X166025Y28525*
X167122Y2807*
Y29622*
G37*
G36*
X167376Y31429D02*
Y29876D01*
X168929*
X168474Y30974*
X167376Y31429*
G37*
G36*
X144912Y2647D02*
X143891Y26047D01*
X143803Y25833*
X143734Y25805*
X143417Y25039*
X143445Y24971*
X143416Y24899*
Y24626*
X144912*
Y2647*
G37*
G36*
X145166D02*
Y24626D01*
X146663*
Y24899*
X146187Y26047*
X145166Y2647*
G37*
G36*
X150749Y55868D02*
X15065Y55827D01*
X150542*
X148897Y55145*
X148821Y55069*
X148721Y55028*
X14868Y54928*
X148604Y54852*
X147922Y53207*
Y53099*
X147881Y52999*
X147922Y529*
Y52792*
X148604Y51147*
X14868Y51071*
X148721Y50971*
X148821Y5093*
X148897Y50854*
X150542Y50172*
X15065*
X150749Y50131*
X150849Y50172*
X150957*
X152602Y50854*
X152678Y5093*
X152778Y50971*
X152819Y51071*
X152895Y51147*
X153577Y52792*
Y529*
X153618Y52999*
X153577Y53099*
Y53207*
X152895Y54852*
X152819Y54928*
X152778Y55028*
X152678Y55069*
X152602Y55145*
X150957Y55827*
X150849*
X150749Y55868*
G37*
G36*
X167249Y41481D02*
X166025Y40974D01*
X165518Y39749*
X166025Y38525*
X167249Y38018*
X168474Y38525*
X168981Y39749*
X168474Y40974*
X167249Y41481*
G37*
G36*
X144124Y40124D02*
X143248D01*
X143504Y39504*
X144124Y39248*
Y40124*
G37*
G36*
X144874Y41751D02*
Y40874D01*
X145751*
X145494Y41494*
X144874Y41751*
G37*
G36*
X145751Y40124D02*
X144874D01*
Y39248*
X145494Y39504*
X145751Y40124*
G37*
G36*
X144124Y41751D02*
X143504Y41494D01*
X143248Y40874*
X144124*
Y41751*
G37*
G36*
X167249Y48731D02*
X166025Y48224D01*
X165518Y46999*
X166025Y45775*
X167249Y45268*
X168474Y45775*
X168981Y46999*
X168474Y48224*
X167249Y48731*
G37*
G36*
X81624Y30501D02*
X81004Y30244D01*
X80748Y29624*
X81624*
Y30501*
G37*
G36*
X82374D02*
Y29624D01*
X83251*
X82994Y30244*
X82374Y30501*
G37*
G36*
X81624Y26341D02*
X80699D01*
X80317Y26182*
X80158Y25799*
Y25574*
X81624*
Y26341*
G37*
G36*
X83299D02*
X82374D01*
Y25574*
X83841*
Y25799*
X83682Y26182*
X83299Y26341*
G37*
G36*
X81624Y28874D02*
X80748D01*
X81004Y28254*
X81624Y27998*
Y28874*
G37*
G36*
X83251D02*
X82374D01*
Y27998*
X82994Y28254*
X83251Y28874*
G37*
G36*
X80299Y37341D02*
X79099D01*
X78717Y37182*
X78558Y36799*
Y34199*
X78717Y33817*
X79099Y33658*
X80299*
X80682Y33817*
X80841Y34199*
Y34417*
X81999*
X82034Y34431*
X82249Y34342*
X83244Y34754*
X83657Y35749*
X83244Y36744*
X82249Y37157*
X81254Y36744*
X81187Y36582*
X80841*
Y36799*
X80682Y37182*
X80299Y37341*
G37*
G36*
X81624Y24824D02*
X80158D01*
Y24599*
X80317Y24217*
X80699Y24058*
X81624*
Y24824*
G37*
G36*
X83841D02*
X82374D01*
Y24058*
X83299*
X83682Y24217*
X83841Y24599*
Y24824*
G37*
G36*
X109799Y33941D02*
X107199D01*
X106817Y33782*
X106658Y33399*
Y32199*
X106817Y31817*
X107199Y31658*
X107417*
Y31533*
X107092Y30749*
X107504Y29754*
X108499Y29342*
X109494Y29754*
X109907Y30749*
X109582Y31533*
Y31658*
X109799*
X110182Y31817*
X110341Y32199*
Y33399*
X110182Y33782*
X109799Y33941*
G37*
G36*
X113624D02*
X112699D01*
X112317Y33782*
X112158Y33399*
Y33174*
X113624*
Y33941*
G37*
G36*
X115299D02*
X114374D01*
Y33174*
X115841*
Y33399*
X115682Y33782*
X115299Y33941*
G37*
G36*
X122799D02*
X121874D01*
Y33174*
X123341*
Y33399*
X123182Y33782*
X122799Y33941*
G37*
G36*
X121124Y32424D02*
X119658D01*
Y32199*
X119817Y31817*
X120199Y31658*
X121124*
Y32424*
G37*
G36*
X115841D02*
X114374D01*
Y31658*
X115299*
X115682Y31817*
X115841Y32199*
Y32424*
G37*
G36*
X121124Y33941D02*
X120199D01*
X119817Y33782*
X119658Y33399*
Y33174*
X121124*
Y33941*
G37*
G36*
X123341Y32424D02*
X121874D01*
Y31658*
X122799*
X123182Y31817*
X123341Y32199*
Y32424*
G37*
G36*
X113624D02*
X112158D01*
Y32199*
X112317Y31817*
X112699Y31658*
X113624*
Y32424*
G37*
G36*
X102874Y14374D02*
X101998D01*
X102254Y13754*
X102874Y13498*
Y14374*
G37*
G36*
X104501D02*
X103624D01*
Y13498*
X104244Y13754*
X104501Y14374*
G37*
G36*
X98874Y15441D02*
X97949D01*
X97567Y15282*
X97408Y14899*
Y14674*
X98874*
Y15441*
G37*
G36*
Y13924D02*
X97408D01*
Y13699*
X97567Y13317*
X97949Y13158*
X98874*
Y13924*
G37*
G36*
X101091D02*
X99624D01*
Y13158*
X100549*
X100932Y13317*
X101091Y13699*
Y13924*
G37*
G36*
X103624Y16001D02*
Y15124D01*
X104501*
X104244Y15744*
X103624Y16001*
G37*
G36*
X100549Y15441D02*
X99624D01*
Y14674*
X101091*
Y14899*
X100932Y15282*
X100549Y15441*
G37*
G36*
X102874Y16001D02*
X102254Y15744D01*
X101998Y15124*
X102874*
Y16001*
G37*
G36*
X124872Y58484D02*
X124004Y58124D01*
X123645Y57256*
X124872*
Y58484*
G37*
G36*
X125126D02*
Y57256D01*
X126354*
X125994Y58124*
X125126Y58484*
G37*
G36*
X131126Y5257D02*
Y51126D01*
X13257*
X132148Y52147*
X131126Y5257*
G37*
G36*
X126354Y57002D02*
X124999D01*
X123645*
X124004Y56134*
X124394Y55973*
Y55846*
X124004Y55684*
X123592Y54689*
X124004Y53694*
X124061Y53671*
Y53533*
X123817Y53432*
X123658Y53049*
Y51449*
X123817Y51067*
X124199Y50908*
X125799*
X126182Y51067*
X126341Y51449*
Y53049*
X126182Y53432*
X125938Y53533*
Y53671*
X125994Y53694*
X126407Y54689*
X125994Y55684*
X125604Y55846*
Y55973*
X125994Y56134*
X126354Y57002*
G37*
G36*
X130872Y5257D02*
X129851Y52147D01*
X129428Y51126*
X130872*
Y5257*
G37*
G36*
X127999Y40873D02*
X126851Y40397D01*
X126376Y39249*
X126851Y38101*
X127999Y37626*
X129148Y38101*
X129623Y39249*
X129148Y40397*
X127999Y40873*
G37*
G36*
X138749Y42157D02*
X137797Y41762D01*
X135691*
X135549Y41821*
X132949*
X132567Y41663*
X132408Y4128*
Y4008*
X132567Y39697*
X132949Y39539*
X135549*
X135691Y39597*
X138134*
X138749Y39342*
X139744Y39754*
X140157Y40749*
X139744Y41744*
X138749Y42157*
G37*
G36*
X130872Y50872D02*
X129428D01*
X129851Y49851*
X130872Y49428*
Y50872*
G37*
G36*
X13257D02*
X131126D01*
Y49428*
X132148Y49851*
X13257Y50872*
G37*
G36*
X125674Y45374D02*
X124908D01*
Y4445*
X125067Y44067*
X125449Y43908*
X125674*
Y45374*
G37*
G36*
X127191D02*
X126424D01*
Y43908*
X126649*
X127032Y44067*
X127191Y4445*
Y45374*
G37*
G36*
X125674Y47591D02*
X125449D01*
X125067Y47432*
X124908Y47049*
Y46124*
X125674*
Y47591*
G37*
G36*
X126649D02*
X126424D01*
Y46124*
X127191*
Y47049*
X127032Y47432*
X126649Y47591*
G37*
G36*
X33374Y53191D02*
X32449D01*
X32067Y53032*
X31908Y52649*
Y52424*
X33374*
Y53191*
G37*
G36*
X39124D02*
X38199D01*
X37817Y53032*
X37658Y52649*
Y52424*
X39124*
Y53191*
G37*
G36*
X40799D02*
X39874D01*
Y52424*
X41341*
Y52649*
X41182Y53032*
X40799Y53191*
G37*
G36*
X35049D02*
X34124D01*
Y52424*
X35591*
Y52649*
X35432Y53032*
X35049Y53191*
G37*
G36*
X44626Y4957D02*
Y48126D01*
X4607*
X45647Y49147*
X44626Y4957*
G37*
G36*
X4607Y47872D02*
X44626D01*
Y46428*
X45647Y46851*
X4607Y47872*
G37*
G36*
X44372Y4957D02*
X43351Y49147D01*
X42928Y48126*
X44372*
Y4957*
G37*
G36*
X39124Y51674D02*
X37658D01*
Y51449*
X37817Y51067*
X38199Y50908*
X39124*
Y51674*
G37*
G36*
X41341D02*
X39874D01*
Y50908*
X40799*
X41182Y51067*
X41341Y51449*
Y51674*
G37*
G36*
X33374D02*
X31908D01*
Y51449*
X32067Y51067*
X32449Y50908*
X33374*
Y51674*
G37*
G36*
X35591D02*
X34124D01*
Y50908*
X35049*
X35432Y51067*
X35591Y51449*
Y51674*
G37*
G36*
X44372Y47872D02*
X42928D01*
X43351Y46851*
X44372Y46428*
Y47872*
G37*
G36*
X25622Y45932D02*
X24395D01*
X24754Y45064*
X25622Y44705*
Y45932*
G37*
G36*
X27104D02*
X25876D01*
Y44705*
X26744Y45064*
X27104Y45932*
G37*
G36*
X62841Y29574D02*
X61374D01*
Y28808*
X62299*
X62682Y28967*
X62841Y29349*
Y29574*
G37*
G36*
X54299Y29691D02*
X53374D01*
Y28924*
X54841*
Y29149*
X54682Y29532*
X54299Y29691*
G37*
G36*
X60624Y29574D02*
X59158D01*
Y29349*
X59317Y28967*
X59699Y28808*
X60624*
Y29574*
G37*
G36*
X54841Y28174D02*
X53374D01*
Y27408*
X54299*
X54682Y27567*
X54841Y27949*
Y28174*
G37*
G36*
X40429Y35622D02*
X38876D01*
Y3407*
X39974Y34525*
X40429Y35622*
G37*
G36*
X38622D02*
X3707D01*
X37525Y34525*
X38622Y3407*
Y35622*
G37*
G36*
X62299Y31091D02*
X61374D01*
Y30324*
X62841*
Y30549*
X62682Y30932*
X62299Y31091*
G37*
G36*
X60624D02*
X59699D01*
X59317Y30932*
X59158Y30549*
Y30324*
X60624*
Y31091*
G37*
G36*
X38622Y37429D02*
X37525Y36974D01*
X3707Y35876*
X38622*
Y37429*
G37*
G36*
X29376Y3932D02*
Y37876D01*
X3082*
X30398Y38897*
X29376Y3932*
G37*
G36*
X38876Y37429D02*
Y35876D01*
X40429*
X39974Y36974*
X38876Y37429*
G37*
G36*
X3082Y37622D02*
X29376D01*
Y36178*
X30398Y36601*
X3082Y37622*
G37*
G36*
X55999Y45623D02*
X54851Y45147D01*
X54376Y43999*
X54851Y42851*
X55667Y42514*
Y38841*
X55449*
X55067Y38682*
X54908Y38299*
Y37099*
X55067Y36717*
X55449Y36558*
X58049*
X58191Y36617*
X60336*
X60999Y36342*
X61994Y36754*
X62407Y37749*
X61994Y38744*
X60999Y39157*
X60095Y38782*
X58191*
X58049Y38841*
X57832*
Y43249*
X57572Y43876*
X57623Y43999*
X57147Y45147*
X55999Y45623*
G37*
G36*
X115299Y38341D02*
X114374D01*
Y37574*
X115841*
Y37799*
X115682Y38182*
X115299Y38341*
G37*
G36*
X113624D02*
X112699D01*
X112317Y38182*
X112158Y37799*
Y37574*
X113624*
Y38341*
G37*
G36*
X110341Y36824D02*
X108874D01*
Y36058*
X109799*
X110182Y36217*
X110341Y36599*
Y36824*
G37*
G36*
X113624D02*
X112158D01*
Y36599*
X112317Y36217*
X112699Y36058*
X113624*
Y36824*
G37*
G36*
X108124D02*
X106658D01*
Y36599*
X106817Y36217*
X107199Y36058*
X108124*
Y36824*
G37*
G36*
X115841D02*
X114374D01*
Y36058*
X115299*
X115682Y36217*
X115841Y36599*
Y36824*
G37*
G36*
X108124Y38341D02*
X107199D01*
X106817Y38182*
X106658Y37799*
Y37574*
X108124*
Y38341*
G37*
G36*
X109799D02*
X108874D01*
Y37574*
X110341*
Y37799*
X110182Y38182*
X109799Y38341*
G37*
G36*
X11057Y43622D02*
X109126D01*
Y42178*
X110147Y42601*
X11057Y43622*
G37*
G36*
X109126Y4532D02*
Y43876D01*
X11057*
X110147Y44897*
X109126Y4532*
G37*
%LNpcbbyb2aver3-3*%
%LPD*%
G54D10*
X118699Y60749D03*
X1143D03*
X130449Y45749D03*
X126049D03*
X98549Y24499D03*
X102949D03*
X78699Y20749D03*
X74299D03*
X119449Y42749D03*
X115049D03*
X15249Y56449D03*
X19649D03*
X46299Y14999D03*
X50699D03*
X75449Y14499D03*
X71049D03*
X79699Y35499D03*
X75299D03*
G54D11*
X121499Y32799D03*
Y37199D03*
X156499Y18699D03*
Y14299D03*
X113999Y32799D03*
Y37199D03*
X99249Y14299D03*
Y18699D03*
X81999Y25199D03*
Y20799D03*
X39499Y56449D03*
Y52049D03*
X56749Y37699D03*
Y33299D03*
X134249Y4508D03*
Y4068D03*
X15249Y65949D03*
Y61549D03*
X108499Y37199D03*
Y32799D03*
X33749Y52049D03*
Y56449D03*
X52999Y32949D03*
Y28549D03*
X60999Y29949D03*
Y25549D03*
G54D12*
X81143Y56893D02*
Y59122D01*
X79249Y54999D02*
X81143Y56893D01*
X66499Y54999D02*
X79249D01*
X65249Y56249D02*
X66499Y54999D01*
X65249Y56249D02*
Y62249D01*
X68249Y65249*
Y67499*
X66749Y68999D02*
X68249Y67499D01*
X60999Y68999D02*
X66749D01*
X58249Y66249D02*
X60999Y68999D01*
X56499Y66249D02*
X58249D01*
X45249Y66499D02*
X52999Y74249D01*
X130749*
X131749Y73249*
X138999*
X93999Y71999D02*
X95749Y70249D01*
X58999Y71999D02*
X93999D01*
X48999Y61999D02*
X58999Y71999D01*
X136249Y65749D02*
X143749D01*
X145749Y67749*
X130449Y45749D02*
X131119Y4508D01*
X134249*
X102499Y72249D02*
X125749D01*
X129749Y68249*
Y60999D02*
Y68249D01*
Y60999D02*
X134249Y56499D01*
Y4508D02*
Y56499D01*
X116249Y62999D02*
X116499Y63249D01*
X116249Y61249D02*
Y62999D01*
Y61249D02*
X116749Y60749D01*
X118699*
X144499Y25039D02*
X145039Y24499D01*
X13868Y4068D02*
X138749Y40749D01*
X134249Y4068D02*
X13868D01*
X136249Y53999D02*
Y57749D01*
Y53999D02*
X141499Y48749D01*
Y28249D02*
Y48749D01*
X138249Y24999D02*
X141499Y28249D01*
X132499Y24999D02*
X138249D01*
X129499Y27999D02*
X132499Y24999D01*
X129499Y27999D02*
Y31499D01*
X106499Y57749D02*
X106749Y57999D01*
X106499Y50999D02*
Y57749D01*
X113249Y63249D02*
X1143Y62199D01*
Y60749D02*
Y62199D01*
X108999Y62999D02*
X112249Y59749D01*
Y51749D02*
Y59749D01*
Y51749D02*
X113499Y50499D01*
X119249Y57999D02*
X119449Y57799D01*
Y42749D02*
Y57799D01*
Y40549D02*
X120499Y39499D01*
X119449Y40549D02*
Y42749D01*
X120499Y39499D02*
X121499Y38499D01*
Y37199D02*
Y38499D01*
X11463Y4888D02*
Y50499D01*
Y47119D02*
Y4888D01*
Y47119D02*
X115049Y46699D01*
Y42749D02*
Y46699D01*
X113999Y48249D02*
X11463Y4888D01*
X107999Y48249D02*
X113999D01*
X106249Y46499D02*
X107999Y48249D01*
X106249Y42499D02*
Y46499D01*
X105189Y41439D02*
X106249Y42499D01*
X102999Y41439D02*
X105189D01*
X98749Y47749D02*
Y52249D01*
X96879Y45879D02*
X98749Y47749D01*
X93999Y45879D02*
X96879D01*
X100749Y55249D02*
X101749Y56249D01*
X100749Y33749D02*
Y55249D01*
Y33749D02*
X102949Y31549D01*
X86749Y19499D02*
X87249D01*
X84999Y21249D02*
X86749Y19499D01*
X84999Y21249D02*
Y24249D01*
X9525Y49749D02*
X96499Y50999D01*
Y53749*
X9905Y563*
Y59122*
X73499Y39499D02*
X74499D01*
X68499D02*
X73499D01*
X81999Y35499D02*
X82249Y35749D01*
X79699Y35499D02*
X81999D01*
X60949Y37699D02*
X60999Y37749D01*
X56749Y37699D02*
X60949D01*
X98549Y19949D02*
Y24499D01*
Y19949D02*
X99249Y19249D01*
Y18699D02*
Y19249D01*
X91499Y25999D02*
Y28869D01*
Y25999D02*
X92999Y24499D01*
X98549*
X81999Y11917D02*
Y20799D01*
X71879Y20749D02*
D01*
X74299*
X81949D02*
X81999Y20799D01*
X78699Y20749D02*
X81949D01*
X79249Y14499D02*
X79749Y13999D01*
X75449Y14499D02*
X79249D01*
X75299Y35499D02*
Y38699D01*
X74499Y39499D02*
X75299Y38699D01*
X65499Y36499D02*
X68499Y39499D01*
X65499Y27249D02*
Y36499D01*
X63799Y25549D02*
X65499Y27249D01*
X60999Y25549D02*
X63799D01*
X69249Y23499D02*
Y35499D01*
X66499Y20749D02*
X69249Y23499D01*
X65499Y20749D02*
X66499D01*
X93999Y13749D02*
Y16249D01*
Y13749D02*
X96249Y11499D01*
X99559*
X103749Y07309*
X99249Y18699D02*
X99299Y18749D01*
X107249*
X102949Y24499D02*
D01*
X107999*
X108499Y30749D02*
D01*
Y32799*
X137499Y31499D02*
Y32499D01*
X135499Y34499D02*
X137499Y32499D01*
X127499Y34499D02*
X135499D01*
X125249Y36749D02*
X127499Y34499D01*
X125249Y36749D02*
Y38999D01*
X121499Y42749D02*
X125249Y38999D01*
X121499Y42749D02*
Y61499D01*
X116999Y65999D02*
X121499Y61499D01*
X1133Y65999D02*
X116999D01*
X1108Y68499D02*
X1133Y65999D01*
X113499Y50499D02*
X11463D01*
X106749Y62999D02*
X108999D01*
X104749Y64999D02*
X106749Y62999D01*
X104749Y64999D02*
Y68499D01*
X101749Y56249D02*
Y68499D01*
X102949Y24499D02*
Y31549D01*
X46999Y27749D02*
X48749D01*
X49749Y26749*
Y21749D02*
Y26749D01*
X46299Y18299D02*
X49749Y21749D01*
X46299Y14999D02*
Y18299D01*
X48199Y32949D02*
X52999D01*
X46999Y3175D02*
X48199Y32949D01*
X46999Y30189D02*
Y3175D01*
X52999Y32949D02*
X53349Y33299D01*
X56749*
X22939Y25309D02*
X46999D01*
X15999Y32249D02*
X22939Y25309D01*
X15999Y32249D02*
Y46249D01*
X4445Y56449D02*
X44499Y56499D01*
X39499Y56449D02*
X4445D01*
X39499D02*
Y61249D01*
X34799Y65949D02*
X39499Y61249D01*
X15249Y65949D02*
X34799D01*
X19649Y56449D02*
X20699Y57499D01*
X22499*
X08499Y52249D02*
X19795D01*
X23995Y56449*
X33749*
X88999Y21249D02*
X93999Y16249D01*
X88999Y21249D02*
Y48249D01*
X94999Y54249*
Y61499*
X98749Y65249*
Y68499*
X38749Y43749D02*
X46249D01*
X48999Y46499*
Y61999*
X95749Y68499D02*
Y70249D01*
X87124Y52124D02*
X92749Y57749D01*
Y68499*
X68129Y57249D02*
Y61379D01*
X77249Y70499*
X86249*
X86749Y69999*
Y68499D02*
Y69999D01*
Y68499D02*
D01*
X81143Y59122D02*
Y65893D01*
X83749Y68499*
X20689Y50939D02*
X25749D01*
X15999Y46249D02*
X20689Y50939D01*
X07249Y46249D02*
X15999D01*
X01749Y51749D02*
X07249Y46249D01*
X01749Y51749D02*
Y62999D01*
X03689Y64939*
X07999*
X56749Y37699D02*
Y43249D01*
X55999Y43999D02*
X56749Y43249D01*
X61749Y55249D02*
Y57249D01*
X58999Y52499D02*
X61749Y55249D01*
X52749Y52499D02*
X58999D01*
X22999Y37749D02*
X29249D01*
X19999Y40749D02*
X22999Y37749D01*
X19999Y40749D02*
Y46749D01*
X21749Y48499*
X25749*
X05499Y62499D02*
X07999D01*
X03999Y60999D02*
X05499Y62499D01*
X03999Y53499D02*
Y60999D01*
Y53499D02*
X05249Y52249D01*
X08499*
G54D13*
X81143Y59122D03*
X9905D03*
X11463Y50499D03*
X106499Y50999D03*
X127999Y39249D03*
X28656Y81749D03*
X10749D03*
X107249Y18749D03*
X103749Y07309D03*
X69249Y35499D03*
X55999Y43999D03*
X96999Y07809D03*
X44499Y47999D03*
X55999Y21006D03*
X108999Y43749D03*
X145039Y15749D03*
X72249Y07809D03*
X130999Y50999D03*
X20249Y61549D03*
X137499Y15749D03*
X64249Y07809D03*
X107999Y24499D03*
X79749Y13999D03*
X124999Y64999D03*
X29249Y37749D03*
X08499Y52249D03*
X10749Y90999D03*
X28656D03*
X166105Y95626D03*
X148198D03*
X83749Y68499D03*
X86749D03*
X92749D03*
X89749D03*
X101749D03*
X104749D03*
X98749D03*
X95749D03*
X107749D03*
X1108D03*
X166105Y84876D03*
X148198D03*
X635Y65249D03*
X52749Y52499D03*
X61249Y18249D03*
G54D14*
X171499Y07499D03*
X07499D03*
X104309Y57999D03*
G54D15*
X137499Y31499D03*
X129499D03*
X93999Y16249D03*
X85999D03*
X167249Y29749D03*
Y39749D03*
X38749Y43749D03*
Y35749D03*
X167249Y46999D03*
Y56999D03*
X136249Y57749D03*
Y65749D03*
X155749Y67749D03*
X145749D03*
G54D16*
X80999Y04869D03*
Y07309D03*
X124999Y57129D03*
Y54689D03*
X106749Y57999D03*
X109189D03*
X102999Y43879D03*
Y41439D03*
X91499Y31309D03*
Y28869D03*
X46999Y27749D03*
Y30189D03*
X25749Y46059D03*
Y48499D03*
X07999Y62499D03*
Y60059D03*
X93999Y39499D03*
Y45879D03*
X165249Y20289D03*
Y17749D03*
X65499Y20749D03*
X71879D03*
X68129Y57249D03*
X61749D03*
X56499Y66249D03*
X45249Y66499D03*
X102499Y72249D03*
X116499Y63249D03*
X144499Y40499D03*
X138749Y40749D03*
X113249Y63249D03*
X119249Y57999D03*
X120499Y39499D03*
X98749Y52249D03*
X103249Y14749D03*
X87249Y19499D03*
X9525Y49749D03*
X73499Y39499D03*
X82249Y35749D03*
X81999Y29249D03*
X60999Y37749D03*
X108499Y30749D03*
X44499Y56499D03*
X22499Y57499D03*
G54D17*
X80999Y09749D03*
X124999Y52249D03*
X102999Y38999D03*
X91499Y33749D03*
X46999Y25309D03*
X25749Y50939D03*
X07999Y64939D03*
G54D18*
X155959Y24499D03*
X150499D03*
X145039D03*
M02*