%FSTAX23Y23*%
%MOMM*%
%SFA1B1*%

%IPPOS*%
%ADD19C,0.253999*%
%ADD20C,0.200000*%
%ADD21R,0.127000X1.269997*%
%ADD22R,1.269997X0.127000*%
%LNpcbbyb2aver3-1*%
%LPD*%
G54D19*
X138897Y31499D02*
D01*
X138884Y31876*
X138845Y32251*
X13878Y32622*
X138688Y32987*
X138572Y33346*
X138431Y33695*
X138266Y34034*
X138077Y3436*
X137867Y34672*
X137635Y34969*
X137382Y35249*
X137111Y35511*
X136823Y35753*
X136518Y35975*
X136198Y36174*
X135866Y36351*
X135522Y36504*
X135168Y36633*
X134805Y36737*
X134437Y36815*
X134064Y36868*
X133688Y36894*
X133311*
X132935Y36868*
X132562Y36815*
X132194Y36737*
X131831Y36633*
X131477Y36504*
X131133Y36351*
X1308Y36174*
X130481Y35975*
X130176Y35753*
X129888Y35511*
X129616Y35249*
X129364Y34969*
X129132Y34672*
X128922Y3436*
X128733Y34034*
X128568Y33695*
X128427Y33346*
X128311Y32987*
X128219Y32622*
X128154Y32251*
X128115Y31876*
X128101Y31499*
X128115Y31123*
X128154Y30748*
X128219Y30377*
X128311Y30012*
X128427Y29653*
X128568Y29304*
X128733Y28965*
X128922Y28639*
X129132Y28327*
X129364Y2803*
X129616Y2775*
X129888Y27488*
X130176Y27246*
X130481Y27024*
X1308Y26825*
X131133Y26648*
X131477Y26495*
X131831Y26366*
X132194Y26262*
X132562Y26183*
X132935Y26131*
X133311Y26105*
X133688*
X134064Y26131*
X134437Y26183*
X134805Y26262*
X135168Y26366*
X135522Y26495*
X135866Y26648*
X136198Y26825*
X136518Y27024*
X136823Y27246*
X137111Y27488*
X137382Y2775*
X137635Y2803*
X137867Y28327*
X138077Y28639*
X138266Y28965*
X138431Y29304*
X138572Y29653*
X138688Y30012*
X13878Y30377*
X138845Y30748*
X138884Y31123*
X138897Y31499*
X79729Y0378D02*
D01*
X79987Y03717*
X80248Y03672*
X80511Y03645*
X80776Y03637*
X8104Y03647*
X81303Y03676*
X81564Y03723*
X81821Y03787*
X82072Y0387*
X82318Y0397*
X82555Y04087*
X82784Y0422*
X83003Y04369*
X83211Y04533*
X83407Y0471*
X83591Y04901*
X8376Y05105*
X83915Y0532*
X84055Y05545*
X84178Y05779*
X84285Y06021*
X84375Y0627*
X84447Y06525*
X84501Y06784*
X84537Y07047*
X84555Y07311*
X84554Y07576*
X84535Y0784*
X84497Y08102*
X84441Y08361*
X84367Y08615*
X84276Y08863*
X84167Y09105*
X84042Y09338*
X83901Y09562*
X83745Y09776*
X83574Y09978*
X83389Y10168*
X83192Y10345*
X82983Y10507*
X82763Y10654*
X82533Y10786*
X82295Y10901*
X82049Y11*
X81797Y11081*
X8154Y11144*
X81279Y11189*
X81015Y11216*
X80751Y11224*
X80486Y11214*
X80223Y11186*
X79962Y11139*
X79733Y11082*
X126269Y58218D02*
D01*
X126012Y58282*
X125751Y58327*
X125488Y58354*
X125223Y58362*
X124959Y58352*
X124695Y58323*
X124435Y58276*
X124178Y58212*
X123927Y58129*
X123681Y58029*
X123444Y57912*
X123215Y57779*
X122996Y5763*
X122788Y57466*
X122592Y57289*
X122408Y57097*
X122239Y56894*
X122084Y56679*
X121944Y56454*
X121821Y5622*
X121714Y55978*
X121624Y55729*
X121552Y55474*
X121498Y55215*
X121462Y54952*
X121444Y54688*
X121445Y54423*
X121464Y54159*
X121502Y53897*
X121558Y53638*
X121632Y53384*
X121723Y53136*
X121832Y52894*
X121957Y52661*
X122098Y52437*
X122254Y52223*
X122425Y52021*
X12261Y51831*
X122807Y51654*
X123016Y51492*
X123236Y51345*
X123466Y51213*
X123704Y51098*
X12395Y50999*
X124202Y50918*
X124459Y50855*
X12472Y5081*
X124984Y50783*
X125248Y50775*
X125513Y50785*
X125776Y50813*
X126037Y5086*
X126265Y50917*
X110278Y56729D02*
D01*
X110342Y56987*
X110387Y57248*
X110414Y57511*
X110422Y57776*
X110412Y5804*
X110383Y58303*
X110336Y58564*
X110272Y58821*
X110189Y59072*
X110089Y59318*
X109972Y59555*
X109839Y59784*
X10969Y60003*
X109526Y60211*
X109349Y60407*
X109157Y60591*
X108954Y6076*
X108739Y60915*
X108514Y61055*
X10828Y61178*
X108038Y61285*
X107789Y61375*
X107534Y61447*
X107275Y61501*
X107012Y61537*
X106748Y61555*
X106483Y61554*
X106219Y61535*
X105957Y61497*
X105698Y61441*
X105444Y61367*
X105196Y61276*
X104954Y61167*
X104721Y61042*
X104497Y60901*
X104283Y60745*
X104081Y60574*
X103891Y60389*
X103714Y60192*
X103552Y59983*
X103405Y59763*
X103273Y59533*
X103158Y59295*
X103059Y59049*
X102978Y58797*
X102915Y5854*
X10287Y58279*
X102843Y58015*
X102835Y57751*
X102845Y57486*
X102873Y57223*
X10292Y56962*
X102977Y56733*
X104269Y44968D02*
D01*
X104012Y45032*
X103751Y45077*
X103488Y45104*
X103223Y45112*
X102959Y45102*
X102696Y45073*
X102435Y45026*
X102178Y44962*
X101927Y44879*
X101681Y44779*
X101444Y44662*
X101215Y44529*
X100996Y4438*
X100788Y44216*
X100592Y44039*
X100408Y43847*
X100239Y43644*
X100084Y43429*
X99944Y43204*
X99821Y4297*
X99714Y42728*
X99624Y42479*
X99552Y42224*
X99498Y41965*
X99462Y41702*
X99444Y41438*
X99445Y41173*
X99464Y40909*
X99502Y40647*
X99558Y40388*
X99632Y40134*
X99723Y39886*
X99832Y39644*
X99957Y39411*
X100098Y39187*
X100254Y38973*
X100425Y38771*
X10061Y38581*
X100807Y38404*
X101016Y38242*
X101236Y38095*
X101466Y37963*
X101704Y37848*
X10195Y37749*
X102202Y37668*
X102459Y37605*
X10272Y3756*
X102984Y37533*
X103248Y37525*
X103513Y37535*
X103776Y37563*
X104037Y3761*
X104265Y37667*
X90229Y2778D02*
D01*
X90487Y27717*
X90748Y27672*
X91011Y27645*
X91276Y27637*
X9154Y27647*
X91803Y27676*
X92064Y27722*
X92321Y27787*
X92572Y2787*
X92818Y2797*
X93055Y28087*
X93284Y2822*
X93503Y28369*
X93711Y28533*
X93907Y2871*
X94091Y28901*
X9426Y29105*
X94415Y2932*
X94555Y29545*
X94678Y29779*
X94785Y30021*
X94875Y3027*
X94947Y30525*
X95001Y30784*
X95037Y31047*
X95055Y31311*
X95054Y31576*
X95035Y3184*
X94997Y32102*
X94941Y32361*
X94867Y32615*
X94776Y32863*
X94667Y33105*
X94542Y33338*
X94401Y33562*
X94245Y33776*
X94074Y33978*
X93889Y34168*
X93692Y34345*
X93483Y34507*
X93263Y34654*
X93033Y34786*
X92795Y34901*
X92549Y35*
X92297Y35081*
X9204Y35144*
X91779Y35189*
X91515Y35216*
X91251Y35224*
X90986Y35214*
X90723Y35186*
X90462Y35139*
X90233Y35082*
X48269Y31278D02*
D01*
X48012Y31342*
X47751Y31387*
X47488Y31414*
X47223Y31422*
X46959Y31412*
X46695Y31383*
X46435Y31336*
X46178Y31272*
X45927Y31189*
X45681Y31089*
X45444Y30972*
X45215Y30839*
X44996Y3069*
X44788Y30526*
X44592Y30349*
X44408Y30157*
X44239Y29954*
X44084Y29739*
X43944Y29514*
X43821Y2928*
X43714Y29038*
X43624Y28789*
X43552Y28534*
X43498Y28275*
X43462Y28012*
X43444Y27748*
X43445Y27483*
X43464Y27219*
X43502Y26957*
X43558Y26698*
X43632Y26444*
X43723Y26196*
X43832Y25954*
X43957Y25721*
X44098Y25497*
X44254Y25283*
X44425Y25081*
X4461Y24891*
X44807Y24714*
X45016Y24552*
X45236Y24405*
X45466Y24273*
X45704Y24158*
X4595Y24059*
X46202Y23978*
X46459Y23915*
X4672Y2387*
X46984Y23843*
X47248Y23835*
X47513Y23845*
X47776Y23873*
X48037Y2392*
X48265Y23977*
X24479Y4497D02*
D01*
X24737Y44907*
X24998Y44862*
X25261Y44835*
X25526Y44827*
X2579Y44837*
X26053Y44866*
X26314Y44912*
X26571Y44977*
X26822Y4506*
X27068Y4516*
X27305Y45277*
X27534Y4541*
X27753Y45559*
X27961Y45723*
X28157Y459*
X28341Y46091*
X2851Y46295*
X28665Y4651*
X28805Y46735*
X28928Y46969*
X29035Y47211*
X29125Y4746*
X29197Y47715*
X29251Y47974*
X29287Y48237*
X29305Y48501*
X29304Y48766*
X29285Y4903*
X29247Y49292*
X29191Y49551*
X29117Y49805*
X29026Y50053*
X28917Y50295*
X28792Y50528*
X28651Y50752*
X28495Y50966*
X28324Y51168*
X28139Y51358*
X27942Y51535*
X27733Y51697*
X27513Y51844*
X27283Y51976*
X27045Y52091*
X26799Y5219*
X26547Y52271*
X2629Y52334*
X26029Y52379*
X25765Y52406*
X25501Y52414*
X25236Y52404*
X24973Y52376*
X24712Y52329*
X24483Y52272*
X06729Y5897D02*
D01*
X06987Y58907*
X07248Y58862*
X07511Y58835*
X07776Y58827*
X0804Y58837*
X08303Y58866*
X08564Y58912*
X08821Y58977*
X09072Y5906*
X09318Y5916*
X09555Y59277*
X09784Y5941*
X10003Y59559*
X10211Y59723*
X10407Y599*
X10591Y60092*
X1076Y60295*
X10915Y6051*
X11055Y60735*
X11178Y60969*
X11285Y61211*
X11375Y6146*
X11447Y61715*
X11501Y61974*
X11537Y62237*
X11555Y62501*
X11554Y62766*
X11535Y6303*
X11497Y63292*
X11441Y63551*
X11367Y63805*
X11276Y64053*
X11167Y64295*
X11042Y64528*
X10901Y64752*
X10745Y64966*
X10574Y65168*
X10389Y65358*
X10192Y65535*
X09983Y65697*
X09763Y65844*
X09533Y65976*
X09295Y66091*
X09049Y6619*
X08797Y66271*
X0854Y66334*
X08279Y66379*
X08015Y66406*
X07751Y66414*
X07486Y66404*
X07223Y66376*
X06962Y66329*
X06733Y66272*
X95397Y16249D02*
D01*
X95384Y16626*
X95345Y17001*
X9528Y17372*
X95188Y17737*
X95072Y18096*
X94931Y18445*
X94766Y18784*
X94577Y1911*
X94367Y19422*
X94135Y19719*
X93882Y19999*
X93611Y20261*
X93323Y20503*
X93018Y20725*
X92698Y20924*
X92366Y21101*
X92022Y21254*
X91668Y21383*
X91305Y21487*
X90937Y21565*
X90564Y21618*
X90188Y21644*
X89811*
X89435Y21618*
X89062Y21565*
X88694Y21487*
X88331Y21383*
X87977Y21254*
X87633Y21101*
X873Y20924*
X86981Y20725*
X86676Y20503*
X86388Y20261*
X86116Y19999*
X85864Y19719*
X85632Y19422*
X85422Y1911*
X85233Y18784*
X85068Y18445*
X84927Y18096*
X84811Y17737*
X84719Y17372*
X84654Y17001*
X84615Y16626*
X84601Y16249*
X84615Y15873*
X84654Y15498*
X84719Y15127*
X84811Y14762*
X84927Y14403*
X85068Y14054*
X85233Y13715*
X85422Y13389*
X85632Y13077*
X85864Y1278*
X86116Y125*
X86388Y12238*
X86676Y11996*
X86981Y11774*
X873Y11575*
X87633Y11398*
X87977Y11245*
X88331Y11116*
X88694Y11012*
X89062Y10933*
X89435Y10881*
X89811Y10855*
X90188*
X90564Y10881*
X90937Y10933*
X91305Y11012*
X91668Y11116*
X92022Y11245*
X92366Y11398*
X92698Y11575*
X93018Y11774*
X93323Y11996*
X93611Y12238*
X93882Y125*
X94135Y1278*
X94367Y13077*
X94577Y13389*
X94766Y13715*
X94931Y14054*
X95072Y14403*
X95188Y14762*
X9528Y15127*
X95345Y15498*
X95384Y15873*
X95397Y16249*
X167919Y19019D02*
D01*
X167913Y19206*
X167894Y19391*
X167861Y19575*
X167816Y19755*
X167758Y19933*
X167689Y20105*
X167607Y20273*
X167514Y20434*
X16741Y20589*
X167295Y20736*
X16717Y20874*
X167036Y21004*
X166893Y21123*
X166743Y21233*
X166584Y21332*
X16642Y21419*
X16625Y21495*
X166075Y21559*
X165895Y2161*
X165713Y21649*
X165529Y21675*
X165343Y21688*
X165156*
X16497Y21675*
X164786Y21649*
X164604Y2161*
X164424Y21559*
X164249Y21495*
X164079Y21419*
X163914Y21332*
X163756Y21233*
X163606Y21123*
X163463Y21004*
X163329Y20874*
X163204Y20736*
X163089Y20589*
X162985Y20434*
X162892Y20273*
X16281Y20105*
X162741Y19933*
X162683Y19755*
X162638Y19575*
X162605Y19391*
X162586Y19206*
X162579Y19019*
X162586Y18833*
X162605Y18648*
X162638Y18464*
X162683Y18284*
X162741Y18106*
X16281Y17934*
X162892Y17766*
X162985Y17605*
X163089Y1745*
X163204Y17303*
X163329Y17165*
X163463Y17035*
X163606Y16915*
X163756Y16806*
X163914Y16707*
X164079Y1662*
X164249Y16544*
X164424Y1648*
X164604Y16429*
X164786Y1639*
X16497Y16364*
X165156Y16351*
X165343*
X165529Y16364*
X165713Y1639*
X165895Y16429*
X166075Y1648*
X16625Y16544*
X16642Y1662*
X166584Y16707*
X166743Y16806*
X166893Y16915*
X167036Y17035*
X16717Y17165*
X167295Y17303*
X16741Y1745*
X167514Y17605*
X167607Y17766*
X167689Y17934*
X167758Y18106*
X167816Y18284*
X167861Y18464*
X167894Y18648*
X167913Y18833*
X167919Y19019*
X44147Y39749D02*
D01*
X44134Y40126*
X44095Y40501*
X4403Y40872*
X43938Y41237*
X43822Y41596*
X43681Y41945*
X43516Y42284*
X43327Y4261*
X43117Y42922*
X42885Y43219*
X42632Y43499*
X42361Y43761*
X42073Y44003*
X41768Y44225*
X41448Y44424*
X41116Y44601*
X40772Y44754*
X40418Y44883*
X40055Y44987*
X39687Y45065*
X39314Y45118*
X38938Y45144*
X38561*
X38185Y45118*
X37812Y45065*
X37444Y44987*
X37081Y44883*
X36727Y44754*
X36383Y44601*
X3605Y44424*
X35731Y44225*
X35426Y44003*
X35138Y43761*
X34866Y43499*
X34614Y43219*
X34382Y42922*
X34172Y4261*
X33983Y42284*
X33818Y41945*
X33677Y41596*
X33561Y41237*
X33469Y40872*
X33404Y40501*
X33365Y40126*
X33351Y39749*
X33365Y39373*
X33404Y38998*
X33469Y38627*
X33561Y38262*
X33677Y37903*
X33818Y37554*
X33983Y37215*
X34172Y36889*
X34382Y36577*
X34614Y3628*
X34866Y36*
X35138Y35738*
X35426Y35496*
X35731Y35274*
X3605Y35075*
X36383Y34898*
X36727Y34745*
X37081Y34616*
X37444Y34512*
X37812Y34433*
X38185Y34381*
X38561Y34355*
X38938*
X39314Y34381*
X39687Y34433*
X40055Y34512*
X40418Y34616*
X40772Y34745*
X41116Y34898*
X41448Y35075*
X41768Y35274*
X42073Y35496*
X42361Y35738*
X42632Y36*
X42885Y3628*
X43117Y36577*
X43327Y36889*
X43516Y37215*
X43681Y37554*
X43822Y37903*
X43938Y38262*
X4403Y38627*
X44095Y38998*
X44134Y39373*
X44147Y39749*
X141647Y61749D02*
D01*
X141634Y62126*
X141595Y62501*
X14153Y62872*
X141438Y63237*
X141322Y63596*
X141181Y63945*
X141016Y64284*
X140827Y6461*
X140617Y64922*
X140385Y65219*
X140132Y65499*
X139861Y65761*
X139573Y66003*
X139268Y66225*
X138948Y66424*
X138616Y66601*
X138272Y66754*
X137918Y66883*
X137555Y66987*
X137187Y67065*
X136814Y67118*
X136438Y67144*
X136061*
X135685Y67118*
X135312Y67065*
X134944Y66987*
X134581Y66883*
X134227Y66754*
X133883Y66601*
X13355Y66424*
X133231Y66225*
X132926Y66003*
X132638Y65761*
X132366Y65499*
X132114Y65219*
X131882Y64922*
X131672Y6461*
X131483Y64284*
X131318Y63945*
X131177Y63596*
X131061Y63237*
X130969Y62872*
X130904Y62501*
X130865Y62126*
X130851Y61749*
X130865Y61373*
X130904Y60998*
X130969Y60627*
X131061Y60262*
X131177Y59903*
X131318Y59554*
X131483Y59215*
X131672Y58889*
X131882Y58577*
X132114Y5828*
X132366Y58*
X132638Y57738*
X132926Y57496*
X133231Y57274*
X13355Y57075*
X133883Y56898*
X134227Y56745*
X134581Y56616*
X134944Y56512*
X135312Y56433*
X135685Y56381*
X136061Y56355*
X136438*
X136814Y56381*
X137187Y56433*
X137555Y56512*
X137918Y56616*
X138272Y56745*
X138616Y56898*
X138948Y57075*
X139268Y57274*
X139573Y57496*
X139861Y57738*
X140132Y58*
X140385Y5828*
X140617Y58577*
X140827Y58889*
X141016Y59215*
X141181Y59554*
X141322Y59903*
X141438Y60262*
X14153Y60627*
X141595Y60998*
X141634Y61373*
X141647Y61749*
X82794Y56709D02*
Y61281D01*
X97653Y56709D02*
Y61281D01*
X82794D02*
X97653D01*
X82794Y56709D02*
X97653D01*
X112725Y48594D02*
Y52404D01*
Y48594D02*
X116535D01*
Y52404*
X112725D02*
X116535D01*
X104594Y49094D02*
Y52904D01*
Y49094D02*
X108404D01*
Y52904*
X104594D02*
X108404D01*
X134832Y30229D02*
Y32896D01*
X133308Y31372D02*
X134832Y32896D01*
Y29848D02*
Y30229D01*
X133308Y29848D02*
Y32896D01*
X131657Y31372D02*
X133308D01*
X134832Y29848*
X133308Y31372D02*
X135975D01*
X126094Y37344D02*
Y41154D01*
Y37344D02*
X129904D01*
Y41154*
X126094D02*
X129904D01*
X79729Y0378D02*
Y11019D01*
X124Y79336D02*
X27259D01*
X124Y83908D02*
X27259D01*
Y79336D02*
Y83908D01*
X124Y79336D02*
Y83908D01*
X126269Y58218D02*
Y50979D01*
X103039Y56729D02*
X110278D01*
X104269Y37729D02*
Y44968D01*
X90229Y2778D02*
Y35019D01*
X48269Y24039D02*
Y31278D01*
X24479Y4497D02*
Y52209D01*
X06729Y5897D02*
Y66209D01*
X105344Y16844D02*
X109154D01*
Y20654*
X105344D02*
X109154D01*
X105344Y16844D02*
Y20654D01*
X101844Y05404D02*
Y09214D01*
Y05404D02*
X105654D01*
Y09214*
X101844D02*
X105654D01*
X67344Y33594D02*
Y37404D01*
Y33594D02*
X71154D01*
Y37404*
X67344D02*
X71154D01*
X54094Y42094D02*
Y45904D01*
Y42094D02*
X57904D01*
Y45904*
X54094D02*
X57904D01*
X91332Y14979D02*
Y17646D01*
X89808Y16122D02*
X91332Y17646D01*
Y14598D02*
Y14979D01*
X89808Y14598D02*
Y17646D01*
X88157Y16122D02*
X89808D01*
X91332Y14598*
X89808Y16122D02*
X92475D01*
X95094Y05904D02*
Y09714D01*
Y05904D02*
X98904D01*
Y09714*
X95094D02*
X98904D01*
X42594Y46094D02*
Y49904D01*
Y46094D02*
X46404D01*
Y49904*
X42594D02*
X46404D01*
X54094Y19101D02*
Y22911D01*
Y19101D02*
X57904D01*
Y22911*
X54094D02*
X57904D01*
X107094Y41844D02*
Y45654D01*
Y41844D02*
X110904D01*
Y45654*
X107094D02*
X110904D01*
X143134Y13844D02*
Y17654D01*
Y13844D02*
X146944D01*
Y17654*
X143134D02*
X146944D01*
X93999Y40926D02*
Y42323D01*
X92729D02*
X95269D01*
X92729Y43339D02*
X95269D01*
X93999D02*
Y44736D01*
X92094Y39402D02*
Y46133D01*
Y39402D02*
X92856D01*
X92094Y46133D02*
X92983D01*
X95015D02*
X95904D01*
X95142Y39402D02*
X95904D01*
Y46133*
X70344Y05904D02*
Y09714D01*
Y05904D02*
X74154D01*
Y09714*
X70344D02*
X74154D01*
X129094Y49094D02*
Y52904D01*
Y49094D02*
X132904D01*
Y52904*
X129094D02*
X132904D01*
X22154Y59644D02*
Y63454D01*
X18344D02*
X22154D01*
X18344Y59644D02*
Y63454D01*
Y59644D02*
X22154D01*
X163344Y20035D02*
Y2067D01*
X163979Y21178D02*
Y20035D01*
X164614Y21051D02*
Y21432D01*
X165249Y21305D02*
Y21689D01*
X165884Y21051D02*
Y21559D01*
X166519Y20289D02*
Y21305D01*
X167154Y20797D02*
Y20162D01*
X166138D02*
X167535D01*
X162836Y20035D02*
X164233D01*
X142499Y24245D02*
X143642D01*
X142499D02*
Y58408D01*
X158628*
Y24245D02*
Y58408D01*
X157231Y24245D02*
X158628D01*
X135594Y13844D02*
Y17654D01*
Y13844D02*
X139404D01*
Y17654*
X135594D02*
X139404D01*
X165979Y33559D02*
X168646D01*
X167122Y35083D02*
X168646Y33559D01*
X165598D02*
X165979D01*
X165598Y35083D02*
X168646D01*
X167122D02*
Y38258D01*
X165598Y33559D02*
X167122Y35083D01*
Y31527D02*
Y35083D01*
X62344Y05904D02*
Y09714D01*
Y05904D02*
X66154D01*
Y09714*
X62344D02*
X66154D01*
X37352Y41082D02*
X40019D01*
X37352D02*
X38876Y39558D01*
X40019Y41082D02*
X404D01*
X37352Y39558D02*
X404D01*
X38876Y37907D02*
Y39558D01*
X404Y41082*
X38876Y39558D02*
Y42225D01*
X66926Y20749D02*
X68323D01*
Y19479D02*
Y22019D01*
X69339Y19479D02*
Y22019D01*
Y20749D02*
X70736D01*
X65402Y22654D02*
X72133D01*
X65402Y21892D02*
Y22654D01*
X72133Y21765D02*
Y22654D01*
Y19733D02*
Y18844D01*
X65402D02*
Y19606D01*
Y18844D02*
X72133D01*
X106094Y22594D02*
X109904D01*
Y26404*
X106094D02*
X109904D01*
X106094Y22594D02*
Y26404D01*
X165979Y50809D02*
X168646D01*
X167122Y52333D02*
X168646Y50809D01*
X165598D02*
X165979D01*
X165598Y52333D02*
X168646D01*
X167122D02*
Y55508D01*
X165598Y50809D02*
X167122Y52333D01*
Y48777D02*
Y52333D01*
X77844Y12094D02*
Y15904D01*
Y12094D02*
X81654D01*
Y15904*
X77844D02*
X81654D01*
X123094Y63094D02*
Y66904D01*
Y63094D02*
X126904D01*
Y66904*
X123094D02*
X126904D01*
X134979Y60416D02*
X137646D01*
X136122Y6194D02*
X137646Y60416D01*
X134598D02*
X134979D01*
X134598Y6194D02*
X137646D01*
X136122D02*
Y63591D01*
X134598Y60416D02*
X136122Y6194D01*
Y59273D02*
Y6194D01*
X31154Y35844D02*
Y39654D01*
X27344D02*
X31154D01*
X27344Y35844D02*
Y39654D01*
Y35844D02*
X31154D01*
X06594Y50344D02*
Y54154D01*
Y50344D02*
X10404D01*
Y54154*
X06594D02*
X10404D01*
X151939Y66479D02*
Y69146D01*
X150415Y67622D02*
X151939Y69146D01*
Y66098D02*
Y66479D01*
X150415Y66098D02*
Y69146D01*
X14724Y67622D02*
X150415D01*
X151939Y66098*
X150415Y67622D02*
X153971D01*
X124Y88586D02*
Y93158D01*
X27259D02*
Y88586D01*
X124Y93158D02*
X27259D01*
X124Y88586D02*
X27259D01*
X164454Y93467D02*
Y98039D01*
X149595Y93467D02*
Y98039D01*
Y93467D02*
X164454D01*
X149595Y98039D02*
X164454D01*
X81209Y67864D02*
Y69769D01*
X82479Y71039*
X112959*
Y70023D02*
Y71039D01*
Y66594D02*
Y70023D01*
X81209Y66594D02*
X112959D01*
X81209D02*
Y67864D01*
X164454Y82717D02*
Y87289D01*
X149595Y82717D02*
Y87289D01*
Y82717D02*
X164454D01*
X149595Y87289D02*
X164454D01*
X61595Y63344D02*
Y67154D01*
Y63344D02*
X65405D01*
Y67154*
X61595D02*
X65405D01*
X65305Y57249D02*
X66702D01*
X65305Y55979D02*
Y58519D01*
X64289Y55979D02*
Y58519D01*
X62892Y57249D02*
X64289D01*
X61495Y55344D02*
X68226D01*
Y56106*
X61495Y55344D02*
Y56233D01*
Y59154D02*
Y58265D01*
X68226Y58392D02*
Y59154D01*
X61495D02*
X68226D01*
X50844Y50594D02*
Y54404D01*
Y50594D02*
X54654D01*
Y54404*
X50844D02*
X54654D01*
X59344Y16344D02*
Y20154D01*
Y16344D02*
X63154D01*
Y20154*
X59344D02*
X63154D01*
X62106Y62256D02*
X61852Y6251D01*
X61345*
X61091Y62256*
Y6124*
X61345Y60986*
X61852*
X62106Y6124*
X62614Y60986D02*
X63122D01*
X62868*
Y6251*
X62614Y62256*
X65856Y25707D02*
X65602Y25961D01*
X65094*
X6484Y25707*
Y24691*
X65094Y24437*
X65602*
X65856Y24691*
X6738Y24437D02*
X66364D01*
X6738Y25453*
Y25707*
X67126Y25961*
X66618*
X66364Y25707*
X92336Y48803D02*
X92082Y49057D01*
X91574*
X9132Y48803*
Y47788*
X91574Y47534*
X92082*
X92336Y47788*
X92844Y48803D02*
X93098Y49057D01*
X93606*
X9386Y48803*
Y48549*
X93606Y48295*
X93352*
X93606*
X9386Y48041*
Y47788*
X93606Y47534*
X93098*
X92844Y47788*
X162715Y24101D02*
Y22578D01*
Y23339*
X163731*
Y24101*
Y22578*
X164238Y24101D02*
Y22578D01*
X165254*
X165762D02*
X16627D01*
X166016*
Y24101*
X165762Y23847*
X09905Y84806D02*
Y8633D01*
X10666*
X1092Y86076*
Y85568*
X10666Y85314*
X09905*
X10412D02*
X1092Y84806D01*
X11428D02*
X11936D01*
X11682*
Y8633*
X11428Y86076*
X14803Y58605D02*
Y60129D01*
X15565*
X15819Y59875*
Y59367*
X15565Y59113*
X14803*
X15311D02*
X15819Y58605D01*
X17343D02*
X16327D01*
X17343Y59621*
Y59875*
X17089Y60129*
X16581*
X16327Y59875*
X14098Y67413D02*
Y68937D01*
X14859*
X15113Y68683*
Y68175*
X14859Y67921*
X14098*
X14605D02*
X15113Y67413D01*
X15621Y68683D02*
X15875Y68937D01*
X16383*
X16637Y68683*
Y68429*
X16383Y68175*
X16129*
X16383*
X16637Y67921*
Y67667*
X16383Y67413*
X15875*
X15621Y67667*
X59864Y31415D02*
Y32938D01*
X60626*
X6088Y32684*
Y32177*
X60626Y31923*
X59864*
X60372D02*
X6088Y31415D01*
X6215D02*
Y32938D01*
X61388Y32177*
X62404*
X32614Y57917D02*
Y5944D01*
X33376*
X3363Y59186*
Y58679*
X33376Y58425*
X32614*
X33122D02*
X3363Y57917D01*
X35153Y5944D02*
X34138D01*
Y58679*
X34646Y58933*
X349*
X35153Y58679*
Y58171*
X349Y57917*
X34392*
X34138Y58171*
X3836Y57914D02*
Y59438D01*
X39122*
X39376Y59184*
Y58676*
X39122Y58422*
X3836*
X38868D02*
X39376Y57914D01*
X40899Y59438D02*
X40391Y59184D01*
X39884Y58676*
Y58168*
X40137Y57914*
X40645*
X40899Y58168*
Y58422*
X40645Y58676*
X39884*
X51849Y34404D02*
Y35927D01*
X5261*
X52864Y35673*
Y35166*
X5261Y34912*
X51849*
X52356D02*
X52864Y34404D01*
X53372Y35927D02*
X54388D01*
Y35673*
X53372Y34658*
Y34404*
X556Y39159D02*
Y40683D01*
X56362*
X56616Y40429*
Y39921*
X56362Y39667*
X556*
X56108D02*
X56616Y39159D01*
X57123Y40429D02*
X57377Y40683D01*
X57885*
X58139Y40429*
Y40175*
X57885Y39921*
X58139Y39667*
Y39413*
X57885Y39159*
X57377*
X57123Y39413*
Y39667*
X57377Y39921*
X57123Y40175*
Y40429*
X57377Y39921D02*
X57885D01*
X45863Y17153D02*
Y18676D01*
X46625*
X46879Y18422*
Y17915*
X46625Y17661*
X45863*
X46371D02*
X46879Y17153D01*
X47386Y17407D02*
X4764Y17153D01*
X48148*
X48402Y17407*
Y18422*
X48148Y18676*
X4764*
X47386Y18422*
Y18169*
X4764Y17915*
X48402*
X73858Y22917D02*
Y24441D01*
X7462*
X74874Y24187*
Y23679*
X7462Y23425*
X73858*
X74366D02*
X74874Y22917D01*
X75382D02*
X7589D01*
X75636*
Y24441*
X75382Y24187*
X76651D02*
X76905Y24441D01*
X77413*
X77667Y24187*
Y23171*
X77413Y22917*
X76905*
X76651Y23171*
Y24187*
X8085Y26667D02*
Y28191D01*
X81612*
X81866Y27937*
Y27429*
X81612Y27175*
X8085*
X81358D02*
X81866Y26667D01*
X82374D02*
X82881D01*
X82627*
Y28191*
X82374Y27937*
X83643Y26667D02*
X84151D01*
X83897*
Y28191*
X83643Y27937*
X70597Y16676D02*
Y18199D01*
X71358*
X71612Y17945*
Y17437*
X71358Y17183*
X70597*
X71104D02*
X71612Y16676D01*
X7212D02*
X72628D01*
X72374*
Y18199*
X7212Y17945*
X74405Y16676D02*
X7339D01*
X74405Y17691*
Y17945*
X74151Y18199*
X73644*
X7339Y17945*
X98097Y26668D02*
Y28192D01*
X98859*
X99113Y27938*
Y2743*
X98859Y27176*
X98097*
X98605D02*
X99113Y26668D01*
X9962D02*
X100128D01*
X99874*
Y28192*
X9962Y27938*
X10089D02*
X101144Y28192D01*
X101652*
X101906Y27938*
Y27684*
X101652Y2743*
X101398*
X101652*
X101906Y27176*
Y26922*
X101652Y26668*
X101144*
X10089Y26922*
X98098Y20153D02*
Y21676D01*
X9886*
X99114Y21422*
Y20914*
X9886Y2066*
X98098*
X98606D02*
X99114Y20153D01*
X99622D02*
X100129D01*
X99875*
Y21676*
X99622Y21422*
X101653Y20153D02*
Y21676D01*
X100891Y20914*
X101907*
X107345Y38661D02*
Y40185D01*
X108107*
X108361Y39931*
Y39423*
X108107Y39169*
X107345*
X107853D02*
X108361Y38661D01*
X108869D02*
X109376D01*
X109122*
Y40185*
X108869Y39931*
X111154Y40185D02*
X110138D01*
Y39423*
X110646Y39677*
X1109*
X111154Y39423*
Y38915*
X1109Y38661*
X110392*
X110138Y38915*
X112844Y3867D02*
Y40193D01*
X113605*
X113859Y39939*
Y39431*
X113605Y39178*
X112844*
X113352D02*
X113859Y3867D01*
X114367D02*
X114875D01*
X114621*
Y40193*
X114367Y39939*
X116653Y40193D02*
X116145Y39939D01*
X115637Y39431*
Y38924*
X115891Y3867*
X116399*
X116653Y38924*
Y39178*
X116399Y39431*
X115637*
X74856Y37669D02*
Y39193D01*
X75617*
X75871Y38939*
Y38431*
X75617Y38177*
X74856*
X75363D02*
X75871Y37669D01*
X76379D02*
X76887D01*
X76633*
Y39193*
X76379Y38939*
X77649Y39193D02*
X78664D01*
Y38939*
X77649Y37923*
Y37669*
X82499Y53999D02*
Y55523D01*
X83261*
X83515Y55269*
Y54761*
X83261Y54507*
X82499*
X83007D02*
X83515Y53999D01*
X84023D02*
X84531D01*
X84277*
Y55523*
X84023Y55269*
X85293D02*
X85546Y55523D01*
X86054*
X86308Y55269*
Y55015*
X86054Y54761*
X86308Y54507*
Y54253*
X86054Y53999*
X85546*
X85293Y54253*
Y54507*
X85546Y54761*
X85293Y55015*
Y55269*
X85546Y54761D02*
X86054D01*
X114597Y44916D02*
Y4644D01*
X115359*
X115613Y46186*
Y45678*
X115359Y45424*
X114597*
X115105D02*
X115613Y44916D01*
X116121D02*
X116629D01*
X116375*
Y4644*
X116121Y46186*
X117391Y4517D02*
X117644Y44916D01*
X118152*
X118406Y4517*
Y46186*
X118152Y4644*
X117644*
X117391Y46186*
Y45932*
X117644Y45678*
X118406*
X118749Y29749D02*
Y31273D01*
X119511*
X119765Y31019*
Y30511*
X119511Y30257*
X118749*
X119257D02*
X119765Y29749D01*
X121289D02*
X120273D01*
X121289Y30765*
Y31019*
X121035Y31273*
X120527*
X120273Y31019*
X121796D02*
X12205Y31273D01*
X122558*
X122812Y31019*
Y30003*
X122558Y29749*
X12205*
X121796Y30003*
Y31019*
X09905Y94052D02*
Y95575D01*
X10666*
X1092Y95321*
Y94813*
X10666Y94559*
X09905*
X10412D02*
X1092Y94052D01*
X12444D02*
X11428D01*
X12444Y95067*
Y95321*
X1219Y95575*
X11682*
X11428Y95321*
X12952Y94052D02*
X13459D01*
X13206*
Y95575*
X12952Y95321*
X118249Y65249D02*
Y66773D01*
X119011*
X119265Y66519*
Y66011*
X119011Y65757*
X118249*
X118757D02*
X119265Y65249D01*
X120789D02*
X119773D01*
X120789Y66265*
Y66519*
X120535Y66773*
X120027*
X119773Y66519*
X122312Y65249D02*
X121296D01*
X122312Y66265*
Y66519*
X122058Y66773*
X12155*
X121296Y66519*
X124499Y44749D02*
X122976D01*
Y45511*
X12323Y45765*
X123738*
X123992Y45511*
Y44749*
Y45257D02*
X124499Y45765D01*
Y47289D02*
Y46273D01*
X123484Y47289*
X12323*
X122976Y47035*
Y46527*
X12323Y46273*
Y47796D02*
X122976Y4805D01*
Y48558*
X12323Y48812*
X123484*
X123738Y48558*
Y48304*
Y48558*
X123992Y48812*
X124246*
X124499Y48558*
Y4805*
X124246Y47796*
X147347Y98936D02*
Y10046D01*
X148109*
X148363Y100206*
Y99698*
X148109Y99444*
X147347*
X147855D02*
X148363Y98936D01*
X149886D02*
X148871D01*
X149886Y99952*
Y100206*
X149632Y10046*
X149124*
X148871Y100206*
X151156Y98936D02*
Y10046D01*
X150394Y99698*
X15141*
X14735Y88187D02*
Y8971D01*
X148112*
X148366Y89456*
Y88948*
X148112Y88694*
X14735*
X147858D02*
X148366Y88187D01*
X149889D02*
X148873D01*
X149889Y89202*
Y89456*
X149635Y8971*
X149127*
X148873Y89456*
X151413Y8971D02*
X150397D01*
Y88948*
X150905Y89202*
X151159*
X151413Y88948*
Y88441*
X151159Y88187*
X150651*
X150397Y88441*
X133114Y46556D02*
Y4808D01*
X133876*
X13413Y47826*
Y47318*
X133876Y47064*
X133114*
X133622D02*
X13413Y46556D01*
X135654D02*
X134638D01*
X135654Y47572*
Y47826*
X1354Y4808*
X134892*
X134638Y47826*
X137177Y4808D02*
X136669Y47826D01*
X136161Y47318*
Y4681*
X136415Y46556*
X136923*
X137177Y4681*
Y47064*
X136923Y47318*
X136161*
X155358Y20151D02*
Y21675D01*
X15612*
X156374Y21421*
Y20913*
X15612Y20659*
X155358*
X155866D02*
X156374Y20151D01*
X157897D02*
X156882D01*
X157897Y21167*
Y21421*
X157644Y21675*
X157136*
X156882Y21421*
X158405Y21675D02*
X159421D01*
Y21421*
X158405Y20405*
Y20151*
X3349Y47568D02*
Y46552D01*
X33998Y46045*
X34506Y46552*
Y47568*
X35014D02*
Y46045D01*
X35776*
X3603Y46299*
Y47314*
X35776Y47568*
X35014*
X36537Y46045D02*
X37045D01*
X36791*
Y47568*
X36537Y47314*
X84732Y24062D02*
Y23046D01*
X8524Y22538*
X85748Y23046*
Y24062*
X86256D02*
Y22538D01*
X87018*
X87272Y22792*
Y23808*
X87018Y24062*
X86256*
X88795Y22538D02*
X87779D01*
X88795Y23554*
Y23808*
X88541Y24062*
X88033*
X87779Y23808*
X165738Y60499D02*
Y59483D01*
X166246Y58976*
X166754Y59483*
Y60499*
X167262D02*
Y58976D01*
X168023*
X168277Y59229*
Y60245*
X168023Y60499*
X167262*
X168785Y60245D02*
X169039Y60499D01*
X169547*
X169801Y60245*
Y59991*
X169547Y59737*
X169293*
X169547*
X169801Y59483*
Y59229*
X169547Y58976*
X169039*
X168785Y59229*
X165738Y43249D02*
Y42233D01*
X166246Y41726*
X166754Y42233*
Y43249*
X167262D02*
Y41726D01*
X168023*
X168277Y41979*
Y42995*
X168023Y43249*
X167262*
X169547Y41726D02*
Y43249D01*
X168785Y42487*
X169801*
X144805Y71552D02*
Y70537D01*
X145313Y70029*
X145821Y70537*
Y71552*
X146329D02*
Y70029D01*
X14709*
X147344Y70283*
Y71298*
X14709Y71552*
X146329*
X148868D02*
X147852D01*
Y70791*
X14836Y71045*
X148614*
X148868Y70791*
Y70283*
X148614Y70029*
X148106*
X147852Y70283*
X130975Y69553D02*
Y68537D01*
X131483Y68029*
X131991Y68537*
Y69553*
X132499D02*
Y68029D01*
X133261*
X133515Y68283*
Y69299*
X133261Y69553*
X132499*
X135038D02*
X13453Y69299D01*
X134022Y68791*
Y68283*
X134276Y68029*
X134784*
X135038Y68283*
Y68537*
X134784Y68791*
X134022*
X130999Y25273D02*
Y24257D01*
X131507Y23749*
X132015Y24257*
Y25273*
X132523D02*
Y23749D01*
X133285*
X133539Y24003*
Y25019*
X133285Y25273*
X132523*
X134046D02*
X135062D01*
Y25019*
X134046Y24003*
Y23749*
X0686Y68609D02*
Y67594D01*
X07368Y67086*
X07876Y67594*
Y68609*
X08384D02*
X09399D01*
X08892*
Y67086*
X09907D02*
X10415D01*
X10161*
Y68609*
X09907Y68355*
X24608Y54614D02*
Y53598D01*
X25116Y5309*
X25624Y53598*
Y54614*
X26132D02*
X27147D01*
X26639*
Y5309*
X28671D02*
X27655D01*
X28671Y54106*
Y5436*
X28417Y54614*
X27909*
X27655Y5436*
X43943Y33686D02*
Y32671D01*
X4445Y32163*
X44958Y32671*
Y33686*
X45466D02*
X46482D01*
X45974*
Y32163*
X4699Y33432D02*
X47244Y33686D01*
X47752*
X48005Y33432*
Y33179*
X47752Y32925*
X47498*
X47752*
X48005Y32671*
Y32417*
X47752Y32163*
X47244*
X4699Y32417*
X85726Y04999D02*
X86742D01*
X87249Y05507*
X86742Y06015*
X85726*
Y06523D02*
Y07539D01*
Y07031*
X87249*
Y08808D02*
X85726D01*
X86488Y08046*
Y09062*
X90351Y37427D02*
Y36411D01*
X90859Y35903*
X91367Y36411*
Y37427*
X91875D02*
X9289D01*
X92382*
Y35903*
X94414Y37427D02*
X93398D01*
Y36665*
X93906Y36919*
X9416*
X94414Y36665*
Y36157*
X9416Y35903*
X93652*
X93398Y36157*
X99946Y47385D02*
Y46369D01*
X100453Y45862*
X100961Y46369*
Y47385*
X101469D02*
X102485D01*
X101977*
Y45862*
X104008Y47385D02*
X103501Y47131D01*
X102993Y46623*
Y46116*
X103247Y45862*
X103754*
X104008Y46116*
Y46369*
X103754Y46623*
X102993*
X103157Y63589D02*
Y62574D01*
X103665Y62066*
X104173Y62574*
Y63589*
X10468D02*
X105696D01*
X105188*
Y62066*
X106204Y63589D02*
X10722D01*
Y63335*
X106204Y6232*
Y62066*
X121575Y60775D02*
Y59759D01*
X122083Y59251*
X122591Y59759*
Y60775*
X123098D02*
X124114D01*
X123606*
Y59251*
X124622Y60521D02*
X124876Y60775D01*
X125384*
X125638Y60521*
Y60267*
X125384Y60013*
X125638Y59759*
Y59505*
X125384Y59251*
X124876*
X124622Y59505*
Y59759*
X124876Y60013*
X124622Y60267*
Y60521*
X124876Y60013D02*
X125384D01*
X142614Y60834D02*
Y59818D01*
X143122Y5931*
X143629Y59818*
Y60834*
X144137D02*
X145153D01*
X144645*
Y5931*
X145661Y59564D02*
X145915Y5931D01*
X146423*
X146676Y59564*
Y6058*
X146423Y60834*
X145915*
X145661Y6058*
Y60326*
X145915Y60072*
X146676*
X81337Y73446D02*
X82353Y71922D01*
Y73446D02*
X81337Y71922D01*
X82861D02*
Y73446D01*
X83623*
X83876Y73192*
Y72684*
X83623Y7243*
X82861*
X84384Y71922D02*
X84892D01*
X84638*
Y73446*
X84384Y73192*
X06734Y5658D02*
X0775D01*
Y56326*
X06734Y5531*
Y55056*
X0775*
X08258D02*
X08765D01*
X08512*
Y5658*
X08258Y56326*
X54234Y4833D02*
X5525D01*
Y48076*
X54234Y4706*
Y46806*
X5525*
X56773D02*
X55758D01*
X56773Y47822*
Y48076*
X56519Y4833*
X56012*
X55758Y48076*
X67484Y3983D02*
X685D01*
Y39576*
X67484Y3856*
Y38306*
X685*
X69008Y39576D02*
X69262Y3983D01*
X69769*
X70023Y39576*
Y39322*
X69769Y39068*
X69515*
X69769*
X70023Y38814*
Y3856*
X69769Y38306*
X69262*
X69008Y3856*
X50984Y5683D02*
X52D01*
Y56576*
X50984Y5556*
Y55306*
X52*
X53269D02*
Y5683D01*
X52508Y56068*
X53523*
X61734Y6958D02*
X6275D01*
Y69326*
X61734Y6831*
Y68056*
X6275*
X64273Y6958D02*
X63258D01*
Y68818*
X63765Y69072*
X64019*
X64273Y68818*
Y6831*
X64019Y68056*
X63512*
X63258Y6831*
X18472Y65868D02*
X19488D01*
Y65614*
X18472Y64599*
Y64345*
X19488*
X21011Y65868D02*
X20503Y65614D01*
X19995Y65107*
Y64599*
X20249Y64345*
X20757*
X21011Y64599*
Y64853*
X20757Y65107*
X19995*
X27473Y42057D02*
X28489D01*
Y41803*
X27473Y40788*
Y40534*
X28489*
X28996Y42057D02*
X30012D01*
Y41803*
X28996Y40788*
Y40534*
X59484Y2258D02*
X605D01*
Y22326*
X59484Y2131*
Y21056*
X605*
X61008Y22326D02*
X61262Y2258D01*
X61769*
X62023Y22326*
Y22072*
X61769Y21818*
X62023Y21564*
Y2131*
X61769Y21056*
X61262*
X61008Y2131*
Y21564*
X61262Y21818*
X61008Y22072*
Y22326*
X61262Y21818D02*
X61769D01*
X42734Y5233D02*
X4375D01*
Y52076*
X42734Y5106*
Y50806*
X4375*
X44258Y5106D02*
X44512Y50806D01*
X45019*
X45273Y5106*
Y52076*
X45019Y5233*
X44512*
X44258Y52076*
Y51822*
X44512Y51568*
X45273*
X54234Y25337D02*
X5525D01*
Y25083*
X54234Y24067*
Y23813*
X5525*
X55758D02*
X56265D01*
X56012*
Y25337*
X55758Y25083*
X57027D02*
X57281Y25337D01*
X57789*
X58043Y25083*
Y24067*
X57789Y23813*
X57281*
X57027Y24067*
Y25083*
X70484Y1214D02*
X715D01*
Y11886*
X70484Y1087*
Y10616*
X715*
X72008D02*
X72515D01*
X72262*
Y1214*
X72008Y11886*
X73277Y10616D02*
X73785D01*
X73531*
Y1214*
X73277Y11886*
X62484Y1214D02*
X635D01*
Y11886*
X62484Y1087*
Y10616*
X635*
X64008D02*
X64516D01*
X64262*
Y1214*
X64008Y11886*
X66293Y10616D02*
X65277D01*
X66293Y11632*
Y11886*
X66039Y1214*
X65531*
X65277Y11886*
X77984Y1833D02*
X79D01*
Y18076*
X77984Y1706*
Y16806*
X79*
X79508D02*
X80015D01*
X79762*
Y1833*
X79508Y18076*
X80777D02*
X81031Y1833D01*
X81539*
X81793Y18076*
Y17822*
X81539Y17568*
X81285*
X81539*
X81793Y17314*
Y1706*
X81539Y16806*
X81031*
X80777Y1706*
X95234Y1214D02*
X9625D01*
Y11886*
X95234Y1087*
Y10616*
X9625*
X96758D02*
X97265D01*
X97012*
Y1214*
X96758Y11886*
X98789Y10616D02*
Y1214D01*
X98027Y11378*
X99043*
X101984Y1164D02*
X103D01*
Y11386*
X101984Y1037*
Y10116*
X103*
X103508D02*
X104015D01*
X103762*
Y1164*
X103508Y11386*
X105793Y1164D02*
X104777D01*
Y10878*
X105285Y11132*
X105539*
X105793Y10878*
Y1037*
X105539Y10116*
X105031*
X104777Y1037*
X106215Y28818D02*
X107231D01*
Y28564*
X106215Y27548*
Y27294*
X107231*
X107739D02*
X108247D01*
X107993*
Y28818*
X107739Y28564*
X110024Y28818D02*
X109516Y28564D01*
X109009Y28056*
Y27548*
X109262Y27294*
X10977*
X110024Y27548*
Y27802*
X10977Y28056*
X109009*
X105749Y15773D02*
X106765D01*
Y15519*
X105749Y14503*
Y14249*
X106765*
X107273D02*
X107781D01*
X107527*
Y15773*
X107273Y15519*
X108543Y15773D02*
X109558D01*
Y15519*
X108543Y14503*
Y14249*
X107234Y4808D02*
X10825D01*
Y47826*
X107234Y4681*
Y46556*
X10825*
X108758D02*
X109265D01*
X109012*
Y4808*
X108758Y47826*
X110027D02*
X110281Y4808D01*
X110789*
X111043Y47826*
Y47572*
X110789Y47318*
X111043Y47064*
Y4681*
X110789Y46556*
X110281*
X110027Y4681*
Y47064*
X110281Y47318*
X110027Y47572*
Y47826*
X110281Y47318D02*
X110789D01*
X110476Y48749D02*
Y49765D01*
X11073*
X111746Y48749*
X111999*
Y49765*
Y50273D02*
Y50781D01*
Y50527*
X110476*
X11073Y50273*
X111746Y51543D02*
X111999Y51796D01*
Y52304*
X111746Y52558*
X11073*
X110476Y52304*
Y51796*
X11073Y51543*
X110984*
X111238Y51796*
Y52558*
X123976Y37249D02*
Y38265D01*
X12423*
X125246Y37249*
X125499*
Y38265*
Y39789D02*
Y38773D01*
X124484Y39789*
X12423*
X123976Y39535*
Y39027*
X12423Y38773*
Y40296D02*
X123976Y4055D01*
Y41058*
X12423Y41312*
X125246*
X125499Y41058*
Y4055*
X125246Y40296*
X12423*
X102226Y50249D02*
Y51265D01*
X10248*
X103496Y50249*
X103749*
Y51265*
Y52789D02*
Y51773D01*
X102734Y52789*
X10248*
X102226Y52535*
Y52027*
X10248Y51773*
X103749Y53296D02*
Y53804D01*
Y5355*
X102226*
X10248Y53296*
X129234Y5533D02*
X13025D01*
Y55076*
X129234Y5406*
Y53806*
X13025*
X131773D02*
X130758D01*
X131773Y54822*
Y55076*
X131519Y5533*
X131012*
X130758Y55076*
X133297Y53806D02*
X132281D01*
X133297Y54822*
Y55076*
X133043Y5533*
X132535*
X132281Y55076*
X123234Y6933D02*
X12425D01*
Y69076*
X123234Y6806*
Y67806*
X12425*
X125773D02*
X124758D01*
X125773Y68822*
Y69076*
X125519Y6933*
X125012*
X124758Y69076*
X126281D02*
X126535Y6933D01*
X127043*
X127297Y69076*
Y68822*
X127043Y68568*
X126789*
X127043*
X127297Y68314*
Y6806*
X127043Y67806*
X126535*
X126281Y6806*
X143274Y2008D02*
X14429D01*
Y19826*
X143274Y1881*
Y18556*
X14429*
X145813D02*
X144798D01*
X145813Y19572*
Y19826*
X145559Y2008*
X145052*
X144798Y19826*
X147083Y18556D02*
Y2008D01*
X146321Y19318*
X147337*
X135734Y2008D02*
X13675D01*
Y19826*
X135734Y1881*
Y18556*
X13675*
X138273D02*
X137258D01*
X138273Y19572*
Y19826*
X138019Y2008*
X137512*
X137258Y19826*
X139797Y2008D02*
X138781D01*
Y19318*
X139289Y19572*
X139543*
X139797Y19318*
Y1881*
X139543Y18556*
X139035*
X138781Y1881*
G54D20*
X115299Y59549D02*
X117699D01*
X115299Y61949D02*
X117699D01*
X120299Y33799D02*
Y36199D01*
X122699Y33799D02*
Y36199D01*
X127049Y44549D02*
X129449D01*
X127049Y46949D02*
X129449D01*
X157699Y17699D02*
Y15299D01*
X155299D02*
Y17699D01*
X112799Y33799D02*
Y36199D01*
X115199Y33799D02*
Y36199D01*
X98049Y17699D02*
Y15299D01*
X100449D02*
Y17699D01*
X83199Y24199D02*
Y21799D01*
X80799D02*
Y24199D01*
X40699Y55449D02*
Y53049D01*
X38299D02*
Y55449D01*
X57949Y36699D02*
Y34299D01*
X55549D02*
Y36699D01*
X135449Y4408D02*
Y4168D01*
X133049D02*
Y4408D01*
X16449Y64949D02*
Y62549D01*
X14049D02*
Y64949D01*
X109699Y36199D02*
Y33799D01*
X107299D02*
Y36199D01*
X99549Y25699D02*
X101949D01*
X99549Y23299D02*
X101949D01*
X75299Y19549D02*
X77699D01*
X75299Y21949D02*
X77699D01*
X32549Y55449D02*
Y53049D01*
X34949D02*
Y55449D01*
X54199Y31949D02*
Y29549D01*
X51799D02*
Y31949D01*
X116049Y41549D02*
X118449D01*
X116049Y43949D02*
X118449D01*
X16249Y57649D02*
X18649D01*
X16249Y55249D02*
X18649D01*
X47299Y16199D02*
X49699D01*
X47299Y13799D02*
X49699D01*
X72049Y13299D02*
X74449D01*
X72049Y15699D02*
X74449D01*
X76299Y34299D02*
X78699D01*
X76299Y36699D02*
X78699D01*
X62199Y28949D02*
Y26549D01*
X59799D02*
Y28949D01*
X1105Y65166D02*
X110666Y64833D01*
X111Y64499*
X111333*
X111499Y64666*
Y64999*
X111333Y65166*
X111166*
X111Y64999*
Y64499*
X1105Y66166D02*
Y65499D01*
X111*
X110833Y65832*
Y65999*
X111Y66166*
X111333*
X111499Y65999*
Y65666*
X111333Y65499*
X1065Y65166D02*
Y64499D01*
X107*
X106833Y64833*
Y64999*
X107Y65166*
X107333*
X107499Y64999*
Y64666*
X107333Y64499*
Y65499D02*
X107499Y65666D01*
Y65999*
X107333Y66166*
X106666*
X1065Y65999*
Y65666*
X106666Y65499*
X106833*
X107Y65666*
Y66166*
X104Y64666D02*
Y63999D01*
X1045*
X104333Y64333*
Y64499*
X1045Y64666*
X104833*
X104999Y64499*
Y64166*
X104833Y63999*
X104Y64999D02*
Y65666D01*
X104166*
X104833Y64999*
X104999*
X98999Y64499D02*
X98D01*
X985Y63999*
Y64666*
X98Y65666D02*
Y64999D01*
X985*
X98333Y65332*
Y65499*
X985Y65666*
X98833*
X98999Y65499*
Y65166*
X98833Y64999*
X1015Y64666D02*
Y63999D01*
X102*
X101833Y64333*
Y64499*
X102Y64666*
X102333*
X102499Y64499*
Y64166*
X102333Y63999*
X1015Y65666D02*
Y64999D01*
X102*
X101833Y65332*
Y65499*
X102Y65666*
X102333*
X102499Y65499*
Y65166*
X102333Y64999*
X96499Y64499D02*
X955D01*
X96Y63999*
Y64666*
X95666Y64999D02*
X955Y65166D01*
Y65499*
X95666Y65666*
X95833*
X96Y65499*
Y65332*
Y65499*
X96166Y65666*
X96333*
X96499Y65499*
Y65166*
X96333Y64999*
X92Y64666D02*
X92166Y64333D01*
X925Y63999*
X92833*
X92999Y64166*
Y64499*
X92833Y64666*
X92666*
X925Y64499*
Y63999*
X92166Y64999D02*
X92Y65166D01*
Y65499*
X92166Y65666*
X92833*
X92999Y65499*
Y65166*
X92833Y64999*
X92166*
X89999Y64666D02*
Y63999D01*
X89333Y64666*
X89166*
X89Y64499*
Y64166*
X89166Y63999*
Y64999D02*
X89Y65166D01*
Y65499*
X89166Y65666*
X89833*
X89999Y65499*
Y65166*
X89833Y64999*
X89166*
X87499Y64666D02*
Y63999D01*
X86833Y64666*
X86666*
X865Y64499*
Y64166*
X86666Y63999*
X87333Y64999D02*
X87499Y65166D01*
Y65499*
X87333Y65666*
X86666*
X865Y65499*
Y65166*
X86666Y64999*
X86833*
X87Y65166*
Y65666*
X83166Y63999D02*
X83Y64166D01*
Y64499*
X83166Y64666*
X83333*
X835Y64499*
Y64333*
Y64499*
X83666Y64666*
X83833*
X83999Y64499*
Y64166*
X83833Y63999*
X83166Y64999D02*
X83Y65166D01*
Y65499*
X83166Y65666*
X83833*
X83999Y65499*
Y65166*
X83833Y64999*
X83166*
X79332Y09972D02*
Y10638D01*
X78332*
Y09972*
X78832Y10638D02*
Y10305D01*
X79332Y04923D02*
X78332D01*
Y04424*
X78499Y04257*
X78666*
X78832Y04424*
Y04923*
Y04424*
X78999Y04257*
X79166*
X79332Y04424*
Y04923*
X126667Y52027D02*
Y5136D01*
X127666*
Y52027*
X127167Y5136D02*
Y51694D01*
X126667Y57075D02*
X127666D01*
Y57575*
X1275Y57742*
X127333*
X127167Y57575*
Y57075*
Y57575*
X127Y57742*
X126833*
X126667Y57575*
Y57075*
X109135Y56332D02*
Y55332D01*
X109635*
X109802Y55499*
Y55666*
X109635Y55832*
X109135*
X109635*
X109802Y55999*
Y56166*
X109635Y56332*
X109135*
X104087D02*
X10342D01*
Y55332*
X104087*
X10342Y55832D02*
X103754D01*
X104667Y38777D02*
Y3811D01*
X105666*
Y38777*
X105167Y3811D02*
Y38444D01*
X104667Y43825D02*
X105666D01*
Y44325*
X1055Y44492*
X105333*
X105167Y44325*
Y43825*
Y44325*
X105Y44492*
X104833*
X104667Y44325*
Y43825*
X89832Y28923D02*
X88832D01*
Y28424*
X88999Y28257*
X89166*
X89332Y28424*
Y28923*
Y28424*
X89499Y28257*
X89666*
X89832Y28424*
Y28923*
Y33972D02*
Y34638D01*
X88832*
Y33972*
X89332Y34638D02*
Y34305D01*
X48667Y30135D02*
X49666D01*
Y30635*
X495Y30802*
X49333*
X49167Y30635*
Y30135*
Y30635*
X49Y30802*
X48833*
X48667Y30635*
Y30135*
Y25087D02*
Y2442D01*
X49666*
Y25087*
X49167Y2442D02*
Y24754D01*
X24082Y51162D02*
Y51828D01*
X23082*
Y51162*
X23582Y51828D02*
Y51495D01*
X24082Y46113D02*
X23082D01*
Y45614*
X23249Y45447*
X23416*
X23582Y45614*
Y46113*
Y45614*
X23749Y45447*
X23916*
X24082Y45614*
Y46113*
X06332Y60113D02*
X05332D01*
Y59614*
X05499Y59447*
X05666*
X05832Y59614*
Y60113*
Y59614*
X05999Y59447*
X06166*
X06332Y59614*
Y60113*
Y65162D02*
Y65828D01*
X05332*
Y65162*
X05832Y65828D02*
Y65495D01*
G54D21*
X7992Y10384D03*
X126079Y51614D03*
X104079Y38364D03*
X9042Y34384D03*
X48079Y24674D03*
X2467Y51574D03*
X0692Y65574D03*
G54D22*
X103674Y5692D03*
M02*