%FSTAX23Y23*%
%MOMM*%
%SFA1B1*%

%IPPOS*%
%ADD25C,2.203196*%
%ADD26R,1.803196X1.803196*%
%ADD27C,0.203200*%
%ADD28C,2.403195*%
%ADD29C,1.803196*%
%ADD30R,1.803196X1.803196*%
%ADD31O,2.203196X3.003194*%
%LNpcbbyb2aver3-1*%
%LPD*%
G54D25*
X81143Y59122D03*
X9905D03*
X11463Y50499D03*
X106499Y50999D03*
X127999Y39249D03*
X28656Y81749D03*
X10749D03*
X107249Y18749D03*
X103749Y07309D03*
X69249Y35499D03*
X55999Y43999D03*
X96999Y07809D03*
X44499Y47999D03*
X55999Y21006D03*
X108999Y43749D03*
X145039Y15749D03*
X72249Y07809D03*
X130999Y50999D03*
X20249Y61549D03*
X137499Y15749D03*
X64249Y07809D03*
X107999Y24499D03*
X79749Y13999D03*
X124999Y64999D03*
X29249Y37749D03*
X08499Y52249D03*
X10749Y90999D03*
X28656D03*
X166105Y95626D03*
X148198D03*
X83749Y68499D03*
X86749D03*
X92749D03*
X89749D03*
X101749D03*
X104749D03*
X98749D03*
X95749D03*
X107749D03*
X1108D03*
X166105Y84876D03*
X148198D03*
X635Y65249D03*
X52749Y52499D03*
X61249Y18249D03*
G54D26*
X171499Y07499D03*
X07499D03*
X104309Y57999D03*
G54D27*
X150749Y52999D03*
G54D28*
X137499Y31499D03*
X129499D03*
X93999Y16249D03*
X85999D03*
X167249Y29749D03*
Y39749D03*
X38749Y43749D03*
Y35749D03*
X167249Y46999D03*
Y56999D03*
X136249Y57749D03*
Y65749D03*
X155749Y67749D03*
X145749D03*
G54D29*
X80999Y04869D03*
Y07309D03*
X124999Y57129D03*
Y54689D03*
X106749Y57999D03*
X109189D03*
X102999Y43879D03*
Y41439D03*
X91499Y31309D03*
Y28869D03*
X46999Y27749D03*
Y30189D03*
X25749Y46059D03*
Y48499D03*
X07999Y62499D03*
Y60059D03*
X93999Y39499D03*
Y45879D03*
X165249Y20289D03*
Y17749D03*
X65499Y20749D03*
X71879D03*
X68129Y57249D03*
X61749D03*
X56499Y66249D03*
X45249Y66499D03*
X102499Y72249D03*
X116499Y63249D03*
X144499Y40499D03*
X138749Y40749D03*
X113249Y63249D03*
X119249Y57999D03*
X120499Y39499D03*
X98749Y52249D03*
X103249Y14749D03*
X87249Y19499D03*
X9525Y49749D03*
X73499Y39499D03*
X82249Y35749D03*
X81999Y29249D03*
X60999Y37749D03*
X108499Y30749D03*
X44499Y56499D03*
X22499Y57499D03*
G54D30*
X80999Y09749D03*
X124999Y52249D03*
X102999Y38999D03*
X91499Y33749D03*
X46999Y25309D03*
X25749Y50939D03*
X07999Y64939D03*
G54D31*
X155959Y24499D03*
X150499D03*
X145039D03*
M02*