%FSTAX24Y24*%
%MOIN*%
%SFA1B1*%

%IPPOS*%
%ADD28C,0.010000*%
%ADD29C,0.023600*%
%ADD30C,0.009800*%
%ADD31C,0.007900*%
%ADD32R,0.065000X0.025000*%
%ADD33R,0.045000X0.025000*%
%ADD34R,0.040000X0.035000*%
%LNpcb181216ver1-1*%
%LPD*%
G54D28*
X027941Y014122D02*
D01*
X027938Y014195*
X02793Y014268*
X027918Y01434*
X0279Y014411*
X027877Y014481*
X02785Y014549*
X027817Y014615*
X027781Y014678*
X02774Y014739*
X027695Y014797*
X027646Y014852*
X027593Y014903*
X027537Y01495*
X027477Y014993*
X027415Y015032*
X02735Y015066*
X027283Y015096*
X027214Y015121*
X027144Y015141*
X027072Y015157*
X026999Y015167*
X026926Y015172*
X026853*
X02678Y015167*
X026707Y015157*
X026635Y015141*
X026565Y015121*
X026496Y015096*
X026429Y015066*
X026364Y015032*
X026302Y014993*
X026242Y01495*
X026186Y014903*
X026133Y014852*
X026084Y014797*
X026039Y014739*
X025998Y014678*
X025962Y014615*
X025929Y014549*
X025902Y014481*
X025879Y014411*
X025861Y01434*
X025849Y014268*
X025841Y014195*
X025839Y014122*
X025841Y014048*
X025849Y013975*
X025861Y013903*
X025879Y013832*
X025902Y013762*
X025929Y013694*
X025962Y013628*
X025998Y013565*
X026039Y013504*
X026084Y013446*
X026133Y013391*
X026186Y01334*
X026242Y013293*
X026302Y01325*
X026364Y013211*
X026429Y013177*
X026496Y013147*
X026565Y013122*
X026635Y013102*
X026707Y013086*
X02678Y013076*
X026853Y013071*
X026926*
X026999Y013076*
X027072Y013086*
X027144Y013102*
X027214Y013122*
X027283Y013147*
X02735Y013177*
X027415Y013211*
X027477Y01325*
X027537Y013293*
X027593Y01334*
X027646Y013391*
X027695Y013446*
X02774Y013504*
X027781Y013565*
X027817Y013628*
X02785Y013694*
X027877Y013762*
X0279Y013832*
X027918Y013903*
X02793Y013975*
X027938Y014048*
X027941Y014122*
X008128Y018823D02*
D01*
X008123Y018749*
X008124Y018675*
X00813Y018602*
X008141Y018529*
X008157Y018457*
X008178Y018387*
X008203Y018318*
X008234Y018251*
X008269Y018186*
X008309Y018124*
X008353Y018065*
X008401Y018009*
X008452Y017957*
X008507Y017908*
X008566Y017863*
X008627Y017823*
X008691Y017786*
X008758Y017755*
X008826Y017728*
X008897Y017706*
X008968Y017689*
X009041Y017677*
X009078Y017673*
X008978Y017669D02*
D01*
X009055Y017671*
X009131Y017679*
X009207Y017693*
X009282Y017711*
X009355Y017735*
X009427Y017764*
X009496Y017798*
X009563Y017836*
X009627Y01788*
X009688Y017927*
X009745Y017979*
X009799Y018034*
X009848Y018093*
X009894Y018156*
X009934Y018221*
X009971Y018289*
X010002Y01836*
X010028Y018432*
X01005Y018506*
X010066Y018582*
X010076Y018658*
X010082Y018735*
Y018812*
X010078Y018873*
Y020823D02*
D01*
X010082Y020899*
X010081Y020977*
X010074Y021053*
X010062Y02113*
X010045Y021205*
X010023Y021279*
X009996Y021351*
X009963Y021421*
X009926Y021488*
X009884Y021553*
X009838Y021615*
X009788Y021673*
X009734Y021728*
X009676Y021779*
X009614Y021825*
X00955Y021867*
X009482Y021905*
X009413Y021938*
X009341Y021966*
X009267Y021988*
X009192Y022006*
X009116Y022018*
X009039Y022025*
X008978Y022028*
X009078Y022023D02*
D01*
X009004Y022013*
X008932Y021998*
X008861Y021979*
X008792Y021954*
X008724Y021925*
X008659Y021891*
X008596Y021853*
X008536Y02181*
X008479Y021763*
X008426Y021713*
X008376Y021658*
X00833Y021601*
X008289Y02154*
X008251Y021477*
X008218Y021411*
X00819Y021343*
X008166Y021273*
X008148Y021202*
X008134Y021129*
X008126Y021056*
X008123Y020983*
X008125Y020909*
X008128Y020873*
X022879Y01191D02*
D01*
X022876Y011983*
X022868Y012056*
X022856Y012128*
X022838Y012199*
X022815Y012269*
X022788Y012337*
X022755Y012403*
X022719Y012466*
X022678Y012527*
X022633Y012585*
X022584Y01264*
X022531Y012691*
X022475Y012738*
X022415Y012781*
X022353Y01282*
X022288Y012854*
X022221Y012884*
X022152Y012909*
X022082Y012929*
X02201Y012945*
X021937Y012955*
X021864Y01296*
X021791*
X021718Y012955*
X021645Y012945*
X021573Y012929*
X021503Y012909*
X021434Y012884*
X021367Y012854*
X021302Y01282*
X02124Y012781*
X02118Y012738*
X021124Y012691*
X021071Y01264*
X021022Y012585*
X020977Y012527*
X020936Y012466*
X0209Y012403*
X020867Y012337*
X02084Y012269*
X020817Y012199*
X020799Y012128*
X020787Y012056*
X020779Y011983*
X020777Y01191*
X020779Y011836*
X020787Y011763*
X020799Y011691*
X020817Y01162*
X02084Y01155*
X020867Y011482*
X0209Y011416*
X020936Y011353*
X020977Y011292*
X021022Y011234*
X021071Y011179*
X021124Y011128*
X02118Y011081*
X02124Y011038*
X021302Y010999*
X021367Y010965*
X021434Y010935*
X021503Y01091*
X021573Y01089*
X021645Y010874*
X021718Y010864*
X021791Y010859*
X021864*
X021937Y010864*
X02201Y010874*
X022082Y01089*
X022152Y01091*
X022221Y010935*
X022288Y010965*
X022353Y010999*
X022415Y011038*
X022475Y011081*
X022531Y011128*
X022584Y011179*
X022633Y011234*
X022678Y011292*
X022719Y011353*
X022755Y011416*
X022788Y011482*
X022815Y01155*
X022838Y01162*
X022856Y011691*
X022868Y011763*
X022876Y011836*
X022879Y01191*
Y015273D02*
D01*
X022876Y015346*
X022868Y015419*
X022856Y015491*
X022838Y015562*
X022815Y015632*
X022788Y0157*
X022755Y015766*
X022719Y015829*
X022678Y01589*
X022633Y015948*
X022584Y016003*
X022531Y016054*
X022475Y016101*
X022415Y016144*
X022353Y016183*
X022288Y016217*
X022221Y016247*
X022152Y016272*
X022082Y016292*
X02201Y016308*
X021937Y016318*
X021864Y016323*
X021791*
X021718Y016318*
X021645Y016308*
X021573Y016292*
X021503Y016272*
X021434Y016247*
X021367Y016217*
X021302Y016183*
X02124Y016144*
X02118Y016101*
X021124Y016054*
X021071Y016003*
X021022Y015948*
X020977Y01589*
X020936Y015829*
X0209Y015766*
X020867Y0157*
X02084Y015632*
X020817Y015562*
X020799Y015491*
X020787Y015419*
X020779Y015346*
X020777Y015273*
X020779Y015199*
X020787Y015126*
X020799Y015054*
X020817Y014983*
X02084Y014913*
X020867Y014845*
X0209Y014779*
X020936Y014716*
X020977Y014655*
X021022Y014597*
X021071Y014542*
X021124Y014491*
X02118Y014444*
X02124Y014401*
X021302Y014362*
X021367Y014328*
X021434Y014298*
X021503Y014273*
X021573Y014253*
X021645Y014237*
X021718Y014227*
X021791Y014222*
X021864*
X021937Y014227*
X02201Y014237*
X022082Y014253*
X022152Y014273*
X022221Y014298*
X022288Y014328*
X022353Y014362*
X022415Y014401*
X022475Y014444*
X022531Y014491*
X022584Y014542*
X022633Y014597*
X022678Y014655*
X022719Y014716*
X022755Y014779*
X022788Y014845*
X022815Y014913*
X022838Y014983*
X022856Y015054*
X022868Y015126*
X022876Y015199*
X022879Y015273*
Y018623D02*
D01*
X022876Y018696*
X022868Y018769*
X022856Y018841*
X022838Y018912*
X022815Y018982*
X022788Y01905*
X022755Y019116*
X022719Y019179*
X022678Y01924*
X022633Y019298*
X022584Y019353*
X022531Y019404*
X022475Y019451*
X022415Y019494*
X022353Y019533*
X022288Y019567*
X022221Y019597*
X022152Y019622*
X022082Y019642*
X02201Y019658*
X021937Y019668*
X021864Y019673*
X021791*
X021718Y019668*
X021645Y019658*
X021573Y019642*
X021503Y019622*
X021434Y019597*
X021367Y019567*
X021302Y019533*
X02124Y019494*
X02118Y019451*
X021124Y019404*
X021071Y019353*
X021022Y019298*
X020977Y01924*
X020936Y019179*
X0209Y019116*
X020867Y01905*
X02084Y018982*
X020817Y018912*
X020799Y018841*
X020787Y018769*
X020779Y018696*
X020777Y018623*
X020779Y018549*
X020787Y018476*
X020799Y018404*
X020817Y018333*
X02084Y018263*
X020867Y018195*
X0209Y018129*
X020936Y018066*
X020977Y018005*
X021022Y017947*
X021071Y017892*
X021124Y017841*
X02118Y017794*
X02124Y017751*
X021302Y017712*
X021367Y017678*
X021434Y017648*
X021503Y017623*
X021573Y017603*
X021645Y017587*
X021718Y017577*
X021791Y017572*
X021864*
X021937Y017577*
X02201Y017587*
X022082Y017603*
X022152Y017623*
X022221Y017648*
X022288Y017678*
X022353Y017712*
X022415Y017751*
X022475Y017794*
X022531Y017841*
X022584Y017892*
X022633Y017947*
X022678Y018005*
X022719Y018066*
X022755Y018129*
X022788Y018195*
X022815Y018263*
X022838Y018333*
X022856Y018404*
X022868Y018476*
X022876Y018549*
X022879Y018623*
X010928Y006323D02*
D01*
X010915Y006671*
X010879Y007018*
X010818Y007362*
X010734Y007701*
X010626Y008033*
X010495Y008356*
X010342Y00867*
X010168Y008972*
X009973Y009261*
X009758Y009536*
X009524Y009796*
X009273Y010038*
X009006Y010263*
X008723Y010468*
X008428Y010653*
X008119Y010816*
X007801Y010958*
X007473Y011078*
X007137Y011174*
X006796Y011247*
X00645Y011295*
X006102Y011319*
X005753*
X005405Y011295*
X005059Y011247*
X004718Y011174*
X004382Y011078*
X004054Y010958*
X003736Y010816*
X003427Y010653*
X003132Y010468*
X002849Y010263*
X002582Y010038*
X002331Y009796*
X002097Y009536*
X001882Y009261*
X001687Y008972*
X001513Y00867*
X00136Y008356*
X001229Y008033*
X001121Y007701*
X001037Y007362*
X000976Y007018*
X00094Y006671*
X000928Y006323*
X00094Y005974*
X000976Y005627*
X001037Y005283*
X001121Y004944*
X001229Y004612*
X00136Y004289*
X001513Y003975*
X001687Y003673*
X001882Y003384*
X002097Y003109*
X002331Y002849*
X002582Y002607*
X002849Y002382*
X003132Y002177*
X003428Y001992*
X003736Y001829*
X004054Y001687*
X004382Y001567*
X004718Y001471*
X005059Y001398*
X005405Y00135*
X005753Y001326*
X006102*
X00645Y00135*
X006796Y001398*
X007137Y001471*
X007473Y001567*
X007801Y001687*
X008119Y001829*
X008428Y001992*
X008723Y002177*
X009006Y002382*
X009273Y002607*
X009524Y002849*
X009758Y003109*
X009973Y003384*
X010168Y003673*
X010342Y003975*
X010495Y004289*
X010626Y004612*
X010734Y004944*
X010818Y005283*
X010879Y005627*
X010915Y005974*
X010928Y006323*
X023628Y023523D02*
X025728D01*
Y021673D02*
Y023523D01*
X022428Y021673D02*
X025728D01*
X022428D02*
Y023523D01*
X023628*
X033678D02*
X035778D01*
Y021673D02*
Y023523D01*
X032478Y021673D02*
X035778D01*
X032478D02*
Y023523D01*
X033678*
X010609Y026242D02*
Y027423D01*
Y028604*
X008247Y026242D02*
X009428D01*
X010609*
X008247Y027423D02*
Y028604D01*
Y027423D02*
Y026242D01*
Y028604D02*
X009428D01*
X010609*
X016647Y027423D02*
Y028604D01*
Y026242D02*
Y027423D01*
X017828Y028604D02*
X019009D01*
X016647D02*
X017828D01*
X019009Y026242D02*
Y027423D01*
Y028604D02*
Y027423D01*
X017828Y026242D02*
X019009D01*
X016647D02*
X017828D01*
X028778Y023523D02*
X030878D01*
Y021673D02*
Y023523D01*
X027578Y021673D02*
X030878D01*
X027578D02*
Y023523D01*
X028778*
X02594Y014522D02*
X02649D01*
X02724Y014572D02*
X02779D01*
X02764Y014822D02*
Y014572D01*
X02739Y014622D02*
Y015022D01*
X02714Y014922D02*
Y015122D01*
X02689Y015022D02*
Y015173D01*
X02664Y014922D02*
Y015072D01*
X02639Y014972D02*
Y014522D01*
X02614D02*
Y014772D01*
X008128Y018823D02*
Y020823D01*
X010078Y018873D02*
Y020873D01*
X022228Y01231D02*
Y01286D01*
X022278Y01101D02*
Y01156D01*
Y01116D02*
X022528D01*
X022328Y01141D02*
X022728D01*
X022628Y01166D02*
X022828D01*
X022728Y01191D02*
X022879D01*
X022628Y01216D02*
X022778D01*
X022228Y01241D02*
X022678D01*
X022228Y01266D02*
X022478D01*
X022228Y015673D02*
Y016223D01*
X022278Y014373D02*
Y014923D01*
Y014523D02*
X022528D01*
X022328Y014773D02*
X022728D01*
X022628Y015023D02*
X022828D01*
X022728Y015273D02*
X022879D01*
X022628Y015523D02*
X022778D01*
X022228Y015773D02*
X022678D01*
X022228Y016023D02*
X022478D01*
X022228Y019023D02*
Y019573D01*
X022278Y017723D02*
Y018273D01*
Y017873D02*
X022528D01*
X022328Y018123D02*
X022728D01*
X022628Y018373D02*
X022828D01*
X022728Y018623D02*
X022879D01*
X022628Y018873D02*
X022778D01*
X022228Y019123D02*
X022678D01*
X022228Y019373D02*
X022478D01*
X027578Y007523D02*
Y009123D01*
X025278D02*
X027578D01*
X025278Y007523D02*
Y009123D01*
Y007523D02*
X027578D01*
X005978Y011573D02*
Y012573D01*
X005428Y012073D02*
X006578D01*
X007178Y011173D02*
Y012923D01*
X004928D02*
X007178D01*
X004928Y011223D02*
Y012923D01*
X024028Y007523D02*
Y009123D01*
X021728D02*
X024028D01*
X021728Y007523D02*
Y009123D01*
Y007523D02*
X024028D01*
X009628Y014923D02*
Y016373D01*
X007128D02*
X009628D01*
X007128Y014923D02*
Y016373D01*
Y014923D02*
X009628D01*
X029978Y011023D02*
X030228Y010773D01*
X035478*
Y016323*
X030228D02*
X035478D01*
X029978Y016073D02*
X030228Y016323D01*
X029978Y016023D02*
Y016073D01*
Y011023D02*
Y016023D01*
X006232Y018864D02*
X006132Y018764D01*
Y018565*
X006232Y018465*
X006632*
X006732Y018565*
Y018764*
X006632Y018864*
X006732Y019064D02*
Y019264D01*
Y019164*
X006132*
X006232Y019064*
X006193Y020203D02*
X006093Y020103D01*
Y019903*
X006193Y019803*
X006593*
X006693Y019903*
Y020103*
X006593Y020203*
X006693Y020803D02*
Y020403D01*
X006293Y020803*
X006193*
X006093Y020703*
Y020503*
X006193Y020403*
X014697Y015085D02*
X014597Y014985D01*
Y014785*
X014697Y014685*
X015097*
X015197Y014785*
Y014985*
X015097Y015085*
X014697Y015285D02*
X014597Y015385D01*
Y015585*
X014697Y015685*
X014797*
X014897Y015585*
Y015485*
Y015585*
X014997Y015685*
X015097*
X015197Y015585*
Y015385*
X015097Y015285*
X018928Y019773D02*
X018828Y019673D01*
Y019473*
X018928Y019373*
X019328*
X019428Y019473*
Y019673*
X019328Y019773*
X019428Y020273D02*
X018828D01*
X019128Y019973*
Y020373*
X011378Y023473D02*
Y022873D01*
X011678*
X011778Y022973*
Y023373*
X011678Y023473*
X011378*
X011978D02*
Y022873D01*
X012278*
X012378Y022973*
Y023373*
X012278Y023473*
X011978*
X012578Y022873D02*
X012778D01*
X012678*
Y023473*
X012578Y023373*
X010697Y009323D02*
X011297D01*
Y009623*
X011197Y009723*
X010797*
X010697Y009623*
Y009323*
Y009923D02*
X011297D01*
Y010223*
X011197Y010323*
X010797*
X010697Y010223*
Y009923*
X011297Y010923D02*
Y010523D01*
X010897Y010923*
X010797*
X010697Y010823*
Y010623*
X010797Y010523*
X001373Y013778D02*
X001273Y013878D01*
X001073*
X000973Y013778*
Y013378*
X001073Y013278*
X001273*
X001373Y013378*
Y013578*
X001173*
X001573Y013878D02*
Y013278D01*
X001873*
X001973Y013378*
Y013478*
X001873Y013578*
X001573*
X001873*
X001973Y013678*
Y013778*
X001873Y013878*
X001573*
X002173Y013278D02*
X002373D01*
X002273*
Y013878*
X002173Y013778*
X020823Y020628D02*
Y020028D01*
Y020328*
X021223*
Y020628*
Y020028*
X021423Y020628D02*
Y020028D01*
X021823*
X022023D02*
X022222D01*
X022123*
Y020628*
X022023Y020528*
X020823Y017278D02*
Y016678D01*
Y016978*
X021223*
Y017278*
Y016678*
X021423Y017278D02*
Y016678D01*
X021823*
X022422D02*
X022023D01*
X022422Y017078*
Y017178*
X022322Y017278*
X022123*
X022023Y017178*
X020823Y013915D02*
Y013315D01*
Y013615*
X021223*
Y013915*
Y013315*
X021423Y013915D02*
Y013315D01*
X021823*
X022023Y013815D02*
X022123Y013915D01*
X022322*
X022422Y013815*
Y013715*
X022322Y013615*
X022222*
X022322*
X022422Y013515*
Y013415*
X022322Y013315*
X022123*
X022023Y013415*
X025893Y016126D02*
Y015526D01*
Y015826*
X026293*
Y016126*
Y015526*
X026493Y016126D02*
Y015526D01*
X026893*
X027392D02*
Y016126D01*
X027093Y015826*
X027492*
X010599Y015341D02*
X009999D01*
Y01564*
X010099Y01574*
X010299*
X010399Y01564*
Y015341*
Y01554D02*
X010599Y01574D01*
Y01594D02*
Y01614D01*
Y01604*
X009999*
X010099Y01594*
X020668Y024023D02*
Y024623D01*
X020968*
X021068Y024523*
Y024323*
X020968Y024223*
X020668*
X020868D02*
X021068Y024023D01*
X021668D02*
X021268D01*
X021668Y024423*
Y024523*
X021568Y024623*
X021368*
X021268Y024523*
X026968Y020473D02*
Y021073D01*
X027268*
X027368Y020973*
Y020773*
X027268Y020673*
X026968*
X027168D02*
X027368Y020473D01*
X027568Y020973D02*
X027668Y021073D01*
X027868*
X027968Y020973*
Y020873*
X027868Y020773*
X027768*
X027868*
X027968Y020673*
Y020573*
X027868Y020473*
X027668*
X027568Y020573*
X032818Y020473D02*
Y021073D01*
X033118*
X033218Y020973*
Y020773*
X033118Y020673*
X032818*
X033018D02*
X033218Y020473D01*
X033718D02*
Y021073D01*
X033418Y020773*
X033818*
X017578Y015583D02*
Y016183D01*
X017878*
X017978Y016083*
Y015883*
X017878Y015783*
X017578*
X017778D02*
X017978Y015583D01*
X018578Y016183D02*
X018178D01*
Y015883*
X018378Y015983*
X018478*
X018578Y015883*
Y015683*
X018478Y015583*
X018278*
X018178Y015683*
X016228Y013273D02*
Y013873D01*
X016528*
X016628Y013773*
Y013573*
X016528Y013473*
X016228*
X016428D02*
X016628Y013273D01*
X017228Y013873D02*
X017028Y013773D01*
X016828Y013573*
Y013373*
X016928Y013273*
X017128*
X017228Y013373*
Y013473*
X017128Y013573*
X016828*
X016328Y012073D02*
Y012673D01*
X016628*
X016728Y012573*
Y012373*
X016628Y012273*
X016328*
X016528D02*
X016728Y012073D01*
X016928Y012673D02*
X017328D01*
Y012573*
X016928Y012173*
Y012073*
X016328Y010923D02*
Y011523D01*
X016628*
X016728Y011423*
Y011223*
X016628Y011123*
X016328*
X016528D02*
X016728Y010923D01*
X016928Y011423D02*
X017028Y011523D01*
X017228*
X017328Y011423*
Y011323*
X017228Y011223*
X017328Y011123*
Y011023*
X017228Y010923*
X017028*
X016928Y011023*
Y011123*
X017028Y011223*
X016928Y011323*
Y011423*
X017028Y011223D02*
X017228D01*
X023368Y020473D02*
Y021073D01*
X023668*
X023768Y020973*
Y020773*
X023668Y020673*
X023368*
X023568D02*
X023768Y020473D01*
X023968D02*
X024168D01*
X024068*
Y021073*
X023968Y020973*
X024468D02*
X024568Y021073D01*
X024767*
X024867Y020973*
Y020573*
X024767Y020473*
X024568*
X024468Y020573*
Y020973*
X028628Y020465D02*
Y021065D01*
X028928*
X029028Y020965*
Y020765*
X028928Y020665*
X028628*
X028828D02*
X029028Y020465D01*
X029228D02*
X029428D01*
X029328*
Y021065*
X029228Y020965*
X030127Y020465D02*
X029728D01*
X030127Y020865*
Y020965*
X030027Y021065*
X029828*
X029728Y020965*
X034028Y020383D02*
Y020983D01*
X034328*
X034428Y020883*
Y020683*
X034328Y020583*
X034028*
X034228D02*
X034428Y020383D01*
X034628D02*
X034828D01*
X034728*
Y020983*
X034628Y020883*
X035128D02*
X035228Y020983D01*
X035427*
X035527Y020883*
Y020783*
X035427Y020683*
X035328*
X035427*
X035527Y020583*
Y020483*
X035427Y020383*
X035228*
X035128Y020483*
X029528Y009843D02*
X028928D01*
Y010142*
X029028Y010242*
X029228*
X029328Y010142*
Y009843*
Y010042D02*
X029528Y010242D01*
X029028Y010842D02*
X028928Y010742D01*
Y010542*
X029028Y010442*
X029428*
X029528Y010542*
Y010742*
X029428Y010842*
X029228*
Y010642*
X028928Y011042D02*
X029528D01*
Y011342*
X029428Y011442*
X029328*
X029228Y011342*
Y011042*
Y011342*
X029128Y011442*
X029028*
X028928Y011342*
Y011042*
X029628Y011642D02*
Y012042D01*
X029028Y012642D02*
X028928Y012542D01*
Y012342*
X029028Y012242*
X029428*
X029528Y012342*
Y012542*
X029428Y012642*
X029528Y012942D02*
Y013141D01*
X029428Y013241*
X029228*
X029128Y013141*
Y012942*
X029228Y012842*
X029428*
X029528Y012942*
Y013441D02*
X029128D01*
Y013741*
X029228Y013841*
X029528*
X029028Y014141D02*
X029128D01*
Y014041*
Y014241*
Y014141*
X029428*
X029528Y014241*
X029128Y014541D02*
X029528D01*
X029328*
X029228Y014641*
X029128Y014741*
Y014841*
X029528Y015241D02*
Y015441D01*
X029428Y015541*
X029228*
X029128Y015441*
Y015241*
X029228Y015141*
X029428*
X029528Y015241*
Y015741D02*
Y015941D01*
Y015841*
X028928*
Y015741*
X029528Y01624D02*
Y01644D01*
Y01634*
X028928*
Y01624*
X029528Y01704D02*
Y01684D01*
X029428Y01674*
X029228*
X029128Y01684*
Y01704*
X029228Y01714*
X029328*
Y01674*
X029128Y01734D02*
X029528D01*
X029328*
X029228Y01744*
X029128Y01754*
Y01764*
X029528Y01794D02*
Y01814D01*
Y01804*
X028928*
X029028Y01794*
X015898Y029453D02*
X015798Y029553D01*
X015598*
X015498Y029453*
Y029353*
X015598Y029253*
X015798*
X015898Y029153*
Y029053*
X015798Y028953*
X015598*
X015498Y029053*
X016098Y029553D02*
Y028953D01*
X016398*
X016498Y029053*
Y029153*
X016398Y029253*
X016098*
X016398*
X016498Y029353*
Y029453*
X016398Y029553*
X016098*
X016698Y028953D02*
X016897D01*
X016798*
Y029553*
X016698Y029453*
X007498D02*
X007398Y029553D01*
X007198*
X007098Y029453*
Y029353*
X007198Y029253*
X007398*
X007498Y029153*
Y029053*
X007398Y028953*
X007198*
X007098Y029053*
X007698Y029553D02*
Y028953D01*
X007998*
X008098Y029053*
Y029153*
X007998Y029253*
X007698*
X007998*
X008098Y029353*
Y029453*
X007998Y029553*
X007698*
X008697Y028953D02*
X008298D01*
X008697Y029353*
Y029453*
X008597Y029553*
X008398*
X008298Y029453*
X022233Y032818D02*
Y032418D01*
X022433Y032218*
X022633Y032418*
Y032818*
X022833D02*
X023233D01*
X023033*
Y032218*
X023433D02*
X023633D01*
X023533*
Y032818*
X023433Y032718*
X027383Y032818D02*
Y032418D01*
X027583Y032218*
X027783Y032418*
Y032818*
X027983D02*
X028383D01*
X028183*
Y032218*
X028982D02*
X028583D01*
X028982Y032618*
Y032718*
X028882Y032818*
X028683*
X028583Y032718*
X032283Y032818D02*
Y032418D01*
X032483Y032218*
X032683Y032418*
Y032818*
X032883D02*
X033283D01*
X033083*
Y032218*
X033483Y032718D02*
X033583Y032818D01*
X033782*
X033882Y032718*
Y032618*
X033782Y032518*
X033682*
X033782*
X033882Y032418*
Y032318*
X033782Y032218*
X033583*
X033483Y032318*
X021778Y010073D02*
X022178Y009473D01*
Y010073D02*
X021778Y009473D01*
X022378D02*
Y010073D01*
X022678*
X022778Y009973*
Y009773*
X022678Y009673*
X022378*
X022978Y009473D02*
X023177D01*
X023078*
Y010073*
X022978Y009973*
X007913Y017293D02*
X008313Y016693D01*
Y017293D02*
X007913Y016693D01*
X008513D02*
Y017293D01*
X008813*
X008913Y017193*
Y016993*
X008813Y016893*
X008513*
X009513Y016693D02*
X009113D01*
X009513Y017093*
Y017193*
X009413Y017293*
X009213*
X009113Y017193*
X025328Y010073D02*
X025728Y009473D01*
Y010073D02*
X025328Y009473D01*
X025928D02*
Y010073D01*
X026228*
X026328Y009973*
Y009773*
X026228Y009673*
X025928*
X026528Y009973D02*
X026628Y010073D01*
X026827*
X026927Y009973*
Y009873*
X026827Y009773*
X026727*
X026827*
X026927Y009673*
Y009573*
X026827Y009473*
X026628*
X026528Y009573*
X008173Y022978D02*
X008573D01*
Y022878*
X008173Y022478*
Y022378*
X008573*
X009173Y022478D02*
Y022878D01*
X009073Y022978*
X008873*
X008773Y022878*
Y022478*
X008873Y022378*
X009073*
X008973Y022578D02*
X009173Y022378D01*
X009073D02*
X009173Y022478D01*
X009373Y022378D02*
X009572D01*
X009473*
Y022978*
X009373Y022878*
X011678Y006623D02*
X012078D01*
Y006523*
X011678Y006123*
Y006023*
X012078*
X012678Y006123D02*
Y006523D01*
X012578Y006623*
X012378*
X012278Y006523*
Y006123*
X012378Y006023*
X012578*
X012478Y006223D02*
X012678Y006023D01*
X012578D02*
X012678Y006123D01*
X013277Y006023D02*
X012878D01*
X013277Y006423*
Y006523*
X013177Y006623*
X012978*
X012878Y006523*
X011178Y012523D02*
X010578D01*
Y012823*
X010678Y012923*
X010878*
X010978Y012823*
Y012523*
Y012723D02*
X011178Y012923D01*
X011078Y013123D02*
X011178Y013223D01*
Y013423*
X011078Y013523*
X010678*
X010578Y013423*
Y013223*
X010678Y013123*
X010778*
X010878Y013223*
Y013523*
X013189Y013189D02*
Y013789D01*
X013489*
X013589Y013689*
Y013489*
X013489Y013389*
X013189*
X013389D02*
X013589Y013189D01*
X013789D02*
X013989D01*
X013889*
Y013789*
X013789Y013689*
X014289Y013189D02*
X014489D01*
X014389*
Y013789*
X014289Y013689*
X031732Y01748D02*
X031932D01*
X031832*
Y01808*
X031732Y01798*
X032232Y01748D02*
Y01808D01*
Y01768D02*
X032532Y01788D01*
X032232Y01768D02*
X032532Y01748D01*
X033132Y01808D02*
X032932D01*
X032832Y01798*
Y01758*
X032932Y01748*
X033132*
X033232Y01758*
Y01798*
X033132Y01808*
X033432Y01748D02*
Y01788D01*
X033532*
X033632Y01778*
Y01748*
Y01778*
X033732Y01788*
X033832Y01778*
Y01748*
X035748Y016496D02*
Y016696D01*
Y016596*
X035148*
X035248Y016496*
Y016996D02*
X035148Y017096D01*
Y017296*
X035248Y017396*
X035648*
X035748Y017296*
Y017096*
X035648Y016996*
X035248*
X035748Y017596D02*
X035148D01*
X035548D02*
X035348Y017896D01*
X035548Y017596D02*
X035748Y017896D01*
X035148Y018495D02*
Y018295D01*
X035248Y018196*
X035648*
X035748Y018295*
Y018495*
X035648Y018595*
X035248*
X035148Y018495*
X035748Y018795D02*
X035348D01*
Y018895*
X035448Y018995*
X035748*
X035448*
X035348Y019095*
X035448Y019195*
X035748*
X03122Y017362D02*
Y017562D01*
Y017462*
X030621*
X030721Y017362*
Y017862D02*
X030621Y017962D01*
Y018162*
X030721Y018262*
X031121*
X03122Y018162*
Y017962*
X031121Y017862*
X030721*
X03122Y018462D02*
X030621D01*
X031021D02*
X030821Y018762D01*
X031021Y018462D02*
X03122Y018762D01*
X030621Y019362D02*
Y019162D01*
X030721Y019062*
X031121*
X03122Y019162*
Y019362*
X031121Y019462*
X030721*
X030621Y019362*
X03122Y019661D02*
X030821D01*
Y019761*
X030921Y019861*
X03122*
X030921*
X030821Y019961*
X030921Y020061*
X03122*
X026102Y01748D02*
X026302D01*
X026202*
Y01808*
X026102Y01798*
X026602Y01748D02*
Y01808D01*
Y01768D02*
X026902Y01788D01*
X026602Y01768D02*
X026902Y01748D01*
X027502Y01808D02*
X027302D01*
X027202Y01798*
Y01758*
X027302Y01748*
X027502*
X027602Y01758*
Y01798*
X027502Y01808*
X027802Y01748D02*
Y01788D01*
X027902*
X028002Y01778*
Y01748*
Y01778*
X028102Y01788*
X028202Y01778*
Y01748*
X025039Y017835D02*
Y018035D01*
Y017935*
X02444*
X02454Y017835*
Y018334D02*
X02444Y018434D01*
Y018634*
X02454Y018734*
X024939*
X025039Y018634*
Y018434*
X024939Y018334*
X02454*
X025039Y018934D02*
X02444D01*
X024839D02*
X024639Y019234D01*
X024839Y018934D02*
X025039Y019234D01*
X02444Y019834D02*
Y019634D01*
X02454Y019534*
X024939*
X025039Y019634*
Y019834*
X024939Y019934*
X02454*
X02444Y019834*
X025039Y020134D02*
X024639D01*
Y020234*
X024739Y020334*
X025039*
X024739*
X024639Y020434*
X024739Y020534*
X025039*
X020197Y021969D02*
Y022168D01*
Y022068*
X019597*
X019697Y021969*
X020197Y022468D02*
X019597D01*
X019997D02*
X019797Y022768D01*
X019997Y022468D02*
X020197Y022768D01*
X019597Y023368D02*
Y023168D01*
X019697Y023068*
X020097*
X020197Y023168*
Y023368*
X020097Y023468*
X019697*
X019597Y023368*
X020197Y023668D02*
X019797D01*
Y023768*
X019897Y023868*
X020197*
X019897*
X019797Y023968*
X019897Y024068*
X020197*
X012795Y007705D02*
X012895Y007805D01*
X013095*
X013195Y007705*
Y007605*
X013095Y007505*
X012995*
X013095*
X013195Y007405*
Y007305*
X013095Y007205*
X012895*
X012795Y007305*
X013795Y007205D02*
X013395D01*
X013795Y007605*
Y007705*
X013695Y007805*
X013495*
X013395Y007705*
X013995Y007205D02*
Y007305D01*
X014095*
Y007205*
X013995*
X014495Y007805D02*
X014895D01*
Y007705*
X014495Y007305*
Y007205*
X015494Y007805D02*
X015294Y007705D01*
X015095Y007505*
Y007305*
X015194Y007205*
X015394*
X015494Y007305*
Y007405*
X015394Y007505*
X015095*
X015694Y007705D02*
X015794Y007805D01*
X015994*
X016094Y007705*
Y007605*
X015994Y007505*
X016094Y007405*
Y007305*
X015994Y007205*
X015794*
X015694Y007305*
Y007405*
X015794Y007505*
X015694Y007605*
Y007705*
X015794Y007505D02*
X015994D01*
X016294Y007205D02*
Y007805D01*
Y007405D02*
X016594Y007605D01*
X016294Y007405D02*
X016594Y007205D01*
X016894Y007805D02*
Y007205D01*
Y007505*
X017294*
Y007805*
Y007205*
X017494Y007605D02*
X017894D01*
X017494Y007205*
X017894*
X018043Y021024D02*
X017944Y021124D01*
Y021324*
X018043Y021423*
X018443*
X018543Y021324*
Y021124*
X018443Y021024*
X018043*
X018543Y021623D02*
X018443D01*
Y021723*
X018543*
Y021623*
Y022123D02*
Y022323D01*
Y022223*
X017944*
X018043Y022123*
X018143Y022623D02*
X018443D01*
X018543Y022723*
Y023023*
X018143*
X017944Y023623D02*
Y023223D01*
X018243*
Y023423*
Y023223*
X018543*
X010406Y020079D02*
X010306Y020179D01*
Y020379*
X010406Y020479*
X010506*
X010606Y020379*
X010706Y020479*
X010806*
X010906Y020379*
Y020179*
X010806Y020079*
X010706*
X010606Y020179*
X010506Y020079*
X010406*
X010606Y020179D02*
Y020379D01*
X010906Y020679D02*
X010306D01*
X010506Y020878*
X010306Y021078*
X010906*
X010306Y021278D02*
X010906D01*
X010606*
Y021678*
X010306*
X010906*
X010506Y021878D02*
Y022278D01*
X010906Y021878*
Y022278*
X005361Y022126D02*
X004961D01*
X005361Y022526*
Y022626*
X005261Y022726*
X005061*
X004961Y022626*
X00596Y022126D02*
X00556D01*
X00596Y022526*
Y022626*
X00586Y022726*
X00566*
X00556Y022626*
X00616Y021926D02*
Y022526D01*
X00646*
X00656Y022426*
Y022226*
X00646Y022126*
X00616*
X00716Y022726D02*
X00676D01*
Y022426*
X00696*
X00676*
Y022126*
X004888Y017008D02*
X004488D01*
X004888Y017408*
Y017508*
X004788Y017608*
X004588*
X004488Y017508*
X005488Y017008D02*
X005088D01*
X005488Y017408*
Y017508*
X005388Y017608*
X005188*
X005088Y017508*
X005688Y016808D02*
Y017408D01*
X005988*
X006088Y017308*
Y017108*
X005988Y017008*
X005688*
X006687Y017608D02*
X006288D01*
Y017308*
X006488*
X006288*
Y017008*
X018116Y009921D02*
X017717D01*
X018116Y010321*
Y010421*
X018016Y010521*
X017816*
X017717Y010421*
X018716Y009921D02*
X018316D01*
X018716Y010321*
Y010421*
X018616Y010521*
X018416*
X018316Y010421*
X018916D02*
X019016Y010521D01*
X019216*
X019316Y010421*
Y010021*
X019216Y009921*
X019016*
X018916Y010021*
Y010421*
X019816Y010521D02*
X019616D01*
X019516Y010421*
Y010021*
X019616Y009921*
X019816*
X019916Y010021*
Y010421*
X019816Y010521*
X020116Y009921D02*
Y010321D01*
X020216*
X020316Y010221*
Y009921*
Y010221*
X020416Y010321*
X020516Y010221*
Y009921*
X00878Y032057D02*
Y031457D01*
X009179*
X009379D02*
Y031857D01*
X009579Y032057*
X009779Y031857*
Y031457*
Y031757*
X009379*
X010379Y031957D02*
X010279Y032057D01*
X010079*
X009979Y031957*
Y031857*
X010079Y031757*
X010279*
X010379Y031657*
Y031557*
X010279Y031457*
X010079*
X009979Y031557*
X010579Y031457D02*
Y031557D01*
X010679*
Y031457*
X010579*
X011479Y032057D02*
X011279Y031957D01*
X011079Y031757*
Y031557*
X011179Y031457*
X011379*
X011479Y031557*
Y031657*
X011379Y031757*
X011079*
X011679Y031957D02*
X011779Y032057D01*
X011978*
X012078Y031957*
Y031857*
X011978Y031757*
X012078Y031657*
Y031557*
X011978Y031457*
X011779*
X011679Y031557*
Y031657*
X011779Y031757*
X011679Y031857*
Y031957*
X011779Y031757D02*
X011978D01*
X012278Y032057D02*
X012678D01*
Y031957*
X012278Y031557*
Y031457*
X012878Y031957D02*
X012978Y032057D01*
X013178*
X013278Y031957*
Y031857*
X013178Y031757*
X013278Y031657*
Y031557*
X013178Y031457*
X012978*
X012878Y031557*
Y031657*
X012978Y031757*
X012878Y031857*
Y031957*
X012978Y031757D02*
X013178D01*
X013778Y031457D02*
Y032057D01*
X013478Y031757*
X013878*
X014478Y032057D02*
X014078D01*
Y031757*
X014278Y031857*
X014378*
X014478Y031757*
Y031557*
X014378Y031457*
X014178*
X014078Y031557*
X014678Y031457D02*
Y031557D01*
X014778*
Y031457*
X014678*
X015177Y031957D02*
X015277Y032057D01*
X015477*
X015577Y031957*
Y031557*
X015477Y031457*
X015277*
X015177Y031557*
Y031957*
X015777D02*
X015877Y032057D01*
X016077*
X016177Y031957*
Y031557*
X016077Y031457*
X015877*
X015777Y031557*
Y031957*
X016377Y031457D02*
X016577D01*
X016477*
Y032057*
X016377Y031957*
X026014Y020984D02*
Y021184D01*
Y021084*
X026614*
Y020984*
Y021184*
Y021484D02*
X026014D01*
Y021784*
X026114Y021884*
X026314*
X026414Y021784*
Y021484*
Y021684D02*
X026614Y021884D01*
X026014Y022484D02*
Y022084D01*
X026314*
Y022284*
Y022084*
X026614*
X026014Y022684D02*
Y023084D01*
X026114*
X026514Y022684*
X026614*
Y023084*
Y023583D02*
X026014D01*
X026314Y023284*
Y023683*
X026614Y024183D02*
X026014D01*
X026314Y023883*
Y024283*
X026614Y024483D02*
X026014D01*
X026614Y024883*
X026014*
X008431Y02546D02*
X008331Y02556D01*
X008131*
X008031Y02546*
Y025061*
X008131Y024961*
X008331*
X008431Y025061*
X008731Y024961D02*
X008931D01*
X009031Y025061*
Y025261*
X008931Y025361*
X008731*
X008631Y025261*
Y025061*
X008731Y024961*
X009231D02*
X009431D01*
X009331*
Y02556*
X009231*
X009831Y024961D02*
X010031D01*
X010131Y025061*
Y025261*
X010031Y025361*
X009831*
X009731Y025261*
Y025061*
X009831Y024961*
X010331Y025361D02*
Y024961D01*
Y025161*
X010431Y025261*
X010531Y025361*
X010631*
X016457Y025875D02*
Y025276D01*
X016657Y025476*
X016857Y025276*
Y025875*
X017156Y025276D02*
X017356D01*
X017456Y025376*
Y025575*
X017356Y025675*
X017156*
X017056Y025575*
Y025376*
X017156Y025276*
X017656Y025675D02*
Y025276D01*
Y025476*
X017756Y025575*
X017856Y025675*
X017956*
X018256Y025276D02*
Y025875D01*
Y025476D02*
X018556Y025675D01*
X018256Y025476D02*
X018556Y025276D01*
X008613Y013032D02*
Y013431D01*
Y013231*
X009213*
X008813Y013631D02*
X009213Y014031D01*
X009013Y013831*
X008813Y014031*
X009213Y013631*
X008613Y014231D02*
X009213D01*
Y014531*
X009113Y014631*
X008713*
X008613Y014531*
Y014231*
X008031Y012992D02*
X007432D01*
Y013292*
X007532Y013392*
X007732*
X007832Y013292*
Y012992*
Y013192D02*
X008031Y013392D01*
X007632Y013592D02*
X008031Y013992D01*
X007832Y013792*
X007632Y013992*
X008031Y013592*
X007432Y014192D02*
X008031D01*
Y014492*
X007932Y014592*
X007532*
X007432Y014492*
Y014192*
X001339Y012114D02*
X001439Y012214D01*
X001638*
X001738Y012114*
Y012014*
X001638Y011914*
X001539*
X001638*
X001738Y011814*
Y011714*
X001638Y011614*
X001439*
X001339Y011714*
X001938Y012214D02*
Y011814D01*
X002138Y011614*
X002338Y011814*
Y012214*
X014243Y008549D02*
X014843D01*
Y00825*
X014743Y00815*
X014543*
X014443Y00825*
Y008549*
X014843Y008749D02*
Y009049D01*
X014743Y009149*
X014643Y009049*
Y008849*
X014543Y008749*
X014443Y008849*
Y009149*
X014843Y009349D02*
Y009549D01*
Y009449*
X014243*
X014343Y009349*
Y009849D02*
X014243Y009949D01*
Y010149*
X014343Y010249*
X014443*
X014543Y010149*
Y010049*
Y010149*
X014643Y010249*
X014743*
X014843Y010149*
Y009949*
X014743Y009849*
X014343Y010449D02*
X014243Y010549D01*
Y010749*
X014343Y010849*
X014743*
X014843Y010749*
Y010549*
X014743Y010449*
X014343*
X014243Y011049D02*
Y011449D01*
X014343*
X014743Y011049*
X014843*
X025681Y006109D02*
X025581Y006009D01*
Y005809*
X025681Y005709*
X026081*
X026181Y005809*
Y006009*
X026081Y006109*
X025881*
Y005909*
X026181Y006308D02*
X025581D01*
X026181Y006708*
X025581*
Y006908D02*
X026181D01*
Y007208*
X026081Y007308*
X025681*
X025581Y007208*
Y006908*
X027323Y005748D02*
Y005948D01*
Y005848*
X026723*
X026823Y005748*
X027323Y006648D02*
Y006248D01*
X026923Y006648*
X026823*
X026723Y006548*
Y006348*
X026823Y006248*
X026723Y006848D02*
X027123D01*
X027323Y007048*
X027123Y007248*
X026723*
X023219Y00662D02*
Y00622D01*
X023519*
X023419Y00642*
Y00652*
X023519Y00662*
X023719*
X023819Y00652*
Y00632*
X023719Y00622*
X023219Y00682D02*
X023619D01*
X023819Y00702*
X023619Y00722*
X023219*
X022177Y00599D02*
X022077Y00589D01*
Y005691*
X022177Y005591*
X022577*
X022677Y005691*
Y00589*
X022577Y00599*
X022377*
Y00579*
X022677Y00619D02*
X022077D01*
X022677Y00659*
X022077*
Y00679D02*
X022677D01*
Y00709*
X022577Y00719*
X022177*
X022077Y00709*
Y00679*
X022628Y024123D02*
X022528Y024023D01*
Y023823*
X022628Y023723*
X023028*
X023128Y023823*
Y024023*
X023028Y024123*
X022828*
Y023923*
X022728Y024423D02*
Y024623D01*
X022828Y024723*
X023128*
Y024423*
X023028Y024323*
X022928Y024423*
Y024723*
X022628Y025023D02*
X022728D01*
Y024923*
Y025123*
Y025023*
X023028*
X023128Y025123*
Y025723D02*
Y025523D01*
X023028Y025423*
X022828*
X022728Y025523*
Y025723*
X022828Y025823*
X022928*
Y025423*
X023778Y023673D02*
X024378D01*
Y023973*
X024278Y024073*
X023878*
X023778Y023973*
Y023673*
X023978Y024273D02*
X024378D01*
X024178*
X024078Y024373*
X023978Y024473*
Y024573*
Y024973D02*
Y025173D01*
X024078Y025273*
X024378*
Y024973*
X024278Y024873*
X024178Y024973*
Y025273*
X024378Y025473D02*
Y025673D01*
Y025573*
X023978*
Y025473*
X024378Y025972D02*
X023978D01*
Y026272*
X024078Y026372*
X024378*
X024878Y024123D02*
X024778Y024023D01*
Y023823*
X024878Y023723*
X024978*
X025078Y023823*
Y024023*
X025178Y024123*
X025278*
X025378Y024023*
Y023823*
X025278Y023723*
X025378Y024423D02*
Y024623D01*
X025278Y024723*
X025078*
X024978Y024623*
Y024423*
X025078Y024323*
X025278*
X025378Y024423*
X024978Y024923D02*
X025278D01*
X025378Y025023*
Y025323*
X024978*
Y025523D02*
X025378D01*
X025178*
X025078Y025623*
X024978Y025723*
Y025823*
Y026522D02*
Y026222D01*
X025078Y026122*
X025278*
X025378Y026222*
Y026522*
Y027022D02*
Y026822D01*
X025278Y026722*
X025078*
X024978Y026822*
Y027022*
X025078Y027122*
X025178*
Y026722*
X032678Y024123D02*
X032578Y024023D01*
Y023823*
X032678Y023723*
X033078*
X033178Y023823*
Y024023*
X033078Y024123*
X032878*
Y023923*
X032778Y024423D02*
Y024623D01*
X032878Y024723*
X033178*
Y024423*
X033078Y024323*
X032978Y024423*
Y024723*
X032678Y025023D02*
X032778D01*
Y024923*
Y025123*
Y025023*
X033078*
X033178Y025123*
Y025723D02*
Y025523D01*
X033078Y025423*
X032878*
X032778Y025523*
Y025723*
X032878Y025823*
X032978*
Y025423*
X033828Y023673D02*
X034428D01*
Y023973*
X034328Y024073*
X033928*
X033828Y023973*
Y023673*
X034028Y024273D02*
X034428D01*
X034228*
X034128Y024373*
X034028Y024473*
Y024573*
Y024973D02*
Y025173D01*
X034128Y025273*
X034428*
Y024973*
X034328Y024873*
X034228Y024973*
Y025273*
X034428Y025473D02*
Y025673D01*
Y025573*
X034028*
Y025473*
X034428Y025972D02*
X034028D01*
Y026272*
X034128Y026372*
X034428*
X034928Y024123D02*
X034828Y024023D01*
Y023823*
X034928Y023723*
X035028*
X035128Y023823*
Y024023*
X035228Y024123*
X035328*
X035428Y024023*
Y023823*
X035328Y023723*
X035428Y024423D02*
Y024623D01*
X035328Y024723*
X035128*
X035028Y024623*
Y024423*
X035128Y024323*
X035328*
X035428Y024423*
X035028Y024923D02*
X035328D01*
X035428Y025023*
Y025323*
X035028*
Y025523D02*
X035428D01*
X035228*
X035128Y025623*
X035028Y025723*
Y025823*
Y026522D02*
Y026222D01*
X035128Y026122*
X035328*
X035428Y026222*
Y026522*
Y027022D02*
Y026822D01*
X035328Y026722*
X035128*
X035028Y026822*
Y027022*
X035128Y027122*
X035228*
Y026722*
X027778Y024123D02*
X027678Y024023D01*
Y023823*
X027778Y023723*
X028178*
X028278Y023823*
Y024023*
X028178Y024123*
X027978*
Y023923*
X027878Y024423D02*
Y024623D01*
X027978Y024723*
X028278*
Y024423*
X028178Y024323*
X028078Y024423*
Y024723*
X027778Y025023D02*
X027878D01*
Y024923*
Y025123*
Y025023*
X028178*
X028278Y025123*
Y025723D02*
Y025523D01*
X028178Y025423*
X027978*
X027878Y025523*
Y025723*
X027978Y025823*
X028078*
Y025423*
X028928Y023673D02*
X029528D01*
Y023973*
X029428Y024073*
X029028*
X028928Y023973*
Y023673*
X029128Y024273D02*
X029528D01*
X029328*
X029228Y024373*
X029128Y024473*
Y024573*
Y024973D02*
Y025173D01*
X029228Y025273*
X029528*
Y024973*
X029428Y024873*
X029328Y024973*
Y025273*
X029528Y025473D02*
Y025673D01*
Y025573*
X029128*
Y025473*
X029528Y025972D02*
X029128D01*
Y026272*
X029228Y026372*
X029528*
X030028Y024123D02*
X029928Y024023D01*
Y023823*
X030028Y023723*
X030128*
X030228Y023823*
Y024023*
X030328Y024123*
X030428*
X030528Y024023*
Y023823*
X030428Y023723*
X030528Y024423D02*
Y024623D01*
X030428Y024723*
X030228*
X030128Y024623*
Y024423*
X030228Y024323*
X030428*
X030528Y024423*
X030128Y024923D02*
X030428D01*
X030528Y025023*
Y025323*
X030128*
Y025523D02*
X030528D01*
X030328*
X030228Y025623*
X030128Y025723*
Y025823*
Y026522D02*
Y026222D01*
X030228Y026122*
X030428*
X030528Y026222*
Y026522*
Y027022D02*
Y026822D01*
X030428Y026722*
X030228*
X030128Y026822*
Y027022*
X030228Y027122*
X030328*
Y026722*
X034378Y011273D02*
Y011673D01*
X034178Y011873*
X033978Y011673*
Y011273*
X033378Y011373D02*
X033478Y011273D01*
X033678*
X033778Y011373*
Y011773*
X033678Y011873*
X033478*
X033378Y011773*
X032778Y011373D02*
X032878Y011273D01*
X033078*
X033178Y011373*
Y011773*
X033078Y011873*
X032878*
X032778Y011773*
X034928Y012423D02*
Y013023D01*
X034528*
X034028D02*
X034228D01*
X034328Y012923*
Y012723*
X034228Y012623*
X034028*
X033928Y012723*
Y012823*
X034328*
X033328Y012423D02*
Y013023D01*
X033628*
X033728Y012923*
Y012723*
X033628Y012623*
X033328*
X033129Y012523D02*
X033029Y012423D01*
X032829*
X032729Y012523*
Y012623*
X032829Y012723*
X032929*
X032829*
X032729Y012823*
Y012923*
X032829Y013023*
X033029*
X033129Y012923*
X032529Y012723D02*
X032129D01*
X034978Y013723D02*
Y014323D01*
X034578*
X034078D02*
X034278D01*
X034378Y014223*
Y014023*
X034278Y013923*
X034078*
X033978Y014023*
Y014123*
X034378*
X033378Y013723D02*
Y014323D01*
X033678*
X033778Y014223*
Y014023*
X033678Y013923*
X033378*
X032779Y014323D02*
X033179D01*
X032779Y013923*
Y013823*
X032879Y013723*
X033079*
X033179Y013823*
X032579Y014023D02*
X032179D01*
X034878Y014923D02*
Y015523D01*
X034478*
X033978D02*
X034178D01*
X034278Y015423*
Y015223*
X034178Y015123*
X033978*
X033878Y015223*
Y015323*
X034278*
X033278Y014923D02*
Y015523D01*
X033578*
X033678Y015423*
Y015223*
X033578Y015123*
X033278*
X033079Y015523D02*
X032879D01*
X032979*
Y014923*
X033079Y015023*
X032579Y015223D02*
X032179D01*
G54D29*
X012967Y021003D02*
D01*
X012966Y021011*
X012965Y021019*
X012964Y021027*
X012962Y021035*
X012959Y021043*
X012956Y02105*
X012953Y021058*
X012949Y021065*
X012944Y021072*
X012939Y021078*
X012933Y021084*
X012927Y02109*
X012921Y021095*
X012914Y0211*
X012908Y021105*
X0129Y021109*
X012893Y021112*
X012885Y021115*
X012877Y021117*
X012869Y021119*
X012861Y02112*
X012853Y02112*
X012844*
X012836Y02112*
X012828Y021119*
X01282Y021117*
X012812Y021115*
X012804Y021112*
X012797Y021109*
X01279Y021105*
X012783Y0211*
X012776Y021095*
X01277Y02109*
X012764Y021084*
X012758Y021078*
X012753Y021072*
X012748Y021065*
X012744Y021058*
X012741Y02105*
X012738Y021043*
X012735Y021035*
X012733Y021027*
X012732Y021019*
X012731Y021011*
X012731Y021003*
X012731Y020994*
X012732Y020986*
X012733Y020978*
X012735Y02097*
X012738Y020962*
X012741Y020955*
X012744Y020947*
X012748Y02094*
X012753Y020933*
X012758Y020927*
X012764Y020921*
X01277Y020915*
X012776Y02091*
X012783Y020905*
X01279Y0209*
X012797Y020896*
X012804Y020893*
X012812Y02089*
X01282Y020888*
X012828Y020886*
X012836Y020885*
X012844Y020885*
X012853*
X012861Y020885*
X012869Y020886*
X012877Y020888*
X012885Y02089*
X012893Y020893*
X0129Y020896*
X012908Y0209*
X012914Y020905*
X012921Y02091*
X012927Y020915*
X012933Y020921*
X012939Y020927*
X012944Y020933*
X012949Y02094*
X012953Y020947*
X012956Y020955*
X012959Y020962*
X012962Y02097*
X012964Y020978*
X012965Y020986*
X012966Y020994*
X012967Y021003*
X012175Y009637D02*
D01*
X012174Y009645*
X012173Y009653*
X012172Y009661*
X01217Y009669*
X012167Y009677*
X012164Y009684*
X012161Y009692*
X012157Y009699*
X012152Y009706*
X012147Y009712*
X012141Y009718*
X012135Y009724*
X012129Y009729*
X012122Y009734*
X012116Y009739*
X012108Y009743*
X012101Y009746*
X012093Y009749*
X012085Y009751*
X012077Y009753*
X012069Y009754*
X012061Y009754*
X012052*
X012044Y009754*
X012036Y009753*
X012028Y009751*
X01202Y009749*
X012012Y009746*
X012005Y009743*
X011998Y009739*
X011991Y009734*
X011984Y009729*
X011978Y009724*
X011972Y009718*
X011966Y009712*
X011961Y009706*
X011956Y009699*
X011952Y009692*
X011949Y009684*
X011946Y009677*
X011943Y009669*
X011941Y009661*
X01194Y009653*
X011939Y009645*
X011939Y009637*
X011939Y009628*
X01194Y00962*
X011941Y009612*
X011943Y009604*
X011946Y009596*
X011949Y009589*
X011952Y009581*
X011956Y009574*
X011961Y009567*
X011966Y009561*
X011972Y009555*
X011978Y009549*
X011984Y009544*
X011991Y009539*
X011998Y009534*
X012005Y00953*
X012012Y009527*
X01202Y009524*
X012028Y009522*
X012036Y00952*
X012044Y009519*
X012052Y009519*
X012061*
X012069Y009519*
X012077Y00952*
X012085Y009522*
X012093Y009524*
X012101Y009527*
X012108Y00953*
X012116Y009534*
X012122Y009539*
X012129Y009544*
X012135Y009549*
X012141Y009555*
X012147Y009561*
X012152Y009567*
X012157Y009574*
X012161Y009581*
X012164Y009589*
X012167Y009596*
X01217Y009604*
X012172Y009612*
X012173Y00962*
X012174Y009628*
X012175Y009637*
G54D30*
X011933Y021633D02*
D01*
X011932Y021636*
X011932Y021639*
X011931Y021643*
X011931Y021646*
X01193Y021649*
X011928Y021652*
X011927Y021656*
X011925Y021658*
X011923Y021661*
X011921Y021664*
X011919Y021667*
X011916Y021669*
X011914Y021671*
X011911Y021673*
X011908Y021675*
X011905Y021677*
X011902Y021678*
X011899Y021679*
X011895Y02168*
X011892Y021681*
X011889Y021681*
X011885Y021681*
X011882*
X011878Y021681*
X011875Y021681*
X011872Y02168*
X011868Y021679*
X011865Y021678*
X011862Y021677*
X011859Y021675*
X011856Y021673*
X011853Y021671*
X011851Y021669*
X011848Y021667*
X011846Y021664*
X011844Y021661*
X011842Y021658*
X01184Y021656*
X011839Y021652*
X011837Y021649*
X011836Y021646*
X011836Y021643*
X011835Y021639*
X011835Y021636*
X011835Y021633*
X011835Y021629*
X011835Y021626*
X011836Y021622*
X011836Y021619*
X011837Y021616*
X011839Y021613*
X01184Y021609*
X011842Y021607*
X011844Y021604*
X011846Y021601*
X011848Y021598*
X011851Y021596*
X011853Y021594*
X011856Y021592*
X011859Y02159*
X011862Y021588*
X011865Y021587*
X011868Y021586*
X011872Y021585*
X011875Y021584*
X011878Y021584*
X011882Y021584*
X011885*
X011889Y021584*
X011892Y021584*
X011895Y021585*
X011899Y021586*
X011902Y021587*
X011905Y021588*
X011908Y02159*
X011911Y021592*
X011914Y021594*
X011916Y021596*
X011919Y021598*
X011921Y021601*
X011923Y021604*
X011925Y021607*
X011927Y021609*
X011928Y021613*
X01193Y021616*
X011931Y021619*
X011931Y021622*
X011932Y021626*
X011932Y021629*
X011933Y021633*
X011612Y0088D02*
D01*
X011611Y008803*
X011611Y008806*
X01161Y00881*
X01161Y008813*
X011609Y008816*
X011607Y008819*
X011606Y008823*
X011604Y008825*
X011602Y008828*
X0116Y008831*
X011598Y008834*
X011595Y008836*
X011593Y008838*
X01159Y00884*
X011587Y008842*
X011584Y008844*
X011581Y008845*
X011578Y008846*
X011574Y008847*
X011571Y008848*
X011568Y008848*
X011564Y008848*
X011561*
X011557Y008848*
X011554Y008848*
X011551Y008847*
X011547Y008846*
X011544Y008845*
X011541Y008844*
X011538Y008842*
X011535Y00884*
X011532Y008838*
X01153Y008836*
X011527Y008834*
X011525Y008831*
X011523Y008828*
X011521Y008825*
X011519Y008823*
X011518Y008819*
X011516Y008816*
X011515Y008813*
X011515Y00881*
X011514Y008806*
X011514Y008803*
X011514Y0088*
X011514Y008796*
X011514Y008793*
X011515Y008789*
X011515Y008786*
X011516Y008783*
X011518Y00878*
X011519Y008776*
X011521Y008774*
X011523Y008771*
X011525Y008768*
X011527Y008765*
X01153Y008763*
X011532Y008761*
X011535Y008759*
X011538Y008757*
X011541Y008755*
X011544Y008754*
X011547Y008753*
X011551Y008752*
X011554Y008751*
X011557Y008751*
X011561Y008751*
X011564*
X011568Y008751*
X011571Y008751*
X011574Y008752*
X011578Y008753*
X011581Y008754*
X011584Y008755*
X011587Y008757*
X01159Y008759*
X011593Y008761*
X011595Y008763*
X011598Y008765*
X0116Y008768*
X011602Y008771*
X011604Y008774*
X011606Y008776*
X011607Y00878*
X011609Y008783*
X01161Y008786*
X01161Y008789*
X011611Y008793*
X011611Y008796*
X011612Y0088*
G54D31*
X012246Y007286D02*
D01*
X012258Y007312*
X012268Y007339*
X012277Y007366*
X012283Y007394*
X012288Y007423*
X01229Y007451*
X012291Y00748*
X012289Y007509*
X012286Y007538*
X01228Y007566*
X012273Y007594*
X012263Y007621*
X012252Y007648*
X012239Y007673*
X012236Y00768*
X01152D02*
D01*
X011506Y007654*
X011494Y007628*
X011484Y007601*
X011476Y007573*
X01147Y007545*
X011466Y007516*
X011464Y007487*
X011464Y007458*
X011466Y00743*
X01147Y007401*
X011476Y007373*
X011484Y007345*
X011494Y007318*
X011506Y007291*
X01151Y007286*
X023343Y019066D02*
Y019381D01*
X024013Y019066D02*
Y019381D01*
X021313Y022616D02*
Y022931D01*
X020643Y022616D02*
Y022931D01*
X03472Y019339D02*
X035035D01*
X03472Y020008D02*
X035035D01*
X032793Y019066D02*
Y019381D01*
X033463Y019066D02*
Y019381D01*
X02932Y01942D02*
X029635D01*
X02932Y020089D02*
X029635D01*
X026943Y019066D02*
Y019381D01*
X027613Y019066D02*
Y019381D01*
X01827Y015208D02*
X018585D01*
X01827Y014539D02*
X018585D01*
X012455Y01805D02*
X015801D01*
X012455Y021396D02*
X015801D01*
Y01805D02*
Y021396D01*
X012455Y01805D02*
Y021396D01*
X007083Y018266D02*
Y018581D01*
X007673Y018266D02*
Y018581D01*
X007723Y020866D02*
Y021181D01*
X007133Y020866D02*
Y021181D01*
X011634Y015433D02*
Y015748D01*
X010965Y015433D02*
Y015748D01*
X01317Y015348D02*
X013485D01*
X01317Y014757D02*
X013485D01*
X018473Y019616D02*
Y019931D01*
X017883Y019616D02*
Y019931D01*
X01827Y013908D02*
X018585D01*
X01827Y013239D02*
X018585D01*
X01827Y012708D02*
X018585D01*
X01827Y012039D02*
X018585D01*
X01827Y011558D02*
X018585D01*
X01827Y010889D02*
X018585D01*
X011663Y009243D02*
X013631D01*
X011663Y010503D02*
X013631D01*
X011663Y009243D02*
Y010503D01*
X013631Y009243D02*
Y010503D01*
X012213Y012916D02*
Y013231D01*
X011543Y012916D02*
Y013231D01*
X01322Y012189D02*
X013535D01*
X01322Y012858D02*
X013535D01*
G54D32*
X022753Y021848D03*
X032803D03*
X027903D03*
G54D33*
X027303Y008948D03*
X023753D03*
G54D34*
X009428Y016198D03*
M02*