G04 Layer_Physical_Order=1*
G04 Layer_Color=255*
%FSLAX44Y44*%
%MOMM*%
G71*
G01*
G75*
%ADD10R,1.3000X1.0000*%
%ADD11O,0.3000X1.5000*%
%ADD12O,1.5000X0.3000*%
%ADD13R,1.3500X4.6000*%
%ADD14R,10.8000X9.4000*%
%ADD15R,1.4000X1.1000*%
%ADD16R,1.1000X1.4000*%
%ADD17R,1.0000X1.3000*%
%ADD18O,0.5000X1.6000*%
%ADD19R,2.2500X1.0000*%
%ADD20R,2.2500X0.5000*%
%ADD21R,2.9000X2.0000*%
%ADD22C,0.3000*%
%ADD23C,0.5000*%
G04:AMPARAMS|DCode=24|XSize=2mm|YSize=2mm|CornerRadius=0.5mm|HoleSize=0mm|Usage=FLASHONLY|Rotation=180.000|XOffset=0mm|YOffset=0mm|HoleType=Round|Shape=RoundedRectangle|*
%AMROUNDEDRECTD24*
21,1,2.0000,1.0000,0,0,180.0*
21,1,1.0000,2.0000,0,0,180.0*
1,1,1.0000,-0.5000,0.5000*
1,1,1.0000,0.5000,0.5000*
1,1,1.0000,0.5000,-0.5000*
1,1,1.0000,-0.5000,-0.5000*
%
%ADD24ROUNDEDRECTD24*%
%ADD25C,2.5000*%
%ADD26C,1.6000*%
%ADD27C,2.0000*%
%ADD28C,0.6000*%
G36*
X434414Y271879D02*
X430529Y262500D01*
X433050Y256415D01*
X432629Y255400D01*
Y243747D01*
X430500D01*
X428204Y242796D01*
X427253Y240500D01*
Y238733D01*
X426556Y238444D01*
X404026Y215914D01*
X402871Y216392D01*
Y227441D01*
X403358Y227642D01*
X405577Y233000D01*
X405375Y233487D01*
X410059Y238171D01*
X410500D01*
Y245500D01*
X401670D01*
Y243559D01*
X398487Y240375D01*
X398000Y240577D01*
X392642Y238358D01*
X391459Y235500D01*
X398000D01*
Y230500D01*
X391459D01*
X392642Y227642D01*
X393129Y227441D01*
Y215018D01*
X387026Y208914D01*
X385871Y209392D01*
Y215080D01*
X387494Y219000D01*
X385592Y223592D01*
X381000Y225494D01*
X379910Y225043D01*
X378871Y225737D01*
Y228983D01*
X400516Y250627D01*
X400823Y250500D01*
X424330D01*
Y253500D01*
X423061Y256562D01*
X422888Y256633D01*
X423247Y257500D01*
Y268500D01*
X422996Y269107D01*
X427018Y273129D01*
X433697D01*
X434414Y271879D01*
D02*
G37*
G36*
X929811Y539811D02*
X930000Y539354D01*
Y493000D01*
X932603Y490397D01*
Y490000D01*
X933554Y487704D01*
X935850Y486753D01*
X936247D01*
X937000Y486000D01*
X962047D01*
Y483000D01*
X963791Y478791D01*
X970790Y471791D01*
X975000Y470047D01*
X975000Y470047D01*
X988693D01*
X990000Y469506D01*
X994592Y471408D01*
X996494Y476000D01*
X994592Y480592D01*
X990000Y482494D01*
X988693Y481953D01*
X977466D01*
X974669Y484750D01*
X975187Y486000D01*
X999354D01*
X1000457Y485543D01*
X1009543Y476457D01*
X1010000Y475354D01*
Y445646D01*
X1009543Y444543D01*
X1007108Y442108D01*
X1005953Y442586D01*
Y450354D01*
X1005706Y450951D01*
Y451597D01*
X1004457Y454613D01*
X1004000Y455070D01*
X1003753Y455666D01*
X1000166Y459253D01*
X999570Y459500D01*
X999113Y459957D01*
X996097Y461206D01*
X995451D01*
X994854Y461453D01*
X993329D01*
X993092Y461355D01*
X991721Y461769D01*
X991296Y462796D01*
X989000Y463747D01*
X976000D01*
X973704Y462796D01*
X972753Y460500D01*
Y450500D01*
X973341Y449081D01*
X972939Y447561D01*
X971670Y444500D01*
Y442000D01*
X982500D01*
Y437000D01*
X971670D01*
Y434500D01*
X970525Y434000D01*
X927646D01*
X926543Y434457D01*
X918892Y442108D01*
X894457Y466543D01*
X894000Y467646D01*
Y539354D01*
X894189Y539811D01*
X894646Y540000D01*
X906639D01*
X906683Y539983D01*
X906716Y539950D01*
X907155Y538981D01*
X907235Y538691D01*
X906120Y536000D01*
Y515500D01*
X928280D01*
Y536000D01*
X927141Y538750D01*
X927684Y539950D01*
X927717Y539983D01*
X927761Y540000D01*
X929354D01*
X929811Y539811D01*
D02*
G37*
G36*
X445129Y533982D02*
Y498392D01*
X443974Y497914D01*
X431444Y510444D01*
X429783Y511132D01*
X429592Y511592D01*
X425000Y513494D01*
X420408Y511592D01*
X418506Y507000D01*
X420408Y502408D01*
X425000Y500506D01*
X426843Y501269D01*
X440129Y487982D01*
Y485392D01*
X438974Y484914D01*
X426444Y497444D01*
X423000Y498871D01*
X421559D01*
X421358Y499357D01*
X418500Y500541D01*
Y494000D01*
Y487459D01*
X421357Y488642D01*
X421451Y488661D01*
X431516Y478596D01*
X430808Y477536D01*
X430000Y477871D01*
X421017D01*
X412275Y486613D01*
X412983Y487673D01*
X413500Y487459D01*
Y491500D01*
X409459D01*
X409673Y490983D01*
X408613Y490275D01*
X403871Y495018D01*
Y536982D01*
X407018Y540129D01*
X409253D01*
Y540000D01*
X410204Y537704D01*
X410395Y537625D01*
Y536375D01*
X410204Y536296D01*
X409253Y534000D01*
Y524000D01*
X410204Y521704D01*
X412500Y520753D01*
X425500D01*
X427796Y521704D01*
X428747Y524000D01*
Y524129D01*
X432080D01*
X436000Y522506D01*
X440592Y524408D01*
X442494Y529000D01*
X440592Y533592D01*
X436000Y535494D01*
X432080Y533871D01*
X428747D01*
Y534000D01*
X427796Y536296D01*
X427606Y536375D01*
Y537625D01*
X427796Y537704D01*
X428747Y540000D01*
Y548597D01*
X429997Y549114D01*
X445129Y533982D01*
D02*
G37*
G36*
X246956Y373156D02*
X250400Y371729D01*
X266864D01*
X269285Y365885D01*
X272568Y364525D01*
Y363275D01*
X269285Y361915D01*
X265882Y353700D01*
X280000D01*
Y348700D01*
X265882D01*
X269285Y340485D01*
X272567Y339126D01*
Y337876D01*
X269284Y336516D01*
X265881Y328301D01*
X279999D01*
Y323301D01*
X265881D01*
X269284Y315086D01*
X272568Y313725D01*
Y312475D01*
X269285Y311115D01*
X265882Y302900D01*
X280000D01*
Y297900D01*
X265882D01*
X269285Y289685D01*
X273874Y287784D01*
Y286534D01*
X270050Y284950D01*
X265929Y275000D01*
X270050Y265050D01*
X280000Y260929D01*
X284621Y262843D01*
X285315Y261804D01*
X192883Y169372D01*
X159553D01*
X157449Y174451D01*
X152318Y176576D01*
Y177826D01*
X157449Y179951D01*
X161570Y189901D01*
X157449Y199851D01*
X152318Y201976D01*
Y203226D01*
X157449Y205351D01*
X161570Y215301D01*
X157449Y225251D01*
X152320Y227375D01*
Y228625D01*
X157450Y230750D01*
X161571Y240700D01*
X157450Y250650D01*
X152319Y252775D01*
Y254025D01*
X157450Y256150D01*
X161571Y266100D01*
X157450Y276050D01*
X152316Y278176D01*
Y279426D01*
X157448Y281552D01*
X161569Y291502D01*
X157448Y301451D01*
X152317Y303577D01*
Y304827D01*
X157448Y306952D01*
X161569Y316902D01*
X157448Y326851D01*
X152319Y328976D01*
Y330226D01*
X157449Y332351D01*
X161570Y342301D01*
X157449Y352251D01*
X152318Y354376D01*
Y355626D01*
X157449Y357751D01*
X161570Y367701D01*
X157449Y377651D01*
X152318Y379776D01*
Y381026D01*
X157449Y383151D01*
X161570Y393101D01*
X157449Y403051D01*
X153625Y404635D01*
Y405885D01*
X158214Y407786D01*
X160635Y413630D01*
X206482D01*
X246956Y373156D01*
D02*
G37*
G36*
X378722Y381379D02*
X374408Y379592D01*
X372506Y375000D01*
X374403Y370419D01*
X372408Y369592D01*
X370506Y365000D01*
X372408Y360408D01*
X373091Y360125D01*
Y358875D01*
X372408Y358592D01*
X370506Y354000D01*
X372408Y349408D01*
X374658Y348476D01*
X375167Y347010D01*
X373506Y343000D01*
X375408Y338408D01*
X377911Y337371D01*
X377663Y336121D01*
X371768D01*
X349373Y358516D01*
X349500Y358823D01*
Y369500D01*
X354500D01*
Y359670D01*
X359000D01*
X362062Y360938D01*
X363330Y364000D01*
Y365801D01*
X363944Y366056D01*
X369444Y371556D01*
X370871Y375000D01*
Y379982D01*
X373517Y382629D01*
X378473D01*
X378722Y381379D01*
D02*
G37*
G36*
X264452Y687051D02*
X269531Y684947D01*
Y668598D01*
X270958Y665154D01*
X338556Y597556D01*
X342000Y596129D01*
X382982D01*
X404723Y574389D01*
X404015Y573329D01*
X401500Y574371D01*
X397889D01*
X396419Y577919D01*
X388000Y581406D01*
X379581Y577919D01*
X376094Y569500D01*
X379581Y561081D01*
X388000Y557594D01*
X396419Y561081D01*
X397889Y564629D01*
X399482D01*
X410548Y553564D01*
X410304Y552338D01*
X410204Y552296D01*
X409253Y550000D01*
Y549871D01*
X405000D01*
X401556Y548444D01*
X395556Y542444D01*
X394129Y539000D01*
Y493000D01*
X395556Y489556D01*
X415556Y469556D01*
X419000Y468129D01*
X427982D01*
X430129Y465983D01*
Y461000D01*
Y460000D01*
Y449000D01*
X431556Y445556D01*
X435000Y444129D01*
X436193Y444624D01*
X437500Y444082D01*
Y445164D01*
X438445Y445555D01*
X439871Y449000D01*
Y455000D01*
X440129D01*
Y449000D01*
X441555Y445555D01*
X442500Y445164D01*
Y444082D01*
X443807Y444624D01*
X445000Y444129D01*
X447500Y445165D01*
X450000Y444129D01*
X452500Y445165D01*
X455000Y444129D01*
X457500Y445165D01*
X460000Y444129D01*
X462500Y445165D01*
X465000Y444129D01*
X467500Y445165D01*
X470000Y444129D01*
X472500Y445165D01*
X475000Y444129D01*
X477500Y445165D01*
X480000Y444129D01*
X482500Y445165D01*
X485000Y444129D01*
X487500Y445165D01*
X490000Y444129D01*
X492500Y445165D01*
X495000Y444129D01*
X497500Y445165D01*
X500000Y444129D01*
X502500Y445165D01*
X505000Y444129D01*
X507500Y445165D01*
X508926Y444574D01*
Y443221D01*
X507408Y442592D01*
X505506Y438000D01*
X507408Y433408D01*
X512000Y431506D01*
X516592Y433408D01*
X516668Y433591D01*
X517918D01*
X518408Y432408D01*
X523000Y430506D01*
X524090Y430957D01*
X525346Y431477D01*
X526556Y428556D01*
X527556Y427556D01*
X531000Y426129D01*
X534444Y427556D01*
X534871Y428586D01*
Y430677D01*
X535910Y431371D01*
X538000Y430506D01*
X541920Y432129D01*
X548080D01*
X552000Y430506D01*
X556592Y432408D01*
X558494Y437000D01*
X556592Y441592D01*
X552000Y443494D01*
X548080Y441871D01*
X541920D01*
X539871Y442719D01*
Y444043D01*
X540000Y444129D01*
X542500Y445165D01*
X545000Y444129D01*
X547500Y445165D01*
X550000Y444129D01*
X552500Y445165D01*
X555000Y444129D01*
X558444Y445556D01*
X559592Y448327D01*
X560945D01*
X561642Y446642D01*
X564500Y445459D01*
Y452000D01*
Y458541D01*
X561642Y457358D01*
X561097Y456040D01*
X559871Y456284D01*
Y465983D01*
X696018Y602129D01*
X741473D01*
X741991Y600879D01*
X583483Y442371D01*
X566500D01*
X563056Y440944D01*
X561629Y437500D01*
X562665Y435000D01*
X561629Y432500D01*
X562665Y430000D01*
X561629Y427500D01*
X562665Y425000D01*
X561629Y422500D01*
X562665Y420000D01*
X561629Y417500D01*
X562665Y415000D01*
X561629Y412500D01*
X562665Y410000D01*
X561629Y407500D01*
X562665Y405000D01*
X561629Y402500D01*
X562665Y400000D01*
X561629Y397500D01*
X562665Y395000D01*
X561629Y392500D01*
X562665Y390000D01*
X561976Y388337D01*
X561629Y387500D01*
X562665Y385000D01*
X562022Y383447D01*
X561000Y383871D01*
X557556Y382444D01*
X557406Y382083D01*
X554000Y383494D01*
X549408Y381592D01*
X547506Y377000D01*
X549129Y373080D01*
Y369000D01*
X549374Y368410D01*
X548679Y367371D01*
X508500D01*
X505056Y365944D01*
X499328Y360216D01*
X495408Y358592D01*
X493506Y354000D01*
X495408Y349408D01*
X500000Y347506D01*
X504592Y349408D01*
X506216Y353327D01*
X507091Y354203D01*
X508130Y353508D01*
X507506Y352000D01*
X509408Y347408D01*
X514000Y345506D01*
X518592Y347408D01*
X519848Y347173D01*
X521408Y343408D01*
X526000Y341506D01*
X527061Y341945D01*
X527945Y341061D01*
X527506Y340000D01*
X529408Y335408D01*
X534000Y333506D01*
X535813Y334257D01*
X537408Y330408D01*
X542000Y328506D01*
X546592Y330408D01*
X547168Y331798D01*
X548418D01*
X549408Y329408D01*
X554000Y327506D01*
X558592Y329408D01*
X559927Y332629D01*
X561543D01*
X561629Y332500D01*
X562665Y330000D01*
X561629Y327500D01*
X562665Y325000D01*
X561629Y322500D01*
X562665Y320000D01*
X561629Y317500D01*
X563056Y314056D01*
X565847Y312900D01*
D01*
X566500Y312629D01*
X575000D01*
Y302047D01*
X578534D01*
X584047Y296534D01*
Y284920D01*
X583459Y283500D01*
X596541D01*
X595953Y284920D01*
Y299000D01*
X594210Y303209D01*
X586040Y311379D01*
X586558Y312629D01*
X590482D01*
X604129Y298983D01*
Y263000D01*
X605556Y259556D01*
X635086Y230026D01*
X634608Y228871D01*
X619017D01*
X559871Y288018D01*
Y295000D01*
Y306000D01*
X558444Y309444D01*
X555000Y310871D01*
X552500Y309835D01*
X550000Y310871D01*
X547500Y309835D01*
X545000Y310871D01*
X542500Y309835D01*
X540000Y310871D01*
X537500Y309835D01*
X535000Y310871D01*
X532500Y309835D01*
X530000Y310871D01*
X527500Y309835D01*
X525000Y310871D01*
X522500Y309835D01*
X520000Y310871D01*
X517500Y309835D01*
X515000Y310871D01*
X512500Y309835D01*
X510000Y310871D01*
X509871Y310957D01*
Y317080D01*
D01*
X511494Y321000D01*
X509592Y325592D01*
X505191Y327415D01*
X504227Y328354D01*
X504494Y329000D01*
X502592Y333592D01*
X498000Y335494D01*
X494272Y333950D01*
X493592Y335592D01*
X489000Y337494D01*
X484866Y335782D01*
X484866D01*
X484408Y335592D01*
X483592Y335592D01*
X483134Y335782D01*
D01*
X479000Y337494D01*
X474408Y335592D01*
X472506Y331000D01*
X474403Y326419D01*
X472408Y325592D01*
X471376Y326194D01*
X470444Y328444D01*
X464520Y334368D01*
X464813Y335843D01*
X468592Y337408D01*
X470494Y342000D01*
X468592Y346592D01*
X464000Y348494D01*
X460080Y346871D01*
X444506D01*
X443000Y347494D01*
X438408Y345592D01*
X436506Y341000D01*
X436611Y340745D01*
X436500Y340634D01*
Y333000D01*
Y326006D01*
X436506Y326000D01*
X437371Y323910D01*
X436677Y322871D01*
X432500D01*
X429334Y321559D01*
X428499Y322167D01*
X428326Y322392D01*
X428371Y322500D01*
X427335Y325000D01*
X428014Y326638D01*
X428534Y327468D01*
X429526Y327277D01*
X431500Y326459D01*
Y333000D01*
Y339541D01*
X428643Y338358D01*
X428016D01*
X427335Y340000D01*
X428371Y342500D01*
X427335Y345000D01*
X428371Y347500D01*
X427335Y350000D01*
X428371Y352500D01*
X427335Y355000D01*
X428371Y357500D01*
X427335Y360000D01*
X428371Y362500D01*
X427747Y364006D01*
X427953Y364391D01*
X429492Y364620D01*
X432784Y361328D01*
X434266Y357751D01*
X434408Y357408D01*
X439000Y355506D01*
X443592Y357408D01*
X445494Y362000D01*
X445287Y362500D01*
X444909Y363414D01*
D01*
X445000Y363506D01*
X449592Y365408D01*
X451494Y370000D01*
X449782Y374133D01*
X449653Y375000D01*
X449782Y375867D01*
X451407Y379789D01*
X453000Y379129D01*
X461000D01*
X464444Y380556D01*
X465871Y384000D01*
X464444Y387444D01*
X461000Y388871D01*
X456909D01*
X456214Y389910D01*
X457494Y393000D01*
X455592Y397592D01*
X451000Y399494D01*
X446408Y397592D01*
X446316Y397371D01*
X428457D01*
X428371Y397500D01*
X427335Y400000D01*
X428371Y402500D01*
X427335Y405000D01*
X428371Y407500D01*
X427335Y410000D01*
X428371Y412500D01*
X427335Y415000D01*
X428371Y417500D01*
X427335Y420000D01*
X428371Y422500D01*
X427335Y425000D01*
X428371Y427500D01*
X427335Y430000D01*
X428371Y432500D01*
X427335Y435000D01*
X428371Y437500D01*
X426944Y440944D01*
X423500Y442371D01*
X323517D01*
X246871Y519017D01*
Y561920D01*
X248097Y562164D01*
X249581Y558581D01*
X258000Y555094D01*
X266419Y558581D01*
X268797Y564322D01*
X270047Y564073D01*
Y535000D01*
X271791Y530790D01*
X284790Y517790D01*
X289000Y516047D01*
X309291D01*
X310122Y514797D01*
X309170Y512500D01*
Y509500D01*
X331830D01*
Y512500D01*
X330844Y514879D01*
X331627Y516129D01*
X336080D01*
X340000Y514506D01*
X344592Y516408D01*
X346494Y521000D01*
X344592Y525592D01*
X340000Y527494D01*
X336080Y525871D01*
X330747D01*
Y527500D01*
X329796Y529796D01*
X327500Y530747D01*
X313500D01*
X311204Y529796D01*
X310441Y527953D01*
X291466D01*
X281953Y537466D01*
Y612000D01*
X280210Y616209D01*
X254956Y641463D01*
Y685396D01*
X258952Y687052D01*
X261077Y692181D01*
X262327D01*
X264452Y687051D01*
D02*
G37*
G36*
X819129Y271982D02*
Y205920D01*
X818235Y203762D01*
X817010Y203518D01*
X757604Y262924D01*
X757991Y263859D01*
Y266359D01*
X743250D01*
X728508D01*
Y263859D01*
X730558Y258910D01*
X729864Y257871D01*
X700323D01*
X699629Y258910D01*
X700494Y261000D01*
X698592Y265592D01*
X696871Y266305D01*
Y300109D01*
X695444Y303553D01*
X691390Y307607D01*
X691909Y308859D01*
Y318859D01*
X689372Y324982D01*
X683250Y327518D01*
X683120D01*
Y334129D01*
X756982D01*
X819129Y271982D01*
D02*
G37*
G36*
X802530Y125582D02*
Y74554D01*
X797451Y72451D01*
X795325Y67317D01*
X794075D01*
X791949Y72449D01*
X786870Y74553D01*
Y93001D01*
X785443Y96445D01*
X771449Y110439D01*
X768005Y111866D01*
X730012D01*
X639571Y202307D01*
X639864Y203781D01*
X642920Y205047D01*
X670061D01*
X670642Y203642D01*
X673500Y202459D01*
Y209000D01*
X676000D01*
Y211500D01*
X683256D01*
X683509Y211879D01*
X684970D01*
X686408Y208408D01*
X691000Y206506D01*
X695592Y208408D01*
X697494Y213000D01*
X695592Y217592D01*
X694841Y217903D01*
X695085Y219129D01*
X708982D01*
X802530Y125582D01*
D02*
G37*
G36*
X120129Y476982D02*
Y453000D01*
X121556Y449556D01*
X130656Y440456D01*
X134100Y439029D01*
X135446D01*
X137550Y433950D01*
X141373Y432367D01*
Y431117D01*
X136784Y429216D01*
X133381Y421001D01*
X147499D01*
Y416001D01*
X133381D01*
X136784Y407786D01*
X141374Y405885D01*
Y404635D01*
X137549Y403051D01*
X136893Y401465D01*
X135667Y401222D01*
X125871Y411017D01*
Y425000D01*
X124444Y428444D01*
X109621Y443268D01*
Y469637D01*
X110703Y472250D01*
Y483250D01*
X109720Y485624D01*
X110779Y486332D01*
X120129Y476982D01*
D02*
G37*
G36*
X485450Y252550D02*
X490529Y250446D01*
Y243747D01*
X488400D01*
X486104Y242796D01*
X485153Y240500D01*
Y229500D01*
X485512Y228633D01*
X485339Y228561D01*
X484899Y227500D01*
X484071Y225500D01*
Y222500D01*
X495400D01*
X506730D01*
Y222749D01*
X507884Y223227D01*
X509129Y221982D01*
Y206017D01*
X459112Y156000D01*
X397557Y94445D01*
X396130Y91001D01*
Y74554D01*
X391051Y72451D01*
X388967Y67420D01*
X387770Y67406D01*
X387245Y68390D01*
X387871Y69900D01*
Y144677D01*
X388910Y145371D01*
X391000Y144506D01*
X394920Y146129D01*
X435080D01*
X439000Y144506D01*
X443592Y146408D01*
X445494Y151000D01*
X443592Y155592D01*
X439000Y157494D01*
X435080Y155871D01*
X394920D01*
X391000Y157494D01*
X388910Y156629D01*
X387871Y157323D01*
Y157446D01*
Y185982D01*
X425016Y223127D01*
X426170Y222649D01*
Y222500D01*
X437500D01*
X448829D01*
Y225500D01*
X448441Y226439D01*
X447898Y227750D01*
D01*
X447561Y228561D01*
X447388Y228633D01*
X447747Y229500D01*
Y240500D01*
X446796Y242796D01*
X444500Y243747D01*
X442371D01*
Y248227D01*
X443410Y248922D01*
X444600Y248429D01*
X454550Y252550D01*
X456675Y257681D01*
X457925D01*
X460050Y252550D01*
X470000Y248429D01*
X479950Y252550D01*
X482075Y257681D01*
X483325D01*
X485450Y252550D01*
D02*
G37*
G36*
X101306Y437806D02*
X116129Y422982D01*
Y409000D01*
X117556Y405556D01*
X118754Y404357D01*
X118511Y403131D01*
X116643Y402357D01*
X115459Y399500D01*
X122000D01*
Y397000D01*
X124500D01*
Y390459D01*
X127358Y391642D01*
X128131Y393511D01*
X129357Y393754D01*
X133455Y389657D01*
X135145Y388957D01*
X137549Y383151D01*
X142680Y381026D01*
Y379776D01*
X137549Y377651D01*
X133428Y367701D01*
X137549Y357751D01*
X142680Y355626D01*
Y354376D01*
X137549Y352251D01*
X133428Y342301D01*
X137549Y332351D01*
X142679Y330226D01*
Y328976D01*
X137549Y326851D01*
X133427Y316902D01*
X137549Y306952D01*
X142679Y304827D01*
Y303577D01*
X137549Y301451D01*
X134480Y294042D01*
X133763Y294018D01*
X133178Y294167D01*
X132296Y296296D01*
X131296Y297296D01*
X129000Y298247D01*
X102487D01*
X102180Y298120D01*
X101854Y298185D01*
X101250Y297781D01*
X100757Y297923D01*
X100000Y298570D01*
Y396522D01*
X101500Y397143D01*
X104750Y395797D01*
X108960Y397541D01*
X110703Y401750D01*
Y412750D01*
X108960Y416959D01*
X104750Y418703D01*
X101500Y417357D01*
X100000Y417978D01*
Y437755D01*
X101226Y437999D01*
X101306Y437806D01*
D02*
G37*
G36*
X130000Y294000D02*
Y81000D01*
X136452D01*
X137549Y78352D01*
X142682Y76226D01*
Y74976D01*
X137550Y72850D01*
X133429Y62900D01*
X137550Y52950D01*
X147500Y48829D01*
X157450Y52950D01*
X159554Y58029D01*
X168900D01*
X172344Y59456D01*
X188444Y75556D01*
X189871Y79000D01*
Y81000D01*
X192931D01*
Y74555D01*
X187852Y72451D01*
X183731Y62502D01*
X187852Y52552D01*
X197802Y48431D01*
X207751Y52552D01*
X209877Y57683D01*
X211127D01*
X213252Y52552D01*
X223202Y48431D01*
X233151Y52552D01*
X235276Y57681D01*
X236526D01*
X238651Y52551D01*
X248601Y48430D01*
X258551Y52551D01*
X260676Y57682D01*
X261926D01*
X264051Y52551D01*
X274001Y48430D01*
X283951Y52551D01*
X286076Y57682D01*
X287326D01*
X289451Y52551D01*
X299401Y48430D01*
X309351Y52551D01*
X310935Y56375D01*
X312185D01*
X314086Y51786D01*
X322301Y48383D01*
Y62501D01*
X327301D01*
Y48383D01*
X335516Y51786D01*
X337416Y56374D01*
X338666D01*
X340250Y52550D01*
X344000Y50997D01*
Y30000D01*
X334000Y20000D01*
X11000D01*
X11000Y81000D01*
X11000D01*
Y295000D01*
X50479D01*
X50957Y293845D01*
X36556Y279444D01*
X35129Y276000D01*
Y262789D01*
X31581Y261319D01*
X28094Y252900D01*
X31581Y244481D01*
X40000Y240994D01*
X48419Y244481D01*
X51906Y252900D01*
X48419Y261319D01*
X44871Y262789D01*
Y273983D01*
X65888Y295000D01*
X78581D01*
X78704Y294704D01*
X81000Y293753D01*
X88859D01*
X93029Y289583D01*
Y259239D01*
X91990Y258544D01*
X91500Y258747D01*
X82141D01*
X78216Y262673D01*
X76592Y266592D01*
X72000Y268494D01*
X67408Y266592D01*
X65506Y262000D01*
X67408Y257408D01*
X71328Y255784D01*
X75253Y251859D01*
Y245500D01*
X75841Y244081D01*
X75439Y242561D01*
X74170Y239500D01*
Y237000D01*
X85000D01*
Y234500D01*
X87500D01*
Y225170D01*
X91500D01*
X91990Y225373D01*
X93029Y224679D01*
Y172389D01*
X89481Y170919D01*
X86418Y163524D01*
X85065D01*
X81684Y171684D01*
X75000Y174453D01*
Y162500D01*
Y150547D01*
X81684Y153316D01*
X85065Y161476D01*
X86418D01*
X89481Y154081D01*
X97900Y150594D01*
X106319Y154081D01*
X109806Y162500D01*
X106319Y170919D01*
X102771Y172389D01*
Y291600D01*
X101793Y293961D01*
X102487Y295000D01*
X129000D01*
X130000Y294000D01*
D02*
G37*
G36*
X640129Y305982D02*
Y286904D01*
X639090Y286210D01*
X639000Y286247D01*
X636871D01*
Y289080D01*
X638494Y293000D01*
X636592Y297592D01*
X632000Y299494D01*
X627408Y297592D01*
X625506Y293000D01*
X627129Y289080D01*
Y286247D01*
X625000D01*
X622704Y285296D01*
X621753Y283000D01*
Y272000D01*
X622112Y271133D01*
X621939Y271061D01*
X620671Y268000D01*
Y265000D01*
X632000D01*
Y260000D01*
X620671D01*
Y259851D01*
X619516Y259373D01*
X613871Y265018D01*
Y301000D01*
X612444Y304444D01*
X600414Y316474D01*
X600892Y317629D01*
X628483D01*
X640129Y305982D01*
D02*
G37*
G36*
X866047Y261229D02*
Y257000D01*
X867791Y252791D01*
X911545Y209035D01*
Y150306D01*
X907549Y148651D01*
X905965Y144826D01*
X904715D01*
X902814Y149416D01*
X894599Y152819D01*
Y138701D01*
X892099D01*
Y136201D01*
X877981D01*
X881384Y127986D01*
X884667Y126626D01*
Y125376D01*
X881384Y124016D01*
X877981Y115801D01*
X892099D01*
Y110801D01*
X877981D01*
X881384Y102586D01*
X884665Y101226D01*
Y99976D01*
X881383Y98617D01*
X877980Y90402D01*
X892098D01*
Y85402D01*
X877980D01*
X881383Y77186D01*
X884667Y75826D01*
Y74576D01*
X881384Y73216D01*
X877981Y65001D01*
X892099D01*
Y62501D01*
X894599D01*
Y48383D01*
X902814Y51786D01*
X904715Y56375D01*
X905965D01*
X907549Y52551D01*
X917499Y48430D01*
X927448Y52551D01*
X931570Y62501D01*
X927448Y72451D01*
X923452Y74106D01*
Y76297D01*
X927448Y77952D01*
X931569Y87902D01*
X927448Y97851D01*
X923451Y99507D01*
Y101695D01*
X927448Y103351D01*
X931570Y113301D01*
X927448Y123251D01*
X923452Y124906D01*
Y127096D01*
X927448Y128751D01*
X929104Y132748D01*
X950000D01*
Y25000D01*
X345225D01*
X344747Y26155D01*
X346296Y27704D01*
X347247Y30000D01*
Y47445D01*
X347700Y47747D01*
Y62500D01*
Y76618D01*
X339485Y73215D01*
X337584Y68627D01*
X336334D01*
X334751Y72451D01*
X329672Y74554D01*
Y135783D01*
X348444Y154556D01*
X349871Y158000D01*
Y163080D01*
X351494Y167000D01*
X349592Y171592D01*
X345000Y173494D01*
X340408Y171592D01*
X338506Y167000D01*
X340129Y163080D01*
Y160018D01*
X321357Y141245D01*
X319930Y137801D01*
Y74554D01*
X314851Y72451D01*
X312726Y67320D01*
X311476D01*
X309351Y72451D01*
X299401Y76572D01*
X289451Y72451D01*
X287326Y67320D01*
X286076D01*
X283951Y72451D01*
X274001Y76572D01*
X264051Y72451D01*
X261926Y67320D01*
X260676D01*
X258551Y72451D01*
X253472Y74554D01*
Y92583D01*
X357018Y196129D01*
X372608D01*
X373086Y194974D01*
X367556Y189444D01*
X366129Y186000D01*
Y182559D01*
X365642Y182358D01*
X364459Y179500D01*
X371000D01*
Y177000D01*
X373500D01*
Y170459D01*
X376357Y171642D01*
X376903Y172960D01*
X378129Y172716D01*
Y76648D01*
X377090Y75954D01*
X375600Y76571D01*
X365650Y72450D01*
X364066Y68626D01*
X362816D01*
X360915Y73215D01*
X352700Y76618D01*
Y62500D01*
Y48382D01*
X360915Y51785D01*
X362816Y56374D01*
X364066D01*
X365650Y52550D01*
X375600Y48429D01*
X385550Y52550D01*
X387676Y57682D01*
X388926D01*
X391051Y52551D01*
X401001Y48430D01*
X410951Y52551D01*
X413076Y57682D01*
X414326D01*
X416451Y52551D01*
X426401Y48430D01*
X436351Y52551D01*
X438475Y57681D01*
X439725D01*
X441850Y52550D01*
X451800Y48429D01*
X461750Y52550D01*
X463875Y57681D01*
X465125D01*
X467250Y52550D01*
X477200Y48429D01*
X487150Y52550D01*
X489275Y57681D01*
X490525D01*
X492650Y52550D01*
X502600Y48429D01*
X512550Y52550D01*
X514675Y57681D01*
X515925D01*
X518050Y52550D01*
X528000Y48429D01*
X537950Y52550D01*
X540074Y57680D01*
X541324D01*
X543449Y52549D01*
X553399Y48428D01*
X563349Y52549D01*
X565474Y57680D01*
X566724D01*
X568849Y52549D01*
X578799Y48428D01*
X588749Y52549D01*
X590875Y57683D01*
X592125D01*
X594251Y52551D01*
X604201Y48430D01*
X614151Y52551D01*
X616276Y57682D01*
X617526D01*
X619651Y52551D01*
X629601Y48430D01*
X639551Y52551D01*
X641675Y57680D01*
X642925D01*
X645050Y52550D01*
X655000Y48429D01*
X664950Y52550D01*
X667075Y57681D01*
X668325D01*
X670450Y52550D01*
X680400Y48429D01*
X690350Y52550D01*
X692475Y57681D01*
X693725D01*
X695850Y52550D01*
X705800Y48429D01*
X715750Y52550D01*
X717875Y57681D01*
X719125D01*
X721250Y52550D01*
X731200Y48429D01*
X741150Y52550D01*
X743274Y57680D01*
X744524D01*
X746649Y52549D01*
X756599Y48428D01*
X766549Y52549D01*
X768674Y57680D01*
X769924D01*
X772049Y52549D01*
X781999Y48428D01*
X791949Y52549D01*
X794075Y57683D01*
X795325D01*
X797451Y52551D01*
X807401Y48430D01*
X817350Y52551D01*
X821288Y62056D01*
X822627Y62485D01*
X826057Y59055D01*
X829501Y57628D01*
X840446D01*
X842549Y52549D01*
X852499Y48428D01*
X862449Y52549D01*
X866570Y62499D01*
X862449Y72449D01*
X857318Y74574D01*
Y75824D01*
X862449Y77949D01*
X866570Y87899D01*
X862449Y97849D01*
X857320Y99974D01*
Y101224D01*
X862450Y103349D01*
X866571Y113298D01*
X862450Y123248D01*
X857319Y125373D01*
Y126623D01*
X862450Y128749D01*
X866571Y138698D01*
X862450Y148648D01*
X857319Y150773D01*
Y152023D01*
X862450Y154149D01*
X866571Y164098D01*
X862450Y174048D01*
X857319Y176173D01*
Y177423D01*
X862450Y179549D01*
X866571Y189498D01*
X862450Y199448D01*
X857320Y201573D01*
Y202823D01*
X862451Y204948D01*
X866572Y214898D01*
X862451Y224847D01*
X857320Y226973D01*
Y228223D01*
X862451Y230348D01*
X866572Y240298D01*
X862451Y250247D01*
X857318Y252373D01*
Y253623D01*
X862450Y255749D01*
X864821Y261473D01*
X866047Y261229D01*
D02*
G37*
G36*
X1022000Y673000D02*
X1022000Y340000D01*
X1006352D01*
Y342142D01*
X1009184Y343316D01*
X1011953Y350000D01*
X1000000D01*
Y352500D01*
X997500D01*
Y364453D01*
X991992Y362172D01*
X990953Y362866D01*
Y432062D01*
X991296Y432204D01*
X992247Y434500D01*
Y444500D01*
X991659Y445919D01*
X992061Y447439D01*
X993329Y450500D01*
Y453000D01*
X982500D01*
Y458000D01*
X993329D01*
Y458206D01*
X994854D01*
X997870Y456957D01*
X1001457Y453370D01*
X1002706Y450354D01*
Y442586D01*
X1002953Y441990D01*
Y441344D01*
X1003410Y440887D01*
X1003657Y440290D01*
X1004254Y440043D01*
X1004710Y439586D01*
X1005865Y439108D01*
X1006511D01*
X1007108Y438861D01*
X1007705Y439108D01*
X1008351D01*
X1008807Y439565D01*
X1009404Y439812D01*
X1012296Y442704D01*
X1013247Y445000D01*
Y476000D01*
X1012296Y478296D01*
X1002296Y488296D01*
X1000000Y489247D01*
X978500D01*
X977997Y490000D01*
Y536000D01*
X977046Y538296D01*
X974750Y539247D01*
X961250D01*
X958954Y538296D01*
X958003Y536000D01*
Y490000D01*
X957500Y489247D01*
X954183D01*
X953680Y490000D01*
Y510500D01*
X942600D01*
Y513000D01*
X940100D01*
Y540330D01*
X935850D01*
X933939Y539538D01*
X933247Y540000D01*
X932296Y542296D01*
X930000Y543247D01*
X927706D01*
X927156Y543019D01*
X926561Y543038D01*
X926053Y542562D01*
X925410Y542296D01*
X925182Y541746D01*
X924748Y541339D01*
X924182Y540089D01*
X924161Y540013D01*
X924140Y539993D01*
X923177Y539247D01*
X910450D01*
X910259Y539938D01*
Y539993D01*
X910239Y540014D01*
X910218Y540089D01*
X909652Y541339D01*
X909218Y541746D01*
X908990Y542296D01*
X908347Y542562D01*
X907839Y543038D01*
X907244Y543019D01*
X906694Y543247D01*
X894000D01*
X891704Y542296D01*
X890753Y540000D01*
Y467000D01*
X891704Y464704D01*
X924704Y431704D01*
X927000Y430753D01*
X971336D01*
X971644Y430880D01*
X971970Y430815D01*
X972757Y431341D01*
X973632Y431704D01*
X973760Y432011D01*
X973916Y432116D01*
X976000Y431253D01*
X979047D01*
Y361924D01*
X977797Y361177D01*
X970000Y364406D01*
X961581Y360919D01*
X958094Y352500D01*
X961581Y344081D01*
X968416Y341250D01*
X968167Y340000D01*
X886953D01*
Y405534D01*
X892966Y411547D01*
X905560D01*
X906581Y409081D01*
X915000Y405594D01*
X923419Y409081D01*
X926906Y417500D01*
X923419Y425919D01*
X915000Y429406D01*
X906581Y425919D01*
X905560Y423453D01*
X890500D01*
X886291Y421710D01*
X876790Y412210D01*
X875047Y408000D01*
Y340000D01*
X870000D01*
X870000Y720000D01*
X899333D01*
X899577Y718774D01*
X898450Y718307D01*
X896693Y716550D01*
X890352Y701243D01*
Y700000D01*
Y698757D01*
X896693Y683450D01*
X898450Y681693D01*
X913757Y675352D01*
X914403D01*
X915000Y675105D01*
X915597Y675352D01*
X916243D01*
X931550Y681693D01*
X933307Y683450D01*
X939648Y698757D01*
Y700000D01*
Y701243D01*
X933307Y716550D01*
X931550Y718307D01*
X930423Y718774D01*
X930667Y720000D01*
X975000D01*
X1022000Y673000D01*
D02*
G37*
G36*
X911590Y723750D02*
X903194Y720272D01*
X902518Y720633D01*
X901991Y721421D01*
X901629Y722296D01*
X901322Y722423D01*
X901137Y722700D01*
X900208Y722885D01*
X899333Y723247D01*
X870000D01*
X867704Y722296D01*
X866753Y720000D01*
Y674926D01*
X865503Y674677D01*
X862450Y682048D01*
X852500Y686170D01*
X842550Y682048D01*
X840446Y676969D01*
X820098D01*
X816654Y675543D01*
X813921Y672809D01*
X812671Y673327D01*
Y684946D01*
X817750Y687049D01*
X821871Y696999D01*
X817750Y706949D01*
X807800Y711070D01*
X797850Y706949D01*
X795725Y701818D01*
X794475D01*
X792350Y706949D01*
X782400Y711070D01*
X772450Y706949D01*
X770325Y701820D01*
X769076D01*
X766951Y706950D01*
X757001Y711071D01*
X747051Y706950D01*
X744926Y701819D01*
X743676D01*
X741551Y706950D01*
X731601Y711071D01*
X721651Y706950D01*
X719526Y701819D01*
X718276D01*
X716151Y706950D01*
X706201Y711071D01*
X696251Y706950D01*
X694667Y703126D01*
X693417D01*
X691516Y707715D01*
X683301Y711118D01*
Y697000D01*
Y682882D01*
X691516Y686285D01*
X693417Y690874D01*
X694667D01*
X696251Y687050D01*
X706201Y682929D01*
X716151Y687050D01*
X718276Y692181D01*
X719526D01*
X721651Y687050D01*
X726730Y684946D01*
Y656618D01*
X713982Y643871D01*
X696000D01*
X692556Y642444D01*
X546026Y495914D01*
X544871Y496392D01*
Y507000D01*
X543444Y510444D01*
X539944Y513944D01*
X536500Y515371D01*
X534247D01*
Y516000D01*
X533296Y518296D01*
X531000Y519247D01*
X529871D01*
Y546080D01*
X531494Y550000D01*
X529592Y554592D01*
X525000Y556494D01*
X520408Y554592D01*
X518506Y550000D01*
X520129Y546080D01*
Y519247D01*
X517000D01*
X514704Y518296D01*
X513753Y516000D01*
Y505000D01*
X514112Y504133D01*
X513939Y504062D01*
X512671Y501000D01*
Y498000D01*
X524000D01*
Y493000D01*
X512671D01*
Y490000D01*
X513044Y489098D01*
X510910Y488214D01*
X509871Y488909D01*
Y550983D01*
X557246Y598358D01*
X558672Y601802D01*
Y684947D01*
X563751Y687051D01*
X565876Y692180D01*
X567126D01*
X569251Y687050D01*
X579201Y682929D01*
X589151Y687050D01*
X591276Y692181D01*
X592526D01*
X594651Y687050D01*
X604601Y682929D01*
X614551Y687050D01*
X616676Y692182D01*
X617926D01*
X620052Y687051D01*
X630002Y682930D01*
X639951Y687051D01*
X642077Y692182D01*
X643327D01*
X645452Y687051D01*
X655402Y682930D01*
X665351Y687051D01*
X666935Y690874D01*
X668185D01*
X670086Y686285D01*
X678301Y682882D01*
Y697000D01*
Y711118D01*
X670086Y707715D01*
X668185Y703127D01*
X666935D01*
X665351Y706951D01*
X655402Y711072D01*
X645452Y706951D01*
X643327Y701820D01*
X642077D01*
X639951Y706951D01*
X630002Y711072D01*
X620052Y706951D01*
X617926Y701818D01*
X616676D01*
X614551Y706950D01*
X604601Y711071D01*
X594651Y706950D01*
X592526Y701819D01*
X591276D01*
X589151Y706950D01*
X579201Y711071D01*
X569251Y706950D01*
X567126Y701820D01*
X565876D01*
X563751Y706951D01*
X553802Y711072D01*
X543852Y706951D01*
X541727Y701820D01*
X540477D01*
X538351Y706951D01*
X528402Y711072D01*
X518452Y706951D01*
X516327Y701820D01*
X515077D01*
X512951Y706951D01*
X503002Y711072D01*
X493052Y706951D01*
X490927Y701820D01*
X489677D01*
X487551Y706951D01*
X477602Y711072D01*
X467652Y706951D01*
X465527Y701821D01*
X464277D01*
X462152Y706951D01*
X452202Y711073D01*
X442253Y706951D01*
X440127Y701821D01*
X438877D01*
X436752Y706951D01*
X426802Y711073D01*
X416853Y706951D01*
X414726Y701818D01*
X413476D01*
X411351Y706950D01*
X401401Y711071D01*
X391451Y706950D01*
X389326Y701819D01*
X388076D01*
X385951Y706950D01*
X376001Y711071D01*
X366051Y706950D01*
X363926Y701820D01*
X362676D01*
X360551Y706951D01*
X350602Y711072D01*
X340652Y706951D01*
X338527Y701820D01*
X337277D01*
X335151Y706951D01*
X325202Y711072D01*
X315252Y706951D01*
X313127Y701820D01*
X311877D01*
X309751Y706951D01*
X299802Y711072D01*
X289852Y706951D01*
X287727Y701820D01*
X286477D01*
X284351Y706951D01*
X274402Y711072D01*
X264452Y706951D01*
X262327Y701821D01*
X261077D01*
X258952Y706951D01*
X249002Y711073D01*
X239053Y706951D01*
X237469Y703127D01*
X236219D01*
X234318Y707717D01*
X226102Y711120D01*
Y697002D01*
Y682884D01*
X234318Y686286D01*
X236219Y690876D01*
X237469D01*
X239053Y687052D01*
X243049Y685396D01*
Y638998D01*
X244793Y634788D01*
X270047Y609534D01*
Y569927D01*
X268797Y569678D01*
X266419Y575419D01*
X258000Y578906D01*
X249581Y575419D01*
X248097Y571836D01*
X246871Y572080D01*
Y625000D01*
X245444Y628444D01*
X197945Y675943D01*
X194501Y677370D01*
X159554D01*
X157451Y682449D01*
X147501Y686570D01*
X137551Y682449D01*
X133430Y672499D01*
X137551Y662549D01*
X142682Y660424D01*
Y659174D01*
X137551Y657049D01*
X133430Y647099D01*
X137551Y637149D01*
X142681Y635025D01*
Y633775D01*
X137550Y631650D01*
X133429Y621700D01*
X137550Y611750D01*
X142681Y609625D01*
Y608375D01*
X137550Y606250D01*
X133429Y596300D01*
X137550Y586350D01*
X142681Y584225D01*
Y582975D01*
X137550Y580850D01*
X133429Y570900D01*
X137550Y560950D01*
X142681Y558825D01*
Y557575D01*
X137550Y555450D01*
X133429Y545500D01*
X137550Y535550D01*
X142680Y533426D01*
Y532176D01*
X137549Y530051D01*
X133428Y520101D01*
X137549Y510151D01*
X142680Y508026D01*
Y506776D01*
X137549Y504651D01*
X133428Y494701D01*
X137549Y484751D01*
X142682Y482625D01*
Y481375D01*
X137550Y479250D01*
X133429Y469300D01*
X137550Y459350D01*
X142681Y457225D01*
Y455975D01*
X137550Y453850D01*
X136074Y450285D01*
X134847Y450041D01*
X129871Y455018D01*
Y479000D01*
X128444Y482444D01*
X114444Y496444D01*
X111000Y497871D01*
X100000D01*
Y575171D01*
X104129D01*
Y564559D01*
X103643Y564357D01*
X102459Y561500D01*
X115541D01*
X114358Y564357D01*
X113871Y564559D01*
Y575171D01*
X120250D01*
X123312Y576438D01*
X124580Y579500D01*
Y582000D01*
X109000D01*
Y587000D01*
X124580D01*
Y589500D01*
X123497Y592113D01*
Y597000D01*
X122876Y598500D01*
X123497Y600000D01*
Y605000D01*
X122876Y606500D01*
X123497Y608000D01*
Y613000D01*
X122979Y614250D01*
X123497Y615500D01*
Y625500D01*
X122546Y627796D01*
X120250Y628747D01*
X100000D01*
Y725000D01*
X911341D01*
X911590Y723750D01*
D02*
G37*
G36*
X712910Y371590D02*
X712459Y370500D01*
X719000D01*
Y368000D01*
X721500D01*
Y361459D01*
X724358Y362643D01*
X724838Y363803D01*
X726064Y364047D01*
X726258Y363853D01*
X729702Y362427D01*
X731573D01*
X732000Y362000D01*
X840624D01*
X842551Y357348D01*
X847682Y355223D01*
Y353973D01*
X842551Y351847D01*
X838430Y341898D01*
X842551Y331948D01*
X846375Y330364D01*
Y329114D01*
X841786Y327213D01*
X838383Y318998D01*
X852501D01*
Y313998D01*
X838383D01*
X841786Y305782D01*
X846374Y303882D01*
Y302632D01*
X842550Y301048D01*
X839217Y293000D01*
X813000D01*
X760000Y346000D01*
X672256D01*
X671691Y347250D01*
X672830Y350000D01*
Y352500D01*
X662000D01*
Y355000D01*
X659500D01*
Y364329D01*
X655500D01*
X655369Y364275D01*
X654330Y364970D01*
Y366500D01*
X653061Y369561D01*
X650000Y370830D01*
X647000D01*
Y359500D01*
Y348170D01*
X650000D01*
X651646Y348852D01*
X652309Y347250D01*
X651744Y346000D01*
X639000D01*
X637605Y347395D01*
X638313Y348455D01*
X639000Y348170D01*
X642000D01*
Y359500D01*
Y370830D01*
X639000D01*
X638039Y370432D01*
X637000Y371126D01*
Y372629D01*
X712216D01*
X712910Y371590D01*
D02*
G37*
G36*
X950000Y285953D02*
X924440D01*
X923419Y288419D01*
X915000Y291906D01*
X906581Y288419D01*
X903094Y280000D01*
X906581Y271581D01*
X915000Y268094D01*
X923419Y271581D01*
X924440Y274047D01*
X950000D01*
Y215052D01*
X948845Y214574D01*
X886953Y276466D01*
Y336753D01*
X950000D01*
Y285953D01*
D02*
G37*
G36*
X633753Y371126D02*
X633555Y370830D01*
X632000D01*
Y359500D01*
Y348170D01*
X633840D01*
X634196Y347636D01*
X634451Y346920D01*
X634420Y346762D01*
X634946Y345974D01*
X635308Y345099D01*
X636704Y343704D01*
X639000Y342753D01*
X651744D01*
X652253Y342413D01*
Y337355D01*
X651214Y336661D01*
X649500Y337371D01*
X583457D01*
X583371Y337500D01*
X582335Y340000D01*
X583371Y342500D01*
X582335Y345000D01*
X583371Y347500D01*
X582335Y350000D01*
X583371Y352500D01*
X582335Y355000D01*
X583371Y357500D01*
X582335Y360000D01*
X583371Y362500D01*
X582335Y365000D01*
X583371Y367500D01*
X583457Y367629D01*
X606483D01*
X618056Y356056D01*
X619670Y355387D01*
Y352500D01*
X620938Y349439D01*
X624000Y348170D01*
X627000D01*
Y359500D01*
Y370830D01*
X624000D01*
X620938Y369561D01*
X620604Y368754D01*
X619378Y368510D01*
X616414Y371474D01*
X616892Y372629D01*
X633753D01*
Y371126D01*
D02*
G37*
%LPC*%
G36*
X424330Y245500D02*
X415500D01*
Y238171D01*
X420000D01*
X423061Y239439D01*
X424330Y242500D01*
Y245500D01*
D02*
G37*
G36*
X955500Y460830D02*
X953000D01*
X949939Y459562D01*
X948419Y459159D01*
X947000Y459747D01*
X937000D01*
X934704Y458796D01*
X933753Y456500D01*
Y455953D01*
X930306D01*
X929000Y456494D01*
X924408Y454592D01*
X922506Y450000D01*
X924408Y445408D01*
X929000Y443506D01*
X930306Y444047D01*
X933753D01*
Y443500D01*
X934704Y441204D01*
X937000Y440253D01*
X947000D01*
X948419Y440841D01*
X949939Y440438D01*
X953000Y439170D01*
X955500D01*
Y450000D01*
Y460830D01*
D02*
G37*
G36*
X928280Y510500D02*
X919700D01*
Y485670D01*
X923950D01*
X927011Y486939D01*
X928280Y490000D01*
Y510500D01*
D02*
G37*
G36*
X914700D02*
X906120D01*
Y490000D01*
X907389Y486939D01*
X910450Y485670D01*
X914700D01*
Y510500D01*
D02*
G37*
G36*
X967330Y447500D02*
X960500D01*
Y439170D01*
X963000D01*
X966061Y440438D01*
X967330Y443500D01*
Y447500D01*
D02*
G37*
G36*
X963000Y460830D02*
X960500D01*
Y452500D01*
X967330D01*
Y456500D01*
X966061Y459561D01*
X963000Y460830D01*
D02*
G37*
G36*
X413500Y500541D02*
X410643Y499357D01*
X409459Y496500D01*
X413500D01*
Y500541D01*
D02*
G37*
G36*
X596541Y278500D02*
X592500D01*
Y274459D01*
X595358Y275643D01*
X596541Y278500D01*
D02*
G37*
G36*
X587500D02*
X583459D01*
X584642Y275643D01*
X587500Y274459D01*
Y278500D01*
D02*
G37*
G36*
X308000Y578906D02*
X299581Y575419D01*
X296094Y567000D01*
X299581Y558581D01*
X308000Y555094D01*
X316419Y558581D01*
X319906Y567000D01*
X316419Y575419D01*
X308000Y578906D01*
D02*
G37*
G36*
X350541Y491500D02*
X346500D01*
Y487459D01*
X349357Y488643D01*
X350541Y491500D01*
D02*
G37*
G36*
X331830Y504500D02*
X309170D01*
Y501500D01*
X310439Y498439D01*
X313500Y497170D01*
X315629D01*
Y496500D01*
X317056Y493056D01*
X319556Y490556D01*
X323000Y489129D01*
X338441D01*
X338643Y488643D01*
X341500Y487459D01*
Y494000D01*
Y500541D01*
X338643Y499357D01*
X338441Y498871D01*
X331866D01*
X331171Y499910D01*
X331830Y501500D01*
Y504500D01*
D02*
G37*
G36*
X346500Y500541D02*
Y496500D01*
X350541D01*
X349357Y499357D01*
X346500Y500541D01*
D02*
G37*
G36*
X369953Y567000D02*
X360500D01*
Y557547D01*
X367184Y560316D01*
X369953Y567000D01*
D02*
G37*
G36*
X360500Y581453D02*
Y572000D01*
X369953D01*
X367184Y578684D01*
X360500Y581453D01*
D02*
G37*
G36*
X355500Y567000D02*
X346047D01*
X348816Y560316D01*
X355500Y557547D01*
Y567000D01*
D02*
G37*
G36*
Y581453D02*
X348816Y578684D01*
X346047Y572000D01*
X355500D01*
Y581453D01*
D02*
G37*
G36*
X569500Y458541D02*
Y454500D01*
X573541D01*
X572358Y457358D01*
X569500Y458541D01*
D02*
G37*
G36*
X573541Y449500D02*
X569500D01*
Y445459D01*
X572358Y446642D01*
X573541Y449500D01*
D02*
G37*
G36*
X740750Y283601D02*
X738250D01*
X731361Y280748D01*
X728508Y273859D01*
Y271359D01*
X740750D01*
Y283601D01*
D02*
G37*
G36*
X748250D02*
X745750D01*
Y271359D01*
X757991D01*
Y273859D01*
X755138Y280748D01*
X748250Y283601D01*
D02*
G37*
G36*
Y327518D02*
X738250D01*
X732127Y324982D01*
X729591Y318859D01*
Y308859D01*
X732127Y302736D01*
X738250Y300200D01*
X748250D01*
X754372Y302736D01*
X756909Y308859D01*
Y318859D01*
X754372Y324982D01*
X748250Y327518D01*
D02*
G37*
G36*
X713000Y208494D02*
X708408Y206592D01*
X706506Y202000D01*
X708129Y198080D01*
Y154920D01*
X706506Y151000D01*
X708408Y146408D01*
X713000Y144506D01*
X717592Y146408D01*
X719494Y151000D01*
X717871Y154920D01*
Y198080D01*
X719494Y202000D01*
X717592Y206592D01*
X713000Y208494D01*
D02*
G37*
G36*
X682541Y206500D02*
X678500D01*
Y202459D01*
X681357Y203642D01*
X682541Y206500D01*
D02*
G37*
G36*
X506730Y217500D02*
X497900D01*
Y210170D01*
X502400D01*
X505462Y211439D01*
X506730Y214500D01*
Y217500D01*
D02*
G37*
G36*
X492900D02*
X484071D01*
Y214500D01*
X485339Y211439D01*
X488400Y210170D01*
X492900D01*
Y217500D01*
D02*
G37*
G36*
X403500Y182541D02*
Y178500D01*
X407541D01*
X406358Y181357D01*
X403500Y182541D01*
D02*
G37*
G36*
X448829Y217500D02*
X440000D01*
Y210170D01*
X444500D01*
X447561Y211439D01*
X448829Y214500D01*
Y217500D01*
D02*
G37*
G36*
X435000D02*
X426170D01*
Y214500D01*
X427439Y211439D01*
X430500Y210170D01*
X435000D01*
Y217500D01*
D02*
G37*
G36*
X407541Y173500D02*
X403500D01*
Y169459D01*
X406358Y170643D01*
X407541Y173500D01*
D02*
G37*
G36*
X398500D02*
X394459D01*
X395643Y170643D01*
X398500Y169459D01*
Y173500D01*
D02*
G37*
G36*
Y182541D02*
X395643Y181357D01*
X394459Y178500D01*
X398500D01*
Y182541D01*
D02*
G37*
G36*
X119500Y394500D02*
X115459D01*
X116643Y391642D01*
X119500Y390459D01*
Y394500D01*
D02*
G37*
G36*
X82500Y232000D02*
X74170D01*
Y229500D01*
X75439Y226439D01*
X78500Y225170D01*
X82500D01*
Y232000D01*
D02*
G37*
G36*
X45830Y152000D02*
X37500D01*
Y145170D01*
X41500D01*
X44562Y146439D01*
X45830Y149500D01*
Y152000D01*
D02*
G37*
G36*
X32500D02*
X24170D01*
Y149500D01*
X25439Y146439D01*
X28500Y145170D01*
X32500D01*
Y152000D01*
D02*
G37*
G36*
X40000Y239406D02*
X31581Y235919D01*
X28094Y227500D01*
X30147Y222543D01*
X30129Y222500D01*
Y178747D01*
X28500D01*
X26204Y177796D01*
X25253Y175500D01*
Y165500D01*
X25841Y164081D01*
X25439Y162561D01*
X24170Y159500D01*
Y157000D01*
X35000D01*
X45830D01*
Y159500D01*
X44562Y162561D01*
X44159Y164081D01*
X44747Y165500D01*
Y175500D01*
X43796Y177796D01*
X41500Y178747D01*
X39871D01*
Y215507D01*
X40000Y215594D01*
X48419Y219081D01*
X51906Y227500D01*
X48419Y235919D01*
X40000Y239406D01*
D02*
G37*
G36*
X70000Y160000D02*
X60547D01*
X63316Y153316D01*
X70000Y150547D01*
Y160000D01*
D02*
G37*
G36*
X65000Y74895D02*
X64403Y74648D01*
X63757D01*
X48450Y68307D01*
X46693Y66550D01*
X40352Y51243D01*
Y50000D01*
Y48757D01*
X46693Y33450D01*
X48450Y31693D01*
X63757Y25352D01*
X64403D01*
X65000Y25105D01*
X65597Y25352D01*
X66243D01*
X81550Y31693D01*
X83307Y33450D01*
X89648Y48757D01*
Y50000D01*
Y51243D01*
X83307Y66550D01*
X81550Y68307D01*
X66243Y74648D01*
X65597D01*
X65000Y74895D01*
D02*
G37*
G36*
X70000Y174453D02*
X63316Y171684D01*
X60547Y165000D01*
X70000D01*
Y174453D01*
D02*
G37*
G36*
X889599Y60001D02*
X877981D01*
X881384Y51786D01*
X889599Y48383D01*
Y60001D01*
D02*
G37*
G36*
Y152819D02*
X881384Y149416D01*
X877981Y141201D01*
X889599D01*
Y152819D01*
D02*
G37*
G36*
X368500Y174500D02*
X364459D01*
X365642Y171642D01*
X368500Y170459D01*
Y174500D01*
D02*
G37*
G36*
X949350Y540330D02*
X945100D01*
Y515500D01*
X953680D01*
Y536000D01*
X952411Y539062D01*
X949350Y540330D01*
D02*
G37*
G36*
X940100Y670330D02*
X888600D01*
X885538Y669061D01*
X884270Y666000D01*
Y621500D01*
X940100D01*
Y670330D01*
D02*
G37*
G36*
X996600D02*
X945100D01*
Y621500D01*
X1000929D01*
Y666000D01*
X999661Y669061D01*
X996600Y670330D01*
D02*
G37*
G36*
X940100Y616500D02*
X884270D01*
Y572000D01*
X885538Y568938D01*
X888600Y567670D01*
X940100D01*
Y616500D01*
D02*
G37*
G36*
X1000929D02*
X945100D01*
Y567670D01*
X996600D01*
X999661Y568938D01*
X1000929Y572000D01*
Y616500D01*
D02*
G37*
G36*
X1002500Y364453D02*
Y355000D01*
X1011953D01*
X1009184Y361684D01*
X1002500Y364453D01*
D02*
G37*
G36*
X915000Y399406D02*
X906581Y395919D01*
X903094Y387500D01*
X906581Y379081D01*
X915000Y375594D01*
X923419Y379081D01*
X926906Y387500D01*
X923419Y395919D01*
X915000Y399406D01*
D02*
G37*
G36*
X106500Y556500D02*
X102459D01*
X103643Y553643D01*
X106500Y552459D01*
Y556500D01*
D02*
G37*
G36*
X115541D02*
X111500D01*
Y552459D01*
X114358Y553643D01*
X115541Y556500D01*
D02*
G37*
G36*
X221102Y711120D02*
X212887Y707717D01*
X210985Y703124D01*
X209735D01*
X208151Y706950D01*
X198201Y711071D01*
X188251Y706950D01*
X184130Y697000D01*
X188251Y687050D01*
X198201Y682929D01*
X208151Y687050D01*
X209736Y690877D01*
X210986D01*
X212887Y686286D01*
X221102Y682884D01*
Y697002D01*
Y711120D01*
D02*
G37*
G36*
X716500Y365500D02*
X712459D01*
X713643Y362643D01*
X716500Y361459D01*
Y365500D01*
D02*
G37*
G36*
X668500Y364329D02*
X664500D01*
Y357500D01*
X672830D01*
Y360000D01*
X671561Y363061D01*
X668500Y364329D01*
D02*
G37*
G36*
X917500Y321953D02*
Y312500D01*
X926953D01*
X924184Y319184D01*
X917500Y321953D01*
D02*
G37*
G36*
X926953Y307500D02*
X917500D01*
Y298047D01*
X924184Y300816D01*
X926953Y307500D01*
D02*
G37*
G36*
X912500D02*
X903047D01*
X905816Y300816D01*
X912500Y298047D01*
Y307500D01*
D02*
G37*
G36*
Y321953D02*
X905816Y319184D01*
X903047Y312500D01*
X912500D01*
Y321953D01*
D02*
G37*
%LPD*%
D10*
X419000Y529000D02*
D03*
Y545000D02*
D03*
X662000Y355000D02*
D03*
Y339000D02*
D03*
X982500Y439500D02*
D03*
Y455500D02*
D03*
X85000Y250500D02*
D03*
Y234500D02*
D03*
X35000Y170500D02*
D03*
Y154500D02*
D03*
X87500Y302000D02*
D03*
Y318000D02*
D03*
D11*
X435000Y455000D02*
D03*
X440000D02*
D03*
X445000D02*
D03*
X450000D02*
D03*
X455000D02*
D03*
X460000D02*
D03*
X465000D02*
D03*
X470000D02*
D03*
X475000D02*
D03*
X480000D02*
D03*
X485000D02*
D03*
X490000D02*
D03*
X495000D02*
D03*
X500000D02*
D03*
X505000D02*
D03*
X510000D02*
D03*
X515000D02*
D03*
X520000D02*
D03*
X525000D02*
D03*
X530000D02*
D03*
X535000D02*
D03*
X540000D02*
D03*
X545000D02*
D03*
X550000D02*
D03*
X555000D02*
D03*
Y300000D02*
D03*
X550000D02*
D03*
X545000D02*
D03*
X540000D02*
D03*
X535000D02*
D03*
X530000D02*
D03*
X525000D02*
D03*
X520000D02*
D03*
X515000D02*
D03*
X510000D02*
D03*
X505000D02*
D03*
X500000D02*
D03*
X495000D02*
D03*
X490000D02*
D03*
X485000D02*
D03*
X480000D02*
D03*
X475000D02*
D03*
X470000D02*
D03*
X465000D02*
D03*
X460000D02*
D03*
X455000D02*
D03*
X450000D02*
D03*
X445000D02*
D03*
X440000D02*
D03*
X435000D02*
D03*
D12*
X572500Y437500D02*
D03*
Y432500D02*
D03*
Y427500D02*
D03*
Y422500D02*
D03*
Y417500D02*
D03*
Y412500D02*
D03*
Y407500D02*
D03*
Y402500D02*
D03*
Y397500D02*
D03*
Y392500D02*
D03*
Y387500D02*
D03*
Y382500D02*
D03*
Y377500D02*
D03*
Y372500D02*
D03*
Y367500D02*
D03*
Y362500D02*
D03*
Y357500D02*
D03*
Y352500D02*
D03*
Y347500D02*
D03*
Y342500D02*
D03*
Y337500D02*
D03*
Y332500D02*
D03*
Y327500D02*
D03*
Y322500D02*
D03*
Y317500D02*
D03*
X417500D02*
D03*
Y322500D02*
D03*
Y327500D02*
D03*
Y332500D02*
D03*
Y337500D02*
D03*
Y342500D02*
D03*
Y347500D02*
D03*
Y352500D02*
D03*
Y357500D02*
D03*
Y362500D02*
D03*
Y367500D02*
D03*
Y372500D02*
D03*
Y377500D02*
D03*
Y382500D02*
D03*
Y387500D02*
D03*
Y392500D02*
D03*
Y397500D02*
D03*
Y402500D02*
D03*
Y407500D02*
D03*
Y412500D02*
D03*
Y417500D02*
D03*
Y422500D02*
D03*
Y427500D02*
D03*
Y432500D02*
D03*
Y437500D02*
D03*
D13*
X968000Y513000D02*
D03*
X942600D02*
D03*
X917200D02*
D03*
D14*
X942600Y619000D02*
D03*
D15*
X320500Y507000D02*
D03*
Y522000D02*
D03*
X413000Y248000D02*
D03*
Y263000D02*
D03*
X352000Y369500D02*
D03*
Y384500D02*
D03*
X524000Y495500D02*
D03*
Y510500D02*
D03*
X495400Y235000D02*
D03*
Y220000D02*
D03*
X437500Y235000D02*
D03*
X437500Y220000D02*
D03*
X632000Y262500D02*
D03*
Y277500D02*
D03*
D16*
X629500Y359500D02*
D03*
X644500D02*
D03*
D17*
X958000Y450000D02*
D03*
X942000D02*
D03*
D18*
X104750Y477750D02*
D03*
X98250D02*
D03*
X91750D02*
D03*
X85250D02*
D03*
X78750D02*
D03*
X72250D02*
D03*
X65750D02*
D03*
X59250D02*
D03*
X52750D02*
D03*
X46250D02*
D03*
X39750D02*
D03*
X33250D02*
D03*
X26750D02*
D03*
X20250D02*
D03*
X104750Y407250D02*
D03*
X98250Y407250D02*
D03*
X91750Y407250D02*
D03*
X85250Y407250D02*
D03*
X78750Y407250D02*
D03*
X72250Y407250D02*
D03*
X65750D02*
D03*
X59250D02*
D03*
X52750D02*
D03*
X46250Y407250D02*
D03*
X39750Y407250D02*
D03*
X33250Y407250D02*
D03*
X26750Y407250D02*
D03*
X20250Y407250D02*
D03*
D19*
X109000Y620500D02*
D03*
Y584500D02*
D03*
D20*
Y610500D02*
D03*
Y602500D02*
D03*
Y594500D02*
D03*
D21*
X80000Y652500D02*
D03*
X40000D02*
D03*
Y552500D02*
D03*
X80000D02*
D03*
D22*
X629000Y218000D02*
X630250Y216750D01*
X687250D01*
X691000Y213000D01*
X692000Y261000D02*
X694000D01*
X678250Y313859D02*
X692000Y300109D01*
X644500Y327500D02*
X649250Y322750D01*
Y256750D02*
Y322750D01*
Y256750D02*
X659000Y247000D01*
X649500Y332500D02*
X664000Y318000D01*
Y256000D02*
Y318000D01*
Y256000D02*
X667000Y253000D01*
X748000Y433000D02*
Y434000D01*
X728000Y413000D02*
X748000Y433000D01*
X134100Y443900D02*
X147500D01*
X125000Y453000D02*
X134100Y443900D01*
X125000Y453000D02*
Y479000D01*
X111000Y493000D02*
X125000Y479000D01*
X90000Y493000D02*
X111000D01*
X85250Y488250D02*
X90000Y493000D01*
X85250Y477750D02*
Y488250D01*
X78750Y493750D02*
X85000Y500000D01*
X78750Y477750D02*
Y493750D01*
X388000Y569500D02*
X401500D01*
X419000Y552000D01*
Y545000D02*
Y552000D01*
X524000Y510500D02*
X525000Y511500D01*
Y550000D01*
X524000Y591000D02*
Y592000D01*
X506000Y573000D02*
X524000Y591000D01*
X436000Y529000D02*
X436000Y529000D01*
X419000Y529000D02*
X436000D01*
X553802Y601802D02*
Y697001D01*
X505000Y553000D02*
X553802Y601802D01*
X505000Y455000D02*
Y553000D01*
X109000Y559000D02*
Y584500D01*
X94500Y620500D02*
X109000D01*
X90000Y625000D02*
X94500Y620500D01*
X50000Y625000D02*
X90000D01*
X42000Y617000D02*
X50000Y625000D01*
X76000Y318000D02*
X76000Y318000D01*
X87500D01*
X194100Y443900D02*
X244750Y393250D01*
X299769Y389000D02*
X300119Y389350D01*
X292400Y389000D02*
X299769D01*
X280000Y376600D02*
X292400Y389000D01*
X298008Y393250D02*
X298358Y393600D01*
X244750Y393250D02*
X298008D01*
X300119Y389350D02*
X317660D01*
X337510Y369500D01*
X352000D01*
X342900Y393600D02*
X352000Y384500D01*
X298358Y393600D02*
X342900D01*
X296598Y397850D02*
X417150D01*
X417500Y397500D01*
X296248D02*
X296598Y397850D01*
X252500Y397500D02*
X296248D01*
X65750Y458250D02*
X66000Y458000D01*
X65750Y458250D02*
Y477750D01*
X39750Y426750D02*
X40000Y427000D01*
X39750Y407250D02*
Y426750D01*
X69000Y429000D02*
X85000D01*
X59250Y419250D02*
X69000Y429000D01*
X59250Y407250D02*
Y419250D01*
X85250Y428750D02*
X91750Y422250D01*
X85000Y429000D02*
X85250Y428750D01*
X91750Y407250D02*
Y422250D01*
X85250Y407250D02*
Y428750D01*
X72000Y262000D02*
X83500Y250500D01*
X85000D01*
X530000Y424000D02*
Y455000D01*
X330000Y191000D02*
X331000Y190000D01*
X337990D01*
X353240Y205250D01*
X371250D01*
X374000Y208000D01*
Y231000D01*
X406000Y263000D01*
X413000D01*
X349000Y234000D02*
Y250000D01*
X373750Y274750D01*
X389250D01*
X345000Y158000D02*
Y167000D01*
X324801Y137801D02*
X345000Y158000D01*
X324801Y62501D02*
Y137801D01*
X371000Y177000D02*
Y186000D01*
X398000Y213000D01*
Y233000D01*
X430000Y235000D02*
X437500D01*
X383000Y188000D02*
X430000Y235000D01*
X383000Y69900D02*
Y188000D01*
X375600Y62500D02*
X383000Y69900D01*
X453000Y384000D02*
X465817D01*
X563500Y372500D02*
X572500D01*
X561000Y375000D02*
Y383871D01*
Y375000D02*
X563500Y372500D01*
X434000Y333000D02*
X459000D01*
X467000Y325000D01*
Y314000D02*
Y325000D01*
X465000Y312000D02*
X467000Y314000D01*
X465000Y300000D02*
Y312000D01*
X449750Y387250D02*
X453000Y384000D01*
X417750Y387250D02*
X449750D01*
X417500Y387500D02*
X417750Y387250D01*
X361500Y392500D02*
X417500D01*
X460000Y290000D02*
Y300000D01*
X535000Y440000D02*
Y455000D01*
X515000Y473000D02*
X519000Y477000D01*
X440000Y455000D02*
Y477000D01*
X147500Y443900D02*
X194100D01*
X444000Y380000D02*
X445000D01*
X441500Y382500D02*
X444000Y380000D01*
X417500Y382500D02*
X441500D01*
X437500Y377500D02*
X445000Y370000D01*
X417500Y377500D02*
X437500D01*
X428500Y372500D02*
X439000Y362000D01*
X417500Y372500D02*
X428500D01*
X417500Y392500D02*
X450500D01*
X451000Y393000D01*
X398999Y378001D02*
Y379999D01*
Y378001D02*
X409500Y367500D01*
X417500D01*
X403368Y357500D02*
X417500D01*
X385868Y375000D02*
X403368Y357500D01*
X379000Y375000D02*
X385868D01*
X391000Y378000D02*
X406500Y362500D01*
X417500D01*
X377000Y365000D02*
X387000D01*
X399500Y352500D01*
X417500D01*
X377000Y354000D02*
X385000D01*
X391500Y347500D01*
X417500D01*
X398000Y327000D02*
X417000D01*
X309500Y238500D02*
X398000Y327000D01*
X402490Y322500D02*
X417500D01*
X314240Y234250D02*
X402490Y322500D01*
X403500Y317500D02*
X417500D01*
X316000Y230000D02*
X403500Y317500D01*
X290479Y238500D02*
X309500D01*
X292240Y234250D02*
X314240D01*
X294000Y230000D02*
X316000D01*
X369750Y331250D02*
X399382D01*
X147499Y164501D02*
X194901D01*
X305400Y275000D01*
X320000D02*
X351000Y306000D01*
X351000D01*
X305400Y275000D02*
X320000D01*
X417000Y337000D02*
X417500Y337500D01*
X397000Y337000D02*
X417000D01*
X324400Y376600D02*
X369750Y331250D01*
X417000Y327000D02*
X417500Y327500D01*
X400632Y332500D02*
X417500D01*
X399382Y331250D02*
X400632Y332500D01*
X417000Y343000D02*
X417500Y342500D01*
X380000Y343000D02*
X417000D01*
X318800Y351200D02*
X327000Y343000D01*
X305400Y351200D02*
X318800D01*
X305400Y376600D02*
X324400D01*
X366000Y375000D02*
Y382000D01*
X360500Y369500D02*
X366000Y375000D01*
X147498Y113702D02*
X165681D01*
X290479Y238500D01*
X147498Y88302D02*
X158302D01*
X180750Y110750D01*
Y122760D01*
X292240Y234250D01*
X147500Y62900D02*
X168900D01*
X185000Y79000D01*
Y121000D01*
X294000Y230000D01*
X455000Y300000D02*
Y315010D01*
X444010Y326000D02*
X455000Y315010D01*
X443000Y326000D02*
X444010D01*
X443000Y341000D02*
X444000Y342000D01*
X464000D01*
X433868Y300000D02*
X435000D01*
X405118Y271250D02*
X433868Y300000D01*
X310000Y220000D02*
X353611D01*
X404861Y271250D02*
X405118D01*
X381000Y265000D02*
X382500Y266500D01*
X388500D01*
X433000Y311000D01*
X353611Y220000D02*
X404861Y271250D01*
X381000Y206000D02*
Y219000D01*
X376000Y201000D02*
X381000Y206000D01*
X355000Y201000D02*
X376000D01*
X248601Y94601D02*
X355000Y201000D01*
X248601Y62501D02*
Y94601D01*
X428000Y286000D02*
X436000D01*
X440000Y290000D01*
Y300000D01*
X389250Y274750D02*
X427750Y313250D01*
X432500Y318000D01*
X446000D01*
X450000Y314000D01*
Y300000D02*
Y314000D01*
X433000Y311000D02*
X443000D01*
X445000Y309000D01*
Y300000D02*
Y309000D01*
X359199Y325801D02*
X373000Y312000D01*
X333000Y212000D02*
X367000D01*
X223202Y102202D02*
X333000Y212000D01*
X223202Y62502D02*
Y102202D01*
X391000Y151000D02*
X439000D01*
X487000Y150000D02*
X488000Y151000D01*
X568000D01*
X713000D02*
Y202000D01*
X824000D02*
Y274000D01*
X759000Y339000D02*
X824000Y274000D01*
X678000Y339000D02*
X759000D01*
X678000D02*
X678250Y338750D01*
Y313859D02*
Y338750D01*
X495400Y235000D02*
X503000D01*
X514000Y224000D01*
Y204000D02*
Y224000D01*
X401001Y91001D02*
X514000Y204000D01*
X401001Y62501D02*
Y91001D01*
X147499Y418501D02*
X208499D01*
X250400Y376600D01*
X280000D01*
X35000Y222500D02*
X40000Y227500D01*
X35000Y170500D02*
Y222500D01*
X97900Y162500D02*
Y291600D01*
X87500Y302000D02*
X97900Y291600D01*
X72250Y372750D02*
X80000Y365000D01*
X72250Y372750D02*
Y407250D01*
X40000Y252900D02*
Y276000D01*
X65750Y301750D01*
Y407250D01*
X136899Y393101D02*
X147499D01*
X121000Y409000D02*
X136899Y393101D01*
X121000Y409000D02*
Y425000D01*
X104750Y441250D02*
X121000Y425000D01*
X104750Y441250D02*
Y477750D01*
X85250Y459250D02*
Y477750D01*
X52750Y426750D02*
X85250Y459250D01*
X52750Y407250D02*
Y426750D01*
X71500Y616500D02*
X90500D01*
X96500Y610500D01*
X109000D01*
X68000Y613000D02*
X71500Y616500D01*
X68000Y604000D02*
Y613000D01*
Y604000D02*
X72000Y600000D01*
X80000D01*
X93500Y602500D02*
X109000D01*
X87000Y609000D02*
X93500Y602500D01*
X80000Y609000D02*
X87000D01*
X32197Y450682D02*
Y452803D01*
X20250Y438735D02*
X32197Y450682D01*
X36439Y446439D02*
X38561D01*
X26750Y436750D02*
X36439Y446439D01*
X20250Y407250D02*
Y438735D01*
X26750Y407250D02*
Y436750D01*
X371500Y387500D02*
X417500D01*
X366000Y382000D02*
X371500Y387500D01*
X352000Y369500D02*
X360500D01*
X353500Y384500D02*
X361500Y392500D01*
X352000Y384500D02*
X353500D01*
X147500Y469300D02*
X180700D01*
X252500Y397500D01*
X147499Y494701D02*
X169299D01*
X261500Y402500D01*
X417500D01*
X147499Y520101D02*
X185899D01*
X191000Y515000D01*
Y486000D02*
Y515000D01*
Y486000D02*
X269500Y407500D01*
X417500D01*
X147500Y545500D02*
X191500D01*
X198000Y539000D01*
Y491000D02*
Y539000D01*
Y491000D02*
X276500Y412500D01*
X417500D01*
X147500Y570900D02*
X192100D01*
X204000Y559000D01*
Y497000D02*
Y559000D01*
Y497000D02*
X283500Y417500D01*
X417500D01*
X147500Y596300D02*
X200700D01*
X213000Y584000D01*
Y499000D02*
Y584000D01*
Y499000D02*
X289500Y422500D01*
X417500D01*
X147500Y621700D02*
X207300D01*
X223000Y606000D01*
Y505000D02*
Y606000D01*
Y505000D02*
X300500Y427500D01*
X417500D01*
X147501Y647099D02*
X202901D01*
X233000Y617000D01*
Y511000D02*
Y617000D01*
Y511000D02*
X311500Y432500D01*
X417500D01*
X147501Y672499D02*
X194501D01*
X242000Y625000D01*
Y517000D02*
Y625000D01*
Y517000D02*
X321500Y437500D01*
X417500D01*
X477000Y321000D02*
X480000Y318000D01*
Y300000D02*
Y318000D01*
X398000Y233000D02*
X413000Y248000D01*
X448000Y278000D02*
X460000Y290000D01*
X425000Y278000D02*
X448000D01*
X413000Y266000D02*
X425000Y278000D01*
X413000Y263000D02*
Y266000D01*
X305399Y325801D02*
X359199D01*
X485000Y290000D02*
X492000Y283000D01*
X485000Y290000D02*
Y300000D01*
X484750Y314240D02*
X490000Y308990D01*
X489000Y316000D02*
Y331000D01*
Y316000D02*
X495000Y310000D01*
X490000Y300000D02*
Y308990D01*
X495000Y300000D02*
Y310000D01*
X495400Y235000D02*
Y262500D01*
X437500Y235000D02*
Y255400D01*
X444600Y262500D01*
X495400D02*
Y265600D01*
X475000Y286000D02*
X495400Y265600D01*
X475000Y286000D02*
Y300000D01*
X444600Y262500D02*
Y264600D01*
X470000Y290000D01*
Y300000D01*
X479000Y331000D02*
X484750Y325250D01*
Y314240D02*
Y325250D01*
X498000Y317000D02*
Y329000D01*
Y317000D02*
X500000Y315000D01*
Y300000D02*
Y315000D01*
X197802Y107802D02*
X310000Y220000D01*
X197802Y62502D02*
Y107802D01*
X729702Y367298D02*
X852501D01*
X719500Y377500D02*
X729702Y367298D01*
X572500Y377500D02*
X719500D01*
X500000Y354000D02*
X508500Y362500D01*
X572500D01*
X554000Y369000D02*
Y377000D01*
Y369000D02*
X555500Y367500D01*
X514000Y352000D02*
X519500Y357500D01*
X572500D01*
X526000Y348000D02*
X530500Y352500D01*
X572500D01*
X534000Y340000D02*
X541500Y347500D01*
X572500D01*
X542000Y335000D02*
X549500Y342500D01*
X572500D01*
X554000Y334000D02*
X557500Y337500D01*
X572500D01*
X836000Y155198D02*
X852500Y138698D01*
X836000Y155198D02*
Y165000D01*
X748000Y253000D02*
X836000Y165000D01*
X667000Y253000D02*
X748000D01*
X572500Y332500D02*
X649500D01*
X741000Y247000D02*
X826000Y162000D01*
X659000Y247000D02*
X741000D01*
X572500Y327500D02*
X644500D01*
X836101Y87899D02*
X852499D01*
X831000Y93000D02*
X836101Y87899D01*
X831000Y93000D02*
Y141000D01*
X732000Y240000D02*
X831000Y141000D01*
X650000Y240000D02*
X732000D01*
X645000Y245000D02*
X650000Y240000D01*
X645000Y245000D02*
Y308000D01*
X630500Y322500D02*
X645000Y308000D01*
X572500Y322500D02*
X630500D01*
X829501Y62499D02*
X852499D01*
X824000Y68000D02*
X829501Y62499D01*
X824000Y68000D02*
Y128000D01*
X720000Y232000D02*
X824000Y128000D01*
X640000Y232000D02*
X720000D01*
X609000Y263000D02*
X640000Y232000D01*
X609000Y263000D02*
Y301000D01*
X592500Y317500D02*
X609000Y301000D01*
X572500Y317500D02*
X592500D01*
X523000Y437000D02*
X525000Y439000D01*
Y455000D01*
X512000Y438000D02*
X520000Y446000D01*
Y455000D01*
X519000Y476000D02*
Y477000D01*
X515000Y455000D02*
Y473000D01*
X510000Y479000D02*
X514000Y483000D01*
X510000Y455000D02*
Y479000D01*
X320500Y496500D02*
Y507000D01*
Y496500D02*
X323000Y494000D01*
X344000D01*
X416000D02*
X423000D01*
X440000Y477000D01*
X320500Y522000D02*
X321500Y521000D01*
X340000D01*
X425000Y507000D02*
X428000D01*
X445000Y490000D01*
Y455000D02*
Y490000D01*
X405000Y545000D02*
X419000D01*
X399000Y539000D02*
X405000Y545000D01*
X399000Y493000D02*
Y539000D01*
Y493000D02*
X419000Y473000D01*
X430000D01*
X435000Y468000D01*
Y455000D02*
Y468000D01*
X274402Y668598D02*
Y697001D01*
Y668598D02*
X342000Y601000D01*
X385000D01*
X450000Y536000D01*
Y455000D02*
Y536000D01*
X299802Y697001D02*
X303999D01*
X455000Y546000D01*
Y455000D02*
Y546000D01*
X325202Y690798D02*
Y697001D01*
Y690798D02*
X460000Y556000D01*
Y455000D02*
Y556000D01*
X350602Y678398D02*
Y697001D01*
Y678398D02*
X465000Y564000D01*
Y455000D02*
Y564000D01*
X376001Y663999D02*
Y697000D01*
Y663999D02*
X470000Y570000D01*
Y455000D02*
Y570000D01*
X401401Y652599D02*
Y697000D01*
Y652599D02*
X475000Y579000D01*
Y455000D02*
Y579000D01*
X426802Y640198D02*
Y697002D01*
Y640198D02*
X480000Y587000D01*
Y455000D02*
Y587000D01*
X452202Y631798D02*
Y697002D01*
Y631798D02*
X485000Y599000D01*
Y455000D02*
Y599000D01*
X477602Y658398D02*
Y697001D01*
Y658398D02*
X490000Y646000D01*
Y455000D02*
Y646000D01*
X503002Y640002D02*
Y697001D01*
X495000Y632000D02*
X503002Y640002D01*
X495000Y455000D02*
Y632000D01*
X528402Y622402D02*
Y697001D01*
X500000Y594000D02*
X528402Y622402D01*
X500000Y455000D02*
Y594000D01*
X572500Y437500D02*
X585500D01*
X820098Y672098D02*
X852500D01*
X585500Y437500D02*
X820098Y672098D01*
X820697Y646697D02*
X852502D01*
X572500Y427500D02*
X626500D01*
X820297Y621297D01*
X852502D01*
X572500Y422500D02*
X640500D01*
X813898Y595898D01*
X852501D01*
X572500Y417500D02*
X652500D01*
X805498Y570498D01*
X852501D01*
X606500Y432500D02*
X820697Y646697D01*
X572500Y432500D02*
X606500D01*
X572500Y412500D02*
X661500D01*
X794098Y545098D01*
X852501D01*
X572500Y407500D02*
X675500D01*
X787698Y519698D01*
X852501D01*
X572500Y402500D02*
X683500D01*
X775298Y494298D01*
X852500D01*
X700500Y397500D02*
X771898Y468898D01*
X852500D01*
X721500Y392500D02*
X772497Y443497D01*
X852502D01*
X743500Y387500D02*
X774097Y418097D01*
X852502D01*
X842303Y382500D02*
X852501Y392698D01*
X572500Y372500D02*
X608500D01*
X621500Y359500D01*
X629500D01*
X555500Y367500D02*
X572500D01*
X538000Y437000D02*
X552000D01*
X535000Y440000D02*
X538000Y437000D01*
X460000Y300000D02*
Y319000D01*
X711000Y224000D02*
X807401Y127599D01*
Y62501D02*
Y127599D01*
X555000Y286000D02*
X617000Y224000D01*
X711000D01*
X615240Y219750D02*
X727995Y106995D01*
X768005D01*
X781999Y93001D01*
Y62499D02*
Y93001D01*
X545000Y278000D02*
Y300000D01*
Y278000D02*
X724000Y99000D01*
X749000D01*
X756599Y91401D01*
Y62499D02*
Y91401D01*
X555000Y286000D02*
Y300000D01*
X540000Y273000D02*
Y300000D01*
Y273000D02*
X731200Y81800D01*
Y62500D02*
Y81800D01*
X535000Y270000D02*
Y300000D01*
Y270000D02*
X705800Y99200D01*
Y62500D02*
Y99200D01*
X530000Y267000D02*
Y300000D01*
Y267000D02*
X680400Y116600D01*
Y62500D02*
Y116600D01*
X525000Y263000D02*
Y300000D01*
Y263000D02*
X655000Y133000D01*
Y62500D02*
Y133000D01*
X520000Y258000D02*
Y300000D01*
Y258000D02*
X629601Y148399D01*
Y62501D02*
Y148399D01*
X550000Y284990D02*
Y300000D01*
Y284990D02*
X615240Y219750D01*
X515000Y253000D02*
Y300000D01*
Y253000D02*
X604201Y163799D01*
Y62501D02*
Y163799D01*
X510000Y244000D02*
Y300000D01*
Y244000D02*
X578799Y175201D01*
Y62499D02*
Y175201D01*
X505000Y300000D02*
Y321000D01*
X632000Y277500D02*
Y293000D01*
X632000Y293000D02*
X632000Y293000D01*
X572500Y397500D02*
X700500D01*
X572500Y392500D02*
X721500D01*
X572500Y387500D02*
X743500D01*
X572500Y382500D02*
X842303D01*
X662000Y339000D02*
X678000D01*
X555000Y455000D02*
Y468000D01*
X694000Y607000D01*
X743000D01*
X807800Y671800D01*
Y696999D01*
X550000Y455000D02*
Y474000D01*
X698000Y622000D01*
X735000D01*
X782400Y669400D01*
Y696999D01*
X545000Y455000D02*
Y479000D01*
X697000Y631000D01*
X730000D01*
X757001Y658001D01*
Y697000D01*
X540000Y455000D02*
Y483000D01*
X696000Y639000D01*
X716000D01*
X731601Y654601D01*
Y697000D01*
X524000Y485000D02*
Y495500D01*
Y485000D02*
X530000Y479000D01*
Y455000D02*
Y479000D01*
X535000Y455000D02*
Y488000D01*
X540000Y493000D01*
Y507000D01*
X536500Y510500D02*
X540000Y507000D01*
X524000Y510500D02*
X536500D01*
X692000Y261000D02*
Y300109D01*
D23*
X639000Y211000D02*
X674000D01*
X676000Y209000D01*
X816109Y195109D02*
X817000D01*
X917499Y138701D02*
Y211501D01*
X872000Y257000D02*
X917499Y211501D01*
X872000Y257000D02*
Y309000D01*
X864502Y316498D02*
X872000Y309000D01*
X852501Y316498D02*
X864502D01*
X929000Y450000D02*
X942000D01*
X985000Y304000D02*
Y437000D01*
X961000Y280000D02*
X985000Y304000D01*
X982500Y439500D02*
X985000Y437000D01*
X571000Y308000D02*
X581000D01*
X590000Y299000D01*
Y281000D02*
Y299000D01*
X632000Y253000D02*
X637000Y248000D01*
X632000Y253000D02*
Y262500D01*
X975000Y156000D02*
Y177500D01*
X957701Y138701D02*
X975000Y156000D01*
X917499Y138701D02*
X957701D01*
X890500Y417500D02*
X915000D01*
X881000Y408000D02*
X890500Y417500D01*
X881000Y274000D02*
Y408000D01*
Y274000D02*
X949600Y205400D01*
Y177500D02*
Y205400D01*
X917498Y87902D02*
X917499Y87901D01*
Y62501D02*
Y87901D01*
X917498Y113300D02*
X917499Y113301D01*
X917498Y87902D02*
Y113300D01*
X917499Y113301D02*
Y138701D01*
X915000Y280000D02*
X961000D01*
X975000Y476000D02*
X990000D01*
X968000Y483000D02*
X975000Y476000D01*
X968000Y483000D02*
Y513000D01*
X1000000Y352500D02*
X1000399Y352101D01*
Y177499D02*
Y352101D01*
X249002Y638998D02*
Y697002D01*
Y638998D02*
X276000Y612000D01*
Y535000D02*
Y612000D01*
Y535000D02*
X289000Y522000D01*
X320500D01*
X743250Y268859D02*
X817000Y195109D01*
D24*
X743250Y313859D02*
D03*
Y268859D02*
D03*
X678250D02*
D03*
Y313859D02*
D03*
D25*
X915000Y700000D02*
D03*
X990000Y100000D02*
D03*
X65000Y50000D02*
D03*
Y700000D02*
D03*
D26*
X97900Y162500D02*
D03*
X72500D02*
D03*
X970000Y352500D02*
D03*
X1000000D02*
D03*
X915000Y387500D02*
D03*
Y417500D02*
D03*
X40000Y252900D02*
D03*
Y227500D02*
D03*
Y320000D02*
D03*
Y345400D02*
D03*
X358000Y569500D02*
D03*
X388000D02*
D03*
X308000Y567000D02*
D03*
X258000D02*
D03*
X915000Y310000D02*
D03*
Y280000D02*
D03*
D27*
X949600Y177500D02*
D03*
X975000D02*
D03*
X1000399Y177499D02*
D03*
X305399Y325801D02*
D03*
X305400Y351200D02*
D03*
Y376600D02*
D03*
X280000D02*
D03*
Y351200D02*
D03*
X279999Y325801D02*
D03*
X305400Y275000D02*
D03*
Y300400D02*
D03*
X280000D02*
D03*
X280000Y275000D02*
D03*
X807800Y696999D02*
D03*
X782400D02*
D03*
X731601Y697000D02*
D03*
X757001D02*
D03*
X655402Y697001D02*
D03*
X630002Y697001D02*
D03*
X680801Y697000D02*
D03*
X706201D02*
D03*
X503002Y697001D02*
D03*
X477602D02*
D03*
X426802Y697002D02*
D03*
X452202D02*
D03*
X553802Y697001D02*
D03*
X528402Y697001D02*
D03*
X579201Y697000D02*
D03*
X604601D02*
D03*
X299802Y697001D02*
D03*
X274402Y697001D02*
D03*
X223602Y697002D02*
D03*
X249002D02*
D03*
X350602Y697001D02*
D03*
X325202D02*
D03*
X376001Y697000D02*
D03*
X401401D02*
D03*
X198201D02*
D03*
X147501Y672499D02*
D03*
Y647099D02*
D03*
X147500Y596300D02*
D03*
Y621700D02*
D03*
X147499Y520101D02*
D03*
X147499Y494701D02*
D03*
X147500Y545500D02*
D03*
Y570900D02*
D03*
X147499Y367701D02*
D03*
Y342301D02*
D03*
X147498Y291502D02*
D03*
Y316902D02*
D03*
X147499Y418501D02*
D03*
X147499Y393101D02*
D03*
X147500Y443900D02*
D03*
Y469300D02*
D03*
X147499Y164501D02*
D03*
X147499Y139101D02*
D03*
X147498Y88302D02*
D03*
Y113702D02*
D03*
X147499Y215301D02*
D03*
Y189901D02*
D03*
X147500Y240700D02*
D03*
Y266100D02*
D03*
Y62900D02*
D03*
X444600Y262500D02*
D03*
X495400D02*
D03*
X470000D02*
D03*
X852499Y62499D02*
D03*
Y87899D02*
D03*
X852500Y138698D02*
D03*
Y113298D02*
D03*
X852501Y214898D02*
D03*
Y240298D02*
D03*
X852500Y189498D02*
D03*
Y164098D02*
D03*
X852501Y367298D02*
D03*
Y392698D02*
D03*
X852502Y443497D02*
D03*
Y418097D02*
D03*
X852501Y316498D02*
D03*
Y341898D02*
D03*
X852500Y291098D02*
D03*
Y265698D02*
D03*
X852501Y570498D02*
D03*
Y595898D02*
D03*
X852502Y646697D02*
D03*
Y621297D02*
D03*
X852501Y519698D02*
D03*
Y545098D02*
D03*
X852500Y494298D02*
D03*
Y468898D02*
D03*
Y672098D02*
D03*
X917499Y138701D02*
D03*
Y113301D02*
D03*
X917498Y87902D02*
D03*
X917499Y62501D02*
D03*
X892099D02*
D03*
X892098Y87902D02*
D03*
X892099Y113301D02*
D03*
Y138701D02*
D03*
X197802Y62502D02*
D03*
X223202D02*
D03*
X274001Y62501D02*
D03*
X248601D02*
D03*
X350200Y62500D02*
D03*
X375600D02*
D03*
X324801Y62501D02*
D03*
X299401D02*
D03*
X502600Y62500D02*
D03*
X528000D02*
D03*
X578799Y62499D02*
D03*
X553399D02*
D03*
X451800Y62500D02*
D03*
X477200Y62500D02*
D03*
X426401Y62501D02*
D03*
X401001D02*
D03*
X705800Y62500D02*
D03*
X731200D02*
D03*
X781999Y62499D02*
D03*
X756599D02*
D03*
X655000Y62500D02*
D03*
X680400Y62500D02*
D03*
X629601Y62501D02*
D03*
X604201D02*
D03*
X807401D02*
D03*
D28*
X629000Y218000D02*
D03*
X691000Y213000D02*
D03*
X694000Y261000D02*
D03*
X639000Y211000D02*
D03*
X676000Y209000D02*
D03*
X816109Y195109D02*
D03*
X748000Y434000D02*
D03*
X728000Y413000D02*
D03*
X929000Y450000D02*
D03*
X590000Y281000D02*
D03*
X637000Y248000D02*
D03*
X567000Y452000D02*
D03*
X85000Y500000D02*
D03*
X990000Y476000D02*
D03*
X525000Y550000D02*
D03*
X524000Y592000D02*
D03*
X506000Y573000D02*
D03*
X436000Y529000D02*
D03*
X109000Y559000D02*
D03*
X42000Y617000D02*
D03*
X76000Y318000D02*
D03*
X66000Y458000D02*
D03*
X40000Y427000D02*
D03*
X85000Y429000D02*
D03*
X72000Y262000D02*
D03*
X330000Y191000D02*
D03*
X349000Y234000D02*
D03*
X345000Y167000D02*
D03*
X401000Y176000D02*
D03*
X371000Y177000D02*
D03*
X445000Y380000D02*
D03*
Y370000D02*
D03*
X439000Y362000D02*
D03*
X451000Y393000D02*
D03*
X398999Y379999D02*
D03*
X391000Y378000D02*
D03*
X379000Y375000D02*
D03*
X377000Y365000D02*
D03*
Y354000D02*
D03*
X351000Y306000D02*
D03*
X397000Y337000D02*
D03*
X380000Y343000D02*
D03*
X327000D02*
D03*
X373000Y312000D02*
D03*
X443000Y326000D02*
D03*
Y341000D02*
D03*
X464000Y342000D02*
D03*
X381000Y265000D02*
D03*
Y219000D02*
D03*
X367000Y212000D02*
D03*
X428000Y286000D02*
D03*
X391000Y151000D02*
D03*
X439000D02*
D03*
X487000Y150000D02*
D03*
X568000Y151000D02*
D03*
X713000D02*
D03*
Y202000D02*
D03*
X824000D02*
D03*
X122000Y397000D02*
D03*
X80000Y365000D02*
D03*
X80000Y609000D02*
D03*
Y600000D02*
D03*
X32197Y452803D02*
D03*
X38561Y446439D02*
D03*
X477000Y321000D02*
D03*
X434000Y333000D02*
D03*
X398000Y233000D02*
D03*
X492000Y283000D02*
D03*
X479000Y331000D02*
D03*
X489000D02*
D03*
X498000Y329000D02*
D03*
X719000Y368000D02*
D03*
X500000Y354000D02*
D03*
X554000Y377000D02*
D03*
X514000Y352000D02*
D03*
X526000Y348000D02*
D03*
X534000Y340000D02*
D03*
X542000Y335000D02*
D03*
X554000Y334000D02*
D03*
X826000Y162000D02*
D03*
X523000Y437000D02*
D03*
X512000Y438000D02*
D03*
X519000Y476000D02*
D03*
X514000Y483000D02*
D03*
X344000Y494000D02*
D03*
X416000D02*
D03*
X340000Y521000D02*
D03*
X425000Y507000D02*
D03*
X552000Y437000D02*
D03*
X460000Y319000D02*
D03*
X538000Y437000D02*
D03*
X505000Y321000D02*
D03*
X632000Y293000D02*
D03*
X678000Y339000D02*
D03*
M02*
